<svg viewBox="0 0 329.9884338378906 199.98843383789062" xmlns="http://www.w3.org/2000/svg"><g><g><g><g><g><line x1="41.171875" y1="176.988" x2="36.171875" y2="176.988" style="visibility: inherit;" fill="rgb(0, 0, 0)" stroke="rgb(204, 204, 204)" stroke-width="1px"></line><line x1="41.171875" y1="159.2892" x2="36.171875" y2="159.2892" style="visibility: inherit;" fill="rgb(0, 0, 0)" stroke="rgb(204, 204, 204)" stroke-width="1px"></line><line x1="41.171875" y1="141.59040000000002" x2="36.171875" y2="141.59040000000002" style="visibility: inherit;" fill="rgb(0, 0, 0)" stroke="rgb(204, 204, 204)" stroke-width="1px"></line><line x1="41.171875" y1="123.8916" x2="36.171875" y2="123.8916" style="visibility: inherit;" fill="rgb(0, 0, 0)" stroke="rgb(204, 204, 204)" stroke-width="1px"></line><line x1="41.171875" y1="106.19280000000002" x2="36.171875" y2="106.19280000000002" style="visibility: inherit;" fill="rgb(0, 0, 0)" stroke="rgb(204, 204, 204)" stroke-width="1px"></line><line x1="41.171875" y1="88.494" x2="36.171875" y2="88.494" style="visibility: inherit;" fill="rgb(0, 0, 0)" stroke="rgb(204, 204, 204)" stroke-width="1px"></line><line x1="41.171875" y1="70.79519999999998" x2="36.171875" y2="70.79519999999998" style="visibility: inherit;" fill="rgb(0, 0, 0)" stroke="rgb(204, 204, 204)" stroke-width="1px"></line><line x1="41.171875" y1="53.09640000000001" x2="36.171875" y2="53.09640000000001" style="visibility: inherit;" fill="rgb(0, 0, 0)" stroke="rgb(204, 204, 204)" stroke-width="1px"></line><line x1="41.171875" y1="35.39759999999999" x2="36.171875" y2="35.39759999999999" style="visibility: inherit;" fill="rgb(0, 0, 0)" stroke="rgb(204, 204, 204)" stroke-width="1px"></line><line x1="41.171875" y1="17.698799999999977" x2="36.171875" y2="17.698799999999977" style="visibility: inherit;" fill="rgb(0, 0, 0)" stroke="rgb(204, 204, 204)" stroke-width="1px"></line><line x1="41.171875" y1="0" x2="36.171875" y2="0" style="visibility: inherit;" fill="rgb(0, 0, 0)" stroke="rgb(204, 204, 204)" stroke-width="1px"></line></g><g transform="translate(31.171875, 0)"><text x="0" y="176.988" dx="0em" dy="0.3em" style="text-anchor: end; visibility: hidden; font-family: Roboto, sans-serif; font-size: 12px; font-weight: 200;" fill="rgb(33, 33, 33)" stroke="none" stroke-width="1px">0.4</text><text x="0" y="159.2892" dx="0em" dy="0.3em" style="text-anchor: end; visibility: inherit; font-family: Roboto, sans-serif; font-size: 12px; font-weight: 200;" fill="rgb(33, 33, 33)" stroke="none" stroke-width="1px">0.6</text><text x="0" y="141.59040000000002" dx="0em" dy="0.3em" style="text-anchor: end; visibility: hidden; font-family: Roboto, sans-serif; font-size: 12px; font-weight: 200;" fill="rgb(33, 33, 33)" stroke="none" stroke-width="1px">0.8</text><text x="0" y="123.8916" dx="0em" dy="0.3em" style="text-anchor: end; visibility: inherit; font-family: Roboto, sans-serif; font-size: 12px; font-weight: 200;" fill="rgb(33, 33, 33)" stroke="none" stroke-width="1px">1</text><text x="0" y="106.19280000000002" dx="0em" dy="0.3em" style="text-anchor: end; visibility: hidden; font-family: Roboto, sans-serif; font-size: 12px; font-weight: 200;" fill="rgb(33, 33, 33)" stroke="none" stroke-width="1px">1.2</text><text x="0" y="88.494" dx="0em" dy="0.3em" style="text-anchor: end; visibility: inherit; font-family: Roboto, sans-serif; font-size: 12px; font-weight: 200;" fill="rgb(33, 33, 33)" stroke="none" stroke-width="1px">1.4</text><text x="0" y="70.79519999999998" dx="0em" dy="0.3em" style="text-anchor: end; visibility: hidden; font-family: Roboto, sans-serif; font-size: 12px; font-weight: 200;" fill="rgb(33, 33, 33)" stroke="none" stroke-width="1px">1.6</text><text x="0" y="53.09640000000001" dx="0em" dy="0.3em" style="text-anchor: end; visibility: inherit; font-family: Roboto, sans-serif; font-size: 12px; font-weight: 200;" fill="rgb(33, 33, 33)" stroke="none" stroke-width="1px">1.8</text><text x="0" y="35.39759999999999" dx="0em" dy="0.3em" style="text-anchor: end; visibility: hidden; font-family: Roboto, sans-serif; font-size: 12px; font-weight: 200;" fill="rgb(33, 33, 33)" stroke="none" stroke-width="1px">2</text><text x="0" y="17.698799999999977" dx="0em" dy="0.3em" style="text-anchor: end; visibility: inherit; font-family: Roboto, sans-serif; font-size: 12px; font-weight: 200;" fill="rgb(33, 33, 33)" stroke="none" stroke-width="1px">2.2</text><text x="0" y="0" dx="0em" dy="0.3em" style="text-anchor: end; visibility: hidden; font-family: Roboto, sans-serif; font-size: 12px; font-weight: 200;" fill="rgb(33, 33, 33)" stroke="none" stroke-width="1px">2.4</text></g><line x1="41.171875" y1="0" x2="41.171875" y2="176.988" fill="rgb(0, 0, 0)" stroke="rgb(204, 204, 204)" stroke-width="1px"></line></g></g><g transform="translate(41, 0)" clip-path="url(#clip_0)"><clipPath id="clip_0"><rect width="288" height="176"></rect></clipPath><g><g><g><line x1="0" y1="0" x2="0" y2="176.988" fill="rgb(0, 0, 0)" stroke="rgb(66, 66, 66)" stroke-width="1px" opacity="0.25"></line><line x1="22.216625" y1="0" x2="22.216625" y2="176.988" fill="rgb(0, 0, 0)" stroke="rgb(66, 66, 66)" stroke-width="1px" opacity="0.25"></line><line x1="44.43325" y1="0" x2="44.43325" y2="176.988" fill="rgb(0, 0, 0)" stroke="rgb(66, 66, 66)" stroke-width="1px" opacity="0.25"></line><line x1="66.64987500000001" y1="0" x2="66.64987500000001" y2="176.988" fill="rgb(0, 0, 0)" stroke="rgb(66, 66, 66)" stroke-width="1px" opacity="0.25"></line><line x1="88.8665" y1="0" x2="88.8665" y2="176.988" fill="rgb(0, 0, 0)" stroke="rgb(66, 66, 66)" stroke-width="1px" opacity="0.25"></line><line x1="111.08312500000001" y1="0" x2="111.08312500000001" y2="176.988" fill="rgb(0, 0, 0)" stroke="rgb(66, 66, 66)" stroke-width="1px" opacity="0.25"></line><line x1="133.29975000000002" y1="0" x2="133.29975000000002" y2="176.988" fill="rgb(0, 0, 0)" stroke="rgb(66, 66, 66)" stroke-width="1px" opacity="0.25"></line><line x1="155.51637499999998" y1="0" x2="155.51637499999998" y2="176.988" fill="rgb(0, 0, 0)" stroke="rgb(66, 66, 66)" stroke-width="1px" opacity="0.25"></line><line x1="177.733" y1="0" x2="177.733" y2="176.988" fill="rgb(0, 0, 0)" stroke="rgb(66, 66, 66)" stroke-width="1px" opacity="0.25"></line><line x1="199.949625" y1="0" x2="199.949625" y2="176.988" fill="rgb(0, 0, 0)" stroke="rgb(66, 66, 66)" stroke-width="1px" opacity="0.25"></line><line x1="222.16625000000002" y1="0" x2="222.16625000000002" y2="176.988" fill="rgb(0, 0, 0)" stroke="rgb(66, 66, 66)" stroke-width="1px" opacity="0.25"></line><line x1="244.38287499999998" y1="0" x2="244.38287499999998" y2="176.988" fill="rgb(0, 0, 0)" stroke="rgb(66, 66, 66)" stroke-width="1px" opacity="0.25"></line><line x1="266.59950000000003" y1="0" x2="266.59950000000003" y2="176.988" fill="rgb(0, 0, 0)" stroke="rgb(66, 66, 66)" stroke-width="1px" opacity="0.25"></line><line x1="288.816125" y1="0" x2="288.816125" y2="176.988" fill="rgb(0, 0, 0)" stroke="rgb(66, 66, 66)" stroke-width="1px" opacity="0.25"></line></g><g><line x1="0" y1="176.988" x2="288.816125" y2="176.988" fill="rgb(0, 0, 0)" stroke="rgb(66, 66, 66)" stroke-width="1px" opacity="0.25"></line><line x1="0" y1="159.2892" x2="288.816125" y2="159.2892" fill="rgb(0, 0, 0)" stroke="rgb(66, 66, 66)" stroke-width="1px" opacity="0.25"></line><line x1="0" y1="141.59040000000002" x2="288.816125" y2="141.59040000000002" fill="rgb(0, 0, 0)" stroke="rgb(66, 66, 66)" stroke-width="1px" opacity="0.25"></line><line x1="0" y1="123.8916" x2="288.816125" y2="123.8916" fill="rgb(0, 0, 0)" stroke="rgb(66, 66, 66)" stroke-width="1px" opacity="0.25"></line><line x1="0" y1="106.19280000000002" x2="288.816125" y2="106.19280000000002" fill="rgb(0, 0, 0)" stroke="rgb(66, 66, 66)" stroke-width="1px" opacity="0.25"></line><line x1="0" y1="88.494" x2="288.816125" y2="88.494" fill="rgb(0, 0, 0)" stroke="rgb(66, 66, 66)" stroke-width="1px" opacity="0.25"></line><line x1="0" y1="70.79519999999998" x2="288.816125" y2="70.79519999999998" fill="rgb(0, 0, 0)" stroke="rgb(66, 66, 66)" stroke-width="1px" opacity="0.25"></line><line x1="0" y1="53.09640000000001" x2="288.816125" y2="53.09640000000001" fill="rgb(0, 0, 0)" stroke="rgb(66, 66, 66)" stroke-width="1px" opacity="0.25"></line><line x1="0" y1="35.39759999999999" x2="288.816125" y2="35.39759999999999" fill="rgb(0, 0, 0)" stroke="rgb(66, 66, 66)" stroke-width="1px" opacity="0.25"></line><line x1="0" y1="17.698799999999977" x2="288.816125" y2="17.698799999999977" fill="rgb(0, 0, 0)" stroke="rgb(66, 66, 66)" stroke-width="1px" opacity="0.25"></line><line x1="0" y1="0" x2="288.816125" y2="0" fill="rgb(0, 0, 0)" stroke="rgb(66, 66, 66)" stroke-width="1px" opacity="0.25"></line></g></g></g><g><g><line x1="0" y1="212.38559999999998" x2="288.816125" y2="212.38559999999998" fill="rgb(0, 0, 0)" stroke="rgb(153, 153, 153)" stroke-width="1.5px"></line></g></g><g><g><line x1="22.216625" y1="0" x2="22.216625" y2="176.988" fill="rgb(0, 0, 0)" stroke="rgb(153, 153, 153)" stroke-width="1.5px"></line></g></g><g><g><g><g><g><path stroke="rgb(255, 112, 67)" stroke-width="2px" d="M24.4382875,155.02284193131922L26.659950000000002,155.18069252867102L28.881612500000003,155.24380469892026L31.103275,155.2477063218358L33.324937500000004,155.3327740150082L35.546600000000005,155.26621728421088L37.7682625,155.28499636142905L39.989925,155.33348781724598L42.2115875,155.37826070405364L44.43325,155.31682266397686L46.6549125,155.32880667775228L48.876575,155.3362525378091L51.0982375,155.34374761557396L53.319900000000004,155.30680833596614L55.541562500000005,155.31136771535208L57.763225000000006,155.3037776161404L59.984887500000006,155.34348887183177L62.20655,155.37800096622456L64.4282125,155.32363886710667L66.64987500000001,155.37124991999877L68.8715375,155.3598242478732L71.09320000000001,155.33287020102068L73.31486249999999,155.32675578856498L75.536525,155.36840509917926L77.75818749999999,155.3587842948678L79.97985,155.34737849030864L82.20151249999999,155.38336313988813L84.423175,155.3763483879908L86.6448375,155.39475515200905L88.8665,155.4300204200065L91.0881625,155.43683040670817L93.309825,155.41919115385497L95.5314875,155.39225617661296L97.75315,155.4079182311052L99.9748125,155.40033529888436L102.196475,155.41097232196122L104.4181375,155.403368264603L106.63980000000001,155.3881531401018L108.8614625,155.40753251238488L111.08312500000001,155.35879911160046L113.3047875,155.32690275569968L115.52645000000001,155.4044999763541L117.7481125,155.3589945076461L119.96977500000001,155.40341596384792L122.19143749999999,155.3769488577478L124.4131,155.35122820064103L126.6347625,155.36540349103907L128.856425,155.3541097261444L131.0780875,155.33958816610408L133.29975000000002,124.12164543761432L135.5214125,84.0821702856746L137.743075,60.9405338406108L139.9647375,45.77333014057505L142.18640000000002,36.941120664520724L144.4080625,31.91410212725539L146.62972499999998,29.089803995468355L148.8513875,26.27563139805855L151.07305,26.34692945380249L153.2947125,26.04080473156953L155.51637499999998,25.065459274068925L157.7380375,25.878507768726053L159.9597,25.711900064563586L162.1813625,25.05826562032686L164.40302499999999,25.273041434383302L166.6246875,24.883935955524386L168.84635,23.962159933032968L171.0680125,24.936912455944075L173.289675,24.951527516443615L175.5113375,24.38997570504137L177.733,23.059654367803237L179.9546625,23.751918276657264L182.176325,24.20133822398998L184.3979875,24.680946717429254L186.61965,25.904654758401016L188.84131250000002,25.403378520209355L191.062975,24.644072385181655L193.28463749999997,24.061711353930026L195.5063,23.93565309966573L197.7279625,25.092253144475016L199.949625,25.589455939076043L202.17128749999998,24.854519424918713L204.39295,24.710710392324568L206.6146125,24.69302922520185L208.836275,26.94442822222435L211.05793749999998,25.926948228233577L213.27960000000002,26.48855574060529L215.5012625,26.053403819080874L217.722925,25.10502954334061L219.94458749999998,24.331534092428917L222.16625000000002,24.066962192288997L224.3879125,24.244244014058086L226.609575,24.308230211840602L228.8312375,24.472099606138805L231.05290000000002,24.527253479007666L233.2745625,24.201331791345925L235.496225,24.050372808747692L237.7178875,23.899792961714965L239.93955000000003,23.946552285016967L242.1612125,24.050275947311768L244.38287499999998,24.047973704983754L246.6045375,24.84759701046582L248.8262,23.843319821689324L251.0478625,24.065084786652218L253.269525,24.566567758740586L255.4911875,24.27922819094994L257.71285,23.280189203426453L259.9345125,23.15405835375141L262.156175,24.139867980047153L264.3778375,23.41533194357637L266.59950000000003,22.777304079704763L268.8211625,23.016010324905665L271.042825,23.18118506976032L273.2644875,23.96123501593149L275.48615,24.616350611380774L277.7078125,24.397053803489214" style="fill: none;" fill="none"></path></g></g></g></g><g opacity="0.2"><g><g><g><path stroke="rgb(255, 112, 67)" stroke-width="2px" d="M24.4382875,155.02284193131922L26.659950000000002,155.2754028870821L28.881612500000003,155.3043923823595L31.103275,155.25229463038443L33.324937500000004,155.44383839521407L35.546600000000005,155.17414536509514L37.7682625,155.31185074231624L39.989925,155.40418882534505L42.2115875,155.44429201540947L44.43325,155.22559433469772L46.6549125,155.34667400429248L48.876575,155.34738080785274L51.0982375,155.3549657594919L53.319900000000004,155.25147178444863L55.541562500000005,155.31820142505168L57.763225000000006,155.29239782044885L59.984887500000006,155.40303895089625L62.20655,155.4297603451967L64.4282125,155.24210399994848L66.64987500000001,155.4426621474981L68.8715375,155.3426863662958L71.09320000000001,155.29244001767634L73.31486249999999,155.31758429059983L75.536525,155.4308785717249L77.75818749999999,155.34435315678118L79.97985,155.3302698321104L82.20151249999999,155.43734002218247L84.423175,155.36582627091406L86.6448375,155.4223652810812L88.8665,155.48291830251216L91.0881625,155.44704538450242L93.309825,155.39273227808474L95.5314875,155.3518537139654L97.75315,155.4314113117218L99.9748125,155.38896090087889L102.196475,155.42692785630226L104.4181375,155.3919621786833L106.63980000000001,155.3653304534912L108.8614625,155.43660157070158L111.08312500000001,155.28569901058674L113.3047875,155.27905822191238L115.52645000000001,155.5208958072424L117.7481125,155.29073630461693L119.96977500000001,155.47004814813135L122.19143749999999,155.33724819860458L124.4131,155.31264721498488L126.6347625,155.38666642663478L128.856425,155.33716907880304L131.0780875,155.31780582604407L133.29975000000002,77.29473134551047L135.5214125,24.02295755825042L137.743075,26.228079173183435L139.9647375,23.022524590587608L142.18640000000002,23.692806450462335L144.4080625,24.37357432136535L146.62972499999998,24.853356797790518L148.8513875,22.054372501945487L151.07305,26.453876537418356L153.2947125,25.581617648220053L155.51637499999998,23.60244108781814L157.7380375,27.09808051071166L159.9597,25.46198850831985L162.1813625,24.077813953971855L164.40302499999999,25.59520515546798L166.6246875,24.300277737236016L168.84635,22.5794958992958L171.0680125,26.399041240310662L173.289675,24.973450107192985L175.5113375,23.547647987937918L177.733,21.0641723619461L179.9546625,24.790314139938346L182.176325,24.875468144989007L184.3979875,25.400359457588188L186.61965,27.740216819858542L188.84131250000002,24.651464162921897L191.062975,23.505113182640066L193.28463749999997,23.188169807052603L195.5063,23.74656571826934L197.7279625,26.827153211688987L199.949625,26.335260130977623L202.17128749999998,23.7521146536827L204.39295,24.494996843433373L206.6146125,24.666507474517815L208.836275,30.32152671775817L211.05793749999998,24.40072823724746L213.27960000000002,27.330967009162894L215.5012625,25.400675936794272L217.722925,23.682468129730218L219.94458749999998,23.171290916061395L222.16625000000002,23.670104342079156L224.3879125,24.51016674671172L226.609575,24.404209508514395L228.8312375,24.717903697586053L231.05290000000002,24.609984288310997L233.2745625,23.712449259853354L235.496225,23.823934334850303L237.7178875,23.673923191165915L239.93955000000003,24.016691269969932L242.1612125,24.205861440753928L244.38287499999998,24.04452034149169L246.6045375,26.047031968688955L248.8262,22.33690403852462L251.0478625,24.39773223409652L253.269525,25.31879221687316L255.4911875,23.848218839263907L257.71285,21.78163072214126L259.9345125,22.964862079238884L262.156175,25.618582419490807L264.3778375,22.32852788887023L266.59950000000003,21.820262283897392L268.8211625,23.374069692707053L271.042825,23.42894718704223L273.2644875,25.131309935188284L275.48615,25.599024004554742L277.7078125,24.06810859165191" style="fill: none;" fill="none"></path></g></g></g></g></g></g><g transform="translate(41, 176)" clip-path="url(#clip_1)"><clipPath id="clip_1"><rect width="288" height="22"></rect></clipPath><g><g><line x1="0" y1="0" x2="0" y2="5" style="visibility: inherit;" fill="rgb(0, 0, 0)" stroke="rgb(204, 204, 204)" stroke-width="1px"></line><line x1="22.216625" y1="0" x2="22.216625" y2="5" style="visibility: inherit;" fill="rgb(0, 0, 0)" stroke="rgb(204, 204, 204)" stroke-width="1px"></line><line x1="44.43325" y1="0" x2="44.43325" y2="5" style="visibility: inherit;" fill="rgb(0, 0, 0)" stroke="rgb(204, 204, 204)" stroke-width="1px"></line><line x1="66.64987500000001" y1="0" x2="66.64987500000001" y2="5" style="visibility: inherit;" fill="rgb(0, 0, 0)" stroke="rgb(204, 204, 204)" stroke-width="1px"></line><line x1="88.8665" y1="0" x2="88.8665" y2="5" style="visibility: inherit;" fill="rgb(0, 0, 0)" stroke="rgb(204, 204, 204)" stroke-width="1px"></line><line x1="111.08312500000001" y1="0" x2="111.08312500000001" y2="5" style="visibility: inherit;" fill="rgb(0, 0, 0)" stroke="rgb(204, 204, 204)" stroke-width="1px"></line><line x1="133.29975000000002" y1="0" x2="133.29975000000002" y2="5" style="visibility: inherit;" fill="rgb(0, 0, 0)" stroke="rgb(204, 204, 204)" stroke-width="1px"></line><line x1="155.51637499999998" y1="0" x2="155.51637499999998" y2="5" style="visibility: inherit;" fill="rgb(0, 0, 0)" stroke="rgb(204, 204, 204)" stroke-width="1px"></line><line x1="177.733" y1="0" x2="177.733" y2="5" style="visibility: inherit;" fill="rgb(0, 0, 0)" stroke="rgb(204, 204, 204)" stroke-width="1px"></line><line x1="199.949625" y1="0" x2="199.949625" y2="5" style="visibility: inherit;" fill="rgb(0, 0, 0)" stroke="rgb(204, 204, 204)" stroke-width="1px"></line><line x1="222.16625000000002" y1="0" x2="222.16625000000002" y2="5" style="visibility: inherit;" fill="rgb(0, 0, 0)" stroke="rgb(204, 204, 204)" stroke-width="1px"></line><line x1="244.38287499999998" y1="0" x2="244.38287499999998" y2="5" style="visibility: inherit;" fill="rgb(0, 0, 0)" stroke="rgb(204, 204, 204)" stroke-width="1px"></line><line x1="266.59950000000003" y1="0" x2="266.59950000000003" y2="5" style="visibility: inherit;" fill="rgb(0, 0, 0)" stroke="rgb(204, 204, 204)" stroke-width="1px"></line><line x1="288.816125" y1="0" x2="288.816125" y2="5" style="visibility: inherit;" fill="rgb(0, 0, 0)" stroke="rgb(204, 204, 204)" stroke-width="1px"></line></g><g transform="translate(0, 8)"><text x="0" y="0" dx="0em" dy="0.95em" style="text-anchor: middle; visibility: hidden; font-family: Roboto, sans-serif; font-size: 12px; font-weight: 200;" fill="rgb(33, 33, 33)" stroke="none" stroke-width="1px">-10</text><text x="22.216625" y="0" dx="0em" dy="0.95em" style="text-anchor: middle; visibility: inherit; font-family: Roboto, sans-serif; font-size: 12px; font-weight: 200;" fill="rgb(33, 33, 33)" stroke="none" stroke-width="1px">0</text><text x="44.43325" y="0" dx="0em" dy="0.95em" style="text-anchor: middle; visibility: hidden; font-family: Roboto, sans-serif; font-size: 12px; font-weight: 200;" fill="rgb(33, 33, 33)" stroke="none" stroke-width="1px">10</text><text x="66.64987500000001" y="0" dx="0em" dy="0.95em" style="text-anchor: middle; visibility: inherit; font-family: Roboto, sans-serif; font-size: 12px; font-weight: 200;" fill="rgb(33, 33, 33)" stroke="none" stroke-width="1px">20</text><text x="88.8665" y="0" dx="0em" dy="0.95em" style="text-anchor: middle; visibility: hidden; font-family: Roboto, sans-serif; font-size: 12px; font-weight: 200;" fill="rgb(33, 33, 33)" stroke="none" stroke-width="1px">30</text><text x="111.08312500000001" y="0" dx="0em" dy="0.95em" style="text-anchor: middle; visibility: inherit; font-family: Roboto, sans-serif; font-size: 12px; font-weight: 200;" fill="rgb(33, 33, 33)" stroke="none" stroke-width="1px">40</text><text x="133.29975000000002" y="0" dx="0em" dy="0.95em" style="text-anchor: middle; visibility: hidden; font-family: Roboto, sans-serif; font-size: 12px; font-weight: 200;" fill="rgb(33, 33, 33)" stroke="none" stroke-width="1px">50</text><text x="155.51637499999998" y="0" dx="0em" dy="0.95em" style="text-anchor: middle; visibility: inherit; font-family: Roboto, sans-serif; font-size: 12px; font-weight: 200;" fill="rgb(33, 33, 33)" stroke="none" stroke-width="1px">60</text><text x="177.733" y="0" dx="0em" dy="0.95em" style="text-anchor: middle; visibility: hidden; font-family: Roboto, sans-serif; font-size: 12px; font-weight: 200;" fill="rgb(33, 33, 33)" stroke="none" stroke-width="1px">70</text><text x="199.949625" y="0" dx="0em" dy="0.95em" style="text-anchor: middle; visibility: inherit; font-family: Roboto, sans-serif; font-size: 12px; font-weight: 200;" fill="rgb(33, 33, 33)" stroke="none" stroke-width="1px">80</text><text x="222.16625000000002" y="0" dx="0em" dy="0.95em" style="text-anchor: middle; visibility: hidden; font-family: Roboto, sans-serif; font-size: 12px; font-weight: 200;" fill="rgb(33, 33, 33)" stroke="none" stroke-width="1px">90</text><text x="244.38287499999998" y="0" dx="0em" dy="0.95em" style="text-anchor: middle; visibility: inherit; font-family: Roboto, sans-serif; font-size: 12px; font-weight: 200;" fill="rgb(33, 33, 33)" stroke="none" stroke-width="1px">100</text><text x="266.59950000000003" y="0" dx="0em" dy="0.95em" style="text-anchor: middle; visibility: hidden; font-family: Roboto, sans-serif; font-size: 12px; font-weight: 200;" fill="rgb(33, 33, 33)" stroke="none" stroke-width="1px">110</text><text x="288.816125" y="0" dx="0em" dy="0.95em" style="text-anchor: middle; visibility: hidden; font-family: Roboto, sans-serif; font-size: 12px; font-weight: 200;" fill="rgb(33, 33, 33)" stroke="none" stroke-width="1px">120</text></g><line x1="0" y1="0" x2="288.816125" y2="0" fill="rgb(0, 0, 0)" stroke="rgb(204, 204, 204)" stroke-width="1px"></line></g></g></g></g></svg>