<svg viewBox="0 0 330.0000305175781 200.00001525878906" xmlns="http://www.w3.org/2000/svg"><g><g><g><g><g><line x1="30.78125" y1="177" x2="25.78125" y2="177" style="visibility: inherit;" fill="rgb(0, 0, 0)" stroke="rgb(204, 204, 204)" stroke-width="1px"></line><line x1="30.78125" y1="163.3846153846154" x2="25.78125" y2="163.3846153846154" style="visibility: inherit;" fill="rgb(0, 0, 0)" stroke="rgb(204, 204, 204)" stroke-width="1px"></line><line x1="30.78125" y1="149.76923076923077" x2="25.78125" y2="149.76923076923077" style="visibility: inherit;" fill="rgb(0, 0, 0)" stroke="rgb(204, 204, 204)" stroke-width="1px"></line><line x1="30.78125" y1="136.15384615384613" x2="25.78125" y2="136.15384615384613" style="visibility: inherit;" fill="rgb(0, 0, 0)" stroke="rgb(204, 204, 204)" stroke-width="1px"></line><line x1="30.78125" y1="122.53846153846153" x2="25.78125" y2="122.53846153846153" style="visibility: inherit;" fill="rgb(0, 0, 0)" stroke="rgb(204, 204, 204)" stroke-width="1px"></line><line x1="30.78125" y1="108.92307692307693" x2="25.78125" y2="108.92307692307693" style="visibility: inherit;" fill="rgb(0, 0, 0)" stroke="rgb(204, 204, 204)" stroke-width="1px"></line><line x1="30.78125" y1="95.3076923076923" x2="25.78125" y2="95.3076923076923" style="visibility: inherit;" fill="rgb(0, 0, 0)" stroke="rgb(204, 204, 204)" stroke-width="1px"></line><line x1="30.78125" y1="81.6923076923077" x2="25.78125" y2="81.6923076923077" style="visibility: inherit;" fill="rgb(0, 0, 0)" stroke="rgb(204, 204, 204)" stroke-width="1px"></line><line x1="30.78125" y1="68.07692307692307" x2="25.78125" y2="68.07692307692307" style="visibility: inherit;" fill="rgb(0, 0, 0)" stroke="rgb(204, 204, 204)" stroke-width="1px"></line><line x1="30.78125" y1="54.46153846153847" x2="25.78125" y2="54.46153846153847" style="visibility: inherit;" fill="rgb(0, 0, 0)" stroke="rgb(204, 204, 204)" stroke-width="1px"></line><line x1="30.78125" y1="40.84615384615384" x2="25.78125" y2="40.84615384615384" style="visibility: inherit;" fill="rgb(0, 0, 0)" stroke="rgb(204, 204, 204)" stroke-width="1px"></line><line x1="30.78125" y1="27.230769230769234" x2="25.78125" y2="27.230769230769234" style="visibility: inherit;" fill="rgb(0, 0, 0)" stroke="rgb(204, 204, 204)" stroke-width="1px"></line><line x1="30.78125" y1="13.615384615384606" x2="25.78125" y2="13.615384615384606" style="visibility: inherit;" fill="rgb(0, 0, 0)" stroke="rgb(204, 204, 204)" stroke-width="1px"></line><line x1="30.78125" y1="0" x2="25.78125" y2="0" style="visibility: inherit;" fill="rgb(0, 0, 0)" stroke="rgb(204, 204, 204)" stroke-width="1px"></line></g><g transform="translate(20.78125, 0)"><text x="0" y="177" dx="0em" dy="0.3em" style="text-anchor: end; visibility: hidden; font-family: Roboto, sans-serif; font-size: 12px; font-weight: 200;" fill="rgb(33, 33, 33)" stroke="none" stroke-width="1px">12</text><text x="0" y="163.3846153846154" dx="0em" dy="0.3em" style="text-anchor: end; visibility: inherit; font-family: Roboto, sans-serif; font-size: 12px; font-weight: 200;" fill="rgb(33, 33, 33)" stroke="none" stroke-width="1px">14</text><text x="0" y="149.76923076923077" dx="0em" dy="0.3em" style="text-anchor: end; visibility: hidden; font-family: Roboto, sans-serif; font-size: 12px; font-weight: 200;" fill="rgb(33, 33, 33)" stroke="none" stroke-width="1px">16</text><text x="0" y="136.15384615384613" dx="0em" dy="0.3em" style="text-anchor: end; visibility: inherit; font-family: Roboto, sans-serif; font-size: 12px; font-weight: 200;" fill="rgb(33, 33, 33)" stroke="none" stroke-width="1px">18</text><text x="0" y="122.53846153846153" dx="0em" dy="0.3em" style="text-anchor: end; visibility: hidden; font-family: Roboto, sans-serif; font-size: 12px; font-weight: 200;" fill="rgb(33, 33, 33)" stroke="none" stroke-width="1px">20</text><text x="0" y="108.92307692307693" dx="0em" dy="0.3em" style="text-anchor: end; visibility: inherit; font-family: Roboto, sans-serif; font-size: 12px; font-weight: 200;" fill="rgb(33, 33, 33)" stroke="none" stroke-width="1px">22</text><text x="0" y="95.3076923076923" dx="0em" dy="0.3em" style="text-anchor: end; visibility: hidden; font-family: Roboto, sans-serif; font-size: 12px; font-weight: 200;" fill="rgb(33, 33, 33)" stroke="none" stroke-width="1px">24</text><text x="0" y="81.6923076923077" dx="0em" dy="0.3em" style="text-anchor: end; visibility: inherit; font-family: Roboto, sans-serif; font-size: 12px; font-weight: 200;" fill="rgb(33, 33, 33)" stroke="none" stroke-width="1px">26</text><text x="0" y="68.07692307692307" dx="0em" dy="0.3em" style="text-anchor: end; visibility: hidden; font-family: Roboto, sans-serif; font-size: 12px; font-weight: 200;" fill="rgb(33, 33, 33)" stroke="none" stroke-width="1px">28</text><text x="0" y="54.46153846153847" dx="0em" dy="0.3em" style="text-anchor: end; visibility: inherit; font-family: Roboto, sans-serif; font-size: 12px; font-weight: 200;" fill="rgb(33, 33, 33)" stroke="none" stroke-width="1px">30</text><text x="0" y="40.84615384615384" dx="0em" dy="0.3em" style="text-anchor: end; visibility: hidden; font-family: Roboto, sans-serif; font-size: 12px; font-weight: 200;" fill="rgb(33, 33, 33)" stroke="none" stroke-width="1px">32</text><text x="0" y="27.230769230769234" dx="0em" dy="0.3em" style="text-anchor: end; visibility: inherit; font-family: Roboto, sans-serif; font-size: 12px; font-weight: 200;" fill="rgb(33, 33, 33)" stroke="none" stroke-width="1px">34</text><text x="0" y="13.615384615384606" dx="0em" dy="0.3em" style="text-anchor: end; visibility: hidden; font-family: Roboto, sans-serif; font-size: 12px; font-weight: 200;" fill="rgb(33, 33, 33)" stroke="none" stroke-width="1px">36</text><text x="0" y="0" dx="0em" dy="0.3em" style="text-anchor: end; visibility: hidden; font-family: Roboto, sans-serif; font-size: 12px; font-weight: 200;" fill="rgb(33, 33, 33)" stroke="none" stroke-width="1px">38</text></g><line x1="30.78125" y1="0" x2="30.78125" y2="177" fill="rgb(0, 0, 0)" stroke="rgb(204, 204, 204)" stroke-width="1px"></line></g></g><g transform="translate(30, 0)" clip-path="url(#clip_0)"><clipPath id="clip_0"><rect width="299" height="177"></rect></clipPath><g><g><g><line x1="0" y1="0" x2="0" y2="177" fill="rgb(0, 0, 0)" stroke="rgb(66, 66, 66)" stroke-width="1px" opacity="0.25"></line><line x1="24.934895833333332" y1="0" x2="24.934895833333332" y2="177" fill="rgb(0, 0, 0)" stroke="rgb(66, 66, 66)" stroke-width="1px" opacity="0.25"></line><line x1="49.869791666666664" y1="0" x2="49.869791666666664" y2="177" fill="rgb(0, 0, 0)" stroke="rgb(66, 66, 66)" stroke-width="1px" opacity="0.25"></line><line x1="74.8046875" y1="0" x2="74.8046875" y2="177" fill="rgb(0, 0, 0)" stroke="rgb(66, 66, 66)" stroke-width="1px" opacity="0.25"></line><line x1="99.73958333333333" y1="0" x2="99.73958333333333" y2="177" fill="rgb(0, 0, 0)" stroke="rgb(66, 66, 66)" stroke-width="1px" opacity="0.25"></line><line x1="124.67447916666667" y1="0" x2="124.67447916666667" y2="177" fill="rgb(0, 0, 0)" stroke="rgb(66, 66, 66)" stroke-width="1px" opacity="0.25"></line><line x1="149.609375" y1="0" x2="149.609375" y2="177" fill="rgb(0, 0, 0)" stroke="rgb(66, 66, 66)" stroke-width="1px" opacity="0.25"></line><line x1="174.54427083333334" y1="0" x2="174.54427083333334" y2="177" fill="rgb(0, 0, 0)" stroke="rgb(66, 66, 66)" stroke-width="1px" opacity="0.25"></line><line x1="199.47916666666666" y1="0" x2="199.47916666666666" y2="177" fill="rgb(0, 0, 0)" stroke="rgb(66, 66, 66)" stroke-width="1px" opacity="0.25"></line><line x1="224.4140625" y1="0" x2="224.4140625" y2="177" fill="rgb(0, 0, 0)" stroke="rgb(66, 66, 66)" stroke-width="1px" opacity="0.25"></line><line x1="249.34895833333334" y1="0" x2="249.34895833333334" y2="177" fill="rgb(0, 0, 0)" stroke="rgb(66, 66, 66)" stroke-width="1px" opacity="0.25"></line><line x1="274.28385416666663" y1="0" x2="274.28385416666663" y2="177" fill="rgb(0, 0, 0)" stroke="rgb(66, 66, 66)" stroke-width="1px" opacity="0.25"></line><line x1="299.21875" y1="0" x2="299.21875" y2="177" fill="rgb(0, 0, 0)" stroke="rgb(66, 66, 66)" stroke-width="1px" opacity="0.25"></line></g><g><line x1="0" y1="177" x2="299.21875" y2="177" fill="rgb(0, 0, 0)" stroke="rgb(66, 66, 66)" stroke-width="1px" opacity="0.25"></line><line x1="0" y1="163.3846153846154" x2="299.21875" y2="163.3846153846154" fill="rgb(0, 0, 0)" stroke="rgb(66, 66, 66)" stroke-width="1px" opacity="0.25"></line><line x1="0" y1="149.76923076923077" x2="299.21875" y2="149.76923076923077" fill="rgb(0, 0, 0)" stroke="rgb(66, 66, 66)" stroke-width="1px" opacity="0.25"></line><line x1="0" y1="136.15384615384613" x2="299.21875" y2="136.15384615384613" fill="rgb(0, 0, 0)" stroke="rgb(66, 66, 66)" stroke-width="1px" opacity="0.25"></line><line x1="0" y1="122.53846153846153" x2="299.21875" y2="122.53846153846153" fill="rgb(0, 0, 0)" stroke="rgb(66, 66, 66)" stroke-width="1px" opacity="0.25"></line><line x1="0" y1="108.92307692307693" x2="299.21875" y2="108.92307692307693" fill="rgb(0, 0, 0)" stroke="rgb(66, 66, 66)" stroke-width="1px" opacity="0.25"></line><line x1="0" y1="95.3076923076923" x2="299.21875" y2="95.3076923076923" fill="rgb(0, 0, 0)" stroke="rgb(66, 66, 66)" stroke-width="1px" opacity="0.25"></line><line x1="0" y1="81.6923076923077" x2="299.21875" y2="81.6923076923077" fill="rgb(0, 0, 0)" stroke="rgb(66, 66, 66)" stroke-width="1px" opacity="0.25"></line><line x1="0" y1="68.07692307692307" x2="299.21875" y2="68.07692307692307" fill="rgb(0, 0, 0)" stroke="rgb(66, 66, 66)" stroke-width="1px" opacity="0.25"></line><line x1="0" y1="54.46153846153847" x2="299.21875" y2="54.46153846153847" fill="rgb(0, 0, 0)" stroke="rgb(66, 66, 66)" stroke-width="1px" opacity="0.25"></line><line x1="0" y1="40.84615384615384" x2="299.21875" y2="40.84615384615384" fill="rgb(0, 0, 0)" stroke="rgb(66, 66, 66)" stroke-width="1px" opacity="0.25"></line><line x1="0" y1="27.230769230769234" x2="299.21875" y2="27.230769230769234" fill="rgb(0, 0, 0)" stroke="rgb(66, 66, 66)" stroke-width="1px" opacity="0.25"></line><line x1="0" y1="13.615384615384606" x2="299.21875" y2="13.615384615384606" fill="rgb(0, 0, 0)" stroke="rgb(66, 66, 66)" stroke-width="1px" opacity="0.25"></line><line x1="0" y1="0" x2="299.21875" y2="0" fill="rgb(0, 0, 0)" stroke="rgb(66, 66, 66)" stroke-width="1px" opacity="0.25"></line></g></g></g><g><g><line x1="0" y1="258.69230769230774" x2="299.21875" y2="258.69230769230774" fill="rgb(0, 0, 0)" stroke="rgb(153, 153, 153)" stroke-width="1.5px"></line></g></g><g><g><line x1="24.934895833333332" y1="0" x2="24.934895833333332" y2="177" fill="rgb(0, 0, 0)" stroke="rgb(153, 153, 153)" stroke-width="1.5px"></line></g></g><g><g><g><g><g><path stroke="rgb(255, 112, 67)" stroke-width="2px" d="M26.181640625,85.842017687284L27.428385416666664,267.48240596514484L38.64908854166667,189.38177492547084L39.895833333333336,165.55564956360112L41.142578125,143.4703263813225L42.389322916666664,127.91704889501497L43.636067708333336,117.4509787487449L44.8828125,112.30947276656676L46.12955729166667,99.88561104378024L47.37630208333333,89.66244356450558L48.623046875,78.85990528644732L49.869791666666664,67.79898389058299L51.116536458333336,65.8812151478495L52.36328125,58.08722820510217L53.610026041666664,47.84134456553833L54.85677083333333,35.79485274917738L56.103515625,26.1706248388376L57.35026041666667,23.883994314871853L58.597005208333336,18.500206494270536L59.84375,13.615962924107158L61.090494791666664,16.27204766387404L62.337239583333336,12.955954117851823L63.583984375,18.840030970269943L64.83072916666667,13.242926522937887L66.07747395833333,18.621376146931414L67.32421875,20.08771778010742L68.57096354166666,25.34796990268513L69.81770833333333,23.851495091458993L71.064453125,24.22587666910266L72.31119791666667,23.917148432143627L73.55794270833333,27.135622611848078L74.8046875,25.771537221666865L76.05143229166666,22.175161933011534L77.29817708333334,21.57999175650069L78.544921875,17.655987547790684L79.79166666666667,12.238216973724395L81.03841145833333,16.39890816740826L82.28515625,17.137555455347517L83.53190104166667,21.71374518509478L84.77864583333333,19.77271979073835L86.025390625,19.988787572781987L87.27213541666667,14.842404377217578L88.51888020833333,15.313519572884816L89.765625,19.590503676304206L91.01236979166666,23.373832986287898L92.25911458333334,20.63772107050339L93.505859375,20.803817416847647L94.75260416666666,20.74254875793236L95.99934895833334,23.631726154174135L97.24609375,27.68518310649243L98.49283854166667,26.494895170385718L99.73958333333333,29.52034103289566L100.986328125,30.558732188848012L102.23307291666667,31.94788157217302L103.47981770833333,29.709495615291473L104.7265625,30.488964886264768L105.97330729166667,32.33755799716978L107.22005208333333,33.23436821223292L108.466796875,33.52648365927338L109.71354166666666,32.327177884773L110.96028645833334,32.98076712139493L112.20703125,35.605468951566664L113.45377604166666,39.75809998501943L114.70052083333334,41.08510678431847L115.947265625,41.73950298496341L117.19401041666667,43.77508234165602L118.44075520833333,46.04054064996995L119.6875,45.48627924039889L120.93424479166667,47.92469187355687L122.18098958333333,46.769557667281305L123.427734375,46.51301044054118L124.67447916666667,47.34469958074032L125.92122395833333,46.4719842557966L127.16796875,45.58467080273615L128.41471354166666,47.11757324063734L129.66145833333334,47.971524116172915L130.908203125,50.77522700374257L132.15494791666666,49.43819730900076L133.40169270833334,53.31973745020101L134.6484375,53.01890264139467L135.89518229166666,54.826454417713144L137.14192708333331,58.91875848671563L138.388671875,58.977954979818584L139.63541666666666,58.181868842430276L140.88216145833334,59.362470286875315L142.12890625,61.5843782292541L143.37565104166669,64.73264618592798L144.62239583333334,64.94929406203002L145.869140625,69.06271144933112L147.11588541666666,71.7352076766243L148.36263020833334,71.32390958146662L149.609375,73.70498866621962L150.85611979166666,72.94290876580938L152.10286458333331,72.60935253112024L153.349609375,71.15143281712464L154.59635416666669,74.07061177603386L155.84309895833334,73.61392485887076L157.08984375,77.13236324662131L158.33658854166666,81.15040802623864L159.58333333333334,82.6658035515173L160.830078125,84.46923607119923L162.07682291666666,87.91225679281905L163.32356770833331,89.53944799823313L164.5703125,88.37237218333931L165.81705729166669,88.05037452765495L167.06380208333334,89.27096979152536L168.310546875,92.12131433317658L169.55729166666666,93.00965031302194L170.80403645833331,92.01962084225089L172.05078125,92.5065019435454L173.29752604166669,92.93561339006052L174.54427083333334,93.98413065540237L175.791015625,90.63735383339878L177.03776041666666,92.89192257507308L178.28450520833334,95.02862460264228L179.53125,93.24676357830148L180.77799479166666,91.05537391470926L182.02473958333331,94.69785852522655L183.271484375,95.84755396236963L184.51822916666669,89.47126375348284L185.76497395833334,90.10998371713066L187.01171875,94.7127622921399L188.25846354166666,95.86465057808029L189.50520833333331,94.57023952099556L190.751953125,99.39021796538619L191.99869791666669,101.2061417291735L193.24544270833334,101.66801316954664L194.4921875,98.63068135354776L195.73893229166666,98.41859609028934L196.98567708333334,97.35648182714723L198.232421875,98.04974959809124L199.47916666666666,98.96395696710668L200.72591145833331,104.71934385283387L201.97265625,104.64530301157636L203.21940104166669,102.87245117739165L204.46614583333334,102.9883117568031L205.712890625,105.92178839990704L206.95963541666666,104.42817744527402L208.20638020833331,104.63846343291898L209.453125,103.03599474793688L210.69986979166669,101.25010818956368L211.94661458333334,101.34770828179896L213.193359375,102.23230455563662L214.44010416666666,105.56502354383495L215.68684895833334,105.27213837509903L216.93359375,105.52994890922406L218.18033854166666,109.34597723432839L219.42708333333331,107.89627165506894L220.673828125,107.24606016500088L221.92057291666669,108.16860792540717L223.16731770833334,109.48630876886921L224.4140625,108.15364415743029L225.66080729166666,111.69764206908069L226.90755208333331,113.17377510773449L228.154296875,116.29959144426995L229.40104166666669,117.08288582335847L230.64778645833334,116.94617320309337L231.89453125,119.32318244334978L233.14127604166666,120.53870437027855L234.38802083333334,121.11220700890466L235.634765625,123.0183559048902L236.88151041666666,124.4086807381809L238.12825520833331,124.71168949031879L239.375,122.40266113634874L240.62174479166669,122.2678833498531L241.86848958333334,124.73962082505986L243.115234375,123.32520783063538L244.36197916666666,126.07403837236897L245.60872395833331,126.61762685854194L246.85546875,127.96442479840903L248.10221354166669,119.68160727866606L249.34895833333334,119.10425779371333L250.595703125,118.8561522350565L251.84244791666666,118.12593528681592L253.08919270833334,121.196743775192L254.3359375,122.33839576767869L255.58268229166666,123.4952956205381L256.8294270833333,126.36017172774467L258.076171875,126.73802792114948L259.3229166666667,124.25852397408768L260.5696614583333,125.6320551263584L261.81640625,124.22143891570578L263.0631510416667,124.93641013756574L264.3098958333333,126.52959073374701L265.556640625,127.80713907676038L266.8033854166667,130.16480618869446L268.05013020833337,130.17896081118278L269.296875,129.94967880909735L270.5436197916667,130.1164176921873L271.7903645833333,131.46808188690943L273.037109375,129.0081969902812L274.28385416666663,130.7583472548846" style="fill: none;" fill="none"></path></g></g></g></g><g opacity="0.2"><g><g><g><path stroke="rgb(255, 112, 67)" stroke-width="2px" d="M26.181640625,85.84201768728403L27.428385416666664,376.46663893186127L36.155598958333336,207.52706358982965L37.40234375,171.04711917730478L38.64908854166667,154.0348286995521L39.895833333333336,129.9461222428542L41.142578125,110.41445401998666L42.389322916666664,104.61760315528282L43.636067708333336,101.76417600191557L44.8828125,104.60083998166597L46.12955729166667,81.25507582150973L47.37630208333333,74.33028800670917L48.623046875,62.65774352733906L49.869791666666664,51.20861280881442L51.116536458333336,63.00466720874493L52.36328125,46.39650425544151L53.610026041666664,32.47272139329177L54.85677083333333,17.72525772681603L56.103515625,11.734351378220783L57.35026041666667,20.45405828035794L58.597005208333336,10.424538539006159L59.84375,6.2896050673264705L61.090494791666664,20.25617232689491L62.337239583333336,7.981815631573022L63.583984375,27.66614429767315L64.83072916666667,4.847270965576172L66.07747395833333,26.689049940842853L67.32421875,22.287230124840363L68.57096354166666,33.23834786048302L69.81770833333333,21.606782913208008L71.064453125,24.787449029775768L72.31119791666667,23.45405607957107L73.55794270833333,31.963333863478436L74.8046875,23.725409140953644L76.05143229166666,16.780599007239715L77.29817708333334,20.687236492450413L78.544921875,11.769981237558214L79.79166666666667,4.11156111497146L81.03841145833333,22.639944956852837L82.28515625,18.245526387141304L83.53190104166667,28.578029779287487L84.77864583333333,16.86118169931266L86.025390625,20.31288924584022L87.27213541666667,7.122829583974988L88.51888020833333,16.020192366379963L89.765625,26.005979831402126L91.01236979166666,29.04882695124699L92.25911458333334,16.533553196833687L93.505859375,21.0529619363638L94.75260416666666,20.65064576955941L95.99934895833334,27.965492248535156L97.24609375,33.76536853496845L98.49283854166667,24.709463266225963L99.73958333333333,34.058509826660156L100.986328125,32.11631892277644L102.23307291666667,34.031605647160454L103.47981770833333,26.351916679969207L104.7265625,31.65816879272461L105.97330729166667,35.11044766352727L107.22005208333333,34.579583534827606L108.466796875,33.964656829833984L109.71354166666666,30.52821922302246L110.96028645833334,33.961150976327744L112.20703125,39.542521696824295L113.45377604166666,45.98704653519851L114.70052083333334,43.07561698326698L115.947265625,42.72109728593093L117.19401041666667,46.8284513766949L118.44075520833333,49.43872811244084L119.6875,44.65488712604229L120.93424479166667,51.58231082329384L122.18098958333333,45.0368563578679L123.427734375,46.12818960043099L124.67447916666667,48.59223329103909L125.92122395833333,45.16291126838097L127.16796875,44.25370062314548L128.41471354166666,49.4169268974891L129.66145833333334,49.252450429476234L130.908203125,54.98078133509709L132.15494791666666,47.43265276688796L133.40169270833334,59.14204766200139L134.6484375,52.56765042818509L135.89518229166666,57.53778208219089L137.14192708333331,65.05721459021935L138.388671875,59.06674971947304L139.63541666666666,56.98773963634785L140.88216145833334,61.13337245354286L142.12890625,64.91724014282227L143.37565104166669,69.45504812093881L144.62239583333334,65.27426587618314L145.869140625,75.23283753028282L147.11588541666666,75.74395201756404L148.36263020833334,70.70696243873009L149.609375,77.27660729334904L150.85611979166666,71.799788915194L152.10286458333331,72.10901817908653L153.349609375,68.96455324613132L154.59635416666669,78.44938021439773L155.84309895833334,72.92889448312613L157.08984375,82.41002082824707L158.33658854166666,87.17747519566463L159.58333333333334,84.93889683943527L160.830078125,87.17438485072209L162.07682291666666,93.07678787524884L163.32356770833331,91.98023480635422L164.5703125,86.62175846099854L165.81705729166669,87.56737804412842L167.06380208333334,91.10186268733098L168.310546875,96.39683114565337L169.55729166666666,94.34215428278996L170.80403645833331,90.53457663609431L172.05078125,93.23682359548715L173.29752604166669,93.57928055983322L174.54427083333334,95.55690655341515L175.791015625,85.61718860039345L177.03776041666666,96.27377568758452L178.28450520833334,98.23367764399602L179.53125,90.57397204179031L180.77799479166666,87.76828941932091L182.02473958333331,100.16158544100249L183.271484375,97.57209711808426L184.51822916666669,79.90682844015268L185.76497395833334,91.06806366260236L187.01171875,101.6169301546537L188.25846354166666,97.59248300699088L189.50520833333331,92.62862293536847L190.751953125,106.62018563197209L191.99869791666669,103.93002737485445L193.24544270833334,102.36082033010629L194.4921875,94.07468362954947L195.73893229166666,98.1004681954017L196.98567708333334,95.76331043243408L198.232421875,99.08965125450722L199.47916666666666,100.33526802062988L200.72591145833331,113.35242418142465L201.97265625,104.53424174969012L203.21940104166669,100.2131734261146L204.46614583333334,103.16210262592023L205.712890625,110.32200336456299L206.95963541666666,102.18776101332443L208.20638020833331,104.95389241438644L209.453125,100.63229172046368L210.69986979166669,98.57127835200383L211.94661458333334,101.49410842015193L213.193359375,103.55919896639311L214.44010416666666,110.56410202613243L215.68684895833334,104.8328106219952L216.93359375,105.91666471041167L218.18033854166666,115.07001972198486L219.42708333333331,105.72171328617976L220.673828125,106.27074292989877L221.92057291666669,109.55242956601656L223.16731770833334,111.46286003406232L224.4140625,106.15464724027193L225.66080729166666,117.0136389365563L226.90755208333331,115.38797466571515L228.154296875,120.9883159490732L229.40104166666669,118.25782739199126L230.64778645833334,116.7411042726957L231.89453125,122.88869630373442L233.14127604166666,122.36198726067177L234.38802083333334,121.97246096684383L235.634765625,125.8775792488685L236.88151041666666,126.49416798811691L238.12825520833331,125.16620261852557L239.375,118.93911860539363L240.62174479166669,122.06571667010968L241.86848958333334,128.44722703786996L243.115234375,121.20358833899864L244.36197916666666,130.1972841849694L245.60872395833331,127.43300958780142L246.85546875,129.9846217082097L248.10221354166669,107.2573809990516L249.34895833333334,118.23823356628418L250.595703125,118.48399389707124L251.84244791666666,117.030609864455L253.08919270833334,125.80295650775616L254.3359375,124.05087375640869L255.58268229166666,125.23064539982722L256.8294270833333,130.6574858885545L258.076171875,127.30481221125676L259.3229166666667,120.53926805349496L260.5696614583333,127.6923518547645L261.81640625,122.10551459972675L263.0631510416667,126.00886697035568L264.3098958333333,128.9193616280189L265.556640625,129.72346159128043L266.8033854166667,133.70130685659555L268.05013020833337,130.2001927449153L269.296875,129.60575580596924L270.5436197916667,130.3665260168222L271.7903645833333,133.49557817899262L273.037109375,125.31836964533879L274.28385416666663,133.38357265178973" style="fill: none;" fill="none"></path></g></g></g></g></g><g><g><span fill="rgb(0, 0, 0)" stroke="none" stroke-width="1px">Alt + Scroll to Zoom</span></g></g></g><g transform="translate(30, 177)" clip-path="url(#clip_1)"><clipPath id="clip_1"><rect width="299" height="23"></rect></clipPath><g><g><line x1="0" y1="0" x2="0" y2="5" style="visibility: inherit;" fill="rgb(0, 0, 0)" stroke="rgb(204, 204, 204)" stroke-width="1px"></line><line x1="24.934895833333332" y1="0" x2="24.934895833333332" y2="5" style="visibility: inherit;" fill="rgb(0, 0, 0)" stroke="rgb(204, 204, 204)" stroke-width="1px"></line><line x1="49.869791666666664" y1="0" x2="49.869791666666664" y2="5" style="visibility: inherit;" fill="rgb(0, 0, 0)" stroke="rgb(204, 204, 204)" stroke-width="1px"></line><line x1="74.8046875" y1="0" x2="74.8046875" y2="5" style="visibility: inherit;" fill="rgb(0, 0, 0)" stroke="rgb(204, 204, 204)" stroke-width="1px"></line><line x1="99.73958333333333" y1="0" x2="99.73958333333333" y2="5" style="visibility: inherit;" fill="rgb(0, 0, 0)" stroke="rgb(204, 204, 204)" stroke-width="1px"></line><line x1="124.67447916666667" y1="0" x2="124.67447916666667" y2="5" style="visibility: inherit;" fill="rgb(0, 0, 0)" stroke="rgb(204, 204, 204)" stroke-width="1px"></line><line x1="149.609375" y1="0" x2="149.609375" y2="5" style="visibility: inherit;" fill="rgb(0, 0, 0)" stroke="rgb(204, 204, 204)" stroke-width="1px"></line><line x1="174.54427083333334" y1="0" x2="174.54427083333334" y2="5" style="visibility: inherit;" fill="rgb(0, 0, 0)" stroke="rgb(204, 204, 204)" stroke-width="1px"></line><line x1="199.47916666666666" y1="0" x2="199.47916666666666" y2="5" style="visibility: inherit;" fill="rgb(0, 0, 0)" stroke="rgb(204, 204, 204)" stroke-width="1px"></line><line x1="224.4140625" y1="0" x2="224.4140625" y2="5" style="visibility: inherit;" fill="rgb(0, 0, 0)" stroke="rgb(204, 204, 204)" stroke-width="1px"></line><line x1="249.34895833333334" y1="0" x2="249.34895833333334" y2="5" style="visibility: inherit;" fill="rgb(0, 0, 0)" stroke="rgb(204, 204, 204)" stroke-width="1px"></line><line x1="274.28385416666663" y1="0" x2="274.28385416666663" y2="5" style="visibility: inherit;" fill="rgb(0, 0, 0)" stroke="rgb(204, 204, 204)" stroke-width="1px"></line><line x1="299.21875" y1="0" x2="299.21875" y2="5" style="visibility: inherit;" fill="rgb(0, 0, 0)" stroke="rgb(204, 204, 204)" stroke-width="1px"></line></g><g transform="translate(0, 8)"><text x="0" y="0" dx="0em" dy="0.95em" style="text-anchor: middle; visibility: hidden; font-family: Roboto, sans-serif; font-size: 12px; font-weight: 200;" fill="rgb(33, 33, 33)" stroke="none" stroke-width="1px">-20</text><text x="24.934895833333332" y="0" dx="0em" dy="0.95em" style="text-anchor: middle; visibility: inherit; font-family: Roboto, sans-serif; font-size: 12px; font-weight: 200;" fill="rgb(33, 33, 33)" stroke="none" stroke-width="1px">0</text><text x="49.869791666666664" y="0" dx="0em" dy="0.95em" style="text-anchor: middle; visibility: inherit; font-family: Roboto, sans-serif; font-size: 12px; font-weight: 200;" fill="rgb(33, 33, 33)" stroke="none" stroke-width="1px">20</text><text x="74.8046875" y="0" dx="0em" dy="0.95em" style="text-anchor: middle; visibility: inherit; font-family: Roboto, sans-serif; font-size: 12px; font-weight: 200;" fill="rgb(33, 33, 33)" stroke="none" stroke-width="1px">40</text><text x="99.73958333333333" y="0" dx="0em" dy="0.95em" style="text-anchor: middle; visibility: inherit; font-family: Roboto, sans-serif; font-size: 12px; font-weight: 200;" fill="rgb(33, 33, 33)" stroke="none" stroke-width="1px">60</text><text x="124.67447916666667" y="0" dx="0em" dy="0.95em" style="text-anchor: middle; visibility: inherit; font-family: Roboto, sans-serif; font-size: 12px; font-weight: 200;" fill="rgb(33, 33, 33)" stroke="none" stroke-width="1px">80</text><text x="149.609375" y="0" dx="0em" dy="0.95em" style="text-anchor: middle; visibility: inherit; font-family: Roboto, sans-serif; font-size: 12px; font-weight: 200;" fill="rgb(33, 33, 33)" stroke="none" stroke-width="1px">100</text><text x="174.54427083333334" y="0" dx="0em" dy="0.95em" style="text-anchor: middle; visibility: inherit; font-family: Roboto, sans-serif; font-size: 12px; font-weight: 200;" fill="rgb(33, 33, 33)" stroke="none" stroke-width="1px">120</text><text x="199.47916666666666" y="0" dx="0em" dy="0.95em" style="text-anchor: middle; visibility: inherit; font-family: Roboto, sans-serif; font-size: 12px; font-weight: 200;" fill="rgb(33, 33, 33)" stroke="none" stroke-width="1px">140</text><text x="224.4140625" y="0" dx="0em" dy="0.95em" style="text-anchor: middle; visibility: inherit; font-family: Roboto, sans-serif; font-size: 12px; font-weight: 200;" fill="rgb(33, 33, 33)" stroke="none" stroke-width="1px">160</text><text x="249.34895833333334" y="0" dx="0em" dy="0.95em" style="text-anchor: middle; visibility: inherit; font-family: Roboto, sans-serif; font-size: 12px; font-weight: 200;" fill="rgb(33, 33, 33)" stroke="none" stroke-width="1px">180</text><text x="274.28385416666663" y="0" dx="0em" dy="0.95em" style="text-anchor: middle; visibility: inherit; font-family: Roboto, sans-serif; font-size: 12px; font-weight: 200;" fill="rgb(33, 33, 33)" stroke="none" stroke-width="1px">200</text><text x="299.21875" y="0" dx="0em" dy="0.95em" style="text-anchor: middle; visibility: hidden; font-family: Roboto, sans-serif; font-size: 12px; font-weight: 200;" fill="rgb(33, 33, 33)" stroke="none" stroke-width="1px">220</text></g><line x1="0" y1="0" x2="299.21875" y2="0" fill="rgb(0, 0, 0)" stroke="rgb(204, 204, 204)" stroke-width="1px"></line></g></g></g></g></svg>