<svg viewBox="0 0 330.0000305175781 200.00001525878906" xmlns="http://www.w3.org/2000/svg"><g><g><g><g><g><line x1="51.5625" y1="177" x2="46.5625" y2="177" style="visibility: inherit;" fill="rgb(0, 0, 0)" stroke="rgb(204, 204, 204)" stroke-width="1px"></line><line x1="51.5625" y1="162.25000000000006" x2="46.5625" y2="162.25000000000006" style="visibility: inherit;" fill="rgb(0, 0, 0)" stroke="rgb(204, 204, 204)" stroke-width="1px"></line><line x1="51.5625" y1="147.50000000000006" x2="46.5625" y2="147.50000000000006" style="visibility: inherit;" fill="rgb(0, 0, 0)" stroke="rgb(204, 204, 204)" stroke-width="1px"></line><line x1="51.5625" y1="132.75000000000003" x2="46.5625" y2="132.75000000000003" style="visibility: inherit;" fill="rgb(0, 0, 0)" stroke="rgb(204, 204, 204)" stroke-width="1px"></line><line x1="51.5625" y1="118.00000000000001" x2="46.5625" y2="118.00000000000001" style="visibility: inherit;" fill="rgb(0, 0, 0)" stroke="rgb(204, 204, 204)" stroke-width="1px"></line><line x1="51.5625" y1="103.25" x2="46.5625" y2="103.25" style="visibility: inherit;" fill="rgb(0, 0, 0)" stroke="rgb(204, 204, 204)" stroke-width="1px"></line><line x1="51.5625" y1="88.50000000000009" x2="46.5625" y2="88.50000000000009" style="visibility: inherit;" fill="rgb(0, 0, 0)" stroke="rgb(204, 204, 204)" stroke-width="1px"></line><line x1="51.5625" y1="73.75000000000006" x2="46.5625" y2="73.75000000000006" style="visibility: inherit;" fill="rgb(0, 0, 0)" stroke="rgb(204, 204, 204)" stroke-width="1px"></line><line x1="51.5625" y1="59.00000000000004" x2="46.5625" y2="59.00000000000004" style="visibility: inherit;" fill="rgb(0, 0, 0)" stroke="rgb(204, 204, 204)" stroke-width="1px"></line><line x1="51.5625" y1="44.2500000000001" x2="46.5625" y2="44.2500000000001" style="visibility: inherit;" fill="rgb(0, 0, 0)" stroke="rgb(204, 204, 204)" stroke-width="1px"></line><line x1="51.5625" y1="29.500000000000014" x2="46.5625" y2="29.500000000000014" style="visibility: inherit;" fill="rgb(0, 0, 0)" stroke="rgb(204, 204, 204)" stroke-width="1px"></line><line x1="51.5625" y1="14.750000000000085" x2="46.5625" y2="14.750000000000085" style="visibility: inherit;" fill="rgb(0, 0, 0)" stroke="rgb(204, 204, 204)" stroke-width="1px"></line><line x1="51.5625" y1="0" x2="46.5625" y2="0" style="visibility: inherit;" fill="rgb(0, 0, 0)" stroke="rgb(204, 204, 204)" stroke-width="1px"></line></g><g transform="translate(41.5625, 0)"><text x="0" y="177" dx="0em" dy="0.3em" style="text-anchor: end; visibility: hidden; font-family: Roboto, sans-serif; font-size: 12px; font-weight: 200;" fill="rgb(33, 33, 33)" stroke="none" stroke-width="1px">1.6</text><text x="0" y="162.25000000000006" dx="0em" dy="0.3em" style="text-anchor: end; visibility: inherit; font-family: Roboto, sans-serif; font-size: 12px; font-weight: 200;" fill="rgb(33, 33, 33)" stroke="none" stroke-width="1px">1.65</text><text x="0" y="147.50000000000006" dx="0em" dy="0.3em" style="text-anchor: end; visibility: hidden; font-family: Roboto, sans-serif; font-size: 12px; font-weight: 200;" fill="rgb(33, 33, 33)" stroke="none" stroke-width="1px">1.7</text><text x="0" y="132.75000000000003" dx="0em" dy="0.3em" style="text-anchor: end; visibility: inherit; font-family: Roboto, sans-serif; font-size: 12px; font-weight: 200;" fill="rgb(33, 33, 33)" stroke="none" stroke-width="1px">1.75</text><text x="0" y="118.00000000000001" dx="0em" dy="0.3em" style="text-anchor: end; visibility: hidden; font-family: Roboto, sans-serif; font-size: 12px; font-weight: 200;" fill="rgb(33, 33, 33)" stroke="none" stroke-width="1px">1.8</text><text x="0" y="103.25" dx="0em" dy="0.3em" style="text-anchor: end; visibility: inherit; font-family: Roboto, sans-serif; font-size: 12px; font-weight: 200;" fill="rgb(33, 33, 33)" stroke="none" stroke-width="1px">1.85</text><text x="0" y="88.50000000000009" dx="0em" dy="0.3em" style="text-anchor: end; visibility: hidden; font-family: Roboto, sans-serif; font-size: 12px; font-weight: 200;" fill="rgb(33, 33, 33)" stroke="none" stroke-width="1px">1.9</text><text x="0" y="73.75000000000006" dx="0em" dy="0.3em" style="text-anchor: end; visibility: inherit; font-family: Roboto, sans-serif; font-size: 12px; font-weight: 200;" fill="rgb(33, 33, 33)" stroke="none" stroke-width="1px">1.95</text><text x="0" y="59.00000000000004" dx="0em" dy="0.3em" style="text-anchor: end; visibility: hidden; font-family: Roboto, sans-serif; font-size: 12px; font-weight: 200;" fill="rgb(33, 33, 33)" stroke="none" stroke-width="1px">2</text><text x="0" y="44.2500000000001" dx="0em" dy="0.3em" style="text-anchor: end; visibility: inherit; font-family: Roboto, sans-serif; font-size: 12px; font-weight: 200;" fill="rgb(33, 33, 33)" stroke="none" stroke-width="1px">2.05</text><text x="0" y="29.500000000000014" dx="0em" dy="0.3em" style="text-anchor: end; visibility: hidden; font-family: Roboto, sans-serif; font-size: 12px; font-weight: 200;" fill="rgb(33, 33, 33)" stroke="none" stroke-width="1px">2.1</text><text x="0" y="14.750000000000085" dx="0em" dy="0.3em" style="text-anchor: end; visibility: inherit; font-family: Roboto, sans-serif; font-size: 12px; font-weight: 200;" fill="rgb(33, 33, 33)" stroke="none" stroke-width="1px">2.15</text><text x="0" y="0" dx="0em" dy="0.3em" style="text-anchor: end; visibility: hidden; font-family: Roboto, sans-serif; font-size: 12px; font-weight: 200;" fill="rgb(33, 33, 33)" stroke="none" stroke-width="1px">2.2</text></g><line x1="51.5625" y1="0" x2="51.5625" y2="177" fill="rgb(0, 0, 0)" stroke="rgb(204, 204, 204)" stroke-width="1px"></line></g></g><g transform="translate(51, 0)" clip-path="url(#clip_0)"><clipPath id="clip_0"><rect width="278" height="177"></rect></clipPath><g><g><g><line x1="0" y1="0" x2="0" y2="177" fill="rgb(0, 0, 0)" stroke="rgb(66, 66, 66)" stroke-width="1px" opacity="0.25"></line><line x1="23.203125" y1="0" x2="23.203125" y2="177" fill="rgb(0, 0, 0)" stroke="rgb(66, 66, 66)" stroke-width="1px" opacity="0.25"></line><line x1="46.40625" y1="0" x2="46.40625" y2="177" fill="rgb(0, 0, 0)" stroke="rgb(66, 66, 66)" stroke-width="1px" opacity="0.25"></line><line x1="69.609375" y1="0" x2="69.609375" y2="177" fill="rgb(0, 0, 0)" stroke="rgb(66, 66, 66)" stroke-width="1px" opacity="0.25"></line><line x1="92.8125" y1="0" x2="92.8125" y2="177" fill="rgb(0, 0, 0)" stroke="rgb(66, 66, 66)" stroke-width="1px" opacity="0.25"></line><line x1="116.015625" y1="0" x2="116.015625" y2="177" fill="rgb(0, 0, 0)" stroke="rgb(66, 66, 66)" stroke-width="1px" opacity="0.25"></line><line x1="139.21875" y1="0" x2="139.21875" y2="177" fill="rgb(0, 0, 0)" stroke="rgb(66, 66, 66)" stroke-width="1px" opacity="0.25"></line><line x1="162.421875" y1="0" x2="162.421875" y2="177" fill="rgb(0, 0, 0)" stroke="rgb(66, 66, 66)" stroke-width="1px" opacity="0.25"></line><line x1="185.625" y1="0" x2="185.625" y2="177" fill="rgb(0, 0, 0)" stroke="rgb(66, 66, 66)" stroke-width="1px" opacity="0.25"></line><line x1="208.828125" y1="0" x2="208.828125" y2="177" fill="rgb(0, 0, 0)" stroke="rgb(66, 66, 66)" stroke-width="1px" opacity="0.25"></line><line x1="232.03125" y1="0" x2="232.03125" y2="177" fill="rgb(0, 0, 0)" stroke="rgb(66, 66, 66)" stroke-width="1px" opacity="0.25"></line><line x1="255.234375" y1="0" x2="255.234375" y2="177" fill="rgb(0, 0, 0)" stroke="rgb(66, 66, 66)" stroke-width="1px" opacity="0.25"></line><line x1="278.4375" y1="0" x2="278.4375" y2="177" fill="rgb(0, 0, 0)" stroke="rgb(66, 66, 66)" stroke-width="1px" opacity="0.25"></line></g><g><line x1="0" y1="177" x2="278.4375" y2="177" fill="rgb(0, 0, 0)" stroke="rgb(66, 66, 66)" stroke-width="1px" opacity="0.25"></line><line x1="0" y1="162.25000000000006" x2="278.4375" y2="162.25000000000006" fill="rgb(0, 0, 0)" stroke="rgb(66, 66, 66)" stroke-width="1px" opacity="0.25"></line><line x1="0" y1="147.50000000000006" x2="278.4375" y2="147.50000000000006" fill="rgb(0, 0, 0)" stroke="rgb(66, 66, 66)" stroke-width="1px" opacity="0.25"></line><line x1="0" y1="132.75000000000003" x2="278.4375" y2="132.75000000000003" fill="rgb(0, 0, 0)" stroke="rgb(66, 66, 66)" stroke-width="1px" opacity="0.25"></line><line x1="0" y1="118.00000000000001" x2="278.4375" y2="118.00000000000001" fill="rgb(0, 0, 0)" stroke="rgb(66, 66, 66)" stroke-width="1px" opacity="0.25"></line><line x1="0" y1="103.25" x2="278.4375" y2="103.25" fill="rgb(0, 0, 0)" stroke="rgb(66, 66, 66)" stroke-width="1px" opacity="0.25"></line><line x1="0" y1="88.50000000000009" x2="278.4375" y2="88.50000000000009" fill="rgb(0, 0, 0)" stroke="rgb(66, 66, 66)" stroke-width="1px" opacity="0.25"></line><line x1="0" y1="73.75000000000006" x2="278.4375" y2="73.75000000000006" fill="rgb(0, 0, 0)" stroke="rgb(66, 66, 66)" stroke-width="1px" opacity="0.25"></line><line x1="0" y1="59.00000000000004" x2="278.4375" y2="59.00000000000004" fill="rgb(0, 0, 0)" stroke="rgb(66, 66, 66)" stroke-width="1px" opacity="0.25"></line><line x1="0" y1="44.2500000000001" x2="278.4375" y2="44.2500000000001" fill="rgb(0, 0, 0)" stroke="rgb(66, 66, 66)" stroke-width="1px" opacity="0.25"></line><line x1="0" y1="29.500000000000014" x2="278.4375" y2="29.500000000000014" fill="rgb(0, 0, 0)" stroke="rgb(66, 66, 66)" stroke-width="1px" opacity="0.25"></line><line x1="0" y1="14.750000000000085" x2="278.4375" y2="14.750000000000085" fill="rgb(0, 0, 0)" stroke="rgb(66, 66, 66)" stroke-width="1px" opacity="0.25"></line><line x1="0" y1="0" x2="278.4375" y2="0" fill="rgb(0, 0, 0)" stroke="rgb(66, 66, 66)" stroke-width="1px" opacity="0.25"></line></g></g></g><g><g><line x1="0" y1="649" x2="278.4375" y2="649" fill="rgb(0, 0, 0)" stroke="rgb(153, 153, 153)" stroke-width="1.5px"></line></g></g><g><g><line x1="23.203125" y1="0" x2="23.203125" y2="177" fill="rgb(0, 0, 0)" stroke="rgb(153, 153, 153)" stroke-width="1.5px"></line></g></g><g><g><g><g><g><path stroke="rgb(255, 112, 67)" stroke-width="2px" d="M34.8046875,233.51790734285328L35.96484375000001,167.84391793993578L37.125,105.49636307796234L38.28515625,70.64228547393333L39.4453125,48.90323880699351L40.60546875,40.60216664088688L41.765625,30.061099900132152L42.92578125,21.842920968899005L44.0859375,25.838003796021326L45.24609375,26.44196852872908L46.40625,23.198672690401004L47.56640625,19.98496820981609L48.7265625,22.470246520999506L49.88671875,23.16630849231415L51.04687499999999,24.042377957324625L52.20703125,20.734465641083926L53.36718750000001,20.107584767485154L54.52734375,21.518548104616688L55.6875,21.38813626712104L56.84765625,17.128562239602257L58.0078125,19.51689788915524L59.16796875,22.48533529804652L60.328125,21.918299980135185L61.48828125,21.25823026555192L62.6484375,24.095699997525056L63.80859375,25.444488770175813L64.96875,23.024892547451536L66.12890625,20.715544625964984L67.2890625,22.68354879445273L68.44921875,20.923061382582354L69.609375,21.437878234961754L70.76953125,20.890838016893397L71.92968750000001,18.331185738896856L73.08984375,18.724726152924347L74.25,13.859394235070663L75.41015625,14.650089265581554L76.5703125,13.895892907141196L77.73046875,15.739678841277605L78.890625,17.760848320436843L80.05078125,18.30448167140772L81.2109375,17.58333988555973L82.37109375,18.515518209752305L83.53125,20.74321976985204L84.69140624999999,20.671089218173215L85.8515625,25.874941757990833L87.01171875,25.324607713027685L88.171875,21.242735018134862L89.33203125000001,23.208612793565646L90.4921875,25.02820226781439L91.65234375,21.58161776800655L92.8125,22.147880992530048L93.97265625,22.243722415708525L95.1328125,21.07970350786623L96.29296875,21.030667125013814L97.453125,23.462973391310896L98.61328125,23.866060802517342L99.7734375,22.697304957615184L100.93359375,24.464025159780444L102.09374999999999,21.674593341412784L103.25390625,21.186025269068832L104.4140625,19.501969508670214L105.57421875,18.142485053743496L106.73437500000001,20.21600937331051L107.89453125,20.072134920861277L109.0546875,21.708614795748087L110.21484375,23.008832054939177L111.375,25.133597897056564L112.53515625,20.905368928053246L113.6953125,23.407262780629626L114.85546875,23.206328855969293L116.015625,16.899319927106934L117.17578125,18.167224764949466L118.3359375,18.637715458945305L119.49609374999999,21.46371867661229L120.65625,21.65359331610531L121.81640625,20.157612856881233L122.9765625,21.935285125170015L124.13671875000001,20.75206110119463L125.296875,19.70612958216459L126.45703125,16.021230525635442L127.6171875,17.31669644526404L128.77734375,21.13260743625021L129.9375,20.72027929787074L131.09765625,22.449225092913107L132.2578125,22.05052355825028L133.41796875,16.050821756715276L134.578125,16.50800465070893L135.73828125,17.709365931294457L136.8984375,17.582973722900174L138.05859375,17.882100250891014L139.21875,22.642395774466536L140.37890625,15.394774699176981L141.5390625,17.32180534837594L142.69921875,18.097350806223965L143.85937500000003,22.109764319794078L145.01953125,21.860998190722846L146.1796875,21.682001517583192L147.33984375,20.91822333715519L148.5,22.485504410160488L149.66015625,22.230513347085083L150.8203125,21.160567052898333L151.98046874999997,19.258926634632058L153.140625,19.122304489995518L154.30078125,18.87214978384106L155.4609375,20.834874724430662L156.62109375,18.51702009146388L157.78125,19.13477832379918L158.94140625,18.29597872676248L160.1015625,22.209894765506938L161.26171875000003,21.935705822164213L162.421875,23.566327954205562L163.58203125,24.11192525915662L164.7421875,23.150802406623196L165.90234375,23.15269190845151L167.0625,21.436366407735726L168.22265625,21.807473378577L169.38281249999997,26.022012732743146L170.54296875,25.655894674252842L171.703125,24.318456028337042L172.86328125,24.28788872625512L174.0234375,18.701612401402464L175.18359375,22.26151776814246L176.34375,20.89198403658735L177.50390625,24.88416855992243L178.66406250000003,23.963846453794055L179.82421875,22.22960057781233L180.984375,20.466053002632204L182.14453125,20.53697375867157L183.3046875,22.10640981443755L184.46484375,25.389276091146687L185.625,24.152914466791298L186.78515624999997,21.482384647329436L187.9453125,22.183094385504592L189.10546875,19.44788201048366L190.265625,20.893156524863215L191.42578125,19.20569667599577L192.5859375,22.661141070020147L193.74609375,23.768672747785917L194.90625,25.773663498982792L196.06640625000003,25.2725339758546L197.2265625,24.08315053153928L198.38671875,24.482393065505597L199.546875,22.528068518288883L200.70703125,25.05965689161305L201.8671875,23.16611382567217L203.02734375,21.304540331383624L204.18749999999997,23.37178984595539L205.34765625,24.152805658061588L206.5078125,24.20346546881152L207.66796875,24.581308750586196L208.828125,22.055359213516972L209.98828125,23.67055779037821L211.1484375,23.518786319124388L212.30859375,17.652669458405832L213.46875000000003,22.196648519525993L214.62890625,22.352825499349862L215.7890625,21.487351809009358L216.94921875,21.428217359819715L218.109375,21.26014401223587L219.26953125,19.96033922258812L220.4296875,20.68117589607118L221.58984374999997,20.266581456984778L222.75,21.79132571287501L223.91015625,23.1993506340238L225.0703125,23.684114431622742L226.23046875,24.758881554176348L227.390625,25.550260534983863L228.55078125,23.396050543249913L229.7109375,24.4844535414346L230.87109375000003,27.06437951469224L232.03125,25.22518719520458L233.19140625,20.754245408095667L234.3515625,19.94367626173368L235.51171875,19.725558536428686L236.671875,20.40270706247004L237.83203125,20.15683601040067L238.99218749999997,17.688195978036045L240.15234375,18.008083602446685L241.3125,21.224580920134976L242.47265625,20.99287824415858L243.6328125,23.28615720619975L244.79296875,21.59659762114415L245.953125,19.188486545861508L247.11328125,21.596656781185168L248.27343750000003,23.501990021317226L249.43359375,23.555836880832384L250.59375,26.89370606221535L251.75390625,27.255744396911798L252.9140625,25.023843061486993L254.07421875,22.192225796914286L255.234375,21.6246116774894" style="fill: none;" fill="none"></path></g></g></g></g><g opacity="0.2"><g><g><g><path stroke="rgb(255, 112, 67)" stroke-width="2px" d="M33.64453125,272.6006009578705L34.8046875,10.889226436615049L35.96484375000001,69.92859208583835L37.125,12.314323425293027L38.28515625,18.47497367858892L39.4453125,16.337257862091125L40.60546875,28.16031599044805L41.765625,14.256934165954636L42.92578125,9.519130229949997L44.0859375,31.829613685607963L45.24609375,27.347823619842575L46.40625,18.33402538299566L47.56640625,15.164587736129814L48.7265625,26.19808220863347L49.88671875,24.210387706756645L51.04687499999999,25.35647177696232L52.20703125,15.772620677948057L53.36718750000001,19.16726613044744L54.52734375,23.63498950004583L55.6875,21.192518711090134L56.84765625,10.739205121994077L58.0078125,23.099400043487588L59.16796875,26.937990427017265L60.328125,21.06774711608892L61.48828125,20.268125772476242L62.6484375,28.351904392242485L63.80859375,27.46767187118535L64.96875,19.395498275756896L66.12890625,17.251522779464782L67.2890625,25.63555502891545L68.44921875,18.282330274581962L69.609375,22.210103511810356L70.76953125,20.07027769088751L71.92968750000001,14.491707324981743L73.08984375,19.315036773681687L74.25,6.5613963603973975L75.41015625,15.836131811142026L76.5703125,12.764598369598447L77.73046875,18.505357742309624L78.890625,20.792602539062553L80.05078125,19.11993169784552L81.2109375,16.50162720680243L82.37109375,19.913785696029716L83.53125,24.08477210998539L84.69140624999999,20.562893390655564L85.8515625,33.6807205677033L87.01171875,24.499106645584153L88.171875,15.119925975799607L89.33203125000001,26.157429456710855L90.4921875,27.757586479187058L91.65234375,16.41174101829535L92.8125,22.997275829315225L93.97265625,22.387484550476113L95.1328125,19.333675146102966L96.29296875,20.957112550735534L97.453125,27.11143279075628L98.61328125,24.47069191932682L99.7734375,20.944171190261887L100.93359375,27.114105463027993L102.09374999999999,17.490445613861137L103.25390625,20.453173160553025L104.4140625,16.975885868072556L105.57421875,16.10325837135321L106.73437500000001,23.326295852661186L107.89453125,19.85632324218756L109.0546875,24.163334608078056L110.21484375,24.959157943725625L111.375,28.32074666023259L112.53515625,14.563025474548393L113.6953125,27.160103559494058L114.85546875,22.904927968978935L116.015625,7.438806533813529L117.17578125,20.06908202171331L118.3359375,19.343451499939018L119.49609374999999,25.702723503112832L120.65625,21.938405275344895L121.81640625,17.913642168045104L122.9765625,24.601793527603203L124.13671875000001,18.97722506523137L125.296875,18.13723230361943L126.45703125,10.493881940841728L127.6171875,19.259895324707085L128.77734375,26.85647392272953L129.9375,20.101787090301567L131.09765625,25.04264378547673L132.2578125,21.45247125625615L133.41796875,7.051269054412888L134.578125,17.193778991699272L135.73828125,19.511407852172905L136.8984375,17.39338541030889L138.05859375,18.330790042877258L139.21875,29.78283905982975L140.37890625,4.523343086242734L141.5390625,20.212351322174126L142.69921875,19.260668992996276L143.85937500000003,28.128384590148965L145.01953125,21.487848997116142L146.1796875,21.413506507873596L147.33984375,19.772556066513122L148.5,24.836426019668632L149.66015625,21.848026752471977L150.8203125,19.555647611618102L151.98046874999997,16.406466007232726L153.140625,18.917371273040832L154.30078125,18.49691772460943L155.4609375,23.778962135314988L156.62109375,15.040238142013608L157.78125,20.061415672302306L158.94140625,17.037779331207336L160.1015625,28.08076882362371L161.26171875000003,21.524422407150315L162.421875,26.012261152267495L163.58203125,24.930321216583305L164.7421875,21.709118127822936L165.90234375,23.155526161193887L167.0625,18.861878156662048L168.22265625,22.36413383483892L169.38281249999997,32.34382176399236L170.54296875,25.106717586517387L171.703125,22.312298059463547L172.86328125,24.242037773132378L174.0234375,10.322197914123581L175.18359375,27.601375818252617L176.34375,18.837683439254814L177.50390625,30.872445344924966L178.66406250000003,22.583363294601494L179.82421875,19.628231763839782L180.984375,17.820731639862107L182.14453125,20.643354892730773L183.3046875,24.460563898086587L184.46484375,30.31357550621038L185.625,22.298372030258225L186.78515624999997,17.476589918136643L187.9453125,23.23415899276738L189.10546875,15.345063447952317L190.265625,23.06106829643255L191.42578125,16.674506902694755L192.5859375,27.844307661056565L193.74609375,25.429970264434868L194.90625,28.781149625778244L196.06640625000003,24.520839691162156L197.2265625,22.299075365066567L198.38671875,25.081256866455124L199.546875,19.59658169746405L200.70703125,28.857039451599174L201.8671875,20.325799226760925L203.02734375,18.512180089950608L204.18749999999997,26.47266411781315L205.34765625,25.32432937622075L206.5078125,24.27945518493657L207.66796875,25.148073673248344L208.828125,18.26643490791327L209.98828125,26.09335565567022L211.1484375,23.2911291122437L212.30859375,8.85349416732794L213.46875000000003,29.0126171112061L214.62890625,22.587090969085732L215.7890625,20.18914127349859L216.94921875,21.33951568603521L218.109375,21.00803399086004L219.26953125,18.0106320381165L220.4296875,21.762430906295823L221.58984374999997,19.644689798355163L222.75,24.078442096710244L223.91015625,25.311388015747124L225.0703125,24.411260128021294L226.23046875,26.371032238006645L227.390625,26.73732900619512L228.55078125,20.16473555564885L229.7109375,26.117058038711594L230.87109375000003,30.934268474578897L232.03125,22.46639871597294L233.19140625,14.047832727432297L234.3515625,18.727822542190598L235.51171875,19.398381948471116L236.671875,21.418429851532036L237.83203125,19.788029432296806L238.99218749999997,13.985235929489194L240.15234375,18.487915039062546L241.3125,26.049326896667527L242.47265625,20.645324230194145L243.6328125,26.726075649261514L244.79296875,19.062258243560837L245.953125,15.576319932937668L247.11328125,25.20891213417058L248.27343750000003,26.359989881515542L249.43359375,23.63660717010502L250.59375,31.900509834289604L251.75390625,27.798801898956338L252.9140625,21.67599105834967L254.07421875,17.944799900054978L255.234375,20.773190498352104" style="fill: none;" fill="none"></path></g></g></g></g></g><g><g opacity="0.987399"><span fill="rgb(0, 0, 0)" stroke="none" stroke-width="1px">Alt + Scroll to Zoom</span></g></g></g><g transform="translate(51, 177)" clip-path="url(#clip_1)"><clipPath id="clip_1"><rect width="278" height="23"></rect></clipPath><g><g><line x1="0" y1="0" x2="0" y2="5" style="visibility: inherit;" fill="rgb(0, 0, 0)" stroke="rgb(204, 204, 204)" stroke-width="1px"></line><line x1="23.203125" y1="0" x2="23.203125" y2="5" style="visibility: inherit;" fill="rgb(0, 0, 0)" stroke="rgb(204, 204, 204)" stroke-width="1px"></line><line x1="46.40625" y1="0" x2="46.40625" y2="5" style="visibility: inherit;" fill="rgb(0, 0, 0)" stroke="rgb(204, 204, 204)" stroke-width="1px"></line><line x1="69.609375" y1="0" x2="69.609375" y2="5" style="visibility: inherit;" fill="rgb(0, 0, 0)" stroke="rgb(204, 204, 204)" stroke-width="1px"></line><line x1="92.8125" y1="0" x2="92.8125" y2="5" style="visibility: inherit;" fill="rgb(0, 0, 0)" stroke="rgb(204, 204, 204)" stroke-width="1px"></line><line x1="116.015625" y1="0" x2="116.015625" y2="5" style="visibility: inherit;" fill="rgb(0, 0, 0)" stroke="rgb(204, 204, 204)" stroke-width="1px"></line><line x1="139.21875" y1="0" x2="139.21875" y2="5" style="visibility: inherit;" fill="rgb(0, 0, 0)" stroke="rgb(204, 204, 204)" stroke-width="1px"></line><line x1="162.421875" y1="0" x2="162.421875" y2="5" style="visibility: inherit;" fill="rgb(0, 0, 0)" stroke="rgb(204, 204, 204)" stroke-width="1px"></line><line x1="185.625" y1="0" x2="185.625" y2="5" style="visibility: inherit;" fill="rgb(0, 0, 0)" stroke="rgb(204, 204, 204)" stroke-width="1px"></line><line x1="208.828125" y1="0" x2="208.828125" y2="5" style="visibility: inherit;" fill="rgb(0, 0, 0)" stroke="rgb(204, 204, 204)" stroke-width="1px"></line><line x1="232.03125" y1="0" x2="232.03125" y2="5" style="visibility: inherit;" fill="rgb(0, 0, 0)" stroke="rgb(204, 204, 204)" stroke-width="1px"></line><line x1="255.234375" y1="0" x2="255.234375" y2="5" style="visibility: inherit;" fill="rgb(0, 0, 0)" stroke="rgb(204, 204, 204)" stroke-width="1px"></line><line x1="278.4375" y1="0" x2="278.4375" y2="5" style="visibility: inherit;" fill="rgb(0, 0, 0)" stroke="rgb(204, 204, 204)" stroke-width="1px"></line></g><g transform="translate(0, 8)"><text x="0" y="0" dx="0em" dy="0.95em" style="text-anchor: middle; visibility: hidden; font-family: Roboto, sans-serif; font-size: 12px; font-weight: 200;" fill="rgb(33, 33, 33)" stroke="none" stroke-width="1px">-20</text><text x="23.203125" y="0" dx="0em" dy="0.95em" style="text-anchor: middle; visibility: inherit; font-family: Roboto, sans-serif; font-size: 12px; font-weight: 200;" fill="rgb(33, 33, 33)" stroke="none" stroke-width="1px">0</text><text x="46.40625" y="0" dx="0em" dy="0.95em" style="text-anchor: middle; visibility: hidden; font-family: Roboto, sans-serif; font-size: 12px; font-weight: 200;" fill="rgb(33, 33, 33)" stroke="none" stroke-width="1px">20</text><text x="69.609375" y="0" dx="0em" dy="0.95em" style="text-anchor: middle; visibility: inherit; font-family: Roboto, sans-serif; font-size: 12px; font-weight: 200;" fill="rgb(33, 33, 33)" stroke="none" stroke-width="1px">40</text><text x="92.8125" y="0" dx="0em" dy="0.95em" style="text-anchor: middle; visibility: hidden; font-family: Roboto, sans-serif; font-size: 12px; font-weight: 200;" fill="rgb(33, 33, 33)" stroke="none" stroke-width="1px">60</text><text x="116.015625" y="0" dx="0em" dy="0.95em" style="text-anchor: middle; visibility: inherit; font-family: Roboto, sans-serif; font-size: 12px; font-weight: 200;" fill="rgb(33, 33, 33)" stroke="none" stroke-width="1px">80</text><text x="139.21875" y="0" dx="0em" dy="0.95em" style="text-anchor: middle; visibility: hidden; font-family: Roboto, sans-serif; font-size: 12px; font-weight: 200;" fill="rgb(33, 33, 33)" stroke="none" stroke-width="1px">100</text><text x="162.421875" y="0" dx="0em" dy="0.95em" style="text-anchor: middle; visibility: inherit; font-family: Roboto, sans-serif; font-size: 12px; font-weight: 200;" fill="rgb(33, 33, 33)" stroke="none" stroke-width="1px">120</text><text x="185.625" y="0" dx="0em" dy="0.95em" style="text-anchor: middle; visibility: hidden; font-family: Roboto, sans-serif; font-size: 12px; font-weight: 200;" fill="rgb(33, 33, 33)" stroke="none" stroke-width="1px">140</text><text x="208.828125" y="0" dx="0em" dy="0.95em" style="text-anchor: middle; visibility: inherit; font-family: Roboto, sans-serif; font-size: 12px; font-weight: 200;" fill="rgb(33, 33, 33)" stroke="none" stroke-width="1px">160</text><text x="232.03125" y="0" dx="0em" dy="0.95em" style="text-anchor: middle; visibility: hidden; font-family: Roboto, sans-serif; font-size: 12px; font-weight: 200;" fill="rgb(33, 33, 33)" stroke="none" stroke-width="1px">180</text><text x="255.234375" y="0" dx="0em" dy="0.95em" style="text-anchor: middle; visibility: inherit; font-family: Roboto, sans-serif; font-size: 12px; font-weight: 200;" fill="rgb(33, 33, 33)" stroke="none" stroke-width="1px">200</text><text x="278.4375" y="0" dx="0em" dy="0.95em" style="text-anchor: middle; visibility: hidden; font-family: Roboto, sans-serif; font-size: 12px; font-weight: 200;" fill="rgb(33, 33, 33)" stroke="none" stroke-width="1px">220</text></g><line x1="0" y1="0" x2="278.4375" y2="0" fill="rgb(0, 0, 0)" stroke="rgb(204, 204, 204)" stroke-width="1px"></line></g></g></g></g></svg>