<svg viewBox="0 0 329.9884338378906 199.98843383789062" xmlns="http://www.w3.org/2000/svg"><g><g><g><g><g><line x1="74.78125" y1="175.988" x2="69.78125" y2="175.988" style="visibility: inherit;" fill="rgb(0, 0, 0)" stroke="rgb(204, 204, 204)" stroke-width="1px"></line><line x1="74.78125" y1="153.9895" x2="69.78125" y2="153.9895" style="visibility: inherit;" fill="rgb(0, 0, 0)" stroke="rgb(204, 204, 204)" stroke-width="1px"></line><line x1="74.78125" y1="131.99099999999999" x2="69.78125" y2="131.99099999999999" style="visibility: inherit;" fill="rgb(0, 0, 0)" stroke="rgb(204, 204, 204)" stroke-width="1px"></line><line x1="74.78125" y1="109.9925" x2="69.78125" y2="109.9925" style="visibility: inherit;" fill="rgb(0, 0, 0)" stroke="rgb(204, 204, 204)" stroke-width="1px"></line><line x1="74.78125" y1="87.994" x2="69.78125" y2="87.994" style="visibility: inherit;" fill="rgb(0, 0, 0)" stroke="rgb(204, 204, 204)" stroke-width="1px"></line><line x1="74.78125" y1="65.99549999999999" x2="69.78125" y2="65.99549999999999" style="visibility: inherit;" fill="rgb(0, 0, 0)" stroke="rgb(204, 204, 204)" stroke-width="1px"></line><line x1="74.78125" y1="43.997" x2="69.78125" y2="43.997" style="visibility: inherit;" fill="rgb(0, 0, 0)" stroke="rgb(204, 204, 204)" stroke-width="1px"></line><line x1="74.78125" y1="21.9985" x2="69.78125" y2="21.9985" style="visibility: inherit;" fill="rgb(0, 0, 0)" stroke="rgb(204, 204, 204)" stroke-width="1px"></line><line x1="74.78125" y1="0" x2="69.78125" y2="0" style="visibility: inherit;" fill="rgb(0, 0, 0)" stroke="rgb(204, 204, 204)" stroke-width="1px"></line></g><g transform="translate(64.78125, 0)"><text x="0" y="175.988" dx="0em" dy="0.3em" style="text-anchor: end; visibility: hidden; font-family: Roboto, sans-serif; font-size: 12px; font-weight: 200;" fill="rgb(33, 33, 33)" stroke="none" stroke-width="1px">-5e-4</text><text x="0" y="153.9895" dx="0em" dy="0.3em" style="text-anchor: end; visibility: inherit; font-family: Roboto, sans-serif; font-size: 12px; font-weight: 200;" fill="rgb(33, 33, 33)" stroke="none" stroke-width="1px">0</text><text x="0" y="131.99099999999999" dx="0em" dy="0.3em" style="text-anchor: end; visibility: hidden; font-family: Roboto, sans-serif; font-size: 12px; font-weight: 200;" fill="rgb(33, 33, 33)" stroke="none" stroke-width="1px">5e-4</text><text x="0" y="109.9925" dx="0em" dy="0.3em" style="text-anchor: end; visibility: inherit; font-family: Roboto, sans-serif; font-size: 12px; font-weight: 200;" fill="rgb(33, 33, 33)" stroke="none" stroke-width="1px">1e-3</text><text x="0" y="87.994" dx="0em" dy="0.3em" style="text-anchor: end; visibility: hidden; font-family: Roboto, sans-serif; font-size: 12px; font-weight: 200;" fill="rgb(33, 33, 33)" stroke="none" stroke-width="1px">1.5e-3</text><text x="0" y="65.99549999999999" dx="0em" dy="0.3em" style="text-anchor: end; visibility: inherit; font-family: Roboto, sans-serif; font-size: 12px; font-weight: 200;" fill="rgb(33, 33, 33)" stroke="none" stroke-width="1px">2e-3</text><text x="0" y="43.997" dx="0em" dy="0.3em" style="text-anchor: end; visibility: hidden; font-family: Roboto, sans-serif; font-size: 12px; font-weight: 200;" fill="rgb(33, 33, 33)" stroke="none" stroke-width="1px">2.5e-3</text><text x="0" y="21.9985" dx="0em" dy="0.3em" style="text-anchor: end; visibility: inherit; font-family: Roboto, sans-serif; font-size: 12px; font-weight: 200;" fill="rgb(33, 33, 33)" stroke="none" stroke-width="1px">3e-3</text><text x="0" y="0" dx="0em" dy="0.3em" style="text-anchor: end; visibility: hidden; font-family: Roboto, sans-serif; font-size: 12px; font-weight: 200;" fill="rgb(33, 33, 33)" stroke="none" stroke-width="1px">3.5e-3</text></g><line x1="74.78125" y1="0" x2="74.78125" y2="175.988" fill="rgb(0, 0, 0)" stroke="rgb(204, 204, 204)" stroke-width="1px"></line></g></g><g transform="translate(74, 0)" clip-path="url(#clip_0)"><clipPath id="clip_0"><rect width="255" height="175"></rect></clipPath><g><g><g><line x1="0" y1="0" x2="0" y2="175.988" fill="rgb(0, 0, 0)" stroke="rgb(66, 66, 66)" stroke-width="1px" opacity="0.25"></line><line x1="19.631288461538464" y1="0" x2="19.631288461538464" y2="175.988" fill="rgb(0, 0, 0)" stroke="rgb(66, 66, 66)" stroke-width="1px" opacity="0.25"></line><line x1="39.26257692307693" y1="0" x2="39.26257692307693" y2="175.988" fill="rgb(0, 0, 0)" stroke="rgb(66, 66, 66)" stroke-width="1px" opacity="0.25"></line><line x1="58.89386538461539" y1="0" x2="58.89386538461539" y2="175.988" fill="rgb(0, 0, 0)" stroke="rgb(66, 66, 66)" stroke-width="1px" opacity="0.25"></line><line x1="78.52515384615386" y1="0" x2="78.52515384615386" y2="175.988" fill="rgb(0, 0, 0)" stroke="rgb(66, 66, 66)" stroke-width="1px" opacity="0.25"></line><line x1="98.15644230769232" y1="0" x2="98.15644230769232" y2="175.988" fill="rgb(0, 0, 0)" stroke="rgb(66, 66, 66)" stroke-width="1px" opacity="0.25"></line><line x1="117.78773076923078" y1="0" x2="117.78773076923078" y2="175.988" fill="rgb(0, 0, 0)" stroke="rgb(66, 66, 66)" stroke-width="1px" opacity="0.25"></line><line x1="137.41901923076924" y1="0" x2="137.41901923076924" y2="175.988" fill="rgb(0, 0, 0)" stroke="rgb(66, 66, 66)" stroke-width="1px" opacity="0.25"></line><line x1="157.0503076923077" y1="0" x2="157.0503076923077" y2="175.988" fill="rgb(0, 0, 0)" stroke="rgb(66, 66, 66)" stroke-width="1px" opacity="0.25"></line><line x1="176.68159615384616" y1="0" x2="176.68159615384616" y2="175.988" fill="rgb(0, 0, 0)" stroke="rgb(66, 66, 66)" stroke-width="1px" opacity="0.25"></line><line x1="196.31288461538463" y1="0" x2="196.31288461538463" y2="175.988" fill="rgb(0, 0, 0)" stroke="rgb(66, 66, 66)" stroke-width="1px" opacity="0.25"></line><line x1="215.94417307692308" y1="0" x2="215.94417307692308" y2="175.988" fill="rgb(0, 0, 0)" stroke="rgb(66, 66, 66)" stroke-width="1px" opacity="0.25"></line><line x1="235.57546153846155" y1="0" x2="235.57546153846155" y2="175.988" fill="rgb(0, 0, 0)" stroke="rgb(66, 66, 66)" stroke-width="1px" opacity="0.25"></line><line x1="255.20675" y1="0" x2="255.20675" y2="175.988" fill="rgb(0, 0, 0)" stroke="rgb(66, 66, 66)" stroke-width="1px" opacity="0.25"></line></g><g><line x1="0" y1="175.988" x2="255.20675" y2="175.988" fill="rgb(0, 0, 0)" stroke="rgb(66, 66, 66)" stroke-width="1px" opacity="0.25"></line><line x1="0" y1="153.9895" x2="255.20675" y2="153.9895" fill="rgb(0, 0, 0)" stroke="rgb(66, 66, 66)" stroke-width="1px" opacity="0.25"></line><line x1="0" y1="131.99099999999999" x2="255.20675" y2="131.99099999999999" fill="rgb(0, 0, 0)" stroke="rgb(66, 66, 66)" stroke-width="1px" opacity="0.25"></line><line x1="0" y1="109.9925" x2="255.20675" y2="109.9925" fill="rgb(0, 0, 0)" stroke="rgb(66, 66, 66)" stroke-width="1px" opacity="0.25"></line><line x1="0" y1="87.994" x2="255.20675" y2="87.994" fill="rgb(0, 0, 0)" stroke="rgb(66, 66, 66)" stroke-width="1px" opacity="0.25"></line><line x1="0" y1="65.99549999999999" x2="255.20675" y2="65.99549999999999" fill="rgb(0, 0, 0)" stroke="rgb(66, 66, 66)" stroke-width="1px" opacity="0.25"></line><line x1="0" y1="43.997" x2="255.20675" y2="43.997" fill="rgb(0, 0, 0)" stroke="rgb(66, 66, 66)" stroke-width="1px" opacity="0.25"></line><line x1="0" y1="21.9985" x2="255.20675" y2="21.9985" fill="rgb(0, 0, 0)" stroke="rgb(66, 66, 66)" stroke-width="1px" opacity="0.25"></line><line x1="0" y1="0" x2="255.20675" y2="0" fill="rgb(0, 0, 0)" stroke="rgb(66, 66, 66)" stroke-width="1px" opacity="0.25"></line></g></g></g><g><g><line x1="0" y1="153.9895" x2="255.20675" y2="153.9895" fill="rgb(0, 0, 0)" stroke="rgb(153, 153, 153)" stroke-width="1.5px"></line></g></g><g><g><line x1="19.631288461538464" y1="0" x2="19.631288461538464" y2="175.988" fill="rgb(0, 0, 0)" stroke="rgb(153, 153, 153)" stroke-width="1.5px"></line></g></g><g><g><g><g><g><path stroke="rgb(255, 112, 67)" stroke-width="2px" d="M21.594417307692307,-46.18767973841354L23.557546153846154,27.723796765876934L25.520675,64.13167511394147L27.483803846153847,79.92287956150507L29.446932692307694,92.56719219337728L31.41006153846154,99.77389839346455L33.373190384615384,107.37356694608533L35.336319230769234,113.68832083225048L37.29944807692308,109.10009193885567L39.26257692307693,116.06792269256486L41.22570576923077,123.25005369196414L43.188834615384614,128.14930679133127L45.151963461538465,132.53927600272186L47.11509230769231,133.5938993359416L49.07822115384616,136.7174366431731L51.04135,139.45535356330186L53.00447884615385,141.13899505408796L54.967607692307695,140.7076626208015L56.93073653846154,140.7993152156958L58.89386538461539,142.0611478683305L60.85699423076923,143.22649731712573L62.82012307692308,144.64830232754065L64.78325192307692,145.67928456753427L66.74638076923077,146.53011887664144L68.70950961538462,147.61586062398064L70.67263846153847,148.18532906946476L72.6357673076923,148.39392243429623L74.59889615384616,148.11997435288913L76.56202499999999,148.53532987236886L78.52515384615386,148.47213351175637L80.48828269230769,148.52288929726953L82.45141153846154,148.98587527242168L84.41454038461538,148.98905558481945L86.37766923076923,149.2339590372498L88.34079807692308,149.33441195193237L90.30392692307693,149.73528121001263L92.26705576923077,149.82543533841638L94.23018461538462,149.15160381305313L96.19331346153847,149.38672357426293L98.15644230769232,149.69259925520893L100.11957115384615,150.10847425698958L102.0827,149.82095813156616L104.04582884615384,150.40079443419597L106.0089576923077,150.54272940148059L107.97208653846154,145.81442673638415L109.93521538461539,142.68903261884682L111.89834423076923,143.76595202351442L113.86147307692308,145.4320881474058L115.82460192307693,146.73898146955838L117.78773076923078,71.11299939406881L119.75085961538461,24.418076046924153L121.71398846153846,7.865297112524973L123.67711730769231,12.017267860462608L125.64024615384616,12.639709857882655L127.603375,17.182368668655396L129.56650384615384,20.514907959936235L131.52963269230767,22.204956636294742L133.49276153846154,18.139724513456436L135.45589038461537,24.262243317720927L137.41901923076924,25.66266071341946L139.38214807692307,29.834084091439312L141.34527692307694,31.828498973386438L143.30840576923077,34.07255286477401L145.2715346153846,34.6256482008421L147.23466346153845,36.90667236759508L149.1977923076923,43.229065133436L151.16092115384615,39.135818175276206L153.12404999999998,36.613395610071L155.08717884615385,42.289854413414325L157.0503076923077,44.39698573134053L159.01343653846155,45.4594033149091L160.97656538461538,49.920395398904084L162.93969423076922,54.72235592900913L164.90282307692308,54.41123312983114L166.86595192307692,53.29559387982607L168.82908076923076,53.37817856543865L170.7922096153846,53.545095213065174L172.75533846153846,54.25411914776765L174.71846730769232,55.0112621463664L176.68159615384616,52.96342616173269L178.644725,54.1858852506169L180.60785384615386,56.33535987070805L182.5709826923077,58.82790207490462L184.53411153846153,58.70160879990094L186.49724038461537,56.16866106415471L188.46036923076923,55.658354165160254L190.42349807692307,58.389016673082025L192.38662692307693,62.40688839639733L194.34975576923077,64.3372199463532L196.31288461538463,64.83155594431896L198.27601346153847,65.43635400904888L200.2391423076923,66.24247603490085L202.20227115384614,68.62052596032957L204.1654,66.9505847955396L206.12852884615384,68.2749656124756L208.09165769230768,70.87089314423996L210.05478653846154,70.27545057429222L212.0179153846154,71.67236441348366L213.98104423076924,71.33814712825713L215.94417307692308,70.8270293766207L217.90730192307691,72.1630174112523L219.87043076923078,72.36582238044616L221.83355961538462,70.6717174191618L223.79668846153845,71.95652096505017L225.7598173076923,72.38659430631765L227.72294615384615,75.41754602124664L229.68607500000002,78.34156161678357L231.64920384615385,78.44614773992203L233.6123326923077,76.97077511815503L235.57546153846155,78.33635891226695L237.5385903846154,77.61267194270611L239.50171923076923,75.41688022269322L241.46484807692306,74.4720067892798L243.42797692307693,74.64800564544854L245.39110576923076,75.3386906372038" style="fill: none;" fill="none"></path></g></g></g></g><g opacity="0.2"><g><g><g><path stroke="rgb(255, 112, 67)" stroke-width="2px" d="M21.594417307692307,-46.18767973841354L23.557546153846154,72.07068266845123L25.520675,99.08323832808343L27.483803846153847,98.49333599183988L29.446932692307694,109.07560676554964L31.41006153846154,109.74336748241727L33.373190384615384,118.24121457102989L35.336319230769234,122.89529261991662L37.29944807692308,102.33334553867859L39.26257692307693,126.41433930295567L41.22570576923077,133.95810879150335L43.188834615384614,135.47152492136624L45.151963461538465,139.1098958086553L47.11509230769231,135.1737682188726L49.07822115384616,141.3990710031688L51.04135,143.56029795235767L53.00447884615385,143.6637448296136L54.967607692307695,140.06077348612993L56.93073653846154,140.9367801456868L58.89386538461539,143.95378151077998L60.85699423076923,144.97445757978525L62.82012307692308,146.78096305806352L64.78325192307692,147.22573757257882L66.74638076923077,147.80636026135866L68.70950961538462,149.24446552800177L70.67263846153847,149.03952930916816L72.6357673076923,148.70681194781022L74.59889615384616,147.7090526513533L76.56202499999999,149.1583627689873L78.52515384615386,148.37733900576526L80.48828269230769,148.5990229587081L82.45141153846154,149.68035414303117L84.41454038461538,148.99382605303649L86.37766923076923,149.60131419835338L88.34079807692308,149.48509131963905L90.30392692307693,150.33658508679613L92.26705576923077,149.96066652962722L94.23018461538462,148.14085653126344L96.19331346153847,149.73940321476798L98.15644230769232,150.15141277560573L100.11957115384615,150.7322867588267L102.0827,149.38968394377693L104.04582884615384,151.27054888772213L106.0089576923077,150.755631852346L107.97208653846154,138.7219727399682L109.93521538461539,138.00094144302815L111.89834423076923,145.38133113041508L113.86147307692308,147.93129233314934L115.82460192307693,148.6993214527432L117.78773076923078,-42.32597371763736L121.71398846153846,-16.96387128895335L123.67711730769231,18.2452239823509L125.64024615384616,13.573372854011133L127.603375,23.996356884807348L129.56650384615384,25.51371689685434L131.52963269230767,24.740029650831595L133.49276153846154,12.041876329200342L135.45589038461537,33.4460215241164L137.41901923076924,27.76328680696711L139.38214807692307,36.09121915846877L141.34527692307694,34.82012129630707L143.30840576923077,37.438633701855316L145.2715346153846,35.45529120494425L147.23466346153845,40.32820861772448L149.1977923076923,52.712654282197356L151.16092115384615,32.99594773803651L153.12404999999998,32.82976176226325L155.08717884615385,50.80454261842929L157.0503076923077,47.55768270822987L159.01343653846155,47.05302969026193L160.97656538461538,56.61188352489658L162.93969423076922,61.92529672416672L164.90282307692308,53.944548931064084L166.86595192307692,51.62213500481844L168.82908076923076,53.50205559385754L170.7922096153846,53.795470184504985L172.75533846153846,55.31765504982136L174.71846730769232,56.146976644264534L176.68159615384616,49.8916721847821L178.644725,56.01957388394326L180.60785384615386,59.55957180084474L182.5709826923077,62.566715381199494L184.53411153846153,58.51216888739541L186.49724038461537,52.36923946053535L188.46036923076923,54.89289381666854L190.42349807692307,62.48501043496467L192.38662692307693,68.43369598137029L194.34975576923077,67.232717271287L196.31288461538463,65.5730599412676L198.27601346153847,66.34355110614375L200.2391423076923,67.45165907367878L202.20227115384614,72.18760084847268L204.1654,64.44567304835469L206.12852884615384,70.26153683787958L208.09165769230768,74.76478444188648L210.05478653846154,69.38228671937064L212.0179153846154,73.7677351722708L213.98104423076924,70.83682120041736L215.94417307692308,70.06035274916609L217.90730192307691,74.16699946319964L219.87043076923078,72.67002983423696L221.83355961538462,68.13055997723528L223.79668846153845,73.88372628388275L225.7598173076923,73.03170431821887L227.72294615384615,79.96397359364015L229.68607500000002,82.72758501008899L231.64920384615385,78.6030269246297L233.6123326923077,74.75771618550458L235.57546153846155,80.38473460343481L237.5385903846154,76.5271414883649L239.50171923076923,72.12319264267386L241.46484807692306,73.0546966391597L243.42797692307693,74.91200392970164L245.39110576923076,76.37471812483669" style="fill: none;" fill="none"></path></g></g></g></g></g><g><g opacity="0.00848163"><span fill="rgb(0, 0, 0)" stroke="none" stroke-width="1px">Alt + Scroll to Zoom</span></g></g></g><g transform="translate(74, 175)" clip-path="url(#clip_1)"><clipPath id="clip_1"><rect width="255" height="23"></rect></clipPath><g><g><line x1="0" y1="0" x2="0" y2="5" style="visibility: inherit;" fill="rgb(0, 0, 0)" stroke="rgb(204, 204, 204)" stroke-width="1px"></line><line x1="19.631288461538464" y1="0" x2="19.631288461538464" y2="5" style="visibility: inherit;" fill="rgb(0, 0, 0)" stroke="rgb(204, 204, 204)" stroke-width="1px"></line><line x1="39.26257692307693" y1="0" x2="39.26257692307693" y2="5" style="visibility: inherit;" fill="rgb(0, 0, 0)" stroke="rgb(204, 204, 204)" stroke-width="1px"></line><line x1="58.89386538461539" y1="0" x2="58.89386538461539" y2="5" style="visibility: inherit;" fill="rgb(0, 0, 0)" stroke="rgb(204, 204, 204)" stroke-width="1px"></line><line x1="78.52515384615386" y1="0" x2="78.52515384615386" y2="5" style="visibility: inherit;" fill="rgb(0, 0, 0)" stroke="rgb(204, 204, 204)" stroke-width="1px"></line><line x1="98.15644230769232" y1="0" x2="98.15644230769232" y2="5" style="visibility: inherit;" fill="rgb(0, 0, 0)" stroke="rgb(204, 204, 204)" stroke-width="1px"></line><line x1="117.78773076923078" y1="0" x2="117.78773076923078" y2="5" style="visibility: inherit;" fill="rgb(0, 0, 0)" stroke="rgb(204, 204, 204)" stroke-width="1px"></line><line x1="137.41901923076924" y1="0" x2="137.41901923076924" y2="5" style="visibility: inherit;" fill="rgb(0, 0, 0)" stroke="rgb(204, 204, 204)" stroke-width="1px"></line><line x1="157.0503076923077" y1="0" x2="157.0503076923077" y2="5" style="visibility: inherit;" fill="rgb(0, 0, 0)" stroke="rgb(204, 204, 204)" stroke-width="1px"></line><line x1="176.68159615384616" y1="0" x2="176.68159615384616" y2="5" style="visibility: inherit;" fill="rgb(0, 0, 0)" stroke="rgb(204, 204, 204)" stroke-width="1px"></line><line x1="196.31288461538463" y1="0" x2="196.31288461538463" y2="5" style="visibility: inherit;" fill="rgb(0, 0, 0)" stroke="rgb(204, 204, 204)" stroke-width="1px"></line><line x1="215.94417307692308" y1="0" x2="215.94417307692308" y2="5" style="visibility: inherit;" fill="rgb(0, 0, 0)" stroke="rgb(204, 204, 204)" stroke-width="1px"></line><line x1="235.57546153846155" y1="0" x2="235.57546153846155" y2="5" style="visibility: inherit;" fill="rgb(0, 0, 0)" stroke="rgb(204, 204, 204)" stroke-width="1px"></line><line x1="255.20675" y1="0" x2="255.20675" y2="5" style="visibility: inherit;" fill="rgb(0, 0, 0)" stroke="rgb(204, 204, 204)" stroke-width="1px"></line></g><g transform="translate(0, 8)"><text x="0" y="0" dx="0em" dy="0.95em" style="text-anchor: middle; visibility: hidden; font-family: Roboto, sans-serif; font-size: 12px; font-weight: 200;" fill="rgb(33, 33, 33)" stroke="none" stroke-width="1px">-10</text><text x="19.631288461538464" y="0" dx="0em" dy="0.95em" style="text-anchor: middle; visibility: inherit; font-family: Roboto, sans-serif; font-size: 12px; font-weight: 200;" fill="rgb(33, 33, 33)" stroke="none" stroke-width="1px">0</text><text x="39.26257692307693" y="0" dx="0em" dy="0.95em" style="text-anchor: middle; visibility: hidden; font-family: Roboto, sans-serif; font-size: 12px; font-weight: 200;" fill="rgb(33, 33, 33)" stroke="none" stroke-width="1px">10</text><text x="58.89386538461539" y="0" dx="0em" dy="0.95em" style="text-anchor: middle; visibility: inherit; font-family: Roboto, sans-serif; font-size: 12px; font-weight: 200;" fill="rgb(33, 33, 33)" stroke="none" stroke-width="1px">20</text><text x="78.52515384615386" y="0" dx="0em" dy="0.95em" style="text-anchor: middle; visibility: hidden; font-family: Roboto, sans-serif; font-size: 12px; font-weight: 200;" fill="rgb(33, 33, 33)" stroke="none" stroke-width="1px">30</text><text x="98.15644230769232" y="0" dx="0em" dy="0.95em" style="text-anchor: middle; visibility: inherit; font-family: Roboto, sans-serif; font-size: 12px; font-weight: 200;" fill="rgb(33, 33, 33)" stroke="none" stroke-width="1px">40</text><text x="117.78773076923078" y="0" dx="0em" dy="0.95em" style="text-anchor: middle; visibility: hidden; font-family: Roboto, sans-serif; font-size: 12px; font-weight: 200;" fill="rgb(33, 33, 33)" stroke="none" stroke-width="1px">50</text><text x="137.41901923076924" y="0" dx="0em" dy="0.95em" style="text-anchor: middle; visibility: inherit; font-family: Roboto, sans-serif; font-size: 12px; font-weight: 200;" fill="rgb(33, 33, 33)" stroke="none" stroke-width="1px">60</text><text x="157.0503076923077" y="0" dx="0em" dy="0.95em" style="text-anchor: middle; visibility: hidden; font-family: Roboto, sans-serif; font-size: 12px; font-weight: 200;" fill="rgb(33, 33, 33)" stroke="none" stroke-width="1px">70</text><text x="176.68159615384616" y="0" dx="0em" dy="0.95em" style="text-anchor: middle; visibility: inherit; font-family: Roboto, sans-serif; font-size: 12px; font-weight: 200;" fill="rgb(33, 33, 33)" stroke="none" stroke-width="1px">80</text><text x="196.31288461538463" y="0" dx="0em" dy="0.95em" style="text-anchor: middle; visibility: hidden; font-family: Roboto, sans-serif; font-size: 12px; font-weight: 200;" fill="rgb(33, 33, 33)" stroke="none" stroke-width="1px">90</text><text x="215.94417307692308" y="0" dx="0em" dy="0.95em" style="text-anchor: middle; visibility: inherit; font-family: Roboto, sans-serif; font-size: 12px; font-weight: 200;" fill="rgb(33, 33, 33)" stroke="none" stroke-width="1px">100</text><text x="235.57546153846155" y="0" dx="0em" dy="0.95em" style="text-anchor: middle; visibility: hidden; font-family: Roboto, sans-serif; font-size: 12px; font-weight: 200;" fill="rgb(33, 33, 33)" stroke="none" stroke-width="1px">110</text><text x="255.20675" y="0" dx="0em" dy="0.95em" style="text-anchor: middle; visibility: hidden; font-family: Roboto, sans-serif; font-size: 12px; font-weight: 200;" fill="rgb(33, 33, 33)" stroke="none" stroke-width="1px">120</text></g><line x1="0" y1="0" x2="255.20675" y2="0" fill="rgb(0, 0, 0)" stroke="rgb(204, 204, 204)" stroke-width="1px"></line></g></g></g></g></svg>