<svg viewBox="0 0 330.0000305175781 200.00001525878906" xmlns="http://www.w3.org/2000/svg"><g><g><g><g><g><line x1="74.78125" y1="176" x2="69.78125" y2="176" style="visibility: inherit;" fill="rgb(0, 0, 0)" stroke="rgb(204, 204, 204)" stroke-width="1px"></line><line x1="74.78125" y1="163.42857142857144" x2="69.78125" y2="163.42857142857144" style="visibility: inherit;" fill="rgb(0, 0, 0)" stroke="rgb(204, 204, 204)" stroke-width="1px"></line><line x1="74.78125" y1="150.85714285714286" x2="69.78125" y2="150.85714285714286" style="visibility: inherit;" fill="rgb(0, 0, 0)" stroke="rgb(204, 204, 204)" stroke-width="1px"></line><line x1="74.78125" y1="138.2857142857143" x2="69.78125" y2="138.2857142857143" style="visibility: inherit;" fill="rgb(0, 0, 0)" stroke="rgb(204, 204, 204)" stroke-width="1px"></line><line x1="74.78125" y1="125.71428571428572" x2="69.78125" y2="125.71428571428572" style="visibility: inherit;" fill="rgb(0, 0, 0)" stroke="rgb(204, 204, 204)" stroke-width="1px"></line><line x1="74.78125" y1="113.14285714285715" x2="69.78125" y2="113.14285714285715" style="visibility: inherit;" fill="rgb(0, 0, 0)" stroke="rgb(204, 204, 204)" stroke-width="1px"></line><line x1="74.78125" y1="100.57142857142861" x2="69.78125" y2="100.57142857142861" style="visibility: inherit;" fill="rgb(0, 0, 0)" stroke="rgb(204, 204, 204)" stroke-width="1px"></line><line x1="74.78125" y1="88" x2="69.78125" y2="88" style="visibility: inherit;" fill="rgb(0, 0, 0)" stroke="rgb(204, 204, 204)" stroke-width="1px"></line><line x1="74.78125" y1="75.42857142857143" x2="69.78125" y2="75.42857142857143" style="visibility: inherit;" fill="rgb(0, 0, 0)" stroke="rgb(204, 204, 204)" stroke-width="1px"></line><line x1="74.78125" y1="62.85714285714287" x2="69.78125" y2="62.85714285714287" style="visibility: inherit;" fill="rgb(0, 0, 0)" stroke="rgb(204, 204, 204)" stroke-width="1px"></line><line x1="74.78125" y1="50.28571428571432" x2="69.78125" y2="50.28571428571432" style="visibility: inherit;" fill="rgb(0, 0, 0)" stroke="rgb(204, 204, 204)" stroke-width="1px"></line><line x1="74.78125" y1="37.71428571428574" x2="69.78125" y2="37.71428571428574" style="visibility: inherit;" fill="rgb(0, 0, 0)" stroke="rgb(204, 204, 204)" stroke-width="1px"></line><line x1="74.78125" y1="25.14285714285717" x2="69.78125" y2="25.14285714285717" style="visibility: inherit;" fill="rgb(0, 0, 0)" stroke="rgb(204, 204, 204)" stroke-width="1px"></line><line x1="74.78125" y1="12.571428571428585" x2="69.78125" y2="12.571428571428585" style="visibility: inherit;" fill="rgb(0, 0, 0)" stroke="rgb(204, 204, 204)" stroke-width="1px"></line><line x1="74.78125" y1="0" x2="69.78125" y2="0" style="visibility: inherit;" fill="rgb(0, 0, 0)" stroke="rgb(204, 204, 204)" stroke-width="1px"></line></g><g transform="translate(64.78125, 0)"><text x="0" y="176" dx="0em" dy="0.3em" style="text-anchor: end; visibility: hidden; font-family: Roboto, sans-serif; font-size: 12px; font-weight: 200;" fill="rgb(33, 33, 33)" stroke="none" stroke-width="1px">1.5e-3</text><text x="0" y="163.42857142857144" dx="0em" dy="0.3em" style="text-anchor: end; visibility: inherit; font-family: Roboto, sans-serif; font-size: 12px; font-weight: 200;" fill="rgb(33, 33, 33)" stroke="none" stroke-width="1px">2e-3</text><text x="0" y="150.85714285714286" dx="0em" dy="0.3em" style="text-anchor: end; visibility: hidden; font-family: Roboto, sans-serif; font-size: 12px; font-weight: 200;" fill="rgb(33, 33, 33)" stroke="none" stroke-width="1px">2.5e-3</text><text x="0" y="138.2857142857143" dx="0em" dy="0.3em" style="text-anchor: end; visibility: inherit; font-family: Roboto, sans-serif; font-size: 12px; font-weight: 200;" fill="rgb(33, 33, 33)" stroke="none" stroke-width="1px">3e-3</text><text x="0" y="125.71428571428572" dx="0em" dy="0.3em" style="text-anchor: end; visibility: hidden; font-family: Roboto, sans-serif; font-size: 12px; font-weight: 200;" fill="rgb(33, 33, 33)" stroke="none" stroke-width="1px">3.5e-3</text><text x="0" y="113.14285714285715" dx="0em" dy="0.3em" style="text-anchor: end; visibility: inherit; font-family: Roboto, sans-serif; font-size: 12px; font-weight: 200;" fill="rgb(33, 33, 33)" stroke="none" stroke-width="1px">4e-3</text><text x="0" y="100.57142857142861" dx="0em" dy="0.3em" style="text-anchor: end; visibility: hidden; font-family: Roboto, sans-serif; font-size: 12px; font-weight: 200;" fill="rgb(33, 33, 33)" stroke="none" stroke-width="1px">4.5e-3</text><text x="0" y="88" dx="0em" dy="0.3em" style="text-anchor: end; visibility: inherit; font-family: Roboto, sans-serif; font-size: 12px; font-weight: 200;" fill="rgb(33, 33, 33)" stroke="none" stroke-width="1px">5e-3</text><text x="0" y="75.42857142857143" dx="0em" dy="0.3em" style="text-anchor: end; visibility: hidden; font-family: Roboto, sans-serif; font-size: 12px; font-weight: 200;" fill="rgb(33, 33, 33)" stroke="none" stroke-width="1px">5.5e-3</text><text x="0" y="62.85714285714287" dx="0em" dy="0.3em" style="text-anchor: end; visibility: inherit; font-family: Roboto, sans-serif; font-size: 12px; font-weight: 200;" fill="rgb(33, 33, 33)" stroke="none" stroke-width="1px">6e-3</text><text x="0" y="50.28571428571432" dx="0em" dy="0.3em" style="text-anchor: end; visibility: hidden; font-family: Roboto, sans-serif; font-size: 12px; font-weight: 200;" fill="rgb(33, 33, 33)" stroke="none" stroke-width="1px">6.5e-3</text><text x="0" y="37.71428571428574" dx="0em" dy="0.3em" style="text-anchor: end; visibility: inherit; font-family: Roboto, sans-serif; font-size: 12px; font-weight: 200;" fill="rgb(33, 33, 33)" stroke="none" stroke-width="1px">7e-3</text><text x="0" y="25.14285714285717" dx="0em" dy="0.3em" style="text-anchor: end; visibility: hidden; font-family: Roboto, sans-serif; font-size: 12px; font-weight: 200;" fill="rgb(33, 33, 33)" stroke="none" stroke-width="1px">7.5e-3</text><text x="0" y="12.571428571428585" dx="0em" dy="0.3em" style="text-anchor: end; visibility: inherit; font-family: Roboto, sans-serif; font-size: 12px; font-weight: 200;" fill="rgb(33, 33, 33)" stroke="none" stroke-width="1px">8e-3</text><text x="0" y="0" dx="0em" dy="0.3em" style="text-anchor: end; visibility: hidden; font-family: Roboto, sans-serif; font-size: 12px; font-weight: 200;" fill="rgb(33, 33, 33)" stroke="none" stroke-width="1px">8.5e-3</text></g><line x1="74.78125" y1="0" x2="74.78125" y2="176" fill="rgb(0, 0, 0)" stroke="rgb(204, 204, 204)" stroke-width="1px"></line></g></g><g transform="translate(74, 0)" clip-path="url(#clip_0)"><clipPath id="clip_0"><rect width="255" height="176"></rect></clipPath><g><g><g><line x1="0" y1="0" x2="0" y2="176" fill="rgb(0, 0, 0)" stroke="rgb(66, 66, 66)" stroke-width="1px" opacity="0.25"></line><line x1="21.268229166666664" y1="0" x2="21.268229166666664" y2="176" fill="rgb(0, 0, 0)" stroke="rgb(66, 66, 66)" stroke-width="1px" opacity="0.25"></line><line x1="42.53645833333333" y1="0" x2="42.53645833333333" y2="176" fill="rgb(0, 0, 0)" stroke="rgb(66, 66, 66)" stroke-width="1px" opacity="0.25"></line><line x1="63.8046875" y1="0" x2="63.8046875" y2="176" fill="rgb(0, 0, 0)" stroke="rgb(66, 66, 66)" stroke-width="1px" opacity="0.25"></line><line x1="85.07291666666666" y1="0" x2="85.07291666666666" y2="176" fill="rgb(0, 0, 0)" stroke="rgb(66, 66, 66)" stroke-width="1px" opacity="0.25"></line><line x1="106.34114583333334" y1="0" x2="106.34114583333334" y2="176" fill="rgb(0, 0, 0)" stroke="rgb(66, 66, 66)" stroke-width="1px" opacity="0.25"></line><line x1="127.609375" y1="0" x2="127.609375" y2="176" fill="rgb(0, 0, 0)" stroke="rgb(66, 66, 66)" stroke-width="1px" opacity="0.25"></line><line x1="148.87760416666669" y1="0" x2="148.87760416666669" y2="176" fill="rgb(0, 0, 0)" stroke="rgb(66, 66, 66)" stroke-width="1px" opacity="0.25"></line><line x1="170.14583333333331" y1="0" x2="170.14583333333331" y2="176" fill="rgb(0, 0, 0)" stroke="rgb(66, 66, 66)" stroke-width="1px" opacity="0.25"></line><line x1="191.4140625" y1="0" x2="191.4140625" y2="176" fill="rgb(0, 0, 0)" stroke="rgb(66, 66, 66)" stroke-width="1px" opacity="0.25"></line><line x1="212.68229166666669" y1="0" x2="212.68229166666669" y2="176" fill="rgb(0, 0, 0)" stroke="rgb(66, 66, 66)" stroke-width="1px" opacity="0.25"></line><line x1="233.95052083333331" y1="0" x2="233.95052083333331" y2="176" fill="rgb(0, 0, 0)" stroke="rgb(66, 66, 66)" stroke-width="1px" opacity="0.25"></line><line x1="255.21875" y1="0" x2="255.21875" y2="176" fill="rgb(0, 0, 0)" stroke="rgb(66, 66, 66)" stroke-width="1px" opacity="0.25"></line></g><g><line x1="0" y1="176" x2="255.21875" y2="176" fill="rgb(0, 0, 0)" stroke="rgb(66, 66, 66)" stroke-width="1px" opacity="0.25"></line><line x1="0" y1="163.42857142857144" x2="255.21875" y2="163.42857142857144" fill="rgb(0, 0, 0)" stroke="rgb(66, 66, 66)" stroke-width="1px" opacity="0.25"></line><line x1="0" y1="150.85714285714286" x2="255.21875" y2="150.85714285714286" fill="rgb(0, 0, 0)" stroke="rgb(66, 66, 66)" stroke-width="1px" opacity="0.25"></line><line x1="0" y1="138.2857142857143" x2="255.21875" y2="138.2857142857143" fill="rgb(0, 0, 0)" stroke="rgb(66, 66, 66)" stroke-width="1px" opacity="0.25"></line><line x1="0" y1="125.71428571428572" x2="255.21875" y2="125.71428571428572" fill="rgb(0, 0, 0)" stroke="rgb(66, 66, 66)" stroke-width="1px" opacity="0.25"></line><line x1="0" y1="113.14285714285715" x2="255.21875" y2="113.14285714285715" fill="rgb(0, 0, 0)" stroke="rgb(66, 66, 66)" stroke-width="1px" opacity="0.25"></line><line x1="0" y1="100.57142857142861" x2="255.21875" y2="100.57142857142861" fill="rgb(0, 0, 0)" stroke="rgb(66, 66, 66)" stroke-width="1px" opacity="0.25"></line><line x1="0" y1="88" x2="255.21875" y2="88" fill="rgb(0, 0, 0)" stroke="rgb(66, 66, 66)" stroke-width="1px" opacity="0.25"></line><line x1="0" y1="75.42857142857143" x2="255.21875" y2="75.42857142857143" fill="rgb(0, 0, 0)" stroke="rgb(66, 66, 66)" stroke-width="1px" opacity="0.25"></line><line x1="0" y1="62.85714285714287" x2="255.21875" y2="62.85714285714287" fill="rgb(0, 0, 0)" stroke="rgb(66, 66, 66)" stroke-width="1px" opacity="0.25"></line><line x1="0" y1="50.28571428571432" x2="255.21875" y2="50.28571428571432" fill="rgb(0, 0, 0)" stroke="rgb(66, 66, 66)" stroke-width="1px" opacity="0.25"></line><line x1="0" y1="37.71428571428574" x2="255.21875" y2="37.71428571428574" fill="rgb(0, 0, 0)" stroke="rgb(66, 66, 66)" stroke-width="1px" opacity="0.25"></line><line x1="0" y1="25.14285714285717" x2="255.21875" y2="25.14285714285717" fill="rgb(0, 0, 0)" stroke="rgb(66, 66, 66)" stroke-width="1px" opacity="0.25"></line><line x1="0" y1="12.571428571428585" x2="255.21875" y2="12.571428571428585" fill="rgb(0, 0, 0)" stroke="rgb(66, 66, 66)" stroke-width="1px" opacity="0.25"></line><line x1="0" y1="0" x2="255.21875" y2="0" fill="rgb(0, 0, 0)" stroke="rgb(66, 66, 66)" stroke-width="1px" opacity="0.25"></line></g></g></g><g><g><line x1="0" y1="213.7142857142857" x2="255.21875" y2="213.7142857142857" fill="rgb(0, 0, 0)" stroke="rgb(153, 153, 153)" stroke-width="1.5px"></line></g></g><g><g><line x1="21.268229166666664" y1="0" x2="21.268229166666664" y2="176" fill="rgb(0, 0, 0)" stroke="rgb(153, 153, 153)" stroke-width="1.5px"></line></g></g><g><g><g><g><g><path stroke="rgb(255, 112, 67)" stroke-width="2px" d="M22.331640625,82.28295944418228L23.395052083333333,132.36320706669775L24.458463541666667,155.8170871925771L25.521875,170.0651268090724L26.585286458333336,176.00290031035632L27.648697916666666,173.27847822827744L28.712109375,170.40582525876715L29.775520833333335,166.05131075319514L30.838932291666666,65.22751417064063L31.90234375,1.0061040953742992L32.965755208333334,-107.24380214768418L37.21940104166667,-6.334453435144145L38.2828125,5.397807156771526L39.34622395833333,18.625485862085988L40.40963541666667,-83.52330022634507L42.53645833333333,-19.543758274750584L43.59986979166667,10.932881781444586L44.66328125,25.32540681014412L45.72669270833333,42.09905442830626L46.790104166666666,54.83645708687958L47.853515625,61.25525240796174L48.916927083333334,66.73447426176013L49.98033854166667,64.2114281342962L51.04375,54.367517081903L52.10716145833333,58.64471337490525L53.17057291666667,53.725923602909404L54.233984375,52.813102735275706L55.29739583333333,52.63726283890951L56.36080729166667,55.7739162516463L57.42421875,60.041368324946006L58.48763020833333,59.75411726898313L59.55104166666667,63.48300775990633L60.614453125,71.71064675836789L61.67786458333333,65.6048995633613L62.741276041666666,55.27622868636141L63.8046875,62.526528448304404L64.86809895833333,69.98295838350234L65.93151041666667,75.60961955801008L66.994921875,85.70195150846224L68.05833333333334,91.67663066092003L69.12174479166666,92.50176992043497L70.18515625,87.67427790660426L71.24856770833334,80.70520125387829L72.31197916666666,81.84778263052974L73.375390625,82.99206242662058L74.43880208333334,89.32620743680837L75.50221354166666,93.43219975267587L76.565625,85.75668488350675L77.62903645833333,87.50632569181387L78.69244791666667,89.19036831082134L79.755859375,87.61448448329946L80.81927083333333,93.4981644511317L81.88268229166667,99.06899279288577L82.94609375,99.12635468204098L84.00950520833334,106.15540285052197L85.07291666666666,109.72113798174651L86.136328125,112.29217544180482L87.19973958333334,114.04698534427057L88.26315104166666,109.67833923384612L89.3265625,104.35232855047107L90.38997395833334,99.02464781842677L91.45338541666666,101.9648165247222L92.516796875,100.95783182203482L93.58020833333333,104.83610740860698L94.64361979166667,78.85419413440805L95.70703125,93.31506715412964L96.77044270833333,109.29326340758138L97.83385416666667,113.13634039710533L98.897265625,111.30065406752824L99.96067708333334,118.05421164355315L101.02408854166666,119.29890206801163L102.0875,121.43509484481034L103.15091145833334,122.75944188157025L104.21432291666666,125.16601748844141L105.277734375,128.17562253735838L106.34114583333334,129.80276279299315L107.40455729166666,125.68630284287418L108.46796875,122.80789770188092L109.53138020833333,119.1971104881722L110.59479166666667,119.64042220959413L111.658203125,119.54001970388674L112.72161458333333,120.28421291716377L113.78502604166667,124.87652544213395L114.8484375,124.65424307945065L115.91184895833334,128.96289342244935L116.97526041666666,130.60860820259649L118.038671875,130.74270951536892L119.10208333333334,128.4196376958176L120.16549479166666,130.0148774939843L121.22890625,103.85458020403107L122.29231770833334,45.50646712119142L123.35572916666666,53.81109061593952L124.419140625,71.46410196447884L125.48255208333333,86.3181466630285L126.54596354166667,96.301059704153L127.609375,72.81006965534156L128.67278645833332,79.24410334525267L129.73619791666667,91.80836206085709L130.799609375,104.36029717057994L131.86302083333334,112.19098541320253L132.92643229166669,123.0091028181708L133.98984375,130.477865157604L135.05325520833333,133.28118262687397L136.11666666666667,133.86253161940704L137.180078125,134.3674562232802L138.24348958333331,130.90000976323884L139.30690104166666,133.567287069047L140.3703125,135.84115464605534L141.43372395833333,133.02783502665886L142.49713541666668,133.04449862982045L143.560546875,135.15482589280305L144.62395833333332,137.93444527620065L145.68736979166667,141.01432778838526L146.75078125,139.094747962971L147.81419270833334,135.7824330225107L148.87760416666669,139.96347276024835L149.941015625,145.8824189284612L151.00442708333333,146.42130870354333L152.06783854166667,143.3211463392846L153.13125,143.53795488653444L154.19466145833331,143.10682609578973L155.25807291666666,142.6172472394424L156.321484375,143.5151130037514L157.38489583333333,147.26882696099838L158.44830729166668,148.42124511823852L159.51171875,149.39161935378874L160.57513020833332,151.94650133721177L161.63854166666667,150.19093051629835L162.701953125,148.16374711440545L163.76536458333334,148.52977839514682L164.82877604166669,151.05029227549304L165.8921875,151.86124126357802L166.95559895833333,152.87159626458438L168.01901041666667,152.6374612598934L169.082421875,152.93239814762754L170.14583333333331,142.75958230075784L171.20924479166666,144.40534683111977L172.27265625,148.57417217178488L173.33606770833333,150.01168752822144L174.39947916666668,152.6428179057922L175.462890625,156.0161138618623L176.52630208333332,153.63317944928957L177.58971354166667,151.4674036181609L178.653125,150.27734755393845L179.71653645833334,150.7780574274224L180.77994791666669,153.84849916172993L181.843359375,153.7994449614719L182.90677083333333,150.3087600755236L183.97018229166667,150.51131503252293L185.03359375,149.73798495469495L186.09700520833331,153.53954051866364L187.16041666666666,154.58653615929367L188.223828125,158.49268459688236L189.28723958333333,158.96766501484112L190.35065104166668,157.6164712809874L191.4140625,158.39467863119904L192.47747395833332,158.94163228200233L193.54088541666667,159.15341469550518L194.604296875,160.6018669642131L195.66770833333334,157.83251498477665L196.73111979166669,156.46325159444046L197.79453125,157.82785909739172L198.85794270833333,160.55958049686402L199.92135416666667,161.59854389458175L200.984765625,164.09827359625694L202.04817708333331,163.70956932711854L203.11158854166666,163.3563391995922L204.175,161.13470407747766L205.23841145833333,160.14926725708145L206.30182291666668,162.21734941225296L207.365234375,162.72634924781946L208.42864583333332,162.3962101538934L209.49205729166667,158.63541232517534L210.55546875,159.27981505461952L211.61888020833334,160.57178206246147L212.68229166666669,161.8305658297942L213.745703125,164.80523962532146L214.80911458333333,167.17241310671622L215.87252604166667,168.39054952278272L216.9359375,166.97031741099846L217.99934895833331,165.35148317243463L219.06276041666666,165.40074219140038L220.126171875,163.75887788434403L221.18958333333333,164.2463106757377L222.25299479166668,164.806256092632L223.31640625,162.23109970938387L224.37981770833332,162.51073672699806L225.44322916666667,165.92045835452006L226.506640625,165.5848003085827L227.57005208333334,166.62201586361124L228.63346354166669,167.5697261009623L229.696875,168.4171877741649L230.76028645833333,168.52525865587882L231.82369791666667,170.17604741698761L232.887109375,172.8613705522025L233.95052083333331,171.3400192303609" style="fill: none;" fill="none"></path></g></g></g></g><g opacity="0.2"><g><g><g><path stroke="rgb(255, 112, 67)" stroke-width="2px" d="M22.331640625,82.28295944418228L23.395052083333333,162.41135564020703L24.458463541666667,178.33281211342128L26.585286458333336,183.75525739363263L27.648697916666666,169.50962169681276L28.712109375,166.29788554991995L29.775520833333335,159.70238680073192L30.838932291666666,-83.46800177437916L35.092578125,-9.299930623599433L36.15598958333333,16.92360755375454L37.21940104166667,16.629220213208885L38.2828125,22.987923545496805L39.34622395833333,38.46140640974047L40.40963541666667,-236.72054379326948L41.473046875,-3.4554802009037395L42.53645833333333,28.37901465381895L43.59986979166667,56.64617045436589L44.66328125,46.91372076102667L45.72669270833333,67.25919468913759L46.790104166666666,73.94241018806184L47.853515625,70.88339976753508L48.916927083333334,74.95328367607935L49.98033854166667,60.42686539888382L51.04375,39.60166561603546L52.10716145833333,65.06050387450628L53.17057291666667,46.34774166345596L54.233984375,51.44387173652649L55.29739583333333,52.373503029346466L56.36080729166667,60.47889599629812L57.42421875,66.44254612922668L58.48763020833333,59.32324069738388L59.55104166666667,69.07634340013777L60.614453125,84.05210512876512L61.67786458333333,56.44627882753102L62.741276041666666,39.78322242838997L63.8046875,73.40197806698936L64.86809895833333,81.16760327134816L65.93151041666667,84.04961131300247L66.994921875,100.84044942685537L68.05833333333334,100.63864938701904L69.12174479166666,93.73947880949295L70.18515625,80.43303988661087L71.24856770833334,70.2515862754413L72.31197916666666,83.56165469544275L73.375390625,84.70848212071829L74.43880208333334,98.82742495196207L75.50221354166666,99.59118822642736L76.565625,74.24341257980892L77.62903645833333,90.13078690426691L78.69244791666667,91.71643223932811L79.755859375,85.25065874201911L80.81927083333333,102.32368440287455L81.88268229166667,107.42523530551367L82.94609375,99.21239751577377L84.00950520833334,116.69897510324208L85.07291666666666,115.06974067858287L86.136328125,116.14873163189209L87.19973958333334,116.67920019796917L88.26315104166666,103.12537006820953L89.3265625,96.36331252540863L90.38997395833334,91.03312672036036L91.45338541666666,106.3750695841653L92.516796875,99.44735476800375L93.58020833333333,110.65352078846523L94.64361979166667,39.881324223109665L95.70703125,115.006376683712L96.77044270833333,133.26055778775898L97.83385416666667,118.90095588139125L98.897265625,108.54712457316263L99.96067708333334,128.18454800759045L101.02408854166666,121.1659377046994L102.0875,124.63938401000841L103.15091145833334,124.74596243671009L104.21432291666666,128.77588089874814L105.277734375,132.69003011073386L106.34114583333334,132.2434731764453L107.40455729166666,119.51161291769573L108.46796875,118.49028999039106L109.53138020833333,113.7809296676091L110.59479166666667,120.30538979172707L111.658203125,119.38941594532558L112.72161458333333,121.40050273707935L113.78502604166667,131.7649942295892L114.8484375,124.32081953542574L115.91184895833334,135.4258689369474L116.97526041666666,133.0771803728172L118.038671875,130.9438614845276L119.10208333333334,124.93502996649063L120.16549479166666,132.40773719123433L121.22890625,64.61413426910127L122.29231770833334,-42.015702503068084L123.35572916666666,66.26802585806166L124.419140625,97.9436189872878L125.48255208333333,108.59921371085304L126.54596354166667,111.27542926583973L127.609375,37.57358458212444L128.67278645833332,88.89515388011932L129.73619791666667,110.65475013426372L130.799609375,123.18819983516423L131.86302083333334,123.9370177771364L132.92643229166669,139.2362789256232L133.98984375,141.68100866675377L135.05325520833333,137.48615883077895L136.11666666666667,134.73455510820662L137.180078125,135.1248431290899L138.24348958333331,125.6988400731768L139.30690104166666,137.5682030277593L140.3703125,139.2519560115678L141.43372395833333,128.80785559756416L142.49713541666668,133.0694940345628L143.560546875,138.32031678727697L144.62395833333332,142.10387435129712L145.68736979166667,145.63415155666215L146.75078125,136.2153782248497L147.81419270833334,130.81396061182022L148.87760416666669,146.23503236685482L149.941015625,154.7608381807804L151.00442708333333,147.22964336616653L152.06783854166667,138.67090279289653L153.13125,143.86316770740916L154.19466145833331,142.4601329096726L155.25807291666666,141.88287895492147L156.321484375,144.8619116502149L157.38489583333333,152.89939789686883L158.44830729166668,150.14987235409873L159.51171875,150.8471807071141L160.57513020833332,155.77882431234633L161.63854166666667,147.5575742849282L162.701953125,145.12297201156616L163.76536458333334,149.07882531625884L164.82877604166669,154.83106309601237L165.8921875,153.07766474570548L166.95559895833333,154.38712876609395L168.01901041666667,152.28625875285695L169.082421875,153.37480347922872L170.14583333333331,127.50035853045328L171.20924479166666,146.87399362666267L172.27265625,154.8274101827826L173.33606770833333,152.1679605628763L174.39947916666668,156.58951347214835L175.462890625,161.07605779596736L176.52630208333332,150.05877783043044L177.58971354166667,148.21873987146785L178.653125,148.49226345760482L179.71653645833334,151.52912223764827L180.77994791666669,158.45416176319122L181.843359375,153.72586366108487L182.90677083333333,145.0727327466011L183.97018229166667,150.81514746802193L185.03359375,148.57798983795303L186.09700520833331,159.24187386461665L187.16041666666666,156.15702962023872L188.223828125,164.35190725326538L189.28723958333333,159.6801356417792L190.35065104166668,155.58968068020684L191.4140625,159.5619896565165L192.47747395833332,159.76206275820732L193.54088541666667,159.4710883157594L194.604296875,162.77454536727498L195.66770833333334,153.678487015622L196.73111979166669,154.40935650893618L197.79453125,159.87477035181863L198.85794270833333,164.65716259607245L199.92135416666667,163.15698899115836L200.984765625,167.84786814876963L202.04817708333331,163.12651292341096L203.11158854166666,162.8264940083027L204.175,157.80225139430593L205.23841145833333,158.6711120264871L206.30182291666668,165.31947264501025L207.365234375,163.4898490011692L208.42864583333332,161.9010015130043L209.49205729166667,152.99421558209826L210.55546875,160.24641914878572L211.61888020833334,162.50973257422447L212.68229166666669,163.71874148079326L213.745703125,169.26725031861235L214.80911458333333,170.72317332880837L215.87252604166667,170.21775414688247L216.9359375,164.83996924332212L217.99934895833331,162.9232318145888L219.06276041666666,165.47463071984905L220.126171875,161.29608142375946L221.18958333333333,164.97745986282825L222.25299479166668,165.64617421797345L223.31640625,158.3683651345117L224.37981770833332,162.93019225341934L225.44322916666667,171.03504079580307L226.506640625,165.0813132396766L227.57005208333334,168.17783919615405L228.63346354166669,168.99129145698888L229.696875,169.6883802839688L230.76028645833333,168.6873649784497L231.82369791666667,172.65223055865084L232.887109375,176.88935525502475L233.95052083333331,169.05799224759852" style="fill: none;" fill="none"></path></g></g></g></g></g></g><g transform="translate(74, 176)" clip-path="url(#clip_1)"><clipPath id="clip_1"><rect width="255" height="24"></rect></clipPath><g><g><line x1="0" y1="0" x2="0" y2="5" style="visibility: inherit;" fill="rgb(0, 0, 0)" stroke="rgb(204, 204, 204)" stroke-width="1px"></line><line x1="21.268229166666664" y1="0" x2="21.268229166666664" y2="5" style="visibility: inherit;" fill="rgb(0, 0, 0)" stroke="rgb(204, 204, 204)" stroke-width="1px"></line><line x1="42.53645833333333" y1="0" x2="42.53645833333333" y2="5" style="visibility: inherit;" fill="rgb(0, 0, 0)" stroke="rgb(204, 204, 204)" stroke-width="1px"></line><line x1="63.8046875" y1="0" x2="63.8046875" y2="5" style="visibility: inherit;" fill="rgb(0, 0, 0)" stroke="rgb(204, 204, 204)" stroke-width="1px"></line><line x1="85.07291666666666" y1="0" x2="85.07291666666666" y2="5" style="visibility: inherit;" fill="rgb(0, 0, 0)" stroke="rgb(204, 204, 204)" stroke-width="1px"></line><line x1="106.34114583333334" y1="0" x2="106.34114583333334" y2="5" style="visibility: inherit;" fill="rgb(0, 0, 0)" stroke="rgb(204, 204, 204)" stroke-width="1px"></line><line x1="127.609375" y1="0" x2="127.609375" y2="5" style="visibility: inherit;" fill="rgb(0, 0, 0)" stroke="rgb(204, 204, 204)" stroke-width="1px"></line><line x1="148.87760416666669" y1="0" x2="148.87760416666669" y2="5" style="visibility: inherit;" fill="rgb(0, 0, 0)" stroke="rgb(204, 204, 204)" stroke-width="1px"></line><line x1="170.14583333333331" y1="0" x2="170.14583333333331" y2="5" style="visibility: inherit;" fill="rgb(0, 0, 0)" stroke="rgb(204, 204, 204)" stroke-width="1px"></line><line x1="191.4140625" y1="0" x2="191.4140625" y2="5" style="visibility: inherit;" fill="rgb(0, 0, 0)" stroke="rgb(204, 204, 204)" stroke-width="1px"></line><line x1="212.68229166666669" y1="0" x2="212.68229166666669" y2="5" style="visibility: inherit;" fill="rgb(0, 0, 0)" stroke="rgb(204, 204, 204)" stroke-width="1px"></line><line x1="233.95052083333331" y1="0" x2="233.95052083333331" y2="5" style="visibility: inherit;" fill="rgb(0, 0, 0)" stroke="rgb(204, 204, 204)" stroke-width="1px"></line><line x1="255.21875" y1="0" x2="255.21875" y2="5" style="visibility: inherit;" fill="rgb(0, 0, 0)" stroke="rgb(204, 204, 204)" stroke-width="1px"></line></g><g transform="translate(0, 8)"><text x="0" y="0" dx="0em" dy="0.95em" style="text-anchor: middle; visibility: hidden; font-family: Roboto, sans-serif; font-size: 12px; font-weight: 200;" fill="rgb(33, 33, 33)" stroke="none" stroke-width="1px">-20</text><text x="21.268229166666664" y="0" dx="0em" dy="0.95em" style="text-anchor: middle; visibility: inherit; font-family: Roboto, sans-serif; font-size: 12px; font-weight: 200;" fill="rgb(33, 33, 33)" stroke="none" stroke-width="1px">0</text><text x="42.53645833333333" y="0" dx="0em" dy="0.95em" style="text-anchor: middle; visibility: hidden; font-family: Roboto, sans-serif; font-size: 12px; font-weight: 200;" fill="rgb(33, 33, 33)" stroke="none" stroke-width="1px">20</text><text x="63.8046875" y="0" dx="0em" dy="0.95em" style="text-anchor: middle; visibility: inherit; font-family: Roboto, sans-serif; font-size: 12px; font-weight: 200;" fill="rgb(33, 33, 33)" stroke="none" stroke-width="1px">40</text><text x="85.07291666666666" y="0" dx="0em" dy="0.95em" style="text-anchor: middle; visibility: hidden; font-family: Roboto, sans-serif; font-size: 12px; font-weight: 200;" fill="rgb(33, 33, 33)" stroke="none" stroke-width="1px">60</text><text x="106.34114583333334" y="0" dx="0em" dy="0.95em" style="text-anchor: middle; visibility: inherit; font-family: Roboto, sans-serif; font-size: 12px; font-weight: 200;" fill="rgb(33, 33, 33)" stroke="none" stroke-width="1px">80</text><text x="127.609375" y="0" dx="0em" dy="0.95em" style="text-anchor: middle; visibility: hidden; font-family: Roboto, sans-serif; font-size: 12px; font-weight: 200;" fill="rgb(33, 33, 33)" stroke="none" stroke-width="1px">100</text><text x="148.87760416666669" y="0" dx="0em" dy="0.95em" style="text-anchor: middle; visibility: inherit; font-family: Roboto, sans-serif; font-size: 12px; font-weight: 200;" fill="rgb(33, 33, 33)" stroke="none" stroke-width="1px">120</text><text x="170.14583333333331" y="0" dx="0em" dy="0.95em" style="text-anchor: middle; visibility: hidden; font-family: Roboto, sans-serif; font-size: 12px; font-weight: 200;" fill="rgb(33, 33, 33)" stroke="none" stroke-width="1px">140</text><text x="191.4140625" y="0" dx="0em" dy="0.95em" style="text-anchor: middle; visibility: inherit; font-family: Roboto, sans-serif; font-size: 12px; font-weight: 200;" fill="rgb(33, 33, 33)" stroke="none" stroke-width="1px">160</text><text x="212.68229166666669" y="0" dx="0em" dy="0.95em" style="text-anchor: middle; visibility: hidden; font-family: Roboto, sans-serif; font-size: 12px; font-weight: 200;" fill="rgb(33, 33, 33)" stroke="none" stroke-width="1px">180</text><text x="233.95052083333331" y="0" dx="0em" dy="0.95em" style="text-anchor: middle; visibility: inherit; font-family: Roboto, sans-serif; font-size: 12px; font-weight: 200;" fill="rgb(33, 33, 33)" stroke="none" stroke-width="1px">200</text><text x="255.21875" y="0" dx="0em" dy="0.95em" style="text-anchor: middle; visibility: hidden; font-family: Roboto, sans-serif; font-size: 12px; font-weight: 200;" fill="rgb(33, 33, 33)" stroke="none" stroke-width="1px">220</text></g><line x1="0" y1="0" x2="255.21875" y2="0" fill="rgb(0, 0, 0)" stroke="rgb(204, 204, 204)" stroke-width="1px"></line></g></g></g></g></svg>