<svg viewBox="0 0 330.0000305175781 200.00001525878906" xmlns="http://www.w3.org/2000/svg"><g><g><g><g><g><line x1="63.984375" y1="176" x2="58.984375" y2="176" style="visibility: inherit;" fill="rgb(0, 0, 0)" stroke="rgb(204, 204, 204)" stroke-width="1px"></line><line x1="63.984375" y1="162.46153846153848" x2="58.984375" y2="162.46153846153848" style="visibility: inherit;" fill="rgb(0, 0, 0)" stroke="rgb(204, 204, 204)" stroke-width="1px"></line><line x1="63.984375" y1="148.92307692307693" x2="58.984375" y2="148.92307692307693" style="visibility: inherit;" fill="rgb(0, 0, 0)" stroke="rgb(204, 204, 204)" stroke-width="1px"></line><line x1="63.984375" y1="135.3846153846154" x2="58.984375" y2="135.3846153846154" style="visibility: inherit;" fill="rgb(0, 0, 0)" stroke="rgb(204, 204, 204)" stroke-width="1px"></line><line x1="63.984375" y1="121.84615384615384" x2="58.984375" y2="121.84615384615384" style="visibility: inherit;" fill="rgb(0, 0, 0)" stroke="rgb(204, 204, 204)" stroke-width="1px"></line><line x1="63.984375" y1="108.30769230769232" x2="58.984375" y2="108.30769230769232" style="visibility: inherit;" fill="rgb(0, 0, 0)" stroke="rgb(204, 204, 204)" stroke-width="1px"></line><line x1="63.984375" y1="94.76923076923079" x2="58.984375" y2="94.76923076923079" style="visibility: inherit;" fill="rgb(0, 0, 0)" stroke="rgb(204, 204, 204)" stroke-width="1px"></line><line x1="63.984375" y1="81.23076923076925" x2="58.984375" y2="81.23076923076925" style="visibility: inherit;" fill="rgb(0, 0, 0)" stroke="rgb(204, 204, 204)" stroke-width="1px"></line><line x1="63.984375" y1="67.69230769230771" x2="58.984375" y2="67.69230769230771" style="visibility: inherit;" fill="rgb(0, 0, 0)" stroke="rgb(204, 204, 204)" stroke-width="1px"></line><line x1="63.984375" y1="54.15384615384616" x2="58.984375" y2="54.15384615384616" style="visibility: inherit;" fill="rgb(0, 0, 0)" stroke="rgb(204, 204, 204)" stroke-width="1px"></line><line x1="63.984375" y1="40.61538461538465" x2="58.984375" y2="40.61538461538465" style="visibility: inherit;" fill="rgb(0, 0, 0)" stroke="rgb(204, 204, 204)" stroke-width="1px"></line><line x1="63.984375" y1="27.076923076923098" x2="58.984375" y2="27.076923076923098" style="visibility: inherit;" fill="rgb(0, 0, 0)" stroke="rgb(204, 204, 204)" stroke-width="1px"></line><line x1="63.984375" y1="13.538461538461549" x2="58.984375" y2="13.538461538461549" style="visibility: inherit;" fill="rgb(0, 0, 0)" stroke="rgb(204, 204, 204)" stroke-width="1px"></line><line x1="63.984375" y1="0" x2="58.984375" y2="0" style="visibility: inherit;" fill="rgb(0, 0, 0)" stroke="rgb(204, 204, 204)" stroke-width="1px"></line></g><g transform="translate(53.984375, 0)"><text x="0" y="176" dx="0em" dy="0.3em" style="text-anchor: end; visibility: hidden; font-family: Roboto, sans-serif; font-size: 12px; font-weight: 200;" fill="rgb(33, 33, 33)" stroke="none" stroke-width="1px">0.024</text><text x="0" y="162.46153846153848" dx="0em" dy="0.3em" style="text-anchor: end; visibility: inherit; font-family: Roboto, sans-serif; font-size: 12px; font-weight: 200;" fill="rgb(33, 33, 33)" stroke="none" stroke-width="1px">0.026</text><text x="0" y="148.92307692307693" dx="0em" dy="0.3em" style="text-anchor: end; visibility: hidden; font-family: Roboto, sans-serif; font-size: 12px; font-weight: 200;" fill="rgb(33, 33, 33)" stroke="none" stroke-width="1px">0.028</text><text x="0" y="135.3846153846154" dx="0em" dy="0.3em" style="text-anchor: end; visibility: inherit; font-family: Roboto, sans-serif; font-size: 12px; font-weight: 200;" fill="rgb(33, 33, 33)" stroke="none" stroke-width="1px">0.03</text><text x="0" y="121.84615384615384" dx="0em" dy="0.3em" style="text-anchor: end; visibility: hidden; font-family: Roboto, sans-serif; font-size: 12px; font-weight: 200;" fill="rgb(33, 33, 33)" stroke="none" stroke-width="1px">0.032</text><text x="0" y="108.30769230769232" dx="0em" dy="0.3em" style="text-anchor: end; visibility: inherit; font-family: Roboto, sans-serif; font-size: 12px; font-weight: 200;" fill="rgb(33, 33, 33)" stroke="none" stroke-width="1px">0.034</text><text x="0" y="94.76923076923079" dx="0em" dy="0.3em" style="text-anchor: end; visibility: hidden; font-family: Roboto, sans-serif; font-size: 12px; font-weight: 200;" fill="rgb(33, 33, 33)" stroke="none" stroke-width="1px">0.036</text><text x="0" y="81.23076923076925" dx="0em" dy="0.3em" style="text-anchor: end; visibility: inherit; font-family: Roboto, sans-serif; font-size: 12px; font-weight: 200;" fill="rgb(33, 33, 33)" stroke="none" stroke-width="1px">0.038</text><text x="0" y="67.69230769230771" dx="0em" dy="0.3em" style="text-anchor: end; visibility: hidden; font-family: Roboto, sans-serif; font-size: 12px; font-weight: 200;" fill="rgb(33, 33, 33)" stroke="none" stroke-width="1px">0.04</text><text x="0" y="54.15384615384616" dx="0em" dy="0.3em" style="text-anchor: end; visibility: inherit; font-family: Roboto, sans-serif; font-size: 12px; font-weight: 200;" fill="rgb(33, 33, 33)" stroke="none" stroke-width="1px">0.042</text><text x="0" y="40.61538461538465" dx="0em" dy="0.3em" style="text-anchor: end; visibility: hidden; font-family: Roboto, sans-serif; font-size: 12px; font-weight: 200;" fill="rgb(33, 33, 33)" stroke="none" stroke-width="1px">0.044</text><text x="0" y="27.076923076923098" dx="0em" dy="0.3em" style="text-anchor: end; visibility: inherit; font-family: Roboto, sans-serif; font-size: 12px; font-weight: 200;" fill="rgb(33, 33, 33)" stroke="none" stroke-width="1px">0.046</text><text x="0" y="13.538461538461549" dx="0em" dy="0.3em" style="text-anchor: end; visibility: hidden; font-family: Roboto, sans-serif; font-size: 12px; font-weight: 200;" fill="rgb(33, 33, 33)" stroke="none" stroke-width="1px">0.048</text><text x="0" y="0" dx="0em" dy="0.3em" style="text-anchor: end; visibility: hidden; font-family: Roboto, sans-serif; font-size: 12px; font-weight: 200;" fill="rgb(33, 33, 33)" stroke="none" stroke-width="1px">0.05</text></g><line x1="63.984375" y1="0" x2="63.984375" y2="176" fill="rgb(0, 0, 0)" stroke="rgb(204, 204, 204)" stroke-width="1px"></line></g></g><g transform="translate(63, 0)" clip-path="url(#clip_0)"><clipPath id="clip_0"><rect width="266" height="176"></rect></clipPath><g><g><g><line x1="0" y1="0" x2="0" y2="176" fill="rgb(0, 0, 0)" stroke="rgb(66, 66, 66)" stroke-width="1px" opacity="0.25"></line><line x1="22.16796875" y1="0" x2="22.16796875" y2="176" fill="rgb(0, 0, 0)" stroke="rgb(66, 66, 66)" stroke-width="1px" opacity="0.25"></line><line x1="44.3359375" y1="0" x2="44.3359375" y2="176" fill="rgb(0, 0, 0)" stroke="rgb(66, 66, 66)" stroke-width="1px" opacity="0.25"></line><line x1="66.50390625" y1="0" x2="66.50390625" y2="176" fill="rgb(0, 0, 0)" stroke="rgb(66, 66, 66)" stroke-width="1px" opacity="0.25"></line><line x1="88.671875" y1="0" x2="88.671875" y2="176" fill="rgb(0, 0, 0)" stroke="rgb(66, 66, 66)" stroke-width="1px" opacity="0.25"></line><line x1="110.83984375" y1="0" x2="110.83984375" y2="176" fill="rgb(0, 0, 0)" stroke="rgb(66, 66, 66)" stroke-width="1px" opacity="0.25"></line><line x1="133.0078125" y1="0" x2="133.0078125" y2="176" fill="rgb(0, 0, 0)" stroke="rgb(66, 66, 66)" stroke-width="1px" opacity="0.25"></line><line x1="155.17578125" y1="0" x2="155.17578125" y2="176" fill="rgb(0, 0, 0)" stroke="rgb(66, 66, 66)" stroke-width="1px" opacity="0.25"></line><line x1="177.34375" y1="0" x2="177.34375" y2="176" fill="rgb(0, 0, 0)" stroke="rgb(66, 66, 66)" stroke-width="1px" opacity="0.25"></line><line x1="199.51171875" y1="0" x2="199.51171875" y2="176" fill="rgb(0, 0, 0)" stroke="rgb(66, 66, 66)" stroke-width="1px" opacity="0.25"></line><line x1="221.6796875" y1="0" x2="221.6796875" y2="176" fill="rgb(0, 0, 0)" stroke="rgb(66, 66, 66)" stroke-width="1px" opacity="0.25"></line><line x1="243.84765625" y1="0" x2="243.84765625" y2="176" fill="rgb(0, 0, 0)" stroke="rgb(66, 66, 66)" stroke-width="1px" opacity="0.25"></line><line x1="266.015625" y1="0" x2="266.015625" y2="176" fill="rgb(0, 0, 0)" stroke="rgb(66, 66, 66)" stroke-width="1px" opacity="0.25"></line></g><g><line x1="0" y1="176" x2="266.015625" y2="176" fill="rgb(0, 0, 0)" stroke="rgb(66, 66, 66)" stroke-width="1px" opacity="0.25"></line><line x1="0" y1="162.46153846153848" x2="266.015625" y2="162.46153846153848" fill="rgb(0, 0, 0)" stroke="rgb(66, 66, 66)" stroke-width="1px" opacity="0.25"></line><line x1="0" y1="148.92307692307693" x2="266.015625" y2="148.92307692307693" fill="rgb(0, 0, 0)" stroke="rgb(66, 66, 66)" stroke-width="1px" opacity="0.25"></line><line x1="0" y1="135.3846153846154" x2="266.015625" y2="135.3846153846154" fill="rgb(0, 0, 0)" stroke="rgb(66, 66, 66)" stroke-width="1px" opacity="0.25"></line><line x1="0" y1="121.84615384615384" x2="266.015625" y2="121.84615384615384" fill="rgb(0, 0, 0)" stroke="rgb(66, 66, 66)" stroke-width="1px" opacity="0.25"></line><line x1="0" y1="108.30769230769232" x2="266.015625" y2="108.30769230769232" fill="rgb(0, 0, 0)" stroke="rgb(66, 66, 66)" stroke-width="1px" opacity="0.25"></line><line x1="0" y1="94.76923076923079" x2="266.015625" y2="94.76923076923079" fill="rgb(0, 0, 0)" stroke="rgb(66, 66, 66)" stroke-width="1px" opacity="0.25"></line><line x1="0" y1="81.23076923076925" x2="266.015625" y2="81.23076923076925" fill="rgb(0, 0, 0)" stroke="rgb(66, 66, 66)" stroke-width="1px" opacity="0.25"></line><line x1="0" y1="67.69230769230771" x2="266.015625" y2="67.69230769230771" fill="rgb(0, 0, 0)" stroke="rgb(66, 66, 66)" stroke-width="1px" opacity="0.25"></line><line x1="0" y1="54.15384615384616" x2="266.015625" y2="54.15384615384616" fill="rgb(0, 0, 0)" stroke="rgb(66, 66, 66)" stroke-width="1px" opacity="0.25"></line><line x1="0" y1="40.61538461538465" x2="266.015625" y2="40.61538461538465" fill="rgb(0, 0, 0)" stroke="rgb(66, 66, 66)" stroke-width="1px" opacity="0.25"></line><line x1="0" y1="27.076923076923098" x2="266.015625" y2="27.076923076923098" fill="rgb(0, 0, 0)" stroke="rgb(66, 66, 66)" stroke-width="1px" opacity="0.25"></line><line x1="0" y1="13.538461538461549" x2="266.015625" y2="13.538461538461549" fill="rgb(0, 0, 0)" stroke="rgb(66, 66, 66)" stroke-width="1px" opacity="0.25"></line><line x1="0" y1="0" x2="266.015625" y2="0" fill="rgb(0, 0, 0)" stroke="rgb(66, 66, 66)" stroke-width="1px" opacity="0.25"></line></g></g></g><g><g><line x1="0" y1="338.46153846153845" x2="266.015625" y2="338.46153846153845" fill="rgb(0, 0, 0)" stroke="rgb(153, 153, 153)" stroke-width="1.5px"></line></g></g><g><g><line x1="22.16796875" y1="0" x2="22.16796875" y2="176" fill="rgb(0, 0, 0)" stroke="rgb(153, 153, 153)" stroke-width="1.5px"></line></g></g><g><g><g><g><g><path stroke="rgb(255, 112, 67)" stroke-width="2px" d="M31.03515625,-17.844839915453132L32.1435546875,0.3879622398849456L33.251953125,5.10937958791618L34.3603515625,7.982184442797747L35.46875,28.90189147213862L36.5771484375,22.909336280567004L37.685546875,20.688848925684255L38.7939453125,24.89652218063174L39.90234375,19.61727649836611L41.0107421875,29.8397805844559L42.119140625,43.36487795029257L43.2275390625,56.29777106668813L44.3359375,41.96703724906388L45.4443359375,42.693826868202834L46.552734375,37.45905923512908L47.6611328125,47.16600893793341L48.76953125,64.57196860524827L49.8779296875,66.81151800158469L50.986328125,78.9346803472987L52.0947265625,82.14601506206739L53.203125,71.96779257977931L54.3115234375,69.2016083768099L55.419921875,69.23298443985452L56.5283203125,58.19097467511545L57.63671875,82.98027557144155L58.7451171875,89.86701546420075L59.853515625,88.01833079526033L60.9619140625,85.30836298827631L62.0703125,78.07028127134167L63.1787109375,86.4532266830548L64.287109375,94.16978147546243L65.3955078125,86.75596860460698L66.50390625,93.6414876059542L67.6123046875,94.55143387659346L68.720703125,97.70427038366084L69.8291015625,102.61793878184957L70.9375,109.47873267173121L72.0458984375,108.81188124150516L73.154296875,106.9068796479872L74.2626953125,90.28174735692157L75.37109375,104.10524925328588L76.4794921875,104.95722631748363L77.587890625,105.46587064714384L78.6962890625,95.91495697909318L79.8046875,95.53642812498532L80.9130859375,106.82420834243692L82.021484375,111.08328166211336L83.1298828125,116.01846677242234L84.23828125,113.42112926717836L85.3466796875,107.14627541257238L86.455078125,94.55135679382047L87.5634765625,107.18206415258726L88.671875,109.27609830905737L89.7802734375,116.90212881910213L90.888671875,110.72224486448036L91.9970703125,123.29874085073743L93.10546875,119.8867013852899L94.2138671875,121.99033416424517L95.322265625,115.23613018369956L96.4306640625,123.97933990840349L97.5390625,122.22810180558379L98.6474609375,125.95694445209188L99.755859375,120.10766129047788L100.8642578125,110.66315787781413L101.97265625,108.65379866762285L103.0810546875,104.40110016714758L104.189453125,100.24617205907104L105.2978515625,106.00228437141253L106.40625,120.59001182988231L107.5146484375,112.50104460403293L108.623046875,110.77625980409499L109.7314453125,105.06692950341461L110.83984375,114.09539356478071L111.9482421875,121.72807339082503L113.056640625,120.66667615553713L114.1650390625,126.54888584492421L115.2734375,132.67112512112195L116.3818359375,135.76719816068822L117.490234375,132.38898383746704L118.5986328125,119.25030244002531L119.70703125,129.39278300171966L120.8154296875,120.98769123845668L121.923828125,119.89061680271709L123.0322265625,113.18764228492897L124.140625,123.14888303339896L125.2490234375,131.89419491620498L126.357421875,130.49071458023843L127.4658203125,132.0061459685962L128.57421875,132.15534883780114L129.6826171875,126.59046492877226L130.791015625,135.25019670666828L131.8994140625,133.33446576358745L133.0078125,130.95801148235995L134.1162109375,131.67119555953033L135.224609375,133.57667626448665L136.3330078125,137.31585884076196L137.44140625,124.97534287515234L138.5498046875,129.59748998195317L139.658203125,126.74033918464869L140.7666015625,129.13817635880113L141.875,139.22874961091034L142.9833984375,135.17397753977244L144.091796875,131.73753438710477L145.2001953125,122.82175423463995L146.30859375,123.78635746831647L147.4169921875,124.53015183198194L148.525390625,129.5246044270078L149.6337890625,122.88007292900835L150.7421875,129.91003238183103L151.8505859375,133.1231874499339L152.958984375,135.7005129848858L154.0673828125,133.52561426957857L155.17578125,138.41180674223045L156.2841796875,149.3776941922276L157.392578125,144.31337264936977L158.5009765625,144.34725152570633L159.609375,138.36475014344643L160.7177734375,148.91867224781572L161.826171875,137.0756207050338L162.9345703125,139.53175992158245L164.04296875,149.8408160095185L165.1513671875,148.5182730019185L166.259765625,146.90404350748983L167.3681640625,151.0902397437679L168.4765625,152.57032579572953L169.5849609375,144.71012072521697L170.693359375,144.11115367497726L171.8017578125,141.00078250385909L172.91015625,148.5686376326032L174.0185546875,144.86198622550287L175.126953125,146.1925825620405L176.2353515625,152.07738571387648L177.34375,156.56265350914347L178.4521484375,130.86418240142444L179.560546875,138.66286996481213L180.6689453125,140.9955324600321L181.77734375,142.62350836310185L182.8857421875,128.7726435779948L183.994140625,133.37533436533326L185.1025390625,137.01674686492163L186.2109375,141.9136245003429L187.3193359375,150.1464160880865L188.427734375,152.0668480204549L189.5361328125,148.15055101784873L190.64453125,137.84456785172063L191.7529296875,142.982645018031L192.861328125,147.0665091450713L193.9697265625,134.349323072269L195.078125,139.05390151908983L196.1865234375,152.5183953832768L197.294921875,153.98386695699222L198.4033203125,153.0186167695487L199.51171875,156.745167729482L200.6201171875,154.14739636475878L201.728515625,151.80945187469422L202.8369140625,144.69909111608968L203.9453125,153.32382244300328L205.0537109375,161.50797366711234L206.162109375,150.64952101843429L207.2705078125,159.97931720888587L208.37890625,161.6552060874552L209.4873046875,159.47102711026145L210.595703125,153.727980425961L211.7041015625,160.45749424159953L212.8125,164.87695790134282L213.9208984375,163.95849485508813L215.029296875,163.80957323361304L216.1376953125,162.5056871334568L217.24609375,158.65015741164007L218.3544921875,145.75877667741992L219.462890625,144.73112273977412L220.5712890625,140.75039470835867L221.6796875,144.7859112943028L222.7880859375,150.99837742779155L223.896484375,151.8830346661969L225.0048828125,149.120443136766L226.11328125,145.5085738771956L227.2216796875,144.30827542249702L228.330078125,145.7411133203857L229.4384765625,145.4778622590642L230.546875,152.19011629104997L231.6552734375,147.17006867585044L232.763671875,149.36428804165902L233.8720703125,150.54614892673865L234.98046875,153.35208808639456L236.0888671875,157.31833616511847L237.197265625,143.5509217312789L238.3056640625,143.21864138612895L239.4140625,144.47849529404218L240.5224609375,153.05522569621712L241.630859375,151.1484301786544L242.7392578125,154.78836149945622L243.84765625,148.36031293074532" style="fill: none;" fill="none"></path></g></g></g></g><g opacity="0.2"><g><g><g><path stroke="rgb(255, 112, 67)" stroke-width="2px" d="M27.7099609375,-100.89580645928012L28.818359375,22.48978568957405L29.9267578125,38.57676524382373L31.03515625,1.541455892416156L32.1435546875,27.27780387951779L33.251953125,12.120134096879239L34.3603515625,12.265335596524764L35.46875,60.1676078943106L36.5771484375,13.940070225642302L37.685546875,17.362468059246375L38.7939453125,31.203086101091834L39.90234375,11.702131308042098L41.0107421875,45.169210892457244L42.119140625,63.64908997829146L43.2275390625,75.69514054518481L44.3359375,20.472246408462546L45.4443359375,43.78397143804112L46.552734375,29.60708003777726L47.6611328125,61.726241845351005L48.76953125,90.68070191603442L49.8779296875,70.17082617833066L50.986328125,97.1193721661201L52.0947265625,86.96300891729503L53.203125,56.70047448231625L54.3115234375,65.05233462040242L55.419921875,69.28004851708046L56.5283203125,41.62796368965736L57.63671875,120.16422198368952L58.7451171875,100.19712448120117L59.853515625,85.24530392426712L60.9619140625,81.24341139426599L62.0703125,67.21315888258128L63.1787109375,99.02764467092662L64.287109375,105.74461359244128L65.3955078125,75.63524933961722L66.50390625,103.96976608496448L67.6123046875,95.91635328072769L68.720703125,102.4335251404689L69.8291015625,109.98844137558571L70.9375,119.7699235035823L72.0458984375,107.81160409633931L73.154296875,104.04937725800735L74.2626953125,65.34404892187854L75.37109375,124.84050209705647L76.4794921875,106.23519191375146L77.587890625,106.22883714162387L78.6962890625,81.58858647713295L79.8046875,94.9686348438263L80.9130859375,123.755878668565L82.021484375,117.47189164161682L83.1298828125,123.42124443787796L84.23828125,109.52512300931491L85.3466796875,97.73399463066688L86.455078125,75.65897886569685L87.5634765625,126.12812519073486L88.671875,112.4171495437622L89.7802734375,128.34117458416864L90.888671875,101.45241893254794L91.9970703125,142.16348483012274L93.10546875,114.76864218711853L94.2138671875,125.145783332678L95.322265625,105.10482421288124L96.4306640625,137.09415449545935L97.5390625,119.60124465135428L98.6474609375,131.55020842185388L99.755859375,111.33373654805698L100.8642578125,96.49640275881842L101.97265625,105.63975985233603L103.0810546875,98.02205241643466L104.189453125,94.01377989695624L105.2978515625,114.63645283992476L106.40625,142.47160301758694L107.5146484375,100.36759376525879L108.623046875,108.1890826041882L109.7314453125,96.50293405239401L110.83984375,127.63808965682983L111.9482421875,133.17709312989163L113.056640625,119.07458030260526L114.1650390625,135.37220037900485L115.2734375,141.85448403541858L116.3818359375,140.41130772003763L117.490234375,127.32166235263533L118.5986328125,99.54228034386269L119.70703125,144.60650384426117L120.8154296875,108.38005359356221L121.923828125,118.24500514910773L123.0322265625,103.1331805082468L124.140625,138.09074415610388L125.2490234375,145.01216274041397L126.357421875,128.38549407628867L127.4658203125,134.27929305113278L128.57421875,132.3791531416086L129.6826171875,118.24313906522899L130.791015625,148.23979437351227L131.8994140625,130.46086934896618L133.0078125,127.39333006051871L134.1162109375,132.74097167528592L135.224609375,136.43489732192114L136.3330078125,142.924632705175L137.44140625,106.46456892673788L138.5498046875,136.5307106421544L139.658203125,122.45461298869208L140.7666015625,132.73493212002975L141.875,154.36460948907413L142.9833984375,129.09181943306558L144.091796875,126.58286965810336L145.2001953125,109.44808400594272L146.30859375,125.23326231883124L147.4169921875,125.64584337748013L148.525390625,137.01628331954663L149.6337890625,112.91327568200919L150.7421875,140.4549715610651L151.8505859375,137.94292005208823L152.958984375,139.56650128731363L154.0673828125,130.2632661966177L155.17578125,145.74109545120828L156.2841796875,165.82652536722333L157.392578125,136.716890335083L158.5009765625,144.39806984021112L159.609375,129.39099807005664L160.7177734375,164.74955540436966L161.826171875,119.31104339086093L162.9345703125,143.2159687464054L164.04296875,165.30440014142258L165.1513671875,146.53445849051843L166.259765625,144.48269926584683L167.3681640625,157.36953409818503L168.4765625,154.7904548736719L169.5849609375,132.91981311944815L170.693359375,143.21270309961758L171.8017578125,136.33522574718182L172.91015625,159.92042032571942L174.0185546875,139.30200911485232L175.126953125,148.188477066847L176.2353515625,160.90459044163043L177.34375,163.29055520204398L178.4521484375,92.31647573984586L179.560546875,150.36090130989368L180.6689453125,144.4945262028621L181.77734375,145.06547221770654L182.8857421875,107.9963464003343L183.994140625,140.27937054634094L185.1025390625,142.47886561430417L186.2109375,149.2589409534748L187.3193359375,162.49560346970193L188.427734375,154.94749591900754L189.5361328125,142.27610551393948L190.64453125,122.38559310252852L191.7529296875,150.68976076749655L192.861328125,153.19230533563174L193.9697265625,115.27354396306552L195.078125,146.1107691893211L196.1865234375,172.71513617955722L197.294921875,156.18207431756534L198.4033203125,151.57074148838336L199.51171875,162.33499416938196L200.6201171875,150.2507393176739L201.728515625,148.30253513959738L202.8369140625,134.03354997818286L203.9453125,166.26091943337366L205.0537109375,173.78420050327594L206.162109375,134.3618420454172L207.2705078125,173.97401149456317L208.37890625,164.16903940530926L209.4873046875,156.1947586444708L210.595703125,145.11341039951031L211.7041015625,170.55176496505737L212.8125,171.50615339095776L213.9208984375,162.58080028570615L215.029296875,163.5861908014004L216.1376953125,160.54985798322238L217.24609375,152.86686282891495L218.3544921875,126.42170557608972L219.462890625,143.18964183330536L220.5712890625,134.7793026612355L221.6796875,150.83918617321893L222.7880859375,160.31707662802475L223.896484375,153.21002052380487L225.0048828125,144.9765558426197L226.11328125,140.09076998783993L227.2216796875,142.5078277404492L228.330078125,147.89037016721875L229.4384765625,145.082985667082L230.546875,162.25849733902857L231.6552734375,139.63999725305118L232.763671875,152.65561709037195L233.8720703125,152.31894025435815L234.98046875,157.56099682587845L236.0888671875,163.26770828320429L237.197265625,122.89980008051947L238.3056640625,142.72022086840408L239.4140625,146.36827615591199L240.5224609375,165.92032129947955L241.630859375,148.2882369023103L242.7392578125,160.2482584806589L243.84765625,138.71824007767898" style="fill: none;" fill="none"></path></g></g></g></g></g></g><g transform="translate(63, 176)" clip-path="url(#clip_1)"><clipPath id="clip_1"><rect width="266" height="24"></rect></clipPath><g><g><line x1="0" y1="0" x2="0" y2="5" style="visibility: inherit;" fill="rgb(0, 0, 0)" stroke="rgb(204, 204, 204)" stroke-width="1px"></line><line x1="22.16796875" y1="0" x2="22.16796875" y2="5" style="visibility: inherit;" fill="rgb(0, 0, 0)" stroke="rgb(204, 204, 204)" stroke-width="1px"></line><line x1="44.3359375" y1="0" x2="44.3359375" y2="5" style="visibility: inherit;" fill="rgb(0, 0, 0)" stroke="rgb(204, 204, 204)" stroke-width="1px"></line><line x1="66.50390625" y1="0" x2="66.50390625" y2="5" style="visibility: inherit;" fill="rgb(0, 0, 0)" stroke="rgb(204, 204, 204)" stroke-width="1px"></line><line x1="88.671875" y1="0" x2="88.671875" y2="5" style="visibility: inherit;" fill="rgb(0, 0, 0)" stroke="rgb(204, 204, 204)" stroke-width="1px"></line><line x1="110.83984375" y1="0" x2="110.83984375" y2="5" style="visibility: inherit;" fill="rgb(0, 0, 0)" stroke="rgb(204, 204, 204)" stroke-width="1px"></line><line x1="133.0078125" y1="0" x2="133.0078125" y2="5" style="visibility: inherit;" fill="rgb(0, 0, 0)" stroke="rgb(204, 204, 204)" stroke-width="1px"></line><line x1="155.17578125" y1="0" x2="155.17578125" y2="5" style="visibility: inherit;" fill="rgb(0, 0, 0)" stroke="rgb(204, 204, 204)" stroke-width="1px"></line><line x1="177.34375" y1="0" x2="177.34375" y2="5" style="visibility: inherit;" fill="rgb(0, 0, 0)" stroke="rgb(204, 204, 204)" stroke-width="1px"></line><line x1="199.51171875" y1="0" x2="199.51171875" y2="5" style="visibility: inherit;" fill="rgb(0, 0, 0)" stroke="rgb(204, 204, 204)" stroke-width="1px"></line><line x1="221.6796875" y1="0" x2="221.6796875" y2="5" style="visibility: inherit;" fill="rgb(0, 0, 0)" stroke="rgb(204, 204, 204)" stroke-width="1px"></line><line x1="243.84765625" y1="0" x2="243.84765625" y2="5" style="visibility: inherit;" fill="rgb(0, 0, 0)" stroke="rgb(204, 204, 204)" stroke-width="1px"></line><line x1="266.015625" y1="0" x2="266.015625" y2="5" style="visibility: inherit;" fill="rgb(0, 0, 0)" stroke="rgb(204, 204, 204)" stroke-width="1px"></line></g><g transform="translate(0, 8)"><text x="0" y="0" dx="0em" dy="0.95em" style="text-anchor: middle; visibility: hidden; font-family: Roboto, sans-serif; font-size: 12px; font-weight: 200;" fill="rgb(33, 33, 33)" stroke="none" stroke-width="1px">-20</text><text x="22.16796875" y="0" dx="0em" dy="0.95em" style="text-anchor: middle; visibility: inherit; font-family: Roboto, sans-serif; font-size: 12px; font-weight: 200;" fill="rgb(33, 33, 33)" stroke="none" stroke-width="1px">0</text><text x="44.3359375" y="0" dx="0em" dy="0.95em" style="text-anchor: middle; visibility: hidden; font-family: Roboto, sans-serif; font-size: 12px; font-weight: 200;" fill="rgb(33, 33, 33)" stroke="none" stroke-width="1px">20</text><text x="66.50390625" y="0" dx="0em" dy="0.95em" style="text-anchor: middle; visibility: inherit; font-family: Roboto, sans-serif; font-size: 12px; font-weight: 200;" fill="rgb(33, 33, 33)" stroke="none" stroke-width="1px">40</text><text x="88.671875" y="0" dx="0em" dy="0.95em" style="text-anchor: middle; visibility: hidden; font-family: Roboto, sans-serif; font-size: 12px; font-weight: 200;" fill="rgb(33, 33, 33)" stroke="none" stroke-width="1px">60</text><text x="110.83984375" y="0" dx="0em" dy="0.95em" style="text-anchor: middle; visibility: inherit; font-family: Roboto, sans-serif; font-size: 12px; font-weight: 200;" fill="rgb(33, 33, 33)" stroke="none" stroke-width="1px">80</text><text x="133.0078125" y="0" dx="0em" dy="0.95em" style="text-anchor: middle; visibility: hidden; font-family: Roboto, sans-serif; font-size: 12px; font-weight: 200;" fill="rgb(33, 33, 33)" stroke="none" stroke-width="1px">100</text><text x="155.17578125" y="0" dx="0em" dy="0.95em" style="text-anchor: middle; visibility: inherit; font-family: Roboto, sans-serif; font-size: 12px; font-weight: 200;" fill="rgb(33, 33, 33)" stroke="none" stroke-width="1px">120</text><text x="177.34375" y="0" dx="0em" dy="0.95em" style="text-anchor: middle; visibility: hidden; font-family: Roboto, sans-serif; font-size: 12px; font-weight: 200;" fill="rgb(33, 33, 33)" stroke="none" stroke-width="1px">140</text><text x="199.51171875" y="0" dx="0em" dy="0.95em" style="text-anchor: middle; visibility: inherit; font-family: Roboto, sans-serif; font-size: 12px; font-weight: 200;" fill="rgb(33, 33, 33)" stroke="none" stroke-width="1px">160</text><text x="221.6796875" y="0" dx="0em" dy="0.95em" style="text-anchor: middle; visibility: hidden; font-family: Roboto, sans-serif; font-size: 12px; font-weight: 200;" fill="rgb(33, 33, 33)" stroke="none" stroke-width="1px">180</text><text x="243.84765625" y="0" dx="0em" dy="0.95em" style="text-anchor: middle; visibility: inherit; font-family: Roboto, sans-serif; font-size: 12px; font-weight: 200;" fill="rgb(33, 33, 33)" stroke="none" stroke-width="1px">200</text><text x="266.015625" y="0" dx="0em" dy="0.95em" style="text-anchor: middle; visibility: hidden; font-family: Roboto, sans-serif; font-size: 12px; font-weight: 200;" fill="rgb(33, 33, 33)" stroke="none" stroke-width="1px">220</text></g><line x1="0" y1="0" x2="266.015625" y2="0" fill="rgb(0, 0, 0)" stroke="rgb(204, 204, 204)" stroke-width="1px"></line></g></g></g></g></svg>