<svg viewBox="0 0 330.0000305175781 200.00001525878906" xmlns="http://www.w3.org/2000/svg"><g><g><g><g><g><line x1="51.5625" y1="177" x2="46.5625" y2="177" style="visibility: inherit;" fill="rgb(0, 0, 0)" stroke="rgb(204, 204, 204)" stroke-width="1px"></line><line x1="51.5625" y1="151.7142857142857" x2="46.5625" y2="151.7142857142857" style="visibility: inherit;" fill="rgb(0, 0, 0)" stroke="rgb(204, 204, 204)" stroke-width="1px"></line><line x1="51.5625" y1="126.42857142857144" x2="46.5625" y2="126.42857142857144" style="visibility: inherit;" fill="rgb(0, 0, 0)" stroke="rgb(204, 204, 204)" stroke-width="1px"></line><line x1="51.5625" y1="101.14285714285714" x2="46.5625" y2="101.14285714285714" style="visibility: inherit;" fill="rgb(0, 0, 0)" stroke="rgb(204, 204, 204)" stroke-width="1px"></line><line x1="51.5625" y1="75.85714285714282" x2="46.5625" y2="75.85714285714282" style="visibility: inherit;" fill="rgb(0, 0, 0)" stroke="rgb(204, 204, 204)" stroke-width="1px"></line><line x1="51.5625" y1="50.57142857142857" x2="46.5625" y2="50.57142857142857" style="visibility: inherit;" fill="rgb(0, 0, 0)" stroke="rgb(204, 204, 204)" stroke-width="1px"></line><line x1="51.5625" y1="25.285714285714256" x2="46.5625" y2="25.285714285714256" style="visibility: inherit;" fill="rgb(0, 0, 0)" stroke="rgb(204, 204, 204)" stroke-width="1px"></line><line x1="51.5625" y1="0" x2="46.5625" y2="0" style="visibility: inherit;" fill="rgb(0, 0, 0)" stroke="rgb(204, 204, 204)" stroke-width="1px"></line></g><g transform="translate(41.5625, 0)"><text x="0" y="177" dx="0em" dy="0.3em" style="text-anchor: end; visibility: hidden; font-family: Roboto, sans-serif; font-size: 12px; font-weight: 200;" fill="rgb(33, 33, 33)" stroke="none" stroke-width="1px">0.6</text><text x="0" y="151.7142857142857" dx="0em" dy="0.3em" style="text-anchor: end; visibility: inherit; font-family: Roboto, sans-serif; font-size: 12px; font-weight: 200;" fill="rgb(33, 33, 33)" stroke="none" stroke-width="1px">0.65</text><text x="0" y="126.42857142857144" dx="0em" dy="0.3em" style="text-anchor: end; visibility: inherit; font-family: Roboto, sans-serif; font-size: 12px; font-weight: 200;" fill="rgb(33, 33, 33)" stroke="none" stroke-width="1px">0.7</text><text x="0" y="101.14285714285714" dx="0em" dy="0.3em" style="text-anchor: end; visibility: inherit; font-family: Roboto, sans-serif; font-size: 12px; font-weight: 200;" fill="rgb(33, 33, 33)" stroke="none" stroke-width="1px">0.75</text><text x="0" y="75.85714285714282" dx="0em" dy="0.3em" style="text-anchor: end; visibility: inherit; font-family: Roboto, sans-serif; font-size: 12px; font-weight: 200;" fill="rgb(33, 33, 33)" stroke="none" stroke-width="1px">0.8</text><text x="0" y="50.57142857142857" dx="0em" dy="0.3em" style="text-anchor: end; visibility: inherit; font-family: Roboto, sans-serif; font-size: 12px; font-weight: 200;" fill="rgb(33, 33, 33)" stroke="none" stroke-width="1px">0.85</text><text x="0" y="25.285714285714256" dx="0em" dy="0.3em" style="text-anchor: end; visibility: inherit; font-family: Roboto, sans-serif; font-size: 12px; font-weight: 200;" fill="rgb(33, 33, 33)" stroke="none" stroke-width="1px">0.9</text><text x="0" y="0" dx="0em" dy="0.3em" style="text-anchor: end; visibility: hidden; font-family: Roboto, sans-serif; font-size: 12px; font-weight: 200;" fill="rgb(33, 33, 33)" stroke="none" stroke-width="1px">0.95</text></g><line x1="51.5625" y1="0" x2="51.5625" y2="177" fill="rgb(0, 0, 0)" stroke="rgb(204, 204, 204)" stroke-width="1px"></line></g></g><g transform="translate(51, 0)" clip-path="url(#clip_0)"><clipPath id="clip_0"><rect width="278" height="177"></rect></clipPath><g><g><g><line x1="0" y1="0" x2="0" y2="177" fill="rgb(0, 0, 0)" stroke="rgb(66, 66, 66)" stroke-width="1px" opacity="0.25"></line><line x1="23.203125" y1="0" x2="23.203125" y2="177" fill="rgb(0, 0, 0)" stroke="rgb(66, 66, 66)" stroke-width="1px" opacity="0.25"></line><line x1="46.40625" y1="0" x2="46.40625" y2="177" fill="rgb(0, 0, 0)" stroke="rgb(66, 66, 66)" stroke-width="1px" opacity="0.25"></line><line x1="69.609375" y1="0" x2="69.609375" y2="177" fill="rgb(0, 0, 0)" stroke="rgb(66, 66, 66)" stroke-width="1px" opacity="0.25"></line><line x1="92.8125" y1="0" x2="92.8125" y2="177" fill="rgb(0, 0, 0)" stroke="rgb(66, 66, 66)" stroke-width="1px" opacity="0.25"></line><line x1="116.015625" y1="0" x2="116.015625" y2="177" fill="rgb(0, 0, 0)" stroke="rgb(66, 66, 66)" stroke-width="1px" opacity="0.25"></line><line x1="139.21875" y1="0" x2="139.21875" y2="177" fill="rgb(0, 0, 0)" stroke="rgb(66, 66, 66)" stroke-width="1px" opacity="0.25"></line><line x1="162.421875" y1="0" x2="162.421875" y2="177" fill="rgb(0, 0, 0)" stroke="rgb(66, 66, 66)" stroke-width="1px" opacity="0.25"></line><line x1="185.625" y1="0" x2="185.625" y2="177" fill="rgb(0, 0, 0)" stroke="rgb(66, 66, 66)" stroke-width="1px" opacity="0.25"></line><line x1="208.828125" y1="0" x2="208.828125" y2="177" fill="rgb(0, 0, 0)" stroke="rgb(66, 66, 66)" stroke-width="1px" opacity="0.25"></line><line x1="232.03125" y1="0" x2="232.03125" y2="177" fill="rgb(0, 0, 0)" stroke="rgb(66, 66, 66)" stroke-width="1px" opacity="0.25"></line><line x1="255.234375" y1="0" x2="255.234375" y2="177" fill="rgb(0, 0, 0)" stroke="rgb(66, 66, 66)" stroke-width="1px" opacity="0.25"></line><line x1="278.4375" y1="0" x2="278.4375" y2="177" fill="rgb(0, 0, 0)" stroke="rgb(66, 66, 66)" stroke-width="1px" opacity="0.25"></line></g><g><line x1="0" y1="177" x2="278.4375" y2="177" fill="rgb(0, 0, 0)" stroke="rgb(66, 66, 66)" stroke-width="1px" opacity="0.25"></line><line x1="0" y1="151.7142857142857" x2="278.4375" y2="151.7142857142857" fill="rgb(0, 0, 0)" stroke="rgb(66, 66, 66)" stroke-width="1px" opacity="0.25"></line><line x1="0" y1="126.42857142857144" x2="278.4375" y2="126.42857142857144" fill="rgb(0, 0, 0)" stroke="rgb(66, 66, 66)" stroke-width="1px" opacity="0.25"></line><line x1="0" y1="101.14285714285714" x2="278.4375" y2="101.14285714285714" fill="rgb(0, 0, 0)" stroke="rgb(66, 66, 66)" stroke-width="1px" opacity="0.25"></line><line x1="0" y1="75.85714285714282" x2="278.4375" y2="75.85714285714282" fill="rgb(0, 0, 0)" stroke="rgb(66, 66, 66)" stroke-width="1px" opacity="0.25"></line><line x1="0" y1="50.57142857142857" x2="278.4375" y2="50.57142857142857" fill="rgb(0, 0, 0)" stroke="rgb(66, 66, 66)" stroke-width="1px" opacity="0.25"></line><line x1="0" y1="25.285714285714256" x2="278.4375" y2="25.285714285714256" fill="rgb(0, 0, 0)" stroke="rgb(66, 66, 66)" stroke-width="1px" opacity="0.25"></line><line x1="0" y1="0" x2="278.4375" y2="0" fill="rgb(0, 0, 0)" stroke="rgb(66, 66, 66)" stroke-width="1px" opacity="0.25"></line></g></g></g><g><g><line x1="0" y1="480.42857142857144" x2="278.4375" y2="480.42857142857144" fill="rgb(0, 0, 0)" stroke="rgb(153, 153, 153)" stroke-width="1.5px"></line></g></g><g><g><line x1="23.203125" y1="0" x2="23.203125" y2="177" fill="rgb(0, 0, 0)" stroke="rgb(153, 153, 153)" stroke-width="1.5px"></line></g></g><g><g><g><g><g><path stroke="rgb(255, 112, 67)" stroke-width="2px" d="M34.8046875,-32.08361617240652L35.96484375000001,21.187030587581262L37.125,80.0140859628212L38.28515625,112.65235182395209L39.4453125,133.20313054582505L40.60546875,142.7017998931774L41.765625,152.12303752841098L42.92578125,160.03258783319876L44.0859375,145.9889657535857L45.24609375,147.8321913705745L46.40625,154.45414569894714L47.56640625,159.5415594976353L48.7265625,159.16603832873557L49.88671875,159.11514916254086L51.04687499999999,160.09648237955045L52.20703125,163.35783059386705L53.36718750000001,164.8644905049808L54.52734375,162.24237443155994L55.6875,161.98350744020507L56.84765625,164.84609764532797L58.0078125,163.2801941100698L59.16796875,161.3895223753371L60.328125,162.5007551832146L61.48828125,163.7094524880854L62.6484375,161.1275100893336L63.80859375,160.10699124375063L64.96875,161.7123066783966L66.12890625,164.74527765351968L67.2890625,161.81856305472024L68.44921875,161.99954248324232L69.609375,162.66635291153463L70.76953125,163.34117380146944L71.92968750000001,165.19316765631947L73.08984375,165.82026866757238L74.25,171.13730357959045L75.41015625,172.01823922585314L76.5703125,172.2119851113645L77.73046875,168.50357833583627L78.890625,166.620125901279L80.05078125,165.75473339565335L81.2109375,167.32922514035795L82.37109375,166.2645328302685L83.53125,164.18276378951595L84.69140624999999,164.58431662669832L85.8515625,160.19694759407392L87.01171875,159.77602784098124L88.171875,164.78271627581864L89.33203125000001,162.9088452212272L90.4921875,161.0688693733367L91.65234375,165.08527380295735L92.8125,164.38585011148197L93.97265625,165.47775483802917L95.1328125,165.47596286767873L96.29296875,164.58521336252267L97.453125,162.36488218098313L98.61328125,161.2850641156316L99.7734375,162.64050793490716L100.93359375,161.93373909583545L102.09374999999999,164.9786818103586L103.25390625,163.26106909118508L104.4140625,164.8964136791373L105.57421875,166.11476081494789L106.73437500000001,165.10972979851283L107.89453125,165.10143100731202L109.0546875,163.7195472449817L110.21484375,162.78145635907396L111.375,161.13105731818658L112.53515625,164.29810535507121L113.6953125,162.40606542415023L114.85546875,164.2756324528849L116.015625,169.79646663865336L117.17578125,168.13952089974384L118.3359375,167.04706342169533L119.49609374999999,164.73804478138024L120.65625,164.9420336161557L121.81640625,165.5020177204398L122.9765625,164.69311978197874L124.13671875000001,166.52067141229548L125.296875,166.6728488100107L126.45703125,171.833977423802L127.6171875,169.6344590850272L128.77734375,166.10706853758595L129.9375,166.50266079156663L131.09765625,164.3659476794034L132.2578125,159.8383592341679L133.41796875,160.8089484710384L134.578125,163.0408914154957L135.73828125,162.89902699047607L136.8984375,164.56954053161826L138.05859375,165.4162267870801L139.21875,158.8866624098989L140.37890625,162.79471316706972L141.5390625,163.2126755232495L142.69921875,163.29628030065274L143.85937500000003,160.82566308057736L145.01953125,162.68475604188018L146.1796875,163.5203167173871L147.33984375,164.78115825836372L148.5,162.74699544471633L149.66015625,162.83754599174L150.8203125,164.12279261568693L151.98046874999997,166.91082750553448L153.140625,166.69775059867067L154.30078125,166.50472340357058L155.4609375,166.3820103863327L156.62109375,169.318297859738L157.78125,168.2481429761621L158.94140625,168.7954293974962L160.1015625,164.95064655560327L161.26171875000003,164.80410789534577L162.421875,162.9777580819776L163.58203125,164.2834828875384L164.7421875,164.4047983822946L165.90234375,163.26097118483327L167.0625,166.21364878363644L168.22265625,165.4102421140932L169.38281249999997,161.7752486429371L170.54296875,161.814664473979L171.703125,163.30845654146484L172.86328125,165.0283087091414L174.0234375,168.42558319889966L175.18359375,165.2441827745644L176.34375,165.2962600609222L177.50390625,161.59150848340914L178.66406250000003,163.713168705245L179.82421875,165.57044314939478L180.984375,167.1659852821409L182.14453125,166.98891189704156L183.3046875,166.54024429071694L184.46484375,162.69184924929587L185.625,162.89819069963244L186.78515624999997,164.8226612890029L187.9453125,164.9208342840829L189.10546875,168.4521783920178L190.265625,167.85206932616524L191.42578125,168.98897365463296L192.5859375,165.86241357848274L193.74609375,165.0857777810749L194.90625,161.32218492981875L196.06640625000003,162.65047005474534L197.2265625,163.36609141623953L198.38671875,163.404775813794L199.546875,164.6582396038116L200.70703125,162.91934311095463L201.8671875,164.60969077682932L203.02734375,165.92343560453403L204.18749999999997,163.9711122965583L205.34765625,164.66345507749813L206.5078125,163.554786464097L207.66796875,163.15556642529396L208.828125,166.61391964283942L209.98828125,165.4719223695921L211.1484375,165.0931569340015L212.30859375,170.30995023263603L213.46875000000003,166.23569944593885L214.62890625,165.07110177249146L215.7890625,166.42130215116316L216.94921875,166.75067897016308L218.109375,167.24499579806113L219.26953125,169.28038628422607L220.4296875,168.1168694603986L221.58984374999997,168.28639318568221L222.75,166.8809855172966L223.91015625,165.38468851812857L225.0703125,166.27826790398973L226.23046875,164.62327842602247L227.390625,163.47215497904486L228.55078125,163.56426843821512L229.7109375,162.99662703593847L230.87109375000003,162.02571755838557L232.03125,162.78895680848626L233.19140625,167.5180195444031L234.3515625,168.26590171807513L235.51171875,169.32339744182528L236.671875,168.26315137904433L237.83203125,168.33771351757287L238.99218749999997,170.82901901728636L240.15234375,170.7915773894847L241.3125,166.90129344416707L242.47265625,166.79634878062467L243.6328125,164.32010360714605L244.79296875,166.58359322300777L245.953125,169.08667185090147L247.11328125,167.40643943997378L248.27343750000003,165.07437470262823L249.43359375,164.9408973718873L250.59375,162.0526723985701L251.75390625,160.8826142521739L252.9140625,163.87417225330455L254.07421875,166.99652892353336L255.234375,167.11340644190602" style="fill: none;" fill="none"></path></g></g></g></g><g opacity="0.2"><g><g><g><path stroke="rgb(255, 112, 67)" stroke-width="2px" d="M33.64453125,-78.82074655805319L34.8046875,161.76810714176722L35.96484375000001,100.60983988216944L37.125,167.93453478813169L38.28515625,161.50318101474215L39.4453125,163.98903751373288L40.60546875,156.9386385849544L41.765625,166.24824939455303L42.92578125,171.89356623377117L44.0859375,124.92709830829074L45.24609375,150.5967489991869L46.40625,164.386471918651L47.56640625,167.17240118980405L48.7265625,158.60276893207003L49.88671875,159.03881641796656L51.04687499999999,161.56847058023723L52.20703125,168.2498297350747L53.36718750000001,167.1244739464351L54.52734375,158.30920703070504L55.6875,161.59520735059465L56.84765625,169.13998031616208L58.0078125,160.93133967263356L59.16796875,158.55351540020533L60.328125,164.16760417393274L61.48828125,165.5224983010973L62.6484375,157.25459667614527L63.80859375,158.57621301923479L64.96875,164.12027978897092L66.12890625,169.29473406927926L67.2890625,157.42849118368966L68.44921875,162.27101162501742L69.609375,163.66656855174472L70.76953125,164.35340513501848L71.92968750000001,167.97115843636647L73.08984375,166.7609201839992L74.25,179.11285594531466L75.41015625,173.3396426950182L76.5703125,172.50260393960133L77.73046875,162.9409681728908L78.890625,163.79494724954876L80.05078125,164.45664463724407L81.2109375,169.69096275738306L82.37109375,164.66749436514718L83.53125,161.06011022840227L84.69140624999999,165.18664588247026L85.8515625,153.61589404514856L87.01171875,159.14464821134294L88.171875,172.29274892807004L89.33203125000001,160.09803863934107L90.4921875,158.30890560150144L91.65234375,171.10988044738767L92.8125,163.33671457426888L93.97265625,167.1156119278499L95.1328125,165.47327491215296L96.29296875,163.24908910478862L97.453125,159.03438540867396L98.61328125,159.66533701760426L99.7734375,164.67367366382052L100.93359375,160.87358583722795L102.09374999999999,169.54609588214328L103.25390625,160.684650012425L104.4140625,167.34943056106565L105.57421875,167.94228151866366L106.73437500000001,163.60218327386036L107.89453125,165.08898282051084L109.0546875,161.64672160148618L110.21484375,161.37432003021237L111.375,158.65545875685555L112.53515625,169.0486774103982L113.6953125,159.5680055277688L114.85546875,167.0799829959869L116.015625,178.07771791730607L117.17578125,165.65410229137964L118.3359375,165.40837720462252L119.49609374999999,161.27451682090756L120.65625,165.2480168683188L121.81640625,166.34199387686593L122.9765625,163.4797728742872L124.13671875000001,169.26199885777064L125.296875,166.9011149065835L126.45703125,179.57567034448894L127.6171875,166.33518157686504L128.77734375,160.81598271642412L129.9375,167.09604917253765L131.09765625,161.16087801115853L132.2578125,153.04697656631467L133.41796875,162.26483232634408L134.578125,166.38880583218165L135.73828125,162.68623035294667L136.8984375,167.07531084333147L138.05859375,166.6862561702728L139.21875,149.09231584412709L140.37890625,168.6567893028259L141.5390625,163.8396190575191L142.69921875,163.42168746675762L143.85937500000003,157.11973725046428L145.01953125,165.4733954838344L146.1796875,164.77365773064747L147.33984375,166.67242056982857L148.5,159.69575122424533L149.66015625,162.97337181227547L150.8203125,166.0506625516074L151.98046874999997,171.09287984030587L153.140625,166.37813523837497L154.30078125,166.2151826109205L155.4609375,166.1979408604758L156.62109375,173.722729069846L157.78125,166.64291065079823L158.94140625,169.6163590294974L160.1015625,159.18347229276384L161.26171875000003,164.58429990495952L162.421875,160.23823336192538L163.58203125,166.24207009587968L164.7421875,164.58677162442888L165.90234375,161.54523038864133L167.0625,170.64266518184115L168.22265625,164.20513210977825L169.38281249999997,156.32275843620297L170.54296875,161.8737882205418L171.703125,165.54914464269365L172.86328125,167.6080869606563L174.0234375,173.52149493353707L175.18359375,160.4720821380615L176.34375,165.37437599045887L177.50390625,156.03438111713953L178.66406250000003,166.89565903799874L179.82421875,168.3563548156193L180.984375,169.55929848126002L182.14453125,166.7233018193926L183.3046875,165.86724288122994L184.46484375,156.91925668716428L185.625,163.2077028751373L186.78515624999997,167.70936717305864L187.9453125,165.06809377670285L189.10546875,173.74919455392018L190.265625,166.95190572738645L191.42578125,170.69433014733448L192.5859375,161.17257346425737L193.74609375,163.9208240849631L194.90625,155.67679565293446L196.06640625000003,164.64289774213518L197.2265625,164.4395234584808L198.38671875,163.4628024101257L199.546875,166.53843528883797L200.70703125,160.3109983716692L201.8671875,167.14521227564128L203.02734375,167.8940528460911L204.18749999999997,161.0426273345947L205.34765625,165.7019692489079L206.5078125,161.89178354399544L207.66796875,162.5567363670894L208.828125,171.8014494691576L209.98828125,163.75892645972115L211.1484375,164.52500878061565L212.30859375,178.13514018058777L213.46875000000003,160.1243232658931L214.62890625,163.32420526232036L215.7890625,168.4466027191707L216.94921875,167.2447441986629L218.109375,167.98647103990825L219.26953125,172.33347201347348L220.4296875,166.37159422465731L221.58984374999997,168.5406787736075L222.75,164.77287401471818L223.91015625,163.14024301937647L225.0703125,167.61863698278154L226.23046875,162.14079420907154L227.390625,161.74546980857846L228.55078125,163.70243862697055L229.7109375,162.14516493252344L230.87109375000003,160.56935334205625L232.03125,163.93381568363733L233.19140625,174.61161364827836L234.3515625,169.38772497858318L235.51171875,170.90964102745053L236.671875,166.67278228487285L237.83203125,168.44955672536577L238.99218749999997,174.56597726685658L240.15234375,170.73541494778223L241.3125,161.0658675261906L242.47265625,166.638931785311L243.6328125,160.60573584692818L244.79296875,169.97882764680043L245.953125,172.84128979274203L247.11328125,164.88609082358224L248.27343750000003,161.5762775966099L249.43359375,164.740681375776L250.59375,157.72033493859425L251.75390625,159.12752703257968L252.9140625,168.3615092550005L254.07421875,171.6800639288766L255.234375,167.28872271946497" style="fill: none;" fill="none"></path></g></g></g></g></g><g><g><span fill="rgb(0, 0, 0)" stroke="none" stroke-width="1px">Alt + Scroll to Zoom</span></g></g></g><g transform="translate(51, 177)" clip-path="url(#clip_1)"><clipPath id="clip_1"><rect width="278" height="23"></rect></clipPath><g><g><line x1="0" y1="0" x2="0" y2="5" style="visibility: inherit;" fill="rgb(0, 0, 0)" stroke="rgb(204, 204, 204)" stroke-width="1px"></line><line x1="23.203125" y1="0" x2="23.203125" y2="5" style="visibility: inherit;" fill="rgb(0, 0, 0)" stroke="rgb(204, 204, 204)" stroke-width="1px"></line><line x1="46.40625" y1="0" x2="46.40625" y2="5" style="visibility: inherit;" fill="rgb(0, 0, 0)" stroke="rgb(204, 204, 204)" stroke-width="1px"></line><line x1="69.609375" y1="0" x2="69.609375" y2="5" style="visibility: inherit;" fill="rgb(0, 0, 0)" stroke="rgb(204, 204, 204)" stroke-width="1px"></line><line x1="92.8125" y1="0" x2="92.8125" y2="5" style="visibility: inherit;" fill="rgb(0, 0, 0)" stroke="rgb(204, 204, 204)" stroke-width="1px"></line><line x1="116.015625" y1="0" x2="116.015625" y2="5" style="visibility: inherit;" fill="rgb(0, 0, 0)" stroke="rgb(204, 204, 204)" stroke-width="1px"></line><line x1="139.21875" y1="0" x2="139.21875" y2="5" style="visibility: inherit;" fill="rgb(0, 0, 0)" stroke="rgb(204, 204, 204)" stroke-width="1px"></line><line x1="162.421875" y1="0" x2="162.421875" y2="5" style="visibility: inherit;" fill="rgb(0, 0, 0)" stroke="rgb(204, 204, 204)" stroke-width="1px"></line><line x1="185.625" y1="0" x2="185.625" y2="5" style="visibility: inherit;" fill="rgb(0, 0, 0)" stroke="rgb(204, 204, 204)" stroke-width="1px"></line><line x1="208.828125" y1="0" x2="208.828125" y2="5" style="visibility: inherit;" fill="rgb(0, 0, 0)" stroke="rgb(204, 204, 204)" stroke-width="1px"></line><line x1="232.03125" y1="0" x2="232.03125" y2="5" style="visibility: inherit;" fill="rgb(0, 0, 0)" stroke="rgb(204, 204, 204)" stroke-width="1px"></line><line x1="255.234375" y1="0" x2="255.234375" y2="5" style="visibility: inherit;" fill="rgb(0, 0, 0)" stroke="rgb(204, 204, 204)" stroke-width="1px"></line><line x1="278.4375" y1="0" x2="278.4375" y2="5" style="visibility: inherit;" fill="rgb(0, 0, 0)" stroke="rgb(204, 204, 204)" stroke-width="1px"></line></g><g transform="translate(0, 8)"><text x="0" y="0" dx="0em" dy="0.95em" style="text-anchor: middle; visibility: hidden; font-family: Roboto, sans-serif; font-size: 12px; font-weight: 200;" fill="rgb(33, 33, 33)" stroke="none" stroke-width="1px">-20</text><text x="23.203125" y="0" dx="0em" dy="0.95em" style="text-anchor: middle; visibility: inherit; font-family: Roboto, sans-serif; font-size: 12px; font-weight: 200;" fill="rgb(33, 33, 33)" stroke="none" stroke-width="1px">0</text><text x="46.40625" y="0" dx="0em" dy="0.95em" style="text-anchor: middle; visibility: hidden; font-family: Roboto, sans-serif; font-size: 12px; font-weight: 200;" fill="rgb(33, 33, 33)" stroke="none" stroke-width="1px">20</text><text x="69.609375" y="0" dx="0em" dy="0.95em" style="text-anchor: middle; visibility: inherit; font-family: Roboto, sans-serif; font-size: 12px; font-weight: 200;" fill="rgb(33, 33, 33)" stroke="none" stroke-width="1px">40</text><text x="92.8125" y="0" dx="0em" dy="0.95em" style="text-anchor: middle; visibility: hidden; font-family: Roboto, sans-serif; font-size: 12px; font-weight: 200;" fill="rgb(33, 33, 33)" stroke="none" stroke-width="1px">60</text><text x="116.015625" y="0" dx="0em" dy="0.95em" style="text-anchor: middle; visibility: inherit; font-family: Roboto, sans-serif; font-size: 12px; font-weight: 200;" fill="rgb(33, 33, 33)" stroke="none" stroke-width="1px">80</text><text x="139.21875" y="0" dx="0em" dy="0.95em" style="text-anchor: middle; visibility: hidden; font-family: Roboto, sans-serif; font-size: 12px; font-weight: 200;" fill="rgb(33, 33, 33)" stroke="none" stroke-width="1px">100</text><text x="162.421875" y="0" dx="0em" dy="0.95em" style="text-anchor: middle; visibility: inherit; font-family: Roboto, sans-serif; font-size: 12px; font-weight: 200;" fill="rgb(33, 33, 33)" stroke="none" stroke-width="1px">120</text><text x="185.625" y="0" dx="0em" dy="0.95em" style="text-anchor: middle; visibility: hidden; font-family: Roboto, sans-serif; font-size: 12px; font-weight: 200;" fill="rgb(33, 33, 33)" stroke="none" stroke-width="1px">140</text><text x="208.828125" y="0" dx="0em" dy="0.95em" style="text-anchor: middle; visibility: inherit; font-family: Roboto, sans-serif; font-size: 12px; font-weight: 200;" fill="rgb(33, 33, 33)" stroke="none" stroke-width="1px">160</text><text x="232.03125" y="0" dx="0em" dy="0.95em" style="text-anchor: middle; visibility: hidden; font-family: Roboto, sans-serif; font-size: 12px; font-weight: 200;" fill="rgb(33, 33, 33)" stroke="none" stroke-width="1px">180</text><text x="255.234375" y="0" dx="0em" dy="0.95em" style="text-anchor: middle; visibility: inherit; font-family: Roboto, sans-serif; font-size: 12px; font-weight: 200;" fill="rgb(33, 33, 33)" stroke="none" stroke-width="1px">200</text><text x="278.4375" y="0" dx="0em" dy="0.95em" style="text-anchor: middle; visibility: hidden; font-family: Roboto, sans-serif; font-size: 12px; font-weight: 200;" fill="rgb(33, 33, 33)" stroke="none" stroke-width="1px">220</text></g><line x1="0" y1="0" x2="278.4375" y2="0" fill="rgb(0, 0, 0)" stroke="rgb(204, 204, 204)" stroke-width="1px"></line></g></g></g></g></svg>