<svg viewBox="0 0 330.0000305175781 200.00001525878906" xmlns="http://www.w3.org/2000/svg"><g><g><g><g><g><line x1="51.5625" y1="177" x2="46.5625" y2="177" style="visibility: inherit;" fill="rgb(0, 0, 0)" stroke="rgb(204, 204, 204)" stroke-width="1px"></line><line x1="51.5625" y1="154.87500000000009" x2="46.5625" y2="154.87500000000009" style="visibility: inherit;" fill="rgb(0, 0, 0)" stroke="rgb(204, 204, 204)" stroke-width="1px"></line><line x1="51.5625" y1="132.75000000000003" x2="46.5625" y2="132.75000000000003" style="visibility: inherit;" fill="rgb(0, 0, 0)" stroke="rgb(204, 204, 204)" stroke-width="1px"></line><line x1="51.5625" y1="110.62500000000004" x2="46.5625" y2="110.62500000000004" style="visibility: inherit;" fill="rgb(0, 0, 0)" stroke="rgb(204, 204, 204)" stroke-width="1px"></line><line x1="51.5625" y1="88.5" x2="46.5625" y2="88.5" style="visibility: inherit;" fill="rgb(0, 0, 0)" stroke="rgb(204, 204, 204)" stroke-width="1px"></line><line x1="51.5625" y1="66.37500000000001" x2="46.5625" y2="66.37500000000001" style="visibility: inherit;" fill="rgb(0, 0, 0)" stroke="rgb(204, 204, 204)" stroke-width="1px"></line><line x1="51.5625" y1="44.25" x2="46.5625" y2="44.25" style="visibility: inherit;" fill="rgb(0, 0, 0)" stroke="rgb(204, 204, 204)" stroke-width="1px"></line><line x1="51.5625" y1="22.12500000000002" x2="46.5625" y2="22.12500000000002" style="visibility: inherit;" fill="rgb(0, 0, 0)" stroke="rgb(204, 204, 204)" stroke-width="1px"></line><line x1="51.5625" y1="0" x2="46.5625" y2="0" style="visibility: inherit;" fill="rgb(0, 0, 0)" stroke="rgb(204, 204, 204)" stroke-width="1px"></line></g><g transform="translate(41.5625, 0)"><text x="0" y="177" dx="0em" dy="0.3em" style="text-anchor: end; visibility: hidden; font-family: Roboto, sans-serif; font-size: 12px; font-weight: 200;" fill="rgb(33, 33, 33)" stroke="none" stroke-width="1px">-2.3</text><text x="0" y="154.87500000000009" dx="0em" dy="0.3em" style="text-anchor: end; visibility: inherit; font-family: Roboto, sans-serif; font-size: 12px; font-weight: 200;" fill="rgb(33, 33, 33)" stroke="none" stroke-width="1px">-2.2</text><text x="0" y="132.75000000000003" dx="0em" dy="0.3em" style="text-anchor: end; visibility: hidden; font-family: Roboto, sans-serif; font-size: 12px; font-weight: 200;" fill="rgb(33, 33, 33)" stroke="none" stroke-width="1px">-2.1</text><text x="0" y="110.62500000000004" dx="0em" dy="0.3em" style="text-anchor: end; visibility: inherit; font-family: Roboto, sans-serif; font-size: 12px; font-weight: 200;" fill="rgb(33, 33, 33)" stroke="none" stroke-width="1px">-2</text><text x="0" y="88.5" dx="0em" dy="0.3em" style="text-anchor: end; visibility: hidden; font-family: Roboto, sans-serif; font-size: 12px; font-weight: 200;" fill="rgb(33, 33, 33)" stroke="none" stroke-width="1px">-1.9</text><text x="0" y="66.37500000000001" dx="0em" dy="0.3em" style="text-anchor: end; visibility: inherit; font-family: Roboto, sans-serif; font-size: 12px; font-weight: 200;" fill="rgb(33, 33, 33)" stroke="none" stroke-width="1px">-1.8</text><text x="0" y="44.25" dx="0em" dy="0.3em" style="text-anchor: end; visibility: hidden; font-family: Roboto, sans-serif; font-size: 12px; font-weight: 200;" fill="rgb(33, 33, 33)" stroke="none" stroke-width="1px">-1.7</text><text x="0" y="22.12500000000002" dx="0em" dy="0.3em" style="text-anchor: end; visibility: inherit; font-family: Roboto, sans-serif; font-size: 12px; font-weight: 200;" fill="rgb(33, 33, 33)" stroke="none" stroke-width="1px">-1.6</text><text x="0" y="0" dx="0em" dy="0.3em" style="text-anchor: end; visibility: hidden; font-family: Roboto, sans-serif; font-size: 12px; font-weight: 200;" fill="rgb(33, 33, 33)" stroke="none" stroke-width="1px">-1.5</text></g><line x1="51.5625" y1="0" x2="51.5625" y2="177" fill="rgb(0, 0, 0)" stroke="rgb(204, 204, 204)" stroke-width="1px"></line></g></g><g transform="translate(51, 0)" clip-path="url(#clip_0)"><clipPath id="clip_0"><rect width="278" height="177"></rect></clipPath><g><g><g><line x1="0" y1="0" x2="0" y2="177" fill="rgb(0, 0, 0)" stroke="rgb(66, 66, 66)" stroke-width="1px" opacity="0.25"></line><line x1="23.203125" y1="0" x2="23.203125" y2="177" fill="rgb(0, 0, 0)" stroke="rgb(66, 66, 66)" stroke-width="1px" opacity="0.25"></line><line x1="46.40625" y1="0" x2="46.40625" y2="177" fill="rgb(0, 0, 0)" stroke="rgb(66, 66, 66)" stroke-width="1px" opacity="0.25"></line><line x1="69.609375" y1="0" x2="69.609375" y2="177" fill="rgb(0, 0, 0)" stroke="rgb(66, 66, 66)" stroke-width="1px" opacity="0.25"></line><line x1="92.8125" y1="0" x2="92.8125" y2="177" fill="rgb(0, 0, 0)" stroke="rgb(66, 66, 66)" stroke-width="1px" opacity="0.25"></line><line x1="116.015625" y1="0" x2="116.015625" y2="177" fill="rgb(0, 0, 0)" stroke="rgb(66, 66, 66)" stroke-width="1px" opacity="0.25"></line><line x1="139.21875" y1="0" x2="139.21875" y2="177" fill="rgb(0, 0, 0)" stroke="rgb(66, 66, 66)" stroke-width="1px" opacity="0.25"></line><line x1="162.421875" y1="0" x2="162.421875" y2="177" fill="rgb(0, 0, 0)" stroke="rgb(66, 66, 66)" stroke-width="1px" opacity="0.25"></line><line x1="185.625" y1="0" x2="185.625" y2="177" fill="rgb(0, 0, 0)" stroke="rgb(66, 66, 66)" stroke-width="1px" opacity="0.25"></line><line x1="208.828125" y1="0" x2="208.828125" y2="177" fill="rgb(0, 0, 0)" stroke="rgb(66, 66, 66)" stroke-width="1px" opacity="0.25"></line><line x1="232.03125" y1="0" x2="232.03125" y2="177" fill="rgb(0, 0, 0)" stroke="rgb(66, 66, 66)" stroke-width="1px" opacity="0.25"></line><line x1="255.234375" y1="0" x2="255.234375" y2="177" fill="rgb(0, 0, 0)" stroke="rgb(66, 66, 66)" stroke-width="1px" opacity="0.25"></line><line x1="278.4375" y1="0" x2="278.4375" y2="177" fill="rgb(0, 0, 0)" stroke="rgb(66, 66, 66)" stroke-width="1px" opacity="0.25"></line></g><g><line x1="0" y1="177" x2="278.4375" y2="177" fill="rgb(0, 0, 0)" stroke="rgb(66, 66, 66)" stroke-width="1px" opacity="0.25"></line><line x1="0" y1="154.87500000000009" x2="278.4375" y2="154.87500000000009" fill="rgb(0, 0, 0)" stroke="rgb(66, 66, 66)" stroke-width="1px" opacity="0.25"></line><line x1="0" y1="132.75000000000003" x2="278.4375" y2="132.75000000000003" fill="rgb(0, 0, 0)" stroke="rgb(66, 66, 66)" stroke-width="1px" opacity="0.25"></line><line x1="0" y1="110.62500000000004" x2="278.4375" y2="110.62500000000004" fill="rgb(0, 0, 0)" stroke="rgb(66, 66, 66)" stroke-width="1px" opacity="0.25"></line><line x1="0" y1="88.5" x2="278.4375" y2="88.5" fill="rgb(0, 0, 0)" stroke="rgb(66, 66, 66)" stroke-width="1px" opacity="0.25"></line><line x1="0" y1="66.37500000000001" x2="278.4375" y2="66.37500000000001" fill="rgb(0, 0, 0)" stroke="rgb(66, 66, 66)" stroke-width="1px" opacity="0.25"></line><line x1="0" y1="44.25" x2="278.4375" y2="44.25" fill="rgb(0, 0, 0)" stroke="rgb(66, 66, 66)" stroke-width="1px" opacity="0.25"></line><line x1="0" y1="22.12500000000002" x2="278.4375" y2="22.12500000000002" fill="rgb(0, 0, 0)" stroke="rgb(66, 66, 66)" stroke-width="1px" opacity="0.25"></line><line x1="0" y1="0" x2="278.4375" y2="0" fill="rgb(0, 0, 0)" stroke="rgb(66, 66, 66)" stroke-width="1px" opacity="0.25"></line></g></g></g><g><g><line x1="0" y1="-331.87500000000006" x2="278.4375" y2="-331.87500000000006" fill="rgb(0, 0, 0)" stroke="rgb(153, 153, 153)" stroke-width="1.5px"></line></g></g><g><g><line x1="23.203125" y1="0" x2="23.203125" y2="177" fill="rgb(0, 0, 0)" stroke="rgb(153, 153, 153)" stroke-width="1.5px"></line></g></g><g><g><g><g><g><path stroke="rgb(255, 112, 67)" stroke-width="2px" d="M26.683593750000004,-12.12253427703164L27.84375,74.464701931951L29.00390625,131.28994720331977L30.1640625,166.60202401331563L31.32421875,183.3521233919401L38.28515625,181.80802845786718L39.4453125,174.20074516276338L40.60546875,166.10627776488417L41.765625,160.96340925833027L42.92578125,155.05875164009078L44.0859375,150.48849821981042L45.24609375,147.5023742477651L46.40625,141.98795720388443L47.56640625,135.6324805837442L48.7265625,130.7982814616919L49.88671875,127.7433702675867L51.04687499999999,123.64377709768037L52.20703125,120.21813415631625L53.36718750000001,117.37044661145869L54.52734375,114.87094342532043L55.6875,111.98967470509521L56.84765625,109.43457326790487L58.0078125,105.43587734215835L59.16796875,100.9610698242836L60.328125,99.57896582927764L61.48828125,98.1730287157468L62.6484375,93.93439542326429L63.80859375,92.54339401162433L64.96875,91.05907006065955L66.12890625,88.3234772691762L67.2890625,86.10191258616675L68.44921875,81.56528020579643L69.609375,80.31110426424598L70.76953125,80.27477640291312L71.92968750000001,79.82388918604765L73.08984375,77.40548840099076L74.25,75.78399122289643L75.41015625,75.33159935786685L76.5703125,73.11523600990274L77.73046875,72.68490233762267L78.890625,73.02061562981888L80.05078125,70.18981954598594L81.2109375,68.84277368272753L82.37109375,69.3852127473703L83.53125,67.26165735012574L84.69140624999999,64.85348113349423L85.8515625,65.61144112331554L87.01171875,64.2250800060197L88.171875,62.19939118188334L89.33203125000001,59.980755183468034L90.4921875,58.51251824699011L91.65234375,58.796752178681935L92.8125,57.239125063427025L93.97265625,56.225370878224226L95.1328125,55.8036849583653L96.29296875,55.57764981302429L97.453125,54.72883668013105L98.61328125,52.92203322927766L99.7734375,53.399491583589395L100.93359375,52.04863481240486L102.09374999999999,52.54217733452928L103.25390625,50.46480107015495L104.4140625,50.570065246260974L105.57421875,50.5885549582463L106.73437500000001,49.889094245280106L107.89453125,47.74550200214703L109.0546875,46.436337058011986L110.21484375,46.116727068581746L111.375,45.49518482360757L112.53515625,44.56261245294518L113.6953125,44.802729057574915L114.85546875,44.64648209053556L116.015625,43.996061992873415L117.17578125,43.75178004040102L118.3359375,44.09600844820607L119.49609374999999,45.163944249393154L120.65625,42.672425261164676L121.81640625,41.59665569724143L122.9765625,41.55353692210617L124.13671875000001,39.770411771755846L125.296875,38.849587394131106L126.45703125,37.99095222552591L127.6171875,37.23161196231822L128.77734375,37.96482649755466L129.9375,38.27004198617928L131.09765625,38.90078761808391L132.2578125,37.033631137802104L133.41796875,35.08875807034605L134.578125,34.642094790384974L135.73828125,33.537859868672975L136.8984375,33.65879520873278L138.05859375,35.18791356742412L139.21875,34.7349261585476L140.37890625,34.91444255969536L141.5390625,34.918308532605245L142.69921875,34.8831966378508L143.85937500000003,35.27547936786522L145.01953125,33.394335217173776L146.1796875,31.836790327367677L147.33984375,31.80156837948409L148.5,32.49192870288043L149.66015625,33.20662007706731L150.8203125,31.32535985694744L151.98046874999997,30.912876377024777L153.140625,30.924790233086682L154.30078125,31.934865850037976L155.4609375,30.146425448552755L156.62109375,30.268457163987172L157.78125,29.96341569996926L158.94140625,29.94388451443348L160.1015625,32.01318931738273L161.26171875000003,31.05685443973388L162.421875,29.50481326160339L163.58203125,29.381931249961305L164.7421875,28.19264270345276L165.90234375,26.946747109174183L167.0625,27.97895628504719L168.22265625,28.903145779924227L169.38281249999997,27.84220843896665L170.54296875,29.109566327246434L171.703125,27.151588509269004L172.86328125,24.894517248742215L174.0234375,25.14863591544177L175.18359375,26.21875858993737L176.34375,27.058286408730773L177.50390625,26.58526095160748L178.66406250000003,24.903472795539514L179.82421875,25.19595613149012L180.984375,26.9026763443184L182.14453125,25.300554764511112L183.3046875,24.81946607365727L184.46484375,24.22852307519028L185.625,25.728039264444785L186.78515624999997,26.086300742485708L187.9453125,24.718849260722752L189.10546875,24.37347751803106L190.265625,24.7288766023332L191.42578125,24.445115060616402L192.5859375,24.72475327909518L193.74609375,22.514234172466548L194.90625,22.107905737854928L196.06640625000003,23.575153465448555L197.2265625,23.775310525523885L198.38671875,23.303443020121634L199.546875,22.093914524040446L200.70703125,21.795631572796005L201.8671875,22.777902737374923L203.02734375,23.183695051143065L204.18749999999997,23.014970524948513L205.34765625,23.63394361963372L206.5078125,23.08263309139312L207.66796875,23.0670181354183L208.828125,22.027777102011328L209.98828125,21.260593930731947L211.1484375,20.59083443871181L212.30859375,19.18570328945538L213.46875000000003,18.871222908464812L214.62890625,19.047438845138416L215.7890625,19.11558922833244L216.94921875,19.765606085694074L218.109375,18.003538286826775L219.26953125,18.775681994045794L220.4296875,17.009221042206857L221.58984374999997,16.65235574544132L222.75,16.268887612227545L223.91015625,17.45721500694983L225.0703125,18.226727912308135L226.23046875,18.986558180738303L227.390625,18.065752304606924L228.55078125,18.83709610522588L229.7109375,17.784644907836874L230.87109375000003,15.480900732353167L232.03125,15.547446565434258L233.19140625,15.184711370828705L234.3515625,18.016691299654777L235.51171875,17.249505634532987L236.671875,16.433004388467463L237.83203125,15.257067352089898L238.99218749999997,14.33448062512492L240.15234375,14.340733862955659L241.3125,14.98963020863493L242.47265625,15.892437592878121L243.6328125,14.583131191572077L244.79296875,14.953376124763784L245.953125,14.27471999553698L247.11328125,14.021050239967433L248.27343750000003,13.34608424029777L249.43359375,14.411724974644365L250.59375,13.104630333144756L251.75390625,12.270883394455508L252.9140625,12.491813643679402L254.07421875,13.317170646134285L255.234375,12.573780600037159" style="fill: none;" fill="none"></path></g></g></g></g><g opacity="0.2"><g><g><g><path stroke="rgb(255, 112, 67)" stroke-width="2px" d="M24.36328125,-409.8769116774202L25.523437499999996,26.60984605550766L26.683593750000004,107.8296133875847L27.84375,176.29129171371463L29.00390625,205.48098742961886L37.125,183.30193966627124L38.28515625,174.39223498106006L39.4453125,162.8047236800194L40.60546875,153.97409141063693L41.765625,153.25273364782336L42.92578125,146.20426386594775L44.0859375,143.63427847623828L45.24609375,143.02364319562915L46.40625,133.71683567762378L47.56640625,126.09961420297627L48.7265625,123.5471418499947L49.88671875,123.16106379032139L51.04687499999999,117.49443590641026L52.20703125,115.07969409227375L53.36718750000001,113.09892743825917L54.52734375,111.12169504165654L55.6875,107.66777604818346L56.84765625,105.60192346572877L58.0078125,99.43783566355707L59.16796875,94.24886003136636L60.328125,97.50581011176111L61.48828125,96.06412321329118L62.6484375,87.57644578814508L63.80859375,90.45689195394517L64.96875,88.83258417248727L66.12890625,84.22008812427522L67.2890625,82.7695655822754L68.44921875,74.76033166050912L69.609375,78.42984035611154L70.76953125,80.22028461098672L71.92968750000001,79.1475583612919L73.08984375,73.77788722515108L74.25,73.35174545645715L75.41015625,74.65301156044008L76.5703125,69.79069098830225L77.73046875,72.03940182924272L78.890625,73.52418556809427L80.05078125,65.94362542033197L81.2109375,66.82220488786699L82.37109375,70.19887134432794L83.53125,64.07632425427438L84.69140624999999,61.24121680855753L85.8515625,66.74838110804559L87.01171875,62.145538330078146L88.171875,59.16085794568064L89.33203125000001,56.65280118584635L90.4921875,56.31016284227373L91.65234375,59.22310307621958L92.8125,54.90268439054491L93.97265625,54.70473960042002L95.1328125,55.17115607857706L96.29296875,55.238597095012686L97.453125,53.45561698079111L98.61328125,50.21182805299761L99.7734375,54.11567911505701L100.93359375,50.022349655628226L102.09374999999999,53.28249111771586L103.25390625,47.34873667359354L104.4140625,50.72796151041987L105.57421875,50.61628952622416L106.73437500000001,48.83990317583086L107.89453125,44.53011363744738L109.0546875,44.472589641809485L110.21484375,45.63731208443644L111.375,44.56287145614626L112.53515625,43.163753896951675L113.6953125,45.16290396451952L114.85546875,44.41211163997652L116.015625,43.020431846380234L117.17578125,43.38535711169243L118.3359375,44.61235105991366L119.49609374999999,46.765847951173804L120.65625,38.935146778821945L121.81640625,39.983001351356506L122.9765625,41.48885875940323L124.13671875000001,37.095724046230316L125.296875,37.46835082769394L126.45703125,36.7029994726181L127.6171875,36.09260156750679L128.77734375,39.06464830040932L129.9375,38.72786521911621L131.09765625,39.84690606594086L132.2578125,34.23289641737938L133.41796875,32.17144846916199L134.578125,33.972099870443344L135.73828125,31.881507486104965L136.8984375,33.84019821882248L138.05859375,37.48159110546112L139.21875,34.05544504523277L140.37890625,35.18371716141701L141.5390625,34.92410749197006L142.69921875,34.83052879571915L143.85937500000003,35.86390346288681L145.01953125,30.57261899113655L146.1796875,29.500472992658615L147.33984375,31.748735457658768L148.5,33.52746918797493L149.66015625,34.278657138347626L150.8203125,28.50346952676773L151.98046874999997,30.294151157140732L153.140625,30.94266101717949L154.30078125,33.44997927546501L155.4609375,27.46376484632492L156.62109375,30.451504737138748L157.78125,29.50585350394249L158.94140625,29.91458773612976L160.1015625,35.11714652180672L161.26171875000003,29.622352123260498L162.421875,27.176751494407654L163.58203125,29.19760823249817L164.7421875,26.40870988368988L165.90234375,25.07790371775627L167.0625,29.527270048856735L168.22265625,30.289430022239685L169.38281249999997,26.25080242753029L170.54296875,31.01060315966606L171.703125,24.214621782302856L172.86328125,21.508910357952118L174.0234375,25.529813915491104L175.18359375,27.823942601680756L176.34375,28.31757813692093L177.50390625,25.875722765922546L178.66406250000003,22.380790561437607L179.82421875,25.63468113541603L180.984375,29.462756663560867L182.14453125,22.897372394800186L183.3046875,24.097833037376404L184.46484375,23.342108577489853L185.625,27.977313548326492L186.78515624999997,26.623692959547043L187.9453125,22.667672038078308L189.10546875,23.855419903993607L190.265625,25.26197522878647L191.42578125,24.019472748041153L192.5859375,25.14421060681343L193.74609375,19.19845551252365L194.90625,21.4984130859375L196.06640625000003,25.77602505683899L197.2265625,24.075546115636826L198.38671875,22.595641762018204L199.546875,20.27962177991867L200.70703125,21.348207145929337L201.8671875,24.251309484243393L203.02734375,23.792383521795273L204.18749999999997,22.76188373565674L205.34765625,24.56240326166153L206.5078125,22.25566729903221L207.66796875,23.04359570145607L208.828125,20.468915551900864L209.98828125,20.109819173812866L211.1484375,19.586195200681686L212.30859375,17.07800656557083L213.46875000000003,18.399502336978912L214.62890625,19.311762750148773L215.7890625,19.217814803123474L216.94921875,20.740631371736526L218.109375,15.360436588525772L219.26953125,19.93389755487442L220.4296875,14.359529614448547L221.58984374999997,16.11705780029297L222.75,15.693685412406921L223.91015625,19.239706099033356L225.0703125,19.380997270345688L226.23046875,20.12630358338356L227.390625,16.68454349040985L228.55078125,19.99411180615425L229.7109375,16.205968111753464L230.87109375000003,12.025284469127655L232.03125,15.647265315055847L233.19140625,14.640608578920364L234.3515625,22.264661192893982L235.51171875,16.098727136850357L236.671875,15.208252519369125L237.83203125,13.493161797523499L238.99218749999997,12.950600534677505L240.15234375,14.350113719701767L241.3125,15.962974727153778L242.47265625,17.24664866924286L243.6328125,12.61917158961296L244.79296875,15.508743524551392L245.953125,13.256735801696777L247.11328125,13.64054560661316L248.27343750000003,12.333635240793228L249.43359375,16.010186076164246L250.59375,11.143988370895386L251.75390625,11.020262986421585L252.9140625,12.823209017515182L254.07421875,14.555206149816513L255.234375,11.458695530891418" style="fill: none;" fill="none"></path></g></g></g></g></g><g><g><span fill="rgb(0, 0, 0)" stroke="none" stroke-width="1px">Alt + Scroll to Zoom</span></g></g></g><g transform="translate(51, 177)" clip-path="url(#clip_1)"><clipPath id="clip_1"><rect width="278" height="23"></rect></clipPath><g><g><line x1="0" y1="0" x2="0" y2="5" style="visibility: inherit;" fill="rgb(0, 0, 0)" stroke="rgb(204, 204, 204)" stroke-width="1px"></line><line x1="23.203125" y1="0" x2="23.203125" y2="5" style="visibility: inherit;" fill="rgb(0, 0, 0)" stroke="rgb(204, 204, 204)" stroke-width="1px"></line><line x1="46.40625" y1="0" x2="46.40625" y2="5" style="visibility: inherit;" fill="rgb(0, 0, 0)" stroke="rgb(204, 204, 204)" stroke-width="1px"></line><line x1="69.609375" y1="0" x2="69.609375" y2="5" style="visibility: inherit;" fill="rgb(0, 0, 0)" stroke="rgb(204, 204, 204)" stroke-width="1px"></line><line x1="92.8125" y1="0" x2="92.8125" y2="5" style="visibility: inherit;" fill="rgb(0, 0, 0)" stroke="rgb(204, 204, 204)" stroke-width="1px"></line><line x1="116.015625" y1="0" x2="116.015625" y2="5" style="visibility: inherit;" fill="rgb(0, 0, 0)" stroke="rgb(204, 204, 204)" stroke-width="1px"></line><line x1="139.21875" y1="0" x2="139.21875" y2="5" style="visibility: inherit;" fill="rgb(0, 0, 0)" stroke="rgb(204, 204, 204)" stroke-width="1px"></line><line x1="162.421875" y1="0" x2="162.421875" y2="5" style="visibility: inherit;" fill="rgb(0, 0, 0)" stroke="rgb(204, 204, 204)" stroke-width="1px"></line><line x1="185.625" y1="0" x2="185.625" y2="5" style="visibility: inherit;" fill="rgb(0, 0, 0)" stroke="rgb(204, 204, 204)" stroke-width="1px"></line><line x1="208.828125" y1="0" x2="208.828125" y2="5" style="visibility: inherit;" fill="rgb(0, 0, 0)" stroke="rgb(204, 204, 204)" stroke-width="1px"></line><line x1="232.03125" y1="0" x2="232.03125" y2="5" style="visibility: inherit;" fill="rgb(0, 0, 0)" stroke="rgb(204, 204, 204)" stroke-width="1px"></line><line x1="255.234375" y1="0" x2="255.234375" y2="5" style="visibility: inherit;" fill="rgb(0, 0, 0)" stroke="rgb(204, 204, 204)" stroke-width="1px"></line><line x1="278.4375" y1="0" x2="278.4375" y2="5" style="visibility: inherit;" fill="rgb(0, 0, 0)" stroke="rgb(204, 204, 204)" stroke-width="1px"></line></g><g transform="translate(0, 8)"><text x="0" y="0" dx="0em" dy="0.95em" style="text-anchor: middle; visibility: hidden; font-family: Roboto, sans-serif; font-size: 12px; font-weight: 200;" fill="rgb(33, 33, 33)" stroke="none" stroke-width="1px">-20</text><text x="23.203125" y="0" dx="0em" dy="0.95em" style="text-anchor: middle; visibility: inherit; font-family: Roboto, sans-serif; font-size: 12px; font-weight: 200;" fill="rgb(33, 33, 33)" stroke="none" stroke-width="1px">0</text><text x="46.40625" y="0" dx="0em" dy="0.95em" style="text-anchor: middle; visibility: hidden; font-family: Roboto, sans-serif; font-size: 12px; font-weight: 200;" fill="rgb(33, 33, 33)" stroke="none" stroke-width="1px">20</text><text x="69.609375" y="0" dx="0em" dy="0.95em" style="text-anchor: middle; visibility: inherit; font-family: Roboto, sans-serif; font-size: 12px; font-weight: 200;" fill="rgb(33, 33, 33)" stroke="none" stroke-width="1px">40</text><text x="92.8125" y="0" dx="0em" dy="0.95em" style="text-anchor: middle; visibility: hidden; font-family: Roboto, sans-serif; font-size: 12px; font-weight: 200;" fill="rgb(33, 33, 33)" stroke="none" stroke-width="1px">60</text><text x="116.015625" y="0" dx="0em" dy="0.95em" style="text-anchor: middle; visibility: inherit; font-family: Roboto, sans-serif; font-size: 12px; font-weight: 200;" fill="rgb(33, 33, 33)" stroke="none" stroke-width="1px">80</text><text x="139.21875" y="0" dx="0em" dy="0.95em" style="text-anchor: middle; visibility: hidden; font-family: Roboto, sans-serif; font-size: 12px; font-weight: 200;" fill="rgb(33, 33, 33)" stroke="none" stroke-width="1px">100</text><text x="162.421875" y="0" dx="0em" dy="0.95em" style="text-anchor: middle; visibility: inherit; font-family: Roboto, sans-serif; font-size: 12px; font-weight: 200;" fill="rgb(33, 33, 33)" stroke="none" stroke-width="1px">120</text><text x="185.625" y="0" dx="0em" dy="0.95em" style="text-anchor: middle; visibility: hidden; font-family: Roboto, sans-serif; font-size: 12px; font-weight: 200;" fill="rgb(33, 33, 33)" stroke="none" stroke-width="1px">140</text><text x="208.828125" y="0" dx="0em" dy="0.95em" style="text-anchor: middle; visibility: inherit; font-family: Roboto, sans-serif; font-size: 12px; font-weight: 200;" fill="rgb(33, 33, 33)" stroke="none" stroke-width="1px">160</text><text x="232.03125" y="0" dx="0em" dy="0.95em" style="text-anchor: middle; visibility: hidden; font-family: Roboto, sans-serif; font-size: 12px; font-weight: 200;" fill="rgb(33, 33, 33)" stroke="none" stroke-width="1px">180</text><text x="255.234375" y="0" dx="0em" dy="0.95em" style="text-anchor: middle; visibility: inherit; font-family: Roboto, sans-serif; font-size: 12px; font-weight: 200;" fill="rgb(33, 33, 33)" stroke="none" stroke-width="1px">200</text><text x="278.4375" y="0" dx="0em" dy="0.95em" style="text-anchor: middle; visibility: hidden; font-family: Roboto, sans-serif; font-size: 12px; font-weight: 200;" fill="rgb(33, 33, 33)" stroke="none" stroke-width="1px">220</text></g><line x1="0" y1="0" x2="278.4375" y2="0" fill="rgb(0, 0, 0)" stroke="rgb(204, 204, 204)" stroke-width="1px"></line></g></g></g></g></svg>