<svg viewBox="0 0 329.9884338378906 199.98843383789062" xmlns="http://www.w3.org/2000/svg"><g><g><g><g><g><line x1="41.171875" y1="176.988" x2="36.171875" y2="176.988" style="visibility: inherit;" fill="rgb(0, 0, 0)" stroke="rgb(204, 204, 204)" stroke-width="1px"></line><line x1="41.171875" y1="159.2892" x2="36.171875" y2="159.2892" style="visibility: inherit;" fill="rgb(0, 0, 0)" stroke="rgb(204, 204, 204)" stroke-width="1px"></line><line x1="41.171875" y1="141.59040000000002" x2="36.171875" y2="141.59040000000002" style="visibility: inherit;" fill="rgb(0, 0, 0)" stroke="rgb(204, 204, 204)" stroke-width="1px"></line><line x1="41.171875" y1="123.8916" x2="36.171875" y2="123.8916" style="visibility: inherit;" fill="rgb(0, 0, 0)" stroke="rgb(204, 204, 204)" stroke-width="1px"></line><line x1="41.171875" y1="106.19279999999999" x2="36.171875" y2="106.19279999999999" style="visibility: inherit;" fill="rgb(0, 0, 0)" stroke="rgb(204, 204, 204)" stroke-width="1px"></line><line x1="41.171875" y1="88.494" x2="36.171875" y2="88.494" style="visibility: inherit;" fill="rgb(0, 0, 0)" stroke="rgb(204, 204, 204)" stroke-width="1px"></line><line x1="41.171875" y1="70.79519999999998" x2="36.171875" y2="70.79519999999998" style="visibility: inherit;" fill="rgb(0, 0, 0)" stroke="rgb(204, 204, 204)" stroke-width="1px"></line><line x1="41.171875" y1="53.09640000000001" x2="36.171875" y2="53.09640000000001" style="visibility: inherit;" fill="rgb(0, 0, 0)" stroke="rgb(204, 204, 204)" stroke-width="1px"></line><line x1="41.171875" y1="35.39759999999999" x2="36.171875" y2="35.39759999999999" style="visibility: inherit;" fill="rgb(0, 0, 0)" stroke="rgb(204, 204, 204)" stroke-width="1px"></line><line x1="41.171875" y1="17.698800000000016" x2="36.171875" y2="17.698800000000016" style="visibility: inherit;" fill="rgb(0, 0, 0)" stroke="rgb(204, 204, 204)" stroke-width="1px"></line><line x1="41.171875" y1="0" x2="36.171875" y2="0" style="visibility: inherit;" fill="rgb(0, 0, 0)" stroke="rgb(204, 204, 204)" stroke-width="1px"></line></g><g transform="translate(31.171875, 0)"><text x="0" y="176.988" dx="0em" dy="0.3em" style="text-anchor: end; visibility: hidden; font-family: Roboto, sans-serif; font-size: 12px; font-weight: 200;" fill="rgb(33, 33, 33)" stroke="none" stroke-width="1px">0.5</text><text x="0" y="159.2892" dx="0em" dy="0.3em" style="text-anchor: end; visibility: inherit; font-family: Roboto, sans-serif; font-size: 12px; font-weight: 200;" fill="rgb(33, 33, 33)" stroke="none" stroke-width="1px">0.6</text><text x="0" y="141.59040000000002" dx="0em" dy="0.3em" style="text-anchor: end; visibility: hidden; font-family: Roboto, sans-serif; font-size: 12px; font-weight: 200;" fill="rgb(33, 33, 33)" stroke="none" stroke-width="1px">0.7</text><text x="0" y="123.8916" dx="0em" dy="0.3em" style="text-anchor: end; visibility: inherit; font-family: Roboto, sans-serif; font-size: 12px; font-weight: 200;" fill="rgb(33, 33, 33)" stroke="none" stroke-width="1px">0.8</text><text x="0" y="106.19279999999999" dx="0em" dy="0.3em" style="text-anchor: end; visibility: hidden; font-family: Roboto, sans-serif; font-size: 12px; font-weight: 200;" fill="rgb(33, 33, 33)" stroke="none" stroke-width="1px">0.9</text><text x="0" y="88.494" dx="0em" dy="0.3em" style="text-anchor: end; visibility: inherit; font-family: Roboto, sans-serif; font-size: 12px; font-weight: 200;" fill="rgb(33, 33, 33)" stroke="none" stroke-width="1px">1</text><text x="0" y="70.79519999999998" dx="0em" dy="0.3em" style="text-anchor: end; visibility: hidden; font-family: Roboto, sans-serif; font-size: 12px; font-weight: 200;" fill="rgb(33, 33, 33)" stroke="none" stroke-width="1px">1.1</text><text x="0" y="53.09640000000001" dx="0em" dy="0.3em" style="text-anchor: end; visibility: inherit; font-family: Roboto, sans-serif; font-size: 12px; font-weight: 200;" fill="rgb(33, 33, 33)" stroke="none" stroke-width="1px">1.2</text><text x="0" y="35.39759999999999" dx="0em" dy="0.3em" style="text-anchor: end; visibility: hidden; font-family: Roboto, sans-serif; font-size: 12px; font-weight: 200;" fill="rgb(33, 33, 33)" stroke="none" stroke-width="1px">1.3</text><text x="0" y="17.698800000000016" dx="0em" dy="0.3em" style="text-anchor: end; visibility: inherit; font-family: Roboto, sans-serif; font-size: 12px; font-weight: 200;" fill="rgb(33, 33, 33)" stroke="none" stroke-width="1px">1.4</text><text x="0" y="0" dx="0em" dy="0.3em" style="text-anchor: end; visibility: hidden; font-family: Roboto, sans-serif; font-size: 12px; font-weight: 200;" fill="rgb(33, 33, 33)" stroke="none" stroke-width="1px">1.5</text></g><line x1="41.171875" y1="0" x2="41.171875" y2="176.988" fill="rgb(0, 0, 0)" stroke="rgb(204, 204, 204)" stroke-width="1px"></line></g></g><g transform="translate(41, 0)" clip-path="url(#clip_0)"><clipPath id="clip_0"><rect width="288" height="176"></rect></clipPath><g><g><g><line x1="0" y1="0" x2="0" y2="176.988" fill="rgb(0, 0, 0)" stroke="rgb(66, 66, 66)" stroke-width="1px" opacity="0.25"></line><line x1="22.216625" y1="0" x2="22.216625" y2="176.988" fill="rgb(0, 0, 0)" stroke="rgb(66, 66, 66)" stroke-width="1px" opacity="0.25"></line><line x1="44.43325" y1="0" x2="44.43325" y2="176.988" fill="rgb(0, 0, 0)" stroke="rgb(66, 66, 66)" stroke-width="1px" opacity="0.25"></line><line x1="66.64987500000001" y1="0" x2="66.64987500000001" y2="176.988" fill="rgb(0, 0, 0)" stroke="rgb(66, 66, 66)" stroke-width="1px" opacity="0.25"></line><line x1="88.8665" y1="0" x2="88.8665" y2="176.988" fill="rgb(0, 0, 0)" stroke="rgb(66, 66, 66)" stroke-width="1px" opacity="0.25"></line><line x1="111.08312500000001" y1="0" x2="111.08312500000001" y2="176.988" fill="rgb(0, 0, 0)" stroke="rgb(66, 66, 66)" stroke-width="1px" opacity="0.25"></line><line x1="133.29975000000002" y1="0" x2="133.29975000000002" y2="176.988" fill="rgb(0, 0, 0)" stroke="rgb(66, 66, 66)" stroke-width="1px" opacity="0.25"></line><line x1="155.51637499999998" y1="0" x2="155.51637499999998" y2="176.988" fill="rgb(0, 0, 0)" stroke="rgb(66, 66, 66)" stroke-width="1px" opacity="0.25"></line><line x1="177.733" y1="0" x2="177.733" y2="176.988" fill="rgb(0, 0, 0)" stroke="rgb(66, 66, 66)" stroke-width="1px" opacity="0.25"></line><line x1="199.949625" y1="0" x2="199.949625" y2="176.988" fill="rgb(0, 0, 0)" stroke="rgb(66, 66, 66)" stroke-width="1px" opacity="0.25"></line><line x1="222.16625000000002" y1="0" x2="222.16625000000002" y2="176.988" fill="rgb(0, 0, 0)" stroke="rgb(66, 66, 66)" stroke-width="1px" opacity="0.25"></line><line x1="244.38287499999998" y1="0" x2="244.38287499999998" y2="176.988" fill="rgb(0, 0, 0)" stroke="rgb(66, 66, 66)" stroke-width="1px" opacity="0.25"></line><line x1="266.59950000000003" y1="0" x2="266.59950000000003" y2="176.988" fill="rgb(0, 0, 0)" stroke="rgb(66, 66, 66)" stroke-width="1px" opacity="0.25"></line><line x1="288.816125" y1="0" x2="288.816125" y2="176.988" fill="rgb(0, 0, 0)" stroke="rgb(66, 66, 66)" stroke-width="1px" opacity="0.25"></line></g><g><line x1="0" y1="176.988" x2="288.816125" y2="176.988" fill="rgb(0, 0, 0)" stroke="rgb(66, 66, 66)" stroke-width="1px" opacity="0.25"></line><line x1="0" y1="159.2892" x2="288.816125" y2="159.2892" fill="rgb(0, 0, 0)" stroke="rgb(66, 66, 66)" stroke-width="1px" opacity="0.25"></line><line x1="0" y1="141.59040000000002" x2="288.816125" y2="141.59040000000002" fill="rgb(0, 0, 0)" stroke="rgb(66, 66, 66)" stroke-width="1px" opacity="0.25"></line><line x1="0" y1="123.8916" x2="288.816125" y2="123.8916" fill="rgb(0, 0, 0)" stroke="rgb(66, 66, 66)" stroke-width="1px" opacity="0.25"></line><line x1="0" y1="106.19279999999999" x2="288.816125" y2="106.19279999999999" fill="rgb(0, 0, 0)" stroke="rgb(66, 66, 66)" stroke-width="1px" opacity="0.25"></line><line x1="0" y1="88.494" x2="288.816125" y2="88.494" fill="rgb(0, 0, 0)" stroke="rgb(66, 66, 66)" stroke-width="1px" opacity="0.25"></line><line x1="0" y1="70.79519999999998" x2="288.816125" y2="70.79519999999998" fill="rgb(0, 0, 0)" stroke="rgb(66, 66, 66)" stroke-width="1px" opacity="0.25"></line><line x1="0" y1="53.09640000000001" x2="288.816125" y2="53.09640000000001" fill="rgb(0, 0, 0)" stroke="rgb(66, 66, 66)" stroke-width="1px" opacity="0.25"></line><line x1="0" y1="35.39759999999999" x2="288.816125" y2="35.39759999999999" fill="rgb(0, 0, 0)" stroke="rgb(66, 66, 66)" stroke-width="1px" opacity="0.25"></line><line x1="0" y1="17.698800000000016" x2="288.816125" y2="17.698800000000016" fill="rgb(0, 0, 0)" stroke="rgb(66, 66, 66)" stroke-width="1px" opacity="0.25"></line><line x1="0" y1="0" x2="288.816125" y2="0" fill="rgb(0, 0, 0)" stroke="rgb(66, 66, 66)" stroke-width="1px" opacity="0.25"></line></g></g></g><g><g><line x1="0" y1="265.48199999999997" x2="288.816125" y2="265.48199999999997" fill="rgb(0, 0, 0)" stroke="rgb(153, 153, 153)" stroke-width="1.5px"></line></g></g><g><g><line x1="22.216625" y1="0" x2="22.216625" y2="176.988" fill="rgb(0, 0, 0)" stroke="rgb(153, 153, 153)" stroke-width="1.5px"></line></g></g><g><g><g><g><g><path stroke="rgb(255, 112, 67)" stroke-width="2px" d="M24.4382875,19.891393258094787L26.659950000000002,20.255594891130926L28.881612500000003,20.39696771335606L31.103275,20.454645185914146L33.324937500000004,20.503446179853885L35.546600000000005,20.509393679446283L37.7682625,20.52148802064253L39.989925,20.535150795282096L42.2115875,20.529474264315596L44.43325,20.530630769482755L46.6549125,20.53977341549375L48.876575,20.546278044807913L51.0982375,20.551185806571212L53.319900000000004,20.543636346374768L55.541562500000005,20.54611849315781L57.763225000000006,20.545192671563242L59.984887500000006,20.555720213687938L62.20655,20.553975109320493L64.4282125,20.545078997528574L66.64987500000001,20.552949892519663L68.8715375,20.554279513820624L71.09320000000001,20.551422939935012L73.31486249999999,20.549616185033397L75.536525,20.560575287011524L77.75818749999999,20.558458061390184L79.97985,20.556065281704203L82.20151249999999,20.564832916552024L84.423175,20.561957861263803L86.6448375,20.56614888269307L88.8665,20.572233380796195L91.0881625,20.57233951121883L93.309825,20.571339819246344L95.5314875,20.56736422575432L97.75315,20.570287281149447L99.9748125,20.568926958891527L102.196475,20.569055983456966L104.4181375,20.569707280492608L106.63980000000001,20.562325329381125L108.8614625,20.568377950060697L111.08312500000001,20.560244935423192L113.3047875,20.55420892261381L115.52645000000001,20.56859709162758L117.7481125,20.560156994788887L119.96977500000001,20.571085685904123L122.19143749999999,20.513528433135374L124.4131,20.515283697111244L126.6347625,20.528928508176637L128.856425,20.53828003829395L131.0780875,20.54384875913675L133.29975000000002,51.26464485562964L135.5214125,92.18173794678698L137.743075,116.61790093769896L139.9647375,132.79511215707663L142.18640000000002,141.66984968732933L144.4080625,147.32408376316866L146.62972499999998,150.5597517957976L148.8513875,153.5965884209813L151.07305,153.2148979938233L153.2947125,153.67279974447516L155.51637499999998,154.52482840482494L157.7380375,153.71748773541506L159.9597,153.78747050837552L162.1813625,154.76398529021668L164.40302499999999,154.18397632465795L166.6246875,154.61837083860658L168.84635,155.65490906722798L171.0680125,154.92340656971606L173.289675,154.88627753319545L175.5113375,155.20983170880203L177.733,156.65543692754102L179.9546625,156.21722628005978L182.176325,155.579390184597L184.3979875,155.42233820125807L186.61965,153.92282118399947L188.84131250000002,154.48386927614217L191.062975,155.2298323365784L193.28463749999997,155.64356799640277L195.5063,155.94012943748248L197.7279625,155.1417532696939L199.949625,154.5047622479568L202.17128749999998,154.9383835126382L204.39295,154.8852924940957L206.6146125,155.09190285489402L208.836275,152.62503947895433L211.05793749999998,153.65935296546022L213.27960000000002,153.12826056725143L215.5012625,153.83306090330098L217.722925,154.90393438925156L219.94458749999998,155.5392469746459L222.16625000000002,156.10874387322596L224.3879125,155.74360047461232L226.609575,155.9427353767016L228.8312375,155.31153186084381L231.05290000000002,155.4868846664521L233.2745625,155.69338657465534L235.496225,155.7633174656329L237.7178875,156.2537650127469L239.93955000000003,156.0038791940724L242.1612125,155.87935465353223L244.38287499999998,156.04084312973913L246.6045375,155.3618768924385L248.8262,156.38283954240737L251.0478625,155.79467814561045L253.269525,155.2253390686292L255.4911875,156.04229848035448L257.71285,156.86304720745247L259.9345125,157.39504790502644L262.156175,156.3845546096197L264.3778375,156.59119243946262L266.59950000000003,157.2696509261524L268.8211625,157.33584415543052L271.042825,156.7452094694851L273.2644875,155.7889020868348L275.48615,155.07566847959797L277.7078125,155.54547432985092" style="fill: none;" fill="none"></path></g></g></g></g><g opacity="0.2"><g><g><g><path stroke="rgb(255, 112, 67)" stroke-width="2px" d="M24.4382875,19.891393258094787L26.659950000000002,20.474115870952605L28.881612500000003,20.532685622692107L31.103275,20.522473893642424L33.324937500000004,20.567160757541657L35.546600000000005,20.517621212482453L37.7682625,20.538783122062682L39.989925,20.5550712518692L42.2115875,20.521102483749388L44.43325,20.532348044872283L46.6549125,20.55340446138382L48.876575,20.555999590873718L51.0982375,20.5585314245224L53.319900000000004,20.532326946258546L55.541562500000005,20.549838795661927L57.763225000000006,20.543804592132567L59.984887500000006,20.571507071971894L62.20655,20.551357895851137L64.4282125,20.531736185073854L66.64987500000001,20.56475551557541L68.8715375,20.556273872852326L71.09320000000001,20.54713817310333L73.31486249999999,20.546906088352202L75.536525,20.577013810157776L77.75818749999999,20.55528223800659L79.97985,20.552476122379304L82.20151249999999,20.57798434638977L84.423175,20.557645282745362L86.6448375,20.57243541097641L88.8665,20.581360124588013L91.0881625,20.572498706817626L93.309825,20.56984028148651L95.5314875,20.561400835990906L97.75315,20.574671864032744L99.9748125,20.56688647556305L102.196475,20.56924952030182L104.4181375,20.57068422603607L106.63980000000001,20.55125240278244L108.8614625,20.577456881046295L111.08312500000001,20.54804541349411L113.3047875,20.545154903411866L115.52645000000001,20.59017934513092L117.7481125,20.547496849536895L119.96977500000001,20.587478722572328L122.19143749999999,20.42719255399704L124.4131,20.517916593074798L126.6347625,20.549395724773408L128.856425,20.55230733346939L131.0780875,20.552201840400695L133.29975000000002,97.34583899974822L135.5214125,153.5573775830269L137.743075,153.27214542388916L139.9647375,157.06092898607255L142.18640000000002,154.9819559826851L144.4080625,155.80543487691878L146.62972499999998,155.413253844738L148.8513875,158.15184335875512L151.07305,152.64236235308647L153.2947125,154.3596523704529L155.51637499999998,155.8028713953495L157.7380375,152.50647673130035L159.9597,153.89244466781616L162.1813625,156.22875746297836L164.40302499999999,153.3139628763199L166.6246875,155.2699626095295L168.84635,157.20971641016007L171.0680125,153.82615282344818L173.289675,154.83058397841452L175.5113375,155.69516297221185L177.733,158.82384475564956L179.9546625,155.55991030883789L182.176325,154.6226360414028L184.3979875,155.1867602262497L186.61965,151.67354565811158L188.84131250000002,155.32544141435622L191.062975,156.34877692723273L193.28463749999997,156.2641714861393L195.5063,156.38497159910202L197.7279625,153.9441890180111L199.949625,153.54927571535111L202.17128749999998,155.58881540966033L204.39295,154.8056559662819L206.6146125,155.40181839609147L208.836275,148.92474441504478L211.05793749999998,155.21082319521904L213.27960000000002,152.33162196993828L215.5012625,154.89026140737533L217.722925,156.5102446181774L219.94458749999998,156.49221585273742L222.16625000000002,156.96298922109605L224.3879125,155.19588537669182L226.609575,156.2414377298355L228.8312375,154.3647265870571L231.05290000000002,155.74991387486457L233.2745625,156.00313943696023L235.496225,155.86821380209923L237.7178875,156.9894363334179L239.93955000000003,155.62905046606065L242.1612125,155.69256784272193L244.38287499999998,156.28307584404945L246.6045375,154.34342753648758L248.8262,157.91428351736067L251.0478625,154.91243605041504L253.269525,154.3713304531574L255.4911875,157.26773759794236L257.71285,158.09417029809953L259.9345125,158.1930489513874L262.156175,154.86881466650962L264.3778375,156.901149184227L266.59950000000003,158.28733865618705L268.8211625,157.4351339993477L271.042825,155.859257440567L273.2644875,154.35444101285935L275.48615,154.00581806874274L277.7078125,156.25018310523032" style="fill: none;" fill="none"></path></g></g></g></g></g></g><g transform="translate(41, 176)" clip-path="url(#clip_1)"><clipPath id="clip_1"><rect width="288" height="22"></rect></clipPath><g><g><line x1="0" y1="0" x2="0" y2="5" style="visibility: inherit;" fill="rgb(0, 0, 0)" stroke="rgb(204, 204, 204)" stroke-width="1px"></line><line x1="22.216625" y1="0" x2="22.216625" y2="5" style="visibility: inherit;" fill="rgb(0, 0, 0)" stroke="rgb(204, 204, 204)" stroke-width="1px"></line><line x1="44.43325" y1="0" x2="44.43325" y2="5" style="visibility: inherit;" fill="rgb(0, 0, 0)" stroke="rgb(204, 204, 204)" stroke-width="1px"></line><line x1="66.64987500000001" y1="0" x2="66.64987500000001" y2="5" style="visibility: inherit;" fill="rgb(0, 0, 0)" stroke="rgb(204, 204, 204)" stroke-width="1px"></line><line x1="88.8665" y1="0" x2="88.8665" y2="5" style="visibility: inherit;" fill="rgb(0, 0, 0)" stroke="rgb(204, 204, 204)" stroke-width="1px"></line><line x1="111.08312500000001" y1="0" x2="111.08312500000001" y2="5" style="visibility: inherit;" fill="rgb(0, 0, 0)" stroke="rgb(204, 204, 204)" stroke-width="1px"></line><line x1="133.29975000000002" y1="0" x2="133.29975000000002" y2="5" style="visibility: inherit;" fill="rgb(0, 0, 0)" stroke="rgb(204, 204, 204)" stroke-width="1px"></line><line x1="155.51637499999998" y1="0" x2="155.51637499999998" y2="5" style="visibility: inherit;" fill="rgb(0, 0, 0)" stroke="rgb(204, 204, 204)" stroke-width="1px"></line><line x1="177.733" y1="0" x2="177.733" y2="5" style="visibility: inherit;" fill="rgb(0, 0, 0)" stroke="rgb(204, 204, 204)" stroke-width="1px"></line><line x1="199.949625" y1="0" x2="199.949625" y2="5" style="visibility: inherit;" fill="rgb(0, 0, 0)" stroke="rgb(204, 204, 204)" stroke-width="1px"></line><line x1="222.16625000000002" y1="0" x2="222.16625000000002" y2="5" style="visibility: inherit;" fill="rgb(0, 0, 0)" stroke="rgb(204, 204, 204)" stroke-width="1px"></line><line x1="244.38287499999998" y1="0" x2="244.38287499999998" y2="5" style="visibility: inherit;" fill="rgb(0, 0, 0)" stroke="rgb(204, 204, 204)" stroke-width="1px"></line><line x1="266.59950000000003" y1="0" x2="266.59950000000003" y2="5" style="visibility: inherit;" fill="rgb(0, 0, 0)" stroke="rgb(204, 204, 204)" stroke-width="1px"></line><line x1="288.816125" y1="0" x2="288.816125" y2="5" style="visibility: inherit;" fill="rgb(0, 0, 0)" stroke="rgb(204, 204, 204)" stroke-width="1px"></line></g><g transform="translate(0, 8)"><text x="0" y="0" dx="0em" dy="0.95em" style="text-anchor: middle; visibility: hidden; font-family: Roboto, sans-serif; font-size: 12px; font-weight: 200;" fill="rgb(33, 33, 33)" stroke="none" stroke-width="1px">-10</text><text x="22.216625" y="0" dx="0em" dy="0.95em" style="text-anchor: middle; visibility: inherit; font-family: Roboto, sans-serif; font-size: 12px; font-weight: 200;" fill="rgb(33, 33, 33)" stroke="none" stroke-width="1px">0</text><text x="44.43325" y="0" dx="0em" dy="0.95em" style="text-anchor: middle; visibility: hidden; font-family: Roboto, sans-serif; font-size: 12px; font-weight: 200;" fill="rgb(33, 33, 33)" stroke="none" stroke-width="1px">10</text><text x="66.64987500000001" y="0" dx="0em" dy="0.95em" style="text-anchor: middle; visibility: inherit; font-family: Roboto, sans-serif; font-size: 12px; font-weight: 200;" fill="rgb(33, 33, 33)" stroke="none" stroke-width="1px">20</text><text x="88.8665" y="0" dx="0em" dy="0.95em" style="text-anchor: middle; visibility: hidden; font-family: Roboto, sans-serif; font-size: 12px; font-weight: 200;" fill="rgb(33, 33, 33)" stroke="none" stroke-width="1px">30</text><text x="111.08312500000001" y="0" dx="0em" dy="0.95em" style="text-anchor: middle; visibility: inherit; font-family: Roboto, sans-serif; font-size: 12px; font-weight: 200;" fill="rgb(33, 33, 33)" stroke="none" stroke-width="1px">40</text><text x="133.29975000000002" y="0" dx="0em" dy="0.95em" style="text-anchor: middle; visibility: hidden; font-family: Roboto, sans-serif; font-size: 12px; font-weight: 200;" fill="rgb(33, 33, 33)" stroke="none" stroke-width="1px">50</text><text x="155.51637499999998" y="0" dx="0em" dy="0.95em" style="text-anchor: middle; visibility: inherit; font-family: Roboto, sans-serif; font-size: 12px; font-weight: 200;" fill="rgb(33, 33, 33)" stroke="none" stroke-width="1px">60</text><text x="177.733" y="0" dx="0em" dy="0.95em" style="text-anchor: middle; visibility: hidden; font-family: Roboto, sans-serif; font-size: 12px; font-weight: 200;" fill="rgb(33, 33, 33)" stroke="none" stroke-width="1px">70</text><text x="199.949625" y="0" dx="0em" dy="0.95em" style="text-anchor: middle; visibility: inherit; font-family: Roboto, sans-serif; font-size: 12px; font-weight: 200;" fill="rgb(33, 33, 33)" stroke="none" stroke-width="1px">80</text><text x="222.16625000000002" y="0" dx="0em" dy="0.95em" style="text-anchor: middle; visibility: hidden; font-family: Roboto, sans-serif; font-size: 12px; font-weight: 200;" fill="rgb(33, 33, 33)" stroke="none" stroke-width="1px">90</text><text x="244.38287499999998" y="0" dx="0em" dy="0.95em" style="text-anchor: middle; visibility: inherit; font-family: Roboto, sans-serif; font-size: 12px; font-weight: 200;" fill="rgb(33, 33, 33)" stroke="none" stroke-width="1px">100</text><text x="266.59950000000003" y="0" dx="0em" dy="0.95em" style="text-anchor: middle; visibility: hidden; font-family: Roboto, sans-serif; font-size: 12px; font-weight: 200;" fill="rgb(33, 33, 33)" stroke="none" stroke-width="1px">110</text><text x="288.816125" y="0" dx="0em" dy="0.95em" style="text-anchor: middle; visibility: hidden; font-family: Roboto, sans-serif; font-size: 12px; font-weight: 200;" fill="rgb(33, 33, 33)" stroke="none" stroke-width="1px">120</text></g><line x1="0" y1="0" x2="288.816125" y2="0" fill="rgb(0, 0, 0)" stroke="rgb(204, 204, 204)" stroke-width="1px"></line></g></g></g></g></svg>