<svg viewBox="0 0 330.0000305175781 200.00001525878906" xmlns="http://www.w3.org/2000/svg"><g><g><g><g><g><line x1="63.984375" y1="176" x2="58.984375" y2="176" style="visibility: inherit;" fill="rgb(0, 0, 0)" stroke="rgb(204, 204, 204)" stroke-width="1px"></line><line x1="63.984375" y1="158.4" x2="58.984375" y2="158.4" style="visibility: inherit;" fill="rgb(0, 0, 0)" stroke="rgb(204, 204, 204)" stroke-width="1px"></line><line x1="63.984375" y1="140.8" x2="58.984375" y2="140.8" style="visibility: inherit;" fill="rgb(0, 0, 0)" stroke="rgb(204, 204, 204)" stroke-width="1px"></line><line x1="63.984375" y1="123.19999999999999" x2="58.984375" y2="123.19999999999999" style="visibility: inherit;" fill="rgb(0, 0, 0)" stroke="rgb(204, 204, 204)" stroke-width="1px"></line><line x1="63.984375" y1="105.60000000000002" x2="58.984375" y2="105.60000000000002" style="visibility: inherit;" fill="rgb(0, 0, 0)" stroke="rgb(204, 204, 204)" stroke-width="1px"></line><line x1="63.984375" y1="88" x2="58.984375" y2="88" style="visibility: inherit;" fill="rgb(0, 0, 0)" stroke="rgb(204, 204, 204)" stroke-width="1px"></line><line x1="63.984375" y1="70.39999999999998" x2="58.984375" y2="70.39999999999998" style="visibility: inherit;" fill="rgb(0, 0, 0)" stroke="rgb(204, 204, 204)" stroke-width="1px"></line><line x1="63.984375" y1="52.80000000000001" x2="58.984375" y2="52.80000000000001" style="visibility: inherit;" fill="rgb(0, 0, 0)" stroke="rgb(204, 204, 204)" stroke-width="1px"></line><line x1="63.984375" y1="35.19999999999999" x2="58.984375" y2="35.19999999999999" style="visibility: inherit;" fill="rgb(0, 0, 0)" stroke="rgb(204, 204, 204)" stroke-width="1px"></line><line x1="63.984375" y1="17.599999999999994" x2="58.984375" y2="17.599999999999994" style="visibility: inherit;" fill="rgb(0, 0, 0)" stroke="rgb(204, 204, 204)" stroke-width="1px"></line><line x1="63.984375" y1="0" x2="58.984375" y2="0" style="visibility: inherit;" fill="rgb(0, 0, 0)" stroke="rgb(204, 204, 204)" stroke-width="1px"></line></g><g transform="translate(53.984375, 0)"><text x="0" y="176" dx="0em" dy="0.3em" style="text-anchor: end; visibility: hidden; font-family: Roboto, sans-serif; font-size: 12px; font-weight: 200;" fill="rgb(33, 33, 33)" stroke="none" stroke-width="1px">-1e-4</text><text x="0" y="158.4" dx="0em" dy="0.3em" style="text-anchor: end; visibility: inherit; font-family: Roboto, sans-serif; font-size: 12px; font-weight: 200;" fill="rgb(33, 33, 33)" stroke="none" stroke-width="1px">0</text><text x="0" y="140.8" dx="0em" dy="0.3em" style="text-anchor: end; visibility: hidden; font-family: Roboto, sans-serif; font-size: 12px; font-weight: 200;" fill="rgb(33, 33, 33)" stroke="none" stroke-width="1px">1e-4</text><text x="0" y="123.19999999999999" dx="0em" dy="0.3em" style="text-anchor: end; visibility: inherit; font-family: Roboto, sans-serif; font-size: 12px; font-weight: 200;" fill="rgb(33, 33, 33)" stroke="none" stroke-width="1px">2e-4</text><text x="0" y="105.60000000000002" dx="0em" dy="0.3em" style="text-anchor: end; visibility: hidden; font-family: Roboto, sans-serif; font-size: 12px; font-weight: 200;" fill="rgb(33, 33, 33)" stroke="none" stroke-width="1px">3e-4</text><text x="0" y="88" dx="0em" dy="0.3em" style="text-anchor: end; visibility: inherit; font-family: Roboto, sans-serif; font-size: 12px; font-weight: 200;" fill="rgb(33, 33, 33)" stroke="none" stroke-width="1px">4e-4</text><text x="0" y="70.39999999999998" dx="0em" dy="0.3em" style="text-anchor: end; visibility: hidden; font-family: Roboto, sans-serif; font-size: 12px; font-weight: 200;" fill="rgb(33, 33, 33)" stroke="none" stroke-width="1px">5e-4</text><text x="0" y="52.80000000000001" dx="0em" dy="0.3em" style="text-anchor: end; visibility: inherit; font-family: Roboto, sans-serif; font-size: 12px; font-weight: 200;" fill="rgb(33, 33, 33)" stroke="none" stroke-width="1px">6e-4</text><text x="0" y="35.19999999999999" dx="0em" dy="0.3em" style="text-anchor: end; visibility: hidden; font-family: Roboto, sans-serif; font-size: 12px; font-weight: 200;" fill="rgb(33, 33, 33)" stroke="none" stroke-width="1px">7e-4</text><text x="0" y="17.599999999999994" dx="0em" dy="0.3em" style="text-anchor: end; visibility: inherit; font-family: Roboto, sans-serif; font-size: 12px; font-weight: 200;" fill="rgb(33, 33, 33)" stroke="none" stroke-width="1px">8e-4</text><text x="0" y="0" dx="0em" dy="0.3em" style="text-anchor: end; visibility: hidden; font-family: Roboto, sans-serif; font-size: 12px; font-weight: 200;" fill="rgb(33, 33, 33)" stroke="none" stroke-width="1px">9e-4</text></g><line x1="63.984375" y1="0" x2="63.984375" y2="176" fill="rgb(0, 0, 0)" stroke="rgb(204, 204, 204)" stroke-width="1px"></line></g></g><g transform="translate(63, 0)" clip-path="url(#clip_0)"><clipPath id="clip_0"><rect width="266" height="176"></rect></clipPath><g><g><g><line x1="0" y1="0" x2="0" y2="176" fill="rgb(0, 0, 0)" stroke="rgb(66, 66, 66)" stroke-width="1px" opacity="0.25"></line><line x1="22.16796875" y1="0" x2="22.16796875" y2="176" fill="rgb(0, 0, 0)" stroke="rgb(66, 66, 66)" stroke-width="1px" opacity="0.25"></line><line x1="44.3359375" y1="0" x2="44.3359375" y2="176" fill="rgb(0, 0, 0)" stroke="rgb(66, 66, 66)" stroke-width="1px" opacity="0.25"></line><line x1="66.50390625" y1="0" x2="66.50390625" y2="176" fill="rgb(0, 0, 0)" stroke="rgb(66, 66, 66)" stroke-width="1px" opacity="0.25"></line><line x1="88.671875" y1="0" x2="88.671875" y2="176" fill="rgb(0, 0, 0)" stroke="rgb(66, 66, 66)" stroke-width="1px" opacity="0.25"></line><line x1="110.83984375" y1="0" x2="110.83984375" y2="176" fill="rgb(0, 0, 0)" stroke="rgb(66, 66, 66)" stroke-width="1px" opacity="0.25"></line><line x1="133.0078125" y1="0" x2="133.0078125" y2="176" fill="rgb(0, 0, 0)" stroke="rgb(66, 66, 66)" stroke-width="1px" opacity="0.25"></line><line x1="155.17578125" y1="0" x2="155.17578125" y2="176" fill="rgb(0, 0, 0)" stroke="rgb(66, 66, 66)" stroke-width="1px" opacity="0.25"></line><line x1="177.34375" y1="0" x2="177.34375" y2="176" fill="rgb(0, 0, 0)" stroke="rgb(66, 66, 66)" stroke-width="1px" opacity="0.25"></line><line x1="199.51171875" y1="0" x2="199.51171875" y2="176" fill="rgb(0, 0, 0)" stroke="rgb(66, 66, 66)" stroke-width="1px" opacity="0.25"></line><line x1="221.6796875" y1="0" x2="221.6796875" y2="176" fill="rgb(0, 0, 0)" stroke="rgb(66, 66, 66)" stroke-width="1px" opacity="0.25"></line><line x1="243.84765625" y1="0" x2="243.84765625" y2="176" fill="rgb(0, 0, 0)" stroke="rgb(66, 66, 66)" stroke-width="1px" opacity="0.25"></line><line x1="266.015625" y1="0" x2="266.015625" y2="176" fill="rgb(0, 0, 0)" stroke="rgb(66, 66, 66)" stroke-width="1px" opacity="0.25"></line></g><g><line x1="0" y1="176" x2="266.015625" y2="176" fill="rgb(0, 0, 0)" stroke="rgb(66, 66, 66)" stroke-width="1px" opacity="0.25"></line><line x1="0" y1="158.4" x2="266.015625" y2="158.4" fill="rgb(0, 0, 0)" stroke="rgb(66, 66, 66)" stroke-width="1px" opacity="0.25"></line><line x1="0" y1="140.8" x2="266.015625" y2="140.8" fill="rgb(0, 0, 0)" stroke="rgb(66, 66, 66)" stroke-width="1px" opacity="0.25"></line><line x1="0" y1="123.19999999999999" x2="266.015625" y2="123.19999999999999" fill="rgb(0, 0, 0)" stroke="rgb(66, 66, 66)" stroke-width="1px" opacity="0.25"></line><line x1="0" y1="105.60000000000002" x2="266.015625" y2="105.60000000000002" fill="rgb(0, 0, 0)" stroke="rgb(66, 66, 66)" stroke-width="1px" opacity="0.25"></line><line x1="0" y1="88" x2="266.015625" y2="88" fill="rgb(0, 0, 0)" stroke="rgb(66, 66, 66)" stroke-width="1px" opacity="0.25"></line><line x1="0" y1="70.39999999999998" x2="266.015625" y2="70.39999999999998" fill="rgb(0, 0, 0)" stroke="rgb(66, 66, 66)" stroke-width="1px" opacity="0.25"></line><line x1="0" y1="52.80000000000001" x2="266.015625" y2="52.80000000000001" fill="rgb(0, 0, 0)" stroke="rgb(66, 66, 66)" stroke-width="1px" opacity="0.25"></line><line x1="0" y1="35.19999999999999" x2="266.015625" y2="35.19999999999999" fill="rgb(0, 0, 0)" stroke="rgb(66, 66, 66)" stroke-width="1px" opacity="0.25"></line><line x1="0" y1="17.599999999999994" x2="266.015625" y2="17.599999999999994" fill="rgb(0, 0, 0)" stroke="rgb(66, 66, 66)" stroke-width="1px" opacity="0.25"></line><line x1="0" y1="0" x2="266.015625" y2="0" fill="rgb(0, 0, 0)" stroke="rgb(66, 66, 66)" stroke-width="1px" opacity="0.25"></line></g></g></g><g><g><line x1="0" y1="158.4" x2="266.015625" y2="158.4" fill="rgb(0, 0, 0)" stroke="rgb(153, 153, 153)" stroke-width="1.5px"></line></g></g><g><g><line x1="22.16796875" y1="0" x2="22.16796875" y2="176" fill="rgb(0, 0, 0)" stroke="rgb(153, 153, 153)" stroke-width="1.5px"></line></g></g><g><g><g><g><g><path stroke="rgb(255, 112, 67)" stroke-width="2px" d="M23.2763671875,-6.344784124195591L24.384765625,86.71022595055402L25.4931640625,117.19422342262173L26.6015625,133.63062607048334L27.7099609375,132.06083099174433L28.818359375,122.36339770730378L29.9267578125,118.27541142362182L31.03515625,95.41657568818792L32.1435546875,-162.69198206904136L37.685546875,-27.000054874338705L38.7939453125,20.970808628132055L39.90234375,50.97202933745352L41.0107421875,61.38199643984605L42.119140625,-102.37121758339521L43.2275390625,-41.884824980570414L44.3359375,10.051892382367315L45.4443359375,48.775472719865604L46.552734375,80.29522388888296L47.6611328125,98.72084586497435L48.76953125,111.21597020406242L49.8779296875,108.68992235542343L50.986328125,117.27684259852838L52.0947265625,120.13863804235515L53.203125,123.53356863732381L54.3115234375,129.12559166487114L55.419921875,130.77787761804117L56.5283203125,133.6743264390487L57.63671875,128.40215477504344L58.7451171875,122.00314715947316L59.853515625,123.31232304476883L60.9619140625,125.0693590396386L62.0703125,126.72430761904275L63.1787109375,129.15937724488407L64.287109375,129.81569949261126L65.3955078125,114.70754882946383L66.50390625,120.23604009356883L67.6123046875,128.16375580228004L68.720703125,133.27385953327538L69.8291015625,132.90725944991567L70.9375,134.36588298498424L72.0458984375,137.1436372275935L73.154296875,136.89602164614365L74.2626953125,137.18826240585744L75.37109375,138.3798578594833L76.4794921875,137.7004475876424L77.587890625,140.1901773863328L78.6962890625,141.14730081786934L79.8046875,133.5023327808171L80.9130859375,136.70791373927494L82.021484375,140.26940503235L83.1298828125,143.13929570386196L84.23828125,144.338416486722L85.3466796875,144.7009816986274L86.455078125,146.27405103095353L87.5634765625,146.17364405034766L88.671875,145.1159378780501L89.7802734375,145.20172515495577L90.888671875,146.53465400742124L91.9970703125,139.10380673829684L93.10546875,142.92544456865025L94.2138671875,145.35165608109168L95.322265625,146.99093174356898L96.4306640625,148.66356415741103L97.5390625,149.73691615096456L98.6474609375,133.9694014279945L99.755859375,135.4975111673864L100.8642578125,137.37992159243475L101.97265625,141.6118824376005L103.0810546875,143.8283820523076L104.189453125,145.5291229452269L105.2978515625,146.1677293464885L106.40625,147.33346603783048L107.5146484375,148.18056375203776L108.623046875,148.68742604862598L109.7314453125,148.9892819425371L110.83984375,147.66939448034208L111.9482421875,147.41230989398326L113.056640625,147.936246448207L114.1650390625,149.59054049276446L115.2734375,150.2624902173393L116.3818359375,150.43669362877387L117.490234375,149.97536291529732L118.5986328125,149.17164126660674L119.70703125,148.53011963725834L120.8154296875,149.7347661439225L121.923828125,149.84789483062298L123.0322265625,148.3165304357521L124.140625,148.10080539463235L125.2490234375,137.93337570579808L126.357421875,138.16212892637827L127.4658203125,136.3535159838568L128.57421875,140.6413802368862L129.6826171875,143.07405478870407L130.791015625,135.75569819861968L131.8994140625,135.51394759672476L133.0078125,108.50863711033817L134.1162109375,120.60017769877346L135.224609375,131.2727074463322L136.3330078125,139.58067197310353L137.44140625,144.10081790794388L138.5498046875,146.2288939904985L139.658203125,148.25823347229166L140.7666015625,148.56978113537076L141.875,149.97955382911886L142.9833984375,150.60435750833764L144.091796875,148.41082951859602L145.2001953125,148.97368223576825L146.30859375,149.35999502776014L147.4169921875,150.0626830988404L148.525390625,150.7885254757197L149.6337890625,151.31572063377297L150.7421875,151.52180792535572L151.8505859375,151.99244724974918L152.958984375,146.14735519992342L154.0673828125,143.44336601507385L155.17578125,144.22416835844052L156.2841796875,144.55643261548596L157.392578125,143.75533777766952L158.5009765625,145.89411122791338L159.609375,147.0635278886847L160.7177734375,147.3989634551878L161.826171875,147.35600808103533L162.9345703125,148.058928041918L164.04296875,149.4796013382899L165.1513671875,149.8558620165111L166.259765625,150.59288157137163L167.3681640625,150.96548313513057L168.4765625,151.13732216616515L169.5849609375,151.54869992280777L170.693359375,152.11154758614168L171.8017578125,151.92898705378542L172.91015625,152.47722103977796L174.0185546875,153.03277737112847L175.126953125,153.06065600355794L176.2353515625,152.61198679877268L177.34375,149.01543870604306L178.4521484375,149.9422901029439L179.560546875,150.51542225811934L180.6689453125,151.66355327468176L181.77734375,149.83592863672112L182.8857421875,150.2489981779047L183.994140625,150.88823287120985L185.1025390625,151.1304012253897L186.2109375,151.65111217442998L187.3193359375,151.64036191750378L188.427734375,151.72756947300618L189.5361328125,151.75912753852032L190.64453125,147.3601226841618L191.7529296875,149.33902182904387L192.861328125,150.00346087338033L193.9697265625,151.0519395855606L195.078125,151.1328464106122L196.1865234375,151.02142700588846L197.294921875,151.39800730764057L198.4033203125,152.53600944161676L199.51171875,153.39342302945786L200.6201171875,153.71868318747002L201.728515625,153.78166053425085L202.8369140625,154.16343390384426L203.9453125,154.59246292901253L205.0537109375,154.8295047058446L206.162109375,155.27972865967277L207.2705078125,155.50749068371698L208.37890625,155.87425684470531L209.4873046875,156.03413372564782L210.595703125,155.99359318645878L211.7041015625,155.96349554773917L212.8125,155.88967070169485L213.9208984375,155.69204519115232L215.029296875,155.6517264527669L216.1376953125,155.64293404643033L217.24609375,155.48681556812997L218.3544921875,155.5612973447752L219.462890625,155.87095019199063L220.5712890625,155.87407705774223L221.6796875,155.89396859958583L222.7880859375,155.9668389304735L223.896484375,156.1250762268179L225.0048828125,156.29544934196724L226.11328125,156.33129007462048L227.2216796875,156.493535143498L228.330078125,156.51753320372904L229.4384765625,156.1883499941151L230.546875,155.8874029128616L231.6552734375,155.62320342194974L232.763671875,155.53823638292442L233.8720703125,155.7723739125921L234.98046875,156.15385001746006L236.0888671875,156.36445409181712L237.197265625,156.4997492703397L238.3056640625,156.66316557758142L239.4140625,156.70389845866876L240.5224609375,156.70346781750496L241.630859375,156.7888222907538L242.7392578125,156.82652055864364L243.84765625,156.73916858305867" style="fill: none;" fill="none"></path></g></g></g></g><g opacity="0.2"><g><g><g><path stroke="rgb(255, 112, 67)" stroke-width="2px" d="M23.2763671875,-6.344784124195591L24.384765625,142.54323199540377L25.4931640625,146.45886099580676L26.6015625,152.95983558436856L27.7099609375,130.01130653694273L28.818359375,108.94835639894009L29.9267578125,112.42952563017607L31.03515625,62.088173741102224L32.1435546875,-543.351969754696L34.3603515625,-558.4871834874155L35.46875,87.60630890876052L36.5771484375,92.76180613934994L37.685546875,99.56276223212481L38.7939453125,92.87071593254805L39.90234375,95.95270121619106L41.0107421875,76.99254194423554L42.119140625,-347.95946169495573L43.2275390625,48.83554943054915L44.3359375,87.9522212050855L45.4443359375,106.85871953293682L46.552734375,127.57381347157062L47.6611328125,126.35891504734755L48.76953125,129.95850869603456L49.8779296875,104.90086853653193L50.986328125,130.15718634389341L52.0947265625,124.43132388554514L53.203125,128.62595931775869L54.3115234375,137.51362105514855L55.419921875,133.2563056346029L56.5283203125,138.01899871006609L57.63671875,120.49389832802117L58.7451171875,112.40463650003076L59.853515625,125.27608677893878L60.9619140625,127.70491295643151L62.0703125,129.2067304454744L63.1787109375,132.81198164597154L64.287109375,130.80018285810948L65.3955078125,92.04532291889191L66.50390625,128.52877697125078L67.6123046875,140.05532934945077L68.720703125,140.93901512362063L69.8291015625,132.35735932514072L70.9375,136.55381828695536L72.0458984375,141.31026859078557L73.154296875,136.52459827400745L74.2626953125,137.6266235454008L75.37109375,140.1672510398552L76.4794921875,136.681332179904L77.587890625,143.9247720843181L78.6962890625,142.58298596516252L79.8046875,122.03488072529436L80.9130859375,141.51628517694772L82.021484375,145.61164197195322L83.1298828125,147.44413171112538L84.23828125,146.13709766101093L85.3466796875,145.24482951648534L86.455078125,148.63365502944217L87.5634765625,146.02303357943893L88.671875,143.52937861960382L89.7802734375,145.33040607031435L90.888671875,148.53404728611932L91.9970703125,127.95753583461047L93.10546875,148.65790131418035L94.2138671875,148.99097334975377L95.322265625,149.4498452372849L96.4306640625,151.17251277817414L97.5390625,151.3469441412948L98.6474609375,110.31812934353948L99.755859375,137.78967577647418L100.8642578125,140.20353723000736L101.97265625,147.95982370534912L103.0810546875,147.15313147436828L104.189453125,148.08023428460584L105.2978515625,147.12563894838095L106.40625,149.0820710748434L107.5146484375,149.45121032334865L108.623046875,149.44771949350834L109.7314453125,149.44206578340382L110.83984375,145.68956328704954L111.9482421875,147.026683014445L113.056640625,148.7221512795426L114.1650390625,152.0719815596007L115.2734375,151.27041480420158L116.3818359375,150.69799874592573L117.490234375,149.2833668450825L118.5986328125,147.96605879357085L119.70703125,147.56783719323576L120.8154296875,151.54173590391875L121.923828125,150.01758786067367L123.0322265625,146.01948384344578L124.140625,147.77721783295274L125.2490234375,122.68223117254675L126.357421875,138.50525875724853L127.4658203125,133.64059657007456L128.57421875,147.0731766164303L129.6826171875,146.72306661643088L130.791015625,124.77816331349314L131.8994140625,135.15132169388235L133.0078125,68.00067138075829L134.1162109375,138.73748858142645L135.224609375,147.28150206767023L136.3330078125,152.04261876326055L137.44140625,150.8810368102044L138.5498046875,149.42100811433048L139.658203125,151.3022426949814L140.7666015625,149.0371026299894L141.875,152.09421286974103L142.9833984375,151.54156302716584L144.091796875,145.1205375339836L145.2001953125,149.8179613115266L146.30859375,149.93946421574802L147.4169921875,151.1167152054608L148.525390625,151.8772890410386L149.6337890625,152.10651337085292L150.7421875,151.83093886272982L151.8505859375,152.69840623633937L152.958984375,137.37971712518484L154.0673828125,139.38738223779947L155.17578125,145.39537187349052L156.2841796875,145.05482900105417L157.392578125,142.5536955209449L158.5009765625,149.10227140327916L159.609375,148.81765287984163L160.7177734375,147.9021168049425L161.826171875,147.29157501980663L162.9345703125,149.11330798324198L164.04296875,151.61061128284783L165.1513671875,150.4202530338429L166.259765625,151.69841090366245L167.3681640625,151.52438548076898L168.4765625,151.39508071271703L169.5849609375,152.16576655777172L170.693359375,152.95581908114255L171.8017578125,151.65514625525103L172.91015625,153.29957201876678L174.0185546875,153.86611186815426L175.126953125,153.10247395220213L176.2353515625,151.93898299159483L177.34375,143.6206165669486L178.4521484375,151.33256719829515L179.560546875,151.37512049088255L180.6689453125,153.38574979952537L181.77734375,147.0944916797802L182.8857421875,150.86860248968006L183.994140625,151.84708491116763L185.1025390625,151.49365375665948L186.2109375,152.43217859799043L187.3193359375,151.62423653211445L188.427734375,151.85838080625982L189.5361328125,151.8064646367915L190.64453125,140.76161540262402L191.7529296875,152.30737054636703L192.861328125,151.00011943988503L193.9697265625,152.62465765383095L195.078125,151.25420664818958L196.1865234375,150.8542978988029L197.294921875,151.96287776026875L198.4033203125,154.24301264258102L199.51171875,154.6795434112195L200.6201171875,154.2065734244883L201.728515625,153.8761265544221L202.8369140625,154.73609395823442L203.9453125,155.23600646676496L205.0537109375,155.18506737109274L206.162109375,155.955064590415L207.2705078125,155.84913371978328L208.37890625,156.42440608618782L209.4873046875,156.27394904706162L210.595703125,155.93278237767518L211.7041015625,155.91834908965976L212.8125,155.7789334326284L213.9208984375,155.3956069253385L215.029296875,155.5912483451888L216.1376953125,155.62974543692545L217.24609375,155.25263785067946L218.3544921875,155.67302000974306L219.462890625,156.33542946281378L220.5712890625,155.87876735636965L221.6796875,155.92380591235124L222.7880859375,156.07614442680497L223.896484375,156.36243217133452L225.0048828125,156.55100901469123L226.11328125,156.38505117360037L227.2216796875,156.7369027468143L228.330078125,156.5535302940756L229.4384765625,155.69457517969423L230.546875,155.43598229098134L231.6552734375,155.22690418558196L232.763671875,155.4107858243864L233.8720703125,156.12358020709362L234.98046875,156.726064174762L236.0888671875,156.68036020335276L237.197265625,156.7026920381235L238.3056640625,156.9082900384441L239.4140625,156.76499778029975L240.5224609375,156.70282185575925L241.630859375,156.91685400062707L242.7392578125,156.88306796047837L243.84765625,156.60814061968122" style="fill: none;" fill="none"></path></g></g></g></g></g></g><g transform="translate(63, 176)" clip-path="url(#clip_1)"><clipPath id="clip_1"><rect width="266" height="24"></rect></clipPath><g><g><line x1="0" y1="0" x2="0" y2="5" style="visibility: inherit;" fill="rgb(0, 0, 0)" stroke="rgb(204, 204, 204)" stroke-width="1px"></line><line x1="22.16796875" y1="0" x2="22.16796875" y2="5" style="visibility: inherit;" fill="rgb(0, 0, 0)" stroke="rgb(204, 204, 204)" stroke-width="1px"></line><line x1="44.3359375" y1="0" x2="44.3359375" y2="5" style="visibility: inherit;" fill="rgb(0, 0, 0)" stroke="rgb(204, 204, 204)" stroke-width="1px"></line><line x1="66.50390625" y1="0" x2="66.50390625" y2="5" style="visibility: inherit;" fill="rgb(0, 0, 0)" stroke="rgb(204, 204, 204)" stroke-width="1px"></line><line x1="88.671875" y1="0" x2="88.671875" y2="5" style="visibility: inherit;" fill="rgb(0, 0, 0)" stroke="rgb(204, 204, 204)" stroke-width="1px"></line><line x1="110.83984375" y1="0" x2="110.83984375" y2="5" style="visibility: inherit;" fill="rgb(0, 0, 0)" stroke="rgb(204, 204, 204)" stroke-width="1px"></line><line x1="133.0078125" y1="0" x2="133.0078125" y2="5" style="visibility: inherit;" fill="rgb(0, 0, 0)" stroke="rgb(204, 204, 204)" stroke-width="1px"></line><line x1="155.17578125" y1="0" x2="155.17578125" y2="5" style="visibility: inherit;" fill="rgb(0, 0, 0)" stroke="rgb(204, 204, 204)" stroke-width="1px"></line><line x1="177.34375" y1="0" x2="177.34375" y2="5" style="visibility: inherit;" fill="rgb(0, 0, 0)" stroke="rgb(204, 204, 204)" stroke-width="1px"></line><line x1="199.51171875" y1="0" x2="199.51171875" y2="5" style="visibility: inherit;" fill="rgb(0, 0, 0)" stroke="rgb(204, 204, 204)" stroke-width="1px"></line><line x1="221.6796875" y1="0" x2="221.6796875" y2="5" style="visibility: inherit;" fill="rgb(0, 0, 0)" stroke="rgb(204, 204, 204)" stroke-width="1px"></line><line x1="243.84765625" y1="0" x2="243.84765625" y2="5" style="visibility: inherit;" fill="rgb(0, 0, 0)" stroke="rgb(204, 204, 204)" stroke-width="1px"></line><line x1="266.015625" y1="0" x2="266.015625" y2="5" style="visibility: inherit;" fill="rgb(0, 0, 0)" stroke="rgb(204, 204, 204)" stroke-width="1px"></line></g><g transform="translate(0, 8)"><text x="0" y="0" dx="0em" dy="0.95em" style="text-anchor: middle; visibility: hidden; font-family: Roboto, sans-serif; font-size: 12px; font-weight: 200;" fill="rgb(33, 33, 33)" stroke="none" stroke-width="1px">-20</text><text x="22.16796875" y="0" dx="0em" dy="0.95em" style="text-anchor: middle; visibility: inherit; font-family: Roboto, sans-serif; font-size: 12px; font-weight: 200;" fill="rgb(33, 33, 33)" stroke="none" stroke-width="1px">0</text><text x="44.3359375" y="0" dx="0em" dy="0.95em" style="text-anchor: middle; visibility: hidden; font-family: Roboto, sans-serif; font-size: 12px; font-weight: 200;" fill="rgb(33, 33, 33)" stroke="none" stroke-width="1px">20</text><text x="66.50390625" y="0" dx="0em" dy="0.95em" style="text-anchor: middle; visibility: inherit; font-family: Roboto, sans-serif; font-size: 12px; font-weight: 200;" fill="rgb(33, 33, 33)" stroke="none" stroke-width="1px">40</text><text x="88.671875" y="0" dx="0em" dy="0.95em" style="text-anchor: middle; visibility: hidden; font-family: Roboto, sans-serif; font-size: 12px; font-weight: 200;" fill="rgb(33, 33, 33)" stroke="none" stroke-width="1px">60</text><text x="110.83984375" y="0" dx="0em" dy="0.95em" style="text-anchor: middle; visibility: inherit; font-family: Roboto, sans-serif; font-size: 12px; font-weight: 200;" fill="rgb(33, 33, 33)" stroke="none" stroke-width="1px">80</text><text x="133.0078125" y="0" dx="0em" dy="0.95em" style="text-anchor: middle; visibility: hidden; font-family: Roboto, sans-serif; font-size: 12px; font-weight: 200;" fill="rgb(33, 33, 33)" stroke="none" stroke-width="1px">100</text><text x="155.17578125" y="0" dx="0em" dy="0.95em" style="text-anchor: middle; visibility: inherit; font-family: Roboto, sans-serif; font-size: 12px; font-weight: 200;" fill="rgb(33, 33, 33)" stroke="none" stroke-width="1px">120</text><text x="177.34375" y="0" dx="0em" dy="0.95em" style="text-anchor: middle; visibility: hidden; font-family: Roboto, sans-serif; font-size: 12px; font-weight: 200;" fill="rgb(33, 33, 33)" stroke="none" stroke-width="1px">140</text><text x="199.51171875" y="0" dx="0em" dy="0.95em" style="text-anchor: middle; visibility: inherit; font-family: Roboto, sans-serif; font-size: 12px; font-weight: 200;" fill="rgb(33, 33, 33)" stroke="none" stroke-width="1px">160</text><text x="221.6796875" y="0" dx="0em" dy="0.95em" style="text-anchor: middle; visibility: hidden; font-family: Roboto, sans-serif; font-size: 12px; font-weight: 200;" fill="rgb(33, 33, 33)" stroke="none" stroke-width="1px">180</text><text x="243.84765625" y="0" dx="0em" dy="0.95em" style="text-anchor: middle; visibility: inherit; font-family: Roboto, sans-serif; font-size: 12px; font-weight: 200;" fill="rgb(33, 33, 33)" stroke="none" stroke-width="1px">200</text><text x="266.015625" y="0" dx="0em" dy="0.95em" style="text-anchor: middle; visibility: hidden; font-family: Roboto, sans-serif; font-size: 12px; font-weight: 200;" fill="rgb(33, 33, 33)" stroke="none" stroke-width="1px">220</text></g><line x1="0" y1="0" x2="266.015625" y2="0" fill="rgb(0, 0, 0)" stroke="rgb(204, 204, 204)" stroke-width="1px"></line></g></g></g></g></svg>