<svg viewBox="0 0 330.0000305175781 200.00001525878906" xmlns="http://www.w3.org/2000/svg"><g><g><g><g><g><line x1="63.984375" y1="176" x2="58.984375" y2="176" style="visibility: inherit;" fill="rgb(0, 0, 0)" stroke="rgb(204, 204, 204)" stroke-width="1px"></line><line x1="63.984375" y1="160" x2="58.984375" y2="160" style="visibility: inherit;" fill="rgb(0, 0, 0)" stroke="rgb(204, 204, 204)" stroke-width="1px"></line><line x1="63.984375" y1="144" x2="58.984375" y2="144" style="visibility: inherit;" fill="rgb(0, 0, 0)" stroke="rgb(204, 204, 204)" stroke-width="1px"></line><line x1="63.984375" y1="127.99999999999997" x2="58.984375" y2="127.99999999999997" style="visibility: inherit;" fill="rgb(0, 0, 0)" stroke="rgb(204, 204, 204)" stroke-width="1px"></line><line x1="63.984375" y1="112.00000000000006" x2="58.984375" y2="112.00000000000006" style="visibility: inherit;" fill="rgb(0, 0, 0)" stroke="rgb(204, 204, 204)" stroke-width="1px"></line><line x1="63.984375" y1="96.00000000000007" x2="58.984375" y2="96.00000000000007" style="visibility: inherit;" fill="rgb(0, 0, 0)" stroke="rgb(204, 204, 204)" stroke-width="1px"></line><line x1="63.984375" y1="80.00000000000004" x2="58.984375" y2="80.00000000000004" style="visibility: inherit;" fill="rgb(0, 0, 0)" stroke="rgb(204, 204, 204)" stroke-width="1px"></line><line x1="63.984375" y1="64.00000000000004" x2="58.984375" y2="64.00000000000004" style="visibility: inherit;" fill="rgb(0, 0, 0)" stroke="rgb(204, 204, 204)" stroke-width="1px"></line><line x1="63.984375" y1="48.000000000000036" x2="58.984375" y2="48.000000000000036" style="visibility: inherit;" fill="rgb(0, 0, 0)" stroke="rgb(204, 204, 204)" stroke-width="1px"></line><line x1="63.984375" y1="32.000000000000014" x2="58.984375" y2="32.000000000000014" style="visibility: inherit;" fill="rgb(0, 0, 0)" stroke="rgb(204, 204, 204)" stroke-width="1px"></line><line x1="63.984375" y1="16.000000000000007" x2="58.984375" y2="16.000000000000007" style="visibility: inherit;" fill="rgb(0, 0, 0)" stroke="rgb(204, 204, 204)" stroke-width="1px"></line><line x1="63.984375" y1="0" x2="58.984375" y2="0" style="visibility: inherit;" fill="rgb(0, 0, 0)" stroke="rgb(204, 204, 204)" stroke-width="1px"></line></g><g transform="translate(53.984375, 0)"><text x="0" y="176" dx="0em" dy="0.3em" style="text-anchor: end; visibility: hidden; font-family: Roboto, sans-serif; font-size: 12px; font-weight: 200;" fill="rgb(33, 33, 33)" stroke="none" stroke-width="1px">0.094</text><text x="0" y="160" dx="0em" dy="0.3em" style="text-anchor: end; visibility: inherit; font-family: Roboto, sans-serif; font-size: 12px; font-weight: 200;" fill="rgb(33, 33, 33)" stroke="none" stroke-width="1px">0.096</text><text x="0" y="144" dx="0em" dy="0.3em" style="text-anchor: end; visibility: hidden; font-family: Roboto, sans-serif; font-size: 12px; font-weight: 200;" fill="rgb(33, 33, 33)" stroke="none" stroke-width="1px">0.098</text><text x="0" y="127.99999999999997" dx="0em" dy="0.3em" style="text-anchor: end; visibility: inherit; font-family: Roboto, sans-serif; font-size: 12px; font-weight: 200;" fill="rgb(33, 33, 33)" stroke="none" stroke-width="1px">0.1</text><text x="0" y="112.00000000000006" dx="0em" dy="0.3em" style="text-anchor: end; visibility: hidden; font-family: Roboto, sans-serif; font-size: 12px; font-weight: 200;" fill="rgb(33, 33, 33)" stroke="none" stroke-width="1px">0.102</text><text x="0" y="96.00000000000007" dx="0em" dy="0.3em" style="text-anchor: end; visibility: inherit; font-family: Roboto, sans-serif; font-size: 12px; font-weight: 200;" fill="rgb(33, 33, 33)" stroke="none" stroke-width="1px">0.104</text><text x="0" y="80.00000000000004" dx="0em" dy="0.3em" style="text-anchor: end; visibility: hidden; font-family: Roboto, sans-serif; font-size: 12px; font-weight: 200;" fill="rgb(33, 33, 33)" stroke="none" stroke-width="1px">0.106</text><text x="0" y="64.00000000000004" dx="0em" dy="0.3em" style="text-anchor: end; visibility: inherit; font-family: Roboto, sans-serif; font-size: 12px; font-weight: 200;" fill="rgb(33, 33, 33)" stroke="none" stroke-width="1px">0.108</text><text x="0" y="48.000000000000036" dx="0em" dy="0.3em" style="text-anchor: end; visibility: hidden; font-family: Roboto, sans-serif; font-size: 12px; font-weight: 200;" fill="rgb(33, 33, 33)" stroke="none" stroke-width="1px">0.11</text><text x="0" y="32.000000000000014" dx="0em" dy="0.3em" style="text-anchor: end; visibility: inherit; font-family: Roboto, sans-serif; font-size: 12px; font-weight: 200;" fill="rgb(33, 33, 33)" stroke="none" stroke-width="1px">0.112</text><text x="0" y="16.000000000000007" dx="0em" dy="0.3em" style="text-anchor: end; visibility: hidden; font-family: Roboto, sans-serif; font-size: 12px; font-weight: 200;" fill="rgb(33, 33, 33)" stroke="none" stroke-width="1px">0.114</text><text x="0" y="0" dx="0em" dy="0.3em" style="text-anchor: end; visibility: hidden; font-family: Roboto, sans-serif; font-size: 12px; font-weight: 200;" fill="rgb(33, 33, 33)" stroke="none" stroke-width="1px">0.116</text></g><line x1="63.984375" y1="0" x2="63.984375" y2="176" fill="rgb(0, 0, 0)" stroke="rgb(204, 204, 204)" stroke-width="1px"></line></g></g><g transform="translate(63, 0)" clip-path="url(#clip_0)"><clipPath id="clip_0"><rect width="266" height="176"></rect></clipPath><g><g><g><line x1="0" y1="0" x2="0" y2="176" fill="rgb(0, 0, 0)" stroke="rgb(66, 66, 66)" stroke-width="1px" opacity="0.25"></line><line x1="22.16796875" y1="0" x2="22.16796875" y2="176" fill="rgb(0, 0, 0)" stroke="rgb(66, 66, 66)" stroke-width="1px" opacity="0.25"></line><line x1="44.3359375" y1="0" x2="44.3359375" y2="176" fill="rgb(0, 0, 0)" stroke="rgb(66, 66, 66)" stroke-width="1px" opacity="0.25"></line><line x1="66.50390625" y1="0" x2="66.50390625" y2="176" fill="rgb(0, 0, 0)" stroke="rgb(66, 66, 66)" stroke-width="1px" opacity="0.25"></line><line x1="88.671875" y1="0" x2="88.671875" y2="176" fill="rgb(0, 0, 0)" stroke="rgb(66, 66, 66)" stroke-width="1px" opacity="0.25"></line><line x1="110.83984375" y1="0" x2="110.83984375" y2="176" fill="rgb(0, 0, 0)" stroke="rgb(66, 66, 66)" stroke-width="1px" opacity="0.25"></line><line x1="133.0078125" y1="0" x2="133.0078125" y2="176" fill="rgb(0, 0, 0)" stroke="rgb(66, 66, 66)" stroke-width="1px" opacity="0.25"></line><line x1="155.17578125" y1="0" x2="155.17578125" y2="176" fill="rgb(0, 0, 0)" stroke="rgb(66, 66, 66)" stroke-width="1px" opacity="0.25"></line><line x1="177.34375" y1="0" x2="177.34375" y2="176" fill="rgb(0, 0, 0)" stroke="rgb(66, 66, 66)" stroke-width="1px" opacity="0.25"></line><line x1="199.51171875" y1="0" x2="199.51171875" y2="176" fill="rgb(0, 0, 0)" stroke="rgb(66, 66, 66)" stroke-width="1px" opacity="0.25"></line><line x1="221.6796875" y1="0" x2="221.6796875" y2="176" fill="rgb(0, 0, 0)" stroke="rgb(66, 66, 66)" stroke-width="1px" opacity="0.25"></line><line x1="243.84765625" y1="0" x2="243.84765625" y2="176" fill="rgb(0, 0, 0)" stroke="rgb(66, 66, 66)" stroke-width="1px" opacity="0.25"></line><line x1="266.015625" y1="0" x2="266.015625" y2="176" fill="rgb(0, 0, 0)" stroke="rgb(66, 66, 66)" stroke-width="1px" opacity="0.25"></line></g><g><line x1="0" y1="176" x2="266.015625" y2="176" fill="rgb(0, 0, 0)" stroke="rgb(66, 66, 66)" stroke-width="1px" opacity="0.25"></line><line x1="0" y1="160" x2="266.015625" y2="160" fill="rgb(0, 0, 0)" stroke="rgb(66, 66, 66)" stroke-width="1px" opacity="0.25"></line><line x1="0" y1="144" x2="266.015625" y2="144" fill="rgb(0, 0, 0)" stroke="rgb(66, 66, 66)" stroke-width="1px" opacity="0.25"></line><line x1="0" y1="127.99999999999997" x2="266.015625" y2="127.99999999999997" fill="rgb(0, 0, 0)" stroke="rgb(66, 66, 66)" stroke-width="1px" opacity="0.25"></line><line x1="0" y1="112.00000000000006" x2="266.015625" y2="112.00000000000006" fill="rgb(0, 0, 0)" stroke="rgb(66, 66, 66)" stroke-width="1px" opacity="0.25"></line><line x1="0" y1="96.00000000000007" x2="266.015625" y2="96.00000000000007" fill="rgb(0, 0, 0)" stroke="rgb(66, 66, 66)" stroke-width="1px" opacity="0.25"></line><line x1="0" y1="80.00000000000004" x2="266.015625" y2="80.00000000000004" fill="rgb(0, 0, 0)" stroke="rgb(66, 66, 66)" stroke-width="1px" opacity="0.25"></line><line x1="0" y1="64.00000000000004" x2="266.015625" y2="64.00000000000004" fill="rgb(0, 0, 0)" stroke="rgb(66, 66, 66)" stroke-width="1px" opacity="0.25"></line><line x1="0" y1="48.000000000000036" x2="266.015625" y2="48.000000000000036" fill="rgb(0, 0, 0)" stroke="rgb(66, 66, 66)" stroke-width="1px" opacity="0.25"></line><line x1="0" y1="32.000000000000014" x2="266.015625" y2="32.000000000000014" fill="rgb(0, 0, 0)" stroke="rgb(66, 66, 66)" stroke-width="1px" opacity="0.25"></line><line x1="0" y1="16.000000000000007" x2="266.015625" y2="16.000000000000007" fill="rgb(0, 0, 0)" stroke="rgb(66, 66, 66)" stroke-width="1px" opacity="0.25"></line><line x1="0" y1="0" x2="266.015625" y2="0" fill="rgb(0, 0, 0)" stroke="rgb(66, 66, 66)" stroke-width="1px" opacity="0.25"></line></g></g></g><g><g><line x1="0" y1="927.9999999999998" x2="266.015625" y2="927.9999999999998" fill="rgb(0, 0, 0)" stroke="rgb(153, 153, 153)" stroke-width="1.5px"></line></g></g><g><g><line x1="22.16796875" y1="0" x2="22.16796875" y2="176" fill="rgb(0, 0, 0)" stroke="rgb(153, 153, 153)" stroke-width="1.5px"></line></g></g><g><g><g><g><g><path stroke="rgb(255, 112, 67)" stroke-width="2px" d="M28.818359375,-0.5485448213704487L29.9267578125,62.840859670510206L31.03515625,93.30154580819948L32.1435546875,90.98940881216674L33.251953125,95.13193360187142L34.3603515625,80.61499430001194L35.46875,65.27766931586741L36.5771484375,57.72275741391317L37.685546875,62.36123229780519L38.7939453125,61.147864237145996L39.90234375,54.45381711568086L41.0107421875,58.910423888891316L42.119140625,51.43184544094557L43.2275390625,43.36461066724672L44.3359375,46.28720497347115L45.4443359375,42.49667201366046L46.552734375,29.01448663441762L47.6611328125,47.38094796517255L48.76953125,38.55035997474032L49.8779296875,20.848796640235086L50.986328125,32.790313941040814L52.0947265625,9.830277726881837L53.203125,3.2389239638441722L54.3115234375,11.334318245201706L55.419921875,24.324727691947587L56.5283203125,27.221638680946068L57.63671875,21.024093517022834L58.7451171875,34.717657867318714L59.853515625,18.038127315928357L60.9619140625,32.21327771050851L62.0703125,35.46727005800052L63.1787109375,26.91296391057162L64.287109375,22.98444176864522L65.3955078125,30.593988060928723L66.50390625,20.761498604968775L67.6123046875,15.64673585168908L68.720703125,36.64239523510648L69.8291015625,32.829559263681254L70.9375,34.75986381629469L72.0458984375,30.170871330376315L73.154296875,40.195948740318386L74.2626953125,38.48210858128497L75.37109375,41.1773066451083L76.4794921875,39.81683969078209L77.587890625,55.782223412986994L78.6962890625,57.48760854578626L79.8046875,36.124789401091306L80.9130859375,41.24120569480192L82.021484375,38.75091962964727L83.1298828125,37.2344558534099L84.23828125,53.1047632871373L85.3466796875,52.92407451738744L86.455078125,53.39070302647252L87.5634765625,59.17557438851571L88.671875,65.44967980767034L89.7802734375,94.78451182594836L90.888671875,123.92951942772288L91.9970703125,116.34914689833285L93.10546875,115.68111423000312L94.2138671875,125.39706251230616L95.322265625,146.75032742742764L96.4306640625,156.9060173030143L97.5390625,139.63636550876166L98.6474609375,146.02762809737132L99.755859375,128.9992817839599L100.8642578125,121.33745359186018L101.97265625,136.1854183602553L103.0810546875,128.19895071555496L104.189453125,152.1696252511104L105.2978515625,156.81453836477752L106.40625,147.06243326972108L107.5146484375,127.29756261533605L108.623046875,140.25725136772456L109.7314453125,136.0325277005175L110.83984375,139.8510241123759L111.9482421875,147.51624362544567L113.056640625,149.6408527426501L114.1650390625,154.4151738007414L115.2734375,165.01830899235898L116.3818359375,149.1520206661063L117.490234375,148.11963914221744L118.5986328125,148.23937934867277L119.70703125,161.1250776900753L120.8154296875,177.51695621334937L121.923828125,170.4657059927191L123.0322265625,167.12969310399325L124.140625,163.9110062081601L125.2490234375,152.18481974357275L126.357421875,139.7284707340831L127.4658203125,136.41766429622376L128.57421875,141.01465650009754L129.6826171875,125.78815161947996L130.791015625,109.2481597171103L131.8994140625,102.78910178577148L133.0078125,112.33513099333788L134.1162109375,115.47059020031178L135.224609375,108.22720523255278L136.3330078125,110.00273816333537L137.44140625,113.57302656499343L138.5498046875,104.03032888607852L139.658203125,93.30137718699382L140.7666015625,112.73935998071437L141.875,100.08905742519622L142.9833984375,108.31580284806205L144.091796875,108.0645770762689L145.2001953125,130.02580583896204L146.30859375,121.26131041530348L147.4169921875,127.18859300424808L148.525390625,138.5415123546729L149.6337890625,136.0051337387925L150.7421875,134.49103133122716L151.8505859375,133.69529419088718L152.958984375,122.31542327966913L154.0673828125,130.8194366155065L155.17578125,129.4832316790818L156.2841796875,133.4479252669095L157.392578125,153.12098141746995L158.5009765625,147.34392445228858L159.609375,135.8294658240221L160.7177734375,159.25399968484297L161.826171875,170.05738199626947L162.9345703125,129.7629020981524L164.04296875,131.1094952566942L165.1513671875,129.35721708199506L166.259765625,123.97008910692405L167.3681640625,133.07637910197187L168.4765625,130.02531964868308L169.5849609375,124.5005311446786L170.693359375,130.71398503049622L171.8017578125,131.8627498058343L172.91015625,114.157657665483L174.0185546875,99.14767668394549L175.126953125,100.93594621269884L176.2353515625,113.85289920955296L177.34375,95.82577875607842L178.4521484375,107.99424960227985L179.560546875,89.88608661897288L180.6689453125,76.9667359328706L181.77734375,81.16619058468575L182.8857421875,69.91945540916109L183.994140625,87.5689543963146L185.1025390625,78.7644706297321L186.2109375,89.0654385881665L187.3193359375,81.66939258557814L188.427734375,62.957453918351256L189.5361328125,55.244580573972186L190.64453125,46.05509852596289L191.7529296875,31.993554873634423L192.861328125,48.7580685397203L193.9697265625,46.77647160173747L195.078125,38.36848496604738L196.1865234375,28.50136727815132L197.294921875,23.399659173043094L198.4033203125,25.060538110942662L199.51171875,19.357050405628073L200.6201171875,34.30611066024702L201.728515625,5.756282591826922L202.8369140625,-7.427476820941354L203.9453125,8.470866049769088L205.0537109375,14.358872702981628L206.162109375,21.132881910363214L207.2705078125,16.562243336891715L208.37890625,6.638025018248401L209.4873046875,7.753916199608744L210.595703125,21.623781642677976L211.7041015625,33.90154197297255L212.8125,38.58768192816829L213.9208984375,36.21910238199875L215.029296875,47.477817630371156L216.1376953125,53.23218942618411L217.24609375,51.287588077402404L218.3544921875,37.51585156775493L219.462890625,43.05579103861433L220.5712890625,58.506796537841495L221.6796875,59.65445500552966L222.7880859375,61.09099301064213L223.896484375,65.39613309123636L225.0048828125,55.95567282806957L226.11328125,60.27183680993984L227.2216796875,77.49144757546587L228.330078125,71.84707115148079L229.4384765625,87.11960781845194L230.546875,73.33465016622984L231.6552734375,73.00015323602948L232.763671875,72.13486328866357L233.8720703125,74.9742203184741L234.98046875,65.93037798576215L236.0888671875,55.83652822120587L237.197265625,65.00236248936419L238.3056640625,64.3235793588529L239.4140625,57.05247700679116L240.5224609375,66.76032645981209L241.630859375,63.36982426333846L242.7392578125,76.71001654439222L243.84765625,44.214134774047444" style="fill: none;" fill="none"></path></g></g></g></g><g opacity="0.2"><g><g><g><path stroke="rgb(255, 112, 67)" stroke-width="2px" d="M26.6015625,-114.01292991638176L27.7099609375,130.3555636405945L28.818359375,175.6680874824524L29.9267578125,153.48872232437134L31.03515625,137.71351861953738L32.1435546875,87.57945585250857L33.251953125,101.28310012817386L34.3603515625,58.971252918243444L35.46875,42.35514688491824L36.5771484375,46.4150576591492L37.685546875,69.30985736846927L38.7939453125,59.32923841476444L39.90234375,44.41746759414677L41.0107421875,65.59344816207889L42.119140625,40.215876579284696L43.2275390625,31.26498746871953L44.3359375,50.67082929611209L45.4443359375,36.81108045578006L46.552734375,8.791652202606254L47.6611328125,74.93027734756471L48.76953125,25.304582595825238L49.8779296875,-5.703422546386687L50.986328125,50.70253896713261L52.0947265625,-24.6097178459167L53.203125,-6.648096561431817L54.3115234375,23.477402210235635L55.419921875,43.81033468246464L56.5283203125,31.567004203796422L57.63671875,11.727777004241993L58.7451171875,55.258002758026144L59.853515625,-6.9811673164367L60.9619140625,53.47600269317631L62.0703125,40.34825849533084L63.1787109375,14.081504821777395L64.287109375,17.09165859222417L65.3955078125,42.00830745697024L66.50390625,6.01276445388798L67.6123046875,7.974591732025184L68.720703125,68.13588428497317L69.8291015625,27.110305309295697L70.9375,37.6553206443787L72.0458984375,23.287382602691686L73.154296875,55.23356485366824L74.2626953125,35.91134834289554L75.37109375,45.22010374069218L76.4794921875,37.77613925933841L77.587890625,79.7302989959717L78.6962890625,60.04568624496464L79.8046875,4.080560684204142L80.9130859375,48.91583013534549L82.021484375,35.01549053192143L83.1298828125,34.95976018905644L84.23828125,76.91022443771365L85.3466796875,52.65304136276248L86.455078125,54.090645790100126L87.5634765625,67.85288143157962L88.671875,74.86083793640141L89.7802734375,138.78675985336304L90.888671875,167.6470308303833L91.9970703125,104.97858810424808L93.10546875,114.67906522750857L94.2138671875,139.97098493576053L95.322265625,178.7802248001099L96.4306640625,172.13955211639404L97.5390625,113.73188781738283L98.6474609375,155.61452198028564L99.755859375,103.45676231384277L100.8642578125,109.84471130371097L101.97265625,158.4573655128479L103.0810546875,116.21924924850465L104.189453125,188.12563705444336L105.2978515625,163.78190803527832L106.40625,132.43427562713626L107.5146484375,97.65025663375857L108.623046875,159.69678449630737L109.7314453125,129.69544219970706L110.83984375,145.5787687301636L111.9482421875,159.01407289505005L113.056640625,152.82776641845703L114.1650390625,161.57665538787842L115.2734375,180.92301177978516L116.3818359375,125.35258817672731L117.490234375,146.57106685638428L118.5986328125,148.41898965835574L119.70703125,180.45362520217896L120.8154296875,202.1047739982605L121.923828125,159.88883066177368L123.0322265625,162.12567377090454L124.140625,159.0829758644104L125.2490234375,134.5955400466919L126.357421875,121.04394721984863L127.4658203125,131.45145463943484L128.57421875,147.9101448059082L129.6826171875,102.94839429855348L130.791015625,84.43817186355594L131.8994140625,93.10051488876344L133.0078125,126.65417480468751L134.1162109375,120.17377901077272L135.224609375,97.36212778091432L136.3330078125,112.66603755950928L137.44140625,118.92845916748048L138.5498046875,89.71628236770633L139.658203125,77.20794963836673L140.7666015625,141.89633417129517L141.875,81.11360359191897L142.9833984375,120.65592098236084L144.091796875,107.68773841857913L145.2001953125,162.9676489830017L146.30859375,108.1145672798157L147.4169921875,136.07951688766482L148.525390625,155.57089138031006L149.6337890625,132.20056581497195L150.7421875,132.21987771987918L151.8505859375,132.50168848037723L152.958984375,105.24561691284181L154.0673828125,143.5754566192627L155.17578125,127.4789242744446L156.2841796875,139.39496564865112L157.392578125,182.63056564331055L158.5009765625,138.6783390045166L159.609375,118.55777788162234L160.7177734375,194.39080047607422L161.826171875,186.26245546340942L162.9345703125,69.32118225097658L164.04296875,133.12938499450684L165.1513671875,126.7287998199463L166.259765625,115.88939714431766L167.3681640625,146.73581409454349L168.4765625,125.44873046875L169.5849609375,116.21334838867189L170.693359375,140.0341658592224L171.8017578125,133.58589696884155L172.91015625,87.60001945495608L174.0185546875,76.63270521163943L175.126953125,103.61835050582887L176.2353515625,133.22832870483398L177.34375,68.78509807586673L178.4521484375,126.24695587158205L179.560546875,62.72384214401248L180.6689453125,57.58770990371708L181.77734375,87.46537256240848L182.8857421875,53.04935264587406L183.994140625,114.04320287704469L185.1025390625,65.55774497985844L186.2109375,104.5168905258179L187.3193359375,70.57532358169559L188.427734375,34.88954591751103L189.5361328125,43.67527055740361L190.64453125,32.27087545394902L191.7529296875,10.901239395141644L192.861328125,73.90483903884889L193.9697265625,43.80407619476322L195.078125,25.756505012512243L196.1865234375,13.700690746307421L197.294921875,15.747097015380904L198.4033203125,27.55185651779178L199.51171875,10.801818847656286L200.6201171875,56.72970104217532L201.728515625,-37.06845951080315L202.8369140625,-27.203115940093955L203.9453125,32.318380355835L205.0537109375,23.190882682800332L206.162109375,31.29389572143559L207.2705078125,9.706285476684624L208.37890625,-8.248302459716736L209.4873046875,9.42775297164922L210.595703125,42.42857980728152L211.7041015625,52.31818246841435L212.8125,45.61689186096195L213.9208984375,32.66623306274418L215.029296875,64.36589050292972L216.1376953125,61.86374711990361L217.24609375,48.37068605422977L218.3544921875,16.85824680328374L219.462890625,51.3657002449036L220.5712890625,81.68330478668216L221.6796875,61.37594270706181L222.7880859375,63.24580001831057L223.896484375,71.85384321212771L225.0048828125,41.794982433319134L226.11328125,66.74608278274539L227.2216796875,103.32086372375491L228.330078125,63.380506515502965L229.4384765625,110.02841281890872L230.546875,52.657213687896764L231.6552734375,72.49840784072879L232.763671875,70.83692836761477L233.8720703125,79.23325586318973L234.98046875,52.36461448669438L236.0888671875,40.695753574371366L237.197265625,78.75111389160159L238.3056640625,63.305404663085966L239.4140625,46.14582347869877L240.5224609375,81.32210063934329L241.630859375,58.284070968627965L242.7392578125,96.72030496597293L243.84765625,-4.529687881469659" style="fill: none;" fill="none"></path></g></g></g></g></g></g><g transform="translate(63, 176)" clip-path="url(#clip_1)"><clipPath id="clip_1"><rect width="266" height="24"></rect></clipPath><g><g><line x1="0" y1="0" x2="0" y2="5" style="visibility: inherit;" fill="rgb(0, 0, 0)" stroke="rgb(204, 204, 204)" stroke-width="1px"></line><line x1="22.16796875" y1="0" x2="22.16796875" y2="5" style="visibility: inherit;" fill="rgb(0, 0, 0)" stroke="rgb(204, 204, 204)" stroke-width="1px"></line><line x1="44.3359375" y1="0" x2="44.3359375" y2="5" style="visibility: inherit;" fill="rgb(0, 0, 0)" stroke="rgb(204, 204, 204)" stroke-width="1px"></line><line x1="66.50390625" y1="0" x2="66.50390625" y2="5" style="visibility: inherit;" fill="rgb(0, 0, 0)" stroke="rgb(204, 204, 204)" stroke-width="1px"></line><line x1="88.671875" y1="0" x2="88.671875" y2="5" style="visibility: inherit;" fill="rgb(0, 0, 0)" stroke="rgb(204, 204, 204)" stroke-width="1px"></line><line x1="110.83984375" y1="0" x2="110.83984375" y2="5" style="visibility: inherit;" fill="rgb(0, 0, 0)" stroke="rgb(204, 204, 204)" stroke-width="1px"></line><line x1="133.0078125" y1="0" x2="133.0078125" y2="5" style="visibility: inherit;" fill="rgb(0, 0, 0)" stroke="rgb(204, 204, 204)" stroke-width="1px"></line><line x1="155.17578125" y1="0" x2="155.17578125" y2="5" style="visibility: inherit;" fill="rgb(0, 0, 0)" stroke="rgb(204, 204, 204)" stroke-width="1px"></line><line x1="177.34375" y1="0" x2="177.34375" y2="5" style="visibility: inherit;" fill="rgb(0, 0, 0)" stroke="rgb(204, 204, 204)" stroke-width="1px"></line><line x1="199.51171875" y1="0" x2="199.51171875" y2="5" style="visibility: inherit;" fill="rgb(0, 0, 0)" stroke="rgb(204, 204, 204)" stroke-width="1px"></line><line x1="221.6796875" y1="0" x2="221.6796875" y2="5" style="visibility: inherit;" fill="rgb(0, 0, 0)" stroke="rgb(204, 204, 204)" stroke-width="1px"></line><line x1="243.84765625" y1="0" x2="243.84765625" y2="5" style="visibility: inherit;" fill="rgb(0, 0, 0)" stroke="rgb(204, 204, 204)" stroke-width="1px"></line><line x1="266.015625" y1="0" x2="266.015625" y2="5" style="visibility: inherit;" fill="rgb(0, 0, 0)" stroke="rgb(204, 204, 204)" stroke-width="1px"></line></g><g transform="translate(0, 8)"><text x="0" y="0" dx="0em" dy="0.95em" style="text-anchor: middle; visibility: hidden; font-family: Roboto, sans-serif; font-size: 12px; font-weight: 200;" fill="rgb(33, 33, 33)" stroke="none" stroke-width="1px">-20</text><text x="22.16796875" y="0" dx="0em" dy="0.95em" style="text-anchor: middle; visibility: inherit; font-family: Roboto, sans-serif; font-size: 12px; font-weight: 200;" fill="rgb(33, 33, 33)" stroke="none" stroke-width="1px">0</text><text x="44.3359375" y="0" dx="0em" dy="0.95em" style="text-anchor: middle; visibility: hidden; font-family: Roboto, sans-serif; font-size: 12px; font-weight: 200;" fill="rgb(33, 33, 33)" stroke="none" stroke-width="1px">20</text><text x="66.50390625" y="0" dx="0em" dy="0.95em" style="text-anchor: middle; visibility: inherit; font-family: Roboto, sans-serif; font-size: 12px; font-weight: 200;" fill="rgb(33, 33, 33)" stroke="none" stroke-width="1px">40</text><text x="88.671875" y="0" dx="0em" dy="0.95em" style="text-anchor: middle; visibility: hidden; font-family: Roboto, sans-serif; font-size: 12px; font-weight: 200;" fill="rgb(33, 33, 33)" stroke="none" stroke-width="1px">60</text><text x="110.83984375" y="0" dx="0em" dy="0.95em" style="text-anchor: middle; visibility: inherit; font-family: Roboto, sans-serif; font-size: 12px; font-weight: 200;" fill="rgb(33, 33, 33)" stroke="none" stroke-width="1px">80</text><text x="133.0078125" y="0" dx="0em" dy="0.95em" style="text-anchor: middle; visibility: hidden; font-family: Roboto, sans-serif; font-size: 12px; font-weight: 200;" fill="rgb(33, 33, 33)" stroke="none" stroke-width="1px">100</text><text x="155.17578125" y="0" dx="0em" dy="0.95em" style="text-anchor: middle; visibility: inherit; font-family: Roboto, sans-serif; font-size: 12px; font-weight: 200;" fill="rgb(33, 33, 33)" stroke="none" stroke-width="1px">120</text><text x="177.34375" y="0" dx="0em" dy="0.95em" style="text-anchor: middle; visibility: hidden; font-family: Roboto, sans-serif; font-size: 12px; font-weight: 200;" fill="rgb(33, 33, 33)" stroke="none" stroke-width="1px">140</text><text x="199.51171875" y="0" dx="0em" dy="0.95em" style="text-anchor: middle; visibility: inherit; font-family: Roboto, sans-serif; font-size: 12px; font-weight: 200;" fill="rgb(33, 33, 33)" stroke="none" stroke-width="1px">160</text><text x="221.6796875" y="0" dx="0em" dy="0.95em" style="text-anchor: middle; visibility: hidden; font-family: Roboto, sans-serif; font-size: 12px; font-weight: 200;" fill="rgb(33, 33, 33)" stroke="none" stroke-width="1px">180</text><text x="243.84765625" y="0" dx="0em" dy="0.95em" style="text-anchor: middle; visibility: inherit; font-family: Roboto, sans-serif; font-size: 12px; font-weight: 200;" fill="rgb(33, 33, 33)" stroke="none" stroke-width="1px">200</text><text x="266.015625" y="0" dx="0em" dy="0.95em" style="text-anchor: middle; visibility: hidden; font-family: Roboto, sans-serif; font-size: 12px; font-weight: 200;" fill="rgb(33, 33, 33)" stroke="none" stroke-width="1px">220</text></g><line x1="0" y1="0" x2="266.015625" y2="0" fill="rgb(0, 0, 0)" stroke="rgb(204, 204, 204)" stroke-width="1px"></line></g></g></g></g></svg>