<svg viewBox="0 0 329.9884338378906 199.98843383789062" xmlns="http://www.w3.org/2000/svg"><g><g><g><g><g><line x1="74.78125" y1="175.988" x2="69.78125" y2="175.988" style="visibility: inherit;" fill="rgb(0, 0, 0)" stroke="rgb(204, 204, 204)" stroke-width="1px"></line><line x1="74.78125" y1="159.9890909090909" x2="69.78125" y2="159.9890909090909" style="visibility: inherit;" fill="rgb(0, 0, 0)" stroke="rgb(204, 204, 204)" stroke-width="1px"></line><line x1="74.78125" y1="143.9901818181818" x2="69.78125" y2="143.9901818181818" style="visibility: inherit;" fill="rgb(0, 0, 0)" stroke="rgb(204, 204, 204)" stroke-width="1px"></line><line x1="74.78125" y1="127.99127272727273" x2="69.78125" y2="127.99127272727273" style="visibility: inherit;" fill="rgb(0, 0, 0)" stroke="rgb(204, 204, 204)" stroke-width="1px"></line><line x1="74.78125" y1="111.99236363636363" x2="69.78125" y2="111.99236363636363" style="visibility: inherit;" fill="rgb(0, 0, 0)" stroke="rgb(204, 204, 204)" stroke-width="1px"></line><line x1="74.78125" y1="95.99345454545454" x2="69.78125" y2="95.99345454545454" style="visibility: inherit;" fill="rgb(0, 0, 0)" stroke="rgb(204, 204, 204)" stroke-width="1px"></line><line x1="74.78125" y1="79.99454545454546" x2="69.78125" y2="79.99454545454546" style="visibility: inherit;" fill="rgb(0, 0, 0)" stroke="rgb(204, 204, 204)" stroke-width="1px"></line><line x1="74.78125" y1="63.995636363636365" x2="69.78125" y2="63.995636363636365" style="visibility: inherit;" fill="rgb(0, 0, 0)" stroke="rgb(204, 204, 204)" stroke-width="1px"></line><line x1="74.78125" y1="47.99672727272729" x2="69.78125" y2="47.99672727272729" style="visibility: inherit;" fill="rgb(0, 0, 0)" stroke="rgb(204, 204, 204)" stroke-width="1px"></line><line x1="74.78125" y1="31.99781818181817" x2="69.78125" y2="31.99781818181817" style="visibility: inherit;" fill="rgb(0, 0, 0)" stroke="rgb(204, 204, 204)" stroke-width="1px"></line><line x1="74.78125" y1="15.998909090909097" x2="69.78125" y2="15.998909090909097" style="visibility: inherit;" fill="rgb(0, 0, 0)" stroke="rgb(204, 204, 204)" stroke-width="1px"></line><line x1="74.78125" y1="0" x2="69.78125" y2="0" style="visibility: inherit;" fill="rgb(0, 0, 0)" stroke="rgb(204, 204, 204)" stroke-width="1px"></line></g><g transform="translate(64.78125, 0)"><text x="0" y="175.988" dx="0em" dy="0.3em" style="text-anchor: end; visibility: hidden; font-family: Roboto, sans-serif; font-size: 12px; font-weight: 200;" fill="rgb(33, 33, 33)" stroke="none" stroke-width="1px">-5e-6</text><text x="0" y="159.9890909090909" dx="0em" dy="0.3em" style="text-anchor: end; visibility: inherit; font-family: Roboto, sans-serif; font-size: 12px; font-weight: 200;" fill="rgb(33, 33, 33)" stroke="none" stroke-width="1px">0</text><text x="0" y="143.9901818181818" dx="0em" dy="0.3em" style="text-anchor: end; visibility: hidden; font-family: Roboto, sans-serif; font-size: 12px; font-weight: 200;" fill="rgb(33, 33, 33)" stroke="none" stroke-width="1px">5e-6</text><text x="0" y="127.99127272727273" dx="0em" dy="0.3em" style="text-anchor: end; visibility: inherit; font-family: Roboto, sans-serif; font-size: 12px; font-weight: 200;" fill="rgb(33, 33, 33)" stroke="none" stroke-width="1px">1e-5</text><text x="0" y="111.99236363636363" dx="0em" dy="0.3em" style="text-anchor: end; visibility: hidden; font-family: Roboto, sans-serif; font-size: 12px; font-weight: 200;" fill="rgb(33, 33, 33)" stroke="none" stroke-width="1px">1.5e-5</text><text x="0" y="95.99345454545454" dx="0em" dy="0.3em" style="text-anchor: end; visibility: inherit; font-family: Roboto, sans-serif; font-size: 12px; font-weight: 200;" fill="rgb(33, 33, 33)" stroke="none" stroke-width="1px">2e-5</text><text x="0" y="79.99454545454546" dx="0em" dy="0.3em" style="text-anchor: end; visibility: hidden; font-family: Roboto, sans-serif; font-size: 12px; font-weight: 200;" fill="rgb(33, 33, 33)" stroke="none" stroke-width="1px">2.5e-5</text><text x="0" y="63.995636363636365" dx="0em" dy="0.3em" style="text-anchor: end; visibility: inherit; font-family: Roboto, sans-serif; font-size: 12px; font-weight: 200;" fill="rgb(33, 33, 33)" stroke="none" stroke-width="1px">3e-5</text><text x="0" y="47.99672727272729" dx="0em" dy="0.3em" style="text-anchor: end; visibility: hidden; font-family: Roboto, sans-serif; font-size: 12px; font-weight: 200;" fill="rgb(33, 33, 33)" stroke="none" stroke-width="1px">3.5e-5</text><text x="0" y="31.99781818181817" dx="0em" dy="0.3em" style="text-anchor: end; visibility: inherit; font-family: Roboto, sans-serif; font-size: 12px; font-weight: 200;" fill="rgb(33, 33, 33)" stroke="none" stroke-width="1px">4e-5</text><text x="0" y="15.998909090909097" dx="0em" dy="0.3em" style="text-anchor: end; visibility: hidden; font-family: Roboto, sans-serif; font-size: 12px; font-weight: 200;" fill="rgb(33, 33, 33)" stroke="none" stroke-width="1px">4.5e-5</text><text x="0" y="0" dx="0em" dy="0.3em" style="text-anchor: end; visibility: hidden; font-family: Roboto, sans-serif; font-size: 12px; font-weight: 200;" fill="rgb(33, 33, 33)" stroke="none" stroke-width="1px">5e-5</text></g><line x1="74.78125" y1="0" x2="74.78125" y2="175.988" fill="rgb(0, 0, 0)" stroke="rgb(204, 204, 204)" stroke-width="1px"></line></g></g><g transform="translate(74, 0)" clip-path="url(#clip_0)"><clipPath id="clip_0"><rect width="255" height="175"></rect></clipPath><g><g><g><line x1="0" y1="0" x2="0" y2="175.988" fill="rgb(0, 0, 0)" stroke="rgb(66, 66, 66)" stroke-width="1px" opacity="0.25"></line><line x1="19.631288461538464" y1="0" x2="19.631288461538464" y2="175.988" fill="rgb(0, 0, 0)" stroke="rgb(66, 66, 66)" stroke-width="1px" opacity="0.25"></line><line x1="39.26257692307693" y1="0" x2="39.26257692307693" y2="175.988" fill="rgb(0, 0, 0)" stroke="rgb(66, 66, 66)" stroke-width="1px" opacity="0.25"></line><line x1="58.89386538461539" y1="0" x2="58.89386538461539" y2="175.988" fill="rgb(0, 0, 0)" stroke="rgb(66, 66, 66)" stroke-width="1px" opacity="0.25"></line><line x1="78.52515384615386" y1="0" x2="78.52515384615386" y2="175.988" fill="rgb(0, 0, 0)" stroke="rgb(66, 66, 66)" stroke-width="1px" opacity="0.25"></line><line x1="98.15644230769232" y1="0" x2="98.15644230769232" y2="175.988" fill="rgb(0, 0, 0)" stroke="rgb(66, 66, 66)" stroke-width="1px" opacity="0.25"></line><line x1="117.78773076923078" y1="0" x2="117.78773076923078" y2="175.988" fill="rgb(0, 0, 0)" stroke="rgb(66, 66, 66)" stroke-width="1px" opacity="0.25"></line><line x1="137.41901923076924" y1="0" x2="137.41901923076924" y2="175.988" fill="rgb(0, 0, 0)" stroke="rgb(66, 66, 66)" stroke-width="1px" opacity="0.25"></line><line x1="157.0503076923077" y1="0" x2="157.0503076923077" y2="175.988" fill="rgb(0, 0, 0)" stroke="rgb(66, 66, 66)" stroke-width="1px" opacity="0.25"></line><line x1="176.68159615384616" y1="0" x2="176.68159615384616" y2="175.988" fill="rgb(0, 0, 0)" stroke="rgb(66, 66, 66)" stroke-width="1px" opacity="0.25"></line><line x1="196.31288461538463" y1="0" x2="196.31288461538463" y2="175.988" fill="rgb(0, 0, 0)" stroke="rgb(66, 66, 66)" stroke-width="1px" opacity="0.25"></line><line x1="215.94417307692308" y1="0" x2="215.94417307692308" y2="175.988" fill="rgb(0, 0, 0)" stroke="rgb(66, 66, 66)" stroke-width="1px" opacity="0.25"></line><line x1="235.57546153846155" y1="0" x2="235.57546153846155" y2="175.988" fill="rgb(0, 0, 0)" stroke="rgb(66, 66, 66)" stroke-width="1px" opacity="0.25"></line><line x1="255.20675" y1="0" x2="255.20675" y2="175.988" fill="rgb(0, 0, 0)" stroke="rgb(66, 66, 66)" stroke-width="1px" opacity="0.25"></line></g><g><line x1="0" y1="175.988" x2="255.20675" y2="175.988" fill="rgb(0, 0, 0)" stroke="rgb(66, 66, 66)" stroke-width="1px" opacity="0.25"></line><line x1="0" y1="159.9890909090909" x2="255.20675" y2="159.9890909090909" fill="rgb(0, 0, 0)" stroke="rgb(66, 66, 66)" stroke-width="1px" opacity="0.25"></line><line x1="0" y1="143.9901818181818" x2="255.20675" y2="143.9901818181818" fill="rgb(0, 0, 0)" stroke="rgb(66, 66, 66)" stroke-width="1px" opacity="0.25"></line><line x1="0" y1="127.99127272727273" x2="255.20675" y2="127.99127272727273" fill="rgb(0, 0, 0)" stroke="rgb(66, 66, 66)" stroke-width="1px" opacity="0.25"></line><line x1="0" y1="111.99236363636363" x2="255.20675" y2="111.99236363636363" fill="rgb(0, 0, 0)" stroke="rgb(66, 66, 66)" stroke-width="1px" opacity="0.25"></line><line x1="0" y1="95.99345454545454" x2="255.20675" y2="95.99345454545454" fill="rgb(0, 0, 0)" stroke="rgb(66, 66, 66)" stroke-width="1px" opacity="0.25"></line><line x1="0" y1="79.99454545454546" x2="255.20675" y2="79.99454545454546" fill="rgb(0, 0, 0)" stroke="rgb(66, 66, 66)" stroke-width="1px" opacity="0.25"></line><line x1="0" y1="63.995636363636365" x2="255.20675" y2="63.995636363636365" fill="rgb(0, 0, 0)" stroke="rgb(66, 66, 66)" stroke-width="1px" opacity="0.25"></line><line x1="0" y1="47.99672727272729" x2="255.20675" y2="47.99672727272729" fill="rgb(0, 0, 0)" stroke="rgb(66, 66, 66)" stroke-width="1px" opacity="0.25"></line><line x1="0" y1="31.99781818181817" x2="255.20675" y2="31.99781818181817" fill="rgb(0, 0, 0)" stroke="rgb(66, 66, 66)" stroke-width="1px" opacity="0.25"></line><line x1="0" y1="15.998909090909097" x2="255.20675" y2="15.998909090909097" fill="rgb(0, 0, 0)" stroke="rgb(66, 66, 66)" stroke-width="1px" opacity="0.25"></line><line x1="0" y1="0" x2="255.20675" y2="0" fill="rgb(0, 0, 0)" stroke="rgb(66, 66, 66)" stroke-width="1px" opacity="0.25"></line></g></g></g><g><g><line x1="0" y1="159.9890909090909" x2="255.20675" y2="159.9890909090909" fill="rgb(0, 0, 0)" stroke="rgb(153, 153, 153)" stroke-width="1.5px"></line></g></g><g><g><line x1="19.631288461538464" y1="0" x2="19.631288461538464" y2="175.988" fill="rgb(0, 0, 0)" stroke="rgb(153, 153, 153)" stroke-width="1.5px"></line></g></g><g><g><g><g><g><path stroke="rgb(255, 112, 67)" stroke-width="2px" d="M27.483803846153847,-17.32875137802731L29.446932692307694,3.1905203174975862L31.41006153846154,10.805685974761602L33.373190384615384,48.618343247714556L35.336319230769234,69.75051865036248L37.29944807692308,3.475947397678202L39.26257692307693,63.818324671915505L41.22570576923077,99.86070563187752L43.188834615384614,121.55261325290662L45.151963461538465,134.7099877211184L47.11509230769231,138.7470722856238L49.07822115384616,144.00125278579614L51.04135,147.5365051058534L53.00447884615385,149.61439617559176L54.967607692307695,151.23619145255668L56.93073653846154,152.95916041849284L58.89386538461539,150.82404104464496L60.85699423076923,149.49490890070774L62.82012307692308,148.66610633843024L64.78325192307692,149.76635939289343L66.74638076923077,151.65007355417916L68.70950961538462,153.91500608095353L70.67263846153847,154.85032772590358L72.6357673076923,155.34153113533836L74.59889615384616,155.12176115152278L76.56202499999999,155.7465203148845L78.52515384615386,155.3747337350469L80.48828269230769,154.7088879602167L82.45141153846154,154.44487221017505L84.41454038461538,153.51954426023684L86.37766923076923,154.8792116512304L88.34079807692308,155.5214451555212L90.30392692307693,156.44353301269575L92.26705576923077,156.78765185050355L94.23018461538462,156.4168040733697L96.19331346153847,156.91237662326907L98.15644230769232,157.35604314359267L100.11957115384615,157.72945833080124L102.0827,157.39387232140288L104.04582884615384,157.90512587176732L106.0089576923077,158.06612573455072L107.97208653846154,139.01486392849085L109.93521538461539,143.5698617904411L111.89834423076923,147.8939684390089L113.86147307692308,151.7392764093606L115.82460192307693,154.39757802046765L117.78773076923078,90.08334580859771L119.75085961538461,72.78255081122266L121.71398846153846,72.16924471511548L123.67711730769231,73.75505191012876L125.64024615384616,77.8899545784591L127.603375,84.20505276300707L129.56650384615384,89.73842743814565L131.52963269230767,94.33863779707627L133.49276153846154,90.88739169983026L135.45589038461537,98.05035482314425L137.41901923076924,100.44442728567913L139.38214807692307,105.81209015202614L141.34527692307694,110.07892484892128L143.30840576923077,112.02887054125884L145.2715346153846,113.26969978785236L147.23466346153845,117.39443147233507L149.1977923076923,122.98706882767489L151.16092115384615,120.17042207536052L153.12404999999998,113.31039211720282L155.08717884615385,116.33893440061986L157.0503076923077,116.58423763256378L159.01343653846155,115.83075817737554L160.97656538461538,118.57532204704412L162.93969423076922,122.06745732144302L164.90282307692308,125.76199668062232L166.86595192307692,126.52213332008111L168.82908076923076,126.31262814557059L170.7922096153846,123.09276437969417L172.75533846153846,121.19895556967928L174.71846730769232,124.63118401589924L176.68159615384616,124.61299034539505L178.644725,126.27240486618928L180.60785384615386,125.71192548412681L182.5709826923077,126.36256177739351L184.53411153846153,115.55534823471703L186.49724038461537,118.83362551373003L188.46036923076923,120.00714052375895L190.42349807692307,118.9617222067642L192.38662692307693,120.5497212031615L194.34975576923077,122.31956191483118L196.31288461538463,122.19414012260911L198.27601346153847,126.97421809804766L200.2391423076923,129.65486878365212L202.20227115384614,132.58688100028527L204.1654,132.63079641901058L206.12852884615384,133.12234566467177L208.09165769230768,134.5490704526293L210.05478653846154,135.30442166843557L212.0179153846154,135.29663529210774L213.98104423076924,136.04617331236548L215.94417307692308,138.51084392474516L217.90730192307691,138.99308383823893L219.87043076923078,135.43981711649167L221.83355961538462,125.97010130958122L223.79668846153845,117.12314340235403L225.7598173076923,113.15222409615129L227.72294615384615,113.80456086160147L229.68607500000002,115.08959447328114L231.64920384615385,114.60750311590853L233.6123326923077,112.36509652535243L235.57546153846155,117.52593717167696L237.5385903846154,119.02986864101891L239.50171923076923,118.09910922093479L241.46484807692306,118.61577354619325L243.42797692307693,121.0337701843084L245.39110576923076,117.00818276720311" style="fill: none;" fill="none"></path></g></g></g></g><g opacity="0.2"><g><g><g><path stroke="rgb(255, 112, 67)" stroke-width="2px" d="M21.594417307692307,-519.4811844460735L23.557546153846154,76.50443291647677L25.520675,63.27290608136428L27.483803846153847,8.995233343014156L29.446932692307694,29.980481443174877L31.41006153846154,21.340201538394382L33.373190384615384,102.69104815055363L35.336319230769234,100.56143325630704L37.29944807692308,-94.26617202731103L39.26257692307693,153.41972238214086L41.22570576923077,153.5973753292329L43.188834615384614,153.97242828109128L45.151963461538465,154.40308831294027L47.11509230769231,144.79479006344982L49.07822115384616,151.87634744411105L51.04135,152.8368902521029L53.00447884615385,152.73035348633684L54.967607692307695,153.6684725943589L56.93073653846154,155.5433513904168L58.89386538461539,147.62155714224113L60.85699423076923,147.5012835775675L62.82012307692308,147.42292976711533L64.78325192307692,151.41671725201104L66.74638076923077,154.47562248171766L68.70950961538462,157.31238877294402L70.67263846153847,156.25330620460912L72.6357673076923,156.07833499263563L74.59889615384616,154.79210651319812L76.56202499999999,156.68365848443557L78.52515384615386,154.81705407077135L80.48828269230769,153.7101195187731L82.45141153846154,154.04884863764286L84.41454038461538,152.1315524457951L86.37766923076923,156.91871264033057L88.34079807692308,156.4847953843563L90.30392692307693,157.82666477468055L92.26705576923077,157.30383010189118L94.23018461538462,155.86053241111148L96.19331346153847,157.6557354453579L98.15644230769232,158.02154292259536L100.11957115384615,158.2895811108654L102.0827,156.89049330770905L104.04582884615384,158.67200619694498L106.0089576923077,158.30762552865608L107.97208653846154,110.43797122435178L109.93521538461539,150.40235858265632L111.89834423076923,154.38012841145598L113.86147307692308,157.50723836467236L115.82460192307693,158.3850304370387L117.78773076923078,-6.388002507907596L119.75085961538461,46.83135831536979L121.71398846153846,71.24928557095923L123.67711730769231,76.13376270264175L125.64024615384616,84.09230858094377L127.603375,93.67770003981909L129.56650384615384,98.03848945084832L131.52963269230767,101.23895333546955L133.49276153846154,85.71052255396245L135.45589038461537,108.79479950811377L137.41901923076924,104.03553597948111L139.38214807692307,113.86358445154632L141.34527692307694,116.47917689426379L143.30840576923077,114.95378907976514L145.2715346153846,115.13094365774263L147.23466346153845,123.58152899905912L149.1977923076923,131.37602486068457L151.16092115384615,115.94545194688898L153.12404999999998,103.02034717996625L155.08717884615385,120.88174782574546L157.0503076923077,116.95219248047967L159.01343653846155,114.7005389945932L160.97656538461538,122.69216785154697L162.93969423076922,127.3056602330414L164.90282307692308,131.30380571939125L166.86595192307692,127.66233827926929L168.82908076923076,125.99837038380485L170.7922096153846,118.26296873087954L172.75533846153846,118.35824235465695L174.71846730769232,129.7795266852292L176.68159615384616,124.58569983963875L178.644725,128.76152664738063L180.60785384615386,124.8712064110331L182.5709826923077,127.33851621729355L184.53411153846153,99.34452792070236L186.49724038461537,123.75104143224952L188.46036923076923,121.76741303880233L190.42349807692307,117.39359473127206L192.38662692307693,122.93171969775746L194.34975576923077,124.97432298233575L196.31288461538463,122.00600743427599L198.27601346153847,134.14433506120548L200.2391423076923,133.67584481205887L202.20227115384614,136.984899325235L204.1654,132.69666954709854L206.12852884615384,133.85966953316355L208.09165769230768,136.68915763456565L210.05478653846154,136.43744849214494L212.0179153846154,135.28495572761602L213.98104423076924,137.17048034275211L215.94417307692308,142.20784984331468L217.90730192307691,139.7164437084796L219.87043076923078,130.10991703387074L221.83355961538462,111.7655275992156L223.79668846153845,103.85270654151321L225.7598173076923,107.19584513684714L227.72294615384615,114.78306600977679L229.68607500000002,117.01714489080065L231.64920384615385,113.88436607984963L233.6123326923077,109.00148663951825L235.57546153846155,125.2671981411638L237.5385903846154,121.28576584503183L239.50171923076923,116.7029700908086L241.46484807692306,119.39077003408096L243.42797692307693,124.66076514148112L245.39110576923076,110.96980164154517" style="fill: none;" fill="none"></path></g></g></g></g></g></g><g transform="translate(74, 175)" clip-path="url(#clip_1)"><clipPath id="clip_1"><rect width="255" height="23"></rect></clipPath><g><g><line x1="0" y1="0" x2="0" y2="5" style="visibility: inherit;" fill="rgb(0, 0, 0)" stroke="rgb(204, 204, 204)" stroke-width="1px"></line><line x1="19.631288461538464" y1="0" x2="19.631288461538464" y2="5" style="visibility: inherit;" fill="rgb(0, 0, 0)" stroke="rgb(204, 204, 204)" stroke-width="1px"></line><line x1="39.26257692307693" y1="0" x2="39.26257692307693" y2="5" style="visibility: inherit;" fill="rgb(0, 0, 0)" stroke="rgb(204, 204, 204)" stroke-width="1px"></line><line x1="58.89386538461539" y1="0" x2="58.89386538461539" y2="5" style="visibility: inherit;" fill="rgb(0, 0, 0)" stroke="rgb(204, 204, 204)" stroke-width="1px"></line><line x1="78.52515384615386" y1="0" x2="78.52515384615386" y2="5" style="visibility: inherit;" fill="rgb(0, 0, 0)" stroke="rgb(204, 204, 204)" stroke-width="1px"></line><line x1="98.15644230769232" y1="0" x2="98.15644230769232" y2="5" style="visibility: inherit;" fill="rgb(0, 0, 0)" stroke="rgb(204, 204, 204)" stroke-width="1px"></line><line x1="117.78773076923078" y1="0" x2="117.78773076923078" y2="5" style="visibility: inherit;" fill="rgb(0, 0, 0)" stroke="rgb(204, 204, 204)" stroke-width="1px"></line><line x1="137.41901923076924" y1="0" x2="137.41901923076924" y2="5" style="visibility: inherit;" fill="rgb(0, 0, 0)" stroke="rgb(204, 204, 204)" stroke-width="1px"></line><line x1="157.0503076923077" y1="0" x2="157.0503076923077" y2="5" style="visibility: inherit;" fill="rgb(0, 0, 0)" stroke="rgb(204, 204, 204)" stroke-width="1px"></line><line x1="176.68159615384616" y1="0" x2="176.68159615384616" y2="5" style="visibility: inherit;" fill="rgb(0, 0, 0)" stroke="rgb(204, 204, 204)" stroke-width="1px"></line><line x1="196.31288461538463" y1="0" x2="196.31288461538463" y2="5" style="visibility: inherit;" fill="rgb(0, 0, 0)" stroke="rgb(204, 204, 204)" stroke-width="1px"></line><line x1="215.94417307692308" y1="0" x2="215.94417307692308" y2="5" style="visibility: inherit;" fill="rgb(0, 0, 0)" stroke="rgb(204, 204, 204)" stroke-width="1px"></line><line x1="235.57546153846155" y1="0" x2="235.57546153846155" y2="5" style="visibility: inherit;" fill="rgb(0, 0, 0)" stroke="rgb(204, 204, 204)" stroke-width="1px"></line><line x1="255.20675" y1="0" x2="255.20675" y2="5" style="visibility: inherit;" fill="rgb(0, 0, 0)" stroke="rgb(204, 204, 204)" stroke-width="1px"></line></g><g transform="translate(0, 8)"><text x="0" y="0" dx="0em" dy="0.95em" style="text-anchor: middle; visibility: hidden; font-family: Roboto, sans-serif; font-size: 12px; font-weight: 200;" fill="rgb(33, 33, 33)" stroke="none" stroke-width="1px">-10</text><text x="19.631288461538464" y="0" dx="0em" dy="0.95em" style="text-anchor: middle; visibility: inherit; font-family: Roboto, sans-serif; font-size: 12px; font-weight: 200;" fill="rgb(33, 33, 33)" stroke="none" stroke-width="1px">0</text><text x="39.26257692307693" y="0" dx="0em" dy="0.95em" style="text-anchor: middle; visibility: hidden; font-family: Roboto, sans-serif; font-size: 12px; font-weight: 200;" fill="rgb(33, 33, 33)" stroke="none" stroke-width="1px">10</text><text x="58.89386538461539" y="0" dx="0em" dy="0.95em" style="text-anchor: middle; visibility: inherit; font-family: Roboto, sans-serif; font-size: 12px; font-weight: 200;" fill="rgb(33, 33, 33)" stroke="none" stroke-width="1px">20</text><text x="78.52515384615386" y="0" dx="0em" dy="0.95em" style="text-anchor: middle; visibility: hidden; font-family: Roboto, sans-serif; font-size: 12px; font-weight: 200;" fill="rgb(33, 33, 33)" stroke="none" stroke-width="1px">30</text><text x="98.15644230769232" y="0" dx="0em" dy="0.95em" style="text-anchor: middle; visibility: inherit; font-family: Roboto, sans-serif; font-size: 12px; font-weight: 200;" fill="rgb(33, 33, 33)" stroke="none" stroke-width="1px">40</text><text x="117.78773076923078" y="0" dx="0em" dy="0.95em" style="text-anchor: middle; visibility: hidden; font-family: Roboto, sans-serif; font-size: 12px; font-weight: 200;" fill="rgb(33, 33, 33)" stroke="none" stroke-width="1px">50</text><text x="137.41901923076924" y="0" dx="0em" dy="0.95em" style="text-anchor: middle; visibility: inherit; font-family: Roboto, sans-serif; font-size: 12px; font-weight: 200;" fill="rgb(33, 33, 33)" stroke="none" stroke-width="1px">60</text><text x="157.0503076923077" y="0" dx="0em" dy="0.95em" style="text-anchor: middle; visibility: hidden; font-family: Roboto, sans-serif; font-size: 12px; font-weight: 200;" fill="rgb(33, 33, 33)" stroke="none" stroke-width="1px">70</text><text x="176.68159615384616" y="0" dx="0em" dy="0.95em" style="text-anchor: middle; visibility: inherit; font-family: Roboto, sans-serif; font-size: 12px; font-weight: 200;" fill="rgb(33, 33, 33)" stroke="none" stroke-width="1px">80</text><text x="196.31288461538463" y="0" dx="0em" dy="0.95em" style="text-anchor: middle; visibility: hidden; font-family: Roboto, sans-serif; font-size: 12px; font-weight: 200;" fill="rgb(33, 33, 33)" stroke="none" stroke-width="1px">90</text><text x="215.94417307692308" y="0" dx="0em" dy="0.95em" style="text-anchor: middle; visibility: inherit; font-family: Roboto, sans-serif; font-size: 12px; font-weight: 200;" fill="rgb(33, 33, 33)" stroke="none" stroke-width="1px">100</text><text x="235.57546153846155" y="0" dx="0em" dy="0.95em" style="text-anchor: middle; visibility: hidden; font-family: Roboto, sans-serif; font-size: 12px; font-weight: 200;" fill="rgb(33, 33, 33)" stroke="none" stroke-width="1px">110</text><text x="255.20675" y="0" dx="0em" dy="0.95em" style="text-anchor: middle; visibility: hidden; font-family: Roboto, sans-serif; font-size: 12px; font-weight: 200;" fill="rgb(33, 33, 33)" stroke="none" stroke-width="1px">120</text></g><line x1="0" y1="0" x2="255.20675" y2="0" fill="rgb(0, 0, 0)" stroke="rgb(204, 204, 204)" stroke-width="1px"></line></g></g></g></g></svg>