<svg viewBox="0 0 330.0000305175781 200.00001525878906" xmlns="http://www.w3.org/2000/svg"><g><g><g><g><g><line x1="72.34375" y1="177" x2="67.34375" y2="177" style="visibility: inherit;" fill="rgb(0, 0, 0)" stroke="rgb(204, 204, 204)" stroke-width="1px"></line><line x1="72.34375" y1="164.35714285714286" x2="67.34375" y2="164.35714285714286" style="visibility: inherit;" fill="rgb(0, 0, 0)" stroke="rgb(204, 204, 204)" stroke-width="1px"></line><line x1="72.34375" y1="151.71428571428572" x2="67.34375" y2="151.71428571428572" style="visibility: inherit;" fill="rgb(0, 0, 0)" stroke="rgb(204, 204, 204)" stroke-width="1px"></line><line x1="72.34375" y1="139.07142857142856" x2="67.34375" y2="139.07142857142856" style="visibility: inherit;" fill="rgb(0, 0, 0)" stroke="rgb(204, 204, 204)" stroke-width="1px"></line><line x1="72.34375" y1="126.42857142857144" x2="67.34375" y2="126.42857142857144" style="visibility: inherit;" fill="rgb(0, 0, 0)" stroke="rgb(204, 204, 204)" stroke-width="1px"></line><line x1="72.34375" y1="113.78571428571428" x2="67.34375" y2="113.78571428571428" style="visibility: inherit;" fill="rgb(0, 0, 0)" stroke="rgb(204, 204, 204)" stroke-width="1px"></line><line x1="72.34375" y1="101.14285714285714" x2="67.34375" y2="101.14285714285714" style="visibility: inherit;" fill="rgb(0, 0, 0)" stroke="rgb(204, 204, 204)" stroke-width="1px"></line><line x1="72.34375" y1="88.5" x2="67.34375" y2="88.5" style="visibility: inherit;" fill="rgb(0, 0, 0)" stroke="rgb(204, 204, 204)" stroke-width="1px"></line><line x1="72.34375" y1="75.85714285714286" x2="67.34375" y2="75.85714285714286" style="visibility: inherit;" fill="rgb(0, 0, 0)" stroke="rgb(204, 204, 204)" stroke-width="1px"></line><line x1="72.34375" y1="63.21428571428572" x2="67.34375" y2="63.21428571428572" style="visibility: inherit;" fill="rgb(0, 0, 0)" stroke="rgb(204, 204, 204)" stroke-width="1px"></line><line x1="72.34375" y1="50.57142857142859" x2="67.34375" y2="50.57142857142859" style="visibility: inherit;" fill="rgb(0, 0, 0)" stroke="rgb(204, 204, 204)" stroke-width="1px"></line><line x1="72.34375" y1="37.92857142857145" x2="67.34375" y2="37.92857142857145" style="visibility: inherit;" fill="rgb(0, 0, 0)" stroke="rgb(204, 204, 204)" stroke-width="1px"></line><line x1="72.34375" y1="25.285714285714313" x2="67.34375" y2="25.285714285714313" style="visibility: inherit;" fill="rgb(0, 0, 0)" stroke="rgb(204, 204, 204)" stroke-width="1px"></line><line x1="72.34375" y1="12.642857142857137" x2="67.34375" y2="12.642857142857137" style="visibility: inherit;" fill="rgb(0, 0, 0)" stroke="rgb(204, 204, 204)" stroke-width="1px"></line><line x1="72.34375" y1="0" x2="67.34375" y2="0" style="visibility: inherit;" fill="rgb(0, 0, 0)" stroke="rgb(204, 204, 204)" stroke-width="1px"></line></g><g transform="translate(62.34375, 0)"><text x="0" y="177" dx="0em" dy="0.3em" style="text-anchor: end; visibility: hidden; font-family: Roboto, sans-serif; font-size: 12px; font-weight: 200;" fill="rgb(33, 33, 33)" stroke="none" stroke-width="1px">1.5e-5</text><text x="0" y="164.35714285714286" dx="0em" dy="0.3em" style="text-anchor: end; visibility: inherit; font-family: Roboto, sans-serif; font-size: 12px; font-weight: 200;" fill="rgb(33, 33, 33)" stroke="none" stroke-width="1px">2e-5</text><text x="0" y="151.71428571428572" dx="0em" dy="0.3em" style="text-anchor: end; visibility: hidden; font-family: Roboto, sans-serif; font-size: 12px; font-weight: 200;" fill="rgb(33, 33, 33)" stroke="none" stroke-width="1px">2.5e-5</text><text x="0" y="139.07142857142856" dx="0em" dy="0.3em" style="text-anchor: end; visibility: inherit; font-family: Roboto, sans-serif; font-size: 12px; font-weight: 200;" fill="rgb(33, 33, 33)" stroke="none" stroke-width="1px">3e-5</text><text x="0" y="126.42857142857144" dx="0em" dy="0.3em" style="text-anchor: end; visibility: hidden; font-family: Roboto, sans-serif; font-size: 12px; font-weight: 200;" fill="rgb(33, 33, 33)" stroke="none" stroke-width="1px">3.5e-5</text><text x="0" y="113.78571428571428" dx="0em" dy="0.3em" style="text-anchor: end; visibility: inherit; font-family: Roboto, sans-serif; font-size: 12px; font-weight: 200;" fill="rgb(33, 33, 33)" stroke="none" stroke-width="1px">4e-5</text><text x="0" y="101.14285714285714" dx="0em" dy="0.3em" style="text-anchor: end; visibility: hidden; font-family: Roboto, sans-serif; font-size: 12px; font-weight: 200;" fill="rgb(33, 33, 33)" stroke="none" stroke-width="1px">4.5e-5</text><text x="0" y="88.5" dx="0em" dy="0.3em" style="text-anchor: end; visibility: inherit; font-family: Roboto, sans-serif; font-size: 12px; font-weight: 200;" fill="rgb(33, 33, 33)" stroke="none" stroke-width="1px">5e-5</text><text x="0" y="75.85714285714286" dx="0em" dy="0.3em" style="text-anchor: end; visibility: hidden; font-family: Roboto, sans-serif; font-size: 12px; font-weight: 200;" fill="rgb(33, 33, 33)" stroke="none" stroke-width="1px">5.5e-5</text><text x="0" y="63.21428571428572" dx="0em" dy="0.3em" style="text-anchor: end; visibility: inherit; font-family: Roboto, sans-serif; font-size: 12px; font-weight: 200;" fill="rgb(33, 33, 33)" stroke="none" stroke-width="1px">6e-5</text><text x="0" y="50.57142857142859" dx="0em" dy="0.3em" style="text-anchor: end; visibility: hidden; font-family: Roboto, sans-serif; font-size: 12px; font-weight: 200;" fill="rgb(33, 33, 33)" stroke="none" stroke-width="1px">6.5e-5</text><text x="0" y="37.92857142857145" dx="0em" dy="0.3em" style="text-anchor: end; visibility: inherit; font-family: Roboto, sans-serif; font-size: 12px; font-weight: 200;" fill="rgb(33, 33, 33)" stroke="none" stroke-width="1px">7e-5</text><text x="0" y="25.285714285714313" dx="0em" dy="0.3em" style="text-anchor: end; visibility: hidden; font-family: Roboto, sans-serif; font-size: 12px; font-weight: 200;" fill="rgb(33, 33, 33)" stroke="none" stroke-width="1px">7.5e-5</text><text x="0" y="12.642857142857137" dx="0em" dy="0.3em" style="text-anchor: end; visibility: inherit; font-family: Roboto, sans-serif; font-size: 12px; font-weight: 200;" fill="rgb(33, 33, 33)" stroke="none" stroke-width="1px">8e-5</text><text x="0" y="0" dx="0em" dy="0.3em" style="text-anchor: end; visibility: hidden; font-family: Roboto, sans-serif; font-size: 12px; font-weight: 200;" fill="rgb(33, 33, 33)" stroke="none" stroke-width="1px">8.5e-5</text></g><line x1="72.34375" y1="0" x2="72.34375" y2="177" fill="rgb(0, 0, 0)" stroke="rgb(204, 204, 204)" stroke-width="1px"></line></g></g><g transform="translate(72, 0)" clip-path="url(#clip_0)"><clipPath id="clip_0"><rect width="257" height="177"></rect></clipPath><g><g><g><line x1="0" y1="0" x2="0" y2="177" fill="rgb(0, 0, 0)" stroke="rgb(66, 66, 66)" stroke-width="1px" opacity="0.25"></line><line x1="21.471354166666664" y1="0" x2="21.471354166666664" y2="177" fill="rgb(0, 0, 0)" stroke="rgb(66, 66, 66)" stroke-width="1px" opacity="0.25"></line><line x1="42.94270833333333" y1="0" x2="42.94270833333333" y2="177" fill="rgb(0, 0, 0)" stroke="rgb(66, 66, 66)" stroke-width="1px" opacity="0.25"></line><line x1="64.4140625" y1="0" x2="64.4140625" y2="177" fill="rgb(0, 0, 0)" stroke="rgb(66, 66, 66)" stroke-width="1px" opacity="0.25"></line><line x1="85.88541666666666" y1="0" x2="85.88541666666666" y2="177" fill="rgb(0, 0, 0)" stroke="rgb(66, 66, 66)" stroke-width="1px" opacity="0.25"></line><line x1="107.35677083333334" y1="0" x2="107.35677083333334" y2="177" fill="rgb(0, 0, 0)" stroke="rgb(66, 66, 66)" stroke-width="1px" opacity="0.25"></line><line x1="128.828125" y1="0" x2="128.828125" y2="177" fill="rgb(0, 0, 0)" stroke="rgb(66, 66, 66)" stroke-width="1px" opacity="0.25"></line><line x1="150.29947916666669" y1="0" x2="150.29947916666669" y2="177" fill="rgb(0, 0, 0)" stroke="rgb(66, 66, 66)" stroke-width="1px" opacity="0.25"></line><line x1="171.77083333333331" y1="0" x2="171.77083333333331" y2="177" fill="rgb(0, 0, 0)" stroke="rgb(66, 66, 66)" stroke-width="1px" opacity="0.25"></line><line x1="193.2421875" y1="0" x2="193.2421875" y2="177" fill="rgb(0, 0, 0)" stroke="rgb(66, 66, 66)" stroke-width="1px" opacity="0.25"></line><line x1="214.71354166666669" y1="0" x2="214.71354166666669" y2="177" fill="rgb(0, 0, 0)" stroke="rgb(66, 66, 66)" stroke-width="1px" opacity="0.25"></line><line x1="236.18489583333331" y1="0" x2="236.18489583333331" y2="177" fill="rgb(0, 0, 0)" stroke="rgb(66, 66, 66)" stroke-width="1px" opacity="0.25"></line><line x1="257.65625" y1="0" x2="257.65625" y2="177" fill="rgb(0, 0, 0)" stroke="rgb(66, 66, 66)" stroke-width="1px" opacity="0.25"></line></g><g><line x1="0" y1="177" x2="257.65625" y2="177" fill="rgb(0, 0, 0)" stroke="rgb(66, 66, 66)" stroke-width="1px" opacity="0.25"></line><line x1="0" y1="164.35714285714286" x2="257.65625" y2="164.35714285714286" fill="rgb(0, 0, 0)" stroke="rgb(66, 66, 66)" stroke-width="1px" opacity="0.25"></line><line x1="0" y1="151.71428571428572" x2="257.65625" y2="151.71428571428572" fill="rgb(0, 0, 0)" stroke="rgb(66, 66, 66)" stroke-width="1px" opacity="0.25"></line><line x1="0" y1="139.07142857142856" x2="257.65625" y2="139.07142857142856" fill="rgb(0, 0, 0)" stroke="rgb(66, 66, 66)" stroke-width="1px" opacity="0.25"></line><line x1="0" y1="126.42857142857144" x2="257.65625" y2="126.42857142857144" fill="rgb(0, 0, 0)" stroke="rgb(66, 66, 66)" stroke-width="1px" opacity="0.25"></line><line x1="0" y1="113.78571428571428" x2="257.65625" y2="113.78571428571428" fill="rgb(0, 0, 0)" stroke="rgb(66, 66, 66)" stroke-width="1px" opacity="0.25"></line><line x1="0" y1="101.14285714285714" x2="257.65625" y2="101.14285714285714" fill="rgb(0, 0, 0)" stroke="rgb(66, 66, 66)" stroke-width="1px" opacity="0.25"></line><line x1="0" y1="88.5" x2="257.65625" y2="88.5" fill="rgb(0, 0, 0)" stroke="rgb(66, 66, 66)" stroke-width="1px" opacity="0.25"></line><line x1="0" y1="75.85714285714286" x2="257.65625" y2="75.85714285714286" fill="rgb(0, 0, 0)" stroke="rgb(66, 66, 66)" stroke-width="1px" opacity="0.25"></line><line x1="0" y1="63.21428571428572" x2="257.65625" y2="63.21428571428572" fill="rgb(0, 0, 0)" stroke="rgb(66, 66, 66)" stroke-width="1px" opacity="0.25"></line><line x1="0" y1="50.57142857142859" x2="257.65625" y2="50.57142857142859" fill="rgb(0, 0, 0)" stroke="rgb(66, 66, 66)" stroke-width="1px" opacity="0.25"></line><line x1="0" y1="37.92857142857145" x2="257.65625" y2="37.92857142857145" fill="rgb(0, 0, 0)" stroke="rgb(66, 66, 66)" stroke-width="1px" opacity="0.25"></line><line x1="0" y1="25.285714285714313" x2="257.65625" y2="25.285714285714313" fill="rgb(0, 0, 0)" stroke="rgb(66, 66, 66)" stroke-width="1px" opacity="0.25"></line><line x1="0" y1="12.642857142857137" x2="257.65625" y2="12.642857142857137" fill="rgb(0, 0, 0)" stroke="rgb(66, 66, 66)" stroke-width="1px" opacity="0.25"></line><line x1="0" y1="0" x2="257.65625" y2="0" fill="rgb(0, 0, 0)" stroke="rgb(66, 66, 66)" stroke-width="1px" opacity="0.25"></line></g></g></g><g><g><line x1="0" y1="214.92857142857142" x2="257.65625" y2="214.92857142857142" fill="rgb(0, 0, 0)" stroke="rgb(153, 153, 153)" stroke-width="1.5px"></line></g></g><g><g><line x1="21.471354166666664" y1="0" x2="21.471354166666664" y2="177" fill="rgb(0, 0, 0)" stroke="rgb(153, 153, 153)" stroke-width="1.5px"></line></g></g><g><g><g><g><g><path stroke="rgb(255, 112, 67)" stroke-width="2px" d="M23.618489583333332,-82.53863604568426L24.692057291666668,2.4299424362125537L25.765625,50.8300971024711L26.839192708333336,75.79434256258459L27.912760416666668,93.88703206319363L28.986328125,108.57011416192174L30.059895833333332,118.55946930920513L31.133463541666668,42.23747671375144L32.20703125,51.20138981609927L33.280598958333336,28.108500010538037L34.354166666666664,35.443041070411034L35.427734375,43.21453120314882L36.501302083333336,47.977972692853996L37.57486979166667,52.04129351793645L38.6484375,54.86249362666666L39.722005208333336,53.55365104136004L40.795572916666664,6.4749822816334355L41.869140625,-5.8288157086290795L44.016276041666664,-1.7269644570377822L45.08984375,8.801399600824416L46.163411458333336,10.376661873403549L47.236979166666664,17.245070374311357L48.310546875,14.273819165024632L49.384114583333336,18.577135600088607L50.457682291666664,28.62628629495493L51.53125,33.568159026234845L52.604817708333336,38.52665868455506L53.67838541666667,44.833500071747736L54.751953125,46.3216271775472L55.825520833333336,35.19287136382451L56.899088541666664,37.86090296144335L57.97265625,48.006540889158714L59.04622395833333,58.91413048109035L60.119791666666664,67.17582607564349L61.193359375,61.61813756320489L62.266927083333336,58.778365849392046L63.340494791666664,43.143749041965314L64.4140625,45.907242222774414L65.48763020833333,58.95412234596591L66.56119791666667,54.755085361500626L67.634765625,57.301642355998304L68.70833333333333,70.45163355537943L69.78190104166666,75.77860430860885L70.85546875,81.5114982221591L71.92903645833333,79.55059979581816L73.00260416666667,76.0683223490865L74.076171875,67.66499650741889L75.14973958333334,80.36654717740682L76.22330729166667,69.2947384958781L77.296875,73.99570881578072L78.37044270833333,64.46341169054723L79.44401041666667,67.69964150005873L80.517578125,70.13940357125126L81.59114583333333,82.09050603928407L82.66471354166667,72.55137412363665L83.73828125,80.73926850918978L84.81184895833333,79.58457231979001L85.88541666666666,84.66038174652218L86.958984375,85.15830125141458L88.03255208333333,75.4739142201079L89.10611979166667,86.0300340987073L90.1796875,78.98305320843497L91.25325520833334,77.93084006740963L92.32682291666667,65.00350775822427L93.400390625,80.466035816173L94.47395833333333,91.43928693752324L95.54752604166667,76.9382501018012L96.62109375,60.381629382105814L97.69466145833333,62.783783250295976L98.76822916666667,90.12899689194512L99.841796875,103.8844606152602L100.91536458333333,94.85482153530627L101.98893229166666,107.13548762735242L103.0625,117.47189418711645L104.13606770833333,115.26205300172919L105.20963541666667,104.8556376873659L106.283203125,96.2254899151603L107.35677083333334,78.78968996351729L108.43033854166667,60.966530247159106L109.50390625,75.2578884236382L110.57747395833333,85.88296648810355L111.65104166666667,105.03514541703039L112.724609375,100.9619026941829L113.79817708333333,101.59860620389192L114.87174479166667,95.24952138509248L115.9453125,103.03890213932524L117.01888020833333,89.71997048457068L118.09244791666666,77.54610099383792L119.166015625,83.5291222636374L120.23958333333333,77.83515840597897L121.31315104166667,76.83656831271843L122.38671875,97.04438557468426L123.46028645833334,108.81590849547878L124.53385416666667,91.70039546036566L125.607421875,81.4683431408387L126.68098958333333,95.60372126769253L127.75455729166667,61.66941797658418L128.828125,42.904512130139494L129.90169270833334,42.69157277958649L130.97526041666666,69.794670267095L132.048828125,84.30633704854448L133.12239583333334,97.7244415496016L134.19596354166669,93.84784780490911L135.26953125,108.22073091721208L136.34309895833334,93.70493079419569L137.41666666666666,97.05945915758272L138.490234375,81.05088609735465L139.56380208333331,40.818423112675696L140.63736979166666,58.82630578955293L141.7109375,39.56710773977273L142.78450520833334,82.12913466357213L143.85807291666666,98.45977311683997L144.931640625,114.51731777901668L146.00520833333334,104.8350583642577L147.07877604166666,111.19222357461695L148.15234375,86.62661730568922L149.22591145833334,95.15533617249224L150.29947916666669,122.2836734158555L151.373046875,105.51078864913251L152.44661458333334,118.04118563471651L153.52018229166666,119.70950058188836L154.59375,123.69971277293864L155.66731770833331,124.88122778585888L156.74088541666666,122.7358833537796L157.814453125,125.92546333969462L158.88802083333334,137.2729353652059L159.96158854166666,158.44939370255855L161.03515625,161.54740969713887L162.10872395833334,158.70848452736368L163.18229166666666,154.83756571051353L164.255859375,149.12563951443906L165.32942708333334,152.93506416743705L166.40299479166669,161.93234999549958L167.4765625,148.13909904722672L168.55013020833334,161.63778683409737L169.62369791666666,158.02825125271667L170.697265625,167.73999038603603L171.77083333333331,110.32324983067119L172.84440104166666,124.41021012008308L173.91796875,91.39441163281211L174.99153645833334,111.75485193656816L176.06510416666666,67.71610725563643L177.138671875,85.33799960525519L178.21223958333334,109.679040833142L179.28580729166666,89.19191388445813L180.359375,106.28497066886507L181.43294270833334,119.40910304347712L182.50651041666669,108.66354404655281L183.580078125,100.89871429079476L184.65364583333334,109.28043415270771L185.72721354166666,93.15858507770899L186.80078125,105.11428675662373L187.87434895833331,116.2611017518701L188.94791666666666,123.20014380739747L190.021484375,141.33233996513732L191.09505208333334,121.59963074476052L192.16861979166666,122.26838991299985L193.2421875,101.85195555024464L194.31575520833334,117.0749916855537L195.38932291666666,142.8986654110414L196.462890625,151.60815711438096L197.53645833333334,143.03289286934648L198.61002604166669,159.22952630270177L199.68359375,155.93969648592636L200.75716145833334,151.3049996371422L201.83072916666666,169.26621282705239L202.904296875,152.56481671920895L203.97786458333331,117.18843295956009L205.05143229166666,126.2649508513163L206.125,143.67262436933797L207.19856770833334,152.96730108947816L208.27213541666666,161.60282059362805L209.345703125,160.47637113411406L210.41927083333334,153.9017413110961L211.49283854166666,170.23796892356432L212.56640625,166.24159695979165L213.63997395833334,162.96096373745894L214.71354166666669,145.8982938217504L215.787109375,137.1506874810635L216.86067708333334,139.44066310689433L217.93424479166666,151.24217451857047L219.0078125,151.374369195951L220.08138020833331,141.56737661636453L221.15494791666666,123.85069763565846L222.228515625,143.23850019167836L223.30208333333334,144.94826811909485L224.37565104166666,123.85344946284239L225.44921875,126.640853109654L226.52278645833334,131.44977617968993L227.59635416666666,111.03664506451658L228.669921875,91.10996046181255L229.74348958333334,121.4959347477023L230.81705729166669,133.8231460096944L231.890625,147.9090595849083L232.96419270833334,156.81228423182938L234.03776041666666,163.43234765084617L235.111328125,138.57270445731618L236.18489583333331,142.19892830455126" style="fill: none;" fill="none"></path></g></g></g></g><g opacity="0.2"><g><g><g><path stroke="rgb(255, 112, 67)" stroke-width="2px" d="M22.544921875,-233.53365447565105L23.618489583333332,8.058375012295876L24.692057291666668,83.99977777883345L25.765625,107.74867898999115L26.839192708333336,108.38766143530873L27.912760416666668,118.91573501075618L28.986328125,129.56715649241647L30.059895833333332,133.12404501175376L31.133463541666668,-70.32263758070101L32.20703125,64.51175608279716L33.280598958333336,-6.32138388690404L34.354166666666664,46.4049384116661L35.427734375,54.84639113858742L36.501302083333336,55.113802849647726L37.57486979166667,58.131498474461445L38.6484375,59.09230406086759L39.722005208333336,51.590941021717825L40.795572916666664,-64.1310675890584L41.869140625,-24.28263833423676L42.94270833333333,3.296330810890414L44.016276041666664,-1.0495004466335351L45.08984375,24.59359924731378L46.163411458333336,12.73952418146657L47.236979166666664,27.547601762826435L48.310546875,9.816963469476578L49.384114583333336,25.03209190100566L50.457682291666664,43.699986624232096L51.53125,40.98096053621599L52.604817708333336,45.96440360455641L53.67838541666667,54.29375866684131L54.751953125,48.55381734276723L55.825520833333336,18.49973985749031L56.899088541666664,41.862950039362275L57.97265625,63.22499705402048L59.04622395833333,75.27551440021489L60.119791666666664,79.56836925443662L61.193359375,53.2816048805336L62.266927083333336,54.518708305034274L63.340494791666664,19.691823917906753L64.4140625,50.0524819847529L65.48763020833333,78.52444250459251L66.56119791666667,48.45652988985449L67.634765625,61.121477845906554L68.70833333333333,90.1766203487558L69.78190104166666,83.76906043706862L70.85546875,90.1108390915906L71.92903645833333,76.6092521564902L73.00260416666667,70.8449061791845L74.076171875,55.06000774520051L75.14973958333334,99.41887318213205L76.22330729166667,52.6870254737192L77.296875,81.04716429560047L78.37044270833333,50.16496600273864L79.44401041666667,72.55398621431752L80.517578125,73.79904667803619L81.59114583333333,100.01715974132199L82.66471354166667,58.242676250170916L83.73828125,93.02111008751672L84.81184895833333,77.85252803569061L85.88541666666666,92.27409588661976L86.958984375,85.90518050875316L88.03255208333333,60.9473336731483L89.10611979166667,101.86421391660613L90.1796875,68.41258187302655L91.25325520833334,76.35252035587162L92.32682291666667,45.6125092944463L93.400390625,103.65982790309604L94.47395833333333,107.89916361954862L95.54752604166667,55.18669484821814L96.62109375,35.54669830256277L97.69466145833333,66.38701405258118L98.76822916666667,131.14681735441889L99.841796875,124.51765620023278L100.91536458333333,81.3103629153754L101.98893229166666,125.55648676542165L103.0625,132.97650402676248L104.13606770833333,111.94729122364828L105.20963541666667,89.24601471582096L106.283203125,83.28026825685187L107.35677083333334,52.63599003605279L108.43033854166667,34.23179067262183L109.50390625,96.69492568835683L110.57747395833333,101.82058358480157L111.65104166666667,133.76341381042064L112.724609375,94.85203860991169L113.79817708333333,102.55366146845543L114.87174479166667,85.72589415689332L115.9453125,114.72297327067437L117.01888020833333,69.74157300243887L118.09244791666666,59.28529675773878L119.166015625,92.50365416833665L120.23958333333333,69.29421261949133L121.31315104166667,75.33868317282759L122.38671875,127.356111467633L123.46028645833334,126.47319287667051L124.53385416666667,66.02712590769599L125.607421875,66.12026466154826L126.68098958333333,116.80678845797334L127.75455729166667,10.767963039921616L128.828125,14.757153360472477L129.90169270833334,42.37216375375699L130.97526041666666,110.4493164983578L132.048828125,106.07383722071869L133.12239583333334,117.8515983011873L134.19596354166669,88.0329571878704L135.26953125,129.78005558566656L136.34309895833334,71.93123060967109L137.41666666666666,102.09125170266323L138.490234375,57.038026507012546L139.56380208333331,-19.53027136434266L140.63736979166666,85.83812980486879L141.7109375,10.678310665102417L142.78450520833334,145.97217504927124L143.85807291666666,122.95573079674173L144.931640625,138.60363477228177L146.00520833333334,90.31166924211928L147.07877604166666,120.7279713901558L148.15234375,49.77820790229765L149.22591145833334,107.94841447269678L150.29947916666669,162.9761792809004L151.373046875,80.351461499048L152.44661458333334,136.8367811130925L153.52018229166666,122.21197300264612L154.59375,129.68503105951407L155.66731770833331,126.65350030523925L156.74088541666666,119.51786670566071L157.814453125,130.70983331856718L158.88802083333334,154.29414340347284L159.96158854166666,190.2140812085875L161.03515625,166.19443368900932L162.10872395833334,154.45009677270093L163.18229166666666,149.0311874852383L164.255859375,140.5577502203274L165.32942708333334,158.649201146934L166.40299479166669,175.42827873759336L167.4765625,127.44922262481747L168.55013020833334,181.88581851440333L169.62369791666666,152.6139478806456L170.697265625,182.30759908601507L171.77083333333331,24.198138997623975L172.84440104166666,145.5406505542009L173.91796875,41.87071390190562L174.99153645833334,142.29551239220226L176.06510416666666,1.6579902342387691L177.138671875,111.7708381296834L178.21223958333334,146.19060267497218L179.28580729166666,58.46122346143238L180.359375,131.92455584547548L181.43294270833334,139.09530160539518L182.50651041666669,92.54520555116636L183.580078125,89.25146965715768L184.65364583333334,121.85301394557715L185.72721354166666,68.97581146521095L186.80078125,123.04783927499582L187.87434895833331,132.98132424473962L188.94791666666666,133.60870689068855L190.021484375,168.53063420174712L191.09505208333334,92.00056691419533L192.16861979166666,123.27152866535886L193.2421875,71.22730400611181L194.31575520833334,139.90954588851727L195.38932291666666,181.63417599927303L196.462890625,164.6723946693902L197.53645833333334,130.16999650179474L198.61002604166669,183.52447645273475L199.68359375,151.00495176076322L200.75716145833334,144.35295436396598L201.83072916666666,196.2080326119176L202.904296875,127.51272255744385L203.97786458333331,64.12385732008677L205.05143229166666,139.87972768895062L206.125,169.7841346463704L207.19856770833334,166.9093161696884L208.27213541666666,174.55609984985287L209.345703125,158.78669694484313L210.41927083333334,144.03979657656913L211.49283854166666,194.74231034226665L212.56640625,160.2470390141326L213.63997395833334,158.04001390395987L214.71354166666669,120.3042889481876L215.787109375,124.02927797003318L216.86067708333334,142.87562654564059L217.93424479166666,168.94444163608466L219.0078125,151.5726612120218L220.08138020833331,126.8568877469848L221.15494791666666,97.27567916459937L222.228515625,172.32020402570822L223.30208333333334,147.5129200102196L224.37565104166666,92.21122147846368L225.44921875,130.82195857987142L226.52278645833334,138.6631607847438L227.59635416666666,80.41694839175658L228.669921875,61.21993355775652L229.74348958333334,167.0748961765369L230.81705729166669,152.3139629026825L231.890625,169.03792994772914L232.96419270833334,170.16712120221098L234.03776041666666,173.36244277937138L235.111328125,101.28323966702115L236.18489583333331,147.6382640754039" style="fill: none;" fill="none"></path></g></g></g></g></g><g><g opacity="0.890564"><span fill="rgb(0, 0, 0)" stroke="none" stroke-width="1px">Alt + Scroll to Zoom</span></g></g></g><g transform="translate(72, 177)" clip-path="url(#clip_1)"><clipPath id="clip_1"><rect width="257" height="23"></rect></clipPath><g><g><line x1="0" y1="0" x2="0" y2="5" style="visibility: inherit;" fill="rgb(0, 0, 0)" stroke="rgb(204, 204, 204)" stroke-width="1px"></line><line x1="21.471354166666664" y1="0" x2="21.471354166666664" y2="5" style="visibility: inherit;" fill="rgb(0, 0, 0)" stroke="rgb(204, 204, 204)" stroke-width="1px"></line><line x1="42.94270833333333" y1="0" x2="42.94270833333333" y2="5" style="visibility: inherit;" fill="rgb(0, 0, 0)" stroke="rgb(204, 204, 204)" stroke-width="1px"></line><line x1="64.4140625" y1="0" x2="64.4140625" y2="5" style="visibility: inherit;" fill="rgb(0, 0, 0)" stroke="rgb(204, 204, 204)" stroke-width="1px"></line><line x1="85.88541666666666" y1="0" x2="85.88541666666666" y2="5" style="visibility: inherit;" fill="rgb(0, 0, 0)" stroke="rgb(204, 204, 204)" stroke-width="1px"></line><line x1="107.35677083333334" y1="0" x2="107.35677083333334" y2="5" style="visibility: inherit;" fill="rgb(0, 0, 0)" stroke="rgb(204, 204, 204)" stroke-width="1px"></line><line x1="128.828125" y1="0" x2="128.828125" y2="5" style="visibility: inherit;" fill="rgb(0, 0, 0)" stroke="rgb(204, 204, 204)" stroke-width="1px"></line><line x1="150.29947916666669" y1="0" x2="150.29947916666669" y2="5" style="visibility: inherit;" fill="rgb(0, 0, 0)" stroke="rgb(204, 204, 204)" stroke-width="1px"></line><line x1="171.77083333333331" y1="0" x2="171.77083333333331" y2="5" style="visibility: inherit;" fill="rgb(0, 0, 0)" stroke="rgb(204, 204, 204)" stroke-width="1px"></line><line x1="193.2421875" y1="0" x2="193.2421875" y2="5" style="visibility: inherit;" fill="rgb(0, 0, 0)" stroke="rgb(204, 204, 204)" stroke-width="1px"></line><line x1="214.71354166666669" y1="0" x2="214.71354166666669" y2="5" style="visibility: inherit;" fill="rgb(0, 0, 0)" stroke="rgb(204, 204, 204)" stroke-width="1px"></line><line x1="236.18489583333331" y1="0" x2="236.18489583333331" y2="5" style="visibility: inherit;" fill="rgb(0, 0, 0)" stroke="rgb(204, 204, 204)" stroke-width="1px"></line><line x1="257.65625" y1="0" x2="257.65625" y2="5" style="visibility: inherit;" fill="rgb(0, 0, 0)" stroke="rgb(204, 204, 204)" stroke-width="1px"></line></g><g transform="translate(0, 8)"><text x="0" y="0" dx="0em" dy="0.95em" style="text-anchor: middle; visibility: hidden; font-family: Roboto, sans-serif; font-size: 12px; font-weight: 200;" fill="rgb(33, 33, 33)" stroke="none" stroke-width="1px">-20</text><text x="21.471354166666664" y="0" dx="0em" dy="0.95em" style="text-anchor: middle; visibility: inherit; font-family: Roboto, sans-serif; font-size: 12px; font-weight: 200;" fill="rgb(33, 33, 33)" stroke="none" stroke-width="1px">0</text><text x="42.94270833333333" y="0" dx="0em" dy="0.95em" style="text-anchor: middle; visibility: hidden; font-family: Roboto, sans-serif; font-size: 12px; font-weight: 200;" fill="rgb(33, 33, 33)" stroke="none" stroke-width="1px">20</text><text x="64.4140625" y="0" dx="0em" dy="0.95em" style="text-anchor: middle; visibility: inherit; font-family: Roboto, sans-serif; font-size: 12px; font-weight: 200;" fill="rgb(33, 33, 33)" stroke="none" stroke-width="1px">40</text><text x="85.88541666666666" y="0" dx="0em" dy="0.95em" style="text-anchor: middle; visibility: hidden; font-family: Roboto, sans-serif; font-size: 12px; font-weight: 200;" fill="rgb(33, 33, 33)" stroke="none" stroke-width="1px">60</text><text x="107.35677083333334" y="0" dx="0em" dy="0.95em" style="text-anchor: middle; visibility: inherit; font-family: Roboto, sans-serif; font-size: 12px; font-weight: 200;" fill="rgb(33, 33, 33)" stroke="none" stroke-width="1px">80</text><text x="128.828125" y="0" dx="0em" dy="0.95em" style="text-anchor: middle; visibility: hidden; font-family: Roboto, sans-serif; font-size: 12px; font-weight: 200;" fill="rgb(33, 33, 33)" stroke="none" stroke-width="1px">100</text><text x="150.29947916666669" y="0" dx="0em" dy="0.95em" style="text-anchor: middle; visibility: inherit; font-family: Roboto, sans-serif; font-size: 12px; font-weight: 200;" fill="rgb(33, 33, 33)" stroke="none" stroke-width="1px">120</text><text x="171.77083333333331" y="0" dx="0em" dy="0.95em" style="text-anchor: middle; visibility: hidden; font-family: Roboto, sans-serif; font-size: 12px; font-weight: 200;" fill="rgb(33, 33, 33)" stroke="none" stroke-width="1px">140</text><text x="193.2421875" y="0" dx="0em" dy="0.95em" style="text-anchor: middle; visibility: inherit; font-family: Roboto, sans-serif; font-size: 12px; font-weight: 200;" fill="rgb(33, 33, 33)" stroke="none" stroke-width="1px">160</text><text x="214.71354166666669" y="0" dx="0em" dy="0.95em" style="text-anchor: middle; visibility: hidden; font-family: Roboto, sans-serif; font-size: 12px; font-weight: 200;" fill="rgb(33, 33, 33)" stroke="none" stroke-width="1px">180</text><text x="236.18489583333331" y="0" dx="0em" dy="0.95em" style="text-anchor: middle; visibility: inherit; font-family: Roboto, sans-serif; font-size: 12px; font-weight: 200;" fill="rgb(33, 33, 33)" stroke="none" stroke-width="1px">200</text><text x="257.65625" y="0" dx="0em" dy="0.95em" style="text-anchor: middle; visibility: hidden; font-family: Roboto, sans-serif; font-size: 12px; font-weight: 200;" fill="rgb(33, 33, 33)" stroke="none" stroke-width="1px">220</text></g><line x1="0" y1="0" x2="257.65625" y2="0" fill="rgb(0, 0, 0)" stroke="rgb(204, 204, 204)" stroke-width="1px"></line></g></g></g></g></svg>