<svg viewBox="0 0 330.0000305175781 200.00001525878906" xmlns="http://www.w3.org/2000/svg"><g><g><g><g><g><line x1="72.34375" y1="177" x2="67.34375" y2="177" style="visibility: inherit;" fill="rgb(0, 0, 0)" stroke="rgb(204, 204, 204)" stroke-width="1px"></line><line x1="72.34375" y1="163.3846153846154" x2="67.34375" y2="163.3846153846154" style="visibility: inherit;" fill="rgb(0, 0, 0)" stroke="rgb(204, 204, 204)" stroke-width="1px"></line><line x1="72.34375" y1="149.76923076923077" x2="67.34375" y2="149.76923076923077" style="visibility: inherit;" fill="rgb(0, 0, 0)" stroke="rgb(204, 204, 204)" stroke-width="1px"></line><line x1="72.34375" y1="136.15384615384616" x2="67.34375" y2="136.15384615384616" style="visibility: inherit;" fill="rgb(0, 0, 0)" stroke="rgb(204, 204, 204)" stroke-width="1px"></line><line x1="72.34375" y1="122.53846153846153" x2="67.34375" y2="122.53846153846153" style="visibility: inherit;" fill="rgb(0, 0, 0)" stroke="rgb(204, 204, 204)" stroke-width="1px"></line><line x1="72.34375" y1="108.92307692307693" x2="67.34375" y2="108.92307692307693" style="visibility: inherit;" fill="rgb(0, 0, 0)" stroke="rgb(204, 204, 204)" stroke-width="1px"></line><line x1="72.34375" y1="95.30769230769232" x2="67.34375" y2="95.30769230769232" style="visibility: inherit;" fill="rgb(0, 0, 0)" stroke="rgb(204, 204, 204)" stroke-width="1px"></line><line x1="72.34375" y1="81.69230769230772" x2="67.34375" y2="81.69230769230772" style="visibility: inherit;" fill="rgb(0, 0, 0)" stroke="rgb(204, 204, 204)" stroke-width="1px"></line><line x1="72.34375" y1="68.0769230769231" x2="67.34375" y2="68.0769230769231" style="visibility: inherit;" fill="rgb(0, 0, 0)" stroke="rgb(204, 204, 204)" stroke-width="1px"></line><line x1="72.34375" y1="54.46153846153847" x2="67.34375" y2="54.46153846153847" style="visibility: inherit;" fill="rgb(0, 0, 0)" stroke="rgb(204, 204, 204)" stroke-width="1px"></line><line x1="72.34375" y1="40.84615384615386" x2="67.34375" y2="40.84615384615386" style="visibility: inherit;" fill="rgb(0, 0, 0)" stroke="rgb(204, 204, 204)" stroke-width="1px"></line><line x1="72.34375" y1="27.23076923076925" x2="67.34375" y2="27.23076923076925" style="visibility: inherit;" fill="rgb(0, 0, 0)" stroke="rgb(204, 204, 204)" stroke-width="1px"></line><line x1="72.34375" y1="13.615384615384626" x2="67.34375" y2="13.615384615384626" style="visibility: inherit;" fill="rgb(0, 0, 0)" stroke="rgb(204, 204, 204)" stroke-width="1px"></line><line x1="72.34375" y1="0" x2="67.34375" y2="0" style="visibility: inherit;" fill="rgb(0, 0, 0)" stroke="rgb(204, 204, 204)" stroke-width="1px"></line></g><g transform="translate(62.34375, 0)"><text x="0" y="177" dx="0em" dy="0.3em" style="text-anchor: end; visibility: hidden; font-family: Roboto, sans-serif; font-size: 12px; font-weight: 200;" fill="rgb(33, 33, 33)" stroke="none" stroke-width="1px">1.2e-5</text><text x="0" y="163.3846153846154" dx="0em" dy="0.3em" style="text-anchor: end; visibility: inherit; font-family: Roboto, sans-serif; font-size: 12px; font-weight: 200;" fill="rgb(33, 33, 33)" stroke="none" stroke-width="1px">1.4e-5</text><text x="0" y="149.76923076923077" dx="0em" dy="0.3em" style="text-anchor: end; visibility: hidden; font-family: Roboto, sans-serif; font-size: 12px; font-weight: 200;" fill="rgb(33, 33, 33)" stroke="none" stroke-width="1px">1.6e-5</text><text x="0" y="136.15384615384616" dx="0em" dy="0.3em" style="text-anchor: end; visibility: inherit; font-family: Roboto, sans-serif; font-size: 12px; font-weight: 200;" fill="rgb(33, 33, 33)" stroke="none" stroke-width="1px">1.8e-5</text><text x="0" y="122.53846153846153" dx="0em" dy="0.3em" style="text-anchor: end; visibility: hidden; font-family: Roboto, sans-serif; font-size: 12px; font-weight: 200;" fill="rgb(33, 33, 33)" stroke="none" stroke-width="1px">2e-5</text><text x="0" y="108.92307692307693" dx="0em" dy="0.3em" style="text-anchor: end; visibility: inherit; font-family: Roboto, sans-serif; font-size: 12px; font-weight: 200;" fill="rgb(33, 33, 33)" stroke="none" stroke-width="1px">2.2e-5</text><text x="0" y="95.30769230769232" dx="0em" dy="0.3em" style="text-anchor: end; visibility: hidden; font-family: Roboto, sans-serif; font-size: 12px; font-weight: 200;" fill="rgb(33, 33, 33)" stroke="none" stroke-width="1px">2.4e-5</text><text x="0" y="81.69230769230772" dx="0em" dy="0.3em" style="text-anchor: end; visibility: inherit; font-family: Roboto, sans-serif; font-size: 12px; font-weight: 200;" fill="rgb(33, 33, 33)" stroke="none" stroke-width="1px">2.6e-5</text><text x="0" y="68.0769230769231" dx="0em" dy="0.3em" style="text-anchor: end; visibility: hidden; font-family: Roboto, sans-serif; font-size: 12px; font-weight: 200;" fill="rgb(33, 33, 33)" stroke="none" stroke-width="1px">2.8e-5</text><text x="0" y="54.46153846153847" dx="0em" dy="0.3em" style="text-anchor: end; visibility: inherit; font-family: Roboto, sans-serif; font-size: 12px; font-weight: 200;" fill="rgb(33, 33, 33)" stroke="none" stroke-width="1px">3e-5</text><text x="0" y="40.84615384615386" dx="0em" dy="0.3em" style="text-anchor: end; visibility: hidden; font-family: Roboto, sans-serif; font-size: 12px; font-weight: 200;" fill="rgb(33, 33, 33)" stroke="none" stroke-width="1px">3.2e-5</text><text x="0" y="27.23076923076925" dx="0em" dy="0.3em" style="text-anchor: end; visibility: inherit; font-family: Roboto, sans-serif; font-size: 12px; font-weight: 200;" fill="rgb(33, 33, 33)" stroke="none" stroke-width="1px">3.4e-5</text><text x="0" y="13.615384615384626" dx="0em" dy="0.3em" style="text-anchor: end; visibility: hidden; font-family: Roboto, sans-serif; font-size: 12px; font-weight: 200;" fill="rgb(33, 33, 33)" stroke="none" stroke-width="1px">3.6e-5</text><text x="0" y="0" dx="0em" dy="0.3em" style="text-anchor: end; visibility: hidden; font-family: Roboto, sans-serif; font-size: 12px; font-weight: 200;" fill="rgb(33, 33, 33)" stroke="none" stroke-width="1px">3.8e-5</text></g><line x1="72.34375" y1="0" x2="72.34375" y2="177" fill="rgb(0, 0, 0)" stroke="rgb(204, 204, 204)" stroke-width="1px"></line></g></g><g transform="translate(72, 0)" clip-path="url(#clip_0)"><clipPath id="clip_0"><rect width="257" height="177"></rect></clipPath><g><g><g><line x1="0" y1="0" x2="0" y2="177" fill="rgb(0, 0, 0)" stroke="rgb(66, 66, 66)" stroke-width="1px" opacity="0.25"></line><line x1="21.471354166666664" y1="0" x2="21.471354166666664" y2="177" fill="rgb(0, 0, 0)" stroke="rgb(66, 66, 66)" stroke-width="1px" opacity="0.25"></line><line x1="42.94270833333333" y1="0" x2="42.94270833333333" y2="177" fill="rgb(0, 0, 0)" stroke="rgb(66, 66, 66)" stroke-width="1px" opacity="0.25"></line><line x1="64.4140625" y1="0" x2="64.4140625" y2="177" fill="rgb(0, 0, 0)" stroke="rgb(66, 66, 66)" stroke-width="1px" opacity="0.25"></line><line x1="85.88541666666666" y1="0" x2="85.88541666666666" y2="177" fill="rgb(0, 0, 0)" stroke="rgb(66, 66, 66)" stroke-width="1px" opacity="0.25"></line><line x1="107.35677083333334" y1="0" x2="107.35677083333334" y2="177" fill="rgb(0, 0, 0)" stroke="rgb(66, 66, 66)" stroke-width="1px" opacity="0.25"></line><line x1="128.828125" y1="0" x2="128.828125" y2="177" fill="rgb(0, 0, 0)" stroke="rgb(66, 66, 66)" stroke-width="1px" opacity="0.25"></line><line x1="150.29947916666669" y1="0" x2="150.29947916666669" y2="177" fill="rgb(0, 0, 0)" stroke="rgb(66, 66, 66)" stroke-width="1px" opacity="0.25"></line><line x1="171.77083333333331" y1="0" x2="171.77083333333331" y2="177" fill="rgb(0, 0, 0)" stroke="rgb(66, 66, 66)" stroke-width="1px" opacity="0.25"></line><line x1="193.2421875" y1="0" x2="193.2421875" y2="177" fill="rgb(0, 0, 0)" stroke="rgb(66, 66, 66)" stroke-width="1px" opacity="0.25"></line><line x1="214.71354166666669" y1="0" x2="214.71354166666669" y2="177" fill="rgb(0, 0, 0)" stroke="rgb(66, 66, 66)" stroke-width="1px" opacity="0.25"></line><line x1="236.18489583333331" y1="0" x2="236.18489583333331" y2="177" fill="rgb(0, 0, 0)" stroke="rgb(66, 66, 66)" stroke-width="1px" opacity="0.25"></line><line x1="257.65625" y1="0" x2="257.65625" y2="177" fill="rgb(0, 0, 0)" stroke="rgb(66, 66, 66)" stroke-width="1px" opacity="0.25"></line></g><g><line x1="0" y1="177" x2="257.65625" y2="177" fill="rgb(0, 0, 0)" stroke="rgb(66, 66, 66)" stroke-width="1px" opacity="0.25"></line><line x1="0" y1="163.3846153846154" x2="257.65625" y2="163.3846153846154" fill="rgb(0, 0, 0)" stroke="rgb(66, 66, 66)" stroke-width="1px" opacity="0.25"></line><line x1="0" y1="149.76923076923077" x2="257.65625" y2="149.76923076923077" fill="rgb(0, 0, 0)" stroke="rgb(66, 66, 66)" stroke-width="1px" opacity="0.25"></line><line x1="0" y1="136.15384615384616" x2="257.65625" y2="136.15384615384616" fill="rgb(0, 0, 0)" stroke="rgb(66, 66, 66)" stroke-width="1px" opacity="0.25"></line><line x1="0" y1="122.53846153846153" x2="257.65625" y2="122.53846153846153" fill="rgb(0, 0, 0)" stroke="rgb(66, 66, 66)" stroke-width="1px" opacity="0.25"></line><line x1="0" y1="108.92307692307693" x2="257.65625" y2="108.92307692307693" fill="rgb(0, 0, 0)" stroke="rgb(66, 66, 66)" stroke-width="1px" opacity="0.25"></line><line x1="0" y1="95.30769230769232" x2="257.65625" y2="95.30769230769232" fill="rgb(0, 0, 0)" stroke="rgb(66, 66, 66)" stroke-width="1px" opacity="0.25"></line><line x1="0" y1="81.69230769230772" x2="257.65625" y2="81.69230769230772" fill="rgb(0, 0, 0)" stroke="rgb(66, 66, 66)" stroke-width="1px" opacity="0.25"></line><line x1="0" y1="68.0769230769231" x2="257.65625" y2="68.0769230769231" fill="rgb(0, 0, 0)" stroke="rgb(66, 66, 66)" stroke-width="1px" opacity="0.25"></line><line x1="0" y1="54.46153846153847" x2="257.65625" y2="54.46153846153847" fill="rgb(0, 0, 0)" stroke="rgb(66, 66, 66)" stroke-width="1px" opacity="0.25"></line><line x1="0" y1="40.84615384615386" x2="257.65625" y2="40.84615384615386" fill="rgb(0, 0, 0)" stroke="rgb(66, 66, 66)" stroke-width="1px" opacity="0.25"></line><line x1="0" y1="27.23076923076925" x2="257.65625" y2="27.23076923076925" fill="rgb(0, 0, 0)" stroke="rgb(66, 66, 66)" stroke-width="1px" opacity="0.25"></line><line x1="0" y1="13.615384615384626" x2="257.65625" y2="13.615384615384626" fill="rgb(0, 0, 0)" stroke="rgb(66, 66, 66)" stroke-width="1px" opacity="0.25"></line><line x1="0" y1="0" x2="257.65625" y2="0" fill="rgb(0, 0, 0)" stroke="rgb(66, 66, 66)" stroke-width="1px" opacity="0.25"></line></g></g></g><g><g><line x1="0" y1="258.6923076923077" x2="257.65625" y2="258.6923076923077" fill="rgb(0, 0, 0)" stroke="rgb(153, 153, 153)" stroke-width="1.5px"></line></g></g><g><g><line x1="21.471354166666664" y1="0" x2="21.471354166666664" y2="177" fill="rgb(0, 0, 0)" stroke="rgb(153, 153, 153)" stroke-width="1.5px"></line></g></g><g><g><g><g><g><path stroke="rgb(255, 112, 67)" stroke-width="2px" d="M32.20703125,-4.616185871686564L33.280598958333336,11.179399270078884L34.354166666666664,16.048279776542902L35.427734375,21.271776849162105L36.501302083333336,30.548518498986596L37.57486979166667,29.7397410306571L38.6484375,31.319081087946273L39.722005208333336,34.55494024105721L40.795572916666664,38.77543505093303L41.869140625,39.44042500254099L42.94270833333333,46.22602759523121L44.016276041666664,50.00210937428459L45.08984375,55.361951062834144L46.163411458333336,60.76095243939034L47.236979166666664,65.37114387547494L48.310546875,55.86116900159174L49.384114583333336,60.578150847015884L50.457682291666664,50.160780035734014L51.53125,56.75182637909904L52.604817708333336,63.771443376600146L53.67838541666667,74.58904827398693L54.751953125,77.52132953544174L55.825520833333336,78.68672925402599L56.899088541666664,82.89642030453915L57.97265625,81.28981907653395L59.04622395833333,84.76070947723305L60.119791666666664,88.43903657927866L61.193359375,84.99560018780711L62.266927083333336,87.2447783800413L63.340494791666664,92.80172775915945L64.4140625,85.662090867486L65.48763020833333,84.87631234009226L66.56119791666667,90.30860673954504L67.634765625,90.74685598628487L68.70833333333333,95.51027224399L69.78190104166666,94.56372225007249L70.85546875,97.48161581569951L71.92903645833333,100.26209755562286L73.00260416666667,97.32371729861585L74.076171875,97.48450097464807L75.14973958333334,101.31298107747487L76.22330729166667,101.4684828044096L77.296875,95.02596310817422L78.37044270833333,99.63576583638847L79.44401041666667,104.67318722436052L80.517578125,106.81073238327454L81.59114583333333,104.5444306014972L82.66471354166667,103.1477973668045L83.73828125,99.92331774052957L84.81184895833333,101.03141025300954L85.88541666666666,105.98847315443622L86.958984375,111.8474033181945L88.03255208333333,113.65990407610363L89.10611979166667,113.76811271504582L90.1796875,110.94102952811213L91.25325520833334,112.30783354853914L92.32682291666667,114.52170548143474L93.400390625,115.30488901853937L94.47395833333333,106.77447001914138L95.54752604166667,114.54655139197075L96.62109375,101.91152245490203L97.69466145833333,99.93341127089612L98.76822916666667,111.34093562063494L99.841796875,110.87247973595807L100.91536458333333,114.010251946472L101.98893229166666,114.20688906937009L103.0625,113.66190385543183L104.13606770833333,98.80555512210877L105.20963541666667,111.45878236046535L106.283203125,114.49083778393968L107.35677083333334,113.58513572506293L108.43033854166667,110.45228023092689L109.50390625,108.50935853584804L110.57747395833333,117.31287416780232L111.65104166666667,119.41996144180794L112.724609375,112.28445610631364L113.79817708333333,119.62405735609201L114.87174479166667,127.6938655986146L115.9453125,131.78805774824585L117.01888020833333,132.69275509102L118.09244791666666,127.73755234629157L119.166015625,129.79807493696526L120.23958333333333,129.97924758789918L121.31315104166667,128.07609536388046L122.38671875,129.80863332237442L123.46028645833334,127.29725676265474L124.53385416666667,135.20096814049285L125.607421875,128.2902083283836L126.68098958333333,120.09739456179247L127.75455729166667,112.27275286989776L128.828125,120.90074890306413L129.90169270833334,129.174257776174L130.97526041666666,131.8331016361459L132.048828125,132.94086469803239L133.12239583333334,128.54524468279115L134.19596354166669,128.68115664100068L135.26953125,129.62024479421538L136.34309895833334,134.7922888471856L137.41666666666666,127.7474541876994L138.490234375,134.96723229553467L139.56380208333331,127.73810919779281L140.63736979166666,136.11533088836848L141.7109375,138.10195958151982L142.78450520833334,137.4942731768216L143.85807291666666,138.55668219593105L144.931640625,140.33071972209922L146.00520833333334,137.5175910526359L147.07877604166666,138.54185987740743L148.15234375,133.6157921819955L149.22591145833334,132.25720752635908L150.29947916666669,135.41823699367373L151.373046875,140.12613005409926L152.44661458333334,144.71430145457336L153.52018229166666,140.28794177868846L154.59375,138.69637094657705L155.66731770833331,144.24847576165925L156.74088541666666,149.39889577906968L157.814453125,134.74905268419374L158.88802083333334,134.2267716817007L159.96158854166666,141.65523074571072L161.03515625,138.11159700833076L162.10872395833334,142.31928862129436L163.18229166666666,142.21686427092942L164.255859375,139.21121386876578L165.32942708333334,143.9608568968811L166.40299479166669,149.4088367917687L167.4765625,143.79315950922586L168.55013020833334,138.28611454367936L169.62369791666666,139.16299855737014L170.697265625,145.72457257812016L171.77083333333331,144.93312657175326L172.84440104166666,146.0822705055306L173.91796875,150.35349759970913L174.99153645833334,148.19895109619208L176.06510416666666,149.8811935162737L177.138671875,143.15147521523892L178.21223958333334,146.59082976234046L179.28580729166666,149.09551932457106L180.359375,151.72352279955908L181.43294270833334,142.23547701485185L182.50651041666669,144.66895327782862L183.580078125,145.9450357763803L184.65364583333334,142.8728591398534L185.72721354166666,138.0411793464731L186.80078125,143.1999965497043L187.87434895833331,151.9975081502681L188.94791666666666,147.93654452359377L190.021484375,154.1741612333249L191.09505208333334,151.18691904282304L192.16861979166666,156.76237172590803L193.2421875,152.30185437794967L194.31575520833334,152.93181228840254L195.38932291666666,146.77335209953702L196.462890625,140.7135656390102L197.53645833333334,148.834431135541L198.61002604166669,156.25635501800693L199.68359375,150.94083981537153L200.75716145833334,151.60236901212312L201.83072916666666,152.00169380873518L202.904296875,154.7990915033494L203.97786458333331,156.45239486279624L205.05143229166666,156.46627879544553L206.125,158.9267641436372L207.19856770833334,155.35369198229722L208.27213541666666,155.02021627515748L209.345703125,160.65911378528344L210.41927083333334,152.14721714927947L211.49283854166666,151.23537626316292L212.56640625,153.68205944309562L213.63997395833334,156.9158131288738L214.71354166666669,161.54943607998797L215.787109375,158.1296267671702L216.86067708333334,158.763417048253L217.93424479166666,153.735130679868L219.0078125,155.83565167964494L220.08138020833331,157.1901923941349L221.15494791666666,160.73856353473755L222.228515625,158.33012370031585L223.30208333333334,160.2136796507981L224.37565104166666,163.90156898187774L225.44921875,161.5633548438768L226.52278645833334,160.5431242133151L227.59635416666666,157.79312681941823L228.669921875,157.72764767383043L229.74348958333334,159.9302002621076L230.81705729166669,159.05763114432455L231.890625,162.7905073736771L232.96419270833334,159.3171691726424L234.03776041666666,160.34585420687537L235.111328125,163.8842853781958L236.18489583333331,153.1469586463398" style="fill: none;" fill="none"></path></g></g></g></g><g opacity="0.2"><g><g><g><path stroke="rgb(255, 112, 67)" stroke-width="2px" d="M31.133463541666668,-5.409950817872469L32.20703125,17.525990062823105L33.280598958333336,34.72951218804632L34.354166666666664,23.325104303532648L35.427734375,29.089966833851168L36.501302083333336,44.445456871100205L37.57486979166667,28.52752551571646L38.6484375,33.68697730090937L39.722005208333336,39.40735966357619L40.795572916666664,45.10510568257172L41.869140625,40.437808625426946L42.94270833333333,56.40381125331176L44.016276041666664,55.66602495356571L45.08984375,63.40153722778465L46.163411458333336,68.85934791036058L47.236979166666664,72.28637641748915L48.310546875,41.5962742835982L49.384114583333336,67.65360349937916L50.457682291666664,34.53475047400795L51.53125,66.63838577533787L52.604817708333336,74.30086240679242L53.67838541666667,90.81544964134137L54.751953125,81.91975045524754L55.825520833333336,80.43482860002685L56.899088541666664,89.21095637775635L57.97265625,78.87991734960367L59.04622395833333,89.96704492911411L60.119791666666664,93.95652713749756L61.193359375,79.83044565387536L62.266927083333336,90.61854564751356L63.340494791666664,101.13715179688566L64.4140625,74.9526355538356L65.48763020833333,83.69764455057717L66.56119791666667,98.4570483321888L67.634765625,91.40422985607832L68.70833333333333,102.6553966284846L69.78190104166666,93.14389725944226L70.85546875,101.85845616368508L71.92903645833333,104.43282016524778L73.00260416666667,92.91614691327024L74.076171875,97.72567648869098L75.14973958333334,107.05570123163768L76.22330729166667,101.70173539480983L77.296875,85.36218356386794L78.37044270833333,106.55046992868974L79.44401041666667,112.22931930630541L80.517578125,110.01705012164221L81.59114583333333,101.14497792883328L82.66471354166667,101.0528475147663L83.73828125,95.0865983011183L84.81184895833333,102.69354902172927L85.88541666666666,113.42406750657561L86.958984375,120.63579856383149L88.03255208333333,116.37865521296716L89.10611979166667,113.93042567345906L90.1796875,106.70040474771164L91.25325520833334,114.3580395791796L92.32682291666667,117.84251338077817L93.400390625,116.47966432419624L94.47395833333333,93.97884152004443L95.54752604166667,126.20467345121477L96.62109375,82.95897904929903L97.69466145833333,96.96624449488725L98.76822916666667,128.45222214524313L99.841796875,110.16979590894279L100.91536458333333,118.71691026224289L101.98893229166666,114.50184475371722L103.0625,112.84442603452437L104.13606770833333,76.52103202212425L105.20963541666667,130.43862321800015L106.283203125,119.0389209191512L107.35677083333334,112.22658263674778L108.43033854166667,105.75299698972286L109.50390625,105.59497599322978L110.57747395833333,130.51814761573377L111.65104166666667,122.58059235281634L112.724609375,101.58119810307218L113.79817708333333,130.63345923075954L114.87174479166667,139.79857796239847L115.9453125,137.92934597269274L117.01888020833333,134.04980110518116L118.09244791666666,120.30474822919889L119.166015625,132.88885882297583L120.23958333333333,130.25100656430004L121.31315104166667,125.22136702785232L122.38671875,132.40744026011538L123.46028645833334,123.53019192307525L124.53385416666667,147.05653520725005L125.607421875,117.92406861021972L126.68098958333333,107.80817391190571L127.75455729166667,100.53579033205571L128.828125,133.8427429528137L129.90169270833334,141.5845210858388L130.97526041666666,135.8213674261038L132.048828125,134.602509290862L133.12239583333334,121.95181465992937L134.19596354166669,128.88502457831504L135.26953125,131.02887702403734L136.34309895833334,142.55035492664098L137.41666666666666,117.18020219847004L138.490234375,145.7968994572875L139.56380208333331,116.89442455118004L140.63736979166666,148.68116342423198L141.7109375,141.08190262124677L142.78450520833334,136.58274356977424L143.85807291666666,140.1502957245953L144.931640625,142.9917760113514L146.00520833333334,133.29789804844097L147.07877604166666,140.0782631145647L148.15234375,126.22669063887756L149.22591145833334,130.21933054290443L150.29947916666669,140.15978119464575L151.373046875,147.18796964473754L152.44661458333334,151.59655855528456L153.52018229166666,133.64840226486112L154.59375,136.3090146984099L155.66731770833331,152.57663298428255L156.74088541666666,157.12452580518527L157.814453125,112.77428804187983L158.88802083333334,133.44335017796124L159.96158854166666,152.7979193417257L161.03515625,132.79614640226086L162.10872395833334,148.63082604073972L163.18229166666666,142.063227745382L164.255859375,134.70273826552037L165.32942708333334,151.085321439054L166.40299479166669,157.58080663410007L167.4765625,135.36964358541167L168.55013020833334,130.0255470953595L169.62369791666666,140.47832457790636L170.697265625,155.56693360924524L171.77083333333331,143.74595756220293L172.84440104166666,147.80598640619652L173.91796875,156.76033824097695L174.99153645833334,144.96713134091652L176.06510416666666,152.40455714639617L177.138671875,133.05689776368672L178.21223958333334,151.7498615829928L179.28580729166666,152.85255366791702L180.359375,155.6655280120411L181.43294270833334,128.00340833779103L182.50651041666669,148.3191676722938L183.580078125,147.85915952420777L184.65364583333334,138.2645941850631L185.72721354166666,130.7936596564026L186.80078125,150.9382223545511L187.87434895833331,165.1937755511138L188.94791666666666,141.84509908358228L190.021484375,163.53058629792156L191.09505208333334,146.70605575707026L192.16861979166666,165.12555075053555L193.2421875,145.61107835601211L194.31575520833334,153.87674915408178L195.38932291666666,137.5356618162388L196.462890625,131.6238859482199L197.53645833333334,161.0157293803372L198.61002604166669,167.38924084170586L199.68359375,142.96756701141848L200.75716145833334,152.5946628072505L201.83072916666666,152.60068100365328L202.904296875,158.99518804527068L203.97786458333331,158.93234990196652L205.05143229166666,156.48710469441946L206.125,162.6174921659247L207.19856770833334,149.9940837402873L208.27213541666666,154.52000271444783L209.345703125,169.1174600504724L210.41927083333334,139.37937219527353L211.49283854166666,149.86761493398808L212.56640625,157.35208421299467L213.63997395833334,161.76644365754106L214.71354166666669,168.49987050665928L215.787109375,152.99991279794352L216.86067708333334,159.71410246987722L217.93424479166666,146.1927011272906L219.0078125,158.98643317931027L220.08138020833331,159.22200346586985L221.15494791666666,166.06112024564152L222.228515625,154.7174639486833L223.30208333333334,163.03901357652146L224.37565104166666,169.43340297849724L225.44921875,158.0560336368754L226.52278645833334,159.01277826747256L227.59635416666666,153.66813072857286L228.669921875,157.62942895544873L229.74348958333334,163.2340291445233L230.81705729166669,157.74877746765L231.890625,168.38982171770587L232.96419270833334,154.10716187109043L234.03776041666666,161.8888817582248L235.111328125,169.19193213517653L236.18489583333331,137.04096854855575" style="fill: none;" fill="none"></path></g></g></g></g></g></g><g transform="translate(72, 177)" clip-path="url(#clip_1)"><clipPath id="clip_1"><rect width="257" height="23"></rect></clipPath><g><g><line x1="0" y1="0" x2="0" y2="5" style="visibility: inherit;" fill="rgb(0, 0, 0)" stroke="rgb(204, 204, 204)" stroke-width="1px"></line><line x1="21.471354166666664" y1="0" x2="21.471354166666664" y2="5" style="visibility: inherit;" fill="rgb(0, 0, 0)" stroke="rgb(204, 204, 204)" stroke-width="1px"></line><line x1="42.94270833333333" y1="0" x2="42.94270833333333" y2="5" style="visibility: inherit;" fill="rgb(0, 0, 0)" stroke="rgb(204, 204, 204)" stroke-width="1px"></line><line x1="64.4140625" y1="0" x2="64.4140625" y2="5" style="visibility: inherit;" fill="rgb(0, 0, 0)" stroke="rgb(204, 204, 204)" stroke-width="1px"></line><line x1="85.88541666666666" y1="0" x2="85.88541666666666" y2="5" style="visibility: inherit;" fill="rgb(0, 0, 0)" stroke="rgb(204, 204, 204)" stroke-width="1px"></line><line x1="107.35677083333334" y1="0" x2="107.35677083333334" y2="5" style="visibility: inherit;" fill="rgb(0, 0, 0)" stroke="rgb(204, 204, 204)" stroke-width="1px"></line><line x1="128.828125" y1="0" x2="128.828125" y2="5" style="visibility: inherit;" fill="rgb(0, 0, 0)" stroke="rgb(204, 204, 204)" stroke-width="1px"></line><line x1="150.29947916666669" y1="0" x2="150.29947916666669" y2="5" style="visibility: inherit;" fill="rgb(0, 0, 0)" stroke="rgb(204, 204, 204)" stroke-width="1px"></line><line x1="171.77083333333331" y1="0" x2="171.77083333333331" y2="5" style="visibility: inherit;" fill="rgb(0, 0, 0)" stroke="rgb(204, 204, 204)" stroke-width="1px"></line><line x1="193.2421875" y1="0" x2="193.2421875" y2="5" style="visibility: inherit;" fill="rgb(0, 0, 0)" stroke="rgb(204, 204, 204)" stroke-width="1px"></line><line x1="214.71354166666669" y1="0" x2="214.71354166666669" y2="5" style="visibility: inherit;" fill="rgb(0, 0, 0)" stroke="rgb(204, 204, 204)" stroke-width="1px"></line><line x1="236.18489583333331" y1="0" x2="236.18489583333331" y2="5" style="visibility: inherit;" fill="rgb(0, 0, 0)" stroke="rgb(204, 204, 204)" stroke-width="1px"></line><line x1="257.65625" y1="0" x2="257.65625" y2="5" style="visibility: inherit;" fill="rgb(0, 0, 0)" stroke="rgb(204, 204, 204)" stroke-width="1px"></line></g><g transform="translate(0, 8)"><text x="0" y="0" dx="0em" dy="0.95em" style="text-anchor: middle; visibility: hidden; font-family: Roboto, sans-serif; font-size: 12px; font-weight: 200;" fill="rgb(33, 33, 33)" stroke="none" stroke-width="1px">-20</text><text x="21.471354166666664" y="0" dx="0em" dy="0.95em" style="text-anchor: middle; visibility: inherit; font-family: Roboto, sans-serif; font-size: 12px; font-weight: 200;" fill="rgb(33, 33, 33)" stroke="none" stroke-width="1px">0</text><text x="42.94270833333333" y="0" dx="0em" dy="0.95em" style="text-anchor: middle; visibility: hidden; font-family: Roboto, sans-serif; font-size: 12px; font-weight: 200;" fill="rgb(33, 33, 33)" stroke="none" stroke-width="1px">20</text><text x="64.4140625" y="0" dx="0em" dy="0.95em" style="text-anchor: middle; visibility: inherit; font-family: Roboto, sans-serif; font-size: 12px; font-weight: 200;" fill="rgb(33, 33, 33)" stroke="none" stroke-width="1px">40</text><text x="85.88541666666666" y="0" dx="0em" dy="0.95em" style="text-anchor: middle; visibility: hidden; font-family: Roboto, sans-serif; font-size: 12px; font-weight: 200;" fill="rgb(33, 33, 33)" stroke="none" stroke-width="1px">60</text><text x="107.35677083333334" y="0" dx="0em" dy="0.95em" style="text-anchor: middle; visibility: inherit; font-family: Roboto, sans-serif; font-size: 12px; font-weight: 200;" fill="rgb(33, 33, 33)" stroke="none" stroke-width="1px">80</text><text x="128.828125" y="0" dx="0em" dy="0.95em" style="text-anchor: middle; visibility: hidden; font-family: Roboto, sans-serif; font-size: 12px; font-weight: 200;" fill="rgb(33, 33, 33)" stroke="none" stroke-width="1px">100</text><text x="150.29947916666669" y="0" dx="0em" dy="0.95em" style="text-anchor: middle; visibility: inherit; font-family: Roboto, sans-serif; font-size: 12px; font-weight: 200;" fill="rgb(33, 33, 33)" stroke="none" stroke-width="1px">120</text><text x="171.77083333333331" y="0" dx="0em" dy="0.95em" style="text-anchor: middle; visibility: hidden; font-family: Roboto, sans-serif; font-size: 12px; font-weight: 200;" fill="rgb(33, 33, 33)" stroke="none" stroke-width="1px">140</text><text x="193.2421875" y="0" dx="0em" dy="0.95em" style="text-anchor: middle; visibility: inherit; font-family: Roboto, sans-serif; font-size: 12px; font-weight: 200;" fill="rgb(33, 33, 33)" stroke="none" stroke-width="1px">160</text><text x="214.71354166666669" y="0" dx="0em" dy="0.95em" style="text-anchor: middle; visibility: hidden; font-family: Roboto, sans-serif; font-size: 12px; font-weight: 200;" fill="rgb(33, 33, 33)" stroke="none" stroke-width="1px">180</text><text x="236.18489583333331" y="0" dx="0em" dy="0.95em" style="text-anchor: middle; visibility: inherit; font-family: Roboto, sans-serif; font-size: 12px; font-weight: 200;" fill="rgb(33, 33, 33)" stroke="none" stroke-width="1px">200</text><text x="257.65625" y="0" dx="0em" dy="0.95em" style="text-anchor: middle; visibility: hidden; font-family: Roboto, sans-serif; font-size: 12px; font-weight: 200;" fill="rgb(33, 33, 33)" stroke="none" stroke-width="1px">220</text></g><line x1="0" y1="0" x2="257.65625" y2="0" fill="rgb(0, 0, 0)" stroke="rgb(204, 204, 204)" stroke-width="1px"></line></g></g></g></g></svg>