<svg viewBox="0 0 329.9884338378906 199.98843383789062" xmlns="http://www.w3.org/2000/svg"><g><g><g><g><g><line x1="72.34375" y1="176.988" x2="67.34375" y2="176.988" style="visibility: inherit;" fill="rgb(0, 0, 0)" stroke="rgb(204, 204, 204)" stroke-width="1px"></line><line x1="72.34375" y1="159.2892" x2="67.34375" y2="159.2892" style="visibility: inherit;" fill="rgb(0, 0, 0)" stroke="rgb(204, 204, 204)" stroke-width="1px"></line><line x1="72.34375" y1="141.59040000000002" x2="67.34375" y2="141.59040000000002" style="visibility: inherit;" fill="rgb(0, 0, 0)" stroke="rgb(204, 204, 204)" stroke-width="1px"></line><line x1="72.34375" y1="123.8916" x2="67.34375" y2="123.8916" style="visibility: inherit;" fill="rgb(0, 0, 0)" stroke="rgb(204, 204, 204)" stroke-width="1px"></line><line x1="72.34375" y1="106.19279999999999" x2="67.34375" y2="106.19279999999999" style="visibility: inherit;" fill="rgb(0, 0, 0)" stroke="rgb(204, 204, 204)" stroke-width="1px"></line><line x1="72.34375" y1="88.494" x2="67.34375" y2="88.494" style="visibility: inherit;" fill="rgb(0, 0, 0)" stroke="rgb(204, 204, 204)" stroke-width="1px"></line><line x1="72.34375" y1="70.79520000000001" x2="67.34375" y2="70.79520000000001" style="visibility: inherit;" fill="rgb(0, 0, 0)" stroke="rgb(204, 204, 204)" stroke-width="1px"></line><line x1="72.34375" y1="53.09639999999999" x2="67.34375" y2="53.09639999999999" style="visibility: inherit;" fill="rgb(0, 0, 0)" stroke="rgb(204, 204, 204)" stroke-width="1px"></line><line x1="72.34375" y1="35.39760000000001" x2="67.34375" y2="35.39760000000001" style="visibility: inherit;" fill="rgb(0, 0, 0)" stroke="rgb(204, 204, 204)" stroke-width="1px"></line><line x1="72.34375" y1="17.698799999999995" x2="67.34375" y2="17.698799999999995" style="visibility: inherit;" fill="rgb(0, 0, 0)" stroke="rgb(204, 204, 204)" stroke-width="1px"></line><line x1="72.34375" y1="0" x2="67.34375" y2="0" style="visibility: inherit;" fill="rgb(0, 0, 0)" stroke="rgb(204, 204, 204)" stroke-width="1px"></line></g><g transform="translate(62.34375, 0)"><text x="0" y="176.988" dx="0em" dy="0.3em" style="text-anchor: end; visibility: hidden; font-family: Roboto, sans-serif; font-size: 12px; font-weight: 200;" fill="rgb(33, 33, 33)" stroke="none" stroke-width="1px">-5e-6</text><text x="0" y="159.2892" dx="0em" dy="0.3em" style="text-anchor: end; visibility: inherit; font-family: Roboto, sans-serif; font-size: 12px; font-weight: 200;" fill="rgb(33, 33, 33)" stroke="none" stroke-width="1px">0</text><text x="0" y="141.59040000000002" dx="0em" dy="0.3em" style="text-anchor: end; visibility: hidden; font-family: Roboto, sans-serif; font-size: 12px; font-weight: 200;" fill="rgb(33, 33, 33)" stroke="none" stroke-width="1px">5e-6</text><text x="0" y="123.8916" dx="0em" dy="0.3em" style="text-anchor: end; visibility: inherit; font-family: Roboto, sans-serif; font-size: 12px; font-weight: 200;" fill="rgb(33, 33, 33)" stroke="none" stroke-width="1px">1e-5</text><text x="0" y="106.19279999999999" dx="0em" dy="0.3em" style="text-anchor: end; visibility: hidden; font-family: Roboto, sans-serif; font-size: 12px; font-weight: 200;" fill="rgb(33, 33, 33)" stroke="none" stroke-width="1px">1.5e-5</text><text x="0" y="88.494" dx="0em" dy="0.3em" style="text-anchor: end; visibility: inherit; font-family: Roboto, sans-serif; font-size: 12px; font-weight: 200;" fill="rgb(33, 33, 33)" stroke="none" stroke-width="1px">2e-5</text><text x="0" y="70.79520000000001" dx="0em" dy="0.3em" style="text-anchor: end; visibility: hidden; font-family: Roboto, sans-serif; font-size: 12px; font-weight: 200;" fill="rgb(33, 33, 33)" stroke="none" stroke-width="1px">2.5e-5</text><text x="0" y="53.09639999999999" dx="0em" dy="0.3em" style="text-anchor: end; visibility: inherit; font-family: Roboto, sans-serif; font-size: 12px; font-weight: 200;" fill="rgb(33, 33, 33)" stroke="none" stroke-width="1px">3e-5</text><text x="0" y="35.39760000000001" dx="0em" dy="0.3em" style="text-anchor: end; visibility: hidden; font-family: Roboto, sans-serif; font-size: 12px; font-weight: 200;" fill="rgb(33, 33, 33)" stroke="none" stroke-width="1px">3.5e-5</text><text x="0" y="17.698799999999995" dx="0em" dy="0.3em" style="text-anchor: end; visibility: inherit; font-family: Roboto, sans-serif; font-size: 12px; font-weight: 200;" fill="rgb(33, 33, 33)" stroke="none" stroke-width="1px">4e-5</text><text x="0" y="0" dx="0em" dy="0.3em" style="text-anchor: end; visibility: hidden; font-family: Roboto, sans-serif; font-size: 12px; font-weight: 200;" fill="rgb(33, 33, 33)" stroke="none" stroke-width="1px">4.5e-5</text></g><line x1="72.34375" y1="0" x2="72.34375" y2="176.988" fill="rgb(0, 0, 0)" stroke="rgb(204, 204, 204)" stroke-width="1px"></line></g></g><g transform="translate(72, 0)" clip-path="url(#clip_0)"><clipPath id="clip_0"><rect width="257" height="176"></rect></clipPath><g><g><g><line x1="0" y1="0" x2="0" y2="176.988" fill="rgb(0, 0, 0)" stroke="rgb(66, 66, 66)" stroke-width="1px" opacity="0.25"></line><line x1="19.818788461538464" y1="0" x2="19.818788461538464" y2="176.988" fill="rgb(0, 0, 0)" stroke="rgb(66, 66, 66)" stroke-width="1px" opacity="0.25"></line><line x1="39.63757692307693" y1="0" x2="39.63757692307693" y2="176.988" fill="rgb(0, 0, 0)" stroke="rgb(66, 66, 66)" stroke-width="1px" opacity="0.25"></line><line x1="59.45636538461539" y1="0" x2="59.45636538461539" y2="176.988" fill="rgb(0, 0, 0)" stroke="rgb(66, 66, 66)" stroke-width="1px" opacity="0.25"></line><line x1="79.27515384615386" y1="0" x2="79.27515384615386" y2="176.988" fill="rgb(0, 0, 0)" stroke="rgb(66, 66, 66)" stroke-width="1px" opacity="0.25"></line><line x1="99.09394230769232" y1="0" x2="99.09394230769232" y2="176.988" fill="rgb(0, 0, 0)" stroke="rgb(66, 66, 66)" stroke-width="1px" opacity="0.25"></line><line x1="118.91273076923078" y1="0" x2="118.91273076923078" y2="176.988" fill="rgb(0, 0, 0)" stroke="rgb(66, 66, 66)" stroke-width="1px" opacity="0.25"></line><line x1="138.73151923076924" y1="0" x2="138.73151923076924" y2="176.988" fill="rgb(0, 0, 0)" stroke="rgb(66, 66, 66)" stroke-width="1px" opacity="0.25"></line><line x1="158.5503076923077" y1="0" x2="158.5503076923077" y2="176.988" fill="rgb(0, 0, 0)" stroke="rgb(66, 66, 66)" stroke-width="1px" opacity="0.25"></line><line x1="178.36909615384616" y1="0" x2="178.36909615384616" y2="176.988" fill="rgb(0, 0, 0)" stroke="rgb(66, 66, 66)" stroke-width="1px" opacity="0.25"></line><line x1="198.18788461538463" y1="0" x2="198.18788461538463" y2="176.988" fill="rgb(0, 0, 0)" stroke="rgb(66, 66, 66)" stroke-width="1px" opacity="0.25"></line><line x1="218.00667307692308" y1="0" x2="218.00667307692308" y2="176.988" fill="rgb(0, 0, 0)" stroke="rgb(66, 66, 66)" stroke-width="1px" opacity="0.25"></line><line x1="237.82546153846155" y1="0" x2="237.82546153846155" y2="176.988" fill="rgb(0, 0, 0)" stroke="rgb(66, 66, 66)" stroke-width="1px" opacity="0.25"></line><line x1="257.64425" y1="0" x2="257.64425" y2="176.988" fill="rgb(0, 0, 0)" stroke="rgb(66, 66, 66)" stroke-width="1px" opacity="0.25"></line></g><g><line x1="0" y1="176.988" x2="257.64425" y2="176.988" fill="rgb(0, 0, 0)" stroke="rgb(66, 66, 66)" stroke-width="1px" opacity="0.25"></line><line x1="0" y1="159.2892" x2="257.64425" y2="159.2892" fill="rgb(0, 0, 0)" stroke="rgb(66, 66, 66)" stroke-width="1px" opacity="0.25"></line><line x1="0" y1="141.59040000000002" x2="257.64425" y2="141.59040000000002" fill="rgb(0, 0, 0)" stroke="rgb(66, 66, 66)" stroke-width="1px" opacity="0.25"></line><line x1="0" y1="123.8916" x2="257.64425" y2="123.8916" fill="rgb(0, 0, 0)" stroke="rgb(66, 66, 66)" stroke-width="1px" opacity="0.25"></line><line x1="0" y1="106.19279999999999" x2="257.64425" y2="106.19279999999999" fill="rgb(0, 0, 0)" stroke="rgb(66, 66, 66)" stroke-width="1px" opacity="0.25"></line><line x1="0" y1="88.494" x2="257.64425" y2="88.494" fill="rgb(0, 0, 0)" stroke="rgb(66, 66, 66)" stroke-width="1px" opacity="0.25"></line><line x1="0" y1="70.79520000000001" x2="257.64425" y2="70.79520000000001" fill="rgb(0, 0, 0)" stroke="rgb(66, 66, 66)" stroke-width="1px" opacity="0.25"></line><line x1="0" y1="53.09639999999999" x2="257.64425" y2="53.09639999999999" fill="rgb(0, 0, 0)" stroke="rgb(66, 66, 66)" stroke-width="1px" opacity="0.25"></line><line x1="0" y1="35.39760000000001" x2="257.64425" y2="35.39760000000001" fill="rgb(0, 0, 0)" stroke="rgb(66, 66, 66)" stroke-width="1px" opacity="0.25"></line><line x1="0" y1="17.698799999999995" x2="257.64425" y2="17.698799999999995" fill="rgb(0, 0, 0)" stroke="rgb(66, 66, 66)" stroke-width="1px" opacity="0.25"></line><line x1="0" y1="0" x2="257.64425" y2="0" fill="rgb(0, 0, 0)" stroke="rgb(66, 66, 66)" stroke-width="1px" opacity="0.25"></line></g></g></g><g><g><line x1="0" y1="159.2892" x2="257.64425" y2="159.2892" fill="rgb(0, 0, 0)" stroke="rgb(153, 153, 153)" stroke-width="1.5px"></line></g></g><g><g><line x1="19.818788461538464" y1="0" x2="19.818788461538464" y2="176.988" fill="rgb(0, 0, 0)" stroke="rgb(153, 153, 153)" stroke-width="1.5px"></line></g></g><g><g><g><g><g><path stroke="rgb(255, 112, 67)" stroke-width="2px" d="M29.728182692307694,-23.742707787663335L31.71006153846154,1.9485836638666758L33.691940384615386,18.754497794389476L35.67381923076923,26.520490494372456L37.65569807692308,42.0820449032419L39.63757692307693,52.22378066245229L41.61945576923077,60.37447300277853L43.601334615384616,71.16258077910396L45.58321346153846,78.01050400456087L47.56509230769231,76.32029951593586L49.54697115384616,84.70354036714808L51.528850000000006,87.91907305428084L53.510728846153846,89.81943533097237L55.49260769230769,93.37929560277972L57.47448653846154,95.3855065205518L59.45636538461539,97.80561989310931L61.438244230769236,96.60842999345131L63.42012307692308,100.1150313412118L65.40200192307692,104.65844341403894L67.38388076923077,106.8020703081051L69.36575961538462,109.44566478976036L71.34763846153847,109.57837545127754L73.3295173076923,109.50234904513991L75.31139615384616,112.24583416785812L77.293275,111.52272307217603L79.27515384615386,113.1190783525911L81.25703269230769,115.37374665773642L83.23891153846154,118.49893931615884L85.22079038461538,118.07904340357356L87.20266923076923,118.7132232038953L89.18454807692308,118.79104245287813L91.16642692307693,118.13856168302866L93.14830576923077,118.38897897849895L95.13018461538462,120.30012012757847L97.11206346153845,121.02574941988271L99.09394230769232,121.97147289435458L101.07582115384615,121.91452116514606L103.05770000000001,123.3486676129272L105.03957884615384,125.34086740290277L107.02145769230769,123.78820100814103L109.00333653846154,121.06027132725399L110.98521538461539,123.48401796845509L112.96709423076923,126.35499459706533L114.94897307692308,127.45163142434284L116.93085192307693,128.4279355073166L118.91273076923078,77.3569262361064L120.89460961538461,110.12983574182279L122.87648846153847,129.7935814451509L124.8583673076923,141.59182886711113L126.84024615384617,148.6707773202741L128.822125,152.91814639216713L130.80400384615385,155.46656783530122L132.78588269230767,156.99562070118108L134.76776153846154,157.9130524207088L136.7496403846154,158.4635114524253L138.73151923076924,158.79378687145518L140.71339807692306,158.99195212287313L142.69527692307693,159.11085127372388L144.67715576923078,159.18219076423432L146.6590346153846,159.2249944585406L148.64091346153845,159.25067667512437L150.62279230769232,159.2660860050746L152.60467115384614,159.27533160304478L154.58655,159.28087896182686L156.56842884615384,159.28420737709612L158.5503076923077,159.28620442625765L160.53218653846153,159.2874026557546L162.51406538461538,159.28812159345276L164.49594423076923,159.28855295607164L166.47782307692307,159.288811773643L168.45970192307692,159.2889670641858L170.44158076923077,159.28906023851147L172.42345961538462,159.2891161431069L174.40533846153846,159.28914968586415L176.3872173076923,159.28916981151846L178.36909615384616,159.28918188691108L180.35097499999998,159.28918913214665L182.33285384615385,159.289193479288L184.3147326923077,159.2891960875728L186.29661153846155,159.2891976525437L188.27849038461537,159.2891985915262L190.26036923076924,159.2891991549157L192.2422480769231,159.28919949294945L194.2241269230769,159.28919969576967L196.20600576923076,159.2891998174618L198.18788461538463,159.28919989047708L200.16976346153845,159.28919993428624L202.1516423076923,159.28919996057175L204.13352115384615,159.28919997634304L206.11540000000002,159.28919998580582L208.09727884615384,159.28919999148349L210.0791576923077,159.2891999948901L212.06103653846154,159.28919999693406L214.04291538461538,159.28919999816043L216.02479423076923,159.28919999889627L218.00667307692308,159.28919999933774L219.98855192307693,159.28919999960266L221.97043076923077,159.2891999997616L223.95230961538462,159.28919999985695L225.93418846153847,159.28919999991416L227.9160673076923,159.2891999999485L229.89794615384616,159.2891999999691L231.879825,159.28919999998146L233.86170384615386,159.28919999998888L235.84358269230768,159.28919999999331L237.82546153846155,159.289199999996L239.8073403846154,159.28919999999758L241.78921923076922,159.28919999999854L243.77109807692307,159.28919999999914L245.75297692307694,159.28919999999948L247.73485576923076,159.28919999999968" style="fill: none;" fill="none"></path></g></g></g></g><g opacity="0.2"><g><g><g><path stroke="rgb(255, 112, 67)" stroke-width="2px" d="M25.764425000000003,-30.06156070076318L27.746303846153847,7.307478758972887L29.728182692307694,9.142687280197446L31.71006153846154,37.48888860625522L33.691940384615386,42.78722389566321L35.67381923076923,37.843382404477616L37.65569807692308,65.03231497999589L39.63757692307693,67.28307630642742L41.61945576923077,72.52658533363213L43.601334615384616,87.28603403747623L45.58321346153846,88.26002918527304L47.56509230769231,73.78830406954587L49.54697115384616,97.26854745904059L51.528850000000006,92.74010424219962L53.510728846153846,92.66917457638267L55.49260769230769,98.71818216235336L57.47448653846154,98.39451727116905L59.45636538461539,101.43556874399731L61.438244230769236,94.81271080070367L63.42012307692308,105.37481797664152L65.40200192307692,111.47347182153392L67.38388076923077,110.01748525590013L69.36575961538462,113.4110377227051L71.34763846153847,109.77744087760296L73.3295173076923,109.38830963046424L75.31139615384616,116.36105764003953L77.293275,110.43805709474039L79.27515384615386,115.51361039093247L81.25703269230769,118.7557483677818L83.23891153846154,123.18672768198378L85.22079038461538,117.44919958482281L87.20266923076923,119.6644928589529L89.18454807692308,118.90777132300794L91.16642692307693,117.15984054507938L93.14830576923077,118.76460491783003L95.13018461538462,123.1668318334567L97.11206346153845,122.11419335429748L99.09394230769232,123.39005810290185L101.07582115384615,121.82909357144747L103.05770000000001,125.49988728287356L105.03957884615384,128.32916708642807L107.02145769230769,121.45920141667087L109.00333653846154,116.96837680663232L110.98521538461539,127.11963792987883L112.96709423076923,130.6614595397121L114.94897307692308,129.09658666519755L116.93085192307693,129.89239163174426L118.91273076923078,0.7504123303231822L120.89460961538461,159.2892L122.87648846153847,159.2892L124.8583673076923,159.2892L126.84024615384617,159.2892L128.822125,159.2892L130.80400384615385,159.2892L132.78588269230767,159.2892L134.76776153846154,159.2892L136.7496403846154,159.2892L138.73151923076924,159.2892L140.71339807692306,159.2892L142.69527692307693,159.2892L144.67715576923078,159.2892L146.6590346153846,159.2892L148.64091346153845,159.2892L150.62279230769232,159.2892L152.60467115384614,159.2892L154.58655,159.2892L156.56842884615384,159.2892L158.5503076923077,159.2892L160.53218653846153,159.2892L162.51406538461538,159.2892L164.49594423076923,159.2892L166.47782307692307,159.2892L168.45970192307692,159.2892L170.44158076923077,159.2892L172.42345961538462,159.2892L174.40533846153846,159.2892L176.3872173076923,159.2892L178.36909615384616,159.2892L180.35097499999998,159.2892L182.33285384615385,159.2892L184.3147326923077,159.2892L186.29661153846155,159.2892L188.27849038461537,159.2892L190.26036923076924,159.2892L192.2422480769231,159.2892L194.2241269230769,159.2892L196.20600576923076,159.2892L198.18788461538463,159.2892L200.16976346153845,159.2892L202.1516423076923,159.2892L204.13352115384615,159.2892L206.11540000000002,159.2892L208.09727884615384,159.2892L210.0791576923077,159.2892L212.06103653846154,159.2892L214.04291538461538,159.2892L216.02479423076923,159.2892L218.00667307692308,159.2892L219.98855192307693,159.2892L221.97043076923077,159.2892L223.95230961538462,159.2892L225.93418846153847,159.2892L227.9160673076923,159.2892L229.89794615384616,159.2892L231.879825,159.2892L233.86170384615386,159.2892L235.84358269230768,159.2892L237.82546153846155,159.2892L239.8073403846154,159.2892L241.78921923076922,159.2892L243.77109807692307,159.2892L245.75297692307694,159.2892L247.73485576923076,159.2892" style="fill: none;" fill="none"></path></g></g></g></g></g></g><g transform="translate(72, 176)" clip-path="url(#clip_1)"><clipPath id="clip_1"><rect width="257" height="22"></rect></clipPath><g><g><line x1="0" y1="0" x2="0" y2="5" style="visibility: inherit;" fill="rgb(0, 0, 0)" stroke="rgb(204, 204, 204)" stroke-width="1px"></line><line x1="19.818788461538464" y1="0" x2="19.818788461538464" y2="5" style="visibility: inherit;" fill="rgb(0, 0, 0)" stroke="rgb(204, 204, 204)" stroke-width="1px"></line><line x1="39.63757692307693" y1="0" x2="39.63757692307693" y2="5" style="visibility: inherit;" fill="rgb(0, 0, 0)" stroke="rgb(204, 204, 204)" stroke-width="1px"></line><line x1="59.45636538461539" y1="0" x2="59.45636538461539" y2="5" style="visibility: inherit;" fill="rgb(0, 0, 0)" stroke="rgb(204, 204, 204)" stroke-width="1px"></line><line x1="79.27515384615386" y1="0" x2="79.27515384615386" y2="5" style="visibility: inherit;" fill="rgb(0, 0, 0)" stroke="rgb(204, 204, 204)" stroke-width="1px"></line><line x1="99.09394230769232" y1="0" x2="99.09394230769232" y2="5" style="visibility: inherit;" fill="rgb(0, 0, 0)" stroke="rgb(204, 204, 204)" stroke-width="1px"></line><line x1="118.91273076923078" y1="0" x2="118.91273076923078" y2="5" style="visibility: inherit;" fill="rgb(0, 0, 0)" stroke="rgb(204, 204, 204)" stroke-width="1px"></line><line x1="138.73151923076924" y1="0" x2="138.73151923076924" y2="5" style="visibility: inherit;" fill="rgb(0, 0, 0)" stroke="rgb(204, 204, 204)" stroke-width="1px"></line><line x1="158.5503076923077" y1="0" x2="158.5503076923077" y2="5" style="visibility: inherit;" fill="rgb(0, 0, 0)" stroke="rgb(204, 204, 204)" stroke-width="1px"></line><line x1="178.36909615384616" y1="0" x2="178.36909615384616" y2="5" style="visibility: inherit;" fill="rgb(0, 0, 0)" stroke="rgb(204, 204, 204)" stroke-width="1px"></line><line x1="198.18788461538463" y1="0" x2="198.18788461538463" y2="5" style="visibility: inherit;" fill="rgb(0, 0, 0)" stroke="rgb(204, 204, 204)" stroke-width="1px"></line><line x1="218.00667307692308" y1="0" x2="218.00667307692308" y2="5" style="visibility: inherit;" fill="rgb(0, 0, 0)" stroke="rgb(204, 204, 204)" stroke-width="1px"></line><line x1="237.82546153846155" y1="0" x2="237.82546153846155" y2="5" style="visibility: inherit;" fill="rgb(0, 0, 0)" stroke="rgb(204, 204, 204)" stroke-width="1px"></line><line x1="257.64425" y1="0" x2="257.64425" y2="5" style="visibility: inherit;" fill="rgb(0, 0, 0)" stroke="rgb(204, 204, 204)" stroke-width="1px"></line></g><g transform="translate(0, 8)"><text x="0" y="0" dx="0em" dy="0.95em" style="text-anchor: middle; visibility: hidden; font-family: Roboto, sans-serif; font-size: 12px; font-weight: 200;" fill="rgb(33, 33, 33)" stroke="none" stroke-width="1px">-10</text><text x="19.818788461538464" y="0" dx="0em" dy="0.95em" style="text-anchor: middle; visibility: inherit; font-family: Roboto, sans-serif; font-size: 12px; font-weight: 200;" fill="rgb(33, 33, 33)" stroke="none" stroke-width="1px">0</text><text x="39.63757692307693" y="0" dx="0em" dy="0.95em" style="text-anchor: middle; visibility: hidden; font-family: Roboto, sans-serif; font-size: 12px; font-weight: 200;" fill="rgb(33, 33, 33)" stroke="none" stroke-width="1px">10</text><text x="59.45636538461539" y="0" dx="0em" dy="0.95em" style="text-anchor: middle; visibility: inherit; font-family: Roboto, sans-serif; font-size: 12px; font-weight: 200;" fill="rgb(33, 33, 33)" stroke="none" stroke-width="1px">20</text><text x="79.27515384615386" y="0" dx="0em" dy="0.95em" style="text-anchor: middle; visibility: hidden; font-family: Roboto, sans-serif; font-size: 12px; font-weight: 200;" fill="rgb(33, 33, 33)" stroke="none" stroke-width="1px">30</text><text x="99.09394230769232" y="0" dx="0em" dy="0.95em" style="text-anchor: middle; visibility: inherit; font-family: Roboto, sans-serif; font-size: 12px; font-weight: 200;" fill="rgb(33, 33, 33)" stroke="none" stroke-width="1px">40</text><text x="118.91273076923078" y="0" dx="0em" dy="0.95em" style="text-anchor: middle; visibility: hidden; font-family: Roboto, sans-serif; font-size: 12px; font-weight: 200;" fill="rgb(33, 33, 33)" stroke="none" stroke-width="1px">50</text><text x="138.73151923076924" y="0" dx="0em" dy="0.95em" style="text-anchor: middle; visibility: inherit; font-family: Roboto, sans-serif; font-size: 12px; font-weight: 200;" fill="rgb(33, 33, 33)" stroke="none" stroke-width="1px">60</text><text x="158.5503076923077" y="0" dx="0em" dy="0.95em" style="text-anchor: middle; visibility: hidden; font-family: Roboto, sans-serif; font-size: 12px; font-weight: 200;" fill="rgb(33, 33, 33)" stroke="none" stroke-width="1px">70</text><text x="178.36909615384616" y="0" dx="0em" dy="0.95em" style="text-anchor: middle; visibility: inherit; font-family: Roboto, sans-serif; font-size: 12px; font-weight: 200;" fill="rgb(33, 33, 33)" stroke="none" stroke-width="1px">80</text><text x="198.18788461538463" y="0" dx="0em" dy="0.95em" style="text-anchor: middle; visibility: hidden; font-family: Roboto, sans-serif; font-size: 12px; font-weight: 200;" fill="rgb(33, 33, 33)" stroke="none" stroke-width="1px">90</text><text x="218.00667307692308" y="0" dx="0em" dy="0.95em" style="text-anchor: middle; visibility: inherit; font-family: Roboto, sans-serif; font-size: 12px; font-weight: 200;" fill="rgb(33, 33, 33)" stroke="none" stroke-width="1px">100</text><text x="237.82546153846155" y="0" dx="0em" dy="0.95em" style="text-anchor: middle; visibility: hidden; font-family: Roboto, sans-serif; font-size: 12px; font-weight: 200;" fill="rgb(33, 33, 33)" stroke="none" stroke-width="1px">110</text><text x="257.64425" y="0" dx="0em" dy="0.95em" style="text-anchor: middle; visibility: hidden; font-family: Roboto, sans-serif; font-size: 12px; font-weight: 200;" fill="rgb(33, 33, 33)" stroke="none" stroke-width="1px">120</text></g><line x1="0" y1="0" x2="257.64425" y2="0" fill="rgb(0, 0, 0)" stroke="rgb(204, 204, 204)" stroke-width="1px"></line></g></g></g></g></svg>