<svg viewBox="0 0 330.0000305175781 200.00001525878906" xmlns="http://www.w3.org/2000/svg"><g><g><g><g><g><line x1="72.34375" y1="177" x2="67.34375" y2="177" style="visibility: inherit;" fill="rgb(0, 0, 0)" stroke="rgb(204, 204, 204)" stroke-width="1px"></line><line x1="72.34375" y1="159.29999999999998" x2="67.34375" y2="159.29999999999998" style="visibility: inherit;" fill="rgb(0, 0, 0)" stroke="rgb(204, 204, 204)" stroke-width="1px"></line><line x1="72.34375" y1="141.6" x2="67.34375" y2="141.6" style="visibility: inherit;" fill="rgb(0, 0, 0)" stroke="rgb(204, 204, 204)" stroke-width="1px"></line><line x1="72.34375" y1="123.9" x2="67.34375" y2="123.9" style="visibility: inherit;" fill="rgb(0, 0, 0)" stroke="rgb(204, 204, 204)" stroke-width="1px"></line><line x1="72.34375" y1="106.20000000000002" x2="67.34375" y2="106.20000000000002" style="visibility: inherit;" fill="rgb(0, 0, 0)" stroke="rgb(204, 204, 204)" stroke-width="1px"></line><line x1="72.34375" y1="88.5" x2="67.34375" y2="88.5" style="visibility: inherit;" fill="rgb(0, 0, 0)" stroke="rgb(204, 204, 204)" stroke-width="1px"></line><line x1="72.34375" y1="70.79999999999998" x2="67.34375" y2="70.79999999999998" style="visibility: inherit;" fill="rgb(0, 0, 0)" stroke="rgb(204, 204, 204)" stroke-width="1px"></line><line x1="72.34375" y1="53.09999999999999" x2="67.34375" y2="53.09999999999999" style="visibility: inherit;" fill="rgb(0, 0, 0)" stroke="rgb(204, 204, 204)" stroke-width="1px"></line><line x1="72.34375" y1="35.40000000000001" x2="67.34375" y2="35.40000000000001" style="visibility: inherit;" fill="rgb(0, 0, 0)" stroke="rgb(204, 204, 204)" stroke-width="1px"></line><line x1="72.34375" y1="17.700000000000017" x2="67.34375" y2="17.700000000000017" style="visibility: inherit;" fill="rgb(0, 0, 0)" stroke="rgb(204, 204, 204)" stroke-width="1px"></line><line x1="72.34375" y1="0" x2="67.34375" y2="0" style="visibility: inherit;" fill="rgb(0, 0, 0)" stroke="rgb(204, 204, 204)" stroke-width="1px"></line></g><g transform="translate(62.34375, 0)"><text x="0" y="177" dx="0em" dy="0.3em" style="text-anchor: end; visibility: hidden; font-family: Roboto, sans-serif; font-size: 12px; font-weight: 200;" fill="rgb(33, 33, 33)" stroke="none" stroke-width="1px">9e-4</text><text x="0" y="159.29999999999998" dx="0em" dy="0.3em" style="text-anchor: end; visibility: inherit; font-family: Roboto, sans-serif; font-size: 12px; font-weight: 200;" fill="rgb(33, 33, 33)" stroke="none" stroke-width="1px">1e-3</text><text x="0" y="141.6" dx="0em" dy="0.3em" style="text-anchor: end; visibility: hidden; font-family: Roboto, sans-serif; font-size: 12px; font-weight: 200;" fill="rgb(33, 33, 33)" stroke="none" stroke-width="1px">1.1e-3</text><text x="0" y="123.9" dx="0em" dy="0.3em" style="text-anchor: end; visibility: inherit; font-family: Roboto, sans-serif; font-size: 12px; font-weight: 200;" fill="rgb(33, 33, 33)" stroke="none" stroke-width="1px">1.2e-3</text><text x="0" y="106.20000000000002" dx="0em" dy="0.3em" style="text-anchor: end; visibility: hidden; font-family: Roboto, sans-serif; font-size: 12px; font-weight: 200;" fill="rgb(33, 33, 33)" stroke="none" stroke-width="1px">1.3e-3</text><text x="0" y="88.5" dx="0em" dy="0.3em" style="text-anchor: end; visibility: inherit; font-family: Roboto, sans-serif; font-size: 12px; font-weight: 200;" fill="rgb(33, 33, 33)" stroke="none" stroke-width="1px">1.4e-3</text><text x="0" y="70.79999999999998" dx="0em" dy="0.3em" style="text-anchor: end; visibility: hidden; font-family: Roboto, sans-serif; font-size: 12px; font-weight: 200;" fill="rgb(33, 33, 33)" stroke="none" stroke-width="1px">1.5e-3</text><text x="0" y="53.09999999999999" dx="0em" dy="0.3em" style="text-anchor: end; visibility: inherit; font-family: Roboto, sans-serif; font-size: 12px; font-weight: 200;" fill="rgb(33, 33, 33)" stroke="none" stroke-width="1px">1.6e-3</text><text x="0" y="35.40000000000001" dx="0em" dy="0.3em" style="text-anchor: end; visibility: hidden; font-family: Roboto, sans-serif; font-size: 12px; font-weight: 200;" fill="rgb(33, 33, 33)" stroke="none" stroke-width="1px">1.7e-3</text><text x="0" y="17.700000000000017" dx="0em" dy="0.3em" style="text-anchor: end; visibility: inherit; font-family: Roboto, sans-serif; font-size: 12px; font-weight: 200;" fill="rgb(33, 33, 33)" stroke="none" stroke-width="1px">1.8e-3</text><text x="0" y="0" dx="0em" dy="0.3em" style="text-anchor: end; visibility: hidden; font-family: Roboto, sans-serif; font-size: 12px; font-weight: 200;" fill="rgb(33, 33, 33)" stroke="none" stroke-width="1px">1.9e-3</text></g><line x1="72.34375" y1="0" x2="72.34375" y2="177" fill="rgb(0, 0, 0)" stroke="rgb(204, 204, 204)" stroke-width="1px"></line></g></g><g transform="translate(72, 0)" clip-path="url(#clip_0)"><clipPath id="clip_0"><rect width="257" height="177"></rect></clipPath><g><g><g><line x1="0" y1="0" x2="0" y2="177" fill="rgb(0, 0, 0)" stroke="rgb(66, 66, 66)" stroke-width="1px" opacity="0.25"></line><line x1="21.471354166666664" y1="0" x2="21.471354166666664" y2="177" fill="rgb(0, 0, 0)" stroke="rgb(66, 66, 66)" stroke-width="1px" opacity="0.25"></line><line x1="42.94270833333333" y1="0" x2="42.94270833333333" y2="177" fill="rgb(0, 0, 0)" stroke="rgb(66, 66, 66)" stroke-width="1px" opacity="0.25"></line><line x1="64.4140625" y1="0" x2="64.4140625" y2="177" fill="rgb(0, 0, 0)" stroke="rgb(66, 66, 66)" stroke-width="1px" opacity="0.25"></line><line x1="85.88541666666666" y1="0" x2="85.88541666666666" y2="177" fill="rgb(0, 0, 0)" stroke="rgb(66, 66, 66)" stroke-width="1px" opacity="0.25"></line><line x1="107.35677083333334" y1="0" x2="107.35677083333334" y2="177" fill="rgb(0, 0, 0)" stroke="rgb(66, 66, 66)" stroke-width="1px" opacity="0.25"></line><line x1="128.828125" y1="0" x2="128.828125" y2="177" fill="rgb(0, 0, 0)" stroke="rgb(66, 66, 66)" stroke-width="1px" opacity="0.25"></line><line x1="150.29947916666669" y1="0" x2="150.29947916666669" y2="177" fill="rgb(0, 0, 0)" stroke="rgb(66, 66, 66)" stroke-width="1px" opacity="0.25"></line><line x1="171.77083333333331" y1="0" x2="171.77083333333331" y2="177" fill="rgb(0, 0, 0)" stroke="rgb(66, 66, 66)" stroke-width="1px" opacity="0.25"></line><line x1="193.2421875" y1="0" x2="193.2421875" y2="177" fill="rgb(0, 0, 0)" stroke="rgb(66, 66, 66)" stroke-width="1px" opacity="0.25"></line><line x1="214.71354166666669" y1="0" x2="214.71354166666669" y2="177" fill="rgb(0, 0, 0)" stroke="rgb(66, 66, 66)" stroke-width="1px" opacity="0.25"></line><line x1="236.18489583333331" y1="0" x2="236.18489583333331" y2="177" fill="rgb(0, 0, 0)" stroke="rgb(66, 66, 66)" stroke-width="1px" opacity="0.25"></line><line x1="257.65625" y1="0" x2="257.65625" y2="177" fill="rgb(0, 0, 0)" stroke="rgb(66, 66, 66)" stroke-width="1px" opacity="0.25"></line></g><g><line x1="0" y1="177" x2="257.65625" y2="177" fill="rgb(0, 0, 0)" stroke="rgb(66, 66, 66)" stroke-width="1px" opacity="0.25"></line><line x1="0" y1="159.29999999999998" x2="257.65625" y2="159.29999999999998" fill="rgb(0, 0, 0)" stroke="rgb(66, 66, 66)" stroke-width="1px" opacity="0.25"></line><line x1="0" y1="141.6" x2="257.65625" y2="141.6" fill="rgb(0, 0, 0)" stroke="rgb(66, 66, 66)" stroke-width="1px" opacity="0.25"></line><line x1="0" y1="123.9" x2="257.65625" y2="123.9" fill="rgb(0, 0, 0)" stroke="rgb(66, 66, 66)" stroke-width="1px" opacity="0.25"></line><line x1="0" y1="106.20000000000002" x2="257.65625" y2="106.20000000000002" fill="rgb(0, 0, 0)" stroke="rgb(66, 66, 66)" stroke-width="1px" opacity="0.25"></line><line x1="0" y1="88.5" x2="257.65625" y2="88.5" fill="rgb(0, 0, 0)" stroke="rgb(66, 66, 66)" stroke-width="1px" opacity="0.25"></line><line x1="0" y1="70.79999999999998" x2="257.65625" y2="70.79999999999998" fill="rgb(0, 0, 0)" stroke="rgb(66, 66, 66)" stroke-width="1px" opacity="0.25"></line><line x1="0" y1="53.09999999999999" x2="257.65625" y2="53.09999999999999" fill="rgb(0, 0, 0)" stroke="rgb(66, 66, 66)" stroke-width="1px" opacity="0.25"></line><line x1="0" y1="35.40000000000001" x2="257.65625" y2="35.40000000000001" fill="rgb(0, 0, 0)" stroke="rgb(66, 66, 66)" stroke-width="1px" opacity="0.25"></line><line x1="0" y1="17.700000000000017" x2="257.65625" y2="17.700000000000017" fill="rgb(0, 0, 0)" stroke="rgb(66, 66, 66)" stroke-width="1px" opacity="0.25"></line><line x1="0" y1="0" x2="257.65625" y2="0" fill="rgb(0, 0, 0)" stroke="rgb(66, 66, 66)" stroke-width="1px" opacity="0.25"></line></g></g></g><g><g><line x1="0" y1="336.3" x2="257.65625" y2="336.3" fill="rgb(0, 0, 0)" stroke="rgb(153, 153, 153)" stroke-width="1.5px"></line></g></g><g><g><line x1="21.471354166666664" y1="0" x2="21.471354166666664" y2="177" fill="rgb(0, 0, 0)" stroke="rgb(153, 153, 153)" stroke-width="1.5px"></line></g></g><g><g><g><g><g><path stroke="rgb(255, 112, 67)" stroke-width="2px" d="M27.912760416666668,-0.7453879028134287L28.986328125,7.579590497190992L30.059895833333332,13.56168645619303L31.133463541666668,18.22244903914179L32.20703125,19.700538432662103L33.280598958333336,24.344161252267256L34.354166666666664,24.213786146145967L35.427734375,24.41333205946798L36.501302083333336,27.409962362428374L37.57486979166667,32.32738930076951L38.6484375,35.00457610433282L39.722005208333336,36.05293951914996L40.795572916666664,37.50197720225288L41.869140625,37.15147564577786L42.94270833333333,38.3291192637533L44.016276041666664,42.853361311959226L45.08984375,44.55183779116968L46.163411458333336,44.90645878483766L47.236979166666664,45.601615151672426L48.310546875,44.09615767838743L49.384114583333336,46.770643563268706L50.457682291666664,46.502132617833865L51.53125,47.18335534617433L52.604817708333336,49.07158150395234L53.67838541666667,52.06924181843608L54.751953125,55.860489760624475L55.825520833333336,56.01894480836074L56.899088541666664,58.67637105936718L57.97265625,61.78219162134345L59.04622395833333,64.49116928299388L60.119791666666664,65.73977169673616L61.193359375,67.9042350980091L62.266927083333336,69.6921951346894L63.340494791666664,72.96508760731729L64.4140625,72.74192712981258L65.48763020833333,72.6732514100195L66.56119791666667,73.32342684252083L67.634765625,73.75271554338228L68.70833333333333,74.42924827533638L69.78190104166666,76.17277060257247L70.85546875,78.33726876619163L71.92903645833333,79.64364939913692L73.00260416666667,78.77468493763965L74.076171875,81.45344941737008L75.14973958333334,81.63808707481321L76.22330729166667,81.49907316884746L77.296875,83.47599348208202L78.37044270833333,86.42116404649168L79.44401041666667,85.94069132001081L80.517578125,87.02924326690133L81.59114583333333,88.24003376860719L82.66471354166667,89.50493009723334L83.73828125,91.76742737576164L84.81184895833333,91.33369683010751L85.88541666666666,93.46408527409072L86.958984375,95.32688023047173L88.03255208333333,95.9861505007537L89.10611979166667,95.77850690570723L90.1796875,96.36172832682583L91.25325520833334,97.75616282312488L92.32682291666667,97.69989602327895L93.400390625,98.47086360758873L94.47395833333333,97.77525778394237L95.54752604166667,100.15058405276415L96.62109375,99.84171883367766L97.69466145833333,100.25142919229431L98.76822916666667,102.03143467959441L99.841796875,103.26261714231477L100.91536458333333,105.44305308099992L101.98893229166666,106.9012485914612L103.0625,107.62996566925551L104.13606770833333,107.7093276263571L105.20963541666667,107.30120857142187L106.283203125,107.35910628904568L107.35677083333334,108.1560592915545L108.43033854166667,108.16647772928653L109.50390625,107.86461869263992L110.57747395833333,108.68455201065152L111.65104166666667,110.83957462981705L112.724609375,111.86221915774264L113.79817708333333,112.16136576193698L114.87174479166667,114.40483367798107L115.9453125,115.85567285042929L117.01888020833333,117.28775897694784L118.09244791666666,118.08639747886754L119.166015625,117.97495242730618L120.23958333333333,117.79041143864895L121.31315104166667,117.90490509121422L122.38671875,119.37693555391613L123.46028645833334,121.1605734933125L124.53385416666667,122.43189902253192L125.607421875,124.28784147633459L126.68098958333333,124.39856965017823L127.75455729166667,123.08220361544197L128.828125,124.5119190790415L129.90169270833334,124.37247454699339L130.97526041666666,124.59072803125656L132.048828125,124.68410391019806L133.12239583333334,125.20713276070074L134.19596354166669,126.36286656321117L135.26953125,128.04715173519273L136.34309895833334,129.78665518739294L137.41666666666666,129.80257904859465L138.490234375,130.11523220409205L139.56380208333331,132.0680323696539L140.63736979166666,133.57732141920357L141.7109375,132.78625347827932L142.78450520833334,132.7014442734573L143.85807291666666,134.09749428504134L144.931640625,135.15002329736012L146.00520833333334,135.67512559876775L147.07877604166666,135.50901530644853L148.15234375,134.36241603701748L149.22591145833334,134.05643321393094L150.29947916666669,135.89161498035884L151.373046875,135.24674483171637L152.44661458333334,137.1785280349495L153.52018229166666,137.9546568803574L154.59375,136.92434929244726L155.66731770833331,136.43169351858202L156.74088541666666,137.97482879321157L157.814453125,136.9082723419987L158.88802083333334,136.6008125279023L159.96158854166666,138.77913772746464L161.03515625,139.47869883893154L162.10872395833334,139.6897593650563L163.18229166666666,139.66520067614871L164.255859375,140.715053359494L165.32942708333334,142.27874907624744L166.40299479166669,142.55651863684963L167.4765625,140.66958559771308L168.55013020833334,141.73192104053453L169.62369791666666,141.70886619457278L170.697265625,142.85841225024268L171.77083333333331,142.11604031778094L172.84440104166666,143.18855928700697L173.91796875,144.58889463854752L174.99153645833334,144.37112644322465L176.06510416666666,144.2708215662554L177.138671875,144.9711056645939L178.21223958333334,145.24369120471056L179.28580729166666,146.7321604636155L180.359375,146.82484151225339L181.43294270833334,145.18078388162584L182.50651041666669,145.08648554921524L183.580078125,145.9428790894322L184.65364583333334,146.67258679909543L185.72721354166666,146.34908721107564L186.80078125,146.86671832588803L187.87434895833331,147.65361400932068L188.94791666666666,147.33696417921777L190.021484375,146.69537563876207L191.09505208333334,147.5783538454377L192.16861979166666,148.60953057094537L193.2421875,148.80017770072297L194.31575520833334,149.88126120904369L195.38932291666666,150.37783439354172L196.462890625,151.60197134037952L197.53645833333334,152.70300908190097L198.61002604166669,152.9674289427822L199.68359375,152.9183278454915L200.75716145833334,153.29201814978273L201.83072916666666,154.80537085621927L202.904296875,154.85664650366823L203.97786458333331,156.1711435296602L205.05143229166666,156.85824008686643L206.125,156.64262334505202L207.19856770833334,155.48479922905256L208.27213541666666,155.723435544936L209.345703125,154.9394846869815L210.41927083333334,156.30792533320536L211.49283854166666,155.90407445676536L212.56640625,156.46476897431853L213.63997395833334,154.007918967506L214.71354166666669,154.25886945617236L215.787109375,155.1235855829986L216.86067708333334,154.00175494334232L217.93424479166666,155.29854350324646L219.0078125,156.11728367759991L220.08138020833331,156.95474159422045L221.15494791666666,158.240522518173L222.228515625,158.54357833238848L223.30208333333334,157.66717042191272L224.37565104166666,157.1396112970319L225.44921875,157.4518983517919L226.52278645833334,157.43606726786993L227.59635416666666,158.34927520103162L228.669921875,158.71977001851442L229.74348958333334,160.27706506029156L230.81705729166669,159.36831200905377L231.890625,160.05939089611311L232.96419270833334,160.8570534847238L234.03776041666666,161.0980694849526L235.111328125,159.68969934384435L236.18489583333331,160.30364641264325" style="fill: none;" fill="none"></path></g></g></g></g><g opacity="0.2"><g><g><g><path stroke="rgb(255, 112, 67)" stroke-width="2px" d="M24.692057291666668,-8.268977016024307L25.765625,2.007795415073637L26.839192708333336,9.76958268899471L27.912760416666668,17.568398067913954L28.986328125,19.484442808851604L30.059895833333332,22.283639792539184L31.133463541666668,25.096168542467062L32.20703125,21.895328919589524L33.280598958333336,31.26747816447169L34.354166666666664,24.018932982534174L35.427734375,24.71199937742204L36.501302083333336,31.899037106148903L37.57486979166667,39.69774945750833L38.6484375,39.01846815012396L39.722005208333336,37.6250410091132L40.795572916666664,39.67516581639648L41.869140625,36.62577670644969L42.94270833333333,40.09547704942525L44.016276041666664,49.6394762640819L45.08984375,47.09949662089348L46.163411458333336,45.438383273966615L47.236979166666664,46.64434146713466L48.310546875,41.83798216860742L49.384114583333336,50.782360985130076L50.457682291666664,46.099366886727516L51.53125,48.20518839284778L52.604817708333336,51.90391900129617L53.67838541666667,56.565730633400385L54.751953125,61.54736041668803L55.825520833333336,56.25662734843791L56.899088541666664,62.66251011863351L57.97265625,66.44092224184423L59.04622395833333,68.55463565904647L60.119791666666664,67.61267528515309L61.193359375,71.15093016643077L62.266927083333336,72.37413517311215L63.340494791666664,77.87442629802972L64.4140625,72.40718641430139L65.48763020833333,72.57023783046752L66.56119791666667,74.29868999049067L67.634765625,74.39664859436452L68.70833333333333,75.44404737297445L69.78190104166666,78.78805409297347L70.85546875,81.5840160112828L71.92903645833333,81.60322034843266L73.00260416666667,77.4712382454425L74.076171875,85.47159613687545L75.14973958333334,81.9150435609743L76.22330729166667,81.29055230990052L77.296875,86.44137395191937L78.37044270833333,90.83891989309339L79.44401041666667,85.21998223029077L80.517578125,88.6620711872354L81.59114583333333,90.05621952116488L82.66471354166667,91.40227459017186L83.73828125,95.16117329355328L84.81184895833333,90.6831010116264L85.88541666666666,96.65966794006525L86.958984375,98.12107266504316L88.03255208333333,96.97505590617655L89.10611979166667,95.4670415131375L90.1796875,97.23656045850365L91.25325520833334,99.84781456757335L92.32682291666667,97.61549582350997L93.400390625,99.62731498405336L94.47395833333333,96.73184904847292L95.54752604166667,103.7135734559968L96.62109375,99.37842100504784L97.69466145833333,100.86599473021923L98.76822916666667,104.70144291054456L99.841796875,105.1093908363953L100.91536458333333,108.71370698902754L101.98893229166666,109.08854185715316L103.0625,108.72304128594695L104.13606770833333,107.8283705620095L105.20963541666667,106.68902998901902L106.283203125,107.44595286548136L107.35677083333334,109.35148879531769L108.43033854166667,108.18210538588463L109.50390625,107.41183013767002L110.57747395833333,109.91445198766885L111.65104166666667,114.07210855856536L112.724609375,113.39618594963102L113.79817708333333,112.61008566822855L114.87174479166667,117.77003555204718L115.9453125,118.03193160910158L117.01888020833333,119.43588816672562L118.09244791666666,119.28435523174701L119.166015625,117.80778484996407L120.23958333333333,117.51359995566307L121.31315104166667,118.07664557006208L122.38671875,121.58498124796895L123.46028645833334,123.83603040240703L124.53385416666667,124.33888731636105L125.607421875,127.07175515703855L126.68098958333333,124.56466191094367L127.75455729166667,121.10765456333755L128.828125,126.65649227444081L129.90169270833334,124.1633077489212L130.97526041666666,124.91810825765131L132.048828125,124.82416772861032L133.12239583333334,125.99167603645472L134.19596354166669,128.09646726697682L135.26953125,130.573579493165L136.34309895833334,132.39591036569325L137.41666666666666,129.82646484039722L138.490234375,130.5842119373381L139.56380208333331,134.99723261799662L140.63736979166666,135.8412549935281L141.7109375,131.59965156689285L142.78450520833334,132.57423046622424L143.85807291666666,136.19156930241732L144.931640625,136.7288168158382L146.00520833333334,136.46277905087916L147.07877604166666,135.25984986796973L148.15234375,132.64251713287084L149.22591145833334,133.59745897930114L150.29947916666669,138.6443876300007L151.373046875,134.2794396087527L152.44661458333334,140.0762028397992L153.52018229166666,139.1188501484692L154.59375,135.3788879105821L155.66731770833331,135.6927098577842L156.74088541666666,140.28953170515595L157.814453125,135.30843766517935L158.88802083333334,136.13962280675767L159.96158854166666,142.04662552680819L161.03515625,140.52804050613193L162.10872395833334,140.0063501542434L163.18229166666666,139.62836264278738L164.255859375,142.2898323845118L165.32942708333334,144.6242926513776L166.40299479166669,142.97317297775297L167.4765625,137.83918603900818L168.55013020833334,143.32542420476673L169.62369791666666,141.67428392563014L170.697265625,144.5827313337475L171.77083333333331,141.00248241908847L172.84440104166666,144.79733774084596L173.91796875,146.68939766585825L174.99153645833334,144.0444741502404L176.06510416666666,144.1203642508015L177.138671875,146.02153181210159L178.21223958333334,145.65256951488553L179.28580729166666,148.96486435197292L180.359375,146.9638630852103L181.43294270833334,142.71469743568449L182.50651041666669,144.94503805059938L183.580078125,147.22746939975767L184.65364583333334,147.76714836359022L185.72721354166666,145.86383782904593L186.80078125,147.64316499810664L187.87434895833331,148.83395753446965L188.94791666666666,146.86198943406342L190.021484375,145.73299282807855L191.09505208333334,148.90282115545122L192.16861979166666,150.1562956592068L193.2421875,149.0861483953893L194.31575520833334,151.50288647152482L195.38932291666666,151.12269417028872L196.462890625,153.43817676063625L197.53645833333334,154.3545656941831L198.61002604166669,153.36405873410402L199.68359375,152.84467619955538L200.75716145833334,153.85255360621957L201.83072916666666,157.07539991587402L202.904296875,154.93355997484178L203.97786458333331,158.14288906864823L205.05143229166666,157.8888849226758L206.125,156.3191982323304L207.19856770833334,153.74806305505334L208.27213541666666,156.08139001876117L209.345703125,153.7635584000498L210.41927083333334,158.3605863025412L211.49283854166666,155.29829814210535L212.56640625,157.3058107506484L213.63997395833334,150.32264395728706L214.71354166666669,154.635295189172L215.787109375,156.42065977323801L216.86067708333334,152.3190089838579L217.93424479166666,157.24372634310276L219.0078125,157.34539393913002L220.08138020833331,158.21092846915127L221.15494791666666,160.16919390410186L222.228515625,158.99816205371172L223.30208333333334,156.35255855619909L224.37565104166666,156.3482726097107L225.44921875,157.9203289339319L226.52278645833334,157.41232064198704L227.59635416666666,159.71908710077406L228.669921875,159.27551224473865L229.74348958333334,162.61300762295724L230.81705729166669,158.00518243219705L231.890625,161.09600922670217L232.96419270833334,162.05354736763985L234.03776041666666,161.45959348529578L235.111328125,157.577144132182L236.18489583333331,161.22456701584161" style="fill: none;" fill="none"></path></g></g></g></g></g><g><g><span fill="rgb(0, 0, 0)" stroke="none" stroke-width="1px">Alt + Scroll to Zoom</span></g></g></g><g transform="translate(72, 177)" clip-path="url(#clip_1)"><clipPath id="clip_1"><rect width="257" height="23"></rect></clipPath><g><g><line x1="0" y1="0" x2="0" y2="5" style="visibility: inherit;" fill="rgb(0, 0, 0)" stroke="rgb(204, 204, 204)" stroke-width="1px"></line><line x1="21.471354166666664" y1="0" x2="21.471354166666664" y2="5" style="visibility: inherit;" fill="rgb(0, 0, 0)" stroke="rgb(204, 204, 204)" stroke-width="1px"></line><line x1="42.94270833333333" y1="0" x2="42.94270833333333" y2="5" style="visibility: inherit;" fill="rgb(0, 0, 0)" stroke="rgb(204, 204, 204)" stroke-width="1px"></line><line x1="64.4140625" y1="0" x2="64.4140625" y2="5" style="visibility: inherit;" fill="rgb(0, 0, 0)" stroke="rgb(204, 204, 204)" stroke-width="1px"></line><line x1="85.88541666666666" y1="0" x2="85.88541666666666" y2="5" style="visibility: inherit;" fill="rgb(0, 0, 0)" stroke="rgb(204, 204, 204)" stroke-width="1px"></line><line x1="107.35677083333334" y1="0" x2="107.35677083333334" y2="5" style="visibility: inherit;" fill="rgb(0, 0, 0)" stroke="rgb(204, 204, 204)" stroke-width="1px"></line><line x1="128.828125" y1="0" x2="128.828125" y2="5" style="visibility: inherit;" fill="rgb(0, 0, 0)" stroke="rgb(204, 204, 204)" stroke-width="1px"></line><line x1="150.29947916666669" y1="0" x2="150.29947916666669" y2="5" style="visibility: inherit;" fill="rgb(0, 0, 0)" stroke="rgb(204, 204, 204)" stroke-width="1px"></line><line x1="171.77083333333331" y1="0" x2="171.77083333333331" y2="5" style="visibility: inherit;" fill="rgb(0, 0, 0)" stroke="rgb(204, 204, 204)" stroke-width="1px"></line><line x1="193.2421875" y1="0" x2="193.2421875" y2="5" style="visibility: inherit;" fill="rgb(0, 0, 0)" stroke="rgb(204, 204, 204)" stroke-width="1px"></line><line x1="214.71354166666669" y1="0" x2="214.71354166666669" y2="5" style="visibility: inherit;" fill="rgb(0, 0, 0)" stroke="rgb(204, 204, 204)" stroke-width="1px"></line><line x1="236.18489583333331" y1="0" x2="236.18489583333331" y2="5" style="visibility: inherit;" fill="rgb(0, 0, 0)" stroke="rgb(204, 204, 204)" stroke-width="1px"></line><line x1="257.65625" y1="0" x2="257.65625" y2="5" style="visibility: inherit;" fill="rgb(0, 0, 0)" stroke="rgb(204, 204, 204)" stroke-width="1px"></line></g><g transform="translate(0, 8)"><text x="0" y="0" dx="0em" dy="0.95em" style="text-anchor: middle; visibility: hidden; font-family: Roboto, sans-serif; font-size: 12px; font-weight: 200;" fill="rgb(33, 33, 33)" stroke="none" stroke-width="1px">-20</text><text x="21.471354166666664" y="0" dx="0em" dy="0.95em" style="text-anchor: middle; visibility: inherit; font-family: Roboto, sans-serif; font-size: 12px; font-weight: 200;" fill="rgb(33, 33, 33)" stroke="none" stroke-width="1px">0</text><text x="42.94270833333333" y="0" dx="0em" dy="0.95em" style="text-anchor: middle; visibility: hidden; font-family: Roboto, sans-serif; font-size: 12px; font-weight: 200;" fill="rgb(33, 33, 33)" stroke="none" stroke-width="1px">20</text><text x="64.4140625" y="0" dx="0em" dy="0.95em" style="text-anchor: middle; visibility: inherit; font-family: Roboto, sans-serif; font-size: 12px; font-weight: 200;" fill="rgb(33, 33, 33)" stroke="none" stroke-width="1px">40</text><text x="85.88541666666666" y="0" dx="0em" dy="0.95em" style="text-anchor: middle; visibility: hidden; font-family: Roboto, sans-serif; font-size: 12px; font-weight: 200;" fill="rgb(33, 33, 33)" stroke="none" stroke-width="1px">60</text><text x="107.35677083333334" y="0" dx="0em" dy="0.95em" style="text-anchor: middle; visibility: inherit; font-family: Roboto, sans-serif; font-size: 12px; font-weight: 200;" fill="rgb(33, 33, 33)" stroke="none" stroke-width="1px">80</text><text x="128.828125" y="0" dx="0em" dy="0.95em" style="text-anchor: middle; visibility: hidden; font-family: Roboto, sans-serif; font-size: 12px; font-weight: 200;" fill="rgb(33, 33, 33)" stroke="none" stroke-width="1px">100</text><text x="150.29947916666669" y="0" dx="0em" dy="0.95em" style="text-anchor: middle; visibility: inherit; font-family: Roboto, sans-serif; font-size: 12px; font-weight: 200;" fill="rgb(33, 33, 33)" stroke="none" stroke-width="1px">120</text><text x="171.77083333333331" y="0" dx="0em" dy="0.95em" style="text-anchor: middle; visibility: hidden; font-family: Roboto, sans-serif; font-size: 12px; font-weight: 200;" fill="rgb(33, 33, 33)" stroke="none" stroke-width="1px">140</text><text x="193.2421875" y="0" dx="0em" dy="0.95em" style="text-anchor: middle; visibility: inherit; font-family: Roboto, sans-serif; font-size: 12px; font-weight: 200;" fill="rgb(33, 33, 33)" stroke="none" stroke-width="1px">160</text><text x="214.71354166666669" y="0" dx="0em" dy="0.95em" style="text-anchor: middle; visibility: hidden; font-family: Roboto, sans-serif; font-size: 12px; font-weight: 200;" fill="rgb(33, 33, 33)" stroke="none" stroke-width="1px">180</text><text x="236.18489583333331" y="0" dx="0em" dy="0.95em" style="text-anchor: middle; visibility: inherit; font-family: Roboto, sans-serif; font-size: 12px; font-weight: 200;" fill="rgb(33, 33, 33)" stroke="none" stroke-width="1px">200</text><text x="257.65625" y="0" dx="0em" dy="0.95em" style="text-anchor: middle; visibility: hidden; font-family: Roboto, sans-serif; font-size: 12px; font-weight: 200;" fill="rgb(33, 33, 33)" stroke="none" stroke-width="1px">220</text></g><line x1="0" y1="0" x2="257.65625" y2="0" fill="rgb(0, 0, 0)" stroke="rgb(204, 204, 204)" stroke-width="1px"></line></g></g></g></g></svg>