<svg viewBox="0 0 329.9884338378906 199.98843383789062" xmlns="http://www.w3.org/2000/svg"><g><g><g><g><g><line x1="61.953125" y1="176.988" x2="56.953125" y2="176.988" style="visibility: inherit;" fill="rgb(0, 0, 0)" stroke="rgb(204, 204, 204)" stroke-width="1px"></line><line x1="61.953125" y1="164.346" x2="56.953125" y2="164.346" style="visibility: inherit;" fill="rgb(0, 0, 0)" stroke="rgb(204, 204, 204)" stroke-width="1px"></line><line x1="61.953125" y1="151.704" x2="56.953125" y2="151.704" style="visibility: inherit;" fill="rgb(0, 0, 0)" stroke="rgb(204, 204, 204)" stroke-width="1px"></line><line x1="61.953125" y1="139.062" x2="56.953125" y2="139.062" style="visibility: inherit;" fill="rgb(0, 0, 0)" stroke="rgb(204, 204, 204)" stroke-width="1px"></line><line x1="61.953125" y1="126.42" x2="56.953125" y2="126.42" style="visibility: inherit;" fill="rgb(0, 0, 0)" stroke="rgb(204, 204, 204)" stroke-width="1px"></line><line x1="61.953125" y1="113.77799999999999" x2="56.953125" y2="113.77799999999999" style="visibility: inherit;" fill="rgb(0, 0, 0)" stroke="rgb(204, 204, 204)" stroke-width="1px"></line><line x1="61.953125" y1="101.136" x2="56.953125" y2="101.136" style="visibility: inherit;" fill="rgb(0, 0, 0)" stroke="rgb(204, 204, 204)" stroke-width="1px"></line><line x1="61.953125" y1="88.49400000000001" x2="56.953125" y2="88.49400000000001" style="visibility: inherit;" fill="rgb(0, 0, 0)" stroke="rgb(204, 204, 204)" stroke-width="1px"></line><line x1="61.953125" y1="75.852" x2="56.953125" y2="75.852" style="visibility: inherit;" fill="rgb(0, 0, 0)" stroke="rgb(204, 204, 204)" stroke-width="1px"></line><line x1="61.953125" y1="63.21000000000001" x2="56.953125" y2="63.21000000000001" style="visibility: inherit;" fill="rgb(0, 0, 0)" stroke="rgb(204, 204, 204)" stroke-width="1px"></line><line x1="61.953125" y1="50.56800000000002" x2="56.953125" y2="50.56800000000002" style="visibility: inherit;" fill="rgb(0, 0, 0)" stroke="rgb(204, 204, 204)" stroke-width="1px"></line><line x1="61.953125" y1="37.926" x2="56.953125" y2="37.926" style="visibility: inherit;" fill="rgb(0, 0, 0)" stroke="rgb(204, 204, 204)" stroke-width="1px"></line><line x1="61.953125" y1="25.284000000000027" x2="56.953125" y2="25.284000000000027" style="visibility: inherit;" fill="rgb(0, 0, 0)" stroke="rgb(204, 204, 204)" stroke-width="1px"></line><line x1="61.953125" y1="12.642000000000014" x2="56.953125" y2="12.642000000000014" style="visibility: inherit;" fill="rgb(0, 0, 0)" stroke="rgb(204, 204, 204)" stroke-width="1px"></line><line x1="61.953125" y1="0" x2="56.953125" y2="0" style="visibility: inherit;" fill="rgb(0, 0, 0)" stroke="rgb(204, 204, 204)" stroke-width="1px"></line></g><g transform="translate(51.953125, 0)"><text x="0" y="176.988" dx="0em" dy="0.3em" style="text-anchor: end; visibility: hidden; font-family: Roboto, sans-serif; font-size: 12px; font-weight: 200;" fill="rgb(33, 33, 33)" stroke="none" stroke-width="1px">-0.02</text><text x="0" y="164.346" dx="0em" dy="0.3em" style="text-anchor: end; visibility: inherit; font-family: Roboto, sans-serif; font-size: 12px; font-weight: 200;" fill="rgb(33, 33, 33)" stroke="none" stroke-width="1px">0</text><text x="0" y="151.704" dx="0em" dy="0.3em" style="text-anchor: end; visibility: hidden; font-family: Roboto, sans-serif; font-size: 12px; font-weight: 200;" fill="rgb(33, 33, 33)" stroke="none" stroke-width="1px">0.02</text><text x="0" y="139.062" dx="0em" dy="0.3em" style="text-anchor: end; visibility: inherit; font-family: Roboto, sans-serif; font-size: 12px; font-weight: 200;" fill="rgb(33, 33, 33)" stroke="none" stroke-width="1px">0.04</text><text x="0" y="126.42" dx="0em" dy="0.3em" style="text-anchor: end; visibility: hidden; font-family: Roboto, sans-serif; font-size: 12px; font-weight: 200;" fill="rgb(33, 33, 33)" stroke="none" stroke-width="1px">0.06</text><text x="0" y="113.77799999999999" dx="0em" dy="0.3em" style="text-anchor: end; visibility: inherit; font-family: Roboto, sans-serif; font-size: 12px; font-weight: 200;" fill="rgb(33, 33, 33)" stroke="none" stroke-width="1px">0.08</text><text x="0" y="101.136" dx="0em" dy="0.3em" style="text-anchor: end; visibility: hidden; font-family: Roboto, sans-serif; font-size: 12px; font-weight: 200;" fill="rgb(33, 33, 33)" stroke="none" stroke-width="1px">0.1</text><text x="0" y="88.49400000000001" dx="0em" dy="0.3em" style="text-anchor: end; visibility: inherit; font-family: Roboto, sans-serif; font-size: 12px; font-weight: 200;" fill="rgb(33, 33, 33)" stroke="none" stroke-width="1px">0.12</text><text x="0" y="75.852" dx="0em" dy="0.3em" style="text-anchor: end; visibility: hidden; font-family: Roboto, sans-serif; font-size: 12px; font-weight: 200;" fill="rgb(33, 33, 33)" stroke="none" stroke-width="1px">0.14</text><text x="0" y="63.21000000000001" dx="0em" dy="0.3em" style="text-anchor: end; visibility: inherit; font-family: Roboto, sans-serif; font-size: 12px; font-weight: 200;" fill="rgb(33, 33, 33)" stroke="none" stroke-width="1px">0.16</text><text x="0" y="50.56800000000002" dx="0em" dy="0.3em" style="text-anchor: end; visibility: hidden; font-family: Roboto, sans-serif; font-size: 12px; font-weight: 200;" fill="rgb(33, 33, 33)" stroke="none" stroke-width="1px">0.18</text><text x="0" y="37.926" dx="0em" dy="0.3em" style="text-anchor: end; visibility: inherit; font-family: Roboto, sans-serif; font-size: 12px; font-weight: 200;" fill="rgb(33, 33, 33)" stroke="none" stroke-width="1px">0.2</text><text x="0" y="25.284000000000027" dx="0em" dy="0.3em" style="text-anchor: end; visibility: hidden; font-family: Roboto, sans-serif; font-size: 12px; font-weight: 200;" fill="rgb(33, 33, 33)" stroke="none" stroke-width="1px">0.22</text><text x="0" y="12.642000000000014" dx="0em" dy="0.3em" style="text-anchor: end; visibility: inherit; font-family: Roboto, sans-serif; font-size: 12px; font-weight: 200;" fill="rgb(33, 33, 33)" stroke="none" stroke-width="1px">0.24</text><text x="0" y="0" dx="0em" dy="0.3em" style="text-anchor: end; visibility: hidden; font-family: Roboto, sans-serif; font-size: 12px; font-weight: 200;" fill="rgb(33, 33, 33)" stroke="none" stroke-width="1px">0.26</text></g><line x1="61.953125" y1="0" x2="61.953125" y2="176.988" fill="rgb(0, 0, 0)" stroke="rgb(204, 204, 204)" stroke-width="1px"></line></g></g><g transform="translate(61, 0)" clip-path="url(#clip_0)"><clipPath id="clip_0"><rect width="268" height="176"></rect></clipPath><g><g><g><line x1="0" y1="0" x2="0" y2="176.988" fill="rgb(0, 0, 0)" stroke="rgb(66, 66, 66)" stroke-width="1px" opacity="0.25"></line><line x1="20.618067307692307" y1="0" x2="20.618067307692307" y2="176.988" fill="rgb(0, 0, 0)" stroke="rgb(66, 66, 66)" stroke-width="1px" opacity="0.25"></line><line x1="41.236134615384614" y1="0" x2="41.236134615384614" y2="176.988" fill="rgb(0, 0, 0)" stroke="rgb(66, 66, 66)" stroke-width="1px" opacity="0.25"></line><line x1="61.85420192307693" y1="0" x2="61.85420192307693" y2="176.988" fill="rgb(0, 0, 0)" stroke="rgb(66, 66, 66)" stroke-width="1px" opacity="0.25"></line><line x1="82.47226923076923" y1="0" x2="82.47226923076923" y2="176.988" fill="rgb(0, 0, 0)" stroke="rgb(66, 66, 66)" stroke-width="1px" opacity="0.25"></line><line x1="103.09033653846154" y1="0" x2="103.09033653846154" y2="176.988" fill="rgb(0, 0, 0)" stroke="rgb(66, 66, 66)" stroke-width="1px" opacity="0.25"></line><line x1="123.70840384615386" y1="0" x2="123.70840384615386" y2="176.988" fill="rgb(0, 0, 0)" stroke="rgb(66, 66, 66)" stroke-width="1px" opacity="0.25"></line><line x1="144.32647115384614" y1="0" x2="144.32647115384614" y2="176.988" fill="rgb(0, 0, 0)" stroke="rgb(66, 66, 66)" stroke-width="1px" opacity="0.25"></line><line x1="164.94453846153846" y1="0" x2="164.94453846153846" y2="176.988" fill="rgb(0, 0, 0)" stroke="rgb(66, 66, 66)" stroke-width="1px" opacity="0.25"></line><line x1="185.56260576923077" y1="0" x2="185.56260576923077" y2="176.988" fill="rgb(0, 0, 0)" stroke="rgb(66, 66, 66)" stroke-width="1px" opacity="0.25"></line><line x1="206.18067307692309" y1="0" x2="206.18067307692309" y2="176.988" fill="rgb(0, 0, 0)" stroke="rgb(66, 66, 66)" stroke-width="1px" opacity="0.25"></line><line x1="226.79874038461537" y1="0" x2="226.79874038461537" y2="176.988" fill="rgb(0, 0, 0)" stroke="rgb(66, 66, 66)" stroke-width="1px" opacity="0.25"></line><line x1="247.4168076923077" y1="0" x2="247.4168076923077" y2="176.988" fill="rgb(0, 0, 0)" stroke="rgb(66, 66, 66)" stroke-width="1px" opacity="0.25"></line><line x1="268.034875" y1="0" x2="268.034875" y2="176.988" fill="rgb(0, 0, 0)" stroke="rgb(66, 66, 66)" stroke-width="1px" opacity="0.25"></line></g><g><line x1="0" y1="176.988" x2="268.034875" y2="176.988" fill="rgb(0, 0, 0)" stroke="rgb(66, 66, 66)" stroke-width="1px" opacity="0.25"></line><line x1="0" y1="164.346" x2="268.034875" y2="164.346" fill="rgb(0, 0, 0)" stroke="rgb(66, 66, 66)" stroke-width="1px" opacity="0.25"></line><line x1="0" y1="151.704" x2="268.034875" y2="151.704" fill="rgb(0, 0, 0)" stroke="rgb(66, 66, 66)" stroke-width="1px" opacity="0.25"></line><line x1="0" y1="139.062" x2="268.034875" y2="139.062" fill="rgb(0, 0, 0)" stroke="rgb(66, 66, 66)" stroke-width="1px" opacity="0.25"></line><line x1="0" y1="126.42" x2="268.034875" y2="126.42" fill="rgb(0, 0, 0)" stroke="rgb(66, 66, 66)" stroke-width="1px" opacity="0.25"></line><line x1="0" y1="113.77799999999999" x2="268.034875" y2="113.77799999999999" fill="rgb(0, 0, 0)" stroke="rgb(66, 66, 66)" stroke-width="1px" opacity="0.25"></line><line x1="0" y1="101.136" x2="268.034875" y2="101.136" fill="rgb(0, 0, 0)" stroke="rgb(66, 66, 66)" stroke-width="1px" opacity="0.25"></line><line x1="0" y1="88.49400000000001" x2="268.034875" y2="88.49400000000001" fill="rgb(0, 0, 0)" stroke="rgb(66, 66, 66)" stroke-width="1px" opacity="0.25"></line><line x1="0" y1="75.852" x2="268.034875" y2="75.852" fill="rgb(0, 0, 0)" stroke="rgb(66, 66, 66)" stroke-width="1px" opacity="0.25"></line><line x1="0" y1="63.21000000000001" x2="268.034875" y2="63.21000000000001" fill="rgb(0, 0, 0)" stroke="rgb(66, 66, 66)" stroke-width="1px" opacity="0.25"></line><line x1="0" y1="50.56800000000002" x2="268.034875" y2="50.56800000000002" fill="rgb(0, 0, 0)" stroke="rgb(66, 66, 66)" stroke-width="1px" opacity="0.25"></line><line x1="0" y1="37.926" x2="268.034875" y2="37.926" fill="rgb(0, 0, 0)" stroke="rgb(66, 66, 66)" stroke-width="1px" opacity="0.25"></line><line x1="0" y1="25.284000000000027" x2="268.034875" y2="25.284000000000027" fill="rgb(0, 0, 0)" stroke="rgb(66, 66, 66)" stroke-width="1px" opacity="0.25"></line><line x1="0" y1="12.642000000000014" x2="268.034875" y2="12.642000000000014" fill="rgb(0, 0, 0)" stroke="rgb(66, 66, 66)" stroke-width="1px" opacity="0.25"></line><line x1="0" y1="0" x2="268.034875" y2="0" fill="rgb(0, 0, 0)" stroke="rgb(66, 66, 66)" stroke-width="1px" opacity="0.25"></line></g></g></g><g><g><line x1="0" y1="164.346" x2="268.034875" y2="164.346" fill="rgb(0, 0, 0)" stroke="rgb(153, 153, 153)" stroke-width="1.5px"></line></g></g><g><g><line x1="20.618067307692307" y1="0" x2="20.618067307692307" y2="176.988" fill="rgb(0, 0, 0)" stroke="rgb(153, 153, 153)" stroke-width="1.5px"></line></g></g><g><g><g><g><g><path stroke="rgb(255, 112, 67)" stroke-width="2px" d="M22.67987403846154,157.8137331992425L24.741680769230772,158.4183789819167L26.803487500000003,158.70193556798995L28.865294230769234,158.9062968693437L30.927100961538464,159.03725214548385L32.98890769230769,159.14024921667976L35.050714423076926,159.2116932469378L37.11252115384615,159.26224762095475L39.17432788461539,159.32206818992807L41.236134615384614,159.3647343264721L43.29794134615385,159.40383236185934L45.35974807692308,159.44674495485518L47.42155480769231,159.47814403410803L49.483361538461544,159.48707916124323L51.54516826923077,159.51992715211998L53.606975000000006,159.53233155758392L55.66878173076923,159.5505810608635L57.73058846153847,159.5691669769876L59.792395192307694,159.57498382441122L61.85420192307693,159.59205761262734L63.916008653846156,159.58604201013569L65.97781538461538,159.5975783698117L68.03962211538462,159.61725237025064L70.10142884615385,159.62841464381083L72.16323557692307,159.6362689867454L74.2250423076923,159.64221099841836L76.28684903846154,159.64958631577676L78.34865576923077,159.66002625829915L80.4104625,159.66330874430452L82.47226923076923,159.675047295763L84.53407596153846,159.68495286674772L86.5958826923077,159.6947169181457L88.65768942307692,159.69214014114954L90.71949615384617,159.69792431292353L92.78130288461539,159.69879092665488L94.84310961538462,159.70161372853582L96.90491634615384,159.70232017818765L98.96672307692309,159.70841382948814L101.02852980769231,159.7111301193954L103.09033653846154,159.71370544560799L105.15214326923076,159.71215331302935L107.21395000000001,159.72407064185256L109.27575673076923,159.72654731943734L111.33756346153847,159.7268015531251L113.39937019230769,159.71621122552415L115.46117692307693,159.7189547464996L117.52298365384615,159.73116464770405L119.58479038461539,159.73596534809448L121.64659711538461,159.74006965275845L123.70840384615386,123.69252644903277L125.77021057692308,79.94643677255645L127.83201730769231,52.728073424767544L129.89382403846153,37.14712243739691L131.95563076923077,27.31211200240969L134.0174375,22.36055843011855L136.07924423076923,17.94942361009145L138.14105096153844,16.18304093263122L140.2028576923077,15.55558597103093L142.26466442307694,14.951089726086408L144.32647115384614,14.458025151870224L146.38827788461538,14.428985913289537L148.4500846153846,14.607775710304368L150.51189134615385,13.980942161512225L152.57369807692308,13.801571534914874L154.63550480769229,14.274424769451086L156.69731153846155,14.286168043857732L158.75911826923078,14.226199536613215L160.820925,13.966139851529366L162.88273173076922,13.656509900068622L164.94453846153846,14.185922188410366L167.0063451923077,13.833014173084015L169.06815192307693,13.888328834899381L171.12995865384613,13.781155336480213L173.1917653846154,13.61517098964506L175.25357211538463,13.568326915891483L177.31537884615383,13.48512671651335L179.37718557692307,13.229295429622486L181.43899230769233,13.400481717273815L183.50079903846154,13.030396161630874L185.56260576923077,13.435308973547883L187.62441249999998,13.62844509422606L189.68621923076924,13.00312493076221L191.74802596153847,12.986707224096632L193.80983269230768,13.162253133109678L195.8716394230769,13.66386915868012L197.93344615384618,13.586514256414713L199.99525288461538,13.40798631695328L202.05705961538462,13.600413354226438L204.11886634615382,13.307622703569248L206.18067307692309,13.072307053266217L208.24247980769232,13.391730541883879L210.30428653846153,13.280186252796058L212.36609326923076,13.213779609467611L214.42790000000002,13.342238511744767L216.48970673076923,13.67707486363866L218.55151346153846,13.774578397015432L220.61332019230767,13.577911621916108L222.67512692307693,13.914202386753466L224.73693365384617,13.773158280883248L226.79874038461537,13.339519302412288L228.8605471153846,13.68826074588564L230.92235384615387,13.641458863808326L232.98416057692307,13.463679302474025L235.0459673076923,13.388923218953712L237.10777403846154,13.29375314268357L239.16958076923078,13.482962341886084L241.2313875,13.412417526973085L243.29319423076922,13.581736107094766L245.35500096153845,13.0858182816885L247.4168076923077,13.507428906177392L249.47861442307692,14.01756477669175L251.54042115384615,13.959789402242277L253.6022278846154,13.958203789827694L255.66403461538462,13.762900281356282L257.72584134615386,13.658332133201649" style="fill: none;" fill="none"></path></g></g></g></g><g opacity="0.2"><g><g><g><path stroke="rgb(255, 112, 67)" stroke-width="2px" d="M22.67987403846154,157.8137331992425L24.741680769230772,158.78116645152122L26.803487500000003,158.97414989062025L28.865294230769234,159.1466257597357L30.927100961538464,159.20822735401245L32.98890769230769,159.2827312450893L35.050714423076926,159.31385935331136L37.11252115384615,159.33595638359338L39.17432788461539,159.41029190961646L41.236134615384614,159.42808856675774L43.29794134615385,159.4621247986369L45.35974807692308,159.51088031591289L47.42155480769231,159.52514012954572L49.483361538461544,159.50046434710174L51.54516826923077,159.56916052685492L53.606975000000006,159.55092941723206L55.66878173076923,159.5779475932047L57.73058846153847,159.59704113221167L59.792395192307694,159.58370820940843L61.85420192307693,159.61766673433968L63.916008653846156,159.5770189363081L65.97781538461538,159.61488252971694L68.03962211538462,159.64676298248023L70.10142884615385,159.64515792192333L72.16323557692307,159.64805044532196L74.2250423076923,159.6511239905879L76.28684903846154,159.66064927294292L78.34865576923077,159.67568615605495L80.4104625,159.66823247028887L82.47226923076923,159.6926551164631L84.53407596153846,159.69981121993996L86.5958826923077,159.70936299329998L88.65768942307692,159.68827497596294L90.71949615384617,159.70660057017022L92.78130288461539,159.70009084721468L94.84310961538462,159.70584793128447L96.90491634615384,159.70337985265442L98.96672307692309,159.7175543063823L101.02852980769231,159.71520455424115L103.09033653846154,159.7175684349183L105.15214326923076,159.70982511416452L107.21395000000001,159.74194663507305L109.27575673076923,159.73026233581268L111.33756346153847,159.72718290365674L113.39937019230769,159.70032573412547L115.46117692307693,159.72307002796234L117.52298365384615,159.74947949950956L119.58479038461539,159.74316639867985L121.64659711538461,159.7462261097543L123.70840384615386,69.62121164417269L125.77021057692308,14.327302258372319L127.83201730769231,11.900528403282163L129.89382403846153,13.775695956408981L131.95563076923077,12.559596349954603L134.0174375,14.933228071689618L136.07924423076923,11.332721380054956L138.14105096153844,13.53346691644193L140.2028576923077,14.614403528630731L142.26466442307694,14.044345358669755L144.32647115384614,13.71842829054595L146.38827788461538,14.385427055418496L148.4500846153846,14.875960405826566L150.51189134615385,13.04069183832407L152.57369807692308,13.53251559501887L154.63550480769229,14.983704621255404L156.69731153846155,14.303782955467709L158.75911826923078,14.136246775746354L160.820925,13.576050323903564L162.88273173076922,13.192064972877514L164.94453846153846,14.980040620923054L167.0063451923077,13.303652150094507L169.06815192307693,13.97130082762242L171.12995865384613,13.62039508885145L173.1917653846154,13.36619446939231L175.25357211538463,13.498060805261145L177.31537884615383,13.360326417446148L179.37718557692307,12.845548499286172L181.43899230769233,13.657261148750788L183.50079903846154,12.475267828166482L185.56260576923077,14.042678191423416L187.62441249999998,13.91814927524328L189.68621923076924,12.065144685566425L191.74802596153847,12.962080664098266L193.80983269230768,13.425571996629243L195.8716394230769,14.416293197035804L197.93344615384618,13.470481903016582L199.99525288461538,13.140194407761106L202.05705961538462,13.889053910136223L204.11886634615382,12.868436727583413L206.18067307692309,12.719333577811717L208.24247980769232,13.870865774810323L210.30428653846153,13.11286981916428L212.36609326923076,13.11416964447499L214.42790000000002,13.534926865160465L216.48970673076923,14.179329391479506L218.55151346153846,13.920833697080612L220.61332019230767,13.282911459267142L222.67512692307693,14.418638534009466L224.73693365384617,13.561592122077947L226.79874038461537,12.68906083470584L228.8605471153846,14.211372911095633L230.92235384615387,13.57125604069233L232.98416057692307,13.197009960472595L235.0459673076923,13.27678909367324L237.10777403846154,13.150998028278352L239.16958076923078,13.766776140689855L241.2313875,13.306600304603577L243.29319423076922,13.83571397727728L245.35500096153845,12.341941543579109L247.4168076923077,14.139844842910769L249.47861442307692,14.782768582463275L251.54042115384615,13.87312634056807L253.6022278846154,13.95582537120581L255.66403461538462,13.469945018649106L257.72584134615386,13.501479910969737" style="fill: none;" fill="none"></path></g></g></g></g></g></g><g transform="translate(61, 176)" clip-path="url(#clip_1)"><clipPath id="clip_1"><rect width="268" height="22"></rect></clipPath><g><g><line x1="0" y1="0" x2="0" y2="5" style="visibility: inherit;" fill="rgb(0, 0, 0)" stroke="rgb(204, 204, 204)" stroke-width="1px"></line><line x1="20.618067307692307" y1="0" x2="20.618067307692307" y2="5" style="visibility: inherit;" fill="rgb(0, 0, 0)" stroke="rgb(204, 204, 204)" stroke-width="1px"></line><line x1="41.236134615384614" y1="0" x2="41.236134615384614" y2="5" style="visibility: inherit;" fill="rgb(0, 0, 0)" stroke="rgb(204, 204, 204)" stroke-width="1px"></line><line x1="61.85420192307693" y1="0" x2="61.85420192307693" y2="5" style="visibility: inherit;" fill="rgb(0, 0, 0)" stroke="rgb(204, 204, 204)" stroke-width="1px"></line><line x1="82.47226923076923" y1="0" x2="82.47226923076923" y2="5" style="visibility: inherit;" fill="rgb(0, 0, 0)" stroke="rgb(204, 204, 204)" stroke-width="1px"></line><line x1="103.09033653846154" y1="0" x2="103.09033653846154" y2="5" style="visibility: inherit;" fill="rgb(0, 0, 0)" stroke="rgb(204, 204, 204)" stroke-width="1px"></line><line x1="123.70840384615386" y1="0" x2="123.70840384615386" y2="5" style="visibility: inherit;" fill="rgb(0, 0, 0)" stroke="rgb(204, 204, 204)" stroke-width="1px"></line><line x1="144.32647115384614" y1="0" x2="144.32647115384614" y2="5" style="visibility: inherit;" fill="rgb(0, 0, 0)" stroke="rgb(204, 204, 204)" stroke-width="1px"></line><line x1="164.94453846153846" y1="0" x2="164.94453846153846" y2="5" style="visibility: inherit;" fill="rgb(0, 0, 0)" stroke="rgb(204, 204, 204)" stroke-width="1px"></line><line x1="185.56260576923077" y1="0" x2="185.56260576923077" y2="5" style="visibility: inherit;" fill="rgb(0, 0, 0)" stroke="rgb(204, 204, 204)" stroke-width="1px"></line><line x1="206.18067307692309" y1="0" x2="206.18067307692309" y2="5" style="visibility: inherit;" fill="rgb(0, 0, 0)" stroke="rgb(204, 204, 204)" stroke-width="1px"></line><line x1="226.79874038461537" y1="0" x2="226.79874038461537" y2="5" style="visibility: inherit;" fill="rgb(0, 0, 0)" stroke="rgb(204, 204, 204)" stroke-width="1px"></line><line x1="247.4168076923077" y1="0" x2="247.4168076923077" y2="5" style="visibility: inherit;" fill="rgb(0, 0, 0)" stroke="rgb(204, 204, 204)" stroke-width="1px"></line><line x1="268.034875" y1="0" x2="268.034875" y2="5" style="visibility: inherit;" fill="rgb(0, 0, 0)" stroke="rgb(204, 204, 204)" stroke-width="1px"></line></g><g transform="translate(0, 8)"><text x="0" y="0" dx="0em" dy="0.95em" style="text-anchor: middle; visibility: hidden; font-family: Roboto, sans-serif; font-size: 12px; font-weight: 200;" fill="rgb(33, 33, 33)" stroke="none" stroke-width="1px">-10</text><text x="20.618067307692307" y="0" dx="0em" dy="0.95em" style="text-anchor: middle; visibility: inherit; font-family: Roboto, sans-serif; font-size: 12px; font-weight: 200;" fill="rgb(33, 33, 33)" stroke="none" stroke-width="1px">0</text><text x="41.236134615384614" y="0" dx="0em" dy="0.95em" style="text-anchor: middle; visibility: hidden; font-family: Roboto, sans-serif; font-size: 12px; font-weight: 200;" fill="rgb(33, 33, 33)" stroke="none" stroke-width="1px">10</text><text x="61.85420192307693" y="0" dx="0em" dy="0.95em" style="text-anchor: middle; visibility: inherit; font-family: Roboto, sans-serif; font-size: 12px; font-weight: 200;" fill="rgb(33, 33, 33)" stroke="none" stroke-width="1px">20</text><text x="82.47226923076923" y="0" dx="0em" dy="0.95em" style="text-anchor: middle; visibility: hidden; font-family: Roboto, sans-serif; font-size: 12px; font-weight: 200;" fill="rgb(33, 33, 33)" stroke="none" stroke-width="1px">30</text><text x="103.09033653846154" y="0" dx="0em" dy="0.95em" style="text-anchor: middle; visibility: inherit; font-family: Roboto, sans-serif; font-size: 12px; font-weight: 200;" fill="rgb(33, 33, 33)" stroke="none" stroke-width="1px">40</text><text x="123.70840384615386" y="0" dx="0em" dy="0.95em" style="text-anchor: middle; visibility: hidden; font-family: Roboto, sans-serif; font-size: 12px; font-weight: 200;" fill="rgb(33, 33, 33)" stroke="none" stroke-width="1px">50</text><text x="144.32647115384614" y="0" dx="0em" dy="0.95em" style="text-anchor: middle; visibility: inherit; font-family: Roboto, sans-serif; font-size: 12px; font-weight: 200;" fill="rgb(33, 33, 33)" stroke="none" stroke-width="1px">60</text><text x="164.94453846153846" y="0" dx="0em" dy="0.95em" style="text-anchor: middle; visibility: hidden; font-family: Roboto, sans-serif; font-size: 12px; font-weight: 200;" fill="rgb(33, 33, 33)" stroke="none" stroke-width="1px">70</text><text x="185.56260576923077" y="0" dx="0em" dy="0.95em" style="text-anchor: middle; visibility: inherit; font-family: Roboto, sans-serif; font-size: 12px; font-weight: 200;" fill="rgb(33, 33, 33)" stroke="none" stroke-width="1px">80</text><text x="206.18067307692309" y="0" dx="0em" dy="0.95em" style="text-anchor: middle; visibility: hidden; font-family: Roboto, sans-serif; font-size: 12px; font-weight: 200;" fill="rgb(33, 33, 33)" stroke="none" stroke-width="1px">90</text><text x="226.79874038461537" y="0" dx="0em" dy="0.95em" style="text-anchor: middle; visibility: inherit; font-family: Roboto, sans-serif; font-size: 12px; font-weight: 200;" fill="rgb(33, 33, 33)" stroke="none" stroke-width="1px">100</text><text x="247.4168076923077" y="0" dx="0em" dy="0.95em" style="text-anchor: middle; visibility: hidden; font-family: Roboto, sans-serif; font-size: 12px; font-weight: 200;" fill="rgb(33, 33, 33)" stroke="none" stroke-width="1px">110</text><text x="268.034875" y="0" dx="0em" dy="0.95em" style="text-anchor: middle; visibility: hidden; font-family: Roboto, sans-serif; font-size: 12px; font-weight: 200;" fill="rgb(33, 33, 33)" stroke="none" stroke-width="1px">120</text></g><line x1="0" y1="0" x2="268.034875" y2="0" fill="rgb(0, 0, 0)" stroke="rgb(204, 204, 204)" stroke-width="1px"></line></g></g></g></g></svg>