<svg viewBox="0 0 330.0000305175781 200.00001525878906" xmlns="http://www.w3.org/2000/svg"><g><g><g><g><g><line x1="61.953125" y1="177" x2="56.953125" y2="177" style="visibility: inherit;" fill="rgb(0, 0, 0)" stroke="rgb(204, 204, 204)" stroke-width="1px"></line><line x1="61.953125" y1="154.87500000000003" x2="56.953125" y2="154.87500000000003" style="visibility: inherit;" fill="rgb(0, 0, 0)" stroke="rgb(204, 204, 204)" stroke-width="1px"></line><line x1="61.953125" y1="132.75000000000003" x2="56.953125" y2="132.75000000000003" style="visibility: inherit;" fill="rgb(0, 0, 0)" stroke="rgb(204, 204, 204)" stroke-width="1px"></line><line x1="61.953125" y1="110.625" x2="56.953125" y2="110.625" style="visibility: inherit;" fill="rgb(0, 0, 0)" stroke="rgb(204, 204, 204)" stroke-width="1px"></line><line x1="61.953125" y1="88.50000000000004" x2="56.953125" y2="88.50000000000004" style="visibility: inherit;" fill="rgb(0, 0, 0)" stroke="rgb(204, 204, 204)" stroke-width="1px"></line><line x1="61.953125" y1="66.375" x2="56.953125" y2="66.375" style="visibility: inherit;" fill="rgb(0, 0, 0)" stroke="rgb(204, 204, 204)" stroke-width="1px"></line><line x1="61.953125" y1="44.24999999999998" x2="56.953125" y2="44.24999999999998" style="visibility: inherit;" fill="rgb(0, 0, 0)" stroke="rgb(204, 204, 204)" stroke-width="1px"></line><line x1="61.953125" y1="22.12500000000002" x2="56.953125" y2="22.12500000000002" style="visibility: inherit;" fill="rgb(0, 0, 0)" stroke="rgb(204, 204, 204)" stroke-width="1px"></line><line x1="61.953125" y1="0" x2="56.953125" y2="0" style="visibility: inherit;" fill="rgb(0, 0, 0)" stroke="rgb(204, 204, 204)" stroke-width="1px"></line></g><g transform="translate(51.953125, 0)"><text x="0" y="177" dx="0em" dy="0.3em" style="text-anchor: end; visibility: hidden; font-family: Roboto, sans-serif; font-size: 12px; font-weight: 200;" fill="rgb(33, 33, 33)" stroke="none" stroke-width="1px">0.085</text><text x="0" y="154.87500000000003" dx="0em" dy="0.3em" style="text-anchor: end; visibility: inherit; font-family: Roboto, sans-serif; font-size: 12px; font-weight: 200;" fill="rgb(33, 33, 33)" stroke="none" stroke-width="1px">0.09</text><text x="0" y="132.75000000000003" dx="0em" dy="0.3em" style="text-anchor: end; visibility: hidden; font-family: Roboto, sans-serif; font-size: 12px; font-weight: 200;" fill="rgb(33, 33, 33)" stroke="none" stroke-width="1px">0.095</text><text x="0" y="110.625" dx="0em" dy="0.3em" style="text-anchor: end; visibility: inherit; font-family: Roboto, sans-serif; font-size: 12px; font-weight: 200;" fill="rgb(33, 33, 33)" stroke="none" stroke-width="1px">0.1</text><text x="0" y="88.50000000000004" dx="0em" dy="0.3em" style="text-anchor: end; visibility: hidden; font-family: Roboto, sans-serif; font-size: 12px; font-weight: 200;" fill="rgb(33, 33, 33)" stroke="none" stroke-width="1px">0.105</text><text x="0" y="66.375" dx="0em" dy="0.3em" style="text-anchor: end; visibility: inherit; font-family: Roboto, sans-serif; font-size: 12px; font-weight: 200;" fill="rgb(33, 33, 33)" stroke="none" stroke-width="1px">0.11</text><text x="0" y="44.24999999999998" dx="0em" dy="0.3em" style="text-anchor: end; visibility: hidden; font-family: Roboto, sans-serif; font-size: 12px; font-weight: 200;" fill="rgb(33, 33, 33)" stroke="none" stroke-width="1px">0.115</text><text x="0" y="22.12500000000002" dx="0em" dy="0.3em" style="text-anchor: end; visibility: inherit; font-family: Roboto, sans-serif; font-size: 12px; font-weight: 200;" fill="rgb(33, 33, 33)" stroke="none" stroke-width="1px">0.12</text><text x="0" y="0" dx="0em" dy="0.3em" style="text-anchor: end; visibility: hidden; font-family: Roboto, sans-serif; font-size: 12px; font-weight: 200;" fill="rgb(33, 33, 33)" stroke="none" stroke-width="1px">0.125</text></g><line x1="61.953125" y1="0" x2="61.953125" y2="177" fill="rgb(0, 0, 0)" stroke="rgb(204, 204, 204)" stroke-width="1px"></line></g></g><g transform="translate(61, 0)" clip-path="url(#clip_0)"><clipPath id="clip_0"><rect width="268" height="177"></rect></clipPath><g><g><g><line x1="0" y1="0" x2="0" y2="177" fill="rgb(0, 0, 0)" stroke="rgb(66, 66, 66)" stroke-width="1px" opacity="0.25"></line><line x1="22.337239583333332" y1="0" x2="22.337239583333332" y2="177" fill="rgb(0, 0, 0)" stroke="rgb(66, 66, 66)" stroke-width="1px" opacity="0.25"></line><line x1="44.674479166666664" y1="0" x2="44.674479166666664" y2="177" fill="rgb(0, 0, 0)" stroke="rgb(66, 66, 66)" stroke-width="1px" opacity="0.25"></line><line x1="67.01171875" y1="0" x2="67.01171875" y2="177" fill="rgb(0, 0, 0)" stroke="rgb(66, 66, 66)" stroke-width="1px" opacity="0.25"></line><line x1="89.34895833333333" y1="0" x2="89.34895833333333" y2="177" fill="rgb(0, 0, 0)" stroke="rgb(66, 66, 66)" stroke-width="1px" opacity="0.25"></line><line x1="111.68619791666667" y1="0" x2="111.68619791666667" y2="177" fill="rgb(0, 0, 0)" stroke="rgb(66, 66, 66)" stroke-width="1px" opacity="0.25"></line><line x1="134.0234375" y1="0" x2="134.0234375" y2="177" fill="rgb(0, 0, 0)" stroke="rgb(66, 66, 66)" stroke-width="1px" opacity="0.25"></line><line x1="156.36067708333334" y1="0" x2="156.36067708333334" y2="177" fill="rgb(0, 0, 0)" stroke="rgb(66, 66, 66)" stroke-width="1px" opacity="0.25"></line><line x1="178.69791666666666" y1="0" x2="178.69791666666666" y2="177" fill="rgb(0, 0, 0)" stroke="rgb(66, 66, 66)" stroke-width="1px" opacity="0.25"></line><line x1="201.03515625" y1="0" x2="201.03515625" y2="177" fill="rgb(0, 0, 0)" stroke="rgb(66, 66, 66)" stroke-width="1px" opacity="0.25"></line><line x1="223.37239583333334" y1="0" x2="223.37239583333334" y2="177" fill="rgb(0, 0, 0)" stroke="rgb(66, 66, 66)" stroke-width="1px" opacity="0.25"></line><line x1="245.70963541666666" y1="0" x2="245.70963541666666" y2="177" fill="rgb(0, 0, 0)" stroke="rgb(66, 66, 66)" stroke-width="1px" opacity="0.25"></line><line x1="268.046875" y1="0" x2="268.046875" y2="177" fill="rgb(0, 0, 0)" stroke="rgb(66, 66, 66)" stroke-width="1px" opacity="0.25"></line></g><g><line x1="0" y1="177" x2="268.046875" y2="177" fill="rgb(0, 0, 0)" stroke="rgb(66, 66, 66)" stroke-width="1px" opacity="0.25"></line><line x1="0" y1="154.87500000000003" x2="268.046875" y2="154.87500000000003" fill="rgb(0, 0, 0)" stroke="rgb(66, 66, 66)" stroke-width="1px" opacity="0.25"></line><line x1="0" y1="132.75000000000003" x2="268.046875" y2="132.75000000000003" fill="rgb(0, 0, 0)" stroke="rgb(66, 66, 66)" stroke-width="1px" opacity="0.25"></line><line x1="0" y1="110.625" x2="268.046875" y2="110.625" fill="rgb(0, 0, 0)" stroke="rgb(66, 66, 66)" stroke-width="1px" opacity="0.25"></line><line x1="0" y1="88.50000000000004" x2="268.046875" y2="88.50000000000004" fill="rgb(0, 0, 0)" stroke="rgb(66, 66, 66)" stroke-width="1px" opacity="0.25"></line><line x1="0" y1="66.375" x2="268.046875" y2="66.375" fill="rgb(0, 0, 0)" stroke="rgb(66, 66, 66)" stroke-width="1px" opacity="0.25"></line><line x1="0" y1="44.24999999999998" x2="268.046875" y2="44.24999999999998" fill="rgb(0, 0, 0)" stroke="rgb(66, 66, 66)" stroke-width="1px" opacity="0.25"></line><line x1="0" y1="22.12500000000002" x2="268.046875" y2="22.12500000000002" fill="rgb(0, 0, 0)" stroke="rgb(66, 66, 66)" stroke-width="1px" opacity="0.25"></line><line x1="0" y1="0" x2="268.046875" y2="0" fill="rgb(0, 0, 0)" stroke="rgb(66, 66, 66)" stroke-width="1px" opacity="0.25"></line></g></g></g><g><g><line x1="0" y1="553.1250000000001" x2="268.046875" y2="553.1250000000001" fill="rgb(0, 0, 0)" stroke="rgb(153, 153, 153)" stroke-width="1.5px"></line></g></g><g><g><line x1="22.337239583333332" y1="0" x2="22.337239583333332" y2="177" fill="rgb(0, 0, 0)" stroke="rgb(153, 153, 153)" stroke-width="1.5px"></line></g></g><g><g><g><g><g><path stroke="rgb(255, 112, 67)" stroke-width="2px" d="M33.505859375,230.55036904537334L34.62272135416667,157.5640195544483L35.739583333333336,120.97093577997211L36.8564453125,104.17524342951724L37.973307291666664,97.66774082300351L39.090169270833336,95.98952946171401L40.20703125,95.61467841426352L41.32389322916667,97.52301540099101L42.44075520833333,30.37443250952638L43.5576171875,47.908769103130595L44.674479166666664,64.15604206178291L45.791341145833336,75.41612755644552L46.908203125,85.68054273867303L48.025065104166664,92.73145967565854L49.14192708333333,96.45595317898866L50.2587890625,94.99993962840887L51.37565104166667,96.07148460722365L52.492513020833336,96.45026397536877L53.609375,97.92658879717202L54.726236979166664,98.56123974080128L55.843098958333336,99.75841742490903L56.9599609375,100.48360775633799L58.07682291666667,100.11299026474656L59.19368489583333,101.39894333641314L60.310546875,100.38649316009203L61.427408854166664,101.78741763184522L62.544270833333336,99.61969939708047L63.6611328125,94.92720996121882L64.77799479166667,93.62385099511364L65.89485677083333,93.26696194855944L67.01171875,91.92638946979L68.12858072916666,92.17753613556954L69.24544270833334,91.50089139944853L70.3623046875,96.1854352976886L71.47916666666667,94.34372056547728L72.59602864583333,95.65446216789951L73.712890625,95.00925593925311L74.82975260416667,94.98030545325643L75.94661458333333,91.31293081937885L77.0634765625,88.03545428032419L78.18033854166667,89.0610469443567L79.29720052083333,88.2406104691566L80.4140625,86.81606950388385L81.53092447916666,89.59879474059841L82.64778645833334,93.61805168519508L83.7646484375,93.48474270242501L84.88151041666666,94.81587552212548L85.99837239583334,94.79677024890708L87.115234375,92.01018970256837L88.23209635416667,95.12767448154591L89.34895833333333,92.43601928131278L90.4658203125,90.0519559232979L91.58268229166667,87.58543979815175L92.69954427083333,88.85950789863786L93.81640625,90.3806886584456L94.93326822916667,91.36206457083802L96.05013020833333,91.11854612270218L97.1669921875,89.66490487420099L98.28385416666666,86.31997956433021L99.40071614583334,78.82802831291035L100.517578125,71.84412053024096L101.63444010416666,78.45963602242061L102.75130208333334,80.05897515998595L103.8681640625,85.11126191309877L104.98502604166667,87.38366537327649L106.10188802083333,80.49369326552804L107.21875,76.92929250789315L108.33561197916667,78.45346148486514L109.45247395833333,79.08733228251687L110.5693359375,78.00745257380815L111.68619791666667,72.31922530319221L112.80305989583333,69.08722182027061L113.919921875,73.55470529145929L115.03678385416666,76.04220909444649L116.15364583333334,78.46378588717079L117.2705078125,87.04671385312618L118.38736979166666,90.10814650311795L119.50423177083334,89.7035747674389L120.62109375,88.701071882682L121.73795572916667,90.45550878014383L122.85481770833333,88.10262377659213L123.9716796875,89.56514080226268L125.08854166666667,88.65923571503072L126.20540364583333,80.88313818225808L127.322265625,75.59175785034626L128.43912760416669,70.21855560332375L129.55598958333334,74.08956369691992L130.6728515625,79.14658922513668L131.78971354166666,66.39227443075384L132.90657552083334,66.44916697225693L134.0234375,14.754486762772348L135.14029947916666,-5.286843220418544L136.25716145833331,31.142698219403094L137.3740234375,50.935678253164554L138.49088541666669,61.60197217440053L139.60774739583334,57.596274892541494L140.724609375,55.81236701014799L141.84147135416666,53.528268610257875L142.95833333333334,55.232006892454024L144.0751953125,56.12357465022289L145.19205729166666,61.27546873744419L146.30891927083331,66.9790412310129L147.42578125,70.667862911425L148.54264322916669,73.4538374956858L149.65950520833334,78.74700746634082L150.7763671875,83.79297999559921L151.89322916666666,85.86367650639467L153.01009114583331,88.94284007734929L154.126953125,74.06405620447917L155.24381510416669,68.65678757531714L156.36067708333334,63.76915495159194L157.4775390625,59.75870599187595L158.59440104166666,62.81538313530197L159.71126302083334,61.32977220953884L160.828125,60.9061013224207L161.94498697916666,62.857947979121406L163.06184895833331,60.554603999107535L164.1787109375,66.69898339524833L165.29557291666669,61.715444600075315L166.41243489583334,53.13649985223402L167.529296875,43.938821259316136L168.64615885416666,39.730579601631376L169.76302083333331,46.13393370622748L170.8798828125,31.209936063375217L171.99674479166669,18.770851982168043L173.11360677083334,27.93150658460356L174.23046875,32.65652129085L175.34733072916666,36.74012523312055L176.46419270833334,44.77002286266497L177.5810546875,46.98964924127588L178.69791666666666,49.56905749744609L179.81477864583331,36.245206638016896L180.931640625,32.96935395529184L182.04850260416669,42.04089305478523L183.16536458333334,32.63471312331076L184.2822265625,28.92540447120024L185.39908854166666,45.48590080263708L186.51595052083331,49.189205967321996L187.6328125,52.33566112991274L188.74967447916669,48.048342527008664L189.86653645833334,38.884640417132765L190.9833984375,33.894165341039916L192.10026041666666,42.06462583481099L193.21712239583334,40.56211557411446L194.333984375,44.41450213744219L195.45084635416666,58.19514006587258L196.56770833333331,59.361485303714254L197.6845703125,56.256466529532915L198.80143229166669,39.71172797487056L199.91829427083334,17.809225039517102L201.03515625,6.523472170135493L202.15201822916666,11.339465811908898L203.26888020833331,-6.484231629931492L204.3857421875,5.948147905490652L205.50260416666669,20.088245262278225L206.61946614583334,25.245064073546658L207.736328125,39.17599302455422L208.85319010416666,48.49865097954651L209.97005208333334,60.00537490340936L211.0869140625,60.744846704559755L212.20377604166666,63.93468735692337L213.32063802083331,48.9901443307247L214.4375,42.06429392007867L215.55436197916669,45.0329762393706L216.67122395833334,42.00421954360441L217.7880859375,34.9718522141387L218.90494791666666,36.568329325914966L220.02180989583331,40.15253810083898L221.138671875,39.59268355665226L222.25553385416669,36.13632484851847L223.37239583333334,39.03299429761512L224.4892578125,41.163100726885496L225.60611979166666,48.05305104105647L226.72298177083334,52.150992904001306L227.83984375,56.60285501414168L228.95670572916666,49.79485652586004L230.07356770833331,43.25314190530882L231.1904296875,38.52801264252722L232.30729166666669,47.49467777267973L233.42415364583334,56.74013901982237L234.541015625,56.557777877053816L235.65787760416666,51.77553220415187L236.77473958333331,45.08132702901405L237.8916015625,34.423380370702986L239.00846354166669,27.366005048612706L240.12532552083334,18.857423016703123L241.2421875,11.383754267857064L242.35904947916666,10.51562585208748L243.47591145833334,-1.0158477260236445L244.5927734375,-29.43760234317561L245.70963541666666,1.2649695384420006" style="fill: none;" fill="none"></path></g></g></g></g><g opacity="0.2"><g><g><g><path stroke="rgb(255, 112, 67)" stroke-width="2px" d="M33.505859375,-24.490953236818314L34.62272135416667,48.746476136147976L35.739583333333336,66.28044806420804L36.8564453125,79.03654575347902L37.973307291666664,87.91923578828575L39.090169270833336,93.47418509423733L40.20703125,95.0526662170887L41.32389322916667,100.38471333682538L42.44075520833333,-70.33139280974865L43.5576171875,74.20760281383993L44.674479166666664,88.52546643465757L45.791341145833336,92.30563826858997L46.908203125,101.07682775706054L48.025065104166664,103.3076958730817L49.14192708333333,102.0426493138075L50.2587890625,92.81592965126038L51.37565104166667,97.67879750579597L52.492513020833336,97.01843205839397L53.609375,100.14107376337053L54.726236979166664,99.51321557164194L55.843098958333336,101.5541832894087L56.9599609375,101.5713930130005L58.07682291666667,99.55706410109998L59.19368489583333,103.32787279039623L60.310546875,98.86781796813013L61.427408854166664,103.8888042792678L62.544270833333336,96.36812210083008L63.6611328125,87.88847588002683L64.77799479166667,91.66881255805492L65.89485677083333,92.73162838071585L67.01171875,89.91553075611591L68.12858072916666,92.55425613373518L69.24544270833334,90.48592429608107L70.3623046875,103.21225114166738L71.47916666666667,91.58114846795797L72.59602864583333,97.62057457119228L73.712890625,94.04144659638405L74.82975260416667,94.93687972426414L75.94661458333333,85.81186886876823L77.0634765625,83.1192394718528L78.18033854166667,90.59943594038486L79.29720052083333,87.00995575636627L80.4140625,84.67925805598499L81.53092447916666,93.7728825956583L82.64778645833334,99.6469371020794L83.7646484375,93.28477922827005L84.88151041666666,96.81257475167514L85.99837239583334,94.76811233907938L87.115234375,87.83031888306142L88.23209635416667,99.80390165001155L89.34895833333333,88.39853648096324L90.4658203125,86.47586088627578L91.58268229166667,83.88566561043264L92.69954427083333,90.77061004936695L93.81640625,92.66245979815722L94.93326822916667,92.83412843942642L96.05013020833333,90.75326845049858L97.1669921875,87.48444300144912L98.28385416666666,81.30259159952404L99.40071614583334,67.59010143578054L100.517578125,61.368258856236935L101.63444010416666,88.38290926069023L102.75130208333334,82.45798386633398L103.8681640625,92.689692042768L104.98502604166667,90.79227056354284L106.10188802083333,70.15873510390522L107.21875,71.5826913714409L108.33561197916667,80.73971495032312L109.45247395833333,80.03813847899438L110.5693359375,76.38763301074506L111.68619791666667,63.786884397268295L112.80305989583333,64.23921659588814L113.919921875,80.25593049824239L115.03678385416666,79.77346479892732L116.15364583333334,82.09615107625724L117.2705078125,99.92110580205919L118.38736979166666,94.70029547810555L119.50423177083334,89.0967171639204L120.62109375,87.19731755554677L121.73795572916667,93.08716412633657L122.85481770833333,84.57329627126457L123.9716796875,91.75891634076834L125.08854166666667,87.30037808418275L126.20540364583333,69.2189918830991L127.322265625,67.65468735247852L128.43912760416669,62.15875223278999L129.55598958333334,79.89607583731414L130.6728515625,86.73212751746179L131.78971354166666,47.26080223917961L132.90657552083334,66.53450578451158L134.0234375,-62.787533551454544L135.14029947916666,-35.348838195204735L136.25716145833331,85.78701037913562L137.3740234375,80.6251483038068L138.49088541666669,77.6014130562544L139.60774739583334,51.58772896975279L140.724609375,53.13650518655777L141.84147135416666,50.10212101042271L142.95833333333334,57.787614315748215L144.0751953125,57.4609262868762L145.19205729166666,69.00330986827613L146.30891927083331,75.53439997136594L147.42578125,76.20109543204309L148.54264322916669,77.632799372077L149.65950520833334,86.68676242232324L150.7763671875,91.36193878948689L151.89322916666666,88.96972127258778L153.01009114583331,93.56158543378115L154.126953125,51.74588039517403L155.24381510416669,60.545884631574154L156.36067708333334,56.437706016004086L157.4775390625,53.743032552301884L158.59440104166666,67.400398850441L159.71126302083334,59.10135582089424L160.828125,60.270594991743565L161.94498697916666,65.78571796417238L163.06184895833331,57.09958802908659L164.1787109375,75.91555248945953L165.29557291666669,54.24013640731573L166.41243489583334,40.26808273047209L167.529296875,30.142303369939327L168.64615885416666,33.4182171151042L169.76302083333331,55.73896486312151L170.8798828125,8.823939599096775L171.99674479166669,0.11222586035728455L173.11360677083334,41.67248848825693L174.23046875,39.74404335021973L175.34733072916666,42.86553114652634L176.46419270833334,56.814869306981564L177.5810546875,50.31908880919218L178.69791666666666,53.43816988170147L179.81477864583331,16.25943034887314L180.931640625,28.05557493120432L182.04850260416669,55.64820170402527L183.16536458333334,18.525443226099014L184.2822265625,23.361441493034363L185.39908854166666,70.3266452997923L186.51595052083331,54.74416371434927L187.6328125,57.05534387379885L188.74967447916669,41.61736462265253L189.86653645833334,25.13908725231886L190.9833984375,26.408452726900578L192.10026041666666,54.32031657546759L193.21712239583334,38.308350183069706L194.333984375,50.193081982433796L195.45084635416666,78.86609695851804L196.56770833333331,61.111003160476685L197.6845703125,51.59893836826086L198.80143229166669,14.894620142877102L199.91829427083334,-15.044529363512993L201.03515625,-10.405157133936882L202.15201822916666,18.563456274569035L203.26888020833331,-33.219777792692184L204.3857421875,24.596717208623886L205.50260416666669,41.2983912974596L206.61946614583334,32.98029229044914L207.736328125,60.07238645106554L208.85319010416666,62.48263791203499L209.97005208333334,77.26546078920366L211.0869140625,61.854054406285286L212.20377604166666,68.71944833546878L213.32063802083331,26.57332979142666L214.4375,31.675518304109573L215.55436197916669,49.48599971830845L216.67122395833334,37.46108449995518L217.7880859375,24.423301219940186L218.90494791666666,38.96304499357939L220.02180989583331,45.52885126322508L221.138671875,38.75290174037218L222.25553385416669,30.951786786317825L223.37239583333334,43.37799847126007L224.4892578125,44.35826037079096L225.60611979166666,58.38797651231289L226.72298177083334,58.29790569841862L227.83984375,63.28064817935228L228.95670572916666,39.58285879343748L230.07356770833331,33.44056997448206L231.1904296875,31.440318748354912L232.30729166666669,60.94467546790838L233.42415364583334,70.60833089053632L234.541015625,56.284236162900925L235.65787760416666,44.602163694798946L236.77473958333331,35.040019266307354L237.8916015625,18.43646038323641L239.00846354166669,16.77994206547737L240.12532552083334,6.094549968838692L241.2421875,0.17325114458799362L242.35904947916666,9.213433228433132L243.47591145833334,-18.313058093190193L244.5927734375,-72.07023426890373L245.70963541666666,47.318827360868454" style="fill: none;" fill="none"></path></g></g></g></g></g></g><g transform="translate(61, 177)" clip-path="url(#clip_1)"><clipPath id="clip_1"><rect width="268" height="23"></rect></clipPath><g><g><line x1="0" y1="0" x2="0" y2="5" style="visibility: inherit;" fill="rgb(0, 0, 0)" stroke="rgb(204, 204, 204)" stroke-width="1px"></line><line x1="22.337239583333332" y1="0" x2="22.337239583333332" y2="5" style="visibility: inherit;" fill="rgb(0, 0, 0)" stroke="rgb(204, 204, 204)" stroke-width="1px"></line><line x1="44.674479166666664" y1="0" x2="44.674479166666664" y2="5" style="visibility: inherit;" fill="rgb(0, 0, 0)" stroke="rgb(204, 204, 204)" stroke-width="1px"></line><line x1="67.01171875" y1="0" x2="67.01171875" y2="5" style="visibility: inherit;" fill="rgb(0, 0, 0)" stroke="rgb(204, 204, 204)" stroke-width="1px"></line><line x1="89.34895833333333" y1="0" x2="89.34895833333333" y2="5" style="visibility: inherit;" fill="rgb(0, 0, 0)" stroke="rgb(204, 204, 204)" stroke-width="1px"></line><line x1="111.68619791666667" y1="0" x2="111.68619791666667" y2="5" style="visibility: inherit;" fill="rgb(0, 0, 0)" stroke="rgb(204, 204, 204)" stroke-width="1px"></line><line x1="134.0234375" y1="0" x2="134.0234375" y2="5" style="visibility: inherit;" fill="rgb(0, 0, 0)" stroke="rgb(204, 204, 204)" stroke-width="1px"></line><line x1="156.36067708333334" y1="0" x2="156.36067708333334" y2="5" style="visibility: inherit;" fill="rgb(0, 0, 0)" stroke="rgb(204, 204, 204)" stroke-width="1px"></line><line x1="178.69791666666666" y1="0" x2="178.69791666666666" y2="5" style="visibility: inherit;" fill="rgb(0, 0, 0)" stroke="rgb(204, 204, 204)" stroke-width="1px"></line><line x1="201.03515625" y1="0" x2="201.03515625" y2="5" style="visibility: inherit;" fill="rgb(0, 0, 0)" stroke="rgb(204, 204, 204)" stroke-width="1px"></line><line x1="223.37239583333334" y1="0" x2="223.37239583333334" y2="5" style="visibility: inherit;" fill="rgb(0, 0, 0)" stroke="rgb(204, 204, 204)" stroke-width="1px"></line><line x1="245.70963541666666" y1="0" x2="245.70963541666666" y2="5" style="visibility: inherit;" fill="rgb(0, 0, 0)" stroke="rgb(204, 204, 204)" stroke-width="1px"></line><line x1="268.046875" y1="0" x2="268.046875" y2="5" style="visibility: inherit;" fill="rgb(0, 0, 0)" stroke="rgb(204, 204, 204)" stroke-width="1px"></line></g><g transform="translate(0, 8)"><text x="0" y="0" dx="0em" dy="0.95em" style="text-anchor: middle; visibility: hidden; font-family: Roboto, sans-serif; font-size: 12px; font-weight: 200;" fill="rgb(33, 33, 33)" stroke="none" stroke-width="1px">-20</text><text x="22.337239583333332" y="0" dx="0em" dy="0.95em" style="text-anchor: middle; visibility: inherit; font-family: Roboto, sans-serif; font-size: 12px; font-weight: 200;" fill="rgb(33, 33, 33)" stroke="none" stroke-width="1px">0</text><text x="44.674479166666664" y="0" dx="0em" dy="0.95em" style="text-anchor: middle; visibility: hidden; font-family: Roboto, sans-serif; font-size: 12px; font-weight: 200;" fill="rgb(33, 33, 33)" stroke="none" stroke-width="1px">20</text><text x="67.01171875" y="0" dx="0em" dy="0.95em" style="text-anchor: middle; visibility: inherit; font-family: Roboto, sans-serif; font-size: 12px; font-weight: 200;" fill="rgb(33, 33, 33)" stroke="none" stroke-width="1px">40</text><text x="89.34895833333333" y="0" dx="0em" dy="0.95em" style="text-anchor: middle; visibility: hidden; font-family: Roboto, sans-serif; font-size: 12px; font-weight: 200;" fill="rgb(33, 33, 33)" stroke="none" stroke-width="1px">60</text><text x="111.68619791666667" y="0" dx="0em" dy="0.95em" style="text-anchor: middle; visibility: inherit; font-family: Roboto, sans-serif; font-size: 12px; font-weight: 200;" fill="rgb(33, 33, 33)" stroke="none" stroke-width="1px">80</text><text x="134.0234375" y="0" dx="0em" dy="0.95em" style="text-anchor: middle; visibility: hidden; font-family: Roboto, sans-serif; font-size: 12px; font-weight: 200;" fill="rgb(33, 33, 33)" stroke="none" stroke-width="1px">100</text><text x="156.36067708333334" y="0" dx="0em" dy="0.95em" style="text-anchor: middle; visibility: inherit; font-family: Roboto, sans-serif; font-size: 12px; font-weight: 200;" fill="rgb(33, 33, 33)" stroke="none" stroke-width="1px">120</text><text x="178.69791666666666" y="0" dx="0em" dy="0.95em" style="text-anchor: middle; visibility: hidden; font-family: Roboto, sans-serif; font-size: 12px; font-weight: 200;" fill="rgb(33, 33, 33)" stroke="none" stroke-width="1px">140</text><text x="201.03515625" y="0" dx="0em" dy="0.95em" style="text-anchor: middle; visibility: inherit; font-family: Roboto, sans-serif; font-size: 12px; font-weight: 200;" fill="rgb(33, 33, 33)" stroke="none" stroke-width="1px">160</text><text x="223.37239583333334" y="0" dx="0em" dy="0.95em" style="text-anchor: middle; visibility: hidden; font-family: Roboto, sans-serif; font-size: 12px; font-weight: 200;" fill="rgb(33, 33, 33)" stroke="none" stroke-width="1px">180</text><text x="245.70963541666666" y="0" dx="0em" dy="0.95em" style="text-anchor: middle; visibility: inherit; font-family: Roboto, sans-serif; font-size: 12px; font-weight: 200;" fill="rgb(33, 33, 33)" stroke="none" stroke-width="1px">200</text><text x="268.046875" y="0" dx="0em" dy="0.95em" style="text-anchor: middle; visibility: hidden; font-family: Roboto, sans-serif; font-size: 12px; font-weight: 200;" fill="rgb(33, 33, 33)" stroke="none" stroke-width="1px">220</text></g><line x1="0" y1="0" x2="268.046875" y2="0" fill="rgb(0, 0, 0)" stroke="rgb(204, 204, 204)" stroke-width="1px"></line></g></g></g></g></svg>