<svg viewBox="0 0 330.0000305175781 200.00001525878906" xmlns="http://www.w3.org/2000/svg"><g><g><g><g><g><line x1="72.34375" y1="177" x2="67.34375" y2="177" style="visibility: inherit;" fill="rgb(0, 0, 0)" stroke="rgb(204, 204, 204)" stroke-width="1px"></line><line x1="72.34375" y1="160.90909090909093" x2="67.34375" y2="160.90909090909093" style="visibility: inherit;" fill="rgb(0, 0, 0)" stroke="rgb(204, 204, 204)" stroke-width="1px"></line><line x1="72.34375" y1="144.81818181818184" x2="67.34375" y2="144.81818181818184" style="visibility: inherit;" fill="rgb(0, 0, 0)" stroke="rgb(204, 204, 204)" stroke-width="1px"></line><line x1="72.34375" y1="128.72727272727272" x2="67.34375" y2="128.72727272727272" style="visibility: inherit;" fill="rgb(0, 0, 0)" stroke="rgb(204, 204, 204)" stroke-width="1px"></line><line x1="72.34375" y1="112.63636363636365" x2="67.34375" y2="112.63636363636365" style="visibility: inherit;" fill="rgb(0, 0, 0)" stroke="rgb(204, 204, 204)" stroke-width="1px"></line><line x1="72.34375" y1="96.54545454545456" x2="67.34375" y2="96.54545454545456" style="visibility: inherit;" fill="rgb(0, 0, 0)" stroke="rgb(204, 204, 204)" stroke-width="1px"></line><line x1="72.34375" y1="80.45454545454547" x2="67.34375" y2="80.45454545454547" style="visibility: inherit;" fill="rgb(0, 0, 0)" stroke="rgb(204, 204, 204)" stroke-width="1px"></line><line x1="72.34375" y1="64.36363636363639" x2="67.34375" y2="64.36363636363639" style="visibility: inherit;" fill="rgb(0, 0, 0)" stroke="rgb(204, 204, 204)" stroke-width="1px"></line><line x1="72.34375" y1="48.27272727272731" x2="67.34375" y2="48.27272727272731" style="visibility: inherit;" fill="rgb(0, 0, 0)" stroke="rgb(204, 204, 204)" stroke-width="1px"></line><line x1="72.34375" y1="32.181818181818215" x2="67.34375" y2="32.181818181818215" style="visibility: inherit;" fill="rgb(0, 0, 0)" stroke="rgb(204, 204, 204)" stroke-width="1px"></line><line x1="72.34375" y1="16.090909090909136" x2="67.34375" y2="16.090909090909136" style="visibility: inherit;" fill="rgb(0, 0, 0)" stroke="rgb(204, 204, 204)" stroke-width="1px"></line><line x1="72.34375" y1="0" x2="67.34375" y2="0" style="visibility: inherit;" fill="rgb(0, 0, 0)" stroke="rgb(204, 204, 204)" stroke-width="1px"></line></g><g transform="translate(62.34375, 0)"><text x="0" y="177" dx="0em" dy="0.3em" style="text-anchor: end; visibility: hidden; font-family: Roboto, sans-serif; font-size: 12px; font-weight: 200;" fill="rgb(33, 33, 33)" stroke="none" stroke-width="1px">1e-4</text><text x="0" y="160.90909090909093" dx="0em" dy="0.3em" style="text-anchor: end; visibility: inherit; font-family: Roboto, sans-serif; font-size: 12px; font-weight: 200;" fill="rgb(33, 33, 33)" stroke="none" stroke-width="1px">1.2e-4</text><text x="0" y="144.81818181818184" dx="0em" dy="0.3em" style="text-anchor: end; visibility: hidden; font-family: Roboto, sans-serif; font-size: 12px; font-weight: 200;" fill="rgb(33, 33, 33)" stroke="none" stroke-width="1px">1.4e-4</text><text x="0" y="128.72727272727272" dx="0em" dy="0.3em" style="text-anchor: end; visibility: inherit; font-family: Roboto, sans-serif; font-size: 12px; font-weight: 200;" fill="rgb(33, 33, 33)" stroke="none" stroke-width="1px">1.6e-4</text><text x="0" y="112.63636363636365" dx="0em" dy="0.3em" style="text-anchor: end; visibility: hidden; font-family: Roboto, sans-serif; font-size: 12px; font-weight: 200;" fill="rgb(33, 33, 33)" stroke="none" stroke-width="1px">1.8e-4</text><text x="0" y="96.54545454545456" dx="0em" dy="0.3em" style="text-anchor: end; visibility: inherit; font-family: Roboto, sans-serif; font-size: 12px; font-weight: 200;" fill="rgb(33, 33, 33)" stroke="none" stroke-width="1px">2e-4</text><text x="0" y="80.45454545454547" dx="0em" dy="0.3em" style="text-anchor: end; visibility: hidden; font-family: Roboto, sans-serif; font-size: 12px; font-weight: 200;" fill="rgb(33, 33, 33)" stroke="none" stroke-width="1px">2.2e-4</text><text x="0" y="64.36363636363639" dx="0em" dy="0.3em" style="text-anchor: end; visibility: inherit; font-family: Roboto, sans-serif; font-size: 12px; font-weight: 200;" fill="rgb(33, 33, 33)" stroke="none" stroke-width="1px">2.4e-4</text><text x="0" y="48.27272727272731" dx="0em" dy="0.3em" style="text-anchor: end; visibility: hidden; font-family: Roboto, sans-serif; font-size: 12px; font-weight: 200;" fill="rgb(33, 33, 33)" stroke="none" stroke-width="1px">2.6e-4</text><text x="0" y="32.181818181818215" dx="0em" dy="0.3em" style="text-anchor: end; visibility: inherit; font-family: Roboto, sans-serif; font-size: 12px; font-weight: 200;" fill="rgb(33, 33, 33)" stroke="none" stroke-width="1px">2.8e-4</text><text x="0" y="16.090909090909136" dx="0em" dy="0.3em" style="text-anchor: end; visibility: hidden; font-family: Roboto, sans-serif; font-size: 12px; font-weight: 200;" fill="rgb(33, 33, 33)" stroke="none" stroke-width="1px">3e-4</text><text x="0" y="0" dx="0em" dy="0.3em" style="text-anchor: end; visibility: hidden; font-family: Roboto, sans-serif; font-size: 12px; font-weight: 200;" fill="rgb(33, 33, 33)" stroke="none" stroke-width="1px">3.2e-4</text></g><line x1="72.34375" y1="0" x2="72.34375" y2="177" fill="rgb(0, 0, 0)" stroke="rgb(204, 204, 204)" stroke-width="1px"></line></g></g><g transform="translate(72, 0)" clip-path="url(#clip_0)"><clipPath id="clip_0"><rect width="257" height="177"></rect></clipPath><g><g><g><line x1="0" y1="0" x2="0" y2="177" fill="rgb(0, 0, 0)" stroke="rgb(66, 66, 66)" stroke-width="1px" opacity="0.25"></line><line x1="21.471354166666664" y1="0" x2="21.471354166666664" y2="177" fill="rgb(0, 0, 0)" stroke="rgb(66, 66, 66)" stroke-width="1px" opacity="0.25"></line><line x1="42.94270833333333" y1="0" x2="42.94270833333333" y2="177" fill="rgb(0, 0, 0)" stroke="rgb(66, 66, 66)" stroke-width="1px" opacity="0.25"></line><line x1="64.4140625" y1="0" x2="64.4140625" y2="177" fill="rgb(0, 0, 0)" stroke="rgb(66, 66, 66)" stroke-width="1px" opacity="0.25"></line><line x1="85.88541666666666" y1="0" x2="85.88541666666666" y2="177" fill="rgb(0, 0, 0)" stroke="rgb(66, 66, 66)" stroke-width="1px" opacity="0.25"></line><line x1="107.35677083333334" y1="0" x2="107.35677083333334" y2="177" fill="rgb(0, 0, 0)" stroke="rgb(66, 66, 66)" stroke-width="1px" opacity="0.25"></line><line x1="128.828125" y1="0" x2="128.828125" y2="177" fill="rgb(0, 0, 0)" stroke="rgb(66, 66, 66)" stroke-width="1px" opacity="0.25"></line><line x1="150.29947916666669" y1="0" x2="150.29947916666669" y2="177" fill="rgb(0, 0, 0)" stroke="rgb(66, 66, 66)" stroke-width="1px" opacity="0.25"></line><line x1="171.77083333333331" y1="0" x2="171.77083333333331" y2="177" fill="rgb(0, 0, 0)" stroke="rgb(66, 66, 66)" stroke-width="1px" opacity="0.25"></line><line x1="193.2421875" y1="0" x2="193.2421875" y2="177" fill="rgb(0, 0, 0)" stroke="rgb(66, 66, 66)" stroke-width="1px" opacity="0.25"></line><line x1="214.71354166666669" y1="0" x2="214.71354166666669" y2="177" fill="rgb(0, 0, 0)" stroke="rgb(66, 66, 66)" stroke-width="1px" opacity="0.25"></line><line x1="236.18489583333331" y1="0" x2="236.18489583333331" y2="177" fill="rgb(0, 0, 0)" stroke="rgb(66, 66, 66)" stroke-width="1px" opacity="0.25"></line><line x1="257.65625" y1="0" x2="257.65625" y2="177" fill="rgb(0, 0, 0)" stroke="rgb(66, 66, 66)" stroke-width="1px" opacity="0.25"></line></g><g><line x1="0" y1="177" x2="257.65625" y2="177" fill="rgb(0, 0, 0)" stroke="rgb(66, 66, 66)" stroke-width="1px" opacity="0.25"></line><line x1="0" y1="160.90909090909093" x2="257.65625" y2="160.90909090909093" fill="rgb(0, 0, 0)" stroke="rgb(66, 66, 66)" stroke-width="1px" opacity="0.25"></line><line x1="0" y1="144.81818181818184" x2="257.65625" y2="144.81818181818184" fill="rgb(0, 0, 0)" stroke="rgb(66, 66, 66)" stroke-width="1px" opacity="0.25"></line><line x1="0" y1="128.72727272727272" x2="257.65625" y2="128.72727272727272" fill="rgb(0, 0, 0)" stroke="rgb(66, 66, 66)" stroke-width="1px" opacity="0.25"></line><line x1="0" y1="112.63636363636365" x2="257.65625" y2="112.63636363636365" fill="rgb(0, 0, 0)" stroke="rgb(66, 66, 66)" stroke-width="1px" opacity="0.25"></line><line x1="0" y1="96.54545454545456" x2="257.65625" y2="96.54545454545456" fill="rgb(0, 0, 0)" stroke="rgb(66, 66, 66)" stroke-width="1px" opacity="0.25"></line><line x1="0" y1="80.45454545454547" x2="257.65625" y2="80.45454545454547" fill="rgb(0, 0, 0)" stroke="rgb(66, 66, 66)" stroke-width="1px" opacity="0.25"></line><line x1="0" y1="64.36363636363639" x2="257.65625" y2="64.36363636363639" fill="rgb(0, 0, 0)" stroke="rgb(66, 66, 66)" stroke-width="1px" opacity="0.25"></line><line x1="0" y1="48.27272727272731" x2="257.65625" y2="48.27272727272731" fill="rgb(0, 0, 0)" stroke="rgb(66, 66, 66)" stroke-width="1px" opacity="0.25"></line><line x1="0" y1="32.181818181818215" x2="257.65625" y2="32.181818181818215" fill="rgb(0, 0, 0)" stroke="rgb(66, 66, 66)" stroke-width="1px" opacity="0.25"></line><line x1="0" y1="16.090909090909136" x2="257.65625" y2="16.090909090909136" fill="rgb(0, 0, 0)" stroke="rgb(66, 66, 66)" stroke-width="1px" opacity="0.25"></line><line x1="0" y1="0" x2="257.65625" y2="0" fill="rgb(0, 0, 0)" stroke="rgb(66, 66, 66)" stroke-width="1px" opacity="0.25"></line></g></g></g><g><g><line x1="0" y1="257.45454545454544" x2="257.65625" y2="257.45454545454544" fill="rgb(0, 0, 0)" stroke="rgb(153, 153, 153)" stroke-width="1.5px"></line></g></g><g><g><line x1="21.471354166666664" y1="0" x2="21.471354166666664" y2="177" fill="rgb(0, 0, 0)" stroke="rgb(153, 153, 153)" stroke-width="1.5px"></line></g></g><g><g><g><g><g><path stroke="rgb(255, 112, 67)" stroke-width="2px" d="M22.544921875,151.14861356130464L23.618489583333332,175.6218920748599L24.692057291666668,190.00554674846515L31.133463541666668,189.72856005646892L32.20703125,155.18608821028667L33.280598958333336,140.110632230477L34.354166666666664,143.02634423426636L35.427734375,145.1928829613279L36.501302083333336,146.81818943425267L37.57486979166667,145.76081221652285L38.6484375,145.55932185302808L39.722005208333336,146.68250759278743L40.795572916666664,116.94501319512075L41.869140625,95.4330822703135L42.94270833333333,88.68569909554066L44.016276041666664,88.15441086512214L45.08984375,92.55784930181208L46.163411458333336,90.81560118244255L47.236979166666664,88.87455399969507L48.310546875,83.48003878714971L49.384114583333336,78.23193367684306L50.457682291666664,81.29032458161306L51.53125,78.08497418150235L52.604817708333336,77.81276840637925L53.67838541666667,80.68156549351066L54.751953125,77.78785431172885L55.825520833333336,68.93658614873911L56.899088541666664,63.09164651091361L57.97265625,66.29334607188605L59.04622395833333,64.22631869896246L60.119791666666664,65.79593081817808L61.193359375,57.41452807870293L62.266927083333336,56.27403088541624L63.340494791666664,46.928908059692525L64.4140625,42.829071382867575L65.48763020833333,42.62045269006882L66.56119791666667,33.81601504394632L67.634765625,34.748377613028055L68.70833333333333,39.615030883746385L69.78190104166666,44.260556516054926L70.85546875,49.16384255263935L71.92903645833333,37.280560426435926L73.00260416666667,22.12557782770695L74.076171875,27.49881906874958L75.14973958333334,51.45664811639565L76.22330729166667,42.338195867115274L77.296875,51.97064633794644L78.37044270833333,42.43811384971302L79.44401041666667,33.10402227887496L80.517578125,31.404705888845367L81.59114583333333,41.494034593657545L82.66471354166667,34.031361948892254L83.73828125,34.92173774817894L84.81184895833333,40.045138556956296L85.88541666666666,45.470858024176295L86.958984375,49.598923770014885L88.03255208333333,38.02236384983648L89.10611979166667,44.267533420453006L90.1796875,37.939401497781915L91.25325520833334,32.218829211846554L92.32682291666667,35.277868372530335L93.400390625,46.95183376451515L94.47395833333333,46.87525993947996L95.54752604166667,46.102961981608345L96.62109375,27.88853408351957L97.69466145833333,28.1755230693199L98.76822916666667,48.073466724749736L99.841796875,62.63412509093555L100.91536458333333,49.498930563115856L101.98893229166666,64.81232409271242L103.0625,83.62923165567577L104.13606770833333,71.15325967915977L105.20963541666667,54.32638306591899L106.283203125,58.369820287158966L107.35677083333334,43.521190785492124L108.43033854166667,22.68851182704606L109.50390625,27.65512920315961L110.57747395833333,36.077108999771106L111.65104166666667,62.37702427498004L112.724609375,50.719984969537485L113.79817708333333,48.6314467453761L114.87174479166667,40.54356915404828L115.9453125,59.52334632663482L117.01888020833333,41.05414424408856L118.09244791666666,36.35706291971599L119.166015625,41.024178456024906L120.23958333333333,47.3055429689016L121.31315104166667,24.525892248061922L122.38671875,50.79785931557129L123.46028645833334,59.81518363415513L124.53385416666667,17.28372166809842L125.607421875,10.266805298484263L126.68098958333333,19.68106681760338L127.75455729166667,-0.9534186069772546L129.90169270833334,-36.39946132309745L130.97526041666666,17.002207581073357L132.048828125,34.06225711793442L133.12239583333334,60.71199140628528L134.19596354166669,66.87834615666729L135.26953125,81.80716084975903L136.34309895833334,52.657884952776385L137.41666666666666,42.63079289495635L138.490234375,21.134609333217345L139.56380208333331,0.09700077772504767L140.63736979166666,28.824396918648493L141.7109375,6.606261980792321L142.78450520833334,45.86966246007632L143.85807291666666,69.95952632835036L144.931640625,85.2873056793976L146.00520833333334,81.11508902976773L147.07877604166666,82.87309599078672L148.15234375,54.7629756112203L149.22591145833334,57.77736357770781L150.29947916666669,96.58055183583858L151.373046875,69.44133898486494L152.44661458333334,56.385177683968614L153.52018229166666,66.83613317444251L154.59375,93.14480351254483L155.66731770833331,100.49461957233179L156.74088541666666,99.03599852111522L157.814453125,94.39941144131593L158.88802083333334,107.00179667725696L159.96158854166666,141.56271443969817L161.03515625,141.25117015217683L162.10872395833334,142.22664734022655L163.18229166666666,140.13288928285556L164.255859375,141.6375997779009L165.32942708333334,145.50155522083654L166.40299479166669,147.07290843186232L167.4765625,134.7631635793946L168.55013020833334,149.88878463257757L169.62369791666666,144.70446628209186L170.697265625,167.87450816787413L171.77083333333331,106.54080057676052L172.84440104166666,116.79671869676673L173.91796875,71.78754202121495L174.99153645833334,100.71686432509915L176.06510416666666,48.78064514984046L177.138671875,65.7472454020898L178.21223958333334,100.08052305287957L179.28580729166666,58.93034564941116L180.359375,67.88052642061162L181.43294270833334,91.88932263137055L182.50651041666669,96.35634651663233L183.580078125,116.25153884514457L184.65364583333334,119.171223266134L185.72721354166666,50.234804218939225L186.80078125,59.5618846890056L187.87434895833331,73.02643200953352L188.94791666666666,76.9008866699792L190.021484375,117.57313373992127L191.09505208333334,92.764904411355L192.16861979166666,70.08147363057395L193.2421875,39.213577699866356L194.31575520833334,81.77482699461736L195.38932291666666,119.94495644833555L196.462890625,101.40055475508288L197.53645833333334,83.40179754265401L198.61002604166669,120.44084068403959L199.68359375,127.67637211061921L200.75716145833334,127.53939202400852L201.83072916666666,162.92416045473428L202.904296875,121.64711449984557L203.97786458333331,94.88718188461313L205.05143229166666,127.30161727914742L206.125,140.57382079402214L207.19856770833334,162.09748280930572L208.27213541666666,159.65708237641059L209.345703125,161.37704700340444L210.41927083333334,148.66994242310162L211.49283854166666,173.7917145966489L212.56640625,172.86331118749243L213.63997395833334,168.07684966092583L214.71354166666669,141.40668587513906L215.787109375,112.45218757089748L216.86067708333334,81.7472165763965L217.93424479166666,105.26188318739356L219.0078125,122.59286072112157L220.08138020833331,121.98312106548178L221.15494791666666,132.05739240637195L222.228515625,161.15754450045867L223.30208333333334,145.47410294789245L224.37565104166666,123.11855487930363L225.44921875,138.0388095064888L226.52278645833334,144.87642698665456L227.59635416666666,133.5269474687793L228.669921875,94.57870225666285L229.74348958333334,126.58340168642776L230.81705729166669,136.057694150313L231.890625,139.45479554873992L232.96419270833334,145.63039498728253L234.03776041666666,166.60187412353505L235.111328125,158.64962917295128L236.18489583333331,141.555727107559" style="fill: none;" fill="none"></path></g></g></g></g><g opacity="0.2"><g><g><g><path stroke="rgb(255, 112, 67)" stroke-width="2px" d="M22.544921875,151.14861356130464L23.618489583333332,190.30585918299306L30.059895833333332,216.5924044560789L31.133463541666668,155.1226441123396L32.20703125,103.89454323654488L33.280598958333336,117.63418153694577L34.354166666666664,147.38404506398365L35.427734375,148.43561692707326L36.501302083333336,149.25296499906108L37.57486979166667,144.17598929715513L38.6484375,145.25722841440108L39.722005208333336,148.36681090786377L40.795572916666664,72.34632194522685L41.869140625,63.168463009261444L42.94270833333333,78.56524107092991L44.016276041666664,87.35750765660356L45.08984375,99.16286205982959L46.163411458333336,88.20226340103811L47.236979166666664,85.96300621912816L48.310546875,75.38830431023698L49.384114583333336,70.35979839215393L50.457682291666664,85.877903113184L51.53125,73.27695350230418L52.604817708333336,77.40445999443448L53.67838541666667,84.98475953866729L54.751953125,73.44728849864228L55.825520833333336,55.65968566536057L56.899088541666664,54.32423775194383L57.97265625,71.0958951840135L59.04622395833333,61.12577772841113L60.119791666666664,68.15034895652737L61.193359375,44.84242409916426L62.266927083333336,54.563285106073394L63.340494791666664,32.91122387315741L64.4140625,36.67931638133122L65.48763020833333,42.30752465128901L66.56119791666667,20.609358585354972L67.634765625,36.14692146597771L68.70833333333333,46.91501078771598L69.78190104166666,51.228844963310465L70.85546875,56.51877160675148L71.92903645833333,19.455637238242424L73.00260416666667,-0.6068960695357877L74.076171875,35.55868093013256L75.14973958333334,87.39339168738069L76.22330729166667,28.660517493305232L77.296875,66.41932204412298L78.37044270833333,28.139315117404557L79.44401041666667,19.102884922642282L80.517578125,28.855731303803644L81.59114583333333,56.62802765086634L82.66471354166667,22.837352981748595L83.73828125,36.257301447108745L84.81184895833333,47.730239770121216L85.88541666666666,53.60943722500551L86.958984375,55.79102238877255L88.03255208333333,20.657523969569343L89.10611979166667,53.635287776377744L90.1796875,28.447203613775365L91.25325520833334,23.637970782943427L92.32682291666667,39.866427113556064L93.400390625,64.46278185249223L94.47395833333333,46.760399201927214L95.54752604166667,44.94451504480096L96.62109375,0.5668922363865248L97.69466145833333,28.606006548020336L98.76822916666667,77.92038220789453L99.841796875,84.47511264021425L100.91536458333333,29.79613877138632L101.98893229166666,87.78241438710725L103.0625,111.85459300012074L104.13606770833333,52.43930171438578L105.20963541666667,29.086068146057784L106.283203125,64.43497611901893L107.35677083333334,21.248246532991885L108.43033854166667,-8.560506610623106L109.50390625,35.105055267329945L110.57747395833333,48.710078694688335L111.65104166666667,101.82689718779346L112.724609375,33.23442601137373L113.79817708333333,45.49863940913401L114.87174479166667,28.411752767056583L115.9453125,87.99301208551468L117.01888020833333,13.350341120269169L118.09244791666666,29.311440933157115L119.166015625,48.02485176048836L120.23958333333333,56.72758973821661L121.31315104166667,-9.643583833197608L122.38671875,90.20580991683529L123.46028645833334,73.34117011203094L124.53385416666667,-46.5134712809866L125.607421875,-0.25856925593685154L126.68098958333333,33.802459096282064L127.75455729166667,-31.905146743848206L129.90169270833334,-18.602298466361702L130.97526041666666,97.10471093732951L132.048828125,59.65233142322607L133.12239583333334,100.68659283881163L134.19596354166669,76.12787828224036L135.26953125,104.20038288939661L136.34309895833334,8.933971107302431L137.41666666666666,27.59015480822632L138.490234375,-11.109666009391203L139.56380208333331,-31.459412055513365L140.63736979166666,71.91549113003369L141.7109375,-26.720940425991973L142.78450520833334,104.76476317900234L143.85807291666666,106.09432213076137L144.931640625,108.27897470596841L146.00520833333334,74.85676405532286L147.07877604166666,85.51010643231514L148.15234375,12.597795041870683L149.22591145833334,62.2989455274391L150.29947916666669,154.7853342230347L151.373046875,28.732519708404496L152.44661458333334,36.800935732624076L153.52018229166666,82.51256641015327L154.59375,132.60780901969835L155.66731770833331,111.5193436620122L156.74088541666666,96.84806694429031L157.814453125,87.44453082161704L158.88802083333334,125.90537453116849L159.96158854166666,193.40409108336002L161.03515625,140.78385372089477L162.10872395833334,143.68986312230118L163.18229166666666,136.99225219679914L164.255859375,143.8946655204689L165.32942708333334,151.29748838523997L166.40299479166669,149.42993824840102L167.4765625,116.298546300693L168.55013020833334,172.57721621235197L169.62369791666666,136.9279887563634L170.697265625,202.62957099654753L171.77083333333331,14.54023919009013L172.84440104166666,132.18059587677604L173.91796875,4.273777007887338L174.99153645833334,144.11084778092547L176.06510416666666,-29.12368361304764L177.138671875,91.1971457804638L178.21223958333334,151.58043952906422L179.28580729166666,-2.7949204557913734L180.359375,81.3057975774123L181.43294270833334,127.90251694750889L182.50651041666669,103.056882344525L183.580078125,146.0943273379129L184.65364583333334,123.5507498976182L185.72721354166666,-53.16982435185292L186.80078125,73.55250539410522L187.87434895833331,93.22325299032542L188.94791666666666,82.7125686606477L190.021484375,178.58150434483437L191.09505208333334,55.55256041850558L192.16861979166666,36.056327459402404L193.2421875,-7.088266196194997L194.31575520833334,145.61670093674383L195.38932291666666,177.20015062891287L196.462890625,73.58395221520385L197.53645833333334,56.40366172401066L198.61002604166669,175.999405396118L199.68359375,138.52966925048864L200.75716145833334,127.33392189409247L201.83072916666666,216.00131310082295L202.904296875,59.73154556751253L203.97786458333331,54.74728296176447L205.05143229166666,175.9232703709488L206.125,160.48212606633422L207.19856770833334,194.3829758322311L208.27213541666666,155.9964817270679L209.345703125,163.9569939438952L210.41927083333334,129.60928555264732L211.49283854166666,211.4743728569698L212.56640625,171.47070607375778L213.63997395833334,160.89715737107593L214.71354166666669,101.40144019645895L215.787109375,69.02044011453505L216.86067708333334,35.68976008464499L217.93424479166666,140.53388310388917L219.0078125,148.58932702171361L220.08138020833331,121.06851158202204L221.15494791666666,147.16879941770725L222.228515625,204.80777264158877L223.30208333333334,121.94894061904317L224.37565104166666,89.58523277642038L225.44921875,160.41919144726654L226.52278645833334,155.13285320690326L227.59635416666666,116.50272819196637L228.669921875,36.156334438488244L229.74348958333334,174.59045083107512L230.81705729166669,150.2691328461409L231.890625,144.55044764638032L232.96419270833334,154.89379414509645L234.03776041666666,198.05909282791387L235.111328125,146.7212617470756L236.18489583333331,115.91487400947055" style="fill: none;" fill="none"></path></g></g></g></g></g></g><g transform="translate(72, 177)" clip-path="url(#clip_1)"><clipPath id="clip_1"><rect width="257" height="23"></rect></clipPath><g><g><line x1="0" y1="0" x2="0" y2="5" style="visibility: inherit;" fill="rgb(0, 0, 0)" stroke="rgb(204, 204, 204)" stroke-width="1px"></line><line x1="21.471354166666664" y1="0" x2="21.471354166666664" y2="5" style="visibility: inherit;" fill="rgb(0, 0, 0)" stroke="rgb(204, 204, 204)" stroke-width="1px"></line><line x1="42.94270833333333" y1="0" x2="42.94270833333333" y2="5" style="visibility: inherit;" fill="rgb(0, 0, 0)" stroke="rgb(204, 204, 204)" stroke-width="1px"></line><line x1="64.4140625" y1="0" x2="64.4140625" y2="5" style="visibility: inherit;" fill="rgb(0, 0, 0)" stroke="rgb(204, 204, 204)" stroke-width="1px"></line><line x1="85.88541666666666" y1="0" x2="85.88541666666666" y2="5" style="visibility: inherit;" fill="rgb(0, 0, 0)" stroke="rgb(204, 204, 204)" stroke-width="1px"></line><line x1="107.35677083333334" y1="0" x2="107.35677083333334" y2="5" style="visibility: inherit;" fill="rgb(0, 0, 0)" stroke="rgb(204, 204, 204)" stroke-width="1px"></line><line x1="128.828125" y1="0" x2="128.828125" y2="5" style="visibility: inherit;" fill="rgb(0, 0, 0)" stroke="rgb(204, 204, 204)" stroke-width="1px"></line><line x1="150.29947916666669" y1="0" x2="150.29947916666669" y2="5" style="visibility: inherit;" fill="rgb(0, 0, 0)" stroke="rgb(204, 204, 204)" stroke-width="1px"></line><line x1="171.77083333333331" y1="0" x2="171.77083333333331" y2="5" style="visibility: inherit;" fill="rgb(0, 0, 0)" stroke="rgb(204, 204, 204)" stroke-width="1px"></line><line x1="193.2421875" y1="0" x2="193.2421875" y2="5" style="visibility: inherit;" fill="rgb(0, 0, 0)" stroke="rgb(204, 204, 204)" stroke-width="1px"></line><line x1="214.71354166666669" y1="0" x2="214.71354166666669" y2="5" style="visibility: inherit;" fill="rgb(0, 0, 0)" stroke="rgb(204, 204, 204)" stroke-width="1px"></line><line x1="236.18489583333331" y1="0" x2="236.18489583333331" y2="5" style="visibility: inherit;" fill="rgb(0, 0, 0)" stroke="rgb(204, 204, 204)" stroke-width="1px"></line><line x1="257.65625" y1="0" x2="257.65625" y2="5" style="visibility: inherit;" fill="rgb(0, 0, 0)" stroke="rgb(204, 204, 204)" stroke-width="1px"></line></g><g transform="translate(0, 8)"><text x="0" y="0" dx="0em" dy="0.95em" style="text-anchor: middle; visibility: hidden; font-family: Roboto, sans-serif; font-size: 12px; font-weight: 200;" fill="rgb(33, 33, 33)" stroke="none" stroke-width="1px">-20</text><text x="21.471354166666664" y="0" dx="0em" dy="0.95em" style="text-anchor: middle; visibility: inherit; font-family: Roboto, sans-serif; font-size: 12px; font-weight: 200;" fill="rgb(33, 33, 33)" stroke="none" stroke-width="1px">0</text><text x="42.94270833333333" y="0" dx="0em" dy="0.95em" style="text-anchor: middle; visibility: hidden; font-family: Roboto, sans-serif; font-size: 12px; font-weight: 200;" fill="rgb(33, 33, 33)" stroke="none" stroke-width="1px">20</text><text x="64.4140625" y="0" dx="0em" dy="0.95em" style="text-anchor: middle; visibility: inherit; font-family: Roboto, sans-serif; font-size: 12px; font-weight: 200;" fill="rgb(33, 33, 33)" stroke="none" stroke-width="1px">40</text><text x="85.88541666666666" y="0" dx="0em" dy="0.95em" style="text-anchor: middle; visibility: hidden; font-family: Roboto, sans-serif; font-size: 12px; font-weight: 200;" fill="rgb(33, 33, 33)" stroke="none" stroke-width="1px">60</text><text x="107.35677083333334" y="0" dx="0em" dy="0.95em" style="text-anchor: middle; visibility: inherit; font-family: Roboto, sans-serif; font-size: 12px; font-weight: 200;" fill="rgb(33, 33, 33)" stroke="none" stroke-width="1px">80</text><text x="128.828125" y="0" dx="0em" dy="0.95em" style="text-anchor: middle; visibility: hidden; font-family: Roboto, sans-serif; font-size: 12px; font-weight: 200;" fill="rgb(33, 33, 33)" stroke="none" stroke-width="1px">100</text><text x="150.29947916666669" y="0" dx="0em" dy="0.95em" style="text-anchor: middle; visibility: inherit; font-family: Roboto, sans-serif; font-size: 12px; font-weight: 200;" fill="rgb(33, 33, 33)" stroke="none" stroke-width="1px">120</text><text x="171.77083333333331" y="0" dx="0em" dy="0.95em" style="text-anchor: middle; visibility: hidden; font-family: Roboto, sans-serif; font-size: 12px; font-weight: 200;" fill="rgb(33, 33, 33)" stroke="none" stroke-width="1px">140</text><text x="193.2421875" y="0" dx="0em" dy="0.95em" style="text-anchor: middle; visibility: inherit; font-family: Roboto, sans-serif; font-size: 12px; font-weight: 200;" fill="rgb(33, 33, 33)" stroke="none" stroke-width="1px">160</text><text x="214.71354166666669" y="0" dx="0em" dy="0.95em" style="text-anchor: middle; visibility: hidden; font-family: Roboto, sans-serif; font-size: 12px; font-weight: 200;" fill="rgb(33, 33, 33)" stroke="none" stroke-width="1px">180</text><text x="236.18489583333331" y="0" dx="0em" dy="0.95em" style="text-anchor: middle; visibility: inherit; font-family: Roboto, sans-serif; font-size: 12px; font-weight: 200;" fill="rgb(33, 33, 33)" stroke="none" stroke-width="1px">200</text><text x="257.65625" y="0" dx="0em" dy="0.95em" style="text-anchor: middle; visibility: hidden; font-family: Roboto, sans-serif; font-size: 12px; font-weight: 200;" fill="rgb(33, 33, 33)" stroke="none" stroke-width="1px">220</text></g><line x1="0" y1="0" x2="257.65625" y2="0" fill="rgb(0, 0, 0)" stroke="rgb(204, 204, 204)" stroke-width="1px"></line></g></g></g></g></svg>