<svg viewBox="0 0 330.0000305175781 200.00001525878906" xmlns="http://www.w3.org/2000/svg"><g><g><g><g><g><line x1="72.34375" y1="177" x2="67.34375" y2="177" style="visibility: inherit;" fill="rgb(0, 0, 0)" stroke="rgb(204, 204, 204)" stroke-width="1px"></line><line x1="72.34375" y1="163.3846153846154" x2="67.34375" y2="163.3846153846154" style="visibility: inherit;" fill="rgb(0, 0, 0)" stroke="rgb(204, 204, 204)" stroke-width="1px"></line><line x1="72.34375" y1="149.76923076923077" x2="67.34375" y2="149.76923076923077" style="visibility: inherit;" fill="rgb(0, 0, 0)" stroke="rgb(204, 204, 204)" stroke-width="1px"></line><line x1="72.34375" y1="136.15384615384616" x2="67.34375" y2="136.15384615384616" style="visibility: inherit;" fill="rgb(0, 0, 0)" stroke="rgb(204, 204, 204)" stroke-width="1px"></line><line x1="72.34375" y1="122.53846153846156" x2="67.34375" y2="122.53846153846156" style="visibility: inherit;" fill="rgb(0, 0, 0)" stroke="rgb(204, 204, 204)" stroke-width="1px"></line><line x1="72.34375" y1="108.92307692307693" x2="67.34375" y2="108.92307692307693" style="visibility: inherit;" fill="rgb(0, 0, 0)" stroke="rgb(204, 204, 204)" stroke-width="1px"></line><line x1="72.34375" y1="95.30769230769232" x2="67.34375" y2="95.30769230769232" style="visibility: inherit;" fill="rgb(0, 0, 0)" stroke="rgb(204, 204, 204)" stroke-width="1px"></line><line x1="72.34375" y1="81.6923076923077" x2="67.34375" y2="81.6923076923077" style="visibility: inherit;" fill="rgb(0, 0, 0)" stroke="rgb(204, 204, 204)" stroke-width="1px"></line><line x1="72.34375" y1="68.07692307692307" x2="67.34375" y2="68.07692307692307" style="visibility: inherit;" fill="rgb(0, 0, 0)" stroke="rgb(204, 204, 204)" stroke-width="1px"></line><line x1="72.34375" y1="54.46153846153848" x2="67.34375" y2="54.46153846153848" style="visibility: inherit;" fill="rgb(0, 0, 0)" stroke="rgb(204, 204, 204)" stroke-width="1px"></line><line x1="72.34375" y1="40.84615384615386" x2="67.34375" y2="40.84615384615386" style="visibility: inherit;" fill="rgb(0, 0, 0)" stroke="rgb(204, 204, 204)" stroke-width="1px"></line><line x1="72.34375" y1="27.23076923076925" x2="67.34375" y2="27.23076923076925" style="visibility: inherit;" fill="rgb(0, 0, 0)" stroke="rgb(204, 204, 204)" stroke-width="1px"></line><line x1="72.34375" y1="13.615384615384626" x2="67.34375" y2="13.615384615384626" style="visibility: inherit;" fill="rgb(0, 0, 0)" stroke="rgb(204, 204, 204)" stroke-width="1px"></line><line x1="72.34375" y1="0" x2="67.34375" y2="0" style="visibility: inherit;" fill="rgb(0, 0, 0)" stroke="rgb(204, 204, 204)" stroke-width="1px"></line></g><g transform="translate(62.34375, 0)"><text x="0" y="177" dx="0em" dy="0.3em" style="text-anchor: end; visibility: hidden; font-family: Roboto, sans-serif; font-size: 12px; font-weight: 200;" fill="rgb(33, 33, 33)" stroke="none" stroke-width="1px">2.4e-5</text><text x="0" y="163.3846153846154" dx="0em" dy="0.3em" style="text-anchor: end; visibility: inherit; font-family: Roboto, sans-serif; font-size: 12px; font-weight: 200;" fill="rgb(33, 33, 33)" stroke="none" stroke-width="1px">2.6e-5</text><text x="0" y="149.76923076923077" dx="0em" dy="0.3em" style="text-anchor: end; visibility: hidden; font-family: Roboto, sans-serif; font-size: 12px; font-weight: 200;" fill="rgb(33, 33, 33)" stroke="none" stroke-width="1px">2.8e-5</text><text x="0" y="136.15384615384616" dx="0em" dy="0.3em" style="text-anchor: end; visibility: inherit; font-family: Roboto, sans-serif; font-size: 12px; font-weight: 200;" fill="rgb(33, 33, 33)" stroke="none" stroke-width="1px">3e-5</text><text x="0" y="122.53846153846156" dx="0em" dy="0.3em" style="text-anchor: end; visibility: hidden; font-family: Roboto, sans-serif; font-size: 12px; font-weight: 200;" fill="rgb(33, 33, 33)" stroke="none" stroke-width="1px">3.2e-5</text><text x="0" y="108.92307692307693" dx="0em" dy="0.3em" style="text-anchor: end; visibility: inherit; font-family: Roboto, sans-serif; font-size: 12px; font-weight: 200;" fill="rgb(33, 33, 33)" stroke="none" stroke-width="1px">3.4e-5</text><text x="0" y="95.30769230769232" dx="0em" dy="0.3em" style="text-anchor: end; visibility: hidden; font-family: Roboto, sans-serif; font-size: 12px; font-weight: 200;" fill="rgb(33, 33, 33)" stroke="none" stroke-width="1px">3.6e-5</text><text x="0" y="81.6923076923077" dx="0em" dy="0.3em" style="text-anchor: end; visibility: inherit; font-family: Roboto, sans-serif; font-size: 12px; font-weight: 200;" fill="rgb(33, 33, 33)" stroke="none" stroke-width="1px">3.8e-5</text><text x="0" y="68.07692307692307" dx="0em" dy="0.3em" style="text-anchor: end; visibility: hidden; font-family: Roboto, sans-serif; font-size: 12px; font-weight: 200;" fill="rgb(33, 33, 33)" stroke="none" stroke-width="1px">4e-5</text><text x="0" y="54.46153846153848" dx="0em" dy="0.3em" style="text-anchor: end; visibility: inherit; font-family: Roboto, sans-serif; font-size: 12px; font-weight: 200;" fill="rgb(33, 33, 33)" stroke="none" stroke-width="1px">4.2e-5</text><text x="0" y="40.84615384615386" dx="0em" dy="0.3em" style="text-anchor: end; visibility: hidden; font-family: Roboto, sans-serif; font-size: 12px; font-weight: 200;" fill="rgb(33, 33, 33)" stroke="none" stroke-width="1px">4.4e-5</text><text x="0" y="27.23076923076925" dx="0em" dy="0.3em" style="text-anchor: end; visibility: inherit; font-family: Roboto, sans-serif; font-size: 12px; font-weight: 200;" fill="rgb(33, 33, 33)" stroke="none" stroke-width="1px">4.6e-5</text><text x="0" y="13.615384615384626" dx="0em" dy="0.3em" style="text-anchor: end; visibility: hidden; font-family: Roboto, sans-serif; font-size: 12px; font-weight: 200;" fill="rgb(33, 33, 33)" stroke="none" stroke-width="1px">4.8e-5</text><text x="0" y="0" dx="0em" dy="0.3em" style="text-anchor: end; visibility: hidden; font-family: Roboto, sans-serif; font-size: 12px; font-weight: 200;" fill="rgb(33, 33, 33)" stroke="none" stroke-width="1px">5e-5</text></g><line x1="72.34375" y1="0" x2="72.34375" y2="177" fill="rgb(0, 0, 0)" stroke="rgb(204, 204, 204)" stroke-width="1px"></line></g></g><g transform="translate(72, 0)" clip-path="url(#clip_0)"><clipPath id="clip_0"><rect width="257" height="177"></rect></clipPath><g><g><g><line x1="0" y1="0" x2="0" y2="177" fill="rgb(0, 0, 0)" stroke="rgb(66, 66, 66)" stroke-width="1px" opacity="0.25"></line><line x1="21.471354166666664" y1="0" x2="21.471354166666664" y2="177" fill="rgb(0, 0, 0)" stroke="rgb(66, 66, 66)" stroke-width="1px" opacity="0.25"></line><line x1="42.94270833333333" y1="0" x2="42.94270833333333" y2="177" fill="rgb(0, 0, 0)" stroke="rgb(66, 66, 66)" stroke-width="1px" opacity="0.25"></line><line x1="64.4140625" y1="0" x2="64.4140625" y2="177" fill="rgb(0, 0, 0)" stroke="rgb(66, 66, 66)" stroke-width="1px" opacity="0.25"></line><line x1="85.88541666666666" y1="0" x2="85.88541666666666" y2="177" fill="rgb(0, 0, 0)" stroke="rgb(66, 66, 66)" stroke-width="1px" opacity="0.25"></line><line x1="107.35677083333334" y1="0" x2="107.35677083333334" y2="177" fill="rgb(0, 0, 0)" stroke="rgb(66, 66, 66)" stroke-width="1px" opacity="0.25"></line><line x1="128.828125" y1="0" x2="128.828125" y2="177" fill="rgb(0, 0, 0)" stroke="rgb(66, 66, 66)" stroke-width="1px" opacity="0.25"></line><line x1="150.29947916666669" y1="0" x2="150.29947916666669" y2="177" fill="rgb(0, 0, 0)" stroke="rgb(66, 66, 66)" stroke-width="1px" opacity="0.25"></line><line x1="171.77083333333331" y1="0" x2="171.77083333333331" y2="177" fill="rgb(0, 0, 0)" stroke="rgb(66, 66, 66)" stroke-width="1px" opacity="0.25"></line><line x1="193.2421875" y1="0" x2="193.2421875" y2="177" fill="rgb(0, 0, 0)" stroke="rgb(66, 66, 66)" stroke-width="1px" opacity="0.25"></line><line x1="214.71354166666669" y1="0" x2="214.71354166666669" y2="177" fill="rgb(0, 0, 0)" stroke="rgb(66, 66, 66)" stroke-width="1px" opacity="0.25"></line><line x1="236.18489583333331" y1="0" x2="236.18489583333331" y2="177" fill="rgb(0, 0, 0)" stroke="rgb(66, 66, 66)" stroke-width="1px" opacity="0.25"></line><line x1="257.65625" y1="0" x2="257.65625" y2="177" fill="rgb(0, 0, 0)" stroke="rgb(66, 66, 66)" stroke-width="1px" opacity="0.25"></line></g><g><line x1="0" y1="177" x2="257.65625" y2="177" fill="rgb(0, 0, 0)" stroke="rgb(66, 66, 66)" stroke-width="1px" opacity="0.25"></line><line x1="0" y1="163.3846153846154" x2="257.65625" y2="163.3846153846154" fill="rgb(0, 0, 0)" stroke="rgb(66, 66, 66)" stroke-width="1px" opacity="0.25"></line><line x1="0" y1="149.76923076923077" x2="257.65625" y2="149.76923076923077" fill="rgb(0, 0, 0)" stroke="rgb(66, 66, 66)" stroke-width="1px" opacity="0.25"></line><line x1="0" y1="136.15384615384616" x2="257.65625" y2="136.15384615384616" fill="rgb(0, 0, 0)" stroke="rgb(66, 66, 66)" stroke-width="1px" opacity="0.25"></line><line x1="0" y1="122.53846153846156" x2="257.65625" y2="122.53846153846156" fill="rgb(0, 0, 0)" stroke="rgb(66, 66, 66)" stroke-width="1px" opacity="0.25"></line><line x1="0" y1="108.92307692307693" x2="257.65625" y2="108.92307692307693" fill="rgb(0, 0, 0)" stroke="rgb(66, 66, 66)" stroke-width="1px" opacity="0.25"></line><line x1="0" y1="95.30769230769232" x2="257.65625" y2="95.30769230769232" fill="rgb(0, 0, 0)" stroke="rgb(66, 66, 66)" stroke-width="1px" opacity="0.25"></line><line x1="0" y1="81.6923076923077" x2="257.65625" y2="81.6923076923077" fill="rgb(0, 0, 0)" stroke="rgb(66, 66, 66)" stroke-width="1px" opacity="0.25"></line><line x1="0" y1="68.07692307692307" x2="257.65625" y2="68.07692307692307" fill="rgb(0, 0, 0)" stroke="rgb(66, 66, 66)" stroke-width="1px" opacity="0.25"></line><line x1="0" y1="54.46153846153848" x2="257.65625" y2="54.46153846153848" fill="rgb(0, 0, 0)" stroke="rgb(66, 66, 66)" stroke-width="1px" opacity="0.25"></line><line x1="0" y1="40.84615384615386" x2="257.65625" y2="40.84615384615386" fill="rgb(0, 0, 0)" stroke="rgb(66, 66, 66)" stroke-width="1px" opacity="0.25"></line><line x1="0" y1="27.23076923076925" x2="257.65625" y2="27.23076923076925" fill="rgb(0, 0, 0)" stroke="rgb(66, 66, 66)" stroke-width="1px" opacity="0.25"></line><line x1="0" y1="13.615384615384626" x2="257.65625" y2="13.615384615384626" fill="rgb(0, 0, 0)" stroke="rgb(66, 66, 66)" stroke-width="1px" opacity="0.25"></line><line x1="0" y1="0" x2="257.65625" y2="0" fill="rgb(0, 0, 0)" stroke="rgb(66, 66, 66)" stroke-width="1px" opacity="0.25"></line></g></g></g><g><g><line x1="0" y1="340.38461538461536" x2="257.65625" y2="340.38461538461536" fill="rgb(0, 0, 0)" stroke="rgb(153, 153, 153)" stroke-width="1.5px"></line></g></g><g><g><line x1="21.471354166666664" y1="0" x2="21.471354166666664" y2="177" fill="rgb(0, 0, 0)" stroke="rgb(153, 153, 153)" stroke-width="1.5px"></line></g></g><g><g><g><g><g><path stroke="rgb(255, 112, 67)" stroke-width="2px" d="M28.986328125,-10.683157286503233L30.059895833333332,1.7781023666933682L31.133463541666668,5.547409072461133L32.20703125,5.3696178388870575L33.280598958333336,19.9811887345233L34.354166666666664,24.844869170338573L35.427734375,20.22776625479186L36.501302083333336,31.379349704374008L37.57486979166667,28.65411101378402L38.6484375,24.916174307441334L39.722005208333336,26.029262272397105L40.795572916666664,24.327070359956572L41.869140625,22.60711810757485L42.94270833333333,33.12989974424692L44.016276041666664,40.63484254853058L45.08984375,47.16261732547103L46.163411458333336,54.80532758148926L47.236979166666664,60.27098267392013L48.310546875,44.104565221723874L49.384114583333336,51.458687477359256L50.457682291666664,36.834007916157965L51.53125,40.76311007567906L52.604817708333336,51.34502520179941L53.67838541666667,65.76965202277876L54.751953125,69.46050805157286L55.825520833333336,70.32181368860924L56.899088541666664,76.89604325666912L57.97265625,71.64592558328152L59.04622395833333,74.28265564101052L60.119791666666664,79.91508351166895L61.193359375,77.87750957212778L62.266927083333336,80.22410737717723L63.340494791666664,87.99909992002314L64.4140625,77.08523865493882L65.48763020833333,76.18651740428187L66.56119791666667,86.01224353026L67.634765625,86.55152402880024L68.70833333333333,90.68657709091666L69.78190104166666,92.13227110992645L70.85546875,94.0204826026658L71.92903645833333,99.0798591484736L73.00260416666667,94.9010297319818L74.076171875,95.38305691728026L75.14973958333334,102.74861220307433L76.22330729166667,100.08817875225328L77.296875,85.74880634834423L78.37044270833333,90.11231083656443L79.44401041666667,99.87631591992972L80.517578125,103.4946422506234L81.59114583333333,98.78082136427534L82.66471354166667,96.85998369153924L83.73828125,94.08994839877323L84.81184895833333,95.43368693529739L85.88541666666666,102.42422868069076L86.958984375,111.30008642001923L88.03255208333333,117.20452679132158L89.10611979166667,119.59466925361343L90.1796875,113.18028363457609L91.25325520833334,116.56613854203458L92.32682291666667,119.19310124977028L93.400390625,117.221673449561L94.47395833333333,99.28135444573839L95.54752604166667,113.39214699211819L96.62109375,94.54061737210817L97.69466145833333,91.32008733216144L98.76822916666667,108.49072832984164L99.841796875,107.23975592127972L100.91536458333333,112.70777729574105L101.98893229166666,114.49960412515726L103.0625,112.34904601588771L104.13606770833333,87.72940807430086L105.20963541666667,106.45495601960481L106.283203125,111.33462359314396L107.35677083333334,113.00258530413413L108.43033854166667,106.90620980778405L109.50390625,100.529586271369L110.57747395833333,114.70224946762963L111.65104166666667,115.89294128309076L112.724609375,102.27737195539717L113.79817708333333,114.2104706353582L114.87174479166667,126.3888518144937L115.9453125,135.84246468400687L117.01888020833333,136.8605060351831L118.09244791666666,127.61061262830005L119.166015625,130.6096508821199L120.23958333333333,134.10523438336944L121.31315104166667,130.3883083510731L122.38671875,133.41000240635086L123.46028645833334,128.36066018149822L124.53385416666667,141.0553389687473L125.607421875,130.34978444224726L126.68098958333333,115.8561048359716L127.75455729166667,107.33815456368164L128.828125,119.20164543869807L129.90169270833334,130.97981518516937L130.97526041666666,133.86334240566634L132.048828125,134.8951349655771L133.12239583333334,129.58354789862102L134.19596354166669,129.78687601815855L135.26953125,131.01996568352885L136.34309895833334,138.77324230035174L137.41666666666666,129.39412265489767L138.490234375,140.40338272290995L139.56380208333331,125.24339591578908L140.63736979166666,139.9590888771514L141.7109375,143.00882200543046L142.78450520833334,142.65210005520825L143.85807291666666,143.8066988587764L144.931640625,147.38236739451511L146.00520833333334,143.00560884175346L147.07877604166666,145.51995530321938L148.15234375,135.02025529112044L149.22591145833334,133.22185796970072L150.29947916666669,138.67922974574572L151.373046875,145.27758936645958L152.44661458333334,151.44709610749462L153.52018229166666,143.88308321350922L154.59375,140.56934624896772L155.66731770833331,149.67001481905774L156.74088541666666,159.00088400153854L157.814453125,136.5878019894588L158.88802083333334,133.6606021464112L159.96158854166666,144.11425171815839L161.03515625,138.38408242315802L162.10872395833334,146.7417696267737L163.18229166666666,144.7216750243937L164.255859375,140.6780197061055L165.32942708333334,148.20464047405187L166.40299479166669,157.82219096958474L167.4765625,146.84209442554143L168.55013020833334,136.34700358144985L169.62369791666666,137.65899997278675L170.697265625,149.21495536752107L171.77083333333331,146.11999929547312L172.84440104166666,149.41682578139154L173.91796875,156.13599240681387L174.99153645833334,153.1305069634065L176.06510416666666,156.6767780966574L177.138671875,142.1592298956692L178.21223958333334,150.74811302965023L179.28580729166666,153.34448214556346L180.359375,158.74733177346033L181.43294270833334,143.79353243437333L182.50651041666669,147.78781609115765L183.580078125,149.28199364568252L184.65364583333334,146.15811713194103L185.72721354166666,137.89493336150042L186.80078125,145.36298391207015L187.87434895833331,157.9484128431786L188.94791666666666,152.2368729876454L190.021484375,162.05063498914768L191.09505208333334,158.39424568493487L192.16861979166666,165.62211899047068L193.2421875,156.79512558070044L194.31575520833334,160.40831206872033L195.38932291666666,147.5330708877145L196.462890625,137.62542601533718L197.53645833333334,151.44692905842254L198.61002604166669,165.4489446075856L199.68359375,155.3325697721252L200.75716145833334,153.95082575688755L201.83072916666666,157.17920278325474L202.904296875,159.2281080131896L203.97786458333331,163.00064188599654L205.05143229166666,163.3505243510443L206.125,169.03567022636028L207.19856770833334,161.31375318843254L208.27213541666666,159.7843082051581L209.345703125,170.79795581620118L210.41927083333334,157.23792992515325L211.49283854166666,156.26627753650502L212.56640625,158.4396844480061L213.63997395833334,163.51734082260953L214.71354166666669,172.41573658778174L215.787109375,165.21726608755694L216.86067708333334,164.75142443106796L217.93424479166666,157.3361365325471L219.0078125,160.3371640256819L220.08138020833331,164.33751798861363L221.15494791666666,171.28301406385552L222.228515625,166.15535348575216L223.30208333333334,170.48089600513254L224.37565104166666,177.24871385814092L225.44921875,172.3819377273673L226.52278645833334,169.98729279097668L227.59635416666666,164.3933933230136L228.669921875,164.8084071888195L229.74348958333334,167.62355959469673L230.81705729166669,165.43728423545693L231.890625,172.15819150548253L232.96419270833334,166.33875517950125L234.03776041666666,167.86344583241745L235.111328125,173.90028031370932L236.18489583333331,154.32712272567872" style="fill: none;" fill="none"></path></g></g></g></g><g opacity="0.2"><g><g><g><path stroke="rgb(255, 112, 67)" stroke-width="2px" d="M25.765625,-25.888068130454744L26.839192708333336,6.1390394882227515L27.912760416666668,10.20731549024978L28.986328125,-16.95775812348494L30.059895833333332,19.94673856914654L31.133463541666668,11.106404313334068L32.20703125,5.105618577531126L33.280598958333336,41.76601920536578L34.354166666666664,32.11392188990991L35.427734375,13.317187523576798L36.501302083333336,48.084877765862856L37.57486979166667,24.56945639367826L38.6484375,19.311905530496304L39.722005208333336,27.698423198307886L40.795572916666664,21.774214677638028L41.869140625,20.027451746416514L42.94270833333333,48.91311037533273L44.016276041666664,51.89184516605635L45.08984375,56.95406469167212L46.163411458333336,66.26924207353464L47.236979166666664,68.46940056667128L48.310546875,19.855053947405693L49.384114583333336,62.489839498840205L50.457682291666664,14.897025994902778L51.53125,46.6567572828633L52.604817708333336,67.21788814354045L53.67838541666667,87.40658428197584L54.751953125,74.9967908708361L55.825520833333336,71.61377197279275L56.899088541666664,86.75738682392807L57.97265625,63.77074944925531L59.04622395833333,78.23775061428583L60.119791666666664,88.36372517241847L61.193359375,74.82114869434066L62.266927083333336,83.74400406296796L63.340494791666664,99.66158869098695L64.4140625,60.71444679378497L65.48763020833333,74.83843553009837L66.56119791666667,100.75083270740626L67.634765625,87.36044477622133L68.70833333333333,96.88915668230038L69.78190104166666,94.30081213806544L70.85546875,96.85279984148042L71.92903645833333,106.66892396671197L73.00260416666667,88.63278560747858L74.076171875,96.10609769521174L75.14973958333334,113.79694513161667L76.22330729166667,96.09752857605392L77.296875,64.239747742585L78.37044270833333,96.65756756887559L79.44401041666667,114.52232354495209L80.517578125,108.92213174665812L81.59114583333333,91.71009003475774L82.66471354166667,93.9787271824361L83.73828125,89.93489545962524L84.81184895833333,97.44929474008343L85.88541666666666,112.91004129877996L86.958984375,124.6138730290113L88.03255208333333,126.06118734827481L89.10611979166667,123.17988294705103L90.1796875,103.55870520602016L91.25325520833334,121.6449209032222L92.32682291666667,123.13354531137381L93.400390625,114.26453174924694L94.47395833333333,72.37087594000445L95.54752604166667,134.55833581168778L96.62109375,66.26332294209325L97.69466145833333,86.48929227224122L98.76822916666667,134.24668982636203L99.841796875,105.36329730843696L100.91536458333333,120.90980935743295L101.98893229166666,117.18734436928152L103.0625,109.12320885198334L104.13606770833333,50.79995116192061L105.20963541666667,134.5432779375607L106.283203125,118.65412495345274L107.35677083333334,115.50452787061938L108.43033854166667,97.76164656325889L109.50390625,90.96465096674648L110.57747395833333,135.9612442620206L111.65104166666667,117.67897900628249L112.724609375,81.85401796385682L113.79817708333333,132.11011865529983L114.87174479166667,144.6564235831969L115.9453125,150.0228839882766L117.01888020833333,138.38756806194746L118.09244791666666,113.73577251797542L119.166015625,135.10820826284964L120.23958333333333,139.34860963524375L121.31315104166667,124.81291930262861L122.38671875,137.94254348926748L123.46028645833334,120.78664684421922L124.53385416666667,160.09735714962096L125.607421875,114.29145265249716L126.68098958333333,94.11558542655817L127.75455729166667,94.56122915524666L128.828125,136.99688175122273L129.90169270833334,148.64706980487637L130.97526041666666,138.1886332364117L132.048828125,136.4428238054433L133.12239583333334,121.61616729818681L134.19596354166669,130.0918681974648L135.26953125,132.86960018158425L136.34309895833334,150.4031572255861L137.41666666666666,115.32544318671661L138.490234375,156.91727282492838L139.56380208333331,102.5034157051078L140.63736979166666,162.03262831919488L141.7109375,147.58342169784905L142.78450520833334,142.11701712987494L143.85807291666666,145.53859706412857L144.931640625,152.74587019812316L146.00520833333334,136.44047101261094L147.07877604166666,149.29147499541824L148.15234375,119.27070527297195L149.22591145833334,130.5242619875711L150.29947916666669,146.86528740981325L151.373046875,155.1751287975304L152.44661458333334,160.70135621904717L153.52018229166666,132.5370638725312L154.59375,135.59874080215545L155.66731770833331,163.32101767419283L156.74088541666666,172.99718777525973L157.814453125,102.96817897133926L158.88802083333334,129.26980238183975L159.96158854166666,159.79472607577918L161.03515625,129.78882848065743L162.10872395833334,159.27830043219728L163.18229166666666,141.69153312082366L164.255859375,134.61253672867315L165.32942708333334,159.49457162597145L166.40299479166669,172.248516712884L167.4765625,130.3719496094765L168.55013020833334,120.6043673153125L169.62369791666666,139.62699455979208L170.697265625,166.5488884596226L171.77083333333331,141.47756518740118L172.84440104166666,154.36206551026913L173.91796875,166.2147423449474L174.99153645833334,148.62227879829544L176.06510416666666,161.9961847965337L177.138671875,120.38290759418699L178.21223958333334,163.63143773062174L179.28580729166666,157.23903581943327L180.359375,166.85160621530557L181.43294270833334,121.36283342574293L182.50651041666669,153.7792415763341L183.580078125,151.5232599774698L184.65364583333334,141.47230236132881L185.72721354166666,125.50015770583953L186.80078125,156.56505973792474L187.87434895833331,176.8265562398413L188.94791666666666,143.6695632043456L190.021484375,176.77127799140112L191.09505208333334,152.90966172861562L192.16861979166666,176.46392894877442L193.2421875,143.5546354660451L194.31575520833334,165.82809180075017L195.38932291666666,128.22020911620572L196.462890625,122.76395870677126L197.53645833333334,172.17918362305053L198.61002604166669,186.45196793133016L199.68359375,140.1580075189346L200.75716145833334,151.87820973403106L201.83072916666666,162.0217683228055L202.904296875,162.30146585809194L203.97786458333331,168.65944269520696L205.05143229166666,163.875348048616L206.125,177.56338903933425L207.19856770833334,149.73087763154092L208.27213541666666,157.49014073024648L209.345703125,187.3184272327657L210.41927083333334,136.8978910885814L211.49283854166666,154.8087989535326L212.56640625,161.69979481525775L213.63997395833334,171.13382538451475L214.71354166666669,185.76333023554L215.787109375,154.4195603372198L216.86067708333334,164.0526619463344L217.93424479166666,146.2132046847658L219.0078125,164.8387052653841L220.08138020833331,170.3380489330112L221.15494791666666,181.7012581767183L222.228515625,158.46386261859712L223.30208333333334,176.9692097842031L224.37565104166666,187.4004406376536L225.44921875,165.08177353120678L226.52278645833334,166.39532538639077L227.59635416666666,156.002544121069L228.669921875,165.43092798752838L229.74348958333334,171.84628820351253L230.81705729166669,162.15787119659723L231.890625,182.23955241052096L232.96419270833334,157.6096006905293L234.03776041666666,170.15048181179176L235.111328125,182.95553203564708L236.18489583333331,124.96738634363282" style="fill: none;" fill="none"></path></g></g></g></g></g></g><g transform="translate(72, 177)" clip-path="url(#clip_1)"><clipPath id="clip_1"><rect width="257" height="23"></rect></clipPath><g><g><line x1="0" y1="0" x2="0" y2="5" style="visibility: inherit;" fill="rgb(0, 0, 0)" stroke="rgb(204, 204, 204)" stroke-width="1px"></line><line x1="21.471354166666664" y1="0" x2="21.471354166666664" y2="5" style="visibility: inherit;" fill="rgb(0, 0, 0)" stroke="rgb(204, 204, 204)" stroke-width="1px"></line><line x1="42.94270833333333" y1="0" x2="42.94270833333333" y2="5" style="visibility: inherit;" fill="rgb(0, 0, 0)" stroke="rgb(204, 204, 204)" stroke-width="1px"></line><line x1="64.4140625" y1="0" x2="64.4140625" y2="5" style="visibility: inherit;" fill="rgb(0, 0, 0)" stroke="rgb(204, 204, 204)" stroke-width="1px"></line><line x1="85.88541666666666" y1="0" x2="85.88541666666666" y2="5" style="visibility: inherit;" fill="rgb(0, 0, 0)" stroke="rgb(204, 204, 204)" stroke-width="1px"></line><line x1="107.35677083333334" y1="0" x2="107.35677083333334" y2="5" style="visibility: inherit;" fill="rgb(0, 0, 0)" stroke="rgb(204, 204, 204)" stroke-width="1px"></line><line x1="128.828125" y1="0" x2="128.828125" y2="5" style="visibility: inherit;" fill="rgb(0, 0, 0)" stroke="rgb(204, 204, 204)" stroke-width="1px"></line><line x1="150.29947916666669" y1="0" x2="150.29947916666669" y2="5" style="visibility: inherit;" fill="rgb(0, 0, 0)" stroke="rgb(204, 204, 204)" stroke-width="1px"></line><line x1="171.77083333333331" y1="0" x2="171.77083333333331" y2="5" style="visibility: inherit;" fill="rgb(0, 0, 0)" stroke="rgb(204, 204, 204)" stroke-width="1px"></line><line x1="193.2421875" y1="0" x2="193.2421875" y2="5" style="visibility: inherit;" fill="rgb(0, 0, 0)" stroke="rgb(204, 204, 204)" stroke-width="1px"></line><line x1="214.71354166666669" y1="0" x2="214.71354166666669" y2="5" style="visibility: inherit;" fill="rgb(0, 0, 0)" stroke="rgb(204, 204, 204)" stroke-width="1px"></line><line x1="236.18489583333331" y1="0" x2="236.18489583333331" y2="5" style="visibility: inherit;" fill="rgb(0, 0, 0)" stroke="rgb(204, 204, 204)" stroke-width="1px"></line><line x1="257.65625" y1="0" x2="257.65625" y2="5" style="visibility: inherit;" fill="rgb(0, 0, 0)" stroke="rgb(204, 204, 204)" stroke-width="1px"></line></g><g transform="translate(0, 8)"><text x="0" y="0" dx="0em" dy="0.95em" style="text-anchor: middle; visibility: hidden; font-family: Roboto, sans-serif; font-size: 12px; font-weight: 200;" fill="rgb(33, 33, 33)" stroke="none" stroke-width="1px">-20</text><text x="21.471354166666664" y="0" dx="0em" dy="0.95em" style="text-anchor: middle; visibility: inherit; font-family: Roboto, sans-serif; font-size: 12px; font-weight: 200;" fill="rgb(33, 33, 33)" stroke="none" stroke-width="1px">0</text><text x="42.94270833333333" y="0" dx="0em" dy="0.95em" style="text-anchor: middle; visibility: hidden; font-family: Roboto, sans-serif; font-size: 12px; font-weight: 200;" fill="rgb(33, 33, 33)" stroke="none" stroke-width="1px">20</text><text x="64.4140625" y="0" dx="0em" dy="0.95em" style="text-anchor: middle; visibility: inherit; font-family: Roboto, sans-serif; font-size: 12px; font-weight: 200;" fill="rgb(33, 33, 33)" stroke="none" stroke-width="1px">40</text><text x="85.88541666666666" y="0" dx="0em" dy="0.95em" style="text-anchor: middle; visibility: hidden; font-family: Roboto, sans-serif; font-size: 12px; font-weight: 200;" fill="rgb(33, 33, 33)" stroke="none" stroke-width="1px">60</text><text x="107.35677083333334" y="0" dx="0em" dy="0.95em" style="text-anchor: middle; visibility: inherit; font-family: Roboto, sans-serif; font-size: 12px; font-weight: 200;" fill="rgb(33, 33, 33)" stroke="none" stroke-width="1px">80</text><text x="128.828125" y="0" dx="0em" dy="0.95em" style="text-anchor: middle; visibility: hidden; font-family: Roboto, sans-serif; font-size: 12px; font-weight: 200;" fill="rgb(33, 33, 33)" stroke="none" stroke-width="1px">100</text><text x="150.29947916666669" y="0" dx="0em" dy="0.95em" style="text-anchor: middle; visibility: inherit; font-family: Roboto, sans-serif; font-size: 12px; font-weight: 200;" fill="rgb(33, 33, 33)" stroke="none" stroke-width="1px">120</text><text x="171.77083333333331" y="0" dx="0em" dy="0.95em" style="text-anchor: middle; visibility: hidden; font-family: Roboto, sans-serif; font-size: 12px; font-weight: 200;" fill="rgb(33, 33, 33)" stroke="none" stroke-width="1px">140</text><text x="193.2421875" y="0" dx="0em" dy="0.95em" style="text-anchor: middle; visibility: inherit; font-family: Roboto, sans-serif; font-size: 12px; font-weight: 200;" fill="rgb(33, 33, 33)" stroke="none" stroke-width="1px">160</text><text x="214.71354166666669" y="0" dx="0em" dy="0.95em" style="text-anchor: middle; visibility: hidden; font-family: Roboto, sans-serif; font-size: 12px; font-weight: 200;" fill="rgb(33, 33, 33)" stroke="none" stroke-width="1px">180</text><text x="236.18489583333331" y="0" dx="0em" dy="0.95em" style="text-anchor: middle; visibility: inherit; font-family: Roboto, sans-serif; font-size: 12px; font-weight: 200;" fill="rgb(33, 33, 33)" stroke="none" stroke-width="1px">200</text><text x="257.65625" y="0" dx="0em" dy="0.95em" style="text-anchor: middle; visibility: hidden; font-family: Roboto, sans-serif; font-size: 12px; font-weight: 200;" fill="rgb(33, 33, 33)" stroke="none" stroke-width="1px">220</text></g><line x1="0" y1="0" x2="257.65625" y2="0" fill="rgb(0, 0, 0)" stroke="rgb(204, 204, 204)" stroke-width="1px"></line></g></g></g></g></svg>