<svg viewBox="0 0 329.9884338378906 199.98843383789062" xmlns="http://www.w3.org/2000/svg"><g><g><g><g><g><line x1="72.34375" y1="176.988" x2="67.34375" y2="176.988" style="visibility: inherit;" fill="rgb(0, 0, 0)" stroke="rgb(204, 204, 204)" stroke-width="1px"></line><line x1="72.34375" y1="162.239" x2="67.34375" y2="162.239" style="visibility: inherit;" fill="rgb(0, 0, 0)" stroke="rgb(204, 204, 204)" stroke-width="1px"></line><line x1="72.34375" y1="147.48999999999998" x2="67.34375" y2="147.48999999999998" style="visibility: inherit;" fill="rgb(0, 0, 0)" stroke="rgb(204, 204, 204)" stroke-width="1px"></line><line x1="72.34375" y1="132.74099999999999" x2="67.34375" y2="132.74099999999999" style="visibility: inherit;" fill="rgb(0, 0, 0)" stroke="rgb(204, 204, 204)" stroke-width="1px"></line><line x1="72.34375" y1="117.99199999999999" x2="67.34375" y2="117.99199999999999" style="visibility: inherit;" fill="rgb(0, 0, 0)" stroke="rgb(204, 204, 204)" stroke-width="1px"></line><line x1="72.34375" y1="103.24299999999998" x2="67.34375" y2="103.24299999999998" style="visibility: inherit;" fill="rgb(0, 0, 0)" stroke="rgb(204, 204, 204)" stroke-width="1px"></line><line x1="72.34375" y1="88.494" x2="67.34375" y2="88.494" style="visibility: inherit;" fill="rgb(0, 0, 0)" stroke="rgb(204, 204, 204)" stroke-width="1px"></line><line x1="72.34375" y1="73.74499999999999" x2="67.34375" y2="73.74499999999999" style="visibility: inherit;" fill="rgb(0, 0, 0)" stroke="rgb(204, 204, 204)" stroke-width="1px"></line><line x1="72.34375" y1="58.99600000000001" x2="67.34375" y2="58.99600000000001" style="visibility: inherit;" fill="rgb(0, 0, 0)" stroke="rgb(204, 204, 204)" stroke-width="1px"></line><line x1="72.34375" y1="44.247" x2="67.34375" y2="44.247" style="visibility: inherit;" fill="rgb(0, 0, 0)" stroke="rgb(204, 204, 204)" stroke-width="1px"></line><line x1="72.34375" y1="29.497999999999994" x2="67.34375" y2="29.497999999999994" style="visibility: inherit;" fill="rgb(0, 0, 0)" stroke="rgb(204, 204, 204)" stroke-width="1px"></line><line x1="72.34375" y1="14.749000000000006" x2="67.34375" y2="14.749000000000006" style="visibility: inherit;" fill="rgb(0, 0, 0)" stroke="rgb(204, 204, 204)" stroke-width="1px"></line><line x1="72.34375" y1="0" x2="67.34375" y2="0" style="visibility: inherit;" fill="rgb(0, 0, 0)" stroke="rgb(204, 204, 204)" stroke-width="1px"></line></g><g transform="translate(62.34375, 0)"><text x="0" y="176.988" dx="0em" dy="0.3em" style="text-anchor: end; visibility: hidden; font-family: Roboto, sans-serif; font-size: 12px; font-weight: 200;" fill="rgb(33, 33, 33)" stroke="none" stroke-width="1px">-5e-6</text><text x="0" y="162.239" dx="0em" dy="0.3em" style="text-anchor: end; visibility: inherit; font-family: Roboto, sans-serif; font-size: 12px; font-weight: 200;" fill="rgb(33, 33, 33)" stroke="none" stroke-width="1px">0</text><text x="0" y="147.48999999999998" dx="0em" dy="0.3em" style="text-anchor: end; visibility: hidden; font-family: Roboto, sans-serif; font-size: 12px; font-weight: 200;" fill="rgb(33, 33, 33)" stroke="none" stroke-width="1px">5e-6</text><text x="0" y="132.74099999999999" dx="0em" dy="0.3em" style="text-anchor: end; visibility: inherit; font-family: Roboto, sans-serif; font-size: 12px; font-weight: 200;" fill="rgb(33, 33, 33)" stroke="none" stroke-width="1px">1e-5</text><text x="0" y="117.99199999999999" dx="0em" dy="0.3em" style="text-anchor: end; visibility: hidden; font-family: Roboto, sans-serif; font-size: 12px; font-weight: 200;" fill="rgb(33, 33, 33)" stroke="none" stroke-width="1px">1.5e-5</text><text x="0" y="103.24299999999998" dx="0em" dy="0.3em" style="text-anchor: end; visibility: inherit; font-family: Roboto, sans-serif; font-size: 12px; font-weight: 200;" fill="rgb(33, 33, 33)" stroke="none" stroke-width="1px">2e-5</text><text x="0" y="88.494" dx="0em" dy="0.3em" style="text-anchor: end; visibility: hidden; font-family: Roboto, sans-serif; font-size: 12px; font-weight: 200;" fill="rgb(33, 33, 33)" stroke="none" stroke-width="1px">2.5e-5</text><text x="0" y="73.74499999999999" dx="0em" dy="0.3em" style="text-anchor: end; visibility: inherit; font-family: Roboto, sans-serif; font-size: 12px; font-weight: 200;" fill="rgb(33, 33, 33)" stroke="none" stroke-width="1px">3e-5</text><text x="0" y="58.99600000000001" dx="0em" dy="0.3em" style="text-anchor: end; visibility: hidden; font-family: Roboto, sans-serif; font-size: 12px; font-weight: 200;" fill="rgb(33, 33, 33)" stroke="none" stroke-width="1px">3.5e-5</text><text x="0" y="44.247" dx="0em" dy="0.3em" style="text-anchor: end; visibility: inherit; font-family: Roboto, sans-serif; font-size: 12px; font-weight: 200;" fill="rgb(33, 33, 33)" stroke="none" stroke-width="1px">4e-5</text><text x="0" y="29.497999999999994" dx="0em" dy="0.3em" style="text-anchor: end; visibility: hidden; font-family: Roboto, sans-serif; font-size: 12px; font-weight: 200;" fill="rgb(33, 33, 33)" stroke="none" stroke-width="1px">4.5e-5</text><text x="0" y="14.749000000000006" dx="0em" dy="0.3em" style="text-anchor: end; visibility: inherit; font-family: Roboto, sans-serif; font-size: 12px; font-weight: 200;" fill="rgb(33, 33, 33)" stroke="none" stroke-width="1px">5e-5</text><text x="0" y="0" dx="0em" dy="0.3em" style="text-anchor: end; visibility: hidden; font-family: Roboto, sans-serif; font-size: 12px; font-weight: 200;" fill="rgb(33, 33, 33)" stroke="none" stroke-width="1px">5.5e-5</text></g><line x1="72.34375" y1="0" x2="72.34375" y2="176.988" fill="rgb(0, 0, 0)" stroke="rgb(204, 204, 204)" stroke-width="1px"></line></g></g><g transform="translate(72, 0)" clip-path="url(#clip_0)"><clipPath id="clip_0"><rect width="257" height="176"></rect></clipPath><g><g><g><line x1="0" y1="0" x2="0" y2="176.988" fill="rgb(0, 0, 0)" stroke="rgb(66, 66, 66)" stroke-width="1px" opacity="0.25"></line><line x1="19.818788461538464" y1="0" x2="19.818788461538464" y2="176.988" fill="rgb(0, 0, 0)" stroke="rgb(66, 66, 66)" stroke-width="1px" opacity="0.25"></line><line x1="39.63757692307693" y1="0" x2="39.63757692307693" y2="176.988" fill="rgb(0, 0, 0)" stroke="rgb(66, 66, 66)" stroke-width="1px" opacity="0.25"></line><line x1="59.45636538461539" y1="0" x2="59.45636538461539" y2="176.988" fill="rgb(0, 0, 0)" stroke="rgb(66, 66, 66)" stroke-width="1px" opacity="0.25"></line><line x1="79.27515384615386" y1="0" x2="79.27515384615386" y2="176.988" fill="rgb(0, 0, 0)" stroke="rgb(66, 66, 66)" stroke-width="1px" opacity="0.25"></line><line x1="99.09394230769232" y1="0" x2="99.09394230769232" y2="176.988" fill="rgb(0, 0, 0)" stroke="rgb(66, 66, 66)" stroke-width="1px" opacity="0.25"></line><line x1="118.91273076923078" y1="0" x2="118.91273076923078" y2="176.988" fill="rgb(0, 0, 0)" stroke="rgb(66, 66, 66)" stroke-width="1px" opacity="0.25"></line><line x1="138.73151923076924" y1="0" x2="138.73151923076924" y2="176.988" fill="rgb(0, 0, 0)" stroke="rgb(66, 66, 66)" stroke-width="1px" opacity="0.25"></line><line x1="158.5503076923077" y1="0" x2="158.5503076923077" y2="176.988" fill="rgb(0, 0, 0)" stroke="rgb(66, 66, 66)" stroke-width="1px" opacity="0.25"></line><line x1="178.36909615384616" y1="0" x2="178.36909615384616" y2="176.988" fill="rgb(0, 0, 0)" stroke="rgb(66, 66, 66)" stroke-width="1px" opacity="0.25"></line><line x1="198.18788461538463" y1="0" x2="198.18788461538463" y2="176.988" fill="rgb(0, 0, 0)" stroke="rgb(66, 66, 66)" stroke-width="1px" opacity="0.25"></line><line x1="218.00667307692308" y1="0" x2="218.00667307692308" y2="176.988" fill="rgb(0, 0, 0)" stroke="rgb(66, 66, 66)" stroke-width="1px" opacity="0.25"></line><line x1="237.82546153846155" y1="0" x2="237.82546153846155" y2="176.988" fill="rgb(0, 0, 0)" stroke="rgb(66, 66, 66)" stroke-width="1px" opacity="0.25"></line><line x1="257.64425" y1="0" x2="257.64425" y2="176.988" fill="rgb(0, 0, 0)" stroke="rgb(66, 66, 66)" stroke-width="1px" opacity="0.25"></line></g><g><line x1="0" y1="176.988" x2="257.64425" y2="176.988" fill="rgb(0, 0, 0)" stroke="rgb(66, 66, 66)" stroke-width="1px" opacity="0.25"></line><line x1="0" y1="162.239" x2="257.64425" y2="162.239" fill="rgb(0, 0, 0)" stroke="rgb(66, 66, 66)" stroke-width="1px" opacity="0.25"></line><line x1="0" y1="147.48999999999998" x2="257.64425" y2="147.48999999999998" fill="rgb(0, 0, 0)" stroke="rgb(66, 66, 66)" stroke-width="1px" opacity="0.25"></line><line x1="0" y1="132.74099999999999" x2="257.64425" y2="132.74099999999999" fill="rgb(0, 0, 0)" stroke="rgb(66, 66, 66)" stroke-width="1px" opacity="0.25"></line><line x1="0" y1="117.99199999999999" x2="257.64425" y2="117.99199999999999" fill="rgb(0, 0, 0)" stroke="rgb(66, 66, 66)" stroke-width="1px" opacity="0.25"></line><line x1="0" y1="103.24299999999998" x2="257.64425" y2="103.24299999999998" fill="rgb(0, 0, 0)" stroke="rgb(66, 66, 66)" stroke-width="1px" opacity="0.25"></line><line x1="0" y1="88.494" x2="257.64425" y2="88.494" fill="rgb(0, 0, 0)" stroke="rgb(66, 66, 66)" stroke-width="1px" opacity="0.25"></line><line x1="0" y1="73.74499999999999" x2="257.64425" y2="73.74499999999999" fill="rgb(0, 0, 0)" stroke="rgb(66, 66, 66)" stroke-width="1px" opacity="0.25"></line><line x1="0" y1="58.99600000000001" x2="257.64425" y2="58.99600000000001" fill="rgb(0, 0, 0)" stroke="rgb(66, 66, 66)" stroke-width="1px" opacity="0.25"></line><line x1="0" y1="44.247" x2="257.64425" y2="44.247" fill="rgb(0, 0, 0)" stroke="rgb(66, 66, 66)" stroke-width="1px" opacity="0.25"></line><line x1="0" y1="29.497999999999994" x2="257.64425" y2="29.497999999999994" fill="rgb(0, 0, 0)" stroke="rgb(66, 66, 66)" stroke-width="1px" opacity="0.25"></line><line x1="0" y1="14.749000000000006" x2="257.64425" y2="14.749000000000006" fill="rgb(0, 0, 0)" stroke="rgb(66, 66, 66)" stroke-width="1px" opacity="0.25"></line><line x1="0" y1="0" x2="257.64425" y2="0" fill="rgb(0, 0, 0)" stroke="rgb(66, 66, 66)" stroke-width="1px" opacity="0.25"></line></g></g></g><g><g><line x1="0" y1="162.239" x2="257.64425" y2="162.239" fill="rgb(0, 0, 0)" stroke="rgb(153, 153, 153)" stroke-width="1.5px"></line></g></g><g><g><line x1="19.818788461538464" y1="0" x2="19.818788461538464" y2="176.988" fill="rgb(0, 0, 0)" stroke="rgb(153, 153, 153)" stroke-width="1.5px"></line></g></g><g><g><g><g><g><path stroke="rgb(255, 112, 67)" stroke-width="2px" d="M29.728182692307694,-10.132146002858198L31.71006153846154,5.971120814174298L33.691940384615386,14.559978010662569L35.67381923076923,17.567577013135207L37.65569807692308,27.053834661795246L39.63757692307693,32.025613875893136L41.61945576923077,40.22668195553846L43.601334615384616,51.33536488748985L45.58321346153846,54.222217993991066L47.56509230769231,51.150161924048284L49.54697115384616,60.83774638278541L51.528850000000006,62.546468862335416L53.510728846153846,65.69514467571035L55.49260769230769,68.02631698737346L57.47448653846154,69.09999083313038L59.45636538461539,72.26662700339334L61.438244230769236,68.01373188582794L63.42012307692308,73.80247610442497L65.40200192307692,79.53601249989252L67.38388076923077,81.37822291499432L69.36575961538462,84.33209207978292L71.34763846153847,84.84278604400878L73.3295173076923,83.05171154464239L75.31139615384616,87.58666195689803L77.293275,86.61391219847677L79.27515384615386,88.88113225584475L81.25703269230769,92.05211949386316L83.23891153846154,98.11938517328764L85.22079038461538,96.1370226787909L87.20266923076923,96.61170522172246L89.18454807692308,96.65940215026458L91.16642692307693,95.66757789309806L93.14830576923077,95.88774525489026L95.13018461538462,98.13452755724758L97.11206346153845,99.12457467961234L99.09394230769232,101.3206394275389L101.07582115384615,100.9874894585059L103.05770000000001,104.75024296735792L105.03957884615384,108.20074669971139L107.02145769230769,103.91607239023053L109.00333653846154,100.2373201545946L110.98521538461539,104.22719637763583L112.96709423076923,108.81475852903431L114.94897307692308,110.86394216099261L116.93085192307693,112.67122177183894L118.91273076923078,84.98732579425753L120.89460961538461,115.8879954767044L122.87648846153847,134.42839728607657L124.8583673076923,145.55263837166538L126.84024615384617,152.2271830230062L128.822125,156.23190981380623L130.80400384615385,158.63474588828467L132.78588269230767,160.07644753297112L134.76776153846154,160.9414685197828L136.7496403846154,161.4604811118697L138.73151923076924,161.77188866712186L140.71339807692306,161.95873320027312L142.69527692307693,162.07083992016388L144.67715576923078,162.1381039520983L146.6590346153846,162.178462371259L148.64091346153845,162.2026774227554L150.62279230769232,162.21720645365323L152.60467115384614,162.22592387219194L154.58655,162.23115432331517L156.56842884615384,162.2342925939891L158.5503076923077,162.23617555639348L160.53218653846153,162.23730533383608L162.51406538461538,162.23798320030164L164.49594423076923,162.238389920181L166.47782307692307,162.2386339521086L168.45970192307692,162.23878037126516L170.44158076923077,162.2388682227591L172.42345961538462,162.23892093365544L174.40533846153846,162.23895256019327L176.3872173076923,162.23897153611597L178.36909615384616,162.2389829216696L180.35097499999998,162.23898975300176L182.33285384615385,162.23899385180104L184.3147326923077,162.23899631108063L186.29661153846155,162.23899778664835L188.27849038461537,162.238998671989L190.26036923076924,162.23899920319343L192.2422480769231,162.23899952191604L194.2241269230769,162.2389997131496L196.20600576923076,162.23899982788978L198.18788461538463,162.23899989673384L200.16976346153845,162.2389999380403L202.1516423076923,162.2389999628242L204.13352115384615,162.2389999776945L206.11540000000002,162.2389999866167L208.09727884615384,162.23899999197002L210.0791576923077,162.238999995182L212.06103653846154,162.2389999971092L214.04291538461538,162.2389999982655L216.02479423076923,162.23899999895932L218.00667307692308,162.23899999937558L219.98855192307693,162.23899999962535L221.97043076923077,162.23899999977522L223.95230961538462,162.23899999986511L225.93418846153847,162.2389999999191L227.9160673076923,162.23899999995143L229.89794615384616,162.23899999997087L231.879825,162.23899999998252L233.86170384615386,162.23899999998952L235.84358269230768,162.2389999999937L237.82546153846155,162.23899999999622L239.8073403846154,162.23899999999773L241.78921923076922,162.23899999999864L243.77109807692307,162.23899999999918L245.75297692307694,162.2389999999995L247.73485576923076,162.2389999999997" style="fill: none;" fill="none"></path></g></g></g></g><g opacity="0.2"><g><g><g><path stroke="rgb(255, 112, 67)" stroke-width="2px" d="M25.764425000000003,-25.56162728037592L27.746303846153847,8.093735080502002L29.728182692307694,5.8718281000896955L31.71006153846154,28.24773599818443L33.691940384615386,26.842181223355944L35.67381923076923,21.95268523169076L37.65569807692308,41.044222082883124L39.63757692307693,39.40812657779176L41.61945576923077,52.453900991122715L43.601334615384616,67.93793632346066L45.58321346153846,58.54307157746959L47.56509230769231,46.54809629678354L49.54697115384616,75.35773567901785L51.528850000000006,65.10834745818144L53.510728846153846,70.4168259816929L55.49260769230769,71.52248357047071L57.47448653846154,70.71033803836188L59.45636538461539,77.01629181569886L61.438244230769236,61.63462244835543L63.42012307692308,82.4854019512263L65.40200192307692,88.13620389441938L67.38388076923077,84.14151671490843L69.36575961538462,88.76287483212808L71.34763846153847,85.60882481247106L73.3295173076923,80.36510437846162L75.31139615384616,94.38908061306435L77.293275,85.15478845688493L79.27515384615386,92.28196108883866L81.25703269230769,96.80859929935693L83.23891153846154,107.22028248524155L85.22079038461538,93.16347917370011L87.20266923076923,97.32372900211928L89.18454807692308,96.73094754102792L91.16642692307693,94.17984153292353L93.14830576923077,96.21799629417225L95.13018461538462,101.50470098992672L97.11206346153845,100.60964535764514L99.09394230769232,104.61473654208973L101.07582115384615,100.48776450562443L103.05770000000001,110.39437322610908L105.03957884615384,113.37650229575091L107.02145769230769,97.48906092786498L109.00333653846154,94.71919180209667L110.98521538461539,110.21201071157563L112.96709423076923,115.69610175570276L114.94897307692308,113.93771760881506L116.93085192307693,115.3821411880476L118.91273076923078,43.46148182844487L120.89460961538461,162.239L122.87648846153847,162.239L124.8583673076923,162.239L126.84024615384617,162.239L128.822125,162.239L130.80400384615385,162.239L132.78588269230767,162.239L134.76776153846154,162.239L136.7496403846154,162.239L138.73151923076924,162.239L140.71339807692306,162.239L142.69527692307693,162.239L144.67715576923078,162.239L146.6590346153846,162.239L148.64091346153845,162.239L150.62279230769232,162.239L152.60467115384614,162.239L154.58655,162.239L156.56842884615384,162.239L158.5503076923077,162.239L160.53218653846153,162.239L162.51406538461538,162.239L164.49594423076923,162.239L166.47782307692307,162.239L168.45970192307692,162.239L170.44158076923077,162.239L172.42345961538462,162.239L174.40533846153846,162.239L176.3872173076923,162.239L178.36909615384616,162.239L180.35097499999998,162.239L182.33285384615385,162.239L184.3147326923077,162.239L186.29661153846155,162.239L188.27849038461537,162.239L190.26036923076924,162.239L192.2422480769231,162.239L194.2241269230769,162.239L196.20600576923076,162.239L198.18788461538463,162.239L200.16976346153845,162.239L202.1516423076923,162.239L204.13352115384615,162.239L206.11540000000002,162.239L208.09727884615384,162.239L210.0791576923077,162.239L212.06103653846154,162.239L214.04291538461538,162.239L216.02479423076923,162.239L218.00667307692308,162.239L219.98855192307693,162.239L221.97043076923077,162.239L223.95230961538462,162.239L225.93418846153847,162.239L227.9160673076923,162.239L229.89794615384616,162.239L231.879825,162.239L233.86170384615386,162.239L235.84358269230768,162.239L237.82546153846155,162.239L239.8073403846154,162.239L241.78921923076922,162.239L243.77109807692307,162.239L245.75297692307694,162.239L247.73485576923076,162.239" style="fill: none;" fill="none"></path></g></g></g></g></g></g><g transform="translate(72, 176)" clip-path="url(#clip_1)"><clipPath id="clip_1"><rect width="257" height="22"></rect></clipPath><g><g><line x1="0" y1="0" x2="0" y2="5" style="visibility: inherit;" fill="rgb(0, 0, 0)" stroke="rgb(204, 204, 204)" stroke-width="1px"></line><line x1="19.818788461538464" y1="0" x2="19.818788461538464" y2="5" style="visibility: inherit;" fill="rgb(0, 0, 0)" stroke="rgb(204, 204, 204)" stroke-width="1px"></line><line x1="39.63757692307693" y1="0" x2="39.63757692307693" y2="5" style="visibility: inherit;" fill="rgb(0, 0, 0)" stroke="rgb(204, 204, 204)" stroke-width="1px"></line><line x1="59.45636538461539" y1="0" x2="59.45636538461539" y2="5" style="visibility: inherit;" fill="rgb(0, 0, 0)" stroke="rgb(204, 204, 204)" stroke-width="1px"></line><line x1="79.27515384615386" y1="0" x2="79.27515384615386" y2="5" style="visibility: inherit;" fill="rgb(0, 0, 0)" stroke="rgb(204, 204, 204)" stroke-width="1px"></line><line x1="99.09394230769232" y1="0" x2="99.09394230769232" y2="5" style="visibility: inherit;" fill="rgb(0, 0, 0)" stroke="rgb(204, 204, 204)" stroke-width="1px"></line><line x1="118.91273076923078" y1="0" x2="118.91273076923078" y2="5" style="visibility: inherit;" fill="rgb(0, 0, 0)" stroke="rgb(204, 204, 204)" stroke-width="1px"></line><line x1="138.73151923076924" y1="0" x2="138.73151923076924" y2="5" style="visibility: inherit;" fill="rgb(0, 0, 0)" stroke="rgb(204, 204, 204)" stroke-width="1px"></line><line x1="158.5503076923077" y1="0" x2="158.5503076923077" y2="5" style="visibility: inherit;" fill="rgb(0, 0, 0)" stroke="rgb(204, 204, 204)" stroke-width="1px"></line><line x1="178.36909615384616" y1="0" x2="178.36909615384616" y2="5" style="visibility: inherit;" fill="rgb(0, 0, 0)" stroke="rgb(204, 204, 204)" stroke-width="1px"></line><line x1="198.18788461538463" y1="0" x2="198.18788461538463" y2="5" style="visibility: inherit;" fill="rgb(0, 0, 0)" stroke="rgb(204, 204, 204)" stroke-width="1px"></line><line x1="218.00667307692308" y1="0" x2="218.00667307692308" y2="5" style="visibility: inherit;" fill="rgb(0, 0, 0)" stroke="rgb(204, 204, 204)" stroke-width="1px"></line><line x1="237.82546153846155" y1="0" x2="237.82546153846155" y2="5" style="visibility: inherit;" fill="rgb(0, 0, 0)" stroke="rgb(204, 204, 204)" stroke-width="1px"></line><line x1="257.64425" y1="0" x2="257.64425" y2="5" style="visibility: inherit;" fill="rgb(0, 0, 0)" stroke="rgb(204, 204, 204)" stroke-width="1px"></line></g><g transform="translate(0, 8)"><text x="0" y="0" dx="0em" dy="0.95em" style="text-anchor: middle; visibility: hidden; font-family: Roboto, sans-serif; font-size: 12px; font-weight: 200;" fill="rgb(33, 33, 33)" stroke="none" stroke-width="1px">-10</text><text x="19.818788461538464" y="0" dx="0em" dy="0.95em" style="text-anchor: middle; visibility: inherit; font-family: Roboto, sans-serif; font-size: 12px; font-weight: 200;" fill="rgb(33, 33, 33)" stroke="none" stroke-width="1px">0</text><text x="39.63757692307693" y="0" dx="0em" dy="0.95em" style="text-anchor: middle; visibility: hidden; font-family: Roboto, sans-serif; font-size: 12px; font-weight: 200;" fill="rgb(33, 33, 33)" stroke="none" stroke-width="1px">10</text><text x="59.45636538461539" y="0" dx="0em" dy="0.95em" style="text-anchor: middle; visibility: inherit; font-family: Roboto, sans-serif; font-size: 12px; font-weight: 200;" fill="rgb(33, 33, 33)" stroke="none" stroke-width="1px">20</text><text x="79.27515384615386" y="0" dx="0em" dy="0.95em" style="text-anchor: middle; visibility: hidden; font-family: Roboto, sans-serif; font-size: 12px; font-weight: 200;" fill="rgb(33, 33, 33)" stroke="none" stroke-width="1px">30</text><text x="99.09394230769232" y="0" dx="0em" dy="0.95em" style="text-anchor: middle; visibility: inherit; font-family: Roboto, sans-serif; font-size: 12px; font-weight: 200;" fill="rgb(33, 33, 33)" stroke="none" stroke-width="1px">40</text><text x="118.91273076923078" y="0" dx="0em" dy="0.95em" style="text-anchor: middle; visibility: hidden; font-family: Roboto, sans-serif; font-size: 12px; font-weight: 200;" fill="rgb(33, 33, 33)" stroke="none" stroke-width="1px">50</text><text x="138.73151923076924" y="0" dx="0em" dy="0.95em" style="text-anchor: middle; visibility: inherit; font-family: Roboto, sans-serif; font-size: 12px; font-weight: 200;" fill="rgb(33, 33, 33)" stroke="none" stroke-width="1px">60</text><text x="158.5503076923077" y="0" dx="0em" dy="0.95em" style="text-anchor: middle; visibility: hidden; font-family: Roboto, sans-serif; font-size: 12px; font-weight: 200;" fill="rgb(33, 33, 33)" stroke="none" stroke-width="1px">70</text><text x="178.36909615384616" y="0" dx="0em" dy="0.95em" style="text-anchor: middle; visibility: inherit; font-family: Roboto, sans-serif; font-size: 12px; font-weight: 200;" fill="rgb(33, 33, 33)" stroke="none" stroke-width="1px">80</text><text x="198.18788461538463" y="0" dx="0em" dy="0.95em" style="text-anchor: middle; visibility: hidden; font-family: Roboto, sans-serif; font-size: 12px; font-weight: 200;" fill="rgb(33, 33, 33)" stroke="none" stroke-width="1px">90</text><text x="218.00667307692308" y="0" dx="0em" dy="0.95em" style="text-anchor: middle; visibility: inherit; font-family: Roboto, sans-serif; font-size: 12px; font-weight: 200;" fill="rgb(33, 33, 33)" stroke="none" stroke-width="1px">100</text><text x="237.82546153846155" y="0" dx="0em" dy="0.95em" style="text-anchor: middle; visibility: hidden; font-family: Roboto, sans-serif; font-size: 12px; font-weight: 200;" fill="rgb(33, 33, 33)" stroke="none" stroke-width="1px">110</text><text x="257.64425" y="0" dx="0em" dy="0.95em" style="text-anchor: middle; visibility: hidden; font-family: Roboto, sans-serif; font-size: 12px; font-weight: 200;" fill="rgb(33, 33, 33)" stroke="none" stroke-width="1px">120</text></g><line x1="0" y1="0" x2="257.64425" y2="0" fill="rgb(0, 0, 0)" stroke="rgb(204, 204, 204)" stroke-width="1px"></line></g></g></g></g></svg>