<svg viewBox="0 0 330.0000305175781 200.00001525878906" xmlns="http://www.w3.org/2000/svg"><g><g><g><g><g><line x1="61.953125" y1="151.71428571428575" x2="56.953125" y2="151.71428571428575" style="visibility: inherit;" fill="rgb(0, 0, 0)" stroke="rgb(204, 204, 204)" stroke-width="1px"></line><line x1="61.953125" y1="126.42857142857144" x2="56.953125" y2="126.42857142857144" style="visibility: inherit;" fill="rgb(0, 0, 0)" stroke="rgb(204, 204, 204)" stroke-width="1px"></line><line x1="61.953125" y1="101.14285714285714" x2="56.953125" y2="101.14285714285714" style="visibility: inherit;" fill="rgb(0, 0, 0)" stroke="rgb(204, 204, 204)" stroke-width="1px"></line><line x1="61.953125" y1="75.85714285714288" x2="56.953125" y2="75.85714285714288" style="visibility: inherit;" fill="rgb(0, 0, 0)" stroke="rgb(204, 204, 204)" stroke-width="1px"></line><line x1="61.953125" y1="50.57142857142857" x2="56.953125" y2="50.57142857142857" style="visibility: inherit;" fill="rgb(0, 0, 0)" stroke="rgb(204, 204, 204)" stroke-width="1px"></line><line x1="61.953125" y1="25.285714285714256" x2="56.953125" y2="25.285714285714256" style="visibility: inherit;" fill="rgb(0, 0, 0)" stroke="rgb(204, 204, 204)" stroke-width="1px"></line><line x1="61.953125" y1="0" x2="56.953125" y2="0" style="visibility: inherit;" fill="rgb(0, 0, 0)" stroke="rgb(204, 204, 204)" stroke-width="1px"></line></g><g transform="translate(51.953125, 0)"><text x="0" y="151.71428571428575" dx="0em" dy="0.3em" style="text-anchor: end; visibility: inherit; font-family: Roboto, sans-serif; font-size: 12px; font-weight: 200;" fill="rgb(33, 33, 33)" stroke="none" stroke-width="1px">0.075</text><text x="0" y="126.42857142857144" dx="0em" dy="0.3em" style="text-anchor: end; visibility: inherit; font-family: Roboto, sans-serif; font-size: 12px; font-weight: 200;" fill="rgb(33, 33, 33)" stroke="none" stroke-width="1px">0.08</text><text x="0" y="101.14285714285714" dx="0em" dy="0.3em" style="text-anchor: end; visibility: inherit; font-family: Roboto, sans-serif; font-size: 12px; font-weight: 200;" fill="rgb(33, 33, 33)" stroke="none" stroke-width="1px">0.085</text><text x="0" y="75.85714285714288" dx="0em" dy="0.3em" style="text-anchor: end; visibility: inherit; font-family: Roboto, sans-serif; font-size: 12px; font-weight: 200;" fill="rgb(33, 33, 33)" stroke="none" stroke-width="1px">0.09</text><text x="0" y="50.57142857142857" dx="0em" dy="0.3em" style="text-anchor: end; visibility: inherit; font-family: Roboto, sans-serif; font-size: 12px; font-weight: 200;" fill="rgb(33, 33, 33)" stroke="none" stroke-width="1px">0.095</text><text x="0" y="25.285714285714256" dx="0em" dy="0.3em" style="text-anchor: end; visibility: inherit; font-family: Roboto, sans-serif; font-size: 12px; font-weight: 200;" fill="rgb(33, 33, 33)" stroke="none" stroke-width="1px">0.1</text><text x="0" y="0" dx="0em" dy="0.3em" style="text-anchor: end; visibility: hidden; font-family: Roboto, sans-serif; font-size: 12px; font-weight: 200;" fill="rgb(33, 33, 33)" stroke="none" stroke-width="1px">0.105</text></g><line x1="61.953125" y1="0" x2="61.953125" y2="177" fill="rgb(0, 0, 0)" stroke="rgb(204, 204, 204)" stroke-width="1px"></line></g></g><g transform="translate(61, 0)" clip-path="url(#clip_0)"><clipPath id="clip_0"><rect width="268" height="177"></rect></clipPath><g><g><g><line x1="0" y1="0" x2="0" y2="177" fill="rgb(0, 0, 0)" stroke="rgb(66, 66, 66)" stroke-width="1px" opacity="0.25"></line><line x1="22.337239583333332" y1="0" x2="22.337239583333332" y2="177" fill="rgb(0, 0, 0)" stroke="rgb(66, 66, 66)" stroke-width="1px" opacity="0.25"></line><line x1="44.674479166666664" y1="0" x2="44.674479166666664" y2="177" fill="rgb(0, 0, 0)" stroke="rgb(66, 66, 66)" stroke-width="1px" opacity="0.25"></line><line x1="67.01171875" y1="0" x2="67.01171875" y2="177" fill="rgb(0, 0, 0)" stroke="rgb(66, 66, 66)" stroke-width="1px" opacity="0.25"></line><line x1="89.34895833333333" y1="0" x2="89.34895833333333" y2="177" fill="rgb(0, 0, 0)" stroke="rgb(66, 66, 66)" stroke-width="1px" opacity="0.25"></line><line x1="111.68619791666667" y1="0" x2="111.68619791666667" y2="177" fill="rgb(0, 0, 0)" stroke="rgb(66, 66, 66)" stroke-width="1px" opacity="0.25"></line><line x1="134.0234375" y1="0" x2="134.0234375" y2="177" fill="rgb(0, 0, 0)" stroke="rgb(66, 66, 66)" stroke-width="1px" opacity="0.25"></line><line x1="156.36067708333334" y1="0" x2="156.36067708333334" y2="177" fill="rgb(0, 0, 0)" stroke="rgb(66, 66, 66)" stroke-width="1px" opacity="0.25"></line><line x1="178.69791666666666" y1="0" x2="178.69791666666666" y2="177" fill="rgb(0, 0, 0)" stroke="rgb(66, 66, 66)" stroke-width="1px" opacity="0.25"></line><line x1="201.03515625" y1="0" x2="201.03515625" y2="177" fill="rgb(0, 0, 0)" stroke="rgb(66, 66, 66)" stroke-width="1px" opacity="0.25"></line><line x1="223.37239583333334" y1="0" x2="223.37239583333334" y2="177" fill="rgb(0, 0, 0)" stroke="rgb(66, 66, 66)" stroke-width="1px" opacity="0.25"></line><line x1="245.70963541666666" y1="0" x2="245.70963541666666" y2="177" fill="rgb(0, 0, 0)" stroke="rgb(66, 66, 66)" stroke-width="1px" opacity="0.25"></line><line x1="268.046875" y1="0" x2="268.046875" y2="177" fill="rgb(0, 0, 0)" stroke="rgb(66, 66, 66)" stroke-width="1px" opacity="0.25"></line></g><g><line x1="0" y1="151.71428571428575" x2="268.046875" y2="151.71428571428575" fill="rgb(0, 0, 0)" stroke="rgb(66, 66, 66)" stroke-width="1px" opacity="0.25"></line><line x1="0" y1="126.42857142857144" x2="268.046875" y2="126.42857142857144" fill="rgb(0, 0, 0)" stroke="rgb(66, 66, 66)" stroke-width="1px" opacity="0.25"></line><line x1="0" y1="101.14285714285714" x2="268.046875" y2="101.14285714285714" fill="rgb(0, 0, 0)" stroke="rgb(66, 66, 66)" stroke-width="1px" opacity="0.25"></line><line x1="0" y1="75.85714285714288" x2="268.046875" y2="75.85714285714288" fill="rgb(0, 0, 0)" stroke="rgb(66, 66, 66)" stroke-width="1px" opacity="0.25"></line><line x1="0" y1="50.57142857142857" x2="268.046875" y2="50.57142857142857" fill="rgb(0, 0, 0)" stroke="rgb(66, 66, 66)" stroke-width="1px" opacity="0.25"></line><line x1="0" y1="25.285714285714256" x2="268.046875" y2="25.285714285714256" fill="rgb(0, 0, 0)" stroke="rgb(66, 66, 66)" stroke-width="1px" opacity="0.25"></line><line x1="0" y1="0" x2="268.046875" y2="0" fill="rgb(0, 0, 0)" stroke="rgb(66, 66, 66)" stroke-width="1px" opacity="0.25"></line></g></g></g><g><g><line x1="0" y1="531.0000000000001" x2="268.046875" y2="531.0000000000001" fill="rgb(0, 0, 0)" stroke="rgb(153, 153, 153)" stroke-width="1.5px"></line></g></g><g><g><line x1="22.337239583333332" y1="0" x2="22.337239583333332" y2="177" fill="rgb(0, 0, 0)" stroke="rgb(153, 153, 153)" stroke-width="1.5px"></line></g></g><g><g><g><g><g><path stroke="rgb(255, 112, 67)" stroke-width="2px" d="M33.505859375,233.5687694795174L34.62272135416667,161.41419882309032L35.739583333333336,130.28168934305003L36.8564453125,117.06159190183484L37.973307291666664,113.35115054028898L39.090169270833336,112.8562420922596L40.20703125,114.23488537937091L41.32389322916667,117.82466262947744L42.44075520833333,40.398535652080575L43.5576171875,60.33424430546226L44.674479166666664,79.45854357608879L45.791341145833336,92.87814238875465L46.908203125,104.18285540815526L48.025065104166664,112.12171375966534L49.14192708333333,116.22809594071414L50.2587890625,115.13114963413732L51.37565104166667,116.46324891508655L52.492513020833336,116.65425241692745L53.609375,118.3638378602031L54.726236979166664,119.81936637108298L55.843098958333336,120.77815340394936L56.9599609375,121.09806970433014L58.07682291666667,120.77171190059667L59.19368489583333,122.35452555000768L60.310546875,120.7110181785984L61.427408854166664,122.08085433863823L62.544270833333336,120.0182442976556L63.6611328125,115.0512906567086L64.77799479166667,113.22435648606609L65.89485677083333,113.11828542376176L67.01171875,111.49794180548918L68.12858072916666,111.87874583163932L69.24544270833334,111.54423385187943L70.3623046875,116.83053288720951L71.47916666666667,115.55978841848187L72.59602864583333,116.92223676531268L73.712890625,116.31414156928805L74.82975260416667,115.96498891320459L75.94661458333333,111.42720002798248L77.0634765625,107.58831928458848L78.18033854166667,108.88404045788008L79.29720052083333,107.7865985870418L80.4140625,105.77666055883438L81.53092447916666,108.96928832367901L82.64778645833334,112.67063708480381L83.7646484375,112.6126264909619L84.88151041666666,114.83367107985785L85.99837239583334,114.47482785731424L87.115234375,110.97823897093407L88.23209635416667,115.13191224986278L89.34895833333333,111.95866390720232L90.4658203125,109.21760078888828L91.58268229166667,106.59827651666899L92.69954427083333,108.06276732054017L93.81640625,109.38427637437985L94.93326822916667,110.43674249388489L96.05013020833333,110.35879346350602L97.1669921875,108.39463288131653L98.28385416666666,105.05005120362814L99.40071614583334,96.5715719818063L100.517578125,88.87864405523803L101.63444010416666,96.67229053827478L102.75130208333334,98.14464770910266L103.8681640625,103.94336253413121L104.98502604166667,106.25985841926511L106.10188802083333,98.16270884006022L107.21875,93.72486761714865L108.33561197916667,96.19161378361575L109.45247395833333,96.487135142194L110.5693359375,95.28742892663372L111.68619791666667,89.86779641240398L112.80305989583333,85.95673094979945L113.919921875,90.98176891764926L115.03678385416666,93.34017339274416L116.15364583333334,96.07512934589037L117.2705078125,106.14064222836964L118.38736979166666,109.33468434797977L119.50423177083334,109.07516755641424L120.62109375,108.10874856699063L121.73795572916667,110.7455235620225L122.85481770833333,107.83442456466122L123.9716796875,108.85170517699646L125.08854166666667,107.88706074131994L126.20540364583333,98.70370617748526L127.322265625,92.7247750986377L128.43912760416669,87.61250118188615L129.55598958333334,91.95814002105837L130.6728515625,97.53164697361393L131.78971354166666,82.97694532250232L132.90657552083334,82.99069553206996L134.0234375,23.095000671603362L135.14029947916666,1.4330749078143428L136.25716145833331,42.73649147020794L137.3740234375,65.22407738146536L138.49088541666669,76.72629189699161L139.60774739583334,72.1910047645781L140.724609375,70.18293862349559L141.84147135416666,67.70346033713427L142.95833333333334,69.38191036240411L144.0751953125,70.44456392270592L145.19205729166666,76.5158695971931L146.30891927083331,83.36023807331293L147.42578125,87.59945786563888L148.54264322916669,90.82631467408653L149.65950520833334,96.53917089393055L150.7763671875,102.70333429322255L151.89322916666666,104.96393967442795L153.01009114583331,108.62677888309238L154.126953125,90.95149615972977L155.24381510416669,84.81876726234654L156.36067708333334,78.95337634000852L157.4775390625,74.27647278734254L158.59440104166666,77.93458542670305L159.71126302083334,76.2364194888034L160.828125,76.04645023590415L161.94498697916666,78.21351911078405L163.06184895833331,74.8586385302489L164.1787109375,81.94353683309228L165.29557291666669,76.47733272196166L166.41243489583334,66.67805829692671L167.529296875,57.124086721745115L168.64615885416666,51.7043913609683L169.76302083333331,59.25728887530989L170.8798828125,41.51692088969247L171.99674479166669,27.45859236691157L173.11360677083334,38.22522330813433L174.23046875,43.92755956967371L175.34733072916666,48.58237948471978L176.46419270833334,57.490350615282324L177.5810546875,59.464280652922916L178.69791666666666,62.62413031845928L179.81477864583331,47.85468259617894L180.931640625,43.99072522960088L182.04850260416669,54.8270829688599L183.16536458333334,43.829410127210885L184.2822265625,39.87947990552513L185.39908854166666,58.213412692199014L186.51595052083331,62.25589712946324L187.6328125,65.50813273993641L188.74967447916669,60.69424227548717L189.86653645833334,50.4253235184393L190.9833984375,44.6534941525348L192.10026041666666,54.32618386675303L193.21712239583334,52.17503579846932L194.333984375,56.90238100694201L195.45084635416666,72.97080673902894L196.56770833333331,73.9493746543847L197.6845703125,70.26689130659153L198.80143229166669,51.34993411657359L199.91829427083334,26.253744117617554L201.03515625,13.788758341363495L202.15201822916666,19.015851808210765L203.26888020833331,-1.3280665680047814L204.3857421875,13.885994197386154L205.50260416666669,29.267127341049314L206.61946614583334,35.13386181951609L207.736328125,51.203304539175804L208.85319010416666,61.867900316235406L209.97005208333334,75.04726250258672L211.0869140625,76.11519497038053L212.20377604166666,79.63715042200083L213.32063802083331,62.628740163091884L214.4375,54.45210154738669L215.55436197916669,57.603501847136485L216.67122395833334,54.05897062806059L217.7880859375,45.837745258224324L218.90494791666666,47.52662592301081L220.02180989583331,51.9921476331652L221.138671875,51.165733521419796L222.25553385416669,46.77333988263494L223.37239583333334,50.39911575879368L224.4892578125,53.59996807776179L225.60611979166666,61.61314738939149L226.72298177083334,66.33389672215468L227.83984375,71.30564966544917L228.95670572916666,63.56724144664647L230.07356770833331,56.51419467545465L231.1904296875,51.05919704753873L232.30729166666669,60.75541602665272L233.42415364583334,71.36138045588442L234.541015625,70.75981943487709L235.65787760416666,65.5840486532936L236.77473958333331,58.34633844686772L237.8916015625,45.7530072341243L239.00846354166669,37.360798681371215L240.12532552083334,27.627473340047217L241.2421875,18.513941912931152L242.35904947916666,17.459726241960976L243.47591145833334,4.663503615698142L244.5927734375,-27.333085960959785L245.70963541666666,7.852877488501742" style="fill: none;" fill="none"></path></g></g></g></g><g opacity="0.2"><g><g><g><path stroke="rgb(255, 112, 67)" stroke-width="2px" d="M33.505859375,-19.742126788411845L34.62272135416667,53.83677948372704L35.739583333333336,83.75234686476844L36.8564453125,97.27461165189743L37.973307291666664,107.79275763886316L39.090169270833336,112.11446116651808L40.20703125,116.30187798397883L41.32389322916667,123.2078094312123L42.44075520833333,-75.72099632876264L43.5576171875,90.23477028097426L44.674479166666664,108.14324444532394L45.791341145833336,113.0068046450615L46.908203125,121.13955295085908L48.025065104166664,124.02984454802106L49.14192708333333,122.38762056827547L50.2587890625,113.48573797089713L51.37565104166667,118.4613921557154L52.492513020833336,116.94075718096326L53.609375,120.92821340050017L54.726236979166664,122.0026577966554L55.843098958333336,122.21633342334204L56.9599609375,121.57794404881342L58.07682291666667,120.28217525993078L59.19368489583333,124.72874583516806L60.310546875,118.24575723920553L61.427408854166664,124.13560851982663L62.544270833333336,116.92432928936823L63.6611328125,107.60086027213507L64.77799479166667,110.4839552470616L65.89485677083333,112.95917883089612L67.01171875,109.06742638349533L68.12858072916666,112.44995187010085L69.24544270833334,111.04246588264196L70.3623046875,124.75998143638884L71.47916666666667,113.65367171594076L72.59602864583333,118.96590928520476L73.712890625,115.40199877534597L74.82975260416667,115.44125992911204L75.94661458333333,104.62051670040404L77.0634765625,101.82999816962652L78.18033854166667,110.82762221779143L79.29720052083333,106.1404357807977L80.4140625,102.76175351653781L81.53092447916666,113.758229970932L82.64778645833334,118.22266022648131L83.7646484375,112.52561060019903L84.88151041666666,118.16523796319963L85.99837239583334,113.93656302349909L87.115234375,105.73335564136505L88.23209635416667,121.36242216825487L89.34895833333333,107.19879139321192L90.4658203125,105.10600611141751L91.58268229166667,102.66929010834014L92.69954427083333,110.25950352634703L93.81640625,111.36653995513916L94.93326822916667,112.0154416731426L96.05013020833333,110.24186991793769L97.1669921875,105.44839200803213L98.28385416666666,100.03317868709564L99.40071614583334,83.85385314907347L100.517578125,77.33925216538566L101.63444010416666,108.36276026282992L102.75130208333334,100.35318346534457L103.8681640625,112.64143477167403L104.98502604166667,109.7346022469657L106.10188802083333,86.016984471253L107.21875,87.06810578278133L108.33561197916667,99.89173303331648L109.45247395833333,96.93041718006134L110.5693359375,93.48786960329329L111.68619791666667,81.73834764105933L112.80305989583333,80.09013275589263L113.919921875,98.51932586942401L115.03678385416666,96.87778010538648L116.15364583333334,100.17756327560971L117.2705078125,121.23891155208861L118.38736979166666,114.12574752739499L119.50423177083334,108.68589236906598L120.62109375,106.65912008285522L121.73795572916667,114.70068605457037L122.85481770833333,103.46777606861933L123.9716796875,110.37762609549932L125.08854166666667,106.44009408780508L126.20540364583333,84.92867433173316L127.322265625,83.75637848036631L128.43912760416669,79.94409030675888L129.55598958333334,98.47659827981677L130.6728515625,105.8919074024473L131.78971354166666,61.144892845835L132.90657552083334,83.01132084642138L134.0234375,-66.7485416190965L135.14029947916666,-31.0598137378693L136.25716145833331,104.6916163137981L137.3740234375,98.95545624835151L138.49088541666669,93.979613670281L139.60774739583334,65.38807406595775L140.724609375,67.17083941187177L141.84147135416666,63.98424290759223L142.95833333333334,71.89958540030888L144.0751953125,72.03854426315853L145.19205729166666,85.62282810892378L146.30891927083331,93.6267907874925L147.42578125,93.95828755412784L148.54264322916669,95.666599886758L149.65950520833334,105.10845522369658L150.7763671875,111.9495793921607L151.89322916666666,108.35484774623599L153.01009114583331,114.12103769608908L154.126953125,64.43857207468578L155.24381510416669,75.61967391627175L156.36067708333334,70.15528995650155L157.4775390625,67.2611174583435L158.59440104166666,83.42175438574382L159.71126302083334,73.68917058195387L160.828125,75.7614963565554L161.94498697916666,81.46412242310389L163.06184895833331,69.82631765944618L164.1787109375,92.57088428735733L165.29557291666669,68.2780265552657L166.41243489583334,51.97914665937424L167.529296875,42.79312935897282L168.64615885416666,43.57484831980297L169.76302083333331,70.58663514682225L170.8798828125,14.906368911266307L171.99674479166669,6.371099582740225L173.11360677083334,54.375169719968525L174.23046875,52.48106396198273L175.34733072916666,55.5646093572889L176.46419270833334,70.85230731112617L177.5810546875,62.42517570938382L178.69791666666666,67.36390481676374L179.81477864583331,25.700511012758525L180.931640625,38.19478917973382L182.04850260416669,71.08161957774844L183.16536458333334,27.332900864737365L184.2822265625,33.95458457299641L185.39908854166666,85.71431187220982L186.51595052083331,68.31962378535952L187.6328125,70.3864861556462L188.74967447916669,53.47340657881328L189.86653645833334,35.02194538286752L190.9833984375,35.99575010367802L192.10026041666666,68.83521843808037L193.21712239583334,48.948313696043826L194.333984375,63.99339881965092L195.45084635416666,97.0734453371593L196.56770833333331,75.4172265274184L197.6845703125,64.74316628490176L198.80143229166669,22.974498331546762L199.91829427083334,-11.390540880816335L201.03515625,-4.908720323017699L202.15201822916666,26.85649200848169L203.26888020833331,-31.843944132328073L204.3857421875,36.707085345472606L205.50260416666669,52.33882705654416L206.61946614583334,43.93396353721619L207.736328125,75.30746861866542L208.85319010416666,77.8647939818246L209.97005208333334,94.81630578211377L211.0869140625,77.71709367207119L212.20377604166666,84.92008359943118L213.32063802083331,37.11612477472848L214.4375,42.18714362382889L215.55436197916669,62.3306022967611L216.67122395833334,48.74217379944665L217.7880859375,33.50590720346994L218.90494791666666,50.05994692019054L220.02180989583331,58.69043019839695L221.138671875,49.92611235380173L222.25553385416669,40.18474942445755L223.37239583333334,55.83777957303184L224.4892578125,58.40124655621392L225.60611979166666,73.63291635683605L226.72298177083334,73.41502072129931L227.83984375,78.76327908039093L228.95670572916666,51.959629118442535L230.07356770833331,45.93462451866695L231.1904296875,42.87670060566494L232.30729166666669,75.29974449532372L233.42415364583334,87.270327099732L234.541015625,69.85747790336609L235.65787760416666,57.82039248091834L236.77473958333331,47.48977313722882L237.8916015625,26.863010415009086L239.00846354166669,24.772485852241495L240.12532552083334,13.027485328061228L241.2421875,4.843644772257101L242.35904947916666,15.878402735505768L243.47591145833334,-14.530830323696176L244.5927734375,-75.32797032594685L245.70963541666666,60.63182266269412" style="fill: none;" fill="none"></path></g></g></g></g></g></g><g transform="translate(61, 177)" clip-path="url(#clip_1)"><clipPath id="clip_1"><rect width="268" height="23"></rect></clipPath><g><g><line x1="0" y1="0" x2="0" y2="5" style="visibility: inherit;" fill="rgb(0, 0, 0)" stroke="rgb(204, 204, 204)" stroke-width="1px"></line><line x1="22.337239583333332" y1="0" x2="22.337239583333332" y2="5" style="visibility: inherit;" fill="rgb(0, 0, 0)" stroke="rgb(204, 204, 204)" stroke-width="1px"></line><line x1="44.674479166666664" y1="0" x2="44.674479166666664" y2="5" style="visibility: inherit;" fill="rgb(0, 0, 0)" stroke="rgb(204, 204, 204)" stroke-width="1px"></line><line x1="67.01171875" y1="0" x2="67.01171875" y2="5" style="visibility: inherit;" fill="rgb(0, 0, 0)" stroke="rgb(204, 204, 204)" stroke-width="1px"></line><line x1="89.34895833333333" y1="0" x2="89.34895833333333" y2="5" style="visibility: inherit;" fill="rgb(0, 0, 0)" stroke="rgb(204, 204, 204)" stroke-width="1px"></line><line x1="111.68619791666667" y1="0" x2="111.68619791666667" y2="5" style="visibility: inherit;" fill="rgb(0, 0, 0)" stroke="rgb(204, 204, 204)" stroke-width="1px"></line><line x1="134.0234375" y1="0" x2="134.0234375" y2="5" style="visibility: inherit;" fill="rgb(0, 0, 0)" stroke="rgb(204, 204, 204)" stroke-width="1px"></line><line x1="156.36067708333334" y1="0" x2="156.36067708333334" y2="5" style="visibility: inherit;" fill="rgb(0, 0, 0)" stroke="rgb(204, 204, 204)" stroke-width="1px"></line><line x1="178.69791666666666" y1="0" x2="178.69791666666666" y2="5" style="visibility: inherit;" fill="rgb(0, 0, 0)" stroke="rgb(204, 204, 204)" stroke-width="1px"></line><line x1="201.03515625" y1="0" x2="201.03515625" y2="5" style="visibility: inherit;" fill="rgb(0, 0, 0)" stroke="rgb(204, 204, 204)" stroke-width="1px"></line><line x1="223.37239583333334" y1="0" x2="223.37239583333334" y2="5" style="visibility: inherit;" fill="rgb(0, 0, 0)" stroke="rgb(204, 204, 204)" stroke-width="1px"></line><line x1="245.70963541666666" y1="0" x2="245.70963541666666" y2="5" style="visibility: inherit;" fill="rgb(0, 0, 0)" stroke="rgb(204, 204, 204)" stroke-width="1px"></line><line x1="268.046875" y1="0" x2="268.046875" y2="5" style="visibility: inherit;" fill="rgb(0, 0, 0)" stroke="rgb(204, 204, 204)" stroke-width="1px"></line></g><g transform="translate(0, 8)"><text x="0" y="0" dx="0em" dy="0.95em" style="text-anchor: middle; visibility: hidden; font-family: Roboto, sans-serif; font-size: 12px; font-weight: 200;" fill="rgb(33, 33, 33)" stroke="none" stroke-width="1px">-20</text><text x="22.337239583333332" y="0" dx="0em" dy="0.95em" style="text-anchor: middle; visibility: inherit; font-family: Roboto, sans-serif; font-size: 12px; font-weight: 200;" fill="rgb(33, 33, 33)" stroke="none" stroke-width="1px">0</text><text x="44.674479166666664" y="0" dx="0em" dy="0.95em" style="text-anchor: middle; visibility: hidden; font-family: Roboto, sans-serif; font-size: 12px; font-weight: 200;" fill="rgb(33, 33, 33)" stroke="none" stroke-width="1px">20</text><text x="67.01171875" y="0" dx="0em" dy="0.95em" style="text-anchor: middle; visibility: inherit; font-family: Roboto, sans-serif; font-size: 12px; font-weight: 200;" fill="rgb(33, 33, 33)" stroke="none" stroke-width="1px">40</text><text x="89.34895833333333" y="0" dx="0em" dy="0.95em" style="text-anchor: middle; visibility: hidden; font-family: Roboto, sans-serif; font-size: 12px; font-weight: 200;" fill="rgb(33, 33, 33)" stroke="none" stroke-width="1px">60</text><text x="111.68619791666667" y="0" dx="0em" dy="0.95em" style="text-anchor: middle; visibility: inherit; font-family: Roboto, sans-serif; font-size: 12px; font-weight: 200;" fill="rgb(33, 33, 33)" stroke="none" stroke-width="1px">80</text><text x="134.0234375" y="0" dx="0em" dy="0.95em" style="text-anchor: middle; visibility: hidden; font-family: Roboto, sans-serif; font-size: 12px; font-weight: 200;" fill="rgb(33, 33, 33)" stroke="none" stroke-width="1px">100</text><text x="156.36067708333334" y="0" dx="0em" dy="0.95em" style="text-anchor: middle; visibility: inherit; font-family: Roboto, sans-serif; font-size: 12px; font-weight: 200;" fill="rgb(33, 33, 33)" stroke="none" stroke-width="1px">120</text><text x="178.69791666666666" y="0" dx="0em" dy="0.95em" style="text-anchor: middle; visibility: hidden; font-family: Roboto, sans-serif; font-size: 12px; font-weight: 200;" fill="rgb(33, 33, 33)" stroke="none" stroke-width="1px">140</text><text x="201.03515625" y="0" dx="0em" dy="0.95em" style="text-anchor: middle; visibility: inherit; font-family: Roboto, sans-serif; font-size: 12px; font-weight: 200;" fill="rgb(33, 33, 33)" stroke="none" stroke-width="1px">160</text><text x="223.37239583333334" y="0" dx="0em" dy="0.95em" style="text-anchor: middle; visibility: hidden; font-family: Roboto, sans-serif; font-size: 12px; font-weight: 200;" fill="rgb(33, 33, 33)" stroke="none" stroke-width="1px">180</text><text x="245.70963541666666" y="0" dx="0em" dy="0.95em" style="text-anchor: middle; visibility: inherit; font-family: Roboto, sans-serif; font-size: 12px; font-weight: 200;" fill="rgb(33, 33, 33)" stroke="none" stroke-width="1px">200</text><text x="268.046875" y="0" dx="0em" dy="0.95em" style="text-anchor: middle; visibility: hidden; font-family: Roboto, sans-serif; font-size: 12px; font-weight: 200;" fill="rgb(33, 33, 33)" stroke="none" stroke-width="1px">220</text></g><line x1="0" y1="0" x2="268.046875" y2="0" fill="rgb(0, 0, 0)" stroke="rgb(204, 204, 204)" stroke-width="1px"></line></g></g></g></g></svg>