<svg viewBox="0 0 329.9884338378906 199.98843383789062" xmlns="http://www.w3.org/2000/svg"><g><g><g><g><g><line x1="61.953125" y1="176.988" x2="56.953125" y2="176.988" style="visibility: inherit;" fill="rgb(0, 0, 0)" stroke="rgb(204, 204, 204)" stroke-width="1px"></line><line x1="61.953125" y1="163.37353846153846" x2="56.953125" y2="163.37353846153846" style="visibility: inherit;" fill="rgb(0, 0, 0)" stroke="rgb(204, 204, 204)" stroke-width="1px"></line><line x1="61.953125" y1="149.75907692307692" x2="56.953125" y2="149.75907692307692" style="visibility: inherit;" fill="rgb(0, 0, 0)" stroke="rgb(204, 204, 204)" stroke-width="1px"></line><line x1="61.953125" y1="136.14461538461538" x2="56.953125" y2="136.14461538461538" style="visibility: inherit;" fill="rgb(0, 0, 0)" stroke="rgb(204, 204, 204)" stroke-width="1px"></line><line x1="61.953125" y1="122.53015384615384" x2="56.953125" y2="122.53015384615384" style="visibility: inherit;" fill="rgb(0, 0, 0)" stroke="rgb(204, 204, 204)" stroke-width="1px"></line><line x1="61.953125" y1="108.91569230769231" x2="56.953125" y2="108.91569230769231" style="visibility: inherit;" fill="rgb(0, 0, 0)" stroke="rgb(204, 204, 204)" stroke-width="1px"></line><line x1="61.953125" y1="95.30123076923077" x2="56.953125" y2="95.30123076923077" style="visibility: inherit;" fill="rgb(0, 0, 0)" stroke="rgb(204, 204, 204)" stroke-width="1px"></line><line x1="61.953125" y1="81.68676923076923" x2="56.953125" y2="81.68676923076923" style="visibility: inherit;" fill="rgb(0, 0, 0)" stroke="rgb(204, 204, 204)" stroke-width="1px"></line><line x1="61.953125" y1="68.07230769230769" x2="56.953125" y2="68.07230769230769" style="visibility: inherit;" fill="rgb(0, 0, 0)" stroke="rgb(204, 204, 204)" stroke-width="1px"></line><line x1="61.953125" y1="54.457846153846155" x2="56.953125" y2="54.457846153846155" style="visibility: inherit;" fill="rgb(0, 0, 0)" stroke="rgb(204, 204, 204)" stroke-width="1px"></line><line x1="61.953125" y1="40.84338461538463" x2="56.953125" y2="40.84338461538463" style="visibility: inherit;" fill="rgb(0, 0, 0)" stroke="rgb(204, 204, 204)" stroke-width="1px"></line><line x1="61.953125" y1="27.228923076923078" x2="56.953125" y2="27.228923076923078" style="visibility: inherit;" fill="rgb(0, 0, 0)" stroke="rgb(204, 204, 204)" stroke-width="1px"></line><line x1="61.953125" y1="13.61446153846155" x2="56.953125" y2="13.61446153846155" style="visibility: inherit;" fill="rgb(0, 0, 0)" stroke="rgb(204, 204, 204)" stroke-width="1px"></line><line x1="61.953125" y1="0" x2="56.953125" y2="0" style="visibility: inherit;" fill="rgb(0, 0, 0)" stroke="rgb(204, 204, 204)" stroke-width="1px"></line></g><g transform="translate(51.953125, 0)"><text x="0" y="176.988" dx="0em" dy="0.3em" style="text-anchor: end; visibility: hidden; font-family: Roboto, sans-serif; font-size: 12px; font-weight: 200;" fill="rgb(33, 33, 33)" stroke="none" stroke-width="1px">-0.02</text><text x="0" y="163.37353846153846" dx="0em" dy="0.3em" style="text-anchor: end; visibility: inherit; font-family: Roboto, sans-serif; font-size: 12px; font-weight: 200;" fill="rgb(33, 33, 33)" stroke="none" stroke-width="1px">0</text><text x="0" y="149.75907692307692" dx="0em" dy="0.3em" style="text-anchor: end; visibility: hidden; font-family: Roboto, sans-serif; font-size: 12px; font-weight: 200;" fill="rgb(33, 33, 33)" stroke="none" stroke-width="1px">0.02</text><text x="0" y="136.14461538461538" dx="0em" dy="0.3em" style="text-anchor: end; visibility: inherit; font-family: Roboto, sans-serif; font-size: 12px; font-weight: 200;" fill="rgb(33, 33, 33)" stroke="none" stroke-width="1px">0.04</text><text x="0" y="122.53015384615384" dx="0em" dy="0.3em" style="text-anchor: end; visibility: hidden; font-family: Roboto, sans-serif; font-size: 12px; font-weight: 200;" fill="rgb(33, 33, 33)" stroke="none" stroke-width="1px">0.06</text><text x="0" y="108.91569230769231" dx="0em" dy="0.3em" style="text-anchor: end; visibility: inherit; font-family: Roboto, sans-serif; font-size: 12px; font-weight: 200;" fill="rgb(33, 33, 33)" stroke="none" stroke-width="1px">0.08</text><text x="0" y="95.30123076923077" dx="0em" dy="0.3em" style="text-anchor: end; visibility: hidden; font-family: Roboto, sans-serif; font-size: 12px; font-weight: 200;" fill="rgb(33, 33, 33)" stroke="none" stroke-width="1px">0.1</text><text x="0" y="81.68676923076923" dx="0em" dy="0.3em" style="text-anchor: end; visibility: inherit; font-family: Roboto, sans-serif; font-size: 12px; font-weight: 200;" fill="rgb(33, 33, 33)" stroke="none" stroke-width="1px">0.12</text><text x="0" y="68.07230769230769" dx="0em" dy="0.3em" style="text-anchor: end; visibility: hidden; font-family: Roboto, sans-serif; font-size: 12px; font-weight: 200;" fill="rgb(33, 33, 33)" stroke="none" stroke-width="1px">0.14</text><text x="0" y="54.457846153846155" dx="0em" dy="0.3em" style="text-anchor: end; visibility: inherit; font-family: Roboto, sans-serif; font-size: 12px; font-weight: 200;" fill="rgb(33, 33, 33)" stroke="none" stroke-width="1px">0.16</text><text x="0" y="40.84338461538463" dx="0em" dy="0.3em" style="text-anchor: end; visibility: hidden; font-family: Roboto, sans-serif; font-size: 12px; font-weight: 200;" fill="rgb(33, 33, 33)" stroke="none" stroke-width="1px">0.18</text><text x="0" y="27.228923076923078" dx="0em" dy="0.3em" style="text-anchor: end; visibility: inherit; font-family: Roboto, sans-serif; font-size: 12px; font-weight: 200;" fill="rgb(33, 33, 33)" stroke="none" stroke-width="1px">0.2</text><text x="0" y="13.61446153846155" dx="0em" dy="0.3em" style="text-anchor: end; visibility: hidden; font-family: Roboto, sans-serif; font-size: 12px; font-weight: 200;" fill="rgb(33, 33, 33)" stroke="none" stroke-width="1px">0.22</text><text x="0" y="0" dx="0em" dy="0.3em" style="text-anchor: end; visibility: hidden; font-family: Roboto, sans-serif; font-size: 12px; font-weight: 200;" fill="rgb(33, 33, 33)" stroke="none" stroke-width="1px">0.24</text></g><line x1="61.953125" y1="0" x2="61.953125" y2="176.988" fill="rgb(0, 0, 0)" stroke="rgb(204, 204, 204)" stroke-width="1px"></line></g></g><g transform="translate(61, 0)" clip-path="url(#clip_0)"><clipPath id="clip_0"><rect width="268" height="176"></rect></clipPath><g><g><g><line x1="0" y1="0" x2="0" y2="176.988" fill="rgb(0, 0, 0)" stroke="rgb(66, 66, 66)" stroke-width="1px" opacity="0.25"></line><line x1="20.618067307692307" y1="0" x2="20.618067307692307" y2="176.988" fill="rgb(0, 0, 0)" stroke="rgb(66, 66, 66)" stroke-width="1px" opacity="0.25"></line><line x1="41.236134615384614" y1="0" x2="41.236134615384614" y2="176.988" fill="rgb(0, 0, 0)" stroke="rgb(66, 66, 66)" stroke-width="1px" opacity="0.25"></line><line x1="61.85420192307693" y1="0" x2="61.85420192307693" y2="176.988" fill="rgb(0, 0, 0)" stroke="rgb(66, 66, 66)" stroke-width="1px" opacity="0.25"></line><line x1="82.47226923076923" y1="0" x2="82.47226923076923" y2="176.988" fill="rgb(0, 0, 0)" stroke="rgb(66, 66, 66)" stroke-width="1px" opacity="0.25"></line><line x1="103.09033653846154" y1="0" x2="103.09033653846154" y2="176.988" fill="rgb(0, 0, 0)" stroke="rgb(66, 66, 66)" stroke-width="1px" opacity="0.25"></line><line x1="123.70840384615386" y1="0" x2="123.70840384615386" y2="176.988" fill="rgb(0, 0, 0)" stroke="rgb(66, 66, 66)" stroke-width="1px" opacity="0.25"></line><line x1="144.32647115384614" y1="0" x2="144.32647115384614" y2="176.988" fill="rgb(0, 0, 0)" stroke="rgb(66, 66, 66)" stroke-width="1px" opacity="0.25"></line><line x1="164.94453846153846" y1="0" x2="164.94453846153846" y2="176.988" fill="rgb(0, 0, 0)" stroke="rgb(66, 66, 66)" stroke-width="1px" opacity="0.25"></line><line x1="185.56260576923077" y1="0" x2="185.56260576923077" y2="176.988" fill="rgb(0, 0, 0)" stroke="rgb(66, 66, 66)" stroke-width="1px" opacity="0.25"></line><line x1="206.18067307692309" y1="0" x2="206.18067307692309" y2="176.988" fill="rgb(0, 0, 0)" stroke="rgb(66, 66, 66)" stroke-width="1px" opacity="0.25"></line><line x1="226.79874038461537" y1="0" x2="226.79874038461537" y2="176.988" fill="rgb(0, 0, 0)" stroke="rgb(66, 66, 66)" stroke-width="1px" opacity="0.25"></line><line x1="247.4168076923077" y1="0" x2="247.4168076923077" y2="176.988" fill="rgb(0, 0, 0)" stroke="rgb(66, 66, 66)" stroke-width="1px" opacity="0.25"></line><line x1="268.034875" y1="0" x2="268.034875" y2="176.988" fill="rgb(0, 0, 0)" stroke="rgb(66, 66, 66)" stroke-width="1px" opacity="0.25"></line></g><g><line x1="0" y1="176.988" x2="268.034875" y2="176.988" fill="rgb(0, 0, 0)" stroke="rgb(66, 66, 66)" stroke-width="1px" opacity="0.25"></line><line x1="0" y1="163.37353846153846" x2="268.034875" y2="163.37353846153846" fill="rgb(0, 0, 0)" stroke="rgb(66, 66, 66)" stroke-width="1px" opacity="0.25"></line><line x1="0" y1="149.75907692307692" x2="268.034875" y2="149.75907692307692" fill="rgb(0, 0, 0)" stroke="rgb(66, 66, 66)" stroke-width="1px" opacity="0.25"></line><line x1="0" y1="136.14461538461538" x2="268.034875" y2="136.14461538461538" fill="rgb(0, 0, 0)" stroke="rgb(66, 66, 66)" stroke-width="1px" opacity="0.25"></line><line x1="0" y1="122.53015384615384" x2="268.034875" y2="122.53015384615384" fill="rgb(0, 0, 0)" stroke="rgb(66, 66, 66)" stroke-width="1px" opacity="0.25"></line><line x1="0" y1="108.91569230769231" x2="268.034875" y2="108.91569230769231" fill="rgb(0, 0, 0)" stroke="rgb(66, 66, 66)" stroke-width="1px" opacity="0.25"></line><line x1="0" y1="95.30123076923077" x2="268.034875" y2="95.30123076923077" fill="rgb(0, 0, 0)" stroke="rgb(66, 66, 66)" stroke-width="1px" opacity="0.25"></line><line x1="0" y1="81.68676923076923" x2="268.034875" y2="81.68676923076923" fill="rgb(0, 0, 0)" stroke="rgb(66, 66, 66)" stroke-width="1px" opacity="0.25"></line><line x1="0" y1="68.07230769230769" x2="268.034875" y2="68.07230769230769" fill="rgb(0, 0, 0)" stroke="rgb(66, 66, 66)" stroke-width="1px" opacity="0.25"></line><line x1="0" y1="54.457846153846155" x2="268.034875" y2="54.457846153846155" fill="rgb(0, 0, 0)" stroke="rgb(66, 66, 66)" stroke-width="1px" opacity="0.25"></line><line x1="0" y1="40.84338461538463" x2="268.034875" y2="40.84338461538463" fill="rgb(0, 0, 0)" stroke="rgb(66, 66, 66)" stroke-width="1px" opacity="0.25"></line><line x1="0" y1="27.228923076923078" x2="268.034875" y2="27.228923076923078" fill="rgb(0, 0, 0)" stroke="rgb(66, 66, 66)" stroke-width="1px" opacity="0.25"></line><line x1="0" y1="13.61446153846155" x2="268.034875" y2="13.61446153846155" fill="rgb(0, 0, 0)" stroke="rgb(66, 66, 66)" stroke-width="1px" opacity="0.25"></line><line x1="0" y1="0" x2="268.034875" y2="0" fill="rgb(0, 0, 0)" stroke="rgb(66, 66, 66)" stroke-width="1px" opacity="0.25"></line></g></g></g><g><g><line x1="0" y1="163.37353846153846" x2="268.034875" y2="163.37353846153846" fill="rgb(0, 0, 0)" stroke="rgb(153, 153, 153)" stroke-width="1.5px"></line></g></g><g><g><line x1="20.618067307692307" y1="0" x2="20.618067307692307" y2="176.988" fill="rgb(0, 0, 0)" stroke="rgb(153, 153, 153)" stroke-width="1.5px"></line></g></g><g><g><g><g><g><path stroke="rgb(255, 112, 67)" stroke-width="2px" d="M22.67987403846154,160.7513091716732L24.741680769230772,161.3903239058904L26.803487500000003,161.69083768234617L28.865294230769234,161.9106188454577L30.927100961538464,162.04510396989198L32.98890769230769,162.16114373978658L35.050714423076926,162.23663887332592L37.11252115384615,162.2873520904559L39.17432788461539,162.34833005337296L41.236134615384614,162.3990043095575L43.29794134615385,162.44018808940996L45.35974807692308,162.48582889358505L47.42155480769231,162.51906676052815L49.483361538461544,162.53153071440096L51.54516826923077,162.56655477183932L53.606975000000006,162.58049713144183L55.66878173076923,162.59709568369993L57.73058846153847,162.6144565101649L59.792395192307694,162.624902532001L61.85420192307693,162.63962733875542L63.916008653846156,162.63402787188923L65.97781538461538,162.64852501411764L68.03962211538462,162.6701826974247L70.10142884615385,162.67899986818122L72.16323557692307,162.68819853372923L74.2250423076923,162.6954750284356L76.28684903846154,162.7006495187108L78.34865576923077,162.7124320499214L80.4104625,162.71455121752803L82.47226923076923,162.72447998219573L84.53407596153846,162.73462377442027L86.5958826923077,162.7464957482378L88.65768942307692,162.74579258526953L90.71949615384617,162.75081694167997L92.78130288461539,162.75233344605752L94.84310961538462,162.75455524438027L96.90491634615384,162.75590106621198L98.96672307692309,162.7636338559651L101.02852980769231,162.765068290268L103.09033653846154,162.77159034352815L105.15214326923076,162.7723723522734L107.21395000000001,162.7792373442513L109.27575673076923,162.785404911493L111.33756346153847,162.78226165240142L113.39937019230769,162.7728926469198L115.46117692307693,162.7778259234208L117.52298365384615,162.78988458724996L119.58479038461539,162.7959232570423L121.64659711538461,162.80146039100737L123.70840384615386,126.38240935425631L125.77021057692308,82.35119899162285L127.83201730769231,54.819236879642894L129.89382403846153,39.2064601161615L131.95563076923077,29.294311871148548L134.0174375,24.34856194606186L136.07924423076923,19.815363578310443L138.14105096153844,18.12957688037582L140.2028576923077,17.448371200293828L142.26466442307694,16.820924144008327L144.32647115384614,16.364958768123913L146.38827788461538,16.27114378907538L148.4500846153846,16.476501956564352L150.51189134615385,15.851730425752477L152.57369807692308,15.642041250861828L154.63550480769229,16.181199247021087L156.69731153846155,16.264754117395412L158.75911826923078,16.125190214977703L160.820925,15.844001308335626L162.88273173076922,15.553751834362243L164.94453846153846,16.226220543087585L167.0063451923077,15.792914517730647L169.06815192307693,15.817912312744767L171.12995865384613,15.66560304022859L173.1917653846154,15.392720709454753L175.25357211538463,15.380832353674112L177.31537884615383,15.349638805691828L179.37718557692307,15.118926240508271L181.43899230769233,15.312976337093511L183.50079903846154,14.825454519339676L185.56260576923077,15.2232637256736L187.62441249999998,15.487790993878514L189.68621923076924,14.82543045659344L191.74802596153847,14.80911190230903L193.80983269230768,14.824979929985613L195.8716394230769,15.44344731335668L197.93344615384618,15.31693722547328L199.99525288461538,15.158150137580385L202.05705961538462,15.4383317737561L204.11886634615382,15.182520916336147L206.18067307692309,14.949456111256625L208.24247980769232,15.279812007659983L210.30428653846153,15.154766381040268L212.36609326923076,15.070646314032077L214.42790000000002,15.204742512360609L216.48970673076923,15.590407908795429L218.55151346153846,15.707026630490397L220.61332019230767,15.50681388487643L222.67512692307693,15.86537726641478L224.73693365384617,15.705503665829706L226.79874038461537,15.238682105649682L228.8605471153846,15.55274236213517L230.92235384615387,15.579591536765657L232.98416057692307,15.371077896312087L235.0459673076923,15.251999046658456L237.10777403846154,15.171609170581513L239.16958076923078,15.452221484612156L241.2313875,15.385952001124148L243.29319423076922,15.492464565628467L245.35500096153845,15.0141336738127L247.4168076923077,15.517253878694982L249.47861442307692,16.048269119107207L251.54042115384615,15.973340428013312L253.6022278846154,15.911630102563063L255.66403461538462,15.65091396997645L257.72584134615386,15.555171206904177" style="fill: none;" fill="none"></path></g></g></g></g><g opacity="0.2"><g><g><g><path stroke="rgb(255, 112, 67)" stroke-width="2px" d="M22.67987403846154,160.7513091716732L24.741680769230772,161.77373274642073L26.803487500000003,161.97933090774373L28.865294230769234,162.16908149327682L30.927100961538464,162.22068774835344L32.98890769230769,162.321668515868L35.050714423076926,162.3445981222093L37.11252115384615,162.36129244787827L39.17432788461539,162.43826070431612L41.236134615384614,162.47424967421102L43.29794134615385,162.5015902253365L45.35974807692308,162.55404172460686L47.42155480769231,162.56881503354035L49.483361538461544,162.550202227027L51.54516826923077,162.6190496885321L53.606975000000006,162.60140083761343L55.66878173076923,162.62198648813603L57.73058846153847,162.64049334195042L59.792395192307694,162.64056997340882L61.85420192307693,162.66171320298142L63.916008653846156,162.62562897867804L65.97781538461538,162.6702702504256L68.03962211538462,162.70266879479215L70.10142884615385,162.69222551986817L72.16323557692307,162.70199646667103L74.2250423076923,162.70638973946424L76.28684903846154,162.70841124088355L78.34865576923077,162.73010582864833L80.4104625,162.7177299669859L82.47226923076923,162.7393731237098L84.53407596153846,162.74983945939326L86.5958826923077,162.76430370660205L88.65768942307692,162.74473784090102L90.71949615384617,162.75835347593576L92.78130288461539,162.75460820255864L94.84310961538462,162.75788794180713L96.90491634615384,162.75791979893873L98.96672307692309,162.77523304052303L101.02852980769231,162.7672199417143L103.09033653846154,162.78137342339662L105.15214326923076,162.77354536538974L107.21395000000001,162.78953483220988L109.27575673076923,162.79465626235114L111.33756346153847,162.77754676376534L113.39937019230769,162.75883913869978L115.46117692307693,162.7852258381716L117.52298365384615,162.80797258299248L119.58479038461539,162.80498126173043L121.64659711538461,162.80976609195486L123.70840384615386,71.75383279986566L125.77021057692308,16.304383448206472L127.83201730769231,13.521293711873211L129.89382403846153,15.787294971007581L131.95563076923077,14.426089503655083L134.0174375,16.929937058439624L136.07924423076923,13.015566026687642L138.14105096153844,15.60089683347484L140.2028576923077,16.42656268017109L142.26466442307694,15.87975355958022L144.32647115384614,15.6810107042973L146.38827788461538,16.13042132050259L148.4500846153846,16.78453920779779L150.51189134615385,14.914573129534741L152.57369807692308,15.327507488525839L154.63550480769229,16.989936241259944L156.69731153846155,16.390086422956916L158.75911826923078,15.915844361351091L160.820925,15.422217948372568L162.88273173076922,15.118377623402168L164.94453846153846,17.234923606175656L167.0063451923077,15.142955479695262L169.06815192307693,15.855409005265976L171.12995865384613,15.437139131454332L173.1917653846154,14.983397213293971L175.25357211538463,15.362999820003159L177.31537884615383,15.302848483718366L179.37718557692307,14.772857392732933L181.43899230769233,15.604051481971391L183.50079903846154,14.094171792708922L185.56260576923077,15.819977535174448L187.62441249999998,15.884581896185894L189.68621923076924,13.83188965066581L191.74802596153847,14.784634070882447L193.80983269230768,14.848781971500475L195.8716394230769,16.371148388413292L197.93344615384618,15.127172093648191L199.99525288461538,14.919969505741062L202.05705961538462,15.858604228019734L204.11886634615382,14.798804630206186L206.18067307692309,14.599858903637303L208.24247980769232,15.775345852265009L210.30428653846153,14.967197941110689L212.36609326923076,14.944466213519778L214.42790000000002,15.405886809853417L216.48970673076923,16.168906003447688L218.55151346153846,15.881954713032801L220.61332019230767,15.206494766455437L222.67512692307693,16.40322233872231L224.73693365384617,15.465693264952076L226.79874038461537,14.538449765379633L228.8605471153846,16.023832746863384L230.92235384615387,15.619865298711348L232.98416057692307,15.058307435631772L235.0459673076923,15.073380772178007L237.10777403846154,15.05102435646608L239.16958076923078,15.873139955658193L241.2313875,15.28654777589212L243.29319423076922,15.652233412385007L245.35500096153845,14.296637336089075L247.4168076923077,16.271934186018438L249.47861442307692,16.844791979725564L251.54042115384615,15.860947391372466L253.6022278846154,15.819064614387669L255.66403461538462,15.25983977109654L257.72584134615386,15.411557062295778" style="fill: none;" fill="none"></path></g></g></g></g></g></g><g transform="translate(61, 176)" clip-path="url(#clip_1)"><clipPath id="clip_1"><rect width="268" height="22"></rect></clipPath><g><g><line x1="0" y1="0" x2="0" y2="5" style="visibility: inherit;" fill="rgb(0, 0, 0)" stroke="rgb(204, 204, 204)" stroke-width="1px"></line><line x1="20.618067307692307" y1="0" x2="20.618067307692307" y2="5" style="visibility: inherit;" fill="rgb(0, 0, 0)" stroke="rgb(204, 204, 204)" stroke-width="1px"></line><line x1="41.236134615384614" y1="0" x2="41.236134615384614" y2="5" style="visibility: inherit;" fill="rgb(0, 0, 0)" stroke="rgb(204, 204, 204)" stroke-width="1px"></line><line x1="61.85420192307693" y1="0" x2="61.85420192307693" y2="5" style="visibility: inherit;" fill="rgb(0, 0, 0)" stroke="rgb(204, 204, 204)" stroke-width="1px"></line><line x1="82.47226923076923" y1="0" x2="82.47226923076923" y2="5" style="visibility: inherit;" fill="rgb(0, 0, 0)" stroke="rgb(204, 204, 204)" stroke-width="1px"></line><line x1="103.09033653846154" y1="0" x2="103.09033653846154" y2="5" style="visibility: inherit;" fill="rgb(0, 0, 0)" stroke="rgb(204, 204, 204)" stroke-width="1px"></line><line x1="123.70840384615386" y1="0" x2="123.70840384615386" y2="5" style="visibility: inherit;" fill="rgb(0, 0, 0)" stroke="rgb(204, 204, 204)" stroke-width="1px"></line><line x1="144.32647115384614" y1="0" x2="144.32647115384614" y2="5" style="visibility: inherit;" fill="rgb(0, 0, 0)" stroke="rgb(204, 204, 204)" stroke-width="1px"></line><line x1="164.94453846153846" y1="0" x2="164.94453846153846" y2="5" style="visibility: inherit;" fill="rgb(0, 0, 0)" stroke="rgb(204, 204, 204)" stroke-width="1px"></line><line x1="185.56260576923077" y1="0" x2="185.56260576923077" y2="5" style="visibility: inherit;" fill="rgb(0, 0, 0)" stroke="rgb(204, 204, 204)" stroke-width="1px"></line><line x1="206.18067307692309" y1="0" x2="206.18067307692309" y2="5" style="visibility: inherit;" fill="rgb(0, 0, 0)" stroke="rgb(204, 204, 204)" stroke-width="1px"></line><line x1="226.79874038461537" y1="0" x2="226.79874038461537" y2="5" style="visibility: inherit;" fill="rgb(0, 0, 0)" stroke="rgb(204, 204, 204)" stroke-width="1px"></line><line x1="247.4168076923077" y1="0" x2="247.4168076923077" y2="5" style="visibility: inherit;" fill="rgb(0, 0, 0)" stroke="rgb(204, 204, 204)" stroke-width="1px"></line><line x1="268.034875" y1="0" x2="268.034875" y2="5" style="visibility: inherit;" fill="rgb(0, 0, 0)" stroke="rgb(204, 204, 204)" stroke-width="1px"></line></g><g transform="translate(0, 8)"><text x="0" y="0" dx="0em" dy="0.95em" style="text-anchor: middle; visibility: hidden; font-family: Roboto, sans-serif; font-size: 12px; font-weight: 200;" fill="rgb(33, 33, 33)" stroke="none" stroke-width="1px">-10</text><text x="20.618067307692307" y="0" dx="0em" dy="0.95em" style="text-anchor: middle; visibility: inherit; font-family: Roboto, sans-serif; font-size: 12px; font-weight: 200;" fill="rgb(33, 33, 33)" stroke="none" stroke-width="1px">0</text><text x="41.236134615384614" y="0" dx="0em" dy="0.95em" style="text-anchor: middle; visibility: hidden; font-family: Roboto, sans-serif; font-size: 12px; font-weight: 200;" fill="rgb(33, 33, 33)" stroke="none" stroke-width="1px">10</text><text x="61.85420192307693" y="0" dx="0em" dy="0.95em" style="text-anchor: middle; visibility: inherit; font-family: Roboto, sans-serif; font-size: 12px; font-weight: 200;" fill="rgb(33, 33, 33)" stroke="none" stroke-width="1px">20</text><text x="82.47226923076923" y="0" dx="0em" dy="0.95em" style="text-anchor: middle; visibility: hidden; font-family: Roboto, sans-serif; font-size: 12px; font-weight: 200;" fill="rgb(33, 33, 33)" stroke="none" stroke-width="1px">30</text><text x="103.09033653846154" y="0" dx="0em" dy="0.95em" style="text-anchor: middle; visibility: inherit; font-family: Roboto, sans-serif; font-size: 12px; font-weight: 200;" fill="rgb(33, 33, 33)" stroke="none" stroke-width="1px">40</text><text x="123.70840384615386" y="0" dx="0em" dy="0.95em" style="text-anchor: middle; visibility: hidden; font-family: Roboto, sans-serif; font-size: 12px; font-weight: 200;" fill="rgb(33, 33, 33)" stroke="none" stroke-width="1px">50</text><text x="144.32647115384614" y="0" dx="0em" dy="0.95em" style="text-anchor: middle; visibility: inherit; font-family: Roboto, sans-serif; font-size: 12px; font-weight: 200;" fill="rgb(33, 33, 33)" stroke="none" stroke-width="1px">60</text><text x="164.94453846153846" y="0" dx="0em" dy="0.95em" style="text-anchor: middle; visibility: hidden; font-family: Roboto, sans-serif; font-size: 12px; font-weight: 200;" fill="rgb(33, 33, 33)" stroke="none" stroke-width="1px">70</text><text x="185.56260576923077" y="0" dx="0em" dy="0.95em" style="text-anchor: middle; visibility: inherit; font-family: Roboto, sans-serif; font-size: 12px; font-weight: 200;" fill="rgb(33, 33, 33)" stroke="none" stroke-width="1px">80</text><text x="206.18067307692309" y="0" dx="0em" dy="0.95em" style="text-anchor: middle; visibility: hidden; font-family: Roboto, sans-serif; font-size: 12px; font-weight: 200;" fill="rgb(33, 33, 33)" stroke="none" stroke-width="1px">90</text><text x="226.79874038461537" y="0" dx="0em" dy="0.95em" style="text-anchor: middle; visibility: inherit; font-family: Roboto, sans-serif; font-size: 12px; font-weight: 200;" fill="rgb(33, 33, 33)" stroke="none" stroke-width="1px">100</text><text x="247.4168076923077" y="0" dx="0em" dy="0.95em" style="text-anchor: middle; visibility: hidden; font-family: Roboto, sans-serif; font-size: 12px; font-weight: 200;" fill="rgb(33, 33, 33)" stroke="none" stroke-width="1px">110</text><text x="268.034875" y="0" dx="0em" dy="0.95em" style="text-anchor: middle; visibility: hidden; font-family: Roboto, sans-serif; font-size: 12px; font-weight: 200;" fill="rgb(33, 33, 33)" stroke="none" stroke-width="1px">120</text></g><line x1="0" y1="0" x2="268.034875" y2="0" fill="rgb(0, 0, 0)" stroke="rgb(204, 204, 204)" stroke-width="1px"></line></g></g></g></g></svg>