<svg viewBox="0 0 330.0000305175781 200.00001525878906" xmlns="http://www.w3.org/2000/svg"><g><g><g><g><g><line x1="72.34375" y1="177" x2="67.34375" y2="177" style="visibility: inherit;" fill="rgb(0, 0, 0)" stroke="rgb(204, 204, 204)" stroke-width="1px"></line><line x1="72.34375" y1="160.9090909090909" x2="67.34375" y2="160.9090909090909" style="visibility: inherit;" fill="rgb(0, 0, 0)" stroke="rgb(204, 204, 204)" stroke-width="1px"></line><line x1="72.34375" y1="144.8181818181818" x2="67.34375" y2="144.8181818181818" style="visibility: inherit;" fill="rgb(0, 0, 0)" stroke="rgb(204, 204, 204)" stroke-width="1px"></line><line x1="72.34375" y1="128.72727272727272" x2="67.34375" y2="128.72727272727272" style="visibility: inherit;" fill="rgb(0, 0, 0)" stroke="rgb(204, 204, 204)" stroke-width="1px"></line><line x1="72.34375" y1="112.63636363636361" x2="67.34375" y2="112.63636363636361" style="visibility: inherit;" fill="rgb(0, 0, 0)" stroke="rgb(204, 204, 204)" stroke-width="1px"></line><line x1="72.34375" y1="96.54545454545453" x2="67.34375" y2="96.54545454545453" style="visibility: inherit;" fill="rgb(0, 0, 0)" stroke="rgb(204, 204, 204)" stroke-width="1px"></line><line x1="72.34375" y1="80.45454545454544" x2="67.34375" y2="80.45454545454544" style="visibility: inherit;" fill="rgb(0, 0, 0)" stroke="rgb(204, 204, 204)" stroke-width="1px"></line><line x1="72.34375" y1="64.36363636363635" x2="67.34375" y2="64.36363636363635" style="visibility: inherit;" fill="rgb(0, 0, 0)" stroke="rgb(204, 204, 204)" stroke-width="1px"></line><line x1="72.34375" y1="48.27272727272725" x2="67.34375" y2="48.27272727272725" style="visibility: inherit;" fill="rgb(0, 0, 0)" stroke="rgb(204, 204, 204)" stroke-width="1px"></line><line x1="72.34375" y1="32.18181818181815" x2="67.34375" y2="32.18181818181815" style="visibility: inherit;" fill="rgb(0, 0, 0)" stroke="rgb(204, 204, 204)" stroke-width="1px"></line><line x1="72.34375" y1="16.090909090909058" x2="67.34375" y2="16.090909090909058" style="visibility: inherit;" fill="rgb(0, 0, 0)" stroke="rgb(204, 204, 204)" stroke-width="1px"></line><line x1="72.34375" y1="0" x2="67.34375" y2="0" style="visibility: inherit;" fill="rgb(0, 0, 0)" stroke="rgb(204, 204, 204)" stroke-width="1px"></line></g><g transform="translate(62.34375, 0)"><text x="0" y="177" dx="0em" dy="0.3em" style="text-anchor: end; visibility: hidden; font-family: Roboto, sans-serif; font-size: 12px; font-weight: 200;" fill="rgb(33, 33, 33)" stroke="none" stroke-width="1px">7e-4</text><text x="0" y="160.9090909090909" dx="0em" dy="0.3em" style="text-anchor: end; visibility: inherit; font-family: Roboto, sans-serif; font-size: 12px; font-weight: 200;" fill="rgb(33, 33, 33)" stroke="none" stroke-width="1px">8e-4</text><text x="0" y="144.8181818181818" dx="0em" dy="0.3em" style="text-anchor: end; visibility: hidden; font-family: Roboto, sans-serif; font-size: 12px; font-weight: 200;" fill="rgb(33, 33, 33)" stroke="none" stroke-width="1px">9e-4</text><text x="0" y="128.72727272727272" dx="0em" dy="0.3em" style="text-anchor: end; visibility: inherit; font-family: Roboto, sans-serif; font-size: 12px; font-weight: 200;" fill="rgb(33, 33, 33)" stroke="none" stroke-width="1px">1e-3</text><text x="0" y="112.63636363636361" dx="0em" dy="0.3em" style="text-anchor: end; visibility: hidden; font-family: Roboto, sans-serif; font-size: 12px; font-weight: 200;" fill="rgb(33, 33, 33)" stroke="none" stroke-width="1px">1.1e-3</text><text x="0" y="96.54545454545453" dx="0em" dy="0.3em" style="text-anchor: end; visibility: inherit; font-family: Roboto, sans-serif; font-size: 12px; font-weight: 200;" fill="rgb(33, 33, 33)" stroke="none" stroke-width="1px">1.2e-3</text><text x="0" y="80.45454545454544" dx="0em" dy="0.3em" style="text-anchor: end; visibility: hidden; font-family: Roboto, sans-serif; font-size: 12px; font-weight: 200;" fill="rgb(33, 33, 33)" stroke="none" stroke-width="1px">1.3e-3</text><text x="0" y="64.36363636363635" dx="0em" dy="0.3em" style="text-anchor: end; visibility: inherit; font-family: Roboto, sans-serif; font-size: 12px; font-weight: 200;" fill="rgb(33, 33, 33)" stroke="none" stroke-width="1px">1.4e-3</text><text x="0" y="48.27272727272725" dx="0em" dy="0.3em" style="text-anchor: end; visibility: hidden; font-family: Roboto, sans-serif; font-size: 12px; font-weight: 200;" fill="rgb(33, 33, 33)" stroke="none" stroke-width="1px">1.5e-3</text><text x="0" y="32.18181818181815" dx="0em" dy="0.3em" style="text-anchor: end; visibility: inherit; font-family: Roboto, sans-serif; font-size: 12px; font-weight: 200;" fill="rgb(33, 33, 33)" stroke="none" stroke-width="1px">1.6e-3</text><text x="0" y="16.090909090909058" dx="0em" dy="0.3em" style="text-anchor: end; visibility: hidden; font-family: Roboto, sans-serif; font-size: 12px; font-weight: 200;" fill="rgb(33, 33, 33)" stroke="none" stroke-width="1px">1.7e-3</text><text x="0" y="0" dx="0em" dy="0.3em" style="text-anchor: end; visibility: hidden; font-family: Roboto, sans-serif; font-size: 12px; font-weight: 200;" fill="rgb(33, 33, 33)" stroke="none" stroke-width="1px">1.8e-3</text></g><line x1="72.34375" y1="0" x2="72.34375" y2="177" fill="rgb(0, 0, 0)" stroke="rgb(204, 204, 204)" stroke-width="1px"></line></g></g><g transform="translate(72, 0)" clip-path="url(#clip_0)"><clipPath id="clip_0"><rect width="257" height="177"></rect></clipPath><g><g><g><line x1="0" y1="0" x2="0" y2="177" fill="rgb(0, 0, 0)" stroke="rgb(66, 66, 66)" stroke-width="1px" opacity="0.25"></line><line x1="21.471354166666664" y1="0" x2="21.471354166666664" y2="177" fill="rgb(0, 0, 0)" stroke="rgb(66, 66, 66)" stroke-width="1px" opacity="0.25"></line><line x1="42.94270833333333" y1="0" x2="42.94270833333333" y2="177" fill="rgb(0, 0, 0)" stroke="rgb(66, 66, 66)" stroke-width="1px" opacity="0.25"></line><line x1="64.4140625" y1="0" x2="64.4140625" y2="177" fill="rgb(0, 0, 0)" stroke="rgb(66, 66, 66)" stroke-width="1px" opacity="0.25"></line><line x1="85.88541666666666" y1="0" x2="85.88541666666666" y2="177" fill="rgb(0, 0, 0)" stroke="rgb(66, 66, 66)" stroke-width="1px" opacity="0.25"></line><line x1="107.35677083333334" y1="0" x2="107.35677083333334" y2="177" fill="rgb(0, 0, 0)" stroke="rgb(66, 66, 66)" stroke-width="1px" opacity="0.25"></line><line x1="128.828125" y1="0" x2="128.828125" y2="177" fill="rgb(0, 0, 0)" stroke="rgb(66, 66, 66)" stroke-width="1px" opacity="0.25"></line><line x1="150.29947916666669" y1="0" x2="150.29947916666669" y2="177" fill="rgb(0, 0, 0)" stroke="rgb(66, 66, 66)" stroke-width="1px" opacity="0.25"></line><line x1="171.77083333333331" y1="0" x2="171.77083333333331" y2="177" fill="rgb(0, 0, 0)" stroke="rgb(66, 66, 66)" stroke-width="1px" opacity="0.25"></line><line x1="193.2421875" y1="0" x2="193.2421875" y2="177" fill="rgb(0, 0, 0)" stroke="rgb(66, 66, 66)" stroke-width="1px" opacity="0.25"></line><line x1="214.71354166666669" y1="0" x2="214.71354166666669" y2="177" fill="rgb(0, 0, 0)" stroke="rgb(66, 66, 66)" stroke-width="1px" opacity="0.25"></line><line x1="236.18489583333331" y1="0" x2="236.18489583333331" y2="177" fill="rgb(0, 0, 0)" stroke="rgb(66, 66, 66)" stroke-width="1px" opacity="0.25"></line><line x1="257.65625" y1="0" x2="257.65625" y2="177" fill="rgb(0, 0, 0)" stroke="rgb(66, 66, 66)" stroke-width="1px" opacity="0.25"></line></g><g><line x1="0" y1="177" x2="257.65625" y2="177" fill="rgb(0, 0, 0)" stroke="rgb(66, 66, 66)" stroke-width="1px" opacity="0.25"></line><line x1="0" y1="160.9090909090909" x2="257.65625" y2="160.9090909090909" fill="rgb(0, 0, 0)" stroke="rgb(66, 66, 66)" stroke-width="1px" opacity="0.25"></line><line x1="0" y1="144.8181818181818" x2="257.65625" y2="144.8181818181818" fill="rgb(0, 0, 0)" stroke="rgb(66, 66, 66)" stroke-width="1px" opacity="0.25"></line><line x1="0" y1="128.72727272727272" x2="257.65625" y2="128.72727272727272" fill="rgb(0, 0, 0)" stroke="rgb(66, 66, 66)" stroke-width="1px" opacity="0.25"></line><line x1="0" y1="112.63636363636361" x2="257.65625" y2="112.63636363636361" fill="rgb(0, 0, 0)" stroke="rgb(66, 66, 66)" stroke-width="1px" opacity="0.25"></line><line x1="0" y1="96.54545454545453" x2="257.65625" y2="96.54545454545453" fill="rgb(0, 0, 0)" stroke="rgb(66, 66, 66)" stroke-width="1px" opacity="0.25"></line><line x1="0" y1="80.45454545454544" x2="257.65625" y2="80.45454545454544" fill="rgb(0, 0, 0)" stroke="rgb(66, 66, 66)" stroke-width="1px" opacity="0.25"></line><line x1="0" y1="64.36363636363635" x2="257.65625" y2="64.36363636363635" fill="rgb(0, 0, 0)" stroke="rgb(66, 66, 66)" stroke-width="1px" opacity="0.25"></line><line x1="0" y1="48.27272727272725" x2="257.65625" y2="48.27272727272725" fill="rgb(0, 0, 0)" stroke="rgb(66, 66, 66)" stroke-width="1px" opacity="0.25"></line><line x1="0" y1="32.18181818181815" x2="257.65625" y2="32.18181818181815" fill="rgb(0, 0, 0)" stroke="rgb(66, 66, 66)" stroke-width="1px" opacity="0.25"></line><line x1="0" y1="16.090909090909058" x2="257.65625" y2="16.090909090909058" fill="rgb(0, 0, 0)" stroke="rgb(66, 66, 66)" stroke-width="1px" opacity="0.25"></line><line x1="0" y1="0" x2="257.65625" y2="0" fill="rgb(0, 0, 0)" stroke="rgb(66, 66, 66)" stroke-width="1px" opacity="0.25"></line></g></g></g><g><g><line x1="0" y1="289.6363636363636" x2="257.65625" y2="289.6363636363636" fill="rgb(0, 0, 0)" stroke="rgb(153, 153, 153)" stroke-width="1.5px"></line></g></g><g><g><line x1="21.471354166666664" y1="0" x2="21.471354166666664" y2="177" fill="rgb(0, 0, 0)" stroke="rgb(153, 153, 153)" stroke-width="1.5px"></line></g></g><g><g><g><g><g><path stroke="rgb(255, 112, 67)" stroke-width="2px" d="M30.059895833333332,-5.10496610016686L31.133463541666668,4.561390682084848L32.20703125,12.59744997862342L33.280598958333336,22.422638128309362L34.354166666666664,27.93574278244161L35.427734375,33.33731223185719L36.501302083333336,39.737744648026016L37.57486979166667,46.68193125358354L38.6484375,50.331009867437324L39.722005208333336,54.22061766254452L40.795572916666664,57.954311380390955L41.869140625,60.1890020864053L42.94270833333333,63.87398052860996L44.016276041666664,68.44022547423322L45.08984375,71.82651031547225L46.163411458333336,74.57064706605932L47.236979166666664,78.04995799538074L48.310546875,78.9561754311901L49.384114583333336,81.92800197212225L50.457682291666664,82.95643760973603L51.53125,84.73018756979522L52.604817708333336,85.81896116343998L53.67838541666667,89.32790987909077L54.751953125,91.38371298302118L55.825520833333336,92.85071133683795L56.899088541666664,93.99528275197679L57.97265625,96.47217255344026L59.04622395833333,97.69154367997989L60.119791666666664,99.18034773227406L61.193359375,101.05955520343392L62.266927083333336,102.75794227715305L63.340494791666664,104.97256626743422L64.4140625,105.09211180694359L65.48763020833333,105.87973456003601L66.56119791666667,106.61148059463045L67.634765625,107.92923716049472L68.70833333333333,109.82483358057138L69.78190104166666,110.42641065673675L70.85546875,112.21955237764097L71.92903645833333,112.3255247225897L73.00260416666667,111.99434398489662L74.076171875,114.37851773464487L75.14973958333334,115.76278321562705L76.22330729166667,115.52505535614836L77.296875,116.31133010560005L78.37044270833333,118.09451215866842L79.44401041666667,118.30443723611695L80.517578125,119.25477760521682L81.59114583333333,120.36997888582401L82.66471354166667,120.83698580702445L83.73828125,121.93571582406412L84.81184895833333,121.82274916086205L85.88541666666666,123.04435720082027L86.958984375,124.49237075449116L88.03255208333333,124.76336428069905L89.10611979166667,125.10366982450925L90.1796875,125.44962656601683L91.25325520833334,126.28036374308765L92.32682291666667,126.017241312991L93.400390625,126.64907597415747L94.47395833333333,126.30018028673481L95.54752604166667,128.30507372529752L96.62109375,127.4039022862645L97.69466145833333,126.79483408060699L98.76822916666667,128.09936125459848L99.841796875,129.06394555403878L100.91536458333333,130.5650250743804L101.98893229166666,131.35518603143774L103.0625,132.14866429464763L104.13606770833333,131.6444571335149L105.20963541666667,131.54647438795382L106.283203125,131.65975200488143L107.35677083333334,132.18767106662753L108.43033854166667,132.40341803048753L109.50390625,132.3387248215414L110.57747395833333,132.72180113393856L111.65104166666667,134.47906608700032L112.724609375,134.74605098214988L113.79817708333333,135.33403107988278L114.87174479166667,136.45609408279267L115.9453125,137.8461451953501L117.01888020833333,138.72079869310616L118.09244791666666,138.47956027900963L119.166015625,138.3642568874623L120.23958333333333,138.38466012563717L121.31315104166667,138.20969537266984L122.38671875,139.0227220505112L123.46028645833334,139.9000796411984L124.53385416666667,141.0046249179953L125.607421875,141.71957769075874L126.68098958333333,141.18856103078386L127.75455729166667,140.08908080697844L128.828125,140.82601928774537L129.90169270833334,140.87937884419705L130.97526041666666,141.15663388854267L132.048828125,141.5861155564655L133.12239583333334,141.3716123915234L134.19596354166669,142.53021924695756L135.26953125,143.22975547521102L136.34309895833334,143.86140677593468L137.41666666666666,143.51770230850602L138.490234375,143.37566392458638L139.56380208333331,144.3371334657527L140.63736979166666,145.32460436829126L141.7109375,144.88130776672347L142.78450520833334,144.88031668963166L143.85807291666666,145.8609490301587L144.931640625,146.14407463379288L146.00520833333334,146.4114665179542L147.07877604166666,146.49446613449268L148.15234375,145.3370226765925L149.22591145833334,144.957431303393L150.29947916666669,146.37794509953358L151.373046875,146.58275700865119L152.44661458333334,147.806027196903L153.52018229166666,148.0065613090598L154.59375,147.49108184566902L155.66731770833331,147.56118285390403L156.74088541666666,148.10308447513896L157.814453125,146.8617382315739L158.88802083333334,148.0893537803327L159.96158854166666,149.91867836648595L161.03515625,149.46671239333565L162.10872395833334,149.38631737148592L163.18229166666666,149.66994149468792L164.255859375,149.48508674393702L165.32942708333334,150.47741173628876L166.40299479166669,150.62075551733403L167.4765625,149.62327526298995L168.55013020833334,150.63916528294908L169.62369791666666,150.86925441180423L170.697265625,151.75043256547767L171.77083333333331,150.85946464088636L172.84440104166666,150.47412024314042L173.91796875,151.76464939527116L174.99153645833334,151.98571263678988L176.06510416666666,151.86713941921394L177.138671875,151.8104006147591L178.21223958333334,152.4112356344179L179.28580729166666,153.71468608468078L180.359375,154.17770435405444L181.43294270833334,153.10523237026246L182.50651041666669,152.99643973669632L183.580078125,153.5658963470762L184.65364583333334,153.44153357600032L185.72721354166666,153.21666801303132L186.80078125,153.62630365250436L187.87434895833331,153.43969148023547L188.94791666666666,153.4944827119653L190.021484375,153.0649098192377L191.09505208333334,153.6495568772308L192.16861979166666,154.2755335975258L193.2421875,154.7638430195126L194.31575520833334,154.9089747582257L195.38932291666666,155.01150418896935L196.462890625,155.38552129539528L197.53645833333334,156.20132099196962L198.61002604166669,156.47401583823273L199.68359375,155.86754482061204L200.75716145833334,155.9199572414639L201.83072916666666,157.1601764761402L202.904296875,156.7562438194816L203.97786458333331,157.62261812029786L205.05143229166666,158.1756325608755L206.125,158.52538675291385L207.19856770833334,157.50467809368453L208.27213541666666,157.13739480074673L209.345703125,156.75903299861915L210.41927083333334,157.3533478777457L211.49283854166666,156.8577190556138L212.56640625,157.04910450610575L213.63997395833334,156.77336391682036L214.71354166666669,157.13796451362464L215.787109375,157.98271657869753L216.86067708333334,157.13546723292683L217.93424479166666,157.58853709556462L219.0078125,158.0630023784249L220.08138020833331,158.5508781212969L221.15494791666666,159.04261909447578L222.228515625,159.22881037836572L223.30208333333334,159.01814254789096L224.37565104166666,158.21389168868902L225.44921875,158.8312072049216L226.52278645833334,158.64781776096055L227.59635416666666,159.10143850820006L228.669921875,159.13628416266315L229.74348958333334,159.99474192688763L230.81705729166669,159.16525447941848L231.890625,159.8476996243866L232.96419270833334,160.53343792285884L234.03776041666666,160.4330624635125L235.111328125,159.73415248554485L236.18489583333331,159.8786107706492" style="fill: none;" fill="none"></path></g></g></g></g><g opacity="0.2"><g><g><g><path stroke="rgb(255, 112, 67)" stroke-width="2px" d="M27.912760416666668,-5.939945958385403L28.986328125,2.4443244658071905L30.059895833333332,11.165644868869672L31.133463541666668,18.81738934276455L32.20703125,24.530061479488527L33.280598958333336,37.07130661945449L34.354166666666664,36.17539769157088L35.427734375,41.4220293445343L36.501302083333336,49.32585415887559L37.57486979166667,57.090048531239674L38.6484375,55.80205417526038L39.722005208333336,60.053383403542355L40.795572916666664,63.55390397273002L41.869140625,63.540697712789864L42.94270833333333,69.4011113702912L44.016276041666664,75.28934246894309L45.08984375,76.90582615018566L46.163411458333336,78.68679801374672L47.236979166666664,83.26888317360795L48.310546875,80.31549514389849L49.384114583333336,86.38572911003773L50.457682291666664,84.4990884346718L51.53125,87.39080978675997L52.604817708333336,87.4521205509928L53.67838541666667,94.59133101322432L54.751953125,94.46741695719008L55.825520833333336,95.05120857567948L56.899088541666664,95.7121397380463L57.97265625,100.18750707822089L59.04622395833333,99.52060031738469L60.119791666666664,101.41355377232486L61.193359375,103.87836638109927L62.266927083333336,105.3055228719657L63.340494791666664,108.29450224052096L64.4140625,105.27143011580812L65.48763020833333,107.06116868809544L66.56119791666667,107.70909964564169L67.634765625,109.90587200833991L68.70833333333333,112.66822820986536L69.78190104166666,111.32877627082847L70.85546875,114.9092649587176L71.92903645833333,112.48448324000293L73.00260416666667,111.49757287837565L74.076171875,117.95477835918692L75.14973958333334,117.83918143707243L76.22330729166667,115.16846356693314L77.296875,117.49074222977188L78.37044270833333,120.76928523826328L79.44401041666667,118.61932485228911L80.517578125,120.68028815886512L81.59114583333333,122.04278080673379L82.66471354166667,121.53749618882482L83.73828125,123.58381084962323L84.81184895833333,121.65329916605894L85.88541666666666,124.87676926075734L86.958984375,126.66439108499748L88.03255208333333,125.16985457001084L89.10611979166667,125.61412814022464L90.1796875,125.96856167827816L91.25325520833334,127.52646950869396L92.32682291666667,125.62255766784602L93.400390625,127.59682796590708L94.47395833333333,125.77683675560084L95.54752604166667,131.3124138831415L96.62109375,126.05214512771502L97.69466145833333,125.88123177212069L98.76822916666667,130.05615201558578L99.841796875,130.5108220031993L100.91536458333333,132.81664435489273L101.98893229166666,132.5404274670238L103.0625,133.33888168946245L104.13606770833333,130.88814639181575L105.20963541666667,131.39950026961213L106.283203125,131.82966843027282L107.35677083333334,132.97954965924674L108.43033854166667,132.72703847627747L109.50390625,132.24168500812218L110.57747395833333,133.29641560253432L111.65104166666667,137.11496351659298L112.724609375,135.14652832487428L113.79817708333333,136.21600122648206L114.87174479166667,138.13918858715755L115.9453125,139.93122186418623L117.01888020833333,140.0327789397402L118.09244791666666,138.11770265786484L119.166015625,138.19130180014128L120.23958333333333,138.4152649828995L121.31315104166667,137.94724824321878L122.38671875,140.24226206727326L123.46028645833334,141.21611602722922L124.53385416666667,142.66144283319062L125.607421875,142.79200684990394L126.68098958333333,140.39203604082152L127.75455729166667,138.4398604712703L128.828125,141.9314270088957L129.90169270833334,140.95941817887464L130.97526041666666,141.57251645506105L132.048828125,142.23033805834976L133.12239583333334,141.04985764411023L134.19596354166669,144.26812953010878L135.26953125,144.27905981759116L136.34309895833334,144.80888372702015L137.41666666666666,143.00214560736308L138.490234375,143.1626063487069L139.56380208333331,145.77933777750215L140.63736979166666,146.8058107220991L141.7109375,144.21636286437172L142.78450520833334,144.87883007399398L143.85807291666666,147.33189754094929L144.931640625,146.56876303924417L146.00520833333334,146.8125543441962L147.07877604166666,146.61896555930036L148.15234375,143.60085748974234L149.22591145833334,144.38804424359378L150.29947916666669,148.50871579374441L151.373046875,146.88997487232766L152.44661458333334,149.64093247928065L153.52018229166666,148.3073624772951L154.59375,146.71786265058273L155.66731770833331,147.66633436625654L156.74088541666666,148.91593690699136L157.814453125,144.99971886622635L158.88802083333334,149.9307771034708L159.96158854166666,152.66266524571586L161.03515625,148.78876343361017L162.10872395833334,149.26572483871132L163.18229166666666,150.0953776794909L164.255859375,149.20780461781067L165.32942708333334,151.9658992248164L166.40299479166669,150.8357711889019L167.4765625,148.12705488147384L168.55013020833334,152.16300031288782L169.62369791666666,151.21438810508698L170.697265625,153.07219979598779L171.77083333333331,149.52301275399938L172.84440104166666,149.89610364652154L173.91796875,153.70044312346727L174.99153645833334,152.31730749906802L176.06510416666666,151.68927959285L177.138671875,151.72529240807688L178.21223958333334,153.31248816390604L179.28580729166666,155.6698617600751L180.359375,154.87223175811496L181.43294270833334,151.49652439457446L182.50651041666669,152.83325078634715L183.580078125,154.42008126264608L184.65364583333334,153.25498941938648L185.72721354166666,152.87936966857788L186.80078125,154.24075711171398L187.87434895833331,153.1597732218321L188.94791666666666,153.57666955956003L190.021484375,152.4205504801463L191.09505208333334,154.52652746422046L192.16861979166666,155.2144986779683L193.2421875,155.49630715249276L194.31575520833334,155.12667236629534L195.38932291666666,155.16529833508486L196.462890625,155.94654695503414L197.53645833333334,157.42502053683117L198.61002604166669,156.8830581076274L199.68359375,154.95783829418093L200.75716145833334,155.99857587274164L201.83072916666666,159.0205053281547L202.904296875,156.15034483449364L203.97786458333331,158.92217957152224L205.05143229166666,159.005154221742L206.125,159.0500180409713L207.19856770833334,155.97361510484055L208.27213541666666,156.5864698613401L209.345703125,156.19149029542774L210.41927083333334,158.24482019643554L211.49283854166666,156.11427582241595L212.56640625,157.33618268184364L213.63997395833334,156.35975303289226L214.71354166666669,157.68486540883103L215.787109375,159.249844676307L216.86067708333334,155.86459321427074L217.93424479166666,158.26814188952133L219.0078125,158.7747003027153L220.08138020833331,159.28269173560494L221.15494791666666,159.78023055424407L222.228515625,159.5080973042006L223.30208333333334,158.70214080217886L224.37565104166666,157.00751539988613L225.44921875,159.7571804792705L226.52278645833334,158.37273359501904L227.59635416666666,159.78186962905932L228.669921875,159.18855264435777L229.74348958333334,161.28242857322437L230.81705729166669,157.9210233082148L231.890625,160.87136734183878L232.96419270833334,161.56204537056726L234.03776041666666,160.28249927449295L235.111328125,158.68578751859337L236.18489583333331,160.09529819830576" style="fill: none;" fill="none"></path></g></g></g></g></g></g><g transform="translate(72, 177)" clip-path="url(#clip_1)"><clipPath id="clip_1"><rect width="257" height="23"></rect></clipPath><g><g><line x1="0" y1="0" x2="0" y2="5" style="visibility: inherit;" fill="rgb(0, 0, 0)" stroke="rgb(204, 204, 204)" stroke-width="1px"></line><line x1="21.471354166666664" y1="0" x2="21.471354166666664" y2="5" style="visibility: inherit;" fill="rgb(0, 0, 0)" stroke="rgb(204, 204, 204)" stroke-width="1px"></line><line x1="42.94270833333333" y1="0" x2="42.94270833333333" y2="5" style="visibility: inherit;" fill="rgb(0, 0, 0)" stroke="rgb(204, 204, 204)" stroke-width="1px"></line><line x1="64.4140625" y1="0" x2="64.4140625" y2="5" style="visibility: inherit;" fill="rgb(0, 0, 0)" stroke="rgb(204, 204, 204)" stroke-width="1px"></line><line x1="85.88541666666666" y1="0" x2="85.88541666666666" y2="5" style="visibility: inherit;" fill="rgb(0, 0, 0)" stroke="rgb(204, 204, 204)" stroke-width="1px"></line><line x1="107.35677083333334" y1="0" x2="107.35677083333334" y2="5" style="visibility: inherit;" fill="rgb(0, 0, 0)" stroke="rgb(204, 204, 204)" stroke-width="1px"></line><line x1="128.828125" y1="0" x2="128.828125" y2="5" style="visibility: inherit;" fill="rgb(0, 0, 0)" stroke="rgb(204, 204, 204)" stroke-width="1px"></line><line x1="150.29947916666669" y1="0" x2="150.29947916666669" y2="5" style="visibility: inherit;" fill="rgb(0, 0, 0)" stroke="rgb(204, 204, 204)" stroke-width="1px"></line><line x1="171.77083333333331" y1="0" x2="171.77083333333331" y2="5" style="visibility: inherit;" fill="rgb(0, 0, 0)" stroke="rgb(204, 204, 204)" stroke-width="1px"></line><line x1="193.2421875" y1="0" x2="193.2421875" y2="5" style="visibility: inherit;" fill="rgb(0, 0, 0)" stroke="rgb(204, 204, 204)" stroke-width="1px"></line><line x1="214.71354166666669" y1="0" x2="214.71354166666669" y2="5" style="visibility: inherit;" fill="rgb(0, 0, 0)" stroke="rgb(204, 204, 204)" stroke-width="1px"></line><line x1="236.18489583333331" y1="0" x2="236.18489583333331" y2="5" style="visibility: inherit;" fill="rgb(0, 0, 0)" stroke="rgb(204, 204, 204)" stroke-width="1px"></line><line x1="257.65625" y1="0" x2="257.65625" y2="5" style="visibility: inherit;" fill="rgb(0, 0, 0)" stroke="rgb(204, 204, 204)" stroke-width="1px"></line></g><g transform="translate(0, 8)"><text x="0" y="0" dx="0em" dy="0.95em" style="text-anchor: middle; visibility: hidden; font-family: Roboto, sans-serif; font-size: 12px; font-weight: 200;" fill="rgb(33, 33, 33)" stroke="none" stroke-width="1px">-20</text><text x="21.471354166666664" y="0" dx="0em" dy="0.95em" style="text-anchor: middle; visibility: inherit; font-family: Roboto, sans-serif; font-size: 12px; font-weight: 200;" fill="rgb(33, 33, 33)" stroke="none" stroke-width="1px">0</text><text x="42.94270833333333" y="0" dx="0em" dy="0.95em" style="text-anchor: middle; visibility: hidden; font-family: Roboto, sans-serif; font-size: 12px; font-weight: 200;" fill="rgb(33, 33, 33)" stroke="none" stroke-width="1px">20</text><text x="64.4140625" y="0" dx="0em" dy="0.95em" style="text-anchor: middle; visibility: inherit; font-family: Roboto, sans-serif; font-size: 12px; font-weight: 200;" fill="rgb(33, 33, 33)" stroke="none" stroke-width="1px">40</text><text x="85.88541666666666" y="0" dx="0em" dy="0.95em" style="text-anchor: middle; visibility: hidden; font-family: Roboto, sans-serif; font-size: 12px; font-weight: 200;" fill="rgb(33, 33, 33)" stroke="none" stroke-width="1px">60</text><text x="107.35677083333334" y="0" dx="0em" dy="0.95em" style="text-anchor: middle; visibility: inherit; font-family: Roboto, sans-serif; font-size: 12px; font-weight: 200;" fill="rgb(33, 33, 33)" stroke="none" stroke-width="1px">80</text><text x="128.828125" y="0" dx="0em" dy="0.95em" style="text-anchor: middle; visibility: hidden; font-family: Roboto, sans-serif; font-size: 12px; font-weight: 200;" fill="rgb(33, 33, 33)" stroke="none" stroke-width="1px">100</text><text x="150.29947916666669" y="0" dx="0em" dy="0.95em" style="text-anchor: middle; visibility: inherit; font-family: Roboto, sans-serif; font-size: 12px; font-weight: 200;" fill="rgb(33, 33, 33)" stroke="none" stroke-width="1px">120</text><text x="171.77083333333331" y="0" dx="0em" dy="0.95em" style="text-anchor: middle; visibility: hidden; font-family: Roboto, sans-serif; font-size: 12px; font-weight: 200;" fill="rgb(33, 33, 33)" stroke="none" stroke-width="1px">140</text><text x="193.2421875" y="0" dx="0em" dy="0.95em" style="text-anchor: middle; visibility: inherit; font-family: Roboto, sans-serif; font-size: 12px; font-weight: 200;" fill="rgb(33, 33, 33)" stroke="none" stroke-width="1px">160</text><text x="214.71354166666669" y="0" dx="0em" dy="0.95em" style="text-anchor: middle; visibility: hidden; font-family: Roboto, sans-serif; font-size: 12px; font-weight: 200;" fill="rgb(33, 33, 33)" stroke="none" stroke-width="1px">180</text><text x="236.18489583333331" y="0" dx="0em" dy="0.95em" style="text-anchor: middle; visibility: inherit; font-family: Roboto, sans-serif; font-size: 12px; font-weight: 200;" fill="rgb(33, 33, 33)" stroke="none" stroke-width="1px">200</text><text x="257.65625" y="0" dx="0em" dy="0.95em" style="text-anchor: middle; visibility: hidden; font-family: Roboto, sans-serif; font-size: 12px; font-weight: 200;" fill="rgb(33, 33, 33)" stroke="none" stroke-width="1px">220</text></g><line x1="0" y1="0" x2="257.65625" y2="0" fill="rgb(0, 0, 0)" stroke="rgb(204, 204, 204)" stroke-width="1px"></line></g></g></g></g></svg>