<svg viewBox="0 0 330.0000305175781 200.00001525878906" xmlns="http://www.w3.org/2000/svg"><g><g><g><g><g><line x1="51.5625" y1="177" x2="46.5625" y2="177" style="visibility: inherit;" fill="rgb(0, 0, 0)" stroke="rgb(204, 204, 204)" stroke-width="1px"></line><line x1="51.5625" y1="157.33333333333331" x2="46.5625" y2="157.33333333333331" style="visibility: inherit;" fill="rgb(0, 0, 0)" stroke="rgb(204, 204, 204)" stroke-width="1px"></line><line x1="51.5625" y1="137.66666666666666" x2="46.5625" y2="137.66666666666666" style="visibility: inherit;" fill="rgb(0, 0, 0)" stroke="rgb(204, 204, 204)" stroke-width="1px"></line><line x1="51.5625" y1="118.00000000000001" x2="46.5625" y2="118.00000000000001" style="visibility: inherit;" fill="rgb(0, 0, 0)" stroke="rgb(204, 204, 204)" stroke-width="1px"></line><line x1="51.5625" y1="98.33333333333334" x2="46.5625" y2="98.33333333333334" style="visibility: inherit;" fill="rgb(0, 0, 0)" stroke="rgb(204, 204, 204)" stroke-width="1px"></line><line x1="51.5625" y1="78.66666666666666" x2="46.5625" y2="78.66666666666666" style="visibility: inherit;" fill="rgb(0, 0, 0)" stroke="rgb(204, 204, 204)" stroke-width="1px"></line><line x1="51.5625" y1="59.00000000000001" x2="46.5625" y2="59.00000000000001" style="visibility: inherit;" fill="rgb(0, 0, 0)" stroke="rgb(204, 204, 204)" stroke-width="1px"></line><line x1="51.5625" y1="39.33333333333333" x2="46.5625" y2="39.33333333333333" style="visibility: inherit;" fill="rgb(0, 0, 0)" stroke="rgb(204, 204, 204)" stroke-width="1px"></line><line x1="51.5625" y1="19.666666666666675" x2="46.5625" y2="19.666666666666675" style="visibility: inherit;" fill="rgb(0, 0, 0)" stroke="rgb(204, 204, 204)" stroke-width="1px"></line><line x1="51.5625" y1="0" x2="46.5625" y2="0" style="visibility: inherit;" fill="rgb(0, 0, 0)" stroke="rgb(204, 204, 204)" stroke-width="1px"></line></g><g transform="translate(41.5625, 0)"><text x="0" y="177" dx="0em" dy="0.3em" style="text-anchor: end; visibility: hidden; font-family: Roboto, sans-serif; font-size: 12px; font-weight: 200;" fill="rgb(33, 33, 33)" stroke="none" stroke-width="1px">31.5</text><text x="0" y="157.33333333333331" dx="0em" dy="0.3em" style="text-anchor: end; visibility: inherit; font-family: Roboto, sans-serif; font-size: 12px; font-weight: 200;" fill="rgb(33, 33, 33)" stroke="none" stroke-width="1px">32</text><text x="0" y="137.66666666666666" dx="0em" dy="0.3em" style="text-anchor: end; visibility: hidden; font-family: Roboto, sans-serif; font-size: 12px; font-weight: 200;" fill="rgb(33, 33, 33)" stroke="none" stroke-width="1px">32.5</text><text x="0" y="118.00000000000001" dx="0em" dy="0.3em" style="text-anchor: end; visibility: inherit; font-family: Roboto, sans-serif; font-size: 12px; font-weight: 200;" fill="rgb(33, 33, 33)" stroke="none" stroke-width="1px">33</text><text x="0" y="98.33333333333334" dx="0em" dy="0.3em" style="text-anchor: end; visibility: hidden; font-family: Roboto, sans-serif; font-size: 12px; font-weight: 200;" fill="rgb(33, 33, 33)" stroke="none" stroke-width="1px">33.5</text><text x="0" y="78.66666666666666" dx="0em" dy="0.3em" style="text-anchor: end; visibility: inherit; font-family: Roboto, sans-serif; font-size: 12px; font-weight: 200;" fill="rgb(33, 33, 33)" stroke="none" stroke-width="1px">34</text><text x="0" y="59.00000000000001" dx="0em" dy="0.3em" style="text-anchor: end; visibility: hidden; font-family: Roboto, sans-serif; font-size: 12px; font-weight: 200;" fill="rgb(33, 33, 33)" stroke="none" stroke-width="1px">34.5</text><text x="0" y="39.33333333333333" dx="0em" dy="0.3em" style="text-anchor: end; visibility: inherit; font-family: Roboto, sans-serif; font-size: 12px; font-weight: 200;" fill="rgb(33, 33, 33)" stroke="none" stroke-width="1px">35</text><text x="0" y="19.666666666666675" dx="0em" dy="0.3em" style="text-anchor: end; visibility: hidden; font-family: Roboto, sans-serif; font-size: 12px; font-weight: 200;" fill="rgb(33, 33, 33)" stroke="none" stroke-width="1px">35.5</text><text x="0" y="0" dx="0em" dy="0.3em" style="text-anchor: end; visibility: hidden; font-family: Roboto, sans-serif; font-size: 12px; font-weight: 200;" fill="rgb(33, 33, 33)" stroke="none" stroke-width="1px">36</text></g><line x1="51.5625" y1="0" x2="51.5625" y2="177" fill="rgb(0, 0, 0)" stroke="rgb(204, 204, 204)" stroke-width="1px"></line></g></g><g transform="translate(51, 0)" clip-path="url(#clip_0)"><clipPath id="clip_0"><rect width="278" height="177"></rect></clipPath><g><g><g><line x1="0" y1="0" x2="0" y2="177" fill="rgb(0, 0, 0)" stroke="rgb(66, 66, 66)" stroke-width="1px" opacity="0.25"></line><line x1="23.203125" y1="0" x2="23.203125" y2="177" fill="rgb(0, 0, 0)" stroke="rgb(66, 66, 66)" stroke-width="1px" opacity="0.25"></line><line x1="46.40625" y1="0" x2="46.40625" y2="177" fill="rgb(0, 0, 0)" stroke="rgb(66, 66, 66)" stroke-width="1px" opacity="0.25"></line><line x1="69.609375" y1="0" x2="69.609375" y2="177" fill="rgb(0, 0, 0)" stroke="rgb(66, 66, 66)" stroke-width="1px" opacity="0.25"></line><line x1="92.8125" y1="0" x2="92.8125" y2="177" fill="rgb(0, 0, 0)" stroke="rgb(66, 66, 66)" stroke-width="1px" opacity="0.25"></line><line x1="116.015625" y1="0" x2="116.015625" y2="177" fill="rgb(0, 0, 0)" stroke="rgb(66, 66, 66)" stroke-width="1px" opacity="0.25"></line><line x1="139.21875" y1="0" x2="139.21875" y2="177" fill="rgb(0, 0, 0)" stroke="rgb(66, 66, 66)" stroke-width="1px" opacity="0.25"></line><line x1="162.421875" y1="0" x2="162.421875" y2="177" fill="rgb(0, 0, 0)" stroke="rgb(66, 66, 66)" stroke-width="1px" opacity="0.25"></line><line x1="185.625" y1="0" x2="185.625" y2="177" fill="rgb(0, 0, 0)" stroke="rgb(66, 66, 66)" stroke-width="1px" opacity="0.25"></line><line x1="208.828125" y1="0" x2="208.828125" y2="177" fill="rgb(0, 0, 0)" stroke="rgb(66, 66, 66)" stroke-width="1px" opacity="0.25"></line><line x1="232.03125" y1="0" x2="232.03125" y2="177" fill="rgb(0, 0, 0)" stroke="rgb(66, 66, 66)" stroke-width="1px" opacity="0.25"></line><line x1="255.234375" y1="0" x2="255.234375" y2="177" fill="rgb(0, 0, 0)" stroke="rgb(66, 66, 66)" stroke-width="1px" opacity="0.25"></line><line x1="278.4375" y1="0" x2="278.4375" y2="177" fill="rgb(0, 0, 0)" stroke="rgb(66, 66, 66)" stroke-width="1px" opacity="0.25"></line></g><g><line x1="0" y1="177" x2="278.4375" y2="177" fill="rgb(0, 0, 0)" stroke="rgb(66, 66, 66)" stroke-width="1px" opacity="0.25"></line><line x1="0" y1="157.33333333333331" x2="278.4375" y2="157.33333333333331" fill="rgb(0, 0, 0)" stroke="rgb(66, 66, 66)" stroke-width="1px" opacity="0.25"></line><line x1="0" y1="137.66666666666666" x2="278.4375" y2="137.66666666666666" fill="rgb(0, 0, 0)" stroke="rgb(66, 66, 66)" stroke-width="1px" opacity="0.25"></line><line x1="0" y1="118.00000000000001" x2="278.4375" y2="118.00000000000001" fill="rgb(0, 0, 0)" stroke="rgb(66, 66, 66)" stroke-width="1px" opacity="0.25"></line><line x1="0" y1="98.33333333333334" x2="278.4375" y2="98.33333333333334" fill="rgb(0, 0, 0)" stroke="rgb(66, 66, 66)" stroke-width="1px" opacity="0.25"></line><line x1="0" y1="78.66666666666666" x2="278.4375" y2="78.66666666666666" fill="rgb(0, 0, 0)" stroke="rgb(66, 66, 66)" stroke-width="1px" opacity="0.25"></line><line x1="0" y1="59.00000000000001" x2="278.4375" y2="59.00000000000001" fill="rgb(0, 0, 0)" stroke="rgb(66, 66, 66)" stroke-width="1px" opacity="0.25"></line><line x1="0" y1="39.33333333333333" x2="278.4375" y2="39.33333333333333" fill="rgb(0, 0, 0)" stroke="rgb(66, 66, 66)" stroke-width="1px" opacity="0.25"></line><line x1="0" y1="19.666666666666675" x2="278.4375" y2="19.666666666666675" fill="rgb(0, 0, 0)" stroke="rgb(66, 66, 66)" stroke-width="1px" opacity="0.25"></line><line x1="0" y1="0" x2="278.4375" y2="0" fill="rgb(0, 0, 0)" stroke="rgb(66, 66, 66)" stroke-width="1px" opacity="0.25"></line></g></g></g><g><g><line x1="0" y1="1416" x2="278.4375" y2="1416" fill="rgb(0, 0, 0)" stroke="rgb(153, 153, 153)" stroke-width="1.5px"></line></g></g><g><g><line x1="23.203125" y1="0" x2="23.203125" y2="177" fill="rgb(0, 0, 0)" stroke="rgb(153, 153, 153)" stroke-width="1.5px"></line></g></g><g><g><g><g><g><path stroke="rgb(255, 112, 67)" stroke-width="2px" d="M24.36328125,171.11907068888348L25.523437499999996,162.2031766573588L26.683593750000004,154.6955847448234L27.84375,195.04223052660623L29.00390625,166.8492487488924L30.1640625,173.88590123445985L31.32421875,150.29293625027438L32.484375,160.58356626451086L33.64453125,187.27193927239068L34.8046875,161.24630554167L35.96484375000001,153.06043242699315L37.125,154.99433826855102L38.28515625,153.80260567976302L39.4453125,137.9298456773585L40.60546875,116.24832648496846L41.765625,136.04099319401445L42.92578125,143.1463705188449L44.0859375,129.06807383521019L45.24609375,109.46952471892573L46.40625,96.98191540975581L47.56640625,98.42416318417655L48.7265625,105.89893019765759L49.88671875,93.98226531117386L51.04687499999999,100.82394665891063L52.20703125,95.78692162741277L53.36718750000001,118.78480206991082L54.52734375,144.11628731577554L55.6875,154.25594957564613L56.84765625,128.09916354199407L58.0078125,105.59408482471513L59.16796875,122.66428498689427L60.328125,121.49645908278708L61.48828125,112.63356838582666L62.6484375,101.47435152720097L63.80859375,104.99386899277401L64.96875,100.36652907091789L66.12890625,95.48217632345582L67.2890625,82.11301078186595L68.44921875,89.32747648844801L69.609375,97.07081451670089L70.76953125,88.69449269093238L71.92968750000001,98.5918512589707L73.08984375,76.89394233277612L74.25,63.7684251304645L75.41015625,69.03799599679506L76.5703125,69.15010879600081L77.73046875,72.24443946391416L78.890625,75.02885463706967L80.05078125,67.42235632055092L81.2109375,56.245564671146205L82.37109375,55.11749362852859L83.53125,99.96810207324381L84.69140624999999,78.9794086071911L85.8515625,81.59232859530704L87.01171875,76.48933066955077L88.171875,97.90937497237643L89.33203125000001,84.47818113576682L90.4921875,99.93868073549883L91.65234375,79.1505721294486L92.8125,63.18682561816352L93.97265625,73.3418642511065L95.1328125,71.79676894128913L96.29296875,58.043045495632796L97.453125,63.32916998943691L98.61328125,55.31296728500336L99.7734375,75.32935141592377L100.93359375,61.10073483230165L102.09374999999999,55.212635113248176L103.25390625,64.18972706404254L104.4140625,69.22115638816479L105.57421875,59.777896469617616L106.73437500000001,115.91048533863884L107.89453125,90.92964996783162L109.0546875,70.19593491885024L110.21484375,62.652326576310145L111.375,64.61517727716624L112.53515625,64.62601961499772L113.6953125,49.11087483052196L114.85546875,64.61024844974547L116.015625,57.24686196047233L117.17578125,43.38849396664793L118.3359375,64.56453050271L119.49609374999999,50.237848550649495L120.65625,41.06728798781145L121.81640625,77.06745205700973L122.9765625,56.50917444058627L124.13671875000001,46.61129486617479L125.296875,42.29395078852004L126.45703125,42.03331932565113L127.6171875,62.93674269402339L128.77734375,52.16622245560652L129.9375,51.162778720759796L131.09765625,49.07610961526837L132.2578125,41.38106615978587L133.41796875,43.005722011952294L134.578125,32.61744586179393L135.73828125,32.88075804442023L136.8984375,28.18323693114422L138.05859375,22.353866108881792L139.21875,27.468212609665056L140.37890625,30.75042422921061L141.5390625,26.961693543060107L142.69921875,25.110741101421954L143.85937500000003,24.82607600850941L145.01953125,28.203595434207053L146.1796875,47.4401209242611L147.33984375,48.22226652428328L148.5,57.19050916587204L149.66015625,77.2655180646274L150.8203125,64.9714029204821L151.98046874999997,44.66323624284923L153.140625,67.06611394623036L154.30078125,49.87806355003L155.4609375,37.81919245944508L156.62109375,56.77400245483371L157.78125,37.540998559488834L158.94140625,38.64270724929996L160.1015625,34.68817561911111L161.26171875000003,32.48644764848479L162.421875,39.69509531435129L163.58203125,26.25126332467848L164.7421875,32.666804137385206L165.90234375,34.29516610059515L167.0625,30.794607594927346L168.22265625,65.82668928026375L169.38281249999997,58.6903393331321L170.54296875,57.69480967898071L171.703125,47.23174888518801L172.86328125,67.98237513677694L174.0234375,52.69463646715719L175.18359375,33.44894842489067L176.34375,33.38134008358012L177.50390625,28.750485772153233L178.66406250000003,28.309670532302288L179.82421875,27.984683341516803L180.984375,56.16387519045684L182.14453125,50.37345939161796L183.3046875,88.1586378094499L184.46484375,57.40312742850859L185.625,40.59041059610255L186.78515624999997,40.024320820552205L187.9453125,43.41706034714915L189.10546875,52.879199424435214L190.265625,40.16333610160111L191.42578125,26.490015210765304L192.5859375,73.22052991910252L193.74609375,54.07054223531568L194.90625,38.67314402608506L196.06640625000003,25.903131614218864L197.2265625,19.714263612086068L198.38671875,31.67095725579313L199.546875,38.67584298954348L200.70703125,48.4953098708744L201.8671875,33.638860727212155L203.02734375,26.66176899166594L204.18749999999997,20.978907505025557L205.34765625,33.39657200138784L206.5078125,20.979624109035708L207.66796875,21.594961355069987L208.828125,18.4336705386281L209.98828125,40.31454904355446L211.1484375,58.82194068915362L212.30859375,34.21740350854426L213.46875000000003,30.997624518863596L214.62890625,16.832007735406645L215.7890625,24.77418226168681L216.94921875,19.877864866452235L218.109375,19.846261359649997L219.26953125,14.355226908563372L220.4296875,28.295467484656143L221.58984374999997,31.66786276618443L222.75,27.09251148295296L223.91015625,18.26202544445916L225.0703125,20.82211801732665L226.23046875,51.95720310206277L227.390625,42.68953690843795L228.55078125,60.944701555869955L229.7109375,32.99167444914685L230.87109375000003,22.07784565256104L232.03125,10.478741693294385L233.19140625,9.424080750025986L234.3515625,4.01109823028886L235.51171875,-0.06709899639697992L236.671875,0.8190169286591978L237.83203125,15.596296021453117L238.99218749999997,8.047106633054213L240.15234375,12.07824668653836L241.3125,13.885828423706991L242.47265625,19.503049585148553L243.6328125,44.54344657237832L244.79296875,31.93826276764556L245.953125,16.968342995873904L247.11328125,15.852097513019242L248.27343750000003,10.368434207681338L249.43359375,6.9984124126296425L250.59375,1.0131770862495506L251.75390625,7.043626059692333L252.9140625,3.8064104177164855L254.07421875,6.444107277648133L255.234375,27.423491547578347" style="fill: none;" fill="none"></path></g></g></g></g><g opacity="0.2"><g><g><g><path stroke="rgb(255, 112, 67)" stroke-width="2px" d="M24.36328125,171.11907068888348L25.523437499999996,156.853640238444L26.683593750000004,147.48829650878906L27.84375,242.4898859659831L29.00390625,130.04049173990887L30.1640625,183.62012481689453L31.32421875,116.55461883544922L32.484375,175.58740361531574L33.64453125,226.63210550944012L34.8046875,122.6012725830078L35.96484375000001,140.85586802164715L37.125,157.88467280069986L38.28515625,152.0188980102539L39.4453125,114.15180206298827L40.60546875,83.75153350830078L41.765625,165.71603393554688L42.92578125,153.80142974853516L44.0859375,107.95420328776041L45.24609375,80.07468668619792L46.40625,78.25164286295573L47.56640625,100.58745574951172L48.7265625,117.11083475748698L49.88671875,76.10750325520833L51.04687499999999,111.08638763427733L52.20703125,88.23141988118489L53.36718750000001,153.28152465820312L54.52734375,182.11345036824545L55.6875,169.46542739868164L56.84765625,88.86400858561198L58.0078125,71.83647918701172L59.16796875,148.26957956949872L60.328125,119.74472045898439L61.48828125,99.33923339843749L62.6484375,84.73552703857422L63.80859375,110.2731450398763L64.96875,93.42551930745442L66.12890625,88.15564727783203L67.2890625,62.059262593587235L68.44921875,100.14917500813802L69.609375,108.68582153320312L70.76953125,76.13000996907553L71.92968750000001,113.4378890991211L73.08984375,44.34707895914714L74.25,44.08014933268229L75.41015625,76.94235229492188L76.5703125,69.31827799479167L77.73046875,76.8859354654948L78.890625,79.20547739664713L80.05078125,56.012608846028634L81.2109375,39.480377197265625L82.37109375,53.4253870646159L83.53125,167.24401473999023L84.69140624999999,47.496368408203125L85.8515625,85.51170857747395L87.01171875,68.83483378092448L88.171875,130.03944142659506L89.33203125000001,64.33139038085938L90.4921875,123.12943013509116L91.65234375,47.968409220377616L92.8125,39.241205851236984L93.97265625,88.57442220052083L95.1328125,69.4791259765625L96.29296875,37.412460327148445L97.453125,71.25835673014322L98.61328125,43.28866322835286L99.7734375,105.35392761230467L100.93359375,39.75780995686848L102.09374999999999,46.380485534667976L103.25390625,77.65536499023438L104.4140625,76.76830037434895L105.57421875,45.61300659179687L106.73437500000001,200.1093686421712L107.89453125,53.458396911621094L109.0546875,39.09536234537761L110.21484375,51.3369140625L111.375,67.55945332845052L112.53515625,64.6422831217448L113.6953125,25.8381576538086L114.85546875,87.85930887858073L116.015625,46.20178222656249L117.17578125,22.60094197591145L118.3359375,96.32858530680338L119.49609374999999,28.747825622558587L120.65625,27.311447143554695L121.81640625,131.06769816080728L122.9765625,25.671758015950513L124.13671875000001,31.764475504557286L125.296875,35.817934672037765L126.45703125,41.642372131347656L127.6171875,94.29187774658203L128.77734375,36.01044209798176L129.9375,49.65761311848957L131.09765625,45.94610595703125L132.2578125,29.8385009765625L133.41796875,45.44270579020182L134.578125,17.035031636555996L135.73828125,33.27572631835937L136.8984375,21.13695526123046L138.05859375,13.609809875488274L139.21875,35.13973236083985L140.37890625,35.67374165852864L141.5390625,21.27859751383463L142.69921875,22.334312438964844L143.85937500000003,24.399078369140625L145.01953125,33.269874572753906L146.1796875,76.29490915934245L147.33984375,49.3954849243164L148.5,70.6428731282552L149.66015625,107.37803141276042L150.8203125,46.530230204264335L151.98046874999997,14.200986226399737L153.140625,100.67043050130208L154.30078125,24.095987955729175L155.4609375,19.730885823567707L156.62109375,85.20621744791667L157.78125,8.69149271647135L158.94140625,40.295270284016915L160.1015625,28.756378173828132L161.26171875000003,29.183855692545567L162.421875,50.50806681315104L163.58203125,6.0855153401692625L164.7421875,42.29011535644532L165.90234375,36.737709045410156L167.0625,25.54376983642579L168.22265625,118.37481180826823L169.38281249999997,47.985814412434884L170.54296875,56.2015151977539L171.703125,31.5371576944987L172.86328125,99.10831451416014L174.0234375,29.763028462727863L175.18359375,4.5804163614908875L176.34375,33.27992757161457L177.50390625,21.804204305013013L178.66406250000003,27.648447672526036L179.82421875,27.497202555338536L180.984375,98.4326629638672L182.14453125,41.68783569335938L183.3046875,144.8364054361979L184.46484375,11.269861857096362L185.625,15.371335347493494L186.78515624999997,39.17518615722656L187.9453125,48.50616963704427L189.10546875,67.07240804036458L190.265625,21.089541117350254L191.42578125,5.9800338745117125L192.5859375,143.3163019816081L193.74609375,25.345560709635418L194.90625,15.57704671223958L196.06640625000003,6.748112996419269L197.2265625,10.430961608886712L198.38671875,49.605997721354164L199.546875,49.183171590169266L200.70703125,63.224510192871094L201.8671875,11.35418701171875L203.02734375,16.196131388346362L204.18749999999997,12.454615275065107L205.34765625,52.023068745930985L206.5078125,2.354202270507806L207.66796875,22.517967224121094L208.828125,13.691734313964844L209.98828125,73.13586680094402L211.1484375,86.58302815755208L212.30859375,-2.6894022623698004L213.46875000000003,26.16795603434245L214.62890625,-4.4164174397786375L215.7890625,36.68744405110677L216.94921875,12.533388773600256L218.109375,19.798856099446606L219.26953125,6.118675231933594L220.4296875,49.20582834879558L221.58984374999997,36.72645568847657L222.75,20.22948455810546L223.91015625,5.016296386718756L225.0703125,24.662256876627605L226.23046875,98.65983072916667L227.390625,28.7880376180013L228.55078125,88.32744852701822L229.7109375,-8.937866210937488L230.87109375000003,5.7071024576822875L232.03125,-6.919914245605482L233.19140625,7.842089335123694L234.3515625,-4.10837554931642L235.51171875,-6.184394836425768L236.671875,2.1481908162434937L237.83203125,37.76221466064454L238.99218749999997,-3.276677449544262L240.15234375,18.124956766764324L241.3125,16.597201029459644L242.47265625,27.9288813273112L243.6328125,82.10404205322266L244.79296875,13.030487060546868L245.953125,-5.486536661783837L247.11328125,14.177729288736982L248.27343750000003,2.1429392496744812L249.43359375,1.9433797200520813L250.59375,-7.9646759033203125L251.75390625,16.089299519856763L252.9140625,-1.0494130452474133L254.07421875,10.400652567545576L255.234375,58.892567952473954" style="fill: none;" fill="none"></path></g></g></g></g></g></g><g transform="translate(51, 177)" clip-path="url(#clip_1)"><clipPath id="clip_1"><rect width="278" height="23"></rect></clipPath><g><g><line x1="0" y1="0" x2="0" y2="5" style="visibility: inherit;" fill="rgb(0, 0, 0)" stroke="rgb(204, 204, 204)" stroke-width="1px"></line><line x1="23.203125" y1="0" x2="23.203125" y2="5" style="visibility: inherit;" fill="rgb(0, 0, 0)" stroke="rgb(204, 204, 204)" stroke-width="1px"></line><line x1="46.40625" y1="0" x2="46.40625" y2="5" style="visibility: inherit;" fill="rgb(0, 0, 0)" stroke="rgb(204, 204, 204)" stroke-width="1px"></line><line x1="69.609375" y1="0" x2="69.609375" y2="5" style="visibility: inherit;" fill="rgb(0, 0, 0)" stroke="rgb(204, 204, 204)" stroke-width="1px"></line><line x1="92.8125" y1="0" x2="92.8125" y2="5" style="visibility: inherit;" fill="rgb(0, 0, 0)" stroke="rgb(204, 204, 204)" stroke-width="1px"></line><line x1="116.015625" y1="0" x2="116.015625" y2="5" style="visibility: inherit;" fill="rgb(0, 0, 0)" stroke="rgb(204, 204, 204)" stroke-width="1px"></line><line x1="139.21875" y1="0" x2="139.21875" y2="5" style="visibility: inherit;" fill="rgb(0, 0, 0)" stroke="rgb(204, 204, 204)" stroke-width="1px"></line><line x1="162.421875" y1="0" x2="162.421875" y2="5" style="visibility: inherit;" fill="rgb(0, 0, 0)" stroke="rgb(204, 204, 204)" stroke-width="1px"></line><line x1="185.625" y1="0" x2="185.625" y2="5" style="visibility: inherit;" fill="rgb(0, 0, 0)" stroke="rgb(204, 204, 204)" stroke-width="1px"></line><line x1="208.828125" y1="0" x2="208.828125" y2="5" style="visibility: inherit;" fill="rgb(0, 0, 0)" stroke="rgb(204, 204, 204)" stroke-width="1px"></line><line x1="232.03125" y1="0" x2="232.03125" y2="5" style="visibility: inherit;" fill="rgb(0, 0, 0)" stroke="rgb(204, 204, 204)" stroke-width="1px"></line><line x1="255.234375" y1="0" x2="255.234375" y2="5" style="visibility: inherit;" fill="rgb(0, 0, 0)" stroke="rgb(204, 204, 204)" stroke-width="1px"></line><line x1="278.4375" y1="0" x2="278.4375" y2="5" style="visibility: inherit;" fill="rgb(0, 0, 0)" stroke="rgb(204, 204, 204)" stroke-width="1px"></line></g><g transform="translate(0, 8)"><text x="0" y="0" dx="0em" dy="0.95em" style="text-anchor: middle; visibility: hidden; font-family: Roboto, sans-serif; font-size: 12px; font-weight: 200;" fill="rgb(33, 33, 33)" stroke="none" stroke-width="1px">-20</text><text x="23.203125" y="0" dx="0em" dy="0.95em" style="text-anchor: middle; visibility: inherit; font-family: Roboto, sans-serif; font-size: 12px; font-weight: 200;" fill="rgb(33, 33, 33)" stroke="none" stroke-width="1px">0</text><text x="46.40625" y="0" dx="0em" dy="0.95em" style="text-anchor: middle; visibility: hidden; font-family: Roboto, sans-serif; font-size: 12px; font-weight: 200;" fill="rgb(33, 33, 33)" stroke="none" stroke-width="1px">20</text><text x="69.609375" y="0" dx="0em" dy="0.95em" style="text-anchor: middle; visibility: inherit; font-family: Roboto, sans-serif; font-size: 12px; font-weight: 200;" fill="rgb(33, 33, 33)" stroke="none" stroke-width="1px">40</text><text x="92.8125" y="0" dx="0em" dy="0.95em" style="text-anchor: middle; visibility: hidden; font-family: Roboto, sans-serif; font-size: 12px; font-weight: 200;" fill="rgb(33, 33, 33)" stroke="none" stroke-width="1px">60</text><text x="116.015625" y="0" dx="0em" dy="0.95em" style="text-anchor: middle; visibility: inherit; font-family: Roboto, sans-serif; font-size: 12px; font-weight: 200;" fill="rgb(33, 33, 33)" stroke="none" stroke-width="1px">80</text><text x="139.21875" y="0" dx="0em" dy="0.95em" style="text-anchor: middle; visibility: hidden; font-family: Roboto, sans-serif; font-size: 12px; font-weight: 200;" fill="rgb(33, 33, 33)" stroke="none" stroke-width="1px">100</text><text x="162.421875" y="0" dx="0em" dy="0.95em" style="text-anchor: middle; visibility: inherit; font-family: Roboto, sans-serif; font-size: 12px; font-weight: 200;" fill="rgb(33, 33, 33)" stroke="none" stroke-width="1px">120</text><text x="185.625" y="0" dx="0em" dy="0.95em" style="text-anchor: middle; visibility: hidden; font-family: Roboto, sans-serif; font-size: 12px; font-weight: 200;" fill="rgb(33, 33, 33)" stroke="none" stroke-width="1px">140</text><text x="208.828125" y="0" dx="0em" dy="0.95em" style="text-anchor: middle; visibility: inherit; font-family: Roboto, sans-serif; font-size: 12px; font-weight: 200;" fill="rgb(33, 33, 33)" stroke="none" stroke-width="1px">160</text><text x="232.03125" y="0" dx="0em" dy="0.95em" style="text-anchor: middle; visibility: hidden; font-family: Roboto, sans-serif; font-size: 12px; font-weight: 200;" fill="rgb(33, 33, 33)" stroke="none" stroke-width="1px">180</text><text x="255.234375" y="0" dx="0em" dy="0.95em" style="text-anchor: middle; visibility: inherit; font-family: Roboto, sans-serif; font-size: 12px; font-weight: 200;" fill="rgb(33, 33, 33)" stroke="none" stroke-width="1px">200</text><text x="278.4375" y="0" dx="0em" dy="0.95em" style="text-anchor: middle; visibility: hidden; font-family: Roboto, sans-serif; font-size: 12px; font-weight: 200;" fill="rgb(33, 33, 33)" stroke="none" stroke-width="1px">220</text></g><line x1="0" y1="0" x2="278.4375" y2="0" fill="rgb(0, 0, 0)" stroke="rgb(204, 204, 204)" stroke-width="1px"></line></g></g></g></g></svg>