<svg viewBox="0 0 329.9884338378906 199.98843383789062" xmlns="http://www.w3.org/2000/svg"><g><g><g><g><g><line x1="30.78125" y1="176.988" x2="25.78125" y2="176.988" style="visibility: inherit;" fill="rgb(0, 0, 0)" stroke="rgb(204, 204, 204)" stroke-width="1px"></line><line x1="30.78125" y1="162.239" x2="25.78125" y2="162.239" style="visibility: inherit;" fill="rgb(0, 0, 0)" stroke="rgb(204, 204, 204)" stroke-width="1px"></line><line x1="30.78125" y1="147.49" x2="25.78125" y2="147.49" style="visibility: inherit;" fill="rgb(0, 0, 0)" stroke="rgb(204, 204, 204)" stroke-width="1px"></line><line x1="30.78125" y1="132.74099999999999" x2="25.78125" y2="132.74099999999999" style="visibility: inherit;" fill="rgb(0, 0, 0)" stroke="rgb(204, 204, 204)" stroke-width="1px"></line><line x1="30.78125" y1="117.99200000000002" x2="25.78125" y2="117.99200000000002" style="visibility: inherit;" fill="rgb(0, 0, 0)" stroke="rgb(204, 204, 204)" stroke-width="1px"></line><line x1="30.78125" y1="103.24299999999998" x2="25.78125" y2="103.24299999999998" style="visibility: inherit;" fill="rgb(0, 0, 0)" stroke="rgb(204, 204, 204)" stroke-width="1px"></line><line x1="30.78125" y1="88.494" x2="25.78125" y2="88.494" style="visibility: inherit;" fill="rgb(0, 0, 0)" stroke="rgb(204, 204, 204)" stroke-width="1px"></line><line x1="30.78125" y1="73.74499999999999" x2="25.78125" y2="73.74499999999999" style="visibility: inherit;" fill="rgb(0, 0, 0)" stroke="rgb(204, 204, 204)" stroke-width="1px"></line><line x1="30.78125" y1="58.99600000000001" x2="25.78125" y2="58.99600000000001" style="visibility: inherit;" fill="rgb(0, 0, 0)" stroke="rgb(204, 204, 204)" stroke-width="1px"></line><line x1="30.78125" y1="44.247" x2="25.78125" y2="44.247" style="visibility: inherit;" fill="rgb(0, 0, 0)" stroke="rgb(204, 204, 204)" stroke-width="1px"></line><line x1="30.78125" y1="29.497999999999994" x2="25.78125" y2="29.497999999999994" style="visibility: inherit;" fill="rgb(0, 0, 0)" stroke="rgb(204, 204, 204)" stroke-width="1px"></line><line x1="30.78125" y1="14.749000000000006" x2="25.78125" y2="14.749000000000006" style="visibility: inherit;" fill="rgb(0, 0, 0)" stroke="rgb(204, 204, 204)" stroke-width="1px"></line><line x1="30.78125" y1="0" x2="25.78125" y2="0" style="visibility: inherit;" fill="rgb(0, 0, 0)" stroke="rgb(204, 204, 204)" stroke-width="1px"></line></g><g transform="translate(20.78125, 0)"><text x="0" y="176.988" dx="0em" dy="0.3em" style="text-anchor: end; visibility: hidden; font-family: Roboto, sans-serif; font-size: 12px; font-weight: 200;" fill="rgb(33, 33, 33)" stroke="none" stroke-width="1px">12</text><text x="0" y="162.239" dx="0em" dy="0.3em" style="text-anchor: end; visibility: inherit; font-family: Roboto, sans-serif; font-size: 12px; font-weight: 200;" fill="rgb(33, 33, 33)" stroke="none" stroke-width="1px">14</text><text x="0" y="147.49" dx="0em" dy="0.3em" style="text-anchor: end; visibility: hidden; font-family: Roboto, sans-serif; font-size: 12px; font-weight: 200;" fill="rgb(33, 33, 33)" stroke="none" stroke-width="1px">16</text><text x="0" y="132.74099999999999" dx="0em" dy="0.3em" style="text-anchor: end; visibility: inherit; font-family: Roboto, sans-serif; font-size: 12px; font-weight: 200;" fill="rgb(33, 33, 33)" stroke="none" stroke-width="1px">18</text><text x="0" y="117.99200000000002" dx="0em" dy="0.3em" style="text-anchor: end; visibility: hidden; font-family: Roboto, sans-serif; font-size: 12px; font-weight: 200;" fill="rgb(33, 33, 33)" stroke="none" stroke-width="1px">20</text><text x="0" y="103.24299999999998" dx="0em" dy="0.3em" style="text-anchor: end; visibility: inherit; font-family: Roboto, sans-serif; font-size: 12px; font-weight: 200;" fill="rgb(33, 33, 33)" stroke="none" stroke-width="1px">22</text><text x="0" y="88.494" dx="0em" dy="0.3em" style="text-anchor: end; visibility: hidden; font-family: Roboto, sans-serif; font-size: 12px; font-weight: 200;" fill="rgb(33, 33, 33)" stroke="none" stroke-width="1px">24</text><text x="0" y="73.74499999999999" dx="0em" dy="0.3em" style="text-anchor: end; visibility: inherit; font-family: Roboto, sans-serif; font-size: 12px; font-weight: 200;" fill="rgb(33, 33, 33)" stroke="none" stroke-width="1px">26</text><text x="0" y="58.99600000000001" dx="0em" dy="0.3em" style="text-anchor: end; visibility: hidden; font-family: Roboto, sans-serif; font-size: 12px; font-weight: 200;" fill="rgb(33, 33, 33)" stroke="none" stroke-width="1px">28</text><text x="0" y="44.247" dx="0em" dy="0.3em" style="text-anchor: end; visibility: inherit; font-family: Roboto, sans-serif; font-size: 12px; font-weight: 200;" fill="rgb(33, 33, 33)" stroke="none" stroke-width="1px">30</text><text x="0" y="29.497999999999994" dx="0em" dy="0.3em" style="text-anchor: end; visibility: hidden; font-family: Roboto, sans-serif; font-size: 12px; font-weight: 200;" fill="rgb(33, 33, 33)" stroke="none" stroke-width="1px">32</text><text x="0" y="14.749000000000006" dx="0em" dy="0.3em" style="text-anchor: end; visibility: inherit; font-family: Roboto, sans-serif; font-size: 12px; font-weight: 200;" fill="rgb(33, 33, 33)" stroke="none" stroke-width="1px">34</text><text x="0" y="0" dx="0em" dy="0.3em" style="text-anchor: end; visibility: hidden; font-family: Roboto, sans-serif; font-size: 12px; font-weight: 200;" fill="rgb(33, 33, 33)" stroke="none" stroke-width="1px">36</text></g><line x1="30.78125" y1="0" x2="30.78125" y2="176.988" fill="rgb(0, 0, 0)" stroke="rgb(204, 204, 204)" stroke-width="1px"></line></g></g><g transform="translate(30, 0)" clip-path="url(#clip_0)"><clipPath id="clip_0"><rect width="299" height="176"></rect></clipPath><g><g><g><line x1="0" y1="0" x2="0" y2="176.988" fill="rgb(0, 0, 0)" stroke="rgb(66, 66, 66)" stroke-width="1px" opacity="0.25"></line><line x1="23.015903846153847" y1="0" x2="23.015903846153847" y2="176.988" fill="rgb(0, 0, 0)" stroke="rgb(66, 66, 66)" stroke-width="1px" opacity="0.25"></line><line x1="46.031807692307694" y1="0" x2="46.031807692307694" y2="176.988" fill="rgb(0, 0, 0)" stroke="rgb(66, 66, 66)" stroke-width="1px" opacity="0.25"></line><line x1="69.04771153846154" y1="0" x2="69.04771153846154" y2="176.988" fill="rgb(0, 0, 0)" stroke="rgb(66, 66, 66)" stroke-width="1px" opacity="0.25"></line><line x1="92.06361538461539" y1="0" x2="92.06361538461539" y2="176.988" fill="rgb(0, 0, 0)" stroke="rgb(66, 66, 66)" stroke-width="1px" opacity="0.25"></line><line x1="115.07951923076924" y1="0" x2="115.07951923076924" y2="176.988" fill="rgb(0, 0, 0)" stroke="rgb(66, 66, 66)" stroke-width="1px" opacity="0.25"></line><line x1="138.09542307692308" y1="0" x2="138.09542307692308" y2="176.988" fill="rgb(0, 0, 0)" stroke="rgb(66, 66, 66)" stroke-width="1px" opacity="0.25"></line><line x1="161.11132692307692" y1="0" x2="161.11132692307692" y2="176.988" fill="rgb(0, 0, 0)" stroke="rgb(66, 66, 66)" stroke-width="1px" opacity="0.25"></line><line x1="184.12723076923078" y1="0" x2="184.12723076923078" y2="176.988" fill="rgb(0, 0, 0)" stroke="rgb(66, 66, 66)" stroke-width="1px" opacity="0.25"></line><line x1="207.1431346153846" y1="0" x2="207.1431346153846" y2="176.988" fill="rgb(0, 0, 0)" stroke="rgb(66, 66, 66)" stroke-width="1px" opacity="0.25"></line><line x1="230.15903846153847" y1="0" x2="230.15903846153847" y2="176.988" fill="rgb(0, 0, 0)" stroke="rgb(66, 66, 66)" stroke-width="1px" opacity="0.25"></line><line x1="253.1749423076923" y1="0" x2="253.1749423076923" y2="176.988" fill="rgb(0, 0, 0)" stroke="rgb(66, 66, 66)" stroke-width="1px" opacity="0.25"></line><line x1="276.19084615384617" y1="0" x2="276.19084615384617" y2="176.988" fill="rgb(0, 0, 0)" stroke="rgb(66, 66, 66)" stroke-width="1px" opacity="0.25"></line><line x1="299.20675" y1="0" x2="299.20675" y2="176.988" fill="rgb(0, 0, 0)" stroke="rgb(66, 66, 66)" stroke-width="1px" opacity="0.25"></line></g><g><line x1="0" y1="176.988" x2="299.20675" y2="176.988" fill="rgb(0, 0, 0)" stroke="rgb(66, 66, 66)" stroke-width="1px" opacity="0.25"></line><line x1="0" y1="162.239" x2="299.20675" y2="162.239" fill="rgb(0, 0, 0)" stroke="rgb(66, 66, 66)" stroke-width="1px" opacity="0.25"></line><line x1="0" y1="147.49" x2="299.20675" y2="147.49" fill="rgb(0, 0, 0)" stroke="rgb(66, 66, 66)" stroke-width="1px" opacity="0.25"></line><line x1="0" y1="132.74099999999999" x2="299.20675" y2="132.74099999999999" fill="rgb(0, 0, 0)" stroke="rgb(66, 66, 66)" stroke-width="1px" opacity="0.25"></line><line x1="0" y1="117.99200000000002" x2="299.20675" y2="117.99200000000002" fill="rgb(0, 0, 0)" stroke="rgb(66, 66, 66)" stroke-width="1px" opacity="0.25"></line><line x1="0" y1="103.24299999999998" x2="299.20675" y2="103.24299999999998" fill="rgb(0, 0, 0)" stroke="rgb(66, 66, 66)" stroke-width="1px" opacity="0.25"></line><line x1="0" y1="88.494" x2="299.20675" y2="88.494" fill="rgb(0, 0, 0)" stroke="rgb(66, 66, 66)" stroke-width="1px" opacity="0.25"></line><line x1="0" y1="73.74499999999999" x2="299.20675" y2="73.74499999999999" fill="rgb(0, 0, 0)" stroke="rgb(66, 66, 66)" stroke-width="1px" opacity="0.25"></line><line x1="0" y1="58.99600000000001" x2="299.20675" y2="58.99600000000001" fill="rgb(0, 0, 0)" stroke="rgb(66, 66, 66)" stroke-width="1px" opacity="0.25"></line><line x1="0" y1="44.247" x2="299.20675" y2="44.247" fill="rgb(0, 0, 0)" stroke="rgb(66, 66, 66)" stroke-width="1px" opacity="0.25"></line><line x1="0" y1="29.497999999999994" x2="299.20675" y2="29.497999999999994" fill="rgb(0, 0, 0)" stroke="rgb(66, 66, 66)" stroke-width="1px" opacity="0.25"></line><line x1="0" y1="14.749000000000006" x2="299.20675" y2="14.749000000000006" fill="rgb(0, 0, 0)" stroke="rgb(66, 66, 66)" stroke-width="1px" opacity="0.25"></line><line x1="0" y1="0" x2="299.20675" y2="0" fill="rgb(0, 0, 0)" stroke="rgb(66, 66, 66)" stroke-width="1px" opacity="0.25"></line></g></g></g><g><g><line x1="0" y1="265.48199999999997" x2="299.20675" y2="265.48199999999997" fill="rgb(0, 0, 0)" stroke="rgb(153, 153, 153)" stroke-width="1.5px"></line></g></g><g><g><line x1="23.015903846153847" y1="0" x2="23.015903846153847" y2="176.988" fill="rgb(0, 0, 0)" stroke="rgb(153, 153, 153)" stroke-width="1.5px"></line></g></g><g><g><g><g><g><path stroke="rgb(255, 112, 67)" stroke-width="2px" d="M25.31749423076923,39.7788903055191L27.619084615384615,45.703161266207665L29.920675000000003,38.05033255195613L32.22226538461538,31.558115393386185L34.52385576923077,28.646017888878593L36.82544615384616,32.35990144414022L39.12703653846154,47.432361992864095L41.428626923076926,40.073990745077026L43.73021730769231,38.39520450739037L46.031807692307694,32.850912282671054L48.33339807692308,26.088288649057812L50.63498846153846,24.896398885362043L52.93657884615385,35.51999346710529L55.23816923076923,38.638162518065386L57.53975961538462,33.932133274569566L59.841350000000006,35.32791364480967L62.142940384615386,26.775799539169984L64.44453076923077,21.246163785942624L66.74612115384616,23.591774741709198L69.04771153846154,24.76000224111168L71.34930192307692,30.628193415646425L73.65089230769232,32.09599106680392L75.95248269230768,24.80906060296939L78.25407307692308,22.815782554992744L80.55566346153846,22.31027164882259L82.85725384615385,19.655980056558306L85.15884423076923,13.332013707107192L87.46043461538461,13.22599305905997L89.762025,13.357331974679507L92.06361538461539,8.732718752636309L94.36520576923077,10.68039573722505L96.66679615384616,12.24978543482168L98.96838653846153,21.71595719189471L101.26997692307692,15.142574974427404L103.5715673076923,20.057645652798648L105.8731576923077,16.875262001036102L108.17474807692308,15.982469946866491L110.47633846153846,17.76938638988567L112.77792884615384,17.60882582924021L115.07951923076924,11.897298798777651L117.38110961538462,13.790732808617287L119.68270000000001,11.105648595773955L121.98429038461538,16.07687044323206L124.28588076923077,13.594151131323274L126.58747115384615,18.652977872618155L128.88906153846153,13.114359922688363L131.19065192307693,17.41972771524876L133.49224230769232,15.383443483351556L135.7938326923077,12.508554360541051L138.09542307692308,69.9145760602777L140.39701346153845,104.35818907982275L142.69860384615384,125.02435689144282L145.00019423076924,137.42405757837642L147.30178461538463,144.86387799052272L149.603375,149.3277702378055L151.90496538461537,152.0061055861734L154.20655576923076,153.61310679519346L156.50814615384616,154.57730752060527L158.80973653846155,155.1558279558523L161.11132692307692,155.50294021700046L163.41291730769228,155.71120757368934L165.7145076923077,155.83616798770268L168.01609807692307,155.9111442361107L170.31768846153847,155.95612998515546L172.61927884615383,155.98312143458236L174.92086923076923,155.99931630423848L177.22245961538462,156.0090332260322L179.52405,156.0148633791084L181.82564038461538,156.0183614709541L184.12723076923078,156.0204603260615L186.42882115384614,156.02171963912596L188.73041153846154,156.02247522696467L191.0320019230769,156.02292857966785L193.33359230769233,156.0232005912898L195.6351826923077,156.02336379826295L197.93677307692306,156.02346172244685L200.23836346153846,156.02352047695717L202.53995384615385,156.02355572966337L204.84154423076924,156.0235768812871L207.1431346153846,156.02358957226133L209.44472499999998,156.02359718684588L211.7463153846154,156.02360175559662L214.04790576923077,156.02360449684704L216.34949615384616,156.0236061415973L218.65108653846153,156.02360712844745L220.95267692307692,156.02360772055752L223.25426730769232,156.0236080758236L225.55585769230768,156.02360828898324L227.85744807692308,156.02360841687903L230.15903846153847,156.02360849361648L232.46062884615384,156.02360853965897L234.76221923076923,156.02360856728444L237.0638096153846,156.02360858385973L239.36540000000002,156.0236085938049L241.6669903846154,156.02360859977202L243.96858076923075,156.0236086033523L246.27017115384615,156.02360860550044L248.57176153846154,156.02360860678934L250.87335192307694,156.02360860756266L253.1749423076923,156.02360860802668L255.47653269230767,156.02360860830507L257.77812307692307,156.02360860847213L260.07971346153846,156.02360860857235L262.38130384615386,156.0236086086325L264.6828942307692,156.02360860866855L266.98448461538464,156.0236086086902L269.286075,156.0236086087032L271.5876653846154,156.023608608711L273.8892557692308,156.02360860871565L276.19084615384617,156.02360860871846L278.49243653846156,156.02360860872017L280.7940269230769,156.02360860872116L283.0956173076923,156.02360860872176L285.3972076923077,156.02360860872216L287.6987980769231,156.02360860872236" style="fill: none;" fill="none"></path></g></g></g></g><g opacity="0.2"><g><g><g><path stroke="rgb(255, 112, 67)" stroke-width="2px" d="M25.31749423076923,39.7788903055191L27.619084615384615,49.257723842620855L29.920675000000003,30.703616986274714L32.22226538461538,23.923268014907844L34.52385576923077,24.8439833869934L36.82544615384616,37.49753939914703L39.12703653846154,68.98622173690796L41.428626923076926,29.34541482543945L43.73021730769231,35.919320894241324L46.031807692307694,24.618284482955932L48.33339807692308,16.00568969726562L50.63498846153846,23.115050451278687L52.93657884615385,51.42069746017456L55.23816923076923,43.309307276725775L57.53975961538462,26.878621170043946L59.841350000000006,37.420599787712106L62.142940384615386,13.951247348785401L64.44453076923077,12.953114130020142L66.74612115384616,27.109833845138557L69.04771153846154,26.512236709594735L71.34930192307692,39.4301583518982L73.65089230769232,34.29763924503326L75.95248269230768,13.878808774948126L78.25407307692308,19.82588909530639L80.55566346153846,21.552008882522575L82.85725384615385,15.674553987503058L85.15884423076923,3.8460803642273014L87.46043461538461,13.066962249755859L89.762025,13.554340227127074L92.06361538461539,1.795801475524909L94.36520576923077,13.601910568237312L96.66679615384616,14.603869668960572L98.96838653846153,35.91521369743348L101.26997692307692,5.282502119064331L103.5715673076923,27.4302514591217L105.8731576923077,12.101686605453486L108.17474807692308,14.643281879425048L110.47633846153846,20.449761037826544L112.77792884615384,17.367984989166253L115.07951923076924,3.330008272171027L117.38110961538462,16.63088381958007L119.68270000000001,7.078022279739374L121.98429038461538,23.533703210830694L124.28588076923077,9.870072164535529L126.58747115384615,26.241217983245843L128.88906153846153,4.806432998657226L131.19065192307693,23.87777940368653L133.49224230769232,12.329017135620116L135.7938326923077,8.196220676422119L138.09542307692308,156.0236086087227L140.39701346153845,156.0236086087227L142.69860384615384,156.0236086087227L145.00019423076924,156.0236086087227L147.30178461538463,156.0236086087227L149.603375,156.0236086087227L151.90496538461537,156.0236086087227L154.20655576923076,156.0236086087227L156.50814615384616,156.0236086087227L158.80973653846155,156.0236086087227L161.11132692307692,156.0236086087227L163.41291730769228,156.0236086087227L165.7145076923077,156.0236086087227L168.01609807692307,156.0236086087227L170.31768846153847,156.0236086087227L172.61927884615383,156.0236086087227L174.92086923076923,156.0236086087227L177.22245961538462,156.0236086087227L179.52405,156.0236086087227L181.82564038461538,156.0236086087227L184.12723076923078,156.0236086087227L186.42882115384614,156.0236086087227L188.73041153846154,156.0236086087227L191.0320019230769,156.0236086087227L193.33359230769233,156.0236086087227L195.6351826923077,156.0236086087227L197.93677307692306,156.0236086087227L200.23836346153846,156.0236086087227L202.53995384615385,156.0236086087227L204.84154423076924,156.0236086087227L207.1431346153846,156.0236086087227L209.44472499999998,156.0236086087227L211.7463153846154,156.0236086087227L214.04790576923077,156.0236086087227L216.34949615384616,156.0236086087227L218.65108653846153,156.0236086087227L220.95267692307692,156.0236086087227L223.25426730769232,156.0236086087227L225.55585769230768,156.0236086087227L227.85744807692308,156.0236086087227L230.15903846153847,156.0236086087227L232.46062884615384,156.0236086087227L234.76221923076923,156.0236086087227L237.0638096153846,156.0236086087227L239.36540000000002,156.0236086087227L241.6669903846154,156.0236086087227L243.96858076923075,156.0236086087227L246.27017115384615,156.0236086087227L248.57176153846154,156.0236086087227L250.87335192307694,156.0236086087227L253.1749423076923,156.0236086087227L255.47653269230767,156.0236086087227L257.77812307692307,156.0236086087227L260.07971346153846,156.0236086087227L262.38130384615386,156.0236086087227L264.6828942307692,156.0236086087227L266.98448461538464,156.0236086087227L269.286075,156.0236086087227L271.5876653846154,156.0236086087227L273.8892557692308,156.0236086087227L276.19084615384617,156.0236086087227L278.49243653846156,156.0236086087227L280.7940269230769,156.0236086087227L283.0956173076923,156.0236086087227L285.3972076923077,156.0236086087227L287.6987980769231,156.0236086087227" style="fill: none;" fill="none"></path></g></g></g></g></g></g><g transform="translate(30, 176)" clip-path="url(#clip_1)"><clipPath id="clip_1"><rect width="299" height="22"></rect></clipPath><g><g><line x1="0" y1="0" x2="0" y2="5" style="visibility: inherit;" fill="rgb(0, 0, 0)" stroke="rgb(204, 204, 204)" stroke-width="1px"></line><line x1="23.015903846153847" y1="0" x2="23.015903846153847" y2="5" style="visibility: inherit;" fill="rgb(0, 0, 0)" stroke="rgb(204, 204, 204)" stroke-width="1px"></line><line x1="46.031807692307694" y1="0" x2="46.031807692307694" y2="5" style="visibility: inherit;" fill="rgb(0, 0, 0)" stroke="rgb(204, 204, 204)" stroke-width="1px"></line><line x1="69.04771153846154" y1="0" x2="69.04771153846154" y2="5" style="visibility: inherit;" fill="rgb(0, 0, 0)" stroke="rgb(204, 204, 204)" stroke-width="1px"></line><line x1="92.06361538461539" y1="0" x2="92.06361538461539" y2="5" style="visibility: inherit;" fill="rgb(0, 0, 0)" stroke="rgb(204, 204, 204)" stroke-width="1px"></line><line x1="115.07951923076924" y1="0" x2="115.07951923076924" y2="5" style="visibility: inherit;" fill="rgb(0, 0, 0)" stroke="rgb(204, 204, 204)" stroke-width="1px"></line><line x1="138.09542307692308" y1="0" x2="138.09542307692308" y2="5" style="visibility: inherit;" fill="rgb(0, 0, 0)" stroke="rgb(204, 204, 204)" stroke-width="1px"></line><line x1="161.11132692307692" y1="0" x2="161.11132692307692" y2="5" style="visibility: inherit;" fill="rgb(0, 0, 0)" stroke="rgb(204, 204, 204)" stroke-width="1px"></line><line x1="184.12723076923078" y1="0" x2="184.12723076923078" y2="5" style="visibility: inherit;" fill="rgb(0, 0, 0)" stroke="rgb(204, 204, 204)" stroke-width="1px"></line><line x1="207.1431346153846" y1="0" x2="207.1431346153846" y2="5" style="visibility: inherit;" fill="rgb(0, 0, 0)" stroke="rgb(204, 204, 204)" stroke-width="1px"></line><line x1="230.15903846153847" y1="0" x2="230.15903846153847" y2="5" style="visibility: inherit;" fill="rgb(0, 0, 0)" stroke="rgb(204, 204, 204)" stroke-width="1px"></line><line x1="253.1749423076923" y1="0" x2="253.1749423076923" y2="5" style="visibility: inherit;" fill="rgb(0, 0, 0)" stroke="rgb(204, 204, 204)" stroke-width="1px"></line><line x1="276.19084615384617" y1="0" x2="276.19084615384617" y2="5" style="visibility: inherit;" fill="rgb(0, 0, 0)" stroke="rgb(204, 204, 204)" stroke-width="1px"></line><line x1="299.20675" y1="0" x2="299.20675" y2="5" style="visibility: inherit;" fill="rgb(0, 0, 0)" stroke="rgb(204, 204, 204)" stroke-width="1px"></line></g><g transform="translate(0, 8)"><text x="0" y="0" dx="0em" dy="0.95em" style="text-anchor: middle; visibility: hidden; font-family: Roboto, sans-serif; font-size: 12px; font-weight: 200;" fill="rgb(33, 33, 33)" stroke="none" stroke-width="1px">-10</text><text x="23.015903846153847" y="0" dx="0em" dy="0.95em" style="text-anchor: middle; visibility: inherit; font-family: Roboto, sans-serif; font-size: 12px; font-weight: 200;" fill="rgb(33, 33, 33)" stroke="none" stroke-width="1px">0</text><text x="46.031807692307694" y="0" dx="0em" dy="0.95em" style="text-anchor: middle; visibility: hidden; font-family: Roboto, sans-serif; font-size: 12px; font-weight: 200;" fill="rgb(33, 33, 33)" stroke="none" stroke-width="1px">10</text><text x="69.04771153846154" y="0" dx="0em" dy="0.95em" style="text-anchor: middle; visibility: inherit; font-family: Roboto, sans-serif; font-size: 12px; font-weight: 200;" fill="rgb(33, 33, 33)" stroke="none" stroke-width="1px">20</text><text x="92.06361538461539" y="0" dx="0em" dy="0.95em" style="text-anchor: middle; visibility: hidden; font-family: Roboto, sans-serif; font-size: 12px; font-weight: 200;" fill="rgb(33, 33, 33)" stroke="none" stroke-width="1px">30</text><text x="115.07951923076924" y="0" dx="0em" dy="0.95em" style="text-anchor: middle; visibility: inherit; font-family: Roboto, sans-serif; font-size: 12px; font-weight: 200;" fill="rgb(33, 33, 33)" stroke="none" stroke-width="1px">40</text><text x="138.09542307692308" y="0" dx="0em" dy="0.95em" style="text-anchor: middle; visibility: hidden; font-family: Roboto, sans-serif; font-size: 12px; font-weight: 200;" fill="rgb(33, 33, 33)" stroke="none" stroke-width="1px">50</text><text x="161.11132692307692" y="0" dx="0em" dy="0.95em" style="text-anchor: middle; visibility: inherit; font-family: Roboto, sans-serif; font-size: 12px; font-weight: 200;" fill="rgb(33, 33, 33)" stroke="none" stroke-width="1px">60</text><text x="184.12723076923078" y="0" dx="0em" dy="0.95em" style="text-anchor: middle; visibility: hidden; font-family: Roboto, sans-serif; font-size: 12px; font-weight: 200;" fill="rgb(33, 33, 33)" stroke="none" stroke-width="1px">70</text><text x="207.1431346153846" y="0" dx="0em" dy="0.95em" style="text-anchor: middle; visibility: inherit; font-family: Roboto, sans-serif; font-size: 12px; font-weight: 200;" fill="rgb(33, 33, 33)" stroke="none" stroke-width="1px">80</text><text x="230.15903846153847" y="0" dx="0em" dy="0.95em" style="text-anchor: middle; visibility: hidden; font-family: Roboto, sans-serif; font-size: 12px; font-weight: 200;" fill="rgb(33, 33, 33)" stroke="none" stroke-width="1px">90</text><text x="253.1749423076923" y="0" dx="0em" dy="0.95em" style="text-anchor: middle; visibility: inherit; font-family: Roboto, sans-serif; font-size: 12px; font-weight: 200;" fill="rgb(33, 33, 33)" stroke="none" stroke-width="1px">100</text><text x="276.19084615384617" y="0" dx="0em" dy="0.95em" style="text-anchor: middle; visibility: hidden; font-family: Roboto, sans-serif; font-size: 12px; font-weight: 200;" fill="rgb(33, 33, 33)" stroke="none" stroke-width="1px">110</text><text x="299.20675" y="0" dx="0em" dy="0.95em" style="text-anchor: middle; visibility: hidden; font-family: Roboto, sans-serif; font-size: 12px; font-weight: 200;" fill="rgb(33, 33, 33)" stroke="none" stroke-width="1px">120</text></g><line x1="0" y1="0" x2="299.20675" y2="0" fill="rgb(0, 0, 0)" stroke="rgb(204, 204, 204)" stroke-width="1px"></line></g></g></g></g></svg>