<svg viewBox="0 0 330.0000305175781 200.00001525878906" xmlns="http://www.w3.org/2000/svg"><g><g><g><g><g><line x1="51.5625" y1="177" x2="46.5625" y2="177" style="visibility: inherit;" fill="rgb(0, 0, 0)" stroke="rgb(204, 204, 204)" stroke-width="1px"></line><line x1="51.5625" y1="157.33333333333331" x2="46.5625" y2="157.33333333333331" style="visibility: inherit;" fill="rgb(0, 0, 0)" stroke="rgb(204, 204, 204)" stroke-width="1px"></line><line x1="51.5625" y1="137.66666666666666" x2="46.5625" y2="137.66666666666666" style="visibility: inherit;" fill="rgb(0, 0, 0)" stroke="rgb(204, 204, 204)" stroke-width="1px"></line><line x1="51.5625" y1="118.00000000000001" x2="46.5625" y2="118.00000000000001" style="visibility: inherit;" fill="rgb(0, 0, 0)" stroke="rgb(204, 204, 204)" stroke-width="1px"></line><line x1="51.5625" y1="98.33333333333334" x2="46.5625" y2="98.33333333333334" style="visibility: inherit;" fill="rgb(0, 0, 0)" stroke="rgb(204, 204, 204)" stroke-width="1px"></line><line x1="51.5625" y1="78.66666666666666" x2="46.5625" y2="78.66666666666666" style="visibility: inherit;" fill="rgb(0, 0, 0)" stroke="rgb(204, 204, 204)" stroke-width="1px"></line><line x1="51.5625" y1="59.00000000000001" x2="46.5625" y2="59.00000000000001" style="visibility: inherit;" fill="rgb(0, 0, 0)" stroke="rgb(204, 204, 204)" stroke-width="1px"></line><line x1="51.5625" y1="39.33333333333333" x2="46.5625" y2="39.33333333333333" style="visibility: inherit;" fill="rgb(0, 0, 0)" stroke="rgb(204, 204, 204)" stroke-width="1px"></line><line x1="51.5625" y1="19.666666666666675" x2="46.5625" y2="19.666666666666675" style="visibility: inherit;" fill="rgb(0, 0, 0)" stroke="rgb(204, 204, 204)" stroke-width="1px"></line><line x1="51.5625" y1="0" x2="46.5625" y2="0" style="visibility: inherit;" fill="rgb(0, 0, 0)" stroke="rgb(204, 204, 204)" stroke-width="1px"></line></g><g transform="translate(41.5625, 0)"><text x="0" y="177" dx="0em" dy="0.3em" style="text-anchor: end; visibility: hidden; font-family: Roboto, sans-serif; font-size: 12px; font-weight: 200;" fill="rgb(33, 33, 33)" stroke="none" stroke-width="1px">14.5</text><text x="0" y="157.33333333333331" dx="0em" dy="0.3em" style="text-anchor: end; visibility: inherit; font-family: Roboto, sans-serif; font-size: 12px; font-weight: 200;" fill="rgb(33, 33, 33)" stroke="none" stroke-width="1px">15</text><text x="0" y="137.66666666666666" dx="0em" dy="0.3em" style="text-anchor: end; visibility: hidden; font-family: Roboto, sans-serif; font-size: 12px; font-weight: 200;" fill="rgb(33, 33, 33)" stroke="none" stroke-width="1px">15.5</text><text x="0" y="118.00000000000001" dx="0em" dy="0.3em" style="text-anchor: end; visibility: inherit; font-family: Roboto, sans-serif; font-size: 12px; font-weight: 200;" fill="rgb(33, 33, 33)" stroke="none" stroke-width="1px">16</text><text x="0" y="98.33333333333334" dx="0em" dy="0.3em" style="text-anchor: end; visibility: hidden; font-family: Roboto, sans-serif; font-size: 12px; font-weight: 200;" fill="rgb(33, 33, 33)" stroke="none" stroke-width="1px">16.5</text><text x="0" y="78.66666666666666" dx="0em" dy="0.3em" style="text-anchor: end; visibility: inherit; font-family: Roboto, sans-serif; font-size: 12px; font-weight: 200;" fill="rgb(33, 33, 33)" stroke="none" stroke-width="1px">17</text><text x="0" y="59.00000000000001" dx="0em" dy="0.3em" style="text-anchor: end; visibility: hidden; font-family: Roboto, sans-serif; font-size: 12px; font-weight: 200;" fill="rgb(33, 33, 33)" stroke="none" stroke-width="1px">17.5</text><text x="0" y="39.33333333333333" dx="0em" dy="0.3em" style="text-anchor: end; visibility: inherit; font-family: Roboto, sans-serif; font-size: 12px; font-weight: 200;" fill="rgb(33, 33, 33)" stroke="none" stroke-width="1px">18</text><text x="0" y="19.666666666666675" dx="0em" dy="0.3em" style="text-anchor: end; visibility: hidden; font-family: Roboto, sans-serif; font-size: 12px; font-weight: 200;" fill="rgb(33, 33, 33)" stroke="none" stroke-width="1px">18.5</text><text x="0" y="0" dx="0em" dy="0.3em" style="text-anchor: end; visibility: hidden; font-family: Roboto, sans-serif; font-size: 12px; font-weight: 200;" fill="rgb(33, 33, 33)" stroke="none" stroke-width="1px">19</text></g><line x1="51.5625" y1="0" x2="51.5625" y2="177" fill="rgb(0, 0, 0)" stroke="rgb(204, 204, 204)" stroke-width="1px"></line></g></g><g transform="translate(51, 0)" clip-path="url(#clip_0)"><clipPath id="clip_0"><rect width="278" height="177"></rect></clipPath><g><g><g><line x1="0" y1="0" x2="0" y2="177" fill="rgb(0, 0, 0)" stroke="rgb(66, 66, 66)" stroke-width="1px" opacity="0.25"></line><line x1="23.203125" y1="0" x2="23.203125" y2="177" fill="rgb(0, 0, 0)" stroke="rgb(66, 66, 66)" stroke-width="1px" opacity="0.25"></line><line x1="46.40625" y1="0" x2="46.40625" y2="177" fill="rgb(0, 0, 0)" stroke="rgb(66, 66, 66)" stroke-width="1px" opacity="0.25"></line><line x1="69.609375" y1="0" x2="69.609375" y2="177" fill="rgb(0, 0, 0)" stroke="rgb(66, 66, 66)" stroke-width="1px" opacity="0.25"></line><line x1="92.8125" y1="0" x2="92.8125" y2="177" fill="rgb(0, 0, 0)" stroke="rgb(66, 66, 66)" stroke-width="1px" opacity="0.25"></line><line x1="116.015625" y1="0" x2="116.015625" y2="177" fill="rgb(0, 0, 0)" stroke="rgb(66, 66, 66)" stroke-width="1px" opacity="0.25"></line><line x1="139.21875" y1="0" x2="139.21875" y2="177" fill="rgb(0, 0, 0)" stroke="rgb(66, 66, 66)" stroke-width="1px" opacity="0.25"></line><line x1="162.421875" y1="0" x2="162.421875" y2="177" fill="rgb(0, 0, 0)" stroke="rgb(66, 66, 66)" stroke-width="1px" opacity="0.25"></line><line x1="185.625" y1="0" x2="185.625" y2="177" fill="rgb(0, 0, 0)" stroke="rgb(66, 66, 66)" stroke-width="1px" opacity="0.25"></line><line x1="208.828125" y1="0" x2="208.828125" y2="177" fill="rgb(0, 0, 0)" stroke="rgb(66, 66, 66)" stroke-width="1px" opacity="0.25"></line><line x1="232.03125" y1="0" x2="232.03125" y2="177" fill="rgb(0, 0, 0)" stroke="rgb(66, 66, 66)" stroke-width="1px" opacity="0.25"></line><line x1="255.234375" y1="0" x2="255.234375" y2="177" fill="rgb(0, 0, 0)" stroke="rgb(66, 66, 66)" stroke-width="1px" opacity="0.25"></line><line x1="278.4375" y1="0" x2="278.4375" y2="177" fill="rgb(0, 0, 0)" stroke="rgb(66, 66, 66)" stroke-width="1px" opacity="0.25"></line></g><g><line x1="0" y1="177" x2="278.4375" y2="177" fill="rgb(0, 0, 0)" stroke="rgb(66, 66, 66)" stroke-width="1px" opacity="0.25"></line><line x1="0" y1="157.33333333333331" x2="278.4375" y2="157.33333333333331" fill="rgb(0, 0, 0)" stroke="rgb(66, 66, 66)" stroke-width="1px" opacity="0.25"></line><line x1="0" y1="137.66666666666666" x2="278.4375" y2="137.66666666666666" fill="rgb(0, 0, 0)" stroke="rgb(66, 66, 66)" stroke-width="1px" opacity="0.25"></line><line x1="0" y1="118.00000000000001" x2="278.4375" y2="118.00000000000001" fill="rgb(0, 0, 0)" stroke="rgb(66, 66, 66)" stroke-width="1px" opacity="0.25"></line><line x1="0" y1="98.33333333333334" x2="278.4375" y2="98.33333333333334" fill="rgb(0, 0, 0)" stroke="rgb(66, 66, 66)" stroke-width="1px" opacity="0.25"></line><line x1="0" y1="78.66666666666666" x2="278.4375" y2="78.66666666666666" fill="rgb(0, 0, 0)" stroke="rgb(66, 66, 66)" stroke-width="1px" opacity="0.25"></line><line x1="0" y1="59.00000000000001" x2="278.4375" y2="59.00000000000001" fill="rgb(0, 0, 0)" stroke="rgb(66, 66, 66)" stroke-width="1px" opacity="0.25"></line><line x1="0" y1="39.33333333333333" x2="278.4375" y2="39.33333333333333" fill="rgb(0, 0, 0)" stroke="rgb(66, 66, 66)" stroke-width="1px" opacity="0.25"></line><line x1="0" y1="19.666666666666675" x2="278.4375" y2="19.666666666666675" fill="rgb(0, 0, 0)" stroke="rgb(66, 66, 66)" stroke-width="1px" opacity="0.25"></line><line x1="0" y1="0" x2="278.4375" y2="0" fill="rgb(0, 0, 0)" stroke="rgb(66, 66, 66)" stroke-width="1px" opacity="0.25"></line></g></g></g><g><g><line x1="0" y1="747.3333333333334" x2="278.4375" y2="747.3333333333334" fill="rgb(0, 0, 0)" stroke="rgb(153, 153, 153)" stroke-width="1.5px"></line></g></g><g><g><line x1="23.203125" y1="0" x2="23.203125" y2="177" fill="rgb(0, 0, 0)" stroke="rgb(153, 153, 153)" stroke-width="1.5px"></line></g></g><g><g><g><g><g><path stroke="rgb(255, 112, 67)" stroke-width="2px" d="M34.8046875,-70.71323686917043L35.96484375000001,9.426238169968926L37.125,55.020522894038585L38.28515625,81.5919741030787L39.4453125,95.71011195485241L40.60546875,102.81647767288905L41.765625,107.17229269346315L42.92578125,108.9996779733531L44.0859375,226.62246752541492L45.24609375,182.0480694252863L46.40625,159.1347963595558L47.56640625,140.22801147975082L48.7265625,129.1035743251626L49.88671875,123.03387095280782L51.04687499999999,118.57910324145404L52.20703125,115.96765461403592L53.36718750000001,115.38646590218266L54.52734375,114.05270845779724L55.6875,112.85420582061829L56.84765625,113.4459862348304L58.0078125,113.52887309060259L59.16796875,112.56517274590057L60.328125,113.29897410795938L61.48828125,112.5129990309221L62.6484375,112.68243524697552L63.80859375,112.58615792387403L64.96875,112.68704886099654L66.12890625,117.44090849437396L67.2890625,115.61688426221464L68.44921875,114.30580509460958L69.609375,113.6842368401145L70.76953125,113.85511811332042L71.92968750000001,113.21420510433735L73.08984375,111.5074928903975L74.25,111.63875018982775L75.41015625,113.25717386080964L76.5703125,113.70772279389027L77.73046875,112.67164244501294L78.890625,112.2062208389048L80.05078125,112.50217946379604L81.2109375,124.20553283706366L82.37109375,119.09849670416654L83.53125,122.99009498092605L84.69140624999999,118.41256691693292L85.8515625,114.86127000855461L87.01171875,113.85477724357622L88.171875,113.15179202567005L89.33203125000001,114.28179380264197L90.4921875,113.22689793685845L91.65234375,115.41393162913987L92.8125,114.65013255739927L93.97265625,117.62655770419883L95.1328125,115.00952938977197L96.29296875,113.68169470498937L97.453125,115.65885635139523L98.61328125,116.69260283264697L99.7734375,115.23257016312972L100.93359375,114.44786780181673L102.09374999999999,114.00936602614205L103.25390625,120.74198181864755L104.4140625,122.77702833475948L105.57421875,124.22735464530555L106.73437500000001,121.91004458243067L107.89453125,119.34285749897009L109.0546875,117.25014046373755L110.21484375,124.06189178353229L111.375,122.91355083143122L112.53515625,119.43555929117642L113.6953125,118.37128939143761L114.85546875,117.87274922080003L116.015625,120.19535719442656L117.17578125,118.05527787459867L118.3359375,117.1498532278517L119.49609374999999,119.82888466416871L120.65625,117.88328864355337L121.81640625,120.57644764291912L122.9765625,117.79040492201446L124.13671875000001,121.71232787345608L125.296875,122.7520498409356L126.45703125,118.32228550758865L127.6171875,118.52358981041256L128.77734375,117.587427099952L129.9375,125.11375717346408L131.09765625,125.41328248197559L132.2578125,161.51213752914305L133.41796875,144.5840497395724L134.578125,145.90012949991208L135.73828125,134.83430580867122L136.8984375,127.74092619760506L138.05859375,138.84381007240412L139.21875,257.3566161419126L140.37890625,200.16255672128034L141.5390625,167.3456083735885L142.69921875,145.4430894097325L143.85937500000003,142.66636990153606L145.01953125,132.88995382772183L146.1796875,127.3119350448427L147.33984375,122.68932319731579L148.5,119.29093970289468L149.66015625,117.31939973889173L150.8203125,118.67406273558765L151.98046874999997,118.47744942113773L153.140625,121.97968635800494L154.30078125,118.7827830265543L155.4609375,117.36765107813957L156.62109375,115.90284823558821L157.78125,116.09072474945849L158.94140625,115.16811181093811L160.1015625,120.71818479489623L161.26171875000003,121.355825427719L162.421875,121.62641639920955L163.58203125,122.04567761865991L164.7421875,121.33897349624472L165.90234375,120.964210717213L167.0625,121.54098217983957L168.22265625,121.98217343469415L169.38281249999997,121.06561580804954L170.54296875,121.70535611813054L171.703125,124.24298778993756L172.86328125,125.74355522685967L174.0234375,138.5925300273919L175.18359375,148.94912458381793L176.34375,140.539419004848L177.50390625,138.6320368704381L178.66406250000003,134.8339459890434L179.82421875,131.46003479923664L180.984375,129.63749828636165L182.14453125,126.36996285934951L183.3046875,124.35748110306086L184.46484375,123.08049131686582L185.625,164.61554612272033L186.78515624999997,160.25854021839135L187.9453125,145.94333620785773L189.10546875,141.41067386420036L190.265625,150.1183502718893L191.42578125,143.37742673824755L192.5859375,140.2231031783652L193.74609375,134.84609462389733L194.90625,131.26224280339116L196.06640625000003,130.54310363695006L197.2265625,132.01337744095912L198.38671875,130.52741529921084L199.546875,128.65771123396988L200.70703125,139.63200212693786L201.8671875,131.32729011283263L203.02734375,130.76115042471454L204.18749999999997,135.55562315684693L205.34765625,132.60368308803726L206.5078125,142.76764935680998L207.66796875,136.88734081444406L208.828125,136.49996760919052L209.98828125,133.69684183260415L211.1484375,135.61572549140817L212.30859375,132.90386827824335L213.46875000000003,133.58514755589454L214.62890625,131.39207898153478L215.7890625,129.13296645426922L216.94921875,125.94492727246391L218.109375,123.9644935949236L219.26953125,122.406718160128L220.4296875,127.31425565803968L221.58984374999997,129.78105064824177L222.75,128.34097154495092L223.91015625,128.4906264755545L225.0703125,129.99834240754953L226.23046875,130.02717571227055L227.390625,128.9831340915063L228.55078125,127.87074415322729L229.7109375,127.79310612938755L230.87109375000003,131.49171552496327L232.03125,130.79621670308018L233.19140625,128.81755164660393L234.3515625,128.2805265629135L235.51171875,130.19219289087306L236.671875,138.42793729621L237.83203125,140.21673348775204L238.99218749999997,140.21354508736152L240.15234375,133.66963553630362L241.3125,128.79923819027175L242.47265625,128.36246120843387L243.6328125,126.15634009786307L244.79296875,126.54953958321332L245.953125,133.68619779981404L247.11328125,161.3327875071996L248.27343750000003,177.4050524990301L250.59375,201.78680243033122L251.75390625,176.13961838446826L252.9140625,189.57109504598043L254.07421875,174.2899335880538L255.234375,155.21520669417345" style="fill: none;" fill="none"></path></g></g></g></g><g opacity="0.2"><g><g><g><path stroke="rgb(255, 112, 67)" stroke-width="2px" d="M32.484375,-406.8639195760091L33.64453125,141.87714767456055L34.8046875,136.96453221638996L35.96484375000001,128.90859158833823L37.125,123.16382789611816L38.28515625,121.36239051818848L39.4453125,116.85965983072917L40.60546875,113.46767298380534L41.765625,113.70294316609701L42.92578125,111.73998260498045L44.0859375,403.0267874399821L45.24609375,115.19326273600261L46.40625,124.76698112487792L47.56640625,111.86887105305989L48.7265625,112.41728464762369L49.88671875,113.92943572998047L51.04687499999999,111.89700444539388L52.20703125,112.0505002339681L53.36718750000001,114.5146853129069L54.52734375,112.05207570393881L55.6875,111.05645370483398L56.84765625,114.33365631103517L58.0078125,113.65320332845052L59.16796875,111.11962254842123L60.328125,114.39967600504556L61.48828125,111.33403650919597L62.6484375,112.93658955891928L63.80859375,112.44174194335939L64.96875,112.83838526407878L66.12890625,124.5716978708903L67.2890625,112.8808479309082L68.44921875,112.33918635050456L69.609375,112.75188446044922L70.76953125,114.11144002278647L71.92968750000001,112.25283559163411L73.08984375,108.94742457071939L74.25,111.83563613891602L75.41015625,115.68480936686198L76.5703125,114.38354619344076L77.73046875,111.11752192179361L78.890625,111.50808842976888L80.05078125,112.94611740112306L81.2109375,141.76056289672852L82.37109375,111.43794250488281L83.53125,128.8274923960368L84.69140624999999,111.54627482096353L85.8515625,109.53432464599611L87.01171875,112.34503809611002L88.171875,112.09731419881186L89.33203125000001,115.97679646809895L90.4921875,111.6445541381836L91.65234375,118.69448216756184L92.8125,113.50443394978842L93.97265625,122.09119542439778L95.1328125,111.08398691813152L96.29296875,111.68994267781575L97.453125,118.62459882100423L98.61328125,118.24322255452473L99.7734375,113.04252115885416L100.93359375,113.27081425984701L102.09374999999999,113.3516133626302L103.25390625,130.8409055074056L104.4140625,125.82959810892741L105.57421875,126.40284411112468L106.73437500000001,118.4340794881185L107.89453125,115.49207687377928L109.0546875,114.11106491088867L110.21484375,134.27951876322427L111.375,121.19103940327962L112.53515625,114.21857198079427L113.6953125,116.77488454182942L114.85546875,117.12493896484376L116.015625,123.67926915486653L117.17578125,114.84515889485677L118.3359375,115.79171625773112L119.49609374999999,123.8474318186442L120.65625,114.96489461263022L121.81640625,124.61618614196777L122.9765625,113.61134084065755L124.13671875000001,127.5952123006185L125.296875,124.31163279215494L126.45703125,111.67763900756836L127.6171875,118.82554626464842L128.77734375,116.18318303426106L129.9375,136.40325228373212L131.09765625,125.86257044474283L132.2578125,215.66042009989422L133.41796875,119.19191805521646L134.578125,147.87424914042157L135.73828125,118.2355702718099L136.8984375,117.10085678100586L138.05859375,155.49813588460285L139.21875,435.1258252461751L140.37890625,114.37146759033205L141.5390625,118.1201858520508L142.69921875,112.58931096394856L143.85937500000003,138.50129063924152L145.01953125,118.22532971700032L146.1796875,118.9449068705241L147.33984375,115.75540542602538L148.5,114.19336446126302L149.66015625,114.36208979288737L150.8203125,120.7060572306315L151.98046874999997,118.18252944946289L153.140625,127.23304176330568L154.30078125,113.98742802937825L155.4609375,115.24495315551756L156.62109375,113.70564397176108L157.78125,116.37253952026366L158.94140625,113.78419240315755L160.1015625,129.04329427083334L161.26171875000003,122.31228637695311L162.421875,122.03230285644533L163.58203125,122.67456944783528L164.7421875,120.27891731262206L165.90234375,120.40206654866536L167.0625,122.40613937377928L168.22265625,122.64396031697592L169.38281249999997,119.69077936808269L170.54296875,122.66496658325197L171.703125,128.0494352976481L172.86328125,127.99440638224284L174.0234375,157.8659922281901L175.18359375,164.48401641845703L176.34375,127.92486063639323L177.50390625,135.77096366882324L178.66406250000003,129.1368096669515L179.82421875,126.39916801452638L180.984375,126.90369351704915L182.14453125,121.46865971883138L183.3046875,121.33875846862793L184.46484375,121.16500663757326L185.625,226.9181283315023L186.78515624999997,153.72303136189777L187.9453125,124.4705301920573L189.10546875,134.6116803487142L190.265625,163.17986488342285L191.42578125,133.26604143778482L192.5859375,135.49161783854166L193.74609375,126.78058179219565L194.90625,125.88646507263182L196.06640625000003,129.4643948872884L197.2265625,134.21878814697266L198.38671875,128.29847208658856L199.546875,125.8531551361084L200.70703125,156.09343846638998L201.8671875,118.8702220916748L203.02734375,129.91194089253744L204.18749999999997,142.74733225504556L205.34765625,128.17577298482257L206.5078125,158.01359875996906L207.66796875,128.0668780008952L208.828125,135.9189078013102L209.98828125,129.4921531677246L211.1484375,138.49405097961426L212.30859375,128.8360824584961L213.46875000000003,134.6070664723714L214.62890625,128.10247611999512L215.7890625,125.74429766337077L216.94921875,121.16286849975586L218.109375,120.9938430786133L219.26953125,120.07005500793457L220.4296875,134.67556190490723L221.58984374999997,133.48124313354492L222.75,126.18085289001463L223.91015625,128.71510887145996L225.0703125,132.259916305542L226.23046875,130.0704256693522L227.390625,127.4170716603597L228.55078125,126.20215924580891L229.7109375,127.67664909362794L230.87109375000003,137.03962961832684L232.03125,129.75296847025552L233.19140625,125.84955406188966L234.3515625,127.47498893737793L235.51171875,133.0596923828125L236.671875,150.78155390421549L237.83203125,142.8999277750651L238.99218749999997,140.20876248677573L240.15234375,123.85377120971678L241.3125,121.49364217122395L242.47265625,127.70729573567709L243.6328125,122.84715843200684L244.79296875,127.1393388112386L245.953125,144.39118512471518L247.11328125,202.80267206827799L250.59375,216.20722071329752L251.75390625,137.66884231567383L252.9140625,209.71831003824872L254.07421875,151.36819140116373L255.234375,126.60311635335286" style="fill: none;" fill="none"></path></g></g></g></g></g><g><g opacity="0.991178"><span fill="rgb(0, 0, 0)" stroke="none" stroke-width="1px">Alt + Scroll to Zoom</span></g></g></g><g transform="translate(51, 177)" clip-path="url(#clip_1)"><clipPath id="clip_1"><rect width="278" height="23"></rect></clipPath><g><g><line x1="0" y1="0" x2="0" y2="5" style="visibility: inherit;" fill="rgb(0, 0, 0)" stroke="rgb(204, 204, 204)" stroke-width="1px"></line><line x1="23.203125" y1="0" x2="23.203125" y2="5" style="visibility: inherit;" fill="rgb(0, 0, 0)" stroke="rgb(204, 204, 204)" stroke-width="1px"></line><line x1="46.40625" y1="0" x2="46.40625" y2="5" style="visibility: inherit;" fill="rgb(0, 0, 0)" stroke="rgb(204, 204, 204)" stroke-width="1px"></line><line x1="69.609375" y1="0" x2="69.609375" y2="5" style="visibility: inherit;" fill="rgb(0, 0, 0)" stroke="rgb(204, 204, 204)" stroke-width="1px"></line><line x1="92.8125" y1="0" x2="92.8125" y2="5" style="visibility: inherit;" fill="rgb(0, 0, 0)" stroke="rgb(204, 204, 204)" stroke-width="1px"></line><line x1="116.015625" y1="0" x2="116.015625" y2="5" style="visibility: inherit;" fill="rgb(0, 0, 0)" stroke="rgb(204, 204, 204)" stroke-width="1px"></line><line x1="139.21875" y1="0" x2="139.21875" y2="5" style="visibility: inherit;" fill="rgb(0, 0, 0)" stroke="rgb(204, 204, 204)" stroke-width="1px"></line><line x1="162.421875" y1="0" x2="162.421875" y2="5" style="visibility: inherit;" fill="rgb(0, 0, 0)" stroke="rgb(204, 204, 204)" stroke-width="1px"></line><line x1="185.625" y1="0" x2="185.625" y2="5" style="visibility: inherit;" fill="rgb(0, 0, 0)" stroke="rgb(204, 204, 204)" stroke-width="1px"></line><line x1="208.828125" y1="0" x2="208.828125" y2="5" style="visibility: inherit;" fill="rgb(0, 0, 0)" stroke="rgb(204, 204, 204)" stroke-width="1px"></line><line x1="232.03125" y1="0" x2="232.03125" y2="5" style="visibility: inherit;" fill="rgb(0, 0, 0)" stroke="rgb(204, 204, 204)" stroke-width="1px"></line><line x1="255.234375" y1="0" x2="255.234375" y2="5" style="visibility: inherit;" fill="rgb(0, 0, 0)" stroke="rgb(204, 204, 204)" stroke-width="1px"></line><line x1="278.4375" y1="0" x2="278.4375" y2="5" style="visibility: inherit;" fill="rgb(0, 0, 0)" stroke="rgb(204, 204, 204)" stroke-width="1px"></line></g><g transform="translate(0, 8)"><text x="0" y="0" dx="0em" dy="0.95em" style="text-anchor: middle; visibility: hidden; font-family: Roboto, sans-serif; font-size: 12px; font-weight: 200;" fill="rgb(33, 33, 33)" stroke="none" stroke-width="1px">-20</text><text x="23.203125" y="0" dx="0em" dy="0.95em" style="text-anchor: middle; visibility: inherit; font-family: Roboto, sans-serif; font-size: 12px; font-weight: 200;" fill="rgb(33, 33, 33)" stroke="none" stroke-width="1px">0</text><text x="46.40625" y="0" dx="0em" dy="0.95em" style="text-anchor: middle; visibility: hidden; font-family: Roboto, sans-serif; font-size: 12px; font-weight: 200;" fill="rgb(33, 33, 33)" stroke="none" stroke-width="1px">20</text><text x="69.609375" y="0" dx="0em" dy="0.95em" style="text-anchor: middle; visibility: inherit; font-family: Roboto, sans-serif; font-size: 12px; font-weight: 200;" fill="rgb(33, 33, 33)" stroke="none" stroke-width="1px">40</text><text x="92.8125" y="0" dx="0em" dy="0.95em" style="text-anchor: middle; visibility: hidden; font-family: Roboto, sans-serif; font-size: 12px; font-weight: 200;" fill="rgb(33, 33, 33)" stroke="none" stroke-width="1px">60</text><text x="116.015625" y="0" dx="0em" dy="0.95em" style="text-anchor: middle; visibility: inherit; font-family: Roboto, sans-serif; font-size: 12px; font-weight: 200;" fill="rgb(33, 33, 33)" stroke="none" stroke-width="1px">80</text><text x="139.21875" y="0" dx="0em" dy="0.95em" style="text-anchor: middle; visibility: hidden; font-family: Roboto, sans-serif; font-size: 12px; font-weight: 200;" fill="rgb(33, 33, 33)" stroke="none" stroke-width="1px">100</text><text x="162.421875" y="0" dx="0em" dy="0.95em" style="text-anchor: middle; visibility: inherit; font-family: Roboto, sans-serif; font-size: 12px; font-weight: 200;" fill="rgb(33, 33, 33)" stroke="none" stroke-width="1px">120</text><text x="185.625" y="0" dx="0em" dy="0.95em" style="text-anchor: middle; visibility: hidden; font-family: Roboto, sans-serif; font-size: 12px; font-weight: 200;" fill="rgb(33, 33, 33)" stroke="none" stroke-width="1px">140</text><text x="208.828125" y="0" dx="0em" dy="0.95em" style="text-anchor: middle; visibility: inherit; font-family: Roboto, sans-serif; font-size: 12px; font-weight: 200;" fill="rgb(33, 33, 33)" stroke="none" stroke-width="1px">160</text><text x="232.03125" y="0" dx="0em" dy="0.95em" style="text-anchor: middle; visibility: hidden; font-family: Roboto, sans-serif; font-size: 12px; font-weight: 200;" fill="rgb(33, 33, 33)" stroke="none" stroke-width="1px">180</text><text x="255.234375" y="0" dx="0em" dy="0.95em" style="text-anchor: middle; visibility: inherit; font-family: Roboto, sans-serif; font-size: 12px; font-weight: 200;" fill="rgb(33, 33, 33)" stroke="none" stroke-width="1px">200</text><text x="278.4375" y="0" dx="0em" dy="0.95em" style="text-anchor: middle; visibility: hidden; font-family: Roboto, sans-serif; font-size: 12px; font-weight: 200;" fill="rgb(33, 33, 33)" stroke="none" stroke-width="1px">220</text></g><line x1="0" y1="0" x2="278.4375" y2="0" fill="rgb(0, 0, 0)" stroke="rgb(204, 204, 204)" stroke-width="1px"></line></g></g></g></g></svg>