<svg viewBox="0 0 330.0000305175781 200.00001525878906" xmlns="http://www.w3.org/2000/svg"><g><g><g><g><g><line x1="61.953125" y1="177" x2="56.953125" y2="177" style="visibility: inherit;" fill="rgb(0, 0, 0)" stroke="rgb(204, 204, 204)" stroke-width="1px"></line><line x1="61.953125" y1="160.9090909090909" x2="56.953125" y2="160.9090909090909" style="visibility: inherit;" fill="rgb(0, 0, 0)" stroke="rgb(204, 204, 204)" stroke-width="1px"></line><line x1="61.953125" y1="144.8181818181818" x2="56.953125" y2="144.8181818181818" style="visibility: inherit;" fill="rgb(0, 0, 0)" stroke="rgb(204, 204, 204)" stroke-width="1px"></line><line x1="61.953125" y1="128.72727272727272" x2="56.953125" y2="128.72727272727272" style="visibility: inherit;" fill="rgb(0, 0, 0)" stroke="rgb(204, 204, 204)" stroke-width="1px"></line><line x1="61.953125" y1="112.63636363636364" x2="56.953125" y2="112.63636363636364" style="visibility: inherit;" fill="rgb(0, 0, 0)" stroke="rgb(204, 204, 204)" stroke-width="1px"></line><line x1="61.953125" y1="96.54545454545453" x2="56.953125" y2="96.54545454545453" style="visibility: inherit;" fill="rgb(0, 0, 0)" stroke="rgb(204, 204, 204)" stroke-width="1px"></line><line x1="61.953125" y1="80.45454545454547" x2="56.953125" y2="80.45454545454547" style="visibility: inherit;" fill="rgb(0, 0, 0)" stroke="rgb(204, 204, 204)" stroke-width="1px"></line><line x1="61.953125" y1="64.36363636363636" x2="56.953125" y2="64.36363636363636" style="visibility: inherit;" fill="rgb(0, 0, 0)" stroke="rgb(204, 204, 204)" stroke-width="1px"></line><line x1="61.953125" y1="48.272727272727266" x2="56.953125" y2="48.272727272727266" style="visibility: inherit;" fill="rgb(0, 0, 0)" stroke="rgb(204, 204, 204)" stroke-width="1px"></line><line x1="61.953125" y1="32.18181818181817" x2="56.953125" y2="32.18181818181817" style="visibility: inherit;" fill="rgb(0, 0, 0)" stroke="rgb(204, 204, 204)" stroke-width="1px"></line><line x1="61.953125" y1="16.090909090909097" x2="56.953125" y2="16.090909090909097" style="visibility: inherit;" fill="rgb(0, 0, 0)" stroke="rgb(204, 204, 204)" stroke-width="1px"></line><line x1="61.953125" y1="0" x2="56.953125" y2="0" style="visibility: inherit;" fill="rgb(0, 0, 0)" stroke="rgb(204, 204, 204)" stroke-width="1px"></line></g><g transform="translate(51.953125, 0)"><text x="0" y="177" dx="0em" dy="0.3em" style="text-anchor: end; visibility: hidden; font-family: Roboto, sans-serif; font-size: 12px; font-weight: 200;" fill="rgb(33, 33, 33)" stroke="none" stroke-width="1px">0.815</text><text x="0" y="160.9090909090909" dx="0em" dy="0.3em" style="text-anchor: end; visibility: inherit; font-family: Roboto, sans-serif; font-size: 12px; font-weight: 200;" fill="rgb(33, 33, 33)" stroke="none" stroke-width="1px">0.82</text><text x="0" y="144.8181818181818" dx="0em" dy="0.3em" style="text-anchor: end; visibility: hidden; font-family: Roboto, sans-serif; font-size: 12px; font-weight: 200;" fill="rgb(33, 33, 33)" stroke="none" stroke-width="1px">0.825</text><text x="0" y="128.72727272727272" dx="0em" dy="0.3em" style="text-anchor: end; visibility: inherit; font-family: Roboto, sans-serif; font-size: 12px; font-weight: 200;" fill="rgb(33, 33, 33)" stroke="none" stroke-width="1px">0.83</text><text x="0" y="112.63636363636364" dx="0em" dy="0.3em" style="text-anchor: end; visibility: hidden; font-family: Roboto, sans-serif; font-size: 12px; font-weight: 200;" fill="rgb(33, 33, 33)" stroke="none" stroke-width="1px">0.835</text><text x="0" y="96.54545454545453" dx="0em" dy="0.3em" style="text-anchor: end; visibility: inherit; font-family: Roboto, sans-serif; font-size: 12px; font-weight: 200;" fill="rgb(33, 33, 33)" stroke="none" stroke-width="1px">0.84</text><text x="0" y="80.45454545454547" dx="0em" dy="0.3em" style="text-anchor: end; visibility: hidden; font-family: Roboto, sans-serif; font-size: 12px; font-weight: 200;" fill="rgb(33, 33, 33)" stroke="none" stroke-width="1px">0.845</text><text x="0" y="64.36363636363636" dx="0em" dy="0.3em" style="text-anchor: end; visibility: inherit; font-family: Roboto, sans-serif; font-size: 12px; font-weight: 200;" fill="rgb(33, 33, 33)" stroke="none" stroke-width="1px">0.85</text><text x="0" y="48.272727272727266" dx="0em" dy="0.3em" style="text-anchor: end; visibility: hidden; font-family: Roboto, sans-serif; font-size: 12px; font-weight: 200;" fill="rgb(33, 33, 33)" stroke="none" stroke-width="1px">0.855</text><text x="0" y="32.18181818181817" dx="0em" dy="0.3em" style="text-anchor: end; visibility: inherit; font-family: Roboto, sans-serif; font-size: 12px; font-weight: 200;" fill="rgb(33, 33, 33)" stroke="none" stroke-width="1px">0.86</text><text x="0" y="16.090909090909097" dx="0em" dy="0.3em" style="text-anchor: end; visibility: hidden; font-family: Roboto, sans-serif; font-size: 12px; font-weight: 200;" fill="rgb(33, 33, 33)" stroke="none" stroke-width="1px">0.865</text><text x="0" y="0" dx="0em" dy="0.3em" style="text-anchor: end; visibility: hidden; font-family: Roboto, sans-serif; font-size: 12px; font-weight: 200;" fill="rgb(33, 33, 33)" stroke="none" stroke-width="1px">0.87</text></g><line x1="61.953125" y1="0" x2="61.953125" y2="177" fill="rgb(0, 0, 0)" stroke="rgb(204, 204, 204)" stroke-width="1px"></line></g></g><g transform="translate(61, 0)" clip-path="url(#clip_0)"><clipPath id="clip_0"><rect width="268" height="177"></rect></clipPath><g><g><g><line x1="0" y1="0" x2="0" y2="177" fill="rgb(0, 0, 0)" stroke="rgb(66, 66, 66)" stroke-width="1px" opacity="0.25"></line><line x1="22.337239583333332" y1="0" x2="22.337239583333332" y2="177" fill="rgb(0, 0, 0)" stroke="rgb(66, 66, 66)" stroke-width="1px" opacity="0.25"></line><line x1="44.674479166666664" y1="0" x2="44.674479166666664" y2="177" fill="rgb(0, 0, 0)" stroke="rgb(66, 66, 66)" stroke-width="1px" opacity="0.25"></line><line x1="67.01171875" y1="0" x2="67.01171875" y2="177" fill="rgb(0, 0, 0)" stroke="rgb(66, 66, 66)" stroke-width="1px" opacity="0.25"></line><line x1="89.34895833333333" y1="0" x2="89.34895833333333" y2="177" fill="rgb(0, 0, 0)" stroke="rgb(66, 66, 66)" stroke-width="1px" opacity="0.25"></line><line x1="111.68619791666667" y1="0" x2="111.68619791666667" y2="177" fill="rgb(0, 0, 0)" stroke="rgb(66, 66, 66)" stroke-width="1px" opacity="0.25"></line><line x1="134.0234375" y1="0" x2="134.0234375" y2="177" fill="rgb(0, 0, 0)" stroke="rgb(66, 66, 66)" stroke-width="1px" opacity="0.25"></line><line x1="156.36067708333334" y1="0" x2="156.36067708333334" y2="177" fill="rgb(0, 0, 0)" stroke="rgb(66, 66, 66)" stroke-width="1px" opacity="0.25"></line><line x1="178.69791666666666" y1="0" x2="178.69791666666666" y2="177" fill="rgb(0, 0, 0)" stroke="rgb(66, 66, 66)" stroke-width="1px" opacity="0.25"></line><line x1="201.03515625" y1="0" x2="201.03515625" y2="177" fill="rgb(0, 0, 0)" stroke="rgb(66, 66, 66)" stroke-width="1px" opacity="0.25"></line><line x1="223.37239583333334" y1="0" x2="223.37239583333334" y2="177" fill="rgb(0, 0, 0)" stroke="rgb(66, 66, 66)" stroke-width="1px" opacity="0.25"></line><line x1="245.70963541666666" y1="0" x2="245.70963541666666" y2="177" fill="rgb(0, 0, 0)" stroke="rgb(66, 66, 66)" stroke-width="1px" opacity="0.25"></line><line x1="268.046875" y1="0" x2="268.046875" y2="177" fill="rgb(0, 0, 0)" stroke="rgb(66, 66, 66)" stroke-width="1px" opacity="0.25"></line></g><g><line x1="0" y1="177" x2="268.046875" y2="177" fill="rgb(0, 0, 0)" stroke="rgb(66, 66, 66)" stroke-width="1px" opacity="0.25"></line><line x1="0" y1="160.9090909090909" x2="268.046875" y2="160.9090909090909" fill="rgb(0, 0, 0)" stroke="rgb(66, 66, 66)" stroke-width="1px" opacity="0.25"></line><line x1="0" y1="144.8181818181818" x2="268.046875" y2="144.8181818181818" fill="rgb(0, 0, 0)" stroke="rgb(66, 66, 66)" stroke-width="1px" opacity="0.25"></line><line x1="0" y1="128.72727272727272" x2="268.046875" y2="128.72727272727272" fill="rgb(0, 0, 0)" stroke="rgb(66, 66, 66)" stroke-width="1px" opacity="0.25"></line><line x1="0" y1="112.63636363636364" x2="268.046875" y2="112.63636363636364" fill="rgb(0, 0, 0)" stroke="rgb(66, 66, 66)" stroke-width="1px" opacity="0.25"></line><line x1="0" y1="96.54545454545453" x2="268.046875" y2="96.54545454545453" fill="rgb(0, 0, 0)" stroke="rgb(66, 66, 66)" stroke-width="1px" opacity="0.25"></line><line x1="0" y1="80.45454545454547" x2="268.046875" y2="80.45454545454547" fill="rgb(0, 0, 0)" stroke="rgb(66, 66, 66)" stroke-width="1px" opacity="0.25"></line><line x1="0" y1="64.36363636363636" x2="268.046875" y2="64.36363636363636" fill="rgb(0, 0, 0)" stroke="rgb(66, 66, 66)" stroke-width="1px" opacity="0.25"></line><line x1="0" y1="48.272727272727266" x2="268.046875" y2="48.272727272727266" fill="rgb(0, 0, 0)" stroke="rgb(66, 66, 66)" stroke-width="1px" opacity="0.25"></line><line x1="0" y1="32.18181818181817" x2="268.046875" y2="32.18181818181817" fill="rgb(0, 0, 0)" stroke="rgb(66, 66, 66)" stroke-width="1px" opacity="0.25"></line><line x1="0" y1="16.090909090909097" x2="268.046875" y2="16.090909090909097" fill="rgb(0, 0, 0)" stroke="rgb(66, 66, 66)" stroke-width="1px" opacity="0.25"></line><line x1="0" y1="0" x2="268.046875" y2="0" fill="rgb(0, 0, 0)" stroke="rgb(66, 66, 66)" stroke-width="1px" opacity="0.25"></line></g></g></g><g><g><line x1="0" y1="2799.8181818181793" x2="268.046875" y2="2799.8181818181793" fill="rgb(0, 0, 0)" stroke="rgb(153, 153, 153)" stroke-width="1.5px"></line></g></g><g><g><line x1="22.337239583333332" y1="0" x2="22.337239583333332" y2="177" fill="rgb(0, 0, 0)" stroke="rgb(153, 153, 153)" stroke-width="1.5px"></line></g></g><g><g><g><g><g><path stroke="rgb(255, 112, 67)" stroke-width="2px" d="M33.505859375,-51.997335770731354L34.62272135416667,8.290720595353745L35.739583333333336,33.18128405352509L36.8564453125,45.91704641066172L37.973307291666664,50.176950664502286L39.090169270833336,50.334659016965325L40.20703125,54.7057723452059L41.32389322916667,57.318595629568264L42.44075520833333,405.7214816920899L44.674479166666664,185.6449972226603L45.791341145833336,133.2440307002517L46.908203125,95.65409482325087L48.025065104166664,79.23830947565574L49.14192708333333,70.38093492740597L50.2587890625,60.14238655099182L51.37565104166667,55.55063078166463L52.492513020833336,49.698092666776304L53.609375,53.1086200353431L54.726236979166664,54.02190068606835L55.843098958333336,51.94816860156928L56.9599609375,49.818648397532364L58.07682291666667,48.84301238616482L59.19368489583333,48.78513196049019L60.310546875,47.005161451317804L61.427408854166664,46.27915335605742L62.544270833333336,46.41938790228237L63.6611328125,68.89926919002617L64.77799479166667,65.29347650709119L65.89485677083333,57.74289105072927L67.01171875,52.60002468412586L68.12858072916666,50.39160634548636L69.24544270833334,46.13932702129838L70.3623046875,47.337322201339596L71.47916666666667,44.91443781085155L72.59602864583333,44.86597012405591L73.712890625,46.077265204253L74.82975260416667,46.37252716552606L75.94661458333333,51.72471955899051L77.0634765625,50.996004550187116L78.18033854166667,70.2632245051147L79.29720052083333,56.67345464277253L80.4140625,65.76001688164821L81.53092447916666,58.50190138790922L82.64778645833334,53.184256254381694L83.7646484375,48.57889202541423L84.88151041666666,46.626298824423124L85.99837239583334,51.79442383561527L87.115234375,51.72745328971178L88.23209635416667,48.10862672985259L89.34895833333333,52.88407918066736L90.4658203125,50.876237885930436L91.58268229166667,45.907208487367896L92.69954427083333,47.26572467710428L93.81640625,67.89277848551737L94.93326822916667,66.29318546081191L96.05013020833333,65.56468613097353L97.1669921875,58.94450629334185L98.28385416666666,53.82747162601382L99.40071614583334,74.09482049586119L100.517578125,83.49948731122161L101.63444010416666,83.82262097143843L102.75130208333334,71.58719401022572L103.8681640625,59.99600528428143L104.98502604166667,54.77287677106059L106.10188802083333,56.22246636636967L107.21875,51.92662238130053L108.33561197916667,46.59989531557127L109.45247395833333,45.54417083746973L110.5693359375,43.344575775186684L111.68619791666667,60.87705609244276L112.80305989583333,52.217217878571404L113.919921875,50.59896172592745L115.03678385416666,48.95104188735193L116.15364583333334,52.233629487408244L117.2705078125,60.70214913145977L118.38736979166666,56.39312740695431L119.50423177083334,66.15553699507025L120.62109375,61.55403608642422L121.73795572916667,55.13469477793671L122.85481770833333,59.03263751772961L123.9716796875,56.5167817078868L125.08854166666667,64.66088374003114L126.20540364583333,65.46452476056473L127.322265625,163.0484991941629L128.43912760416669,120.16782531744558L129.55598958333334,151.41023101463622L130.6728515625,118.0404833200854L131.78971354166666,101.4851801551262L132.90657552083334,140.99699795097456L134.0234375,385.69927682137126L136.25716145833331,184.5507581098117L137.3740234375,134.74513799979238L138.49088541666669,123.2218735290513L139.60774739583334,99.80499478254741L140.724609375,87.2245815259838L141.84147135416666,76.11073300344736L142.95833333333334,75.75026293675063L144.0751953125,64.73620588827127L145.19205729166666,66.59594832752367L146.30891927083331,57.09862498794699L147.42578125,55.521184717471876L148.54264322916669,54.90994271275205L149.65950520833334,48.292750583456204L150.7763671875,47.63698371161246L151.89322916666666,44.43445551558059L153.01009114583331,53.96266661004628L154.126953125,75.88527125287062L155.24381510416669,67.86183217213812L156.36067708333334,62.19885639792633L157.4775390625,65.45310924752471L158.59440104166666,67.09591230768672L159.71126302083334,62.999092212160235L160.828125,62.81635219938293L161.94498697916666,59.16980368329946L163.06184895833331,61.618590115835836L164.1787109375,61.709069992880224L165.29557291666669,65.45931839745589L166.41243489583334,64.53540696545859L167.529296875,81.21665043413047L168.64615885416666,99.33203351637091L169.76302083333331,80.75066560265367L170.8798828125,73.68512541777774L171.99674479166669,69.97698532992908L173.11360677083334,67.89481430378676L174.23046875,66.97106618902835L175.34733072916666,63.53071490387471L176.46419270833334,60.81278639818513L177.5810546875,60.31905313385527L178.69791666666666,166.60550506146532L179.81477864583331,158.09384208134594L180.931640625,122.56549103982302L182.04850260416669,115.0839712485388L183.16536458333334,136.05959023189467L184.2822265625,116.3188498283902L185.39908854166666,104.86195585359371L186.51595052083331,92.09300419716504L187.6328125,78.70040082027336L188.74967447916669,70.5877277233318L189.86653645833334,71.11544354373395L190.9833984375,67.49879460538311L192.10026041666666,70.71353653509713L193.21712239583334,129.97534520291856L194.333984375,106.54468633234465L195.45084635416666,110.57393948842126L196.56770833333331,112.08979058195214L197.6845703125,98.68533812827398L198.80143229166669,113.929903129844L199.91829427083334,90.91495722755468L201.03515625,85.76099765543044L202.15201822916666,88.04736846505672L203.26888020833331,110.44174049334632L204.3857421875,93.2974173949015L205.50260416666669,81.78034568257992L206.61946614583334,76.12329182879834L207.736328125,69.74267434446573L208.85319010416666,66.47993849464676L209.97005208333334,64.02448939531084L211.0869140625,60.73155211954717L212.20377604166666,60.7031320198248L213.32063802083331,60.91173534232129L214.4375,60.188675556949406L215.55436197916669,61.45266433727145L216.67122395833334,62.62247010463209L217.7880859375,63.68589323235139L218.90494791666666,64.29386995499726L220.02180989583331,62.77054730161723L221.138671875,62.442597847717025L222.25553385416669,88.57945067432256L223.37239583333334,94.34246993184848L224.4892578125,81.70977137810999L225.60611979166666,78.2817202251592L226.72298177083334,91.32699684151666L227.83984375,113.4574608078519L228.95670572916666,102.3419396659469L230.07356770833331,93.72229234515612L231.1904296875,78.73836955673528L232.30729166666669,71.78996307509426L233.42415364583334,66.13048878768919L234.541015625,62.4643400116714L235.65787760416666,61.90585055158095L236.77473958333331,71.18708286082774L237.8916015625,117.80423196844401L239.00846354166669,145.86045615868863L240.12532552083334,171.12408035179075L241.2421875,188.52261920245164L242.35904947916666,154.4645881036133L243.47591145833334,178.8881566111135L244.5927734375,153.63428783970926L245.70963541666666,114.14832136313282" style="fill: none;" fill="none"></path></g></g></g></g><g opacity="0.2"><g><g><g><path stroke="rgb(255, 112, 67)" stroke-width="2px" d="M31.272135416666668,-298.42216118899233L32.388997395833336,80.29447668248947L33.505859375,87.30602138692673L34.62272135416667,98.17599691044191L35.739583333333336,70.38167589361011L36.8564453125,64.97910547256461L37.973307291666664,56.55846144936295L39.090169270833336,50.571036165410774L40.20703125,61.25935948978765L41.32389322916667,61.236724896864395L42.44075520833333,928.237351330843L43.5576171875,64.74662134864106L44.674479166666664,60.13530258698891L45.791341145833336,54.64545471018004L46.908203125,39.27042792060153L48.025065104166664,54.61495555530889L49.14192708333333,57.09497802907764L50.2587890625,44.78463675759049L51.37565104166667,48.66301670941433L52.492513020833336,40.91930046948515L53.609375,58.22440585223104L54.726236979166664,55.39182082089504L55.843098958333336,48.837571620941105L56.9599609375,46.62436879764898L58.07682291666667,47.379558563232365L59.19368489583333,48.69831132888788L60.310546875,44.33520581505509L61.427408854166664,45.19014124436807L62.544270833333336,46.629739718003655L63.6611328125,102.61909077384243L64.77799479166667,59.88478751616037L65.89485677083333,46.41701290824191L67.01171875,44.88572515140874L68.12858072916666,47.078978841954964L69.24544270833334,39.760908040133344L70.3623046875,49.134314970536614L71.47916666666667,41.2801112261685L72.59602864583333,44.7932685938748L73.712890625,47.89420782436018L74.82975260416667,46.81542010740795L75.94661458333333,59.75300814888688L77.0634765625,49.902932037006664L78.18033854166667,99.16405443711703L79.29720052083333,36.28879984942344L80.4140625,79.38986023989581L81.53092447916666,47.61472814733327L82.64778645833334,45.20778855410484L83.7646484375,41.67084568197072L84.88151041666666,43.69740902293806L85.99837239583334,59.546611352400284L87.115234375,51.626997470855656L88.23209635416667,42.680386890064526L89.34895833333333,60.04725785688913L90.4658203125,47.864475943825404L91.58268229166667,38.45366438952354L92.69954427083333,49.303498961708705L93.81640625,98.83335919813665L94.93326822916667,63.893795923753146L96.05013020833333,64.47193713621652L97.1669921875,49.01423653689292L98.28385416666666,46.15191962502213L99.40071614583334,104.49584380063133L100.517578125,97.60648753426281L101.63444010416666,84.30732146176416L102.75130208333334,53.23405356840649L103.8681640625,42.60922219536517L104.98502604166667,46.93818400122897L106.10188802083333,58.396850759332764L107.21875,45.48285640369756L108.33561197916667,38.60980471697715L109.45247395833333,43.96058412031689L110.5693359375,40.04518318176264L111.68619791666667,87.17577656832599L112.80305989583333,39.227460557764175L113.919921875,48.17157749696205L115.03678385416666,46.47916212948879L116.15364583333334,57.15751088749273L117.2705078125,73.40492859753687L118.38736979166666,49.92959482019593L119.50423177083334,80.79915137724434L120.62109375,54.65178472345519L121.73795572916667,45.505682815204906L122.85481770833333,64.87955162741913L123.9716796875,52.74299799312239L125.08854166666667,76.87703678824677L126.20540364583333,66.66998629136512L127.322265625,309.4244608445598L128.43912760416669,55.84681450236921L129.55598958333334,198.27383956042186L130.6728515625,67.98586177825919L131.78971354166666,76.65222540768701L132.90657552083334,200.26472464474747L134.0234375,752.7526951269663L135.14029947916666,40.862522168592925L136.25716145833331,89.73003283413964L137.3740234375,60.03670783476389L138.49088541666669,105.93697682293968L139.60774739583334,64.67967666279178L140.724609375,68.35396164113818L141.84147135416666,59.43996021964326L142.95833333333334,75.2095578367059L144.0751953125,48.2151203155517L145.19205729166666,69.38556198640296L146.30891927083331,42.85263997858216L147.42578125,53.15502431175919L148.54264322916669,53.99307970567177L149.65950520833334,38.366962389512445L150.7763671875,46.65333340384738L151.89322916666666,39.6306632215326L153.01009114583331,68.25498325174497L154.126953125,108.7691782171075L155.24381510416669,55.8266735510392L156.36067708333334,53.70439273660826L157.4775390625,70.33448852192264L158.59440104166666,69.56011689792972L159.71126302083334,56.85386206886979L160.828125,62.542242180217336L161.94498697916666,53.69998090917407L163.06184895833331,65.29176976464005L164.1787109375,61.84478980844664L165.29557291666669,71.08469100431955L166.41243489583334,63.14953981746319L167.529296875,106.23851563713755L168.64615885416666,126.50510813973155L169.76302083333331,52.878613732077795L170.8798828125,63.086815140464026L171.99674479166669,64.41477519815611L173.11360677083334,64.77155776457346L174.23046875,65.58544401689002L175.34733072916666,58.370187976143505L176.46419270833334,56.735893639651145L177.5810546875,59.57845323736011L178.69791666666666,326.0351829528805L179.81477864583331,145.32634761116708L180.931640625,69.27296447753898L182.04850260416669,103.86169156161212L183.16536458333334,167.52301870692844L184.2822265625,86.70773922313333L185.39908854166666,87.67661489139894L186.51595052083331,72.93957671252157L187.6328125,58.61149575493546L188.74967447916669,58.41871807791963L189.86653645833334,71.9070172743363L190.9833984375,62.073821197856496L192.10026041666666,75.535649429668L193.21712239583334,218.86805820465068L194.333984375,71.39869802648364L195.45084635416666,116.61781922253685L196.56770833333331,114.3635672222483L197.6845703125,78.57865944775659L198.80143229166669,136.79675063219923L199.91829427083334,56.39253837412047L201.03515625,78.0300582972439L202.15201822916666,91.476924679496L203.26888020833331,144.03329853578032L204.3857421875,67.58093274723392L205.50260416666669,64.50473811409684L206.61946614583334,67.63771104812614L207.736328125,60.17174811796701L208.85319010416666,61.58583471991792L209.97005208333334,60.341315746307316L211.0869140625,55.79214620590204L212.20377604166666,60.660501870241966L213.32063802083331,61.22464032606638L214.4375,59.104085878892306L215.55436197916669,63.34864750775417L216.67122395833334,64.37717875567343L217.7880859375,65.2810279239307L218.90494791666666,65.20583503896533L220.02180989583331,60.48556332154701L221.138671875,61.95067366686727L222.25553385416669,127.7847299142316L223.37239583333334,102.98699881813732L224.4892578125,62.760723547501925L225.60611979166666,73.13964349573301L226.72298177083334,110.89491176605213L227.83984375,146.6531567573546L228.95670572916666,85.66865795308884L230.07356770833331,80.7928213639692L231.1904296875,56.26248537410383L232.30729166666669,61.36735335263332L233.42415364583334,57.64127735658119L234.541015625,56.96511684764509L235.65787760416666,61.06811636144458L236.77473958333331,85.10893132469863L237.8916015625,187.72995562986875L241.2421875,214.62042747844328L242.35904947916666,103.37754145535546L243.47591145833334,215.52350937236417L244.5927734375,115.7534846826032L245.70963541666666,54.9193716482682" style="fill: none;" fill="none"></path></g></g></g></g></g><g><g><span fill="rgb(0, 0, 0)" stroke="none" stroke-width="1px">Alt + Scroll to Zoom</span></g></g></g><g transform="translate(61, 177)" clip-path="url(#clip_1)"><clipPath id="clip_1"><rect width="268" height="23"></rect></clipPath><g><g><line x1="0" y1="0" x2="0" y2="5" style="visibility: inherit;" fill="rgb(0, 0, 0)" stroke="rgb(204, 204, 204)" stroke-width="1px"></line><line x1="22.337239583333332" y1="0" x2="22.337239583333332" y2="5" style="visibility: inherit;" fill="rgb(0, 0, 0)" stroke="rgb(204, 204, 204)" stroke-width="1px"></line><line x1="44.674479166666664" y1="0" x2="44.674479166666664" y2="5" style="visibility: inherit;" fill="rgb(0, 0, 0)" stroke="rgb(204, 204, 204)" stroke-width="1px"></line><line x1="67.01171875" y1="0" x2="67.01171875" y2="5" style="visibility: inherit;" fill="rgb(0, 0, 0)" stroke="rgb(204, 204, 204)" stroke-width="1px"></line><line x1="89.34895833333333" y1="0" x2="89.34895833333333" y2="5" style="visibility: inherit;" fill="rgb(0, 0, 0)" stroke="rgb(204, 204, 204)" stroke-width="1px"></line><line x1="111.68619791666667" y1="0" x2="111.68619791666667" y2="5" style="visibility: inherit;" fill="rgb(0, 0, 0)" stroke="rgb(204, 204, 204)" stroke-width="1px"></line><line x1="134.0234375" y1="0" x2="134.0234375" y2="5" style="visibility: inherit;" fill="rgb(0, 0, 0)" stroke="rgb(204, 204, 204)" stroke-width="1px"></line><line x1="156.36067708333334" y1="0" x2="156.36067708333334" y2="5" style="visibility: inherit;" fill="rgb(0, 0, 0)" stroke="rgb(204, 204, 204)" stroke-width="1px"></line><line x1="178.69791666666666" y1="0" x2="178.69791666666666" y2="5" style="visibility: inherit;" fill="rgb(0, 0, 0)" stroke="rgb(204, 204, 204)" stroke-width="1px"></line><line x1="201.03515625" y1="0" x2="201.03515625" y2="5" style="visibility: inherit;" fill="rgb(0, 0, 0)" stroke="rgb(204, 204, 204)" stroke-width="1px"></line><line x1="223.37239583333334" y1="0" x2="223.37239583333334" y2="5" style="visibility: inherit;" fill="rgb(0, 0, 0)" stroke="rgb(204, 204, 204)" stroke-width="1px"></line><line x1="245.70963541666666" y1="0" x2="245.70963541666666" y2="5" style="visibility: inherit;" fill="rgb(0, 0, 0)" stroke="rgb(204, 204, 204)" stroke-width="1px"></line><line x1="268.046875" y1="0" x2="268.046875" y2="5" style="visibility: inherit;" fill="rgb(0, 0, 0)" stroke="rgb(204, 204, 204)" stroke-width="1px"></line></g><g transform="translate(0, 8)"><text x="0" y="0" dx="0em" dy="0.95em" style="text-anchor: middle; visibility: hidden; font-family: Roboto, sans-serif; font-size: 12px; font-weight: 200;" fill="rgb(33, 33, 33)" stroke="none" stroke-width="1px">-20</text><text x="22.337239583333332" y="0" dx="0em" dy="0.95em" style="text-anchor: middle; visibility: inherit; font-family: Roboto, sans-serif; font-size: 12px; font-weight: 200;" fill="rgb(33, 33, 33)" stroke="none" stroke-width="1px">0</text><text x="44.674479166666664" y="0" dx="0em" dy="0.95em" style="text-anchor: middle; visibility: hidden; font-family: Roboto, sans-serif; font-size: 12px; font-weight: 200;" fill="rgb(33, 33, 33)" stroke="none" stroke-width="1px">20</text><text x="67.01171875" y="0" dx="0em" dy="0.95em" style="text-anchor: middle; visibility: inherit; font-family: Roboto, sans-serif; font-size: 12px; font-weight: 200;" fill="rgb(33, 33, 33)" stroke="none" stroke-width="1px">40</text><text x="89.34895833333333" y="0" dx="0em" dy="0.95em" style="text-anchor: middle; visibility: hidden; font-family: Roboto, sans-serif; font-size: 12px; font-weight: 200;" fill="rgb(33, 33, 33)" stroke="none" stroke-width="1px">60</text><text x="111.68619791666667" y="0" dx="0em" dy="0.95em" style="text-anchor: middle; visibility: inherit; font-family: Roboto, sans-serif; font-size: 12px; font-weight: 200;" fill="rgb(33, 33, 33)" stroke="none" stroke-width="1px">80</text><text x="134.0234375" y="0" dx="0em" dy="0.95em" style="text-anchor: middle; visibility: hidden; font-family: Roboto, sans-serif; font-size: 12px; font-weight: 200;" fill="rgb(33, 33, 33)" stroke="none" stroke-width="1px">100</text><text x="156.36067708333334" y="0" dx="0em" dy="0.95em" style="text-anchor: middle; visibility: inherit; font-family: Roboto, sans-serif; font-size: 12px; font-weight: 200;" fill="rgb(33, 33, 33)" stroke="none" stroke-width="1px">120</text><text x="178.69791666666666" y="0" dx="0em" dy="0.95em" style="text-anchor: middle; visibility: hidden; font-family: Roboto, sans-serif; font-size: 12px; font-weight: 200;" fill="rgb(33, 33, 33)" stroke="none" stroke-width="1px">140</text><text x="201.03515625" y="0" dx="0em" dy="0.95em" style="text-anchor: middle; visibility: inherit; font-family: Roboto, sans-serif; font-size: 12px; font-weight: 200;" fill="rgb(33, 33, 33)" stroke="none" stroke-width="1px">160</text><text x="223.37239583333334" y="0" dx="0em" dy="0.95em" style="text-anchor: middle; visibility: hidden; font-family: Roboto, sans-serif; font-size: 12px; font-weight: 200;" fill="rgb(33, 33, 33)" stroke="none" stroke-width="1px">180</text><text x="245.70963541666666" y="0" dx="0em" dy="0.95em" style="text-anchor: middle; visibility: inherit; font-family: Roboto, sans-serif; font-size: 12px; font-weight: 200;" fill="rgb(33, 33, 33)" stroke="none" stroke-width="1px">200</text><text x="268.046875" y="0" dx="0em" dy="0.95em" style="text-anchor: middle; visibility: hidden; font-family: Roboto, sans-serif; font-size: 12px; font-weight: 200;" fill="rgb(33, 33, 33)" stroke="none" stroke-width="1px">220</text></g><line x1="0" y1="0" x2="268.046875" y2="0" fill="rgb(0, 0, 0)" stroke="rgb(204, 204, 204)" stroke-width="1px"></line></g></g></g></g></svg>