<svg viewBox="0 0 330.0000305175781 200.00001525878906" xmlns="http://www.w3.org/2000/svg"><g><g><g><g><g><line x1="61.953125" y1="177" x2="56.953125" y2="177" style="visibility: inherit;" fill="rgb(0, 0, 0)" stroke="rgb(204, 204, 204)" stroke-width="1px"></line><line x1="61.953125" y1="157.33333333333331" x2="56.953125" y2="157.33333333333331" style="visibility: inherit;" fill="rgb(0, 0, 0)" stroke="rgb(204, 204, 204)" stroke-width="1px"></line><line x1="61.953125" y1="137.66666666666666" x2="56.953125" y2="137.66666666666666" style="visibility: inherit;" fill="rgb(0, 0, 0)" stroke="rgb(204, 204, 204)" stroke-width="1px"></line><line x1="61.953125" y1="118.00000000000001" x2="56.953125" y2="118.00000000000001" style="visibility: inherit;" fill="rgb(0, 0, 0)" stroke="rgb(204, 204, 204)" stroke-width="1px"></line><line x1="61.953125" y1="98.33333333333334" x2="56.953125" y2="98.33333333333334" style="visibility: inherit;" fill="rgb(0, 0, 0)" stroke="rgb(204, 204, 204)" stroke-width="1px"></line><line x1="61.953125" y1="78.66666666666666" x2="56.953125" y2="78.66666666666666" style="visibility: inherit;" fill="rgb(0, 0, 0)" stroke="rgb(204, 204, 204)" stroke-width="1px"></line><line x1="61.953125" y1="59.00000000000001" x2="56.953125" y2="59.00000000000001" style="visibility: inherit;" fill="rgb(0, 0, 0)" stroke="rgb(204, 204, 204)" stroke-width="1px"></line><line x1="61.953125" y1="39.33333333333333" x2="56.953125" y2="39.33333333333333" style="visibility: inherit;" fill="rgb(0, 0, 0)" stroke="rgb(204, 204, 204)" stroke-width="1px"></line><line x1="61.953125" y1="19.666666666666675" x2="56.953125" y2="19.666666666666675" style="visibility: inherit;" fill="rgb(0, 0, 0)" stroke="rgb(204, 204, 204)" stroke-width="1px"></line><line x1="61.953125" y1="0" x2="56.953125" y2="0" style="visibility: inherit;" fill="rgb(0, 0, 0)" stroke="rgb(204, 204, 204)" stroke-width="1px"></line></g><g transform="translate(51.953125, 0)"><text x="0" y="177" dx="0em" dy="0.3em" style="text-anchor: end; visibility: hidden; font-family: Roboto, sans-serif; font-size: 12px; font-weight: 200;" fill="rgb(33, 33, 33)" stroke="none" stroke-width="1px">0.962</text><text x="0" y="157.33333333333331" dx="0em" dy="0.3em" style="text-anchor: end; visibility: inherit; font-family: Roboto, sans-serif; font-size: 12px; font-weight: 200;" fill="rgb(33, 33, 33)" stroke="none" stroke-width="1px">0.964</text><text x="0" y="137.66666666666666" dx="0em" dy="0.3em" style="text-anchor: end; visibility: hidden; font-family: Roboto, sans-serif; font-size: 12px; font-weight: 200;" fill="rgb(33, 33, 33)" stroke="none" stroke-width="1px">0.966</text><text x="0" y="118.00000000000001" dx="0em" dy="0.3em" style="text-anchor: end; visibility: inherit; font-family: Roboto, sans-serif; font-size: 12px; font-weight: 200;" fill="rgb(33, 33, 33)" stroke="none" stroke-width="1px">0.968</text><text x="0" y="98.33333333333334" dx="0em" dy="0.3em" style="text-anchor: end; visibility: hidden; font-family: Roboto, sans-serif; font-size: 12px; font-weight: 200;" fill="rgb(33, 33, 33)" stroke="none" stroke-width="1px">0.97</text><text x="0" y="78.66666666666666" dx="0em" dy="0.3em" style="text-anchor: end; visibility: inherit; font-family: Roboto, sans-serif; font-size: 12px; font-weight: 200;" fill="rgb(33, 33, 33)" stroke="none" stroke-width="1px">0.972</text><text x="0" y="59.00000000000001" dx="0em" dy="0.3em" style="text-anchor: end; visibility: hidden; font-family: Roboto, sans-serif; font-size: 12px; font-weight: 200;" fill="rgb(33, 33, 33)" stroke="none" stroke-width="1px">0.974</text><text x="0" y="39.33333333333333" dx="0em" dy="0.3em" style="text-anchor: end; visibility: inherit; font-family: Roboto, sans-serif; font-size: 12px; font-weight: 200;" fill="rgb(33, 33, 33)" stroke="none" stroke-width="1px">0.976</text><text x="0" y="19.666666666666675" dx="0em" dy="0.3em" style="text-anchor: end; visibility: hidden; font-family: Roboto, sans-serif; font-size: 12px; font-weight: 200;" fill="rgb(33, 33, 33)" stroke="none" stroke-width="1px">0.978</text><text x="0" y="0" dx="0em" dy="0.3em" style="text-anchor: end; visibility: hidden; font-family: Roboto, sans-serif; font-size: 12px; font-weight: 200;" fill="rgb(33, 33, 33)" stroke="none" stroke-width="1px">0.98</text></g><line x1="61.953125" y1="0" x2="61.953125" y2="177" fill="rgb(0, 0, 0)" stroke="rgb(204, 204, 204)" stroke-width="1px"></line></g></g><g transform="translate(61, 0)" clip-path="url(#clip_0)"><clipPath id="clip_0"><rect width="268" height="177"></rect></clipPath><g><g><g><line x1="0" y1="0" x2="0" y2="177" fill="rgb(0, 0, 0)" stroke="rgb(66, 66, 66)" stroke-width="1px" opacity="0.25"></line><line x1="22.337239583333332" y1="0" x2="22.337239583333332" y2="177" fill="rgb(0, 0, 0)" stroke="rgb(66, 66, 66)" stroke-width="1px" opacity="0.25"></line><line x1="44.674479166666664" y1="0" x2="44.674479166666664" y2="177" fill="rgb(0, 0, 0)" stroke="rgb(66, 66, 66)" stroke-width="1px" opacity="0.25"></line><line x1="67.01171875" y1="0" x2="67.01171875" y2="177" fill="rgb(0, 0, 0)" stroke="rgb(66, 66, 66)" stroke-width="1px" opacity="0.25"></line><line x1="89.34895833333333" y1="0" x2="89.34895833333333" y2="177" fill="rgb(0, 0, 0)" stroke="rgb(66, 66, 66)" stroke-width="1px" opacity="0.25"></line><line x1="111.68619791666667" y1="0" x2="111.68619791666667" y2="177" fill="rgb(0, 0, 0)" stroke="rgb(66, 66, 66)" stroke-width="1px" opacity="0.25"></line><line x1="134.0234375" y1="0" x2="134.0234375" y2="177" fill="rgb(0, 0, 0)" stroke="rgb(66, 66, 66)" stroke-width="1px" opacity="0.25"></line><line x1="156.36067708333334" y1="0" x2="156.36067708333334" y2="177" fill="rgb(0, 0, 0)" stroke="rgb(66, 66, 66)" stroke-width="1px" opacity="0.25"></line><line x1="178.69791666666666" y1="0" x2="178.69791666666666" y2="177" fill="rgb(0, 0, 0)" stroke="rgb(66, 66, 66)" stroke-width="1px" opacity="0.25"></line><line x1="201.03515625" y1="0" x2="201.03515625" y2="177" fill="rgb(0, 0, 0)" stroke="rgb(66, 66, 66)" stroke-width="1px" opacity="0.25"></line><line x1="223.37239583333334" y1="0" x2="223.37239583333334" y2="177" fill="rgb(0, 0, 0)" stroke="rgb(66, 66, 66)" stroke-width="1px" opacity="0.25"></line><line x1="245.70963541666666" y1="0" x2="245.70963541666666" y2="177" fill="rgb(0, 0, 0)" stroke="rgb(66, 66, 66)" stroke-width="1px" opacity="0.25"></line><line x1="268.046875" y1="0" x2="268.046875" y2="177" fill="rgb(0, 0, 0)" stroke="rgb(66, 66, 66)" stroke-width="1px" opacity="0.25"></line></g><g><line x1="0" y1="177" x2="268.046875" y2="177" fill="rgb(0, 0, 0)" stroke="rgb(66, 66, 66)" stroke-width="1px" opacity="0.25"></line><line x1="0" y1="157.33333333333331" x2="268.046875" y2="157.33333333333331" fill="rgb(0, 0, 0)" stroke="rgb(66, 66, 66)" stroke-width="1px" opacity="0.25"></line><line x1="0" y1="137.66666666666666" x2="268.046875" y2="137.66666666666666" fill="rgb(0, 0, 0)" stroke="rgb(66, 66, 66)" stroke-width="1px" opacity="0.25"></line><line x1="0" y1="118.00000000000001" x2="268.046875" y2="118.00000000000001" fill="rgb(0, 0, 0)" stroke="rgb(66, 66, 66)" stroke-width="1px" opacity="0.25"></line><line x1="0" y1="98.33333333333334" x2="268.046875" y2="98.33333333333334" fill="rgb(0, 0, 0)" stroke="rgb(66, 66, 66)" stroke-width="1px" opacity="0.25"></line><line x1="0" y1="78.66666666666666" x2="268.046875" y2="78.66666666666666" fill="rgb(0, 0, 0)" stroke="rgb(66, 66, 66)" stroke-width="1px" opacity="0.25"></line><line x1="0" y1="59.00000000000001" x2="268.046875" y2="59.00000000000001" fill="rgb(0, 0, 0)" stroke="rgb(66, 66, 66)" stroke-width="1px" opacity="0.25"></line><line x1="0" y1="39.33333333333333" x2="268.046875" y2="39.33333333333333" fill="rgb(0, 0, 0)" stroke="rgb(66, 66, 66)" stroke-width="1px" opacity="0.25"></line><line x1="0" y1="19.666666666666675" x2="268.046875" y2="19.666666666666675" fill="rgb(0, 0, 0)" stroke="rgb(66, 66, 66)" stroke-width="1px" opacity="0.25"></line><line x1="0" y1="0" x2="268.046875" y2="0" fill="rgb(0, 0, 0)" stroke="rgb(66, 66, 66)" stroke-width="1px" opacity="0.25"></line></g></g></g><g><g><line x1="0" y1="9636.666666666657" x2="268.046875" y2="9636.666666666657" fill="rgb(0, 0, 0)" stroke="rgb(153, 153, 153)" stroke-width="1.5px"></line></g></g><g><g><line x1="22.337239583333332" y1="0" x2="22.337239583333332" y2="177" fill="rgb(0, 0, 0)" stroke="rgb(153, 153, 153)" stroke-width="1.5px"></line></g></g><g><g><g><g><g><path stroke="rgb(255, 112, 67)" stroke-width="2px" d="M33.505859375,177.03460855112712L34.62272135416667,168.845686783542L35.739583333333336,163.55783712435257L36.8564453125,159.6262746616551L37.973307291666664,152.01118688960412L39.090169270833336,144.9425473549084L40.20703125,141.00718318504855L41.32389322916667,138.08883641097492L42.44075520833333,132.33341829626605L43.5576171875,127.72254744006919L44.674479166666664,124.36725754001732L45.791341145833336,129.06084108016356L46.908203125,127.1703812662448L48.025065104166664,122.49667815025228L49.14192708333333,122.82655465938748L50.2587890625,115.14077728411097L51.37565104166667,123.66131145100275L52.492513020833336,121.55786902001454L53.609375,114.84777016816601L54.726236979166664,109.29195972245469L55.843098958333336,103.27829966295366L56.9599609375,107.29519259179023L58.07682291666667,101.13542713123422L59.19368489583333,98.49339820681732L60.310546875,95.47947345128365L61.427408854166664,93.15698089948786L62.544270833333336,92.35053552005301L63.6611328125,91.01774317878159L64.77799479166667,85.6210714548575L65.89485677083333,84.68953771998092L67.01171875,84.34536904215216L68.12858072916666,84.60470992418789L69.24544270833334,81.35195397037265L70.3623046875,79.24580118613883L71.47916666666667,76.58645881104528L72.59602864583333,77.08116443691556L73.712890625,83.65454764250967L74.82975260416667,80.62243404625889L75.94661458333333,76.89431521867664L77.0634765625,73.06954836984163L78.18033854166667,69.2725995548636L79.29720052083333,66.73114860263647L80.4140625,71.55692246085223L81.53092447916666,68.87165951644442L82.64778645833334,68.49485433845703L83.7646484375,66.60585329979L84.88151041666666,73.33432916432366L85.99837239583334,68.60833186087801L87.115234375,67.66962745692952L88.23209635416667,68.15390478912953L89.34895833333333,63.56027983433419L90.4658203125,62.36785258535275L91.58268229166667,60.2919122716805L92.69954427083333,57.49526038613015L93.81640625,69.58762702254212L94.93326822916667,64.72060269260938L96.05013020833333,61.15918119437275L97.1669921875,59.908295709015164L98.28385416666666,62.02408820676161L99.40071614583334,60.433569929724065L100.517578125,57.69513299965339L101.63444010416666,59.333831057370695L102.75130208333334,105.21724072223175L103.8681640625,91.81226289545582L104.98502604166667,74.7919107056165L106.10188802083333,64.60970834353539L107.21875,62.47282192384575L108.33561197916667,60.3347316102705L109.45247395833333,58.42872278192758L110.5693359375,59.84877286135616L111.68619791666667,54.27443276512316L112.80305989583333,51.07823235194555L113.919921875,51.73331083298143L115.03678385416666,49.88858100637105L116.15364583333334,47.36288235702644L117.2705078125,51.118019776255544L118.38736979166666,51.22827551168808L119.50423177083334,48.22015250565059L120.62109375,45.9262265652903L121.73795572916667,46.11150872054551L122.85481770833333,47.688896644172765L123.9716796875,46.43740812225571L125.08854166666667,43.89840348134488L126.20540364583333,51.22529703519697L127.322265625,45.67323119327612L128.43912760416669,43.50061856241086L129.55598958333334,41.790757909601986L130.6728515625,41.05883546780634L131.78971354166666,38.844933836327435L132.90657552083334,38.39294802864328L134.0234375,39.650103082577566L135.14029947916666,41.268325704527584L136.25716145833331,39.076831534420094L137.3740234375,39.41031737819141L138.49088541666669,38.62996016161573L139.60774739583334,37.93667869299801L140.724609375,42.09801274456682L141.84147135416666,39.894426651307924L142.95833333333334,37.54517173022515L144.0751953125,51.04866116394836L145.19205729166666,48.05986823131883L146.30891927083331,42.33330977851356L147.42578125,56.44768817957729L148.54264322916669,49.57822416466362L149.65950520833334,43.261203373921035L150.7763671875,41.02442304618277L151.89322916666666,37.10861834085293L153.01009114583331,36.82014095105462L154.126953125,34.88238748302646L155.24381510416669,32.857212482237045L156.36067708333334,34.725761726503976L157.4775390625,33.76783357958291L158.59440104166666,32.4888041033373L159.71126302083334,31.536643807928563L160.828125,30.963472071195703L161.94498697916666,33.07209750587041L163.06184895833331,32.71538269862038L164.1787109375,43.37701995578126L165.29557291666669,38.420771833698595L166.41243489583334,41.58033693419328L167.529296875,43.82493005943193L168.64615885416666,39.157938878249404L169.76302083333331,34.085034958826405L170.8798828125,33.000080048426064L171.99674479166669,30.88757737043513L173.11360677083334,29.633908014871892L174.23046875,38.69838476660599L175.34733072916666,34.524593991932576L176.46419270833334,111.30936247680475L177.5810546875,78.13478737616973L178.69791666666666,57.391198334363075L179.81477864583331,54.35472686525195L180.931640625,46.47384905478865L182.04850260416669,39.89226959344686L183.16536458333334,38.908347023707194L184.2822265625,33.96200656881794L185.39908854166666,32.59991566334652L186.51595052083331,28.779187043474092L187.6328125,27.62709004082276L188.74967447916669,26.725769176471115L189.86653645833334,25.681154490146564L190.9833984375,24.23335951207086L192.10026041666666,36.95264213266851L193.21712239583334,42.179041105406036L194.333984375,35.8032149858663L195.45084635416666,35.90373421434866L196.56770833333331,33.76424891585661L197.6845703125,39.27852310439714L198.80143229166669,33.01141864677764L199.91829427083334,29.329460580867984L201.03515625,26.20337159617086L202.15201822916666,36.17914417098004L203.26888020833331,33.035321903486775L204.3857421875,28.29348922109225L205.50260416666669,27.23087446094891L206.61946614583334,24.049812492935487L207.736328125,23.334734481896074L208.85319010416666,23.03463239013694L209.97005208333334,24.47224119428512L211.0869140625,23.08179064069369L212.20377604166666,31.463316302344847L213.32063802083331,28.08831851930152L214.4375,24.361249613269255L215.55436197916669,24.228448236488124L216.67122395833334,23.888064641457404L217.7880859375,32.98520287992622L218.90494791666666,28.888448006641514L220.02180989583331,27.302530245024872L221.138671875,24.041931412242903L222.25553385416669,21.866600542240644L223.37239583333334,19.343695022050664L224.4892578125,21.438059276770396L225.60611979166666,19.72730827317436L226.72298177083334,19.62597738893324L227.83984375,18.746497141470496L228.95670572916666,18.986381713838163L230.07356770833331,18.072262460563532L231.1904296875,17.666567874693726L232.30729166666669,19.944371966169506L233.42415364583334,19.675566546705813L234.541015625,51.5359448945049L235.65787760416666,37.670223845374146L236.77473958333331,31.089434862136365L237.8916015625,27.397913122175662L239.00846354166669,22.84370850562888L240.12532552083334,20.729885922112793L241.2421875,19.092107152683266L242.35904947916666,18.78323463742555L243.47591145833334,18.205215860275747L244.5927734375,17.020498392303814L245.70963541666666,21.66298358280631" style="fill: none;" fill="none"></path></g></g></g></g><g opacity="0.2"><g><g><g><path stroke="rgb(255, 112, 67)" stroke-width="2px" d="M31.272135416666668,180.72462201118435L32.388997395833336,166.48853937784799L33.505859375,164.95878616968758L34.62272135416667,156.63657704989083L35.739583333333336,155.65483887990285L36.8564453125,153.7417682011919L37.973307291666664,140.6034739812212L39.090169270833336,134.34789697329174L40.20703125,135.10691245396902L41.32389322916667,133.71255119641594L42.44075520833333,123.70175242423984L43.5576171875,120.8069435755409L44.674479166666664,119.33462937672905L45.791341145833336,136.10095898310314L46.908203125,124.33475375175449L48.025065104166664,115.4862157503761L49.14192708333333,123.32136551539075L50.2587890625,103.61216584841385L51.37565104166667,136.4420763651527L52.492513020833336,118.40271075566582L53.609375,104.78263219197565L54.726236979166664,100.95824917157465L55.843098958333336,94.25781289736403L56.9599609375,113.32053065299961L58.07682291666667,91.89578016598993L59.19368489583333,94.5303551355995L60.310546875,90.95858653386409L61.427408854166664,89.67324217160518L62.544270833333336,91.14086747169469L63.6611328125,89.01855468749974L64.77799479166667,77.52606391906714L65.89485677083333,83.29223712285334L67.01171875,83.82911602656021L68.12858072916666,84.9937212467191L69.24544270833334,76.47282004356359L70.3623046875,76.08657201131162L71.47916666666667,72.59744524955725L72.59602864583333,77.82322287559484L73.712890625,93.51462244987462L74.82975260416667,76.07426365216548L75.94661458333333,71.3021369775134L77.0634765625,67.33239809672014L78.18033854166667,63.57717633247352L79.29720052083333,62.91897217432635L80.4140625,78.79558324813819L81.53092447916666,64.84376509984311L82.64778645833334,67.92964657147702L83.7646484375,63.77235174179054L84.88151041666666,83.42704296112035L85.99837239583334,61.51933590571063L87.115234375,66.26157085100786L88.23209635416667,68.88032078742957L89.34895833333333,56.66984240214006L90.4658203125,60.57921171188332L91.58268229166667,57.17800180117267L92.69954427083333,53.300282557805154L93.81640625,87.72617697715734L94.93326822916667,57.42006619771299L96.05013020833333,55.817048947016175L97.1669921875,58.03196748097715L98.28385416666666,65.19777695337909L99.40071614583334,58.04779251416502L100.517578125,53.58747760454791L101.63444010416666,61.79187814394609L102.75130208333334,174.0423552195228L103.8681640625,71.70479615529354L104.98502604166667,49.26138242085754L106.10188802083333,49.33640480041482L107.21875,59.26749229431129L108.33561197916667,57.12759613990762L109.45247395833333,55.56970953941324L110.5693359375,61.97884798049903L111.68619791666667,45.912922620773095L112.80305989583333,46.28393173217752L113.919921875,52.7159285545347L115.03678385416666,47.12148626645384L116.15364583333334,43.57433438301065L117.2705078125,56.75072590510028L118.38736979166666,51.393659114837426L119.50423177083334,43.70796799659707L120.62109375,42.48533765474934L121.73795572916667,46.38943195342996L122.85481770833333,50.05497852961201L123.9716796875,44.56017533938068L125.08854166666667,40.08989651997862L126.20540364583333,62.21563736597675L127.322265625,37.34513243039428L128.43912760416669,40.24169961611409L129.55598958333334,39.22596693038919L130.6728515625,39.96095180511453L131.78971354166666,35.52408138910909L132.90657552083334,37.71496931711812L134.0234375,41.535835663477364L135.14029947916666,43.69565963745096L136.25716145833331,35.78959027926106L137.3740234375,39.91054614384947L138.49088541666669,37.4594243367511L139.60774739583334,36.896756490071404L140.724609375,48.34001382191954L141.84147135416666,36.58904751141846L142.95833333333334,34.021289348602096L144.0751953125,71.30389531453426L145.19205729166666,43.57667883237181L146.30891927083331,33.74347209930399L147.42578125,77.61925578117346L148.54264322916669,39.27402814229309L149.65950520833334,33.78567218780497L150.7763671875,37.66925255457539L151.89322916666666,31.234911282857055L153.01009114583331,36.387424866358224L154.126953125,31.975757280985306L155.24381510416669,29.81944998105347L156.36067708333334,37.52858559290548L157.4775390625,32.33094135920187L158.59440104166666,30.570259888966675L159.71126302083334,30.108403364817093L160.828125,30.103714466094768L161.94498697916666,36.23503565788248L163.06184895833331,32.18031048774699L164.1787109375,59.369475841522L165.29557291666669,30.98639965057352L166.41243489583334,46.31968458493529L167.529296875,47.1918197472888L168.64615885416666,32.15745210647562L169.76302083333331,26.475679079691375L170.8798828125,31.372647682825523L171.99674479166669,27.718823353449295L173.11360677083334,27.75340398152649L174.23046875,52.2950998942055L175.34733072916666,28.263907829920257L176.46419270833334,226.48651520411136L177.5810546875,28.372924725214432L178.69791666666666,26.275814771652033L179.81477864583331,49.80001966158526L180.931640625,34.652532339095856L182.04850260416669,30.01990040143311L183.16536458333334,37.43246316909769L184.2822265625,26.542495886484573L185.39908854166666,30.55677930513997L186.51595052083331,23.04809411366762L187.6328125,25.89894453684468L188.74967447916669,25.37378787994366L189.86653645833334,24.114232460657554L190.9833984375,22.061667044957293L192.10026041666666,56.03156606356279L193.21712239583334,50.01863956451395L194.333984375,26.239475806553955L195.45084635416666,36.05451305707276L196.56770833333331,30.555020968119102L197.6845703125,47.54993438720682L198.80143229166669,23.610761960347293L199.91829427083334,23.806523482004607L201.03515625,21.51423811912517L202.15201822916666,51.14280303319273L203.26888020833331,28.319588502247935L204.3857421875,21.180740197499407L205.50260416666669,25.636952320734466L206.61946614583334,19.278219540913707L207.736328125,22.26211746533693L208.85319010416666,22.584479252497154L209.97005208333334,26.628654400507415L211.0869140625,20.996114810307635L212.20377604166666,44.03560479481993L213.32063802083331,23.02582184473654L214.4375,18.770646254221397L215.55436197916669,24.029246171315307L216.67122395833334,23.377489248911353L217.7880859375,46.63091023762999L218.90494791666666,22.743315696716113L220.02180989583331,24.923653602599895L221.138671875,19.151033163070483L222.25553385416669,18.60360423723838L223.37239583333334,15.559336741765147L224.4892578125,24.579605658848887L225.60611979166666,17.16118176778139L226.72298177083334,19.47398106257102L227.83984375,17.427276770273657L228.95670572916666,19.3462085723875L230.07356770833331,16.70108358065268L231.1904296875,17.058025995890112L232.30729166666669,23.36107810338319L233.42415364583334,19.27235841751079L234.541015625,99.32651241620354L235.65787760416666,16.871642271677473L236.77473958333331,21.218251387278038L237.8916015625,21.86063051223736L239.00846354166669,16.01240158081035L240.12532552083334,17.55915204683921L241.2421875,16.63543899854005L242.35904947916666,18.319925864537357L243.47591145833334,17.338187694549376L244.5927734375,15.24342219034812L245.70963541666666,28.62671136856059" style="fill: none;" fill="none"></path></g></g></g></g></g></g><g transform="translate(61, 177)" clip-path="url(#clip_1)"><clipPath id="clip_1"><rect width="268" height="23"></rect></clipPath><g><g><line x1="0" y1="0" x2="0" y2="5" style="visibility: inherit;" fill="rgb(0, 0, 0)" stroke="rgb(204, 204, 204)" stroke-width="1px"></line><line x1="22.337239583333332" y1="0" x2="22.337239583333332" y2="5" style="visibility: inherit;" fill="rgb(0, 0, 0)" stroke="rgb(204, 204, 204)" stroke-width="1px"></line><line x1="44.674479166666664" y1="0" x2="44.674479166666664" y2="5" style="visibility: inherit;" fill="rgb(0, 0, 0)" stroke="rgb(204, 204, 204)" stroke-width="1px"></line><line x1="67.01171875" y1="0" x2="67.01171875" y2="5" style="visibility: inherit;" fill="rgb(0, 0, 0)" stroke="rgb(204, 204, 204)" stroke-width="1px"></line><line x1="89.34895833333333" y1="0" x2="89.34895833333333" y2="5" style="visibility: inherit;" fill="rgb(0, 0, 0)" stroke="rgb(204, 204, 204)" stroke-width="1px"></line><line x1="111.68619791666667" y1="0" x2="111.68619791666667" y2="5" style="visibility: inherit;" fill="rgb(0, 0, 0)" stroke="rgb(204, 204, 204)" stroke-width="1px"></line><line x1="134.0234375" y1="0" x2="134.0234375" y2="5" style="visibility: inherit;" fill="rgb(0, 0, 0)" stroke="rgb(204, 204, 204)" stroke-width="1px"></line><line x1="156.36067708333334" y1="0" x2="156.36067708333334" y2="5" style="visibility: inherit;" fill="rgb(0, 0, 0)" stroke="rgb(204, 204, 204)" stroke-width="1px"></line><line x1="178.69791666666666" y1="0" x2="178.69791666666666" y2="5" style="visibility: inherit;" fill="rgb(0, 0, 0)" stroke="rgb(204, 204, 204)" stroke-width="1px"></line><line x1="201.03515625" y1="0" x2="201.03515625" y2="5" style="visibility: inherit;" fill="rgb(0, 0, 0)" stroke="rgb(204, 204, 204)" stroke-width="1px"></line><line x1="223.37239583333334" y1="0" x2="223.37239583333334" y2="5" style="visibility: inherit;" fill="rgb(0, 0, 0)" stroke="rgb(204, 204, 204)" stroke-width="1px"></line><line x1="245.70963541666666" y1="0" x2="245.70963541666666" y2="5" style="visibility: inherit;" fill="rgb(0, 0, 0)" stroke="rgb(204, 204, 204)" stroke-width="1px"></line><line x1="268.046875" y1="0" x2="268.046875" y2="5" style="visibility: inherit;" fill="rgb(0, 0, 0)" stroke="rgb(204, 204, 204)" stroke-width="1px"></line></g><g transform="translate(0, 8)"><text x="0" y="0" dx="0em" dy="0.95em" style="text-anchor: middle; visibility: hidden; font-family: Roboto, sans-serif; font-size: 12px; font-weight: 200;" fill="rgb(33, 33, 33)" stroke="none" stroke-width="1px">-20</text><text x="22.337239583333332" y="0" dx="0em" dy="0.95em" style="text-anchor: middle; visibility: inherit; font-family: Roboto, sans-serif; font-size: 12px; font-weight: 200;" fill="rgb(33, 33, 33)" stroke="none" stroke-width="1px">0</text><text x="44.674479166666664" y="0" dx="0em" dy="0.95em" style="text-anchor: middle; visibility: hidden; font-family: Roboto, sans-serif; font-size: 12px; font-weight: 200;" fill="rgb(33, 33, 33)" stroke="none" stroke-width="1px">20</text><text x="67.01171875" y="0" dx="0em" dy="0.95em" style="text-anchor: middle; visibility: inherit; font-family: Roboto, sans-serif; font-size: 12px; font-weight: 200;" fill="rgb(33, 33, 33)" stroke="none" stroke-width="1px">40</text><text x="89.34895833333333" y="0" dx="0em" dy="0.95em" style="text-anchor: middle; visibility: hidden; font-family: Roboto, sans-serif; font-size: 12px; font-weight: 200;" fill="rgb(33, 33, 33)" stroke="none" stroke-width="1px">60</text><text x="111.68619791666667" y="0" dx="0em" dy="0.95em" style="text-anchor: middle; visibility: inherit; font-family: Roboto, sans-serif; font-size: 12px; font-weight: 200;" fill="rgb(33, 33, 33)" stroke="none" stroke-width="1px">80</text><text x="134.0234375" y="0" dx="0em" dy="0.95em" style="text-anchor: middle; visibility: hidden; font-family: Roboto, sans-serif; font-size: 12px; font-weight: 200;" fill="rgb(33, 33, 33)" stroke="none" stroke-width="1px">100</text><text x="156.36067708333334" y="0" dx="0em" dy="0.95em" style="text-anchor: middle; visibility: inherit; font-family: Roboto, sans-serif; font-size: 12px; font-weight: 200;" fill="rgb(33, 33, 33)" stroke="none" stroke-width="1px">120</text><text x="178.69791666666666" y="0" dx="0em" dy="0.95em" style="text-anchor: middle; visibility: hidden; font-family: Roboto, sans-serif; font-size: 12px; font-weight: 200;" fill="rgb(33, 33, 33)" stroke="none" stroke-width="1px">140</text><text x="201.03515625" y="0" dx="0em" dy="0.95em" style="text-anchor: middle; visibility: inherit; font-family: Roboto, sans-serif; font-size: 12px; font-weight: 200;" fill="rgb(33, 33, 33)" stroke="none" stroke-width="1px">160</text><text x="223.37239583333334" y="0" dx="0em" dy="0.95em" style="text-anchor: middle; visibility: hidden; font-family: Roboto, sans-serif; font-size: 12px; font-weight: 200;" fill="rgb(33, 33, 33)" stroke="none" stroke-width="1px">180</text><text x="245.70963541666666" y="0" dx="0em" dy="0.95em" style="text-anchor: middle; visibility: inherit; font-family: Roboto, sans-serif; font-size: 12px; font-weight: 200;" fill="rgb(33, 33, 33)" stroke="none" stroke-width="1px">200</text><text x="268.046875" y="0" dx="0em" dy="0.95em" style="text-anchor: middle; visibility: hidden; font-family: Roboto, sans-serif; font-size: 12px; font-weight: 200;" fill="rgb(33, 33, 33)" stroke="none" stroke-width="1px">220</text></g><line x1="0" y1="0" x2="268.046875" y2="0" fill="rgb(0, 0, 0)" stroke="rgb(204, 204, 204)" stroke-width="1px"></line></g></g></g></g></svg>