<svg viewBox="0 0 329.9884338378906 199.98843383789062" xmlns="http://www.w3.org/2000/svg"><g><g><g><g><g><line x1="51.5625" y1="176.988" x2="46.5625" y2="176.988" style="visibility: inherit;" fill="rgb(0, 0, 0)" stroke="rgb(204, 204, 204)" stroke-width="1px"></line><line x1="51.5625" y1="154.8645" x2="46.5625" y2="154.8645" style="visibility: inherit;" fill="rgb(0, 0, 0)" stroke="rgb(204, 204, 204)" stroke-width="1px"></line><line x1="51.5625" y1="132.74099999999996" x2="46.5625" y2="132.74099999999996" style="visibility: inherit;" fill="rgb(0, 0, 0)" stroke="rgb(204, 204, 204)" stroke-width="1px"></line><line x1="51.5625" y1="110.61749999999996" x2="46.5625" y2="110.61749999999996" style="visibility: inherit;" fill="rgb(0, 0, 0)" stroke="rgb(204, 204, 204)" stroke-width="1px"></line><line x1="51.5625" y1="88.49399999999994" x2="46.5625" y2="88.49399999999994" style="visibility: inherit;" fill="rgb(0, 0, 0)" stroke="rgb(204, 204, 204)" stroke-width="1px"></line><line x1="51.5625" y1="66.37050000000004" x2="46.5625" y2="66.37050000000004" style="visibility: inherit;" fill="rgb(0, 0, 0)" stroke="rgb(204, 204, 204)" stroke-width="1px"></line><line x1="51.5625" y1="44.24700000000004" x2="46.5625" y2="44.24700000000004" style="visibility: inherit;" fill="rgb(0, 0, 0)" stroke="rgb(204, 204, 204)" stroke-width="1px"></line><line x1="51.5625" y1="22.12350000000002" x2="46.5625" y2="22.12350000000002" style="visibility: inherit;" fill="rgb(0, 0, 0)" stroke="rgb(204, 204, 204)" stroke-width="1px"></line><line x1="51.5625" y1="0" x2="46.5625" y2="0" style="visibility: inherit;" fill="rgb(0, 0, 0)" stroke="rgb(204, 204, 204)" stroke-width="1px"></line></g><g transform="translate(41.5625, 0)"><text x="0" y="176.988" dx="0em" dy="0.3em" style="text-anchor: end; visibility: hidden; font-family: Roboto, sans-serif; font-size: 12px; font-weight: 200;" fill="rgb(33, 33, 33)" stroke="none" stroke-width="1px">0.84</text><text x="0" y="154.8645" dx="0em" dy="0.3em" style="text-anchor: end; visibility: inherit; font-family: Roboto, sans-serif; font-size: 12px; font-weight: 200;" fill="rgb(33, 33, 33)" stroke="none" stroke-width="1px">0.86</text><text x="0" y="132.74099999999996" dx="0em" dy="0.3em" style="text-anchor: end; visibility: hidden; font-family: Roboto, sans-serif; font-size: 12px; font-weight: 200;" fill="rgb(33, 33, 33)" stroke="none" stroke-width="1px">0.88</text><text x="0" y="110.61749999999996" dx="0em" dy="0.3em" style="text-anchor: end; visibility: inherit; font-family: Roboto, sans-serif; font-size: 12px; font-weight: 200;" fill="rgb(33, 33, 33)" stroke="none" stroke-width="1px">0.9</text><text x="0" y="88.49399999999994" dx="0em" dy="0.3em" style="text-anchor: end; visibility: hidden; font-family: Roboto, sans-serif; font-size: 12px; font-weight: 200;" fill="rgb(33, 33, 33)" stroke="none" stroke-width="1px">0.92</text><text x="0" y="66.37050000000004" dx="0em" dy="0.3em" style="text-anchor: end; visibility: inherit; font-family: Roboto, sans-serif; font-size: 12px; font-weight: 200;" fill="rgb(33, 33, 33)" stroke="none" stroke-width="1px">0.94</text><text x="0" y="44.24700000000004" dx="0em" dy="0.3em" style="text-anchor: end; visibility: hidden; font-family: Roboto, sans-serif; font-size: 12px; font-weight: 200;" fill="rgb(33, 33, 33)" stroke="none" stroke-width="1px">0.96</text><text x="0" y="22.12350000000002" dx="0em" dy="0.3em" style="text-anchor: end; visibility: inherit; font-family: Roboto, sans-serif; font-size: 12px; font-weight: 200;" fill="rgb(33, 33, 33)" stroke="none" stroke-width="1px">0.98</text><text x="0" y="0" dx="0em" dy="0.3em" style="text-anchor: end; visibility: hidden; font-family: Roboto, sans-serif; font-size: 12px; font-weight: 200;" fill="rgb(33, 33, 33)" stroke="none" stroke-width="1px">1</text></g><line x1="51.5625" y1="0" x2="51.5625" y2="176.988" fill="rgb(0, 0, 0)" stroke="rgb(204, 204, 204)" stroke-width="1px"></line></g></g><g transform="translate(51, 0)" clip-path="url(#clip_0)"><clipPath id="clip_0"><rect width="278" height="176"></rect></clipPath><g><g><g><line x1="0" y1="0" x2="0" y2="176.988" fill="rgb(0, 0, 0)" stroke="rgb(66, 66, 66)" stroke-width="1px" opacity="0.25"></line><line x1="21.417346153846154" y1="0" x2="21.417346153846154" y2="176.988" fill="rgb(0, 0, 0)" stroke="rgb(66, 66, 66)" stroke-width="1px" opacity="0.25"></line><line x1="42.83469230769231" y1="0" x2="42.83469230769231" y2="176.988" fill="rgb(0, 0, 0)" stroke="rgb(66, 66, 66)" stroke-width="1px" opacity="0.25"></line><line x1="64.25203846153846" y1="0" x2="64.25203846153846" y2="176.988" fill="rgb(0, 0, 0)" stroke="rgb(66, 66, 66)" stroke-width="1px" opacity="0.25"></line><line x1="85.66938461538462" y1="0" x2="85.66938461538462" y2="176.988" fill="rgb(0, 0, 0)" stroke="rgb(66, 66, 66)" stroke-width="1px" opacity="0.25"></line><line x1="107.08673076923077" y1="0" x2="107.08673076923077" y2="176.988" fill="rgb(0, 0, 0)" stroke="rgb(66, 66, 66)" stroke-width="1px" opacity="0.25"></line><line x1="128.50407692307692" y1="0" x2="128.50407692307692" y2="176.988" fill="rgb(0, 0, 0)" stroke="rgb(66, 66, 66)" stroke-width="1px" opacity="0.25"></line><line x1="149.92142307692308" y1="0" x2="149.92142307692308" y2="176.988" fill="rgb(0, 0, 0)" stroke="rgb(66, 66, 66)" stroke-width="1px" opacity="0.25"></line><line x1="171.33876923076923" y1="0" x2="171.33876923076923" y2="176.988" fill="rgb(0, 0, 0)" stroke="rgb(66, 66, 66)" stroke-width="1px" opacity="0.25"></line><line x1="192.75611538461538" y1="0" x2="192.75611538461538" y2="176.988" fill="rgb(0, 0, 0)" stroke="rgb(66, 66, 66)" stroke-width="1px" opacity="0.25"></line><line x1="214.17346153846154" y1="0" x2="214.17346153846154" y2="176.988" fill="rgb(0, 0, 0)" stroke="rgb(66, 66, 66)" stroke-width="1px" opacity="0.25"></line><line x1="235.5908076923077" y1="0" x2="235.5908076923077" y2="176.988" fill="rgb(0, 0, 0)" stroke="rgb(66, 66, 66)" stroke-width="1px" opacity="0.25"></line><line x1="257.00815384615385" y1="0" x2="257.00815384615385" y2="176.988" fill="rgb(0, 0, 0)" stroke="rgb(66, 66, 66)" stroke-width="1px" opacity="0.25"></line><line x1="278.4255" y1="0" x2="278.4255" y2="176.988" fill="rgb(0, 0, 0)" stroke="rgb(66, 66, 66)" stroke-width="1px" opacity="0.25"></line></g><g><line x1="0" y1="176.988" x2="278.4255" y2="176.988" fill="rgb(0, 0, 0)" stroke="rgb(66, 66, 66)" stroke-width="1px" opacity="0.25"></line><line x1="0" y1="154.8645" x2="278.4255" y2="154.8645" fill="rgb(0, 0, 0)" stroke="rgb(66, 66, 66)" stroke-width="1px" opacity="0.25"></line><line x1="0" y1="132.74099999999996" x2="278.4255" y2="132.74099999999996" fill="rgb(0, 0, 0)" stroke="rgb(66, 66, 66)" stroke-width="1px" opacity="0.25"></line><line x1="0" y1="110.61749999999996" x2="278.4255" y2="110.61749999999996" fill="rgb(0, 0, 0)" stroke="rgb(66, 66, 66)" stroke-width="1px" opacity="0.25"></line><line x1="0" y1="88.49399999999994" x2="278.4255" y2="88.49399999999994" fill="rgb(0, 0, 0)" stroke="rgb(66, 66, 66)" stroke-width="1px" opacity="0.25"></line><line x1="0" y1="66.37050000000004" x2="278.4255" y2="66.37050000000004" fill="rgb(0, 0, 0)" stroke="rgb(66, 66, 66)" stroke-width="1px" opacity="0.25"></line><line x1="0" y1="44.24700000000004" x2="278.4255" y2="44.24700000000004" fill="rgb(0, 0, 0)" stroke="rgb(66, 66, 66)" stroke-width="1px" opacity="0.25"></line><line x1="0" y1="22.12350000000002" x2="278.4255" y2="22.12350000000002" fill="rgb(0, 0, 0)" stroke="rgb(66, 66, 66)" stroke-width="1px" opacity="0.25"></line><line x1="0" y1="0" x2="278.4255" y2="0" fill="rgb(0, 0, 0)" stroke="rgb(66, 66, 66)" stroke-width="1px" opacity="0.25"></line></g></g></g><g><g><line x1="0" y1="1106.1749999999997" x2="278.4255" y2="1106.1749999999997" fill="rgb(0, 0, 0)" stroke="rgb(153, 153, 153)" stroke-width="1.5px"></line></g></g><g><g><line x1="21.417346153846154" y1="0" x2="21.417346153846154" y2="176.988" fill="rgb(0, 0, 0)" stroke="rgb(153, 153, 153)" stroke-width="1.5px"></line></g></g><g><g><g><g><g><path stroke="rgb(255, 112, 67)" stroke-width="2px" d="M23.55908076923077,55.734032119810564L25.700815384615385,52.972503797337396L27.842550000000003,48.80696566700939L29.984284615384617,45.24911795764182L32.12601923076923,42.705227941069985L34.267753846153845,42.17422441553909L36.409488461538466,43.39799251427798L38.55122307692308,40.596169701184586L40.692957692307694,39.409893365410895L42.83469230769231,39.101946967759744L44.97642692307693,37.27555825164407L47.11816153846154,35.13083969044927L49.25989615384616,34.624708815430374L51.40163076923077,40.41470833039087L53.543365384615385,36.7163931990158L55.685100000000006,37.114085526287624L57.82683461538462,33.810310715263704L59.96856923076923,32.12571342731563L62.11030384615385,32.884976875594866L64.25203846153846,32.308824521025414L66.39377307692308,34.161301136879665L68.53550769230769,34.97046673073368L70.67724230769231,32.1175520009511L72.81897692307693,32.542748054174076L74.96071153846154,31.084309236902104L77.10244615384616,30.354565550240753L79.24418076923077,28.971580391874795L81.38591538461539,28.787803778892556L83.52765,28.96566593336729L85.66938461538462,27.831467942715808L87.81111923076922,27.297347334300035L89.95285384615386,27.424429394151627L92.09458846153846,28.687660315960063L94.23632307692309,27.731230921957035L96.37805769230769,27.559829367083292L98.51979230769231,27.294529108578583L100.66152692307692,27.014691257160298L102.80326153846154,26.601279802385513L104.94499615384615,26.582311129684946L107.08673076923077,26.461981959251037L109.22846538461538,26.172969827484433L111.37020000000001,25.765077830017788L113.51193461538462,33.265089898880845L115.65366923076924,30.786546030554813L117.79540384615385,31.054956239438507L119.93713846153847,28.717372659285093L122.07887307692307,27.51641976556997L124.2206076923077,26.68004301320713L126.3623423076923,26.16146993714592L128.50407692307692,82.36396517607106L130.64581153846154,116.08546231913556L132.78754615384616,136.3183606048696L134.92928076923076,148.45809957627225L137.07101538461538,155.74194295910021L139.21275,160.11224898879206L141.35448461538462,162.73443260660565L143.4962192307692,164.307742777293L145.63795384615386,165.25172887970533L147.77968846153846,165.81812054115244L149.92142307692308,166.15795553802081L152.06315769230767,166.36185653614174L154.20489230769232,166.4841971350143L156.3466269230769,166.55760149433777L158.48836153846153,166.60164410993193L160.63009615384613,166.62806967928847L162.77183076923077,166.64392502090237L164.9135653846154,166.6534382258709L167.0553,166.65914614885182L169.1970346153846,166.66257090264037L171.33876923076923,166.66462575491337L173.48050384615385,166.6658586662773L175.62223846153844,166.66659841309576L177.76397307692307,166.66704226118665L179.90570769230771,166.66730857004146L182.0474423076923,166.66746835535415L184.18917692307693,166.6675642265418L186.33091153846152,166.66762174925438L188.47264615384617,166.66765626288202L190.61438076923076,166.66767697105843L192.75611538461538,166.6676893959643L194.89784999999998,166.667696850908L197.03958461538463,166.66770132387418L199.18131923076925,166.66770400765378L201.32305384615384,166.66770561792157L203.46478846153846,166.66770658408234L205.60652307692308,166.66770716377866L207.7482576923077,166.6677075115965L209.8899923076923,166.66770772028718L212.03172692307692,166.66770784550167L214.17346153846154,166.66770792063025L216.31519615384616,166.66770796570745L218.45693076923075,166.66770799275366L220.59866538461537,166.66770800898155L222.74040000000002,166.66770801871817L224.88213461538462,166.66770802456026L227.02386923076924,166.6677080280655L229.16560384615383,166.6677080301685L231.30733846153848,166.6677080314305L233.44907307692307,166.6677080321875L235.5908076923077,166.6677080326419L237.73254230769228,166.66770803291453L239.87427692307693,166.66770803307813L242.01601153846156,166.66770803317613L244.15774615384615,166.66770803323507L246.29948076923077,166.66770803327046L248.4412153846154,166.66770803329158L250.58295,166.66770803330434L252.7246846153846,166.66770803331195L254.86641923076922,166.66770803331636L257.00815384615385,166.6677080333191L259.14988846153847,166.6677080333208L261.2916230769231,166.6677080333218L263.4333576923077,166.66770803332227L265.57509230769233,166.66770803332275L267.71682692307695,166.667708033323" style="fill: none;" fill="none"></path></g></g></g></g><g opacity="0.2"><g><g><g><path stroke="rgb(255, 112, 67)" stroke-width="2px" d="M23.55908076923077,55.734032119810564L25.700815384615385,51.31558680385349L27.842550000000003,44.808049061894415L29.984284615384617,41.06508905142546L32.12601923076923,39.38392513543367L34.267753846153845,41.439655378460884L36.409488461538466,45.14800047576428L38.55122307692308,36.51108514219523L40.692957692307694,37.66036619246006L42.83469230769231,38.644682456552985L44.97642692307693,34.55254038870335L47.11816153846154,31.92543331235647L49.25989615384616,33.86716510802508L51.40163076923077,49.08836439102888L53.543365384615385,31.173267732560635L55.685100000000006,37.71034353375435L57.82683461538462,28.856046545505524L59.96856923076923,29.59924521446228L62.11030384615385,34.02375638186932L64.25203846153846,31.4446486517787L66.39377307692308,36.939914466440676L68.53550769230769,36.18418849557638L70.67724230769231,27.838236232101917L72.81897692307693,33.18053709715605L74.96071153846154,28.896661376953126L77.10244615384616,29.259953132271768L79.24418076923077,26.89710619300604L81.38591538461539,28.5121391415596L83.52765,29.232459001243114L85.66938461538462,26.13017158359289L87.81111923076922,26.496166598796844L89.95285384615386,27.615052458643913L92.09458846153846,30.582506547868253L94.23632307692309,26.296586899459363L96.37805769230769,27.302727042138578L98.51979230769231,26.896578727662565L100.66152692307692,26.594934484362604L102.80326153846154,25.981162624061106L104.94499615384615,26.55385812073946L107.08673076923077,26.28148820400238L109.22846538461538,25.739451630413534L111.37020000000001,25.153239834308625L113.51193461538462,44.5151079967618L115.65366923076924,27.068730229139327L117.79540384615385,31.457571552693842L119.93713846153847,25.210997289419176L122.07887307692307,25.714990425109864L124.2206076923077,25.425477884709835L126.3623423076923,25.38361032307148L128.50407692307692,166.66770803332324L130.64581153846154,166.66770803332324L132.78754615384616,166.66770803332324L134.92928076923076,166.66770803332324L137.07101538461538,166.66770803332324L139.21275,166.66770803332324L141.35448461538462,166.66770803332324L143.4962192307692,166.66770803332324L145.63795384615386,166.66770803332324L147.77968846153846,166.66770803332324L149.92142307692308,166.66770803332324L152.06315769230767,166.66770803332324L154.20489230769232,166.66770803332324L156.3466269230769,166.66770803332324L158.48836153846153,166.66770803332324L160.63009615384613,166.66770803332324L162.77183076923077,166.66770803332324L164.9135653846154,166.66770803332324L167.0553,166.66770803332324L169.1970346153846,166.66770803332324L171.33876923076923,166.66770803332324L173.48050384615385,166.66770803332324L175.62223846153844,166.66770803332324L177.76397307692307,166.66770803332324L179.90570769230771,166.66770803332324L182.0474423076923,166.66770803332324L184.18917692307693,166.66770803332324L186.33091153846152,166.66770803332324L188.47264615384617,166.66770803332324L190.61438076923076,166.66770803332324L192.75611538461538,166.66770803332324L194.89784999999998,166.66770803332324L197.03958461538463,166.66770803332324L199.18131923076925,166.66770803332324L201.32305384615384,166.66770803332324L203.46478846153846,166.66770803332324L205.60652307692308,166.66770803332324L207.7482576923077,166.66770803332324L209.8899923076923,166.66770803332324L212.03172692307692,166.66770803332324L214.17346153846154,166.66770803332324L216.31519615384616,166.66770803332324L218.45693076923075,166.66770803332324L220.59866538461537,166.66770803332324L222.74040000000002,166.66770803332324L224.88213461538462,166.66770803332324L227.02386923076924,166.66770803332324L229.16560384615383,166.66770803332324L231.30733846153848,166.66770803332324L233.44907307692307,166.66770803332324L235.5908076923077,166.66770803332324L237.73254230769228,166.66770803332324L239.87427692307693,166.66770803332324L242.01601153846156,166.66770803332324L244.15774615384615,166.66770803332324L246.29948076923077,166.66770803332324L248.4412153846154,166.66770803332324L250.58295,166.66770803332324L252.7246846153846,166.66770803332324L254.86641923076922,166.66770803332324L257.00815384615385,166.66770803332324L259.14988846153847,166.66770803332324L261.2916230769231,166.66770803332324L263.4333576923077,166.66770803332324L265.57509230769233,166.66770803332324L267.71682692307695,166.66770803332324" style="fill: none;" fill="none"></path></g></g></g></g></g></g><g transform="translate(51, 176)" clip-path="url(#clip_1)"><clipPath id="clip_1"><rect width="278" height="22"></rect></clipPath><g><g><line x1="0" y1="0" x2="0" y2="5" style="visibility: inherit;" fill="rgb(0, 0, 0)" stroke="rgb(204, 204, 204)" stroke-width="1px"></line><line x1="21.417346153846154" y1="0" x2="21.417346153846154" y2="5" style="visibility: inherit;" fill="rgb(0, 0, 0)" stroke="rgb(204, 204, 204)" stroke-width="1px"></line><line x1="42.83469230769231" y1="0" x2="42.83469230769231" y2="5" style="visibility: inherit;" fill="rgb(0, 0, 0)" stroke="rgb(204, 204, 204)" stroke-width="1px"></line><line x1="64.25203846153846" y1="0" x2="64.25203846153846" y2="5" style="visibility: inherit;" fill="rgb(0, 0, 0)" stroke="rgb(204, 204, 204)" stroke-width="1px"></line><line x1="85.66938461538462" y1="0" x2="85.66938461538462" y2="5" style="visibility: inherit;" fill="rgb(0, 0, 0)" stroke="rgb(204, 204, 204)" stroke-width="1px"></line><line x1="107.08673076923077" y1="0" x2="107.08673076923077" y2="5" style="visibility: inherit;" fill="rgb(0, 0, 0)" stroke="rgb(204, 204, 204)" stroke-width="1px"></line><line x1="128.50407692307692" y1="0" x2="128.50407692307692" y2="5" style="visibility: inherit;" fill="rgb(0, 0, 0)" stroke="rgb(204, 204, 204)" stroke-width="1px"></line><line x1="149.92142307692308" y1="0" x2="149.92142307692308" y2="5" style="visibility: inherit;" fill="rgb(0, 0, 0)" stroke="rgb(204, 204, 204)" stroke-width="1px"></line><line x1="171.33876923076923" y1="0" x2="171.33876923076923" y2="5" style="visibility: inherit;" fill="rgb(0, 0, 0)" stroke="rgb(204, 204, 204)" stroke-width="1px"></line><line x1="192.75611538461538" y1="0" x2="192.75611538461538" y2="5" style="visibility: inherit;" fill="rgb(0, 0, 0)" stroke="rgb(204, 204, 204)" stroke-width="1px"></line><line x1="214.17346153846154" y1="0" x2="214.17346153846154" y2="5" style="visibility: inherit;" fill="rgb(0, 0, 0)" stroke="rgb(204, 204, 204)" stroke-width="1px"></line><line x1="235.5908076923077" y1="0" x2="235.5908076923077" y2="5" style="visibility: inherit;" fill="rgb(0, 0, 0)" stroke="rgb(204, 204, 204)" stroke-width="1px"></line><line x1="257.00815384615385" y1="0" x2="257.00815384615385" y2="5" style="visibility: inherit;" fill="rgb(0, 0, 0)" stroke="rgb(204, 204, 204)" stroke-width="1px"></line><line x1="278.4255" y1="0" x2="278.4255" y2="5" style="visibility: inherit;" fill="rgb(0, 0, 0)" stroke="rgb(204, 204, 204)" stroke-width="1px"></line></g><g transform="translate(0, 8)"><text x="0" y="0" dx="0em" dy="0.95em" style="text-anchor: middle; visibility: hidden; font-family: Roboto, sans-serif; font-size: 12px; font-weight: 200;" fill="rgb(33, 33, 33)" stroke="none" stroke-width="1px">-10</text><text x="21.417346153846154" y="0" dx="0em" dy="0.95em" style="text-anchor: middle; visibility: inherit; font-family: Roboto, sans-serif; font-size: 12px; font-weight: 200;" fill="rgb(33, 33, 33)" stroke="none" stroke-width="1px">0</text><text x="42.83469230769231" y="0" dx="0em" dy="0.95em" style="text-anchor: middle; visibility: hidden; font-family: Roboto, sans-serif; font-size: 12px; font-weight: 200;" fill="rgb(33, 33, 33)" stroke="none" stroke-width="1px">10</text><text x="64.25203846153846" y="0" dx="0em" dy="0.95em" style="text-anchor: middle; visibility: inherit; font-family: Roboto, sans-serif; font-size: 12px; font-weight: 200;" fill="rgb(33, 33, 33)" stroke="none" stroke-width="1px">20</text><text x="85.66938461538462" y="0" dx="0em" dy="0.95em" style="text-anchor: middle; visibility: hidden; font-family: Roboto, sans-serif; font-size: 12px; font-weight: 200;" fill="rgb(33, 33, 33)" stroke="none" stroke-width="1px">30</text><text x="107.08673076923077" y="0" dx="0em" dy="0.95em" style="text-anchor: middle; visibility: inherit; font-family: Roboto, sans-serif; font-size: 12px; font-weight: 200;" fill="rgb(33, 33, 33)" stroke="none" stroke-width="1px">40</text><text x="128.50407692307692" y="0" dx="0em" dy="0.95em" style="text-anchor: middle; visibility: hidden; font-family: Roboto, sans-serif; font-size: 12px; font-weight: 200;" fill="rgb(33, 33, 33)" stroke="none" stroke-width="1px">50</text><text x="149.92142307692308" y="0" dx="0em" dy="0.95em" style="text-anchor: middle; visibility: inherit; font-family: Roboto, sans-serif; font-size: 12px; font-weight: 200;" fill="rgb(33, 33, 33)" stroke="none" stroke-width="1px">60</text><text x="171.33876923076923" y="0" dx="0em" dy="0.95em" style="text-anchor: middle; visibility: hidden; font-family: Roboto, sans-serif; font-size: 12px; font-weight: 200;" fill="rgb(33, 33, 33)" stroke="none" stroke-width="1px">70</text><text x="192.75611538461538" y="0" dx="0em" dy="0.95em" style="text-anchor: middle; visibility: inherit; font-family: Roboto, sans-serif; font-size: 12px; font-weight: 200;" fill="rgb(33, 33, 33)" stroke="none" stroke-width="1px">80</text><text x="214.17346153846154" y="0" dx="0em" dy="0.95em" style="text-anchor: middle; visibility: hidden; font-family: Roboto, sans-serif; font-size: 12px; font-weight: 200;" fill="rgb(33, 33, 33)" stroke="none" stroke-width="1px">90</text><text x="235.5908076923077" y="0" dx="0em" dy="0.95em" style="text-anchor: middle; visibility: inherit; font-family: Roboto, sans-serif; font-size: 12px; font-weight: 200;" fill="rgb(33, 33, 33)" stroke="none" stroke-width="1px">100</text><text x="257.00815384615385" y="0" dx="0em" dy="0.95em" style="text-anchor: middle; visibility: hidden; font-family: Roboto, sans-serif; font-size: 12px; font-weight: 200;" fill="rgb(33, 33, 33)" stroke="none" stroke-width="1px">110</text><text x="278.4255" y="0" dx="0em" dy="0.95em" style="text-anchor: middle; visibility: hidden; font-family: Roboto, sans-serif; font-size: 12px; font-weight: 200;" fill="rgb(33, 33, 33)" stroke="none" stroke-width="1px">120</text></g><line x1="0" y1="0" x2="278.4255" y2="0" fill="rgb(0, 0, 0)" stroke="rgb(204, 204, 204)" stroke-width="1px"></line></g></g></g></g></svg>